G04 #@! TF.FileFunction,Copper,L2,Bot,Signal*
%FSLAX46Y46*%
G04 Gerber Fmt 4.6, Leading zero omitted, Abs format (unit mm)*
G04 Created by KiCad (PCBNEW 4.0.4-stable) date 2016 December 04, Sunday 22:34:29*
%MOMM*%
%LPD*%
G01*
G04 APERTURE LIST*
%ADD10C,0.100000*%
%ADD11R,1.300000X1.300000*%
%ADD12C,1.300000*%
%ADD13R,1.700000X1.700000*%
%ADD14C,1.700000*%
%ADD15R,2.100000X3.600000*%
%ADD16O,2.100000X3.600000*%
%ADD17R,3.600000X2.100000*%
%ADD18O,3.600000X2.100000*%
%ADD19C,1.998980*%
%ADD20C,1.510000*%
%ADD21R,1.510000X1.510000*%
%ADD22R,0.900000X0.900000*%
%ADD23R,1.200000X1.200000*%
%ADD24O,2.300000X1.600000*%
%ADD25C,1.000000*%
%ADD26C,3.000000*%
G04 APERTURE END LIST*
D10*
D11*
X185928000Y-103632000D03*
D12*
X190928000Y-103632000D03*
D11*
X191008000Y-111252000D03*
D12*
X186008000Y-111252000D03*
D13*
X183388000Y-88900000D03*
D14*
X193388000Y-88900000D03*
D13*
X193548000Y-127000000D03*
D14*
X183548000Y-127000000D03*
D11*
X136652000Y-116332000D03*
D12*
X141652000Y-116332000D03*
D15*
X149225000Y-75565000D03*
D16*
X144225000Y-75565000D03*
X139225000Y-75565000D03*
D17*
X72390000Y-110490000D03*
D18*
X72390000Y-105490000D03*
D15*
X123952000Y-75692000D03*
D16*
X118952000Y-75692000D03*
D17*
X212344000Y-108712000D03*
D18*
X212344000Y-103712000D03*
D19*
X132080000Y-104648000D03*
X121920000Y-104648000D03*
X167132000Y-89408000D03*
X167132000Y-99568000D03*
X167132000Y-113792000D03*
X167132000Y-123952000D03*
X157480000Y-109220000D03*
X147320000Y-109220000D03*
X195580000Y-111252000D03*
X205740000Y-111252000D03*
D20*
X167132000Y-109220000D03*
D21*
X167132000Y-104140000D03*
D20*
X164592000Y-106680000D03*
D22*
X118745000Y-110490000D03*
X118745000Y-105410000D03*
X118745000Y-107950000D03*
D23*
X106045000Y-114300000D03*
X108585000Y-114300000D03*
X111125000Y-114300000D03*
X106045000Y-101600000D03*
X108585000Y-101600000D03*
X111125000Y-101600000D03*
D24*
X143256000Y-111760000D03*
X143256000Y-109220000D03*
X143256000Y-106680000D03*
X143256000Y-104140000D03*
X135636000Y-104140000D03*
X135636000Y-106680000D03*
X135636000Y-109220000D03*
X135636000Y-111760000D03*
D25*
X123952000Y-75692000D02*
X130556000Y-69088000D01*
X154432000Y-82296000D02*
X146304000Y-82296000D01*
X159004000Y-77724000D02*
X154432000Y-82296000D01*
X159004000Y-75692000D02*
X159004000Y-77724000D01*
X152400000Y-69088000D02*
X159004000Y-75692000D01*
X130556000Y-69088000D02*
X152400000Y-69088000D01*
X193388000Y-88900000D02*
X189484000Y-88900000D01*
X189484000Y-88900000D02*
X182880000Y-82296000D01*
X182880000Y-82296000D02*
X146304000Y-82296000D01*
X144225000Y-80217000D02*
X144225000Y-75565000D01*
X146304000Y-82296000D02*
X144225000Y-80217000D01*
X125984000Y-110744000D02*
X125984000Y-83312000D01*
X126238000Y-110490000D02*
X125984000Y-110744000D01*
X118745000Y-110490000D02*
X126238000Y-110490000D01*
X123952000Y-81280000D02*
X123952000Y-75692000D01*
X125984000Y-83312000D02*
X123952000Y-81280000D01*
X195580000Y-111252000D02*
X196088000Y-111252000D01*
X196088000Y-111252000D02*
X200152000Y-115316000D01*
X215980000Y-103712000D02*
X212344000Y-103712000D01*
X217424000Y-105156000D02*
X215980000Y-103712000D01*
X217424000Y-111252000D02*
X217424000Y-105156000D01*
X213360000Y-115316000D02*
X217424000Y-111252000D01*
X200152000Y-115316000D02*
X213360000Y-115316000D01*
X190928000Y-103632000D02*
X190928000Y-97108000D01*
X193388000Y-94648000D02*
X193388000Y-88900000D01*
X190928000Y-97108000D02*
X193388000Y-94648000D01*
X193548000Y-127000000D02*
X193548000Y-122428000D01*
X195580000Y-120396000D02*
X195580000Y-111252000D01*
X193548000Y-122428000D02*
X195580000Y-120396000D01*
X195580000Y-111252000D02*
X191008000Y-111252000D01*
X191008000Y-103712000D02*
X190928000Y-103632000D01*
X212344000Y-103712000D02*
X191008000Y-103712000D01*
X191008000Y-103712000D02*
X190928000Y-103632000D01*
X144225000Y-75565000D02*
X144225000Y-76247000D01*
X183388000Y-88900000D02*
X167640000Y-88900000D01*
X167640000Y-88900000D02*
X167132000Y-89408000D01*
X167132000Y-89408000D02*
X144272000Y-89408000D01*
X139225000Y-84361000D02*
X139225000Y-75565000D01*
X144272000Y-89408000D02*
X139225000Y-84361000D01*
X136652000Y-116332000D02*
X132080000Y-116332000D01*
X129540000Y-85250000D02*
X139225000Y-75565000D01*
X129540000Y-113792000D02*
X129540000Y-85250000D01*
X132080000Y-116332000D02*
X129540000Y-113792000D01*
X136652000Y-116332000D02*
X136652000Y-112776000D01*
X136652000Y-112776000D02*
X135636000Y-111760000D01*
X185928000Y-103632000D02*
X185928000Y-99568000D01*
X183388000Y-97028000D02*
X183388000Y-88900000D01*
X185928000Y-99568000D02*
X183388000Y-97028000D01*
X143256000Y-104140000D02*
X148336000Y-104140000D01*
X146304000Y-116332000D02*
X141652000Y-116332000D01*
X150368000Y-112268000D02*
X146304000Y-116332000D01*
X150368000Y-106172000D02*
X150368000Y-112268000D01*
X148336000Y-104140000D02*
X150368000Y-106172000D01*
X149225000Y-75565000D02*
X149225000Y-75057000D01*
X149225000Y-75057000D02*
X145288000Y-71120000D01*
X145288000Y-71120000D02*
X137668000Y-71120000D01*
X137668000Y-71120000D02*
X128016000Y-80772000D01*
X128016000Y-80772000D02*
X128016000Y-116840000D01*
X128016000Y-116840000D02*
X131572000Y-120396000D01*
X131572000Y-120396000D02*
X139700000Y-120396000D01*
X139700000Y-120396000D02*
X141652000Y-118444000D01*
X141652000Y-118444000D02*
X141652000Y-116332000D01*
X167132000Y-123952000D02*
X160528000Y-123952000D01*
X152908000Y-116332000D02*
X141652000Y-116332000D01*
X160528000Y-123952000D02*
X152908000Y-116332000D01*
X183548000Y-127000000D02*
X170688000Y-127000000D01*
X170688000Y-127000000D02*
X167640000Y-123952000D01*
X167640000Y-123952000D02*
X167132000Y-123952000D01*
X186008000Y-111252000D02*
X186008000Y-112696000D01*
X183548000Y-115156000D02*
X183548000Y-127000000D01*
X186008000Y-112696000D02*
X183548000Y-115156000D01*
X183548000Y-127000000D02*
X183548000Y-120236000D01*
X183548000Y-120236000D02*
X186008000Y-117776000D01*
D26*
X108585000Y-114300000D02*
X106045000Y-114300000D01*
X111125000Y-114300000D02*
X108585000Y-114300000D01*
X72390000Y-110490000D02*
X72390000Y-113538000D01*
X72390000Y-113538000D02*
X77724000Y-118872000D01*
X77724000Y-118872000D02*
X101473000Y-118872000D01*
X101473000Y-118872000D02*
X106045000Y-114300000D01*
X108585000Y-101600000D02*
X111125000Y-101600000D01*
X106045000Y-101600000D02*
X108585000Y-101600000D01*
X72390000Y-105490000D02*
X72390000Y-102870000D01*
X100965000Y-96520000D02*
X106045000Y-101600000D01*
X78740000Y-96520000D02*
X100965000Y-96520000D01*
X72390000Y-102870000D02*
X78740000Y-96520000D01*
D25*
X118745000Y-107950000D02*
X124206000Y-107950000D01*
X118952000Y-80344000D02*
X118952000Y-75692000D01*
X124460000Y-85852000D02*
X118952000Y-80344000D01*
X124460000Y-107696000D02*
X124460000Y-85852000D01*
X124206000Y-107950000D02*
X124460000Y-107696000D01*
X205740000Y-111252000D02*
X202184000Y-107696000D01*
X157480000Y-113284000D02*
X157480000Y-109220000D01*
X164084000Y-119888000D02*
X157480000Y-113284000D01*
X175260000Y-119888000D02*
X164084000Y-119888000D01*
X176784000Y-118364000D02*
X175260000Y-119888000D01*
X176784000Y-110236000D02*
X176784000Y-118364000D01*
X179324000Y-107696000D02*
X176784000Y-110236000D01*
X202184000Y-107696000D02*
X179324000Y-107696000D01*
X212344000Y-108712000D02*
X208280000Y-108712000D01*
X208280000Y-108712000D02*
X205740000Y-111252000D01*
X143256000Y-109220000D02*
X147320000Y-109220000D01*
X143256000Y-109220000D02*
X143256000Y-111760000D01*
X132080000Y-104648000D02*
X132080000Y-100584000D01*
X141224000Y-109220000D02*
X143256000Y-109220000D01*
X138176000Y-106172000D02*
X141224000Y-109220000D01*
X138176000Y-99568000D02*
X138176000Y-106172000D01*
X138176000Y-99568000D02*
X138176000Y-99568000D01*
X133096000Y-99568000D02*
X138176000Y-99568000D01*
X132080000Y-100584000D02*
X133096000Y-99568000D01*
X118745000Y-105410000D02*
X121158000Y-105410000D01*
X121158000Y-105410000D02*
X121920000Y-104648000D01*
X167132000Y-104140000D02*
X167132000Y-99568000D01*
X167132000Y-109220000D02*
X167132000Y-113792000D01*
X143256000Y-106680000D02*
X141224000Y-106680000D01*
X163576000Y-105664000D02*
X164592000Y-106680000D01*
X154432000Y-105664000D02*
X163576000Y-105664000D01*
X148844000Y-100076000D02*
X154432000Y-105664000D01*
X142240000Y-100076000D02*
X148844000Y-100076000D01*
X140208000Y-102108000D02*
X142240000Y-100076000D01*
X140208000Y-105664000D02*
X140208000Y-102108000D01*
X141224000Y-106680000D02*
X140208000Y-105664000D01*
M02*
