G04 #@! TF.FileFunction,Legend,Top*
%FSLAX46Y46*%
G04 Gerber Fmt 4.6, Leading zero omitted, Abs format (unit mm)*
G04 Created by KiCad (PCBNEW 4.0.4-stable) date 2016 December 04, Sunday 22:34:29*
%MOMM*%
%LPD*%
G01*
G04 APERTURE LIST*
%ADD10C,0.100000*%
%ADD11C,0.150000*%
G04 APERTURE END LIST*
D10*
D11*
X184928000Y-102382000D02*
X191928000Y-102382000D01*
X191928000Y-102382000D02*
X191928000Y-104882000D01*
X191928000Y-104882000D02*
X184928000Y-104882000D01*
X184928000Y-104882000D02*
X184928000Y-102382000D01*
X192008000Y-112502000D02*
X185008000Y-112502000D01*
X185008000Y-112502000D02*
X185008000Y-110002000D01*
X185008000Y-110002000D02*
X192008000Y-110002000D01*
X192008000Y-110002000D02*
X192008000Y-112502000D01*
X188463000Y-77900000D02*
X188463000Y-99900000D01*
X188603000Y-77902000D02*
X188603000Y-99898000D01*
X188743000Y-77906000D02*
X188743000Y-99894000D01*
X188883000Y-77911000D02*
X188883000Y-99889000D01*
X189023000Y-77918000D02*
X189023000Y-99882000D01*
X189163000Y-77927000D02*
X189163000Y-99873000D01*
X189303000Y-77938000D02*
X189303000Y-99862000D01*
X189443000Y-77951000D02*
X189443000Y-99849000D01*
X189583000Y-77965000D02*
X189583000Y-99835000D01*
X189723000Y-77981000D02*
X189723000Y-99819000D01*
X189863000Y-77999000D02*
X189863000Y-99801000D01*
X190003000Y-78019000D02*
X190003000Y-99781000D01*
X190143000Y-78041000D02*
X190143000Y-99759000D01*
X190283000Y-78064000D02*
X190283000Y-99736000D01*
X190423000Y-78090000D02*
X190423000Y-99710000D01*
X190563000Y-78117000D02*
X190563000Y-99683000D01*
X190703000Y-78146000D02*
X190703000Y-99654000D01*
X190843000Y-78177000D02*
X190843000Y-99623000D01*
X190983000Y-78210000D02*
X190983000Y-99590000D01*
X191123000Y-78245000D02*
X191123000Y-99555000D01*
X191263000Y-78282000D02*
X191263000Y-99518000D01*
X191403000Y-78321000D02*
X191403000Y-99479000D01*
X191543000Y-78362000D02*
X191543000Y-99438000D01*
X191683000Y-78405000D02*
X191683000Y-99395000D01*
X191823000Y-78450000D02*
X191823000Y-99350000D01*
X191963000Y-78497000D02*
X191963000Y-99303000D01*
X192103000Y-78546000D02*
X192103000Y-99254000D01*
X192243000Y-78598000D02*
X192243000Y-88793000D01*
X192243000Y-89007000D02*
X192243000Y-99202000D01*
X192383000Y-78651000D02*
X192383000Y-88341000D01*
X192383000Y-89459000D02*
X192383000Y-99149000D01*
X192523000Y-78707000D02*
X192523000Y-88142000D01*
X192523000Y-89658000D02*
X192523000Y-99093000D01*
X192663000Y-78765000D02*
X192663000Y-88007000D01*
X192663000Y-89793000D02*
X192663000Y-99035000D01*
X192803000Y-78825000D02*
X192803000Y-87910000D01*
X192803000Y-89890000D02*
X192803000Y-98975000D01*
X192943000Y-78887000D02*
X192943000Y-87840000D01*
X192943000Y-89960000D02*
X192943000Y-98913000D01*
X193083000Y-78952000D02*
X193083000Y-87791000D01*
X193083000Y-90009000D02*
X193083000Y-98848000D01*
X193223000Y-79020000D02*
X193223000Y-87762000D01*
X193223000Y-90038000D02*
X193223000Y-98780000D01*
X193363000Y-79089000D02*
X193363000Y-87750000D01*
X193363000Y-90050000D02*
X193363000Y-98711000D01*
X193503000Y-79162000D02*
X193503000Y-87756000D01*
X193503000Y-90044000D02*
X193503000Y-98638000D01*
X193643000Y-79236000D02*
X193643000Y-87779000D01*
X193643000Y-90021000D02*
X193643000Y-98564000D01*
X193783000Y-79314000D02*
X193783000Y-87820000D01*
X193783000Y-89980000D02*
X193783000Y-98486000D01*
X193923000Y-79394000D02*
X193923000Y-87882000D01*
X193923000Y-89918000D02*
X193923000Y-98406000D01*
X194063000Y-79477000D02*
X194063000Y-87969000D01*
X194063000Y-89831000D02*
X194063000Y-98323000D01*
X194203000Y-79563000D02*
X194203000Y-88089000D01*
X194203000Y-89711000D02*
X194203000Y-98237000D01*
X194343000Y-79651000D02*
X194343000Y-88259000D01*
X194343000Y-89541000D02*
X194343000Y-98149000D01*
X194483000Y-79743000D02*
X194483000Y-88549000D01*
X194483000Y-89251000D02*
X194483000Y-98057000D01*
X194623000Y-79838000D02*
X194623000Y-97962000D01*
X194763000Y-79936000D02*
X194763000Y-97864000D01*
X194903000Y-80037000D02*
X194903000Y-97763000D01*
X195043000Y-80142000D02*
X195043000Y-97658000D01*
X195183000Y-80250000D02*
X195183000Y-97550000D01*
X195323000Y-80362000D02*
X195323000Y-97438000D01*
X195463000Y-80477000D02*
X195463000Y-97323000D01*
X195603000Y-80597000D02*
X195603000Y-97203000D01*
X195743000Y-80721000D02*
X195743000Y-97079000D01*
X195883000Y-80849000D02*
X195883000Y-96951000D01*
X196023000Y-80981000D02*
X196023000Y-96819000D01*
X196163000Y-81119000D02*
X196163000Y-96681000D01*
X196303000Y-81261000D02*
X196303000Y-96539000D01*
X196443000Y-81409000D02*
X196443000Y-96391000D01*
X196583000Y-81562000D02*
X196583000Y-96238000D01*
X196723000Y-81722000D02*
X196723000Y-96078000D01*
X196863000Y-81888000D02*
X196863000Y-95912000D01*
X197003000Y-82060000D02*
X197003000Y-95740000D01*
X197143000Y-82240000D02*
X197143000Y-95560000D01*
X197283000Y-82429000D02*
X197283000Y-95371000D01*
X197423000Y-82626000D02*
X197423000Y-95174000D01*
X197563000Y-82832000D02*
X197563000Y-94968000D01*
X197703000Y-83049000D02*
X197703000Y-94751000D01*
X197843000Y-83278000D02*
X197843000Y-94522000D01*
X197983000Y-83521000D02*
X197983000Y-94279000D01*
X198123000Y-83778000D02*
X198123000Y-94022000D01*
X198263000Y-84054000D02*
X198263000Y-93746000D01*
X198403000Y-84350000D02*
X198403000Y-93450000D01*
X198543000Y-84672000D02*
X198543000Y-93128000D01*
X198683000Y-85025000D02*
X198683000Y-92775000D01*
X198823000Y-85420000D02*
X198823000Y-92380000D01*
X198963000Y-85872000D02*
X198963000Y-91928000D01*
X199103000Y-86412000D02*
X199103000Y-91388000D01*
X199243000Y-87120000D02*
X199243000Y-90680000D01*
X199383000Y-88568000D02*
X199383000Y-89232000D01*
X194538000Y-88900000D02*
G75*
G03X194538000Y-88900000I-1150000J0D01*
G01*
X199425500Y-88900000D02*
G75*
G03X199425500Y-88900000I-11037500J0D01*
G01*
X188473000Y-138000000D02*
X188473000Y-116000000D01*
X188333000Y-137998000D02*
X188333000Y-116002000D01*
X188193000Y-137994000D02*
X188193000Y-116006000D01*
X188053000Y-137989000D02*
X188053000Y-116011000D01*
X187913000Y-137982000D02*
X187913000Y-116018000D01*
X187773000Y-137973000D02*
X187773000Y-116027000D01*
X187633000Y-137962000D02*
X187633000Y-116038000D01*
X187493000Y-137949000D02*
X187493000Y-116051000D01*
X187353000Y-137935000D02*
X187353000Y-116065000D01*
X187213000Y-137919000D02*
X187213000Y-116081000D01*
X187073000Y-137901000D02*
X187073000Y-116099000D01*
X186933000Y-137881000D02*
X186933000Y-116119000D01*
X186793000Y-137859000D02*
X186793000Y-116141000D01*
X186653000Y-137836000D02*
X186653000Y-116164000D01*
X186513000Y-137810000D02*
X186513000Y-116190000D01*
X186373000Y-137783000D02*
X186373000Y-116217000D01*
X186233000Y-137754000D02*
X186233000Y-116246000D01*
X186093000Y-137723000D02*
X186093000Y-116277000D01*
X185953000Y-137690000D02*
X185953000Y-116310000D01*
X185813000Y-137655000D02*
X185813000Y-116345000D01*
X185673000Y-137618000D02*
X185673000Y-116382000D01*
X185533000Y-137579000D02*
X185533000Y-116421000D01*
X185393000Y-137538000D02*
X185393000Y-116462000D01*
X185253000Y-137495000D02*
X185253000Y-116505000D01*
X185113000Y-137450000D02*
X185113000Y-116550000D01*
X184973000Y-137403000D02*
X184973000Y-116597000D01*
X184833000Y-137354000D02*
X184833000Y-116646000D01*
X184693000Y-137302000D02*
X184693000Y-127107000D01*
X184693000Y-126893000D02*
X184693000Y-116698000D01*
X184553000Y-137249000D02*
X184553000Y-127559000D01*
X184553000Y-126441000D02*
X184553000Y-116751000D01*
X184413000Y-137193000D02*
X184413000Y-127758000D01*
X184413000Y-126242000D02*
X184413000Y-116807000D01*
X184273000Y-137135000D02*
X184273000Y-127893000D01*
X184273000Y-126107000D02*
X184273000Y-116865000D01*
X184133000Y-137075000D02*
X184133000Y-127990000D01*
X184133000Y-126010000D02*
X184133000Y-116925000D01*
X183993000Y-137013000D02*
X183993000Y-128060000D01*
X183993000Y-125940000D02*
X183993000Y-116987000D01*
X183853000Y-136948000D02*
X183853000Y-128109000D01*
X183853000Y-125891000D02*
X183853000Y-117052000D01*
X183713000Y-136880000D02*
X183713000Y-128138000D01*
X183713000Y-125862000D02*
X183713000Y-117120000D01*
X183573000Y-136811000D02*
X183573000Y-128150000D01*
X183573000Y-125850000D02*
X183573000Y-117189000D01*
X183433000Y-136738000D02*
X183433000Y-128144000D01*
X183433000Y-125856000D02*
X183433000Y-117262000D01*
X183293000Y-136664000D02*
X183293000Y-128121000D01*
X183293000Y-125879000D02*
X183293000Y-117336000D01*
X183153000Y-136586000D02*
X183153000Y-128080000D01*
X183153000Y-125920000D02*
X183153000Y-117414000D01*
X183013000Y-136506000D02*
X183013000Y-128018000D01*
X183013000Y-125982000D02*
X183013000Y-117494000D01*
X182873000Y-136423000D02*
X182873000Y-127931000D01*
X182873000Y-126069000D02*
X182873000Y-117577000D01*
X182733000Y-136337000D02*
X182733000Y-127811000D01*
X182733000Y-126189000D02*
X182733000Y-117663000D01*
X182593000Y-136249000D02*
X182593000Y-127641000D01*
X182593000Y-126359000D02*
X182593000Y-117751000D01*
X182453000Y-136157000D02*
X182453000Y-127351000D01*
X182453000Y-126649000D02*
X182453000Y-117843000D01*
X182313000Y-136062000D02*
X182313000Y-117938000D01*
X182173000Y-135964000D02*
X182173000Y-118036000D01*
X182033000Y-135863000D02*
X182033000Y-118137000D01*
X181893000Y-135758000D02*
X181893000Y-118242000D01*
X181753000Y-135650000D02*
X181753000Y-118350000D01*
X181613000Y-135538000D02*
X181613000Y-118462000D01*
X181473000Y-135423000D02*
X181473000Y-118577000D01*
X181333000Y-135303000D02*
X181333000Y-118697000D01*
X181193000Y-135179000D02*
X181193000Y-118821000D01*
X181053000Y-135051000D02*
X181053000Y-118949000D01*
X180913000Y-134919000D02*
X180913000Y-119081000D01*
X180773000Y-134781000D02*
X180773000Y-119219000D01*
X180633000Y-134639000D02*
X180633000Y-119361000D01*
X180493000Y-134491000D02*
X180493000Y-119509000D01*
X180353000Y-134338000D02*
X180353000Y-119662000D01*
X180213000Y-134178000D02*
X180213000Y-119822000D01*
X180073000Y-134012000D02*
X180073000Y-119988000D01*
X179933000Y-133840000D02*
X179933000Y-120160000D01*
X179793000Y-133660000D02*
X179793000Y-120340000D01*
X179653000Y-133471000D02*
X179653000Y-120529000D01*
X179513000Y-133274000D02*
X179513000Y-120726000D01*
X179373000Y-133068000D02*
X179373000Y-120932000D01*
X179233000Y-132851000D02*
X179233000Y-121149000D01*
X179093000Y-132622000D02*
X179093000Y-121378000D01*
X178953000Y-132379000D02*
X178953000Y-121621000D01*
X178813000Y-132122000D02*
X178813000Y-121878000D01*
X178673000Y-131846000D02*
X178673000Y-122154000D01*
X178533000Y-131550000D02*
X178533000Y-122450000D01*
X178393000Y-131228000D02*
X178393000Y-122772000D01*
X178253000Y-130875000D02*
X178253000Y-123125000D01*
X178113000Y-130480000D02*
X178113000Y-123520000D01*
X177973000Y-130028000D02*
X177973000Y-123972000D01*
X177833000Y-129488000D02*
X177833000Y-124512000D01*
X177693000Y-128780000D02*
X177693000Y-125220000D01*
X177553000Y-127332000D02*
X177553000Y-126668000D01*
X184698000Y-127000000D02*
G75*
G03X184698000Y-127000000I-1150000J0D01*
G01*
X199585500Y-127000000D02*
G75*
G03X199585500Y-127000000I-11037500J0D01*
G01*
X135652000Y-115082000D02*
X142652000Y-115082000D01*
X142652000Y-115082000D02*
X142652000Y-117582000D01*
X142652000Y-117582000D02*
X135652000Y-117582000D01*
X135652000Y-117582000D02*
X135652000Y-115082000D01*
X152805000Y-77645000D02*
X152805000Y-65485000D01*
X152805000Y-65485000D02*
X135645000Y-65485000D01*
X135645000Y-65485000D02*
X135645000Y-77645000D01*
X135645000Y-77645000D02*
X152805000Y-77645000D01*
X152805000Y-66985000D02*
X152805000Y-68785000D01*
X152805000Y-68785000D02*
X135645000Y-68785000D01*
X135645000Y-68785000D02*
X135645000Y-66985000D01*
X135645000Y-66985000D02*
X152805000Y-66985000D01*
X150225000Y-65485000D02*
X148225000Y-65485000D01*
X148225000Y-65485000D02*
X148475000Y-66985000D01*
X148475000Y-66985000D02*
X149975000Y-66985000D01*
X149975000Y-66985000D02*
X150225000Y-65485000D01*
X145225000Y-65485000D02*
X143225000Y-65485000D01*
X143225000Y-65485000D02*
X143475000Y-66985000D01*
X143475000Y-66985000D02*
X144975000Y-66985000D01*
X144975000Y-66985000D02*
X145225000Y-65485000D01*
X140225000Y-65485000D02*
X138225000Y-65485000D01*
X138225000Y-65485000D02*
X138475000Y-66985000D01*
X138475000Y-66985000D02*
X139975000Y-66985000D01*
X139975000Y-66985000D02*
X140225000Y-65485000D01*
X149225000Y-78065000D02*
X148925000Y-78665000D01*
X148925000Y-78665000D02*
X149525000Y-78665000D01*
X149525000Y-78665000D02*
X149225000Y-78065000D01*
X70310000Y-114070000D02*
X82470000Y-114070000D01*
X82470000Y-114070000D02*
X82470000Y-101910000D01*
X82470000Y-101910000D02*
X70310000Y-101910000D01*
X70310000Y-101910000D02*
X70310000Y-114070000D01*
X80970000Y-114070000D02*
X79170000Y-114070000D01*
X79170000Y-114070000D02*
X79170000Y-101910000D01*
X79170000Y-101910000D02*
X80970000Y-101910000D01*
X80970000Y-101910000D02*
X80970000Y-114070000D01*
X82470000Y-111490000D02*
X82470000Y-109490000D01*
X82470000Y-109490000D02*
X80970000Y-109740000D01*
X80970000Y-109740000D02*
X80970000Y-111240000D01*
X80970000Y-111240000D02*
X82470000Y-111490000D01*
X82470000Y-106490000D02*
X82470000Y-104490000D01*
X82470000Y-104490000D02*
X80970000Y-104740000D01*
X80970000Y-104740000D02*
X80970000Y-106240000D01*
X80970000Y-106240000D02*
X82470000Y-106490000D01*
X69890000Y-110490000D02*
X69290000Y-110190000D01*
X69290000Y-110190000D02*
X69290000Y-110790000D01*
X69290000Y-110790000D02*
X69890000Y-110490000D01*
X127532000Y-77772000D02*
X127532000Y-65612000D01*
X127532000Y-65612000D02*
X115372000Y-65612000D01*
X115372000Y-65612000D02*
X115372000Y-77772000D01*
X115372000Y-77772000D02*
X127532000Y-77772000D01*
X127532000Y-67112000D02*
X127532000Y-68912000D01*
X127532000Y-68912000D02*
X115372000Y-68912000D01*
X115372000Y-68912000D02*
X115372000Y-67112000D01*
X115372000Y-67112000D02*
X127532000Y-67112000D01*
X124952000Y-65612000D02*
X122952000Y-65612000D01*
X122952000Y-65612000D02*
X123202000Y-67112000D01*
X123202000Y-67112000D02*
X124702000Y-67112000D01*
X124702000Y-67112000D02*
X124952000Y-65612000D01*
X119952000Y-65612000D02*
X117952000Y-65612000D01*
X117952000Y-65612000D02*
X118202000Y-67112000D01*
X118202000Y-67112000D02*
X119702000Y-67112000D01*
X119702000Y-67112000D02*
X119952000Y-65612000D01*
X123952000Y-78192000D02*
X123652000Y-78792000D01*
X123652000Y-78792000D02*
X124252000Y-78792000D01*
X124252000Y-78792000D02*
X123952000Y-78192000D01*
X210264000Y-112292000D02*
X222424000Y-112292000D01*
X222424000Y-112292000D02*
X222424000Y-100132000D01*
X222424000Y-100132000D02*
X210264000Y-100132000D01*
X210264000Y-100132000D02*
X210264000Y-112292000D01*
X220924000Y-112292000D02*
X219124000Y-112292000D01*
X219124000Y-112292000D02*
X219124000Y-100132000D01*
X219124000Y-100132000D02*
X220924000Y-100132000D01*
X220924000Y-100132000D02*
X220924000Y-112292000D01*
X222424000Y-109712000D02*
X222424000Y-107712000D01*
X222424000Y-107712000D02*
X220924000Y-107962000D01*
X220924000Y-107962000D02*
X220924000Y-109462000D01*
X220924000Y-109462000D02*
X222424000Y-109712000D01*
X222424000Y-104712000D02*
X222424000Y-102712000D01*
X222424000Y-102712000D02*
X220924000Y-102962000D01*
X220924000Y-102962000D02*
X220924000Y-104462000D01*
X220924000Y-104462000D02*
X222424000Y-104712000D01*
X209844000Y-108712000D02*
X209244000Y-108412000D01*
X209244000Y-108412000D02*
X209244000Y-109012000D01*
X209244000Y-109012000D02*
X209844000Y-108712000D01*
X129540000Y-105918000D02*
X124460000Y-105918000D01*
X124460000Y-105918000D02*
X124460000Y-103378000D01*
X124460000Y-103378000D02*
X129540000Y-103378000D01*
X129540000Y-103378000D02*
X129540000Y-105918000D01*
X129540000Y-104648000D02*
X130810000Y-104648000D01*
X124460000Y-104648000D02*
X123190000Y-104648000D01*
X168402000Y-91948000D02*
X168402000Y-97028000D01*
X168402000Y-97028000D02*
X165862000Y-97028000D01*
X165862000Y-97028000D02*
X165862000Y-91948000D01*
X165862000Y-91948000D02*
X168402000Y-91948000D01*
X167132000Y-91948000D02*
X167132000Y-90678000D01*
X167132000Y-97028000D02*
X167132000Y-98298000D01*
X168402000Y-116332000D02*
X168402000Y-121412000D01*
X168402000Y-121412000D02*
X165862000Y-121412000D01*
X165862000Y-121412000D02*
X165862000Y-116332000D01*
X165862000Y-116332000D02*
X168402000Y-116332000D01*
X167132000Y-116332000D02*
X167132000Y-115062000D01*
X167132000Y-121412000D02*
X167132000Y-122682000D01*
X154940000Y-110490000D02*
X149860000Y-110490000D01*
X149860000Y-110490000D02*
X149860000Y-107950000D01*
X149860000Y-107950000D02*
X154940000Y-107950000D01*
X154940000Y-107950000D02*
X154940000Y-110490000D01*
X154940000Y-109220000D02*
X156210000Y-109220000D01*
X149860000Y-109220000D02*
X148590000Y-109220000D01*
X198120000Y-109982000D02*
X203200000Y-109982000D01*
X203200000Y-109982000D02*
X203200000Y-112522000D01*
X203200000Y-112522000D02*
X198120000Y-112522000D01*
X198120000Y-112522000D02*
X198120000Y-109982000D01*
X198120000Y-111252000D02*
X196850000Y-111252000D01*
X203200000Y-111252000D02*
X204470000Y-111252000D01*
X168387000Y-104980000D02*
X168387000Y-108380000D01*
X167627000Y-104980000D02*
X167627000Y-108380000D01*
X171897000Y-101915000D02*
X171897000Y-111445000D01*
X171897000Y-111445000D02*
X162367000Y-111445000D01*
X162367000Y-111445000D02*
X162367000Y-101915000D01*
X162367000Y-101915000D02*
X171897000Y-101915000D01*
X169808735Y-106680000D02*
G75*
G03X169808735Y-106680000I-1801735J0D01*
G01*
X119685000Y-103300000D02*
X119685000Y-112600000D01*
X97485000Y-103300000D02*
X97485000Y-112600000D01*
X97485000Y-112600000D02*
X119685000Y-112600000D01*
X97485000Y-103300000D02*
X119685000Y-103300000D01*
X143121000Y-114055000D02*
X143121000Y-112785000D01*
X135771000Y-114055000D02*
X135771000Y-112785000D01*
X135771000Y-101845000D02*
X135771000Y-103115000D01*
X143121000Y-101845000D02*
X143121000Y-103115000D01*
X143121000Y-114055000D02*
X135771000Y-114055000D01*
X143121000Y-101845000D02*
X135771000Y-101845000D01*
X143121000Y-112785000D02*
X144406000Y-112785000D01*
X188261334Y-101489143D02*
X188213715Y-101536762D01*
X188070858Y-101584381D01*
X187975620Y-101584381D01*
X187832762Y-101536762D01*
X187737524Y-101441524D01*
X187689905Y-101346286D01*
X187642286Y-101155810D01*
X187642286Y-101012952D01*
X187689905Y-100822476D01*
X187737524Y-100727238D01*
X187832762Y-100632000D01*
X187975620Y-100584381D01*
X188070858Y-100584381D01*
X188213715Y-100632000D01*
X188261334Y-100679619D01*
X189213715Y-101584381D02*
X188642286Y-101584381D01*
X188928000Y-101584381D02*
X188928000Y-100584381D01*
X188832762Y-100727238D01*
X188737524Y-100822476D01*
X188642286Y-100870095D01*
X188341334Y-114109143D02*
X188293715Y-114156762D01*
X188150858Y-114204381D01*
X188055620Y-114204381D01*
X187912762Y-114156762D01*
X187817524Y-114061524D01*
X187769905Y-113966286D01*
X187722286Y-113775810D01*
X187722286Y-113632952D01*
X187769905Y-113442476D01*
X187817524Y-113347238D01*
X187912762Y-113252000D01*
X188055620Y-113204381D01*
X188150858Y-113204381D01*
X188293715Y-113252000D01*
X188341334Y-113299619D01*
X188722286Y-113299619D02*
X188769905Y-113252000D01*
X188865143Y-113204381D01*
X189103239Y-113204381D01*
X189198477Y-113252000D01*
X189246096Y-113299619D01*
X189293715Y-113394857D01*
X189293715Y-113490095D01*
X189246096Y-113632952D01*
X188674667Y-114204381D01*
X189293715Y-114204381D01*
X188221334Y-76957143D02*
X188173715Y-77004762D01*
X188030858Y-77052381D01*
X187935620Y-77052381D01*
X187792762Y-77004762D01*
X187697524Y-76909524D01*
X187649905Y-76814286D01*
X187602286Y-76623810D01*
X187602286Y-76480952D01*
X187649905Y-76290476D01*
X187697524Y-76195238D01*
X187792762Y-76100000D01*
X187935620Y-76052381D01*
X188030858Y-76052381D01*
X188173715Y-76100000D01*
X188221334Y-76147619D01*
X188554667Y-76052381D02*
X189173715Y-76052381D01*
X188840381Y-76433333D01*
X188983239Y-76433333D01*
X189078477Y-76480952D01*
X189126096Y-76528571D01*
X189173715Y-76623810D01*
X189173715Y-76861905D01*
X189126096Y-76957143D01*
X189078477Y-77004762D01*
X188983239Y-77052381D01*
X188697524Y-77052381D01*
X188602286Y-77004762D01*
X188554667Y-76957143D01*
X188381334Y-139657143D02*
X188333715Y-139704762D01*
X188190858Y-139752381D01*
X188095620Y-139752381D01*
X187952762Y-139704762D01*
X187857524Y-139609524D01*
X187809905Y-139514286D01*
X187762286Y-139323810D01*
X187762286Y-139180952D01*
X187809905Y-138990476D01*
X187857524Y-138895238D01*
X187952762Y-138800000D01*
X188095620Y-138752381D01*
X188190858Y-138752381D01*
X188333715Y-138800000D01*
X188381334Y-138847619D01*
X189238477Y-139085714D02*
X189238477Y-139752381D01*
X189000381Y-138704762D02*
X188762286Y-139419048D01*
X189381334Y-139419048D01*
X138985334Y-114189143D02*
X138937715Y-114236762D01*
X138794858Y-114284381D01*
X138699620Y-114284381D01*
X138556762Y-114236762D01*
X138461524Y-114141524D01*
X138413905Y-114046286D01*
X138366286Y-113855810D01*
X138366286Y-113712952D01*
X138413905Y-113522476D01*
X138461524Y-113427238D01*
X138556762Y-113332000D01*
X138699620Y-113284381D01*
X138794858Y-113284381D01*
X138937715Y-113332000D01*
X138985334Y-113379619D01*
X139890096Y-113284381D02*
X139413905Y-113284381D01*
X139366286Y-113760571D01*
X139413905Y-113712952D01*
X139509143Y-113665333D01*
X139747239Y-113665333D01*
X139842477Y-113712952D01*
X139890096Y-113760571D01*
X139937715Y-113855810D01*
X139937715Y-114093905D01*
X139890096Y-114189143D01*
X139842477Y-114236762D01*
X139747239Y-114284381D01*
X139509143Y-114284381D01*
X139413905Y-114236762D01*
X139366286Y-114189143D01*
X143486905Y-79217381D02*
X143486905Y-78217381D01*
X143867858Y-78217381D01*
X143963096Y-78265000D01*
X144010715Y-78312619D01*
X144058334Y-78407857D01*
X144058334Y-78550714D01*
X144010715Y-78645952D01*
X143963096Y-78693571D01*
X143867858Y-78741190D01*
X143486905Y-78741190D01*
X145010715Y-79217381D02*
X144439286Y-79217381D01*
X144725000Y-79217381D02*
X144725000Y-78217381D01*
X144629762Y-78360238D01*
X144534524Y-78455476D01*
X144439286Y-78503095D01*
X69642381Y-107728095D02*
X68642381Y-107728095D01*
X68642381Y-107347142D01*
X68690000Y-107251904D01*
X68737619Y-107204285D01*
X68832857Y-107156666D01*
X68975714Y-107156666D01*
X69070952Y-107204285D01*
X69118571Y-107251904D01*
X69166190Y-107347142D01*
X69166190Y-107728095D01*
X68737619Y-106775714D02*
X68690000Y-106728095D01*
X68642381Y-106632857D01*
X68642381Y-106394761D01*
X68690000Y-106299523D01*
X68737619Y-106251904D01*
X68832857Y-106204285D01*
X68928095Y-106204285D01*
X69070952Y-106251904D01*
X69642381Y-106823333D01*
X69642381Y-106204285D01*
X119713905Y-79344381D02*
X119713905Y-78344381D01*
X120094858Y-78344381D01*
X120190096Y-78392000D01*
X120237715Y-78439619D01*
X120285334Y-78534857D01*
X120285334Y-78677714D01*
X120237715Y-78772952D01*
X120190096Y-78820571D01*
X120094858Y-78868190D01*
X119713905Y-78868190D01*
X120618667Y-78344381D02*
X121237715Y-78344381D01*
X120904381Y-78725333D01*
X121047239Y-78725333D01*
X121142477Y-78772952D01*
X121190096Y-78820571D01*
X121237715Y-78915810D01*
X121237715Y-79153905D01*
X121190096Y-79249143D01*
X121142477Y-79296762D01*
X121047239Y-79344381D01*
X120761524Y-79344381D01*
X120666286Y-79296762D01*
X120618667Y-79249143D01*
X209596381Y-105950095D02*
X208596381Y-105950095D01*
X208596381Y-105569142D01*
X208644000Y-105473904D01*
X208691619Y-105426285D01*
X208786857Y-105378666D01*
X208929714Y-105378666D01*
X209024952Y-105426285D01*
X209072571Y-105473904D01*
X209120190Y-105569142D01*
X209120190Y-105950095D01*
X208929714Y-104521523D02*
X209596381Y-104521523D01*
X208548762Y-104759619D02*
X209263048Y-104997714D01*
X209263048Y-104378666D01*
X126584414Y-108600501D02*
X126251080Y-108124310D01*
X126012985Y-108600501D02*
X126012985Y-107600501D01*
X126393938Y-107600501D01*
X126489176Y-107648120D01*
X126536795Y-107695739D01*
X126584414Y-107790977D01*
X126584414Y-107933834D01*
X126536795Y-108029072D01*
X126489176Y-108076691D01*
X126393938Y-108124310D01*
X126012985Y-108124310D01*
X127536795Y-108600501D02*
X126965366Y-108600501D01*
X127251080Y-108600501D02*
X127251080Y-107600501D01*
X127155842Y-107743358D01*
X127060604Y-107838596D01*
X126965366Y-107886215D01*
X171084501Y-94903586D02*
X170608310Y-95236920D01*
X171084501Y-95475015D02*
X170084501Y-95475015D01*
X170084501Y-95094062D01*
X170132120Y-94998824D01*
X170179739Y-94951205D01*
X170274977Y-94903586D01*
X170417834Y-94903586D01*
X170513072Y-94951205D01*
X170560691Y-94998824D01*
X170608310Y-95094062D01*
X170608310Y-95475015D01*
X170179739Y-94522634D02*
X170132120Y-94475015D01*
X170084501Y-94379777D01*
X170084501Y-94141681D01*
X170132120Y-94046443D01*
X170179739Y-93998824D01*
X170274977Y-93951205D01*
X170370215Y-93951205D01*
X170513072Y-93998824D01*
X171084501Y-94570253D01*
X171084501Y-93951205D01*
X171084501Y-119287586D02*
X170608310Y-119620920D01*
X171084501Y-119859015D02*
X170084501Y-119859015D01*
X170084501Y-119478062D01*
X170132120Y-119382824D01*
X170179739Y-119335205D01*
X170274977Y-119287586D01*
X170417834Y-119287586D01*
X170513072Y-119335205D01*
X170560691Y-119382824D01*
X170608310Y-119478062D01*
X170608310Y-119859015D01*
X170084501Y-118954253D02*
X170084501Y-118335205D01*
X170465453Y-118668539D01*
X170465453Y-118525681D01*
X170513072Y-118430443D01*
X170560691Y-118382824D01*
X170655930Y-118335205D01*
X170894025Y-118335205D01*
X170989263Y-118382824D01*
X171036882Y-118430443D01*
X171084501Y-118525681D01*
X171084501Y-118811396D01*
X171036882Y-118906634D01*
X170989263Y-118954253D01*
X151984414Y-113172501D02*
X151651080Y-112696310D01*
X151412985Y-113172501D02*
X151412985Y-112172501D01*
X151793938Y-112172501D01*
X151889176Y-112220120D01*
X151936795Y-112267739D01*
X151984414Y-112362977D01*
X151984414Y-112505834D01*
X151936795Y-112601072D01*
X151889176Y-112648691D01*
X151793938Y-112696310D01*
X151412985Y-112696310D01*
X152841557Y-112505834D02*
X152841557Y-113172501D01*
X152603461Y-112124882D02*
X152365366Y-112839168D01*
X152984414Y-112839168D01*
X200742254Y-108204261D02*
X200408920Y-107728070D01*
X200170825Y-108204261D02*
X200170825Y-107204261D01*
X200551778Y-107204261D01*
X200647016Y-107251880D01*
X200694635Y-107299499D01*
X200742254Y-107394737D01*
X200742254Y-107537594D01*
X200694635Y-107632832D01*
X200647016Y-107680451D01*
X200551778Y-107728070D01*
X200170825Y-107728070D01*
X201647016Y-107204261D02*
X201170825Y-107204261D01*
X201123206Y-107680451D01*
X201170825Y-107632832D01*
X201266063Y-107585213D01*
X201504159Y-107585213D01*
X201599397Y-107632832D01*
X201647016Y-107680451D01*
X201694635Y-107775690D01*
X201694635Y-108013785D01*
X201647016Y-108109023D01*
X201599397Y-108156642D01*
X201504159Y-108204261D01*
X201266063Y-108204261D01*
X201170825Y-108156642D01*
X201123206Y-108109023D01*
X173426381Y-107275238D02*
X172950190Y-107608572D01*
X173426381Y-107846667D02*
X172426381Y-107846667D01*
X172426381Y-107465714D01*
X172474000Y-107370476D01*
X172521619Y-107322857D01*
X172616857Y-107275238D01*
X172759714Y-107275238D01*
X172854952Y-107322857D01*
X172902571Y-107370476D01*
X172950190Y-107465714D01*
X172950190Y-107846667D01*
X172426381Y-106989524D02*
X173426381Y-106656191D01*
X172426381Y-106322857D01*
X173426381Y-105465714D02*
X173426381Y-106037143D01*
X173426381Y-105751429D02*
X172426381Y-105751429D01*
X172569238Y-105846667D01*
X172664476Y-105941905D01*
X172712095Y-106037143D01*
X98933095Y-101052381D02*
X98933095Y-101861905D01*
X98980714Y-101957143D01*
X99028333Y-102004762D01*
X99123571Y-102052381D01*
X99314048Y-102052381D01*
X99409286Y-102004762D01*
X99456905Y-101957143D01*
X99504524Y-101861905D01*
X99504524Y-101052381D01*
X100504524Y-102052381D02*
X99933095Y-102052381D01*
X100218809Y-102052381D02*
X100218809Y-101052381D01*
X100123571Y-101195238D01*
X100028333Y-101290476D01*
X99933095Y-101338095D01*
X142494095Y-116432381D02*
X142494095Y-117241905D01*
X142541714Y-117337143D01*
X142589333Y-117384762D01*
X142684571Y-117432381D01*
X142875048Y-117432381D01*
X142970286Y-117384762D01*
X143017905Y-117337143D01*
X143065524Y-117241905D01*
X143065524Y-116432381D01*
X143494095Y-116527619D02*
X143541714Y-116480000D01*
X143636952Y-116432381D01*
X143875048Y-116432381D01*
X143970286Y-116480000D01*
X144017905Y-116527619D01*
X144065524Y-116622857D01*
X144065524Y-116718095D01*
X144017905Y-116860952D01*
X143446476Y-117432381D01*
X144065524Y-117432381D01*
M02*
