G04 #@! TF.FileFunction,Copper,L1,Top,Signal*
%FSLAX46Y46*%
G04 Gerber Fmt 4.6, Leading zero omitted, Abs format (unit mm)*
G04 Created by KiCad (PCBNEW 4.0.4-stable) date 2016 December 04, Sunday 22:34:29*
%MOMM*%
%LPD*%
G01*
G04 APERTURE LIST*
%ADD10C,0.100000*%
%ADD11R,1.300000X1.300000*%
%ADD12C,1.300000*%
%ADD13R,1.700000X1.700000*%
%ADD14C,1.700000*%
%ADD15R,2.100000X3.600000*%
%ADD16O,2.100000X3.600000*%
%ADD17R,3.600000X2.100000*%
%ADD18O,3.600000X2.100000*%
%ADD19C,1.998980*%
%ADD20C,1.510000*%
%ADD21R,1.510000X1.510000*%
%ADD22R,0.900000X0.900000*%
%ADD23R,1.200000X1.200000*%
%ADD24O,2.300000X1.600000*%
G04 APERTURE END LIST*
D10*
D11*
X185928000Y-103632000D03*
D12*
X190928000Y-103632000D03*
D11*
X191008000Y-111252000D03*
D12*
X186008000Y-111252000D03*
D13*
X183388000Y-88900000D03*
D14*
X193388000Y-88900000D03*
D13*
X193548000Y-127000000D03*
D14*
X183548000Y-127000000D03*
D11*
X136652000Y-116332000D03*
D12*
X141652000Y-116332000D03*
D15*
X149225000Y-75565000D03*
D16*
X144225000Y-75565000D03*
X139225000Y-75565000D03*
D17*
X72390000Y-110490000D03*
D18*
X72390000Y-105490000D03*
D15*
X123952000Y-75692000D03*
D16*
X118952000Y-75692000D03*
D17*
X212344000Y-108712000D03*
D18*
X212344000Y-103712000D03*
D19*
X132080000Y-104648000D03*
X121920000Y-104648000D03*
X167132000Y-89408000D03*
X167132000Y-99568000D03*
X167132000Y-113792000D03*
X167132000Y-123952000D03*
X157480000Y-109220000D03*
X147320000Y-109220000D03*
X195580000Y-111252000D03*
X205740000Y-111252000D03*
D20*
X167132000Y-109220000D03*
D21*
X167132000Y-104140000D03*
D20*
X164592000Y-106680000D03*
D22*
X118745000Y-110490000D03*
X118745000Y-105410000D03*
X118745000Y-107950000D03*
D23*
X106045000Y-114300000D03*
X108585000Y-114300000D03*
X111125000Y-114300000D03*
X106045000Y-101600000D03*
X108585000Y-101600000D03*
X111125000Y-101600000D03*
D24*
X143256000Y-111760000D03*
X143256000Y-109220000D03*
X143256000Y-106680000D03*
X143256000Y-104140000D03*
X135636000Y-104140000D03*
X135636000Y-106680000D03*
X135636000Y-109220000D03*
X135636000Y-111760000D03*
M02*
