G04 #@! TF.FileFunction,Copper,L2,Bot,Signal*
%FSLAX46Y46*%
G04 Gerber Fmt 4.6, Leading zero omitted, Abs format (unit mm)*
G04 Created by KiCad (PCBNEW 4.0.6) date 2017 August 08, Tuesday 08:31:32*
%MOMM*%
%LPD*%
G01*
G04 APERTURE LIST*
%ADD10C,0.100000*%
%ADD11R,2.100000X3.600000*%
%ADD12O,2.100000X3.600000*%
%ADD13R,2.400000X1.600000*%
%ADD14O,2.400000X1.600000*%
%ADD15R,1.350000X1.350000*%
%ADD16O,1.350000X1.350000*%
%ADD17R,2.000000X1.600000*%
%ADD18R,1.600000X2.000000*%
%ADD19R,1.700000X2.000000*%
%ADD20R,2.000000X1.700000*%
%ADD21R,3.600000X2.100000*%
%ADD22O,3.600000X2.100000*%
%ADD23C,2.400000*%
%ADD24O,2.400000X2.400000*%
%ADD25C,2.500000*%
%ADD26R,1.300000X1.300000*%
%ADD27C,1.300000*%
%ADD28C,5.000000*%
%ADD29C,2.000000*%
%ADD30C,1.620000*%
%ADD31C,1.000000*%
%ADD32C,3.000000*%
%ADD33C,0.254000*%
G04 APERTURE END LIST*
D10*
D11*
X201676000Y-125831600D03*
D12*
X206676000Y-125831600D03*
X211676000Y-125831600D03*
D13*
X210058000Y-102108000D03*
D14*
X202438000Y-94488000D03*
X210058000Y-99568000D03*
X202438000Y-97028000D03*
X210058000Y-97028000D03*
X202438000Y-99568000D03*
X210058000Y-94488000D03*
X202438000Y-102108000D03*
D15*
X216154000Y-83312000D03*
D16*
X216154000Y-85312000D03*
D17*
X201581000Y-108204000D03*
X205581000Y-108204000D03*
X209074000Y-108204000D03*
X213074000Y-108204000D03*
D18*
X205867000Y-97402900D03*
X205867000Y-101402900D03*
D19*
X208534000Y-85185000D03*
X208534000Y-81185000D03*
X185801000Y-106775000D03*
X185801000Y-102775000D03*
D20*
X202216000Y-89662000D03*
X206216000Y-89662000D03*
D19*
X212852000Y-85185000D03*
X212852000Y-81185000D03*
D21*
X227685600Y-99923600D03*
D22*
X227685600Y-94923600D03*
D23*
X109982000Y-107950000D03*
D24*
X109982000Y-130350000D03*
D23*
X110000000Y-92786200D03*
D24*
X110000000Y-70386200D03*
D23*
X125000000Y-130302000D03*
D24*
X125000000Y-107902000D03*
D23*
X125000000Y-70358000D03*
D24*
X125000000Y-92758000D03*
D23*
X140000000Y-107950000D03*
D24*
X140000000Y-130350000D03*
D23*
X140000000Y-92710000D03*
D24*
X140000000Y-70310000D03*
D25*
X93472000Y-104020000D03*
X93472000Y-96520000D03*
D26*
X201549000Y-113157000D03*
D27*
X204049000Y-113157000D03*
D26*
X209042000Y-113157000D03*
D27*
X211542000Y-113157000D03*
D28*
X230000000Y-75000000D03*
X230000000Y-126000000D03*
X100000000Y-126000000D03*
X100000000Y-76000000D03*
D29*
X157480000Y-108204000D03*
X157480000Y-92964000D03*
D25*
X177800000Y-108204000D03*
X177800000Y-100584000D03*
X177800000Y-92964000D03*
D30*
X189966600Y-91951800D03*
X194966600Y-94451800D03*
X189966600Y-96951800D03*
X189966600Y-102518200D03*
X194966600Y-105018200D03*
X189966600Y-107518200D03*
D31*
X201581000Y-108204000D02*
X199313800Y-108204000D01*
X188715900Y-109689900D02*
X185801000Y-106775000D01*
X197827900Y-109689900D02*
X188715900Y-109689900D01*
X199313800Y-108204000D02*
X197827900Y-109689900D01*
X177800000Y-108204000D02*
X184372000Y-108204000D01*
X184372000Y-108204000D02*
X185801000Y-106775000D01*
X205543400Y-101402900D02*
X204838300Y-102108000D01*
X204838300Y-102108000D02*
X202438000Y-102108000D01*
X201676000Y-125831600D02*
X201676000Y-113284000D01*
X201676000Y-113284000D02*
X201549000Y-113157000D01*
X201549000Y-113157000D02*
X201549000Y-108236000D01*
X201549000Y-108236000D02*
X201581000Y-108204000D01*
X201549000Y-108236000D02*
X201581000Y-108204000D01*
X201422000Y-108363000D02*
X201422000Y-103124000D01*
X201422000Y-103124000D02*
X202438000Y-102108000D01*
X209042000Y-108236000D02*
X209074000Y-108204000D01*
X213074000Y-108204000D02*
X213074000Y-95611700D01*
X211950300Y-94488000D02*
X210058000Y-94488000D01*
X213074000Y-95611700D02*
X211950300Y-94488000D01*
X205867000Y-97402900D02*
X205867000Y-96113600D01*
X205867000Y-96113600D02*
X207492600Y-94488000D01*
X207492600Y-94488000D02*
X210058000Y-94488000D01*
X206197200Y-89680800D02*
X206216000Y-89662000D01*
X213131400Y-108146600D02*
X213074000Y-108204000D01*
X211676000Y-125831600D02*
X211676000Y-113291000D01*
X211676000Y-113291000D02*
X211542000Y-113157000D01*
X211549000Y-113164000D02*
X211542000Y-113157000D01*
X211542000Y-113157000D02*
X211542000Y-112816000D01*
X211542000Y-112816000D02*
X213074000Y-111284000D01*
X213074000Y-111284000D02*
X213074000Y-108204000D01*
X210058000Y-94488000D02*
X210058000Y-90805000D01*
X208915000Y-89662000D02*
X206216000Y-89662000D01*
X210058000Y-90805000D02*
X208915000Y-89662000D01*
X177800000Y-92964000D02*
X183007000Y-92964000D01*
X183007000Y-92964000D02*
X190119000Y-85852000D01*
X190119000Y-85852000D02*
X204216000Y-85852000D01*
X204216000Y-85852000D02*
X206216000Y-87852000D01*
X206216000Y-87852000D02*
X206216000Y-89662000D01*
X206248000Y-89694000D02*
X206216000Y-89662000D01*
D32*
X110000000Y-70386200D02*
X110000000Y-81617600D01*
X110000000Y-81617600D02*
X95097600Y-96520000D01*
X95097600Y-96520000D02*
X93472000Y-96520000D01*
X109982000Y-130350000D02*
X109982000Y-118897400D01*
X109982000Y-118897400D02*
X95104600Y-104020000D01*
X95104600Y-104020000D02*
X93472000Y-104020000D01*
X109982000Y-107950000D02*
X124952000Y-107950000D01*
X124952000Y-107950000D02*
X125000000Y-107902000D01*
X125000000Y-92758000D02*
X110028200Y-92758000D01*
X110028200Y-92758000D02*
X110000000Y-92786200D01*
X125000000Y-130302000D02*
X139952000Y-130302000D01*
X139952000Y-130302000D02*
X140000000Y-130350000D01*
X140000000Y-70310000D02*
X125048000Y-70310000D01*
X125048000Y-70310000D02*
X125000000Y-70358000D01*
X157480000Y-107950000D02*
X140000000Y-107950000D01*
X157480000Y-92710000D02*
X140000000Y-92710000D01*
D31*
X189966600Y-96951800D02*
X175768000Y-96951800D01*
X175564800Y-102946200D02*
X185401200Y-102946200D01*
X174193200Y-101574600D02*
X175564800Y-102946200D01*
X174193200Y-98526600D02*
X174193200Y-101574600D01*
X175768000Y-96951800D02*
X174193200Y-98526600D01*
X185477400Y-103098600D02*
X185801000Y-102775000D01*
X189865000Y-91821000D02*
X200057000Y-91821000D01*
X200057000Y-91821000D02*
X202216000Y-89662000D01*
X194966600Y-94451800D02*
X202401800Y-94451800D01*
X202401800Y-94451800D02*
X202438000Y-94488000D01*
X184531000Y-94361000D02*
X189865000Y-94361000D01*
X183642000Y-95250000D02*
X184531000Y-94361000D01*
X175717200Y-95250000D02*
X183642000Y-95250000D01*
X174155100Y-93687900D02*
X175717200Y-95250000D01*
X174155100Y-91782900D02*
X174155100Y-93687900D01*
X175641000Y-90297000D02*
X174155100Y-91782900D01*
X182499000Y-90297000D02*
X175641000Y-90297000D01*
X189103000Y-83693000D02*
X182499000Y-90297000D01*
X192532000Y-97028000D02*
X195326000Y-97028000D01*
X189865000Y-94361000D02*
X192532000Y-97028000D01*
X195326000Y-97028000D02*
X189992000Y-102362000D01*
X188214000Y-100584000D02*
X189992000Y-102362000D01*
X202438000Y-97028000D02*
X195326000Y-97028000D01*
X203962000Y-83693000D02*
X189103000Y-83693000D01*
X208534000Y-81185000D02*
X206470000Y-81185000D01*
X206470000Y-81185000D02*
X203962000Y-83693000D01*
X208534000Y-81185000D02*
X212852000Y-81185000D01*
X216154000Y-83312000D02*
X216154000Y-81661000D01*
X215678000Y-81185000D02*
X212852000Y-81185000D01*
X216154000Y-81661000D02*
X215678000Y-81185000D01*
X177800000Y-100584000D02*
X188214000Y-100584000D01*
X202438000Y-99568000D02*
X196596000Y-99568000D01*
X194966600Y-101197400D02*
X194966600Y-105018200D01*
X196596000Y-99568000D02*
X194966600Y-101197400D01*
X227685600Y-99923600D02*
X220878400Y-99923600D01*
X187337700Y-104889300D02*
X189966600Y-107518200D01*
X175450500Y-104889300D02*
X187337700Y-104889300D01*
X174320200Y-106019600D02*
X175450500Y-104889300D01*
X174320200Y-114744500D02*
X174320200Y-106019600D01*
X191452500Y-131876800D02*
X174320200Y-114744500D01*
X215696800Y-131876800D02*
X191452500Y-131876800D01*
X219214700Y-128358900D02*
X215696800Y-131876800D01*
X219214700Y-101587300D02*
X219214700Y-128358900D01*
X220878400Y-99923600D02*
X219214700Y-101587300D01*
X189966600Y-107518200D02*
X192466600Y-107518200D01*
X192466600Y-107518200D02*
X194966600Y-105018200D01*
D33*
G36*
X236474000Y-77141606D02*
X236474000Y-124026394D01*
X227571869Y-132928525D01*
X226142260Y-134239000D01*
X169545000Y-134239000D01*
X169545000Y-91782900D01*
X172528100Y-91782900D01*
X172528100Y-93687900D01*
X172651948Y-94310526D01*
X173004637Y-94838363D01*
X174292574Y-96126300D01*
X173042737Y-97376137D01*
X172690048Y-97903974D01*
X172566200Y-98526600D01*
X172566200Y-101574600D01*
X172690048Y-102197226D01*
X173042737Y-102725063D01*
X174178274Y-103860600D01*
X173169737Y-104869137D01*
X172817048Y-105396974D01*
X172693200Y-106019600D01*
X172693200Y-114744500D01*
X172817048Y-115367126D01*
X173169737Y-115894963D01*
X190302037Y-133027263D01*
X190829874Y-133379952D01*
X191452500Y-133503800D01*
X215696800Y-133503800D01*
X216319426Y-133379952D01*
X216847263Y-133027263D01*
X220365163Y-129509363D01*
X220717852Y-128981526D01*
X220841700Y-128358900D01*
X220841700Y-102261226D01*
X221552326Y-101550600D01*
X224917650Y-101550600D01*
X225061931Y-101774819D01*
X225438544Y-102032148D01*
X225885600Y-102122679D01*
X229485600Y-102122679D01*
X229903241Y-102044094D01*
X230286819Y-101797269D01*
X230544148Y-101420656D01*
X230634679Y-100973600D01*
X230634679Y-98873600D01*
X230556094Y-98455959D01*
X230309269Y-98072381D01*
X229932656Y-97815052D01*
X229485600Y-97724521D01*
X225885600Y-97724521D01*
X225467959Y-97803106D01*
X225084381Y-98049931D01*
X224915839Y-98296600D01*
X220878400Y-98296600D01*
X220255774Y-98420448D01*
X219727937Y-98773137D01*
X218064237Y-100436837D01*
X217711548Y-100964674D01*
X217587700Y-101587300D01*
X217587700Y-127684974D01*
X215022874Y-130249800D01*
X192126426Y-130249800D01*
X175947200Y-114070574D01*
X175947200Y-109712486D01*
X176451780Y-110217947D01*
X177325111Y-110580586D01*
X178270740Y-110581412D01*
X179144703Y-110220297D01*
X179534680Y-109831000D01*
X184372000Y-109831000D01*
X184994626Y-109707152D01*
X185522463Y-109354463D01*
X185801000Y-109075926D01*
X187565437Y-110840363D01*
X188093274Y-111193052D01*
X188715900Y-111316900D01*
X197827900Y-111316900D01*
X198450526Y-111193052D01*
X198978363Y-110840363D01*
X199909520Y-109909206D01*
X199922000Y-109917733D01*
X199922000Y-111940595D01*
X199840452Y-112059944D01*
X199749921Y-112507000D01*
X199749921Y-113807000D01*
X199828506Y-114224641D01*
X200049000Y-114567299D01*
X200049000Y-123063650D01*
X199824781Y-123207931D01*
X199567452Y-123584544D01*
X199476921Y-124031600D01*
X199476921Y-127631600D01*
X199555506Y-128049241D01*
X199802331Y-128432819D01*
X200178944Y-128690148D01*
X200626000Y-128780679D01*
X202726000Y-128780679D01*
X203143641Y-128702094D01*
X203527219Y-128455269D01*
X203784548Y-128078656D01*
X203875079Y-127631600D01*
X203875079Y-125958600D01*
X204991000Y-125958600D01*
X204991000Y-126708600D01*
X205167864Y-127343754D01*
X205574328Y-127862877D01*
X206148511Y-128186937D01*
X206287721Y-128221254D01*
X206549000Y-128102557D01*
X206549000Y-125958600D01*
X206803000Y-125958600D01*
X206803000Y-128102557D01*
X207064279Y-128221254D01*
X207203489Y-128186937D01*
X207777672Y-127862877D01*
X208184136Y-127343754D01*
X208361000Y-126708600D01*
X208361000Y-125958600D01*
X206803000Y-125958600D01*
X206549000Y-125958600D01*
X204991000Y-125958600D01*
X203875079Y-125958600D01*
X203875079Y-124954600D01*
X204991000Y-124954600D01*
X204991000Y-125704600D01*
X206549000Y-125704600D01*
X206549000Y-123560643D01*
X206803000Y-123560643D01*
X206803000Y-125704600D01*
X208361000Y-125704600D01*
X208361000Y-124954600D01*
X208184136Y-124319446D01*
X207777672Y-123800323D01*
X207203489Y-123476263D01*
X207064279Y-123441946D01*
X206803000Y-123560643D01*
X206549000Y-123560643D01*
X206287721Y-123441946D01*
X206148511Y-123476263D01*
X205574328Y-123800323D01*
X205167864Y-124319446D01*
X204991000Y-124954600D01*
X203875079Y-124954600D01*
X203875079Y-124031600D01*
X203796494Y-123613959D01*
X203549669Y-123230381D01*
X203303000Y-123061839D01*
X203303000Y-114082608D01*
X203329590Y-114056018D01*
X203385271Y-114286611D01*
X203868078Y-114454622D01*
X204378428Y-114425083D01*
X204712729Y-114286611D01*
X204768410Y-114056016D01*
X204049000Y-113336605D01*
X204034858Y-113350748D01*
X203855252Y-113171142D01*
X203869395Y-113157000D01*
X204228605Y-113157000D01*
X204948016Y-113876410D01*
X205178611Y-113820729D01*
X205310143Y-113442750D01*
X207757000Y-113442750D01*
X207757000Y-113933310D01*
X207853673Y-114166699D01*
X208032302Y-114345327D01*
X208265691Y-114442000D01*
X208756250Y-114442000D01*
X208915000Y-114283250D01*
X208915000Y-113284000D01*
X207915750Y-113284000D01*
X207757000Y-113442750D01*
X205310143Y-113442750D01*
X205346622Y-113337922D01*
X205317083Y-112827572D01*
X205178611Y-112493271D01*
X204948016Y-112437590D01*
X204228605Y-113157000D01*
X203869395Y-113157000D01*
X203855252Y-113142858D01*
X204034858Y-112963252D01*
X204049000Y-112977395D01*
X204645704Y-112380690D01*
X207757000Y-112380690D01*
X207757000Y-112871250D01*
X207915750Y-113030000D01*
X208915000Y-113030000D01*
X208915000Y-112030750D01*
X208756250Y-111872000D01*
X208265691Y-111872000D01*
X208032302Y-111968673D01*
X207853673Y-112147301D01*
X207757000Y-112380690D01*
X204645704Y-112380690D01*
X204768410Y-112257984D01*
X204712729Y-112027389D01*
X204229922Y-111859378D01*
X203719572Y-111888917D01*
X203385271Y-112027389D01*
X203329590Y-112257982D01*
X203294648Y-112223040D01*
X203269494Y-112089359D01*
X203176000Y-111944065D01*
X203176000Y-109960367D01*
X203382219Y-109827669D01*
X203639548Y-109451056D01*
X203730079Y-109004000D01*
X203730079Y-108489750D01*
X203946000Y-108489750D01*
X203946000Y-109130310D01*
X204042673Y-109363699D01*
X204221302Y-109542327D01*
X204454691Y-109639000D01*
X205295250Y-109639000D01*
X205454000Y-109480250D01*
X205454000Y-108331000D01*
X205708000Y-108331000D01*
X205708000Y-109480250D01*
X205866750Y-109639000D01*
X206707309Y-109639000D01*
X206940698Y-109542327D01*
X207119327Y-109363699D01*
X207216000Y-109130310D01*
X207216000Y-108489750D01*
X207439000Y-108489750D01*
X207439000Y-109130310D01*
X207535673Y-109363699D01*
X207714302Y-109542327D01*
X207947691Y-109639000D01*
X208788250Y-109639000D01*
X208947000Y-109480250D01*
X208947000Y-108331000D01*
X209201000Y-108331000D01*
X209201000Y-109480250D01*
X209359750Y-109639000D01*
X210200309Y-109639000D01*
X210433698Y-109542327D01*
X210612327Y-109363699D01*
X210709000Y-109130310D01*
X210709000Y-108489750D01*
X210550250Y-108331000D01*
X209201000Y-108331000D01*
X208947000Y-108331000D01*
X207597750Y-108331000D01*
X207439000Y-108489750D01*
X207216000Y-108489750D01*
X207057250Y-108331000D01*
X205708000Y-108331000D01*
X205454000Y-108331000D01*
X204104750Y-108331000D01*
X203946000Y-108489750D01*
X203730079Y-108489750D01*
X203730079Y-107404000D01*
X203706313Y-107277690D01*
X203946000Y-107277690D01*
X203946000Y-107918250D01*
X204104750Y-108077000D01*
X205454000Y-108077000D01*
X205454000Y-106927750D01*
X205708000Y-106927750D01*
X205708000Y-108077000D01*
X207057250Y-108077000D01*
X207216000Y-107918250D01*
X207216000Y-107277690D01*
X207439000Y-107277690D01*
X207439000Y-107918250D01*
X207597750Y-108077000D01*
X208947000Y-108077000D01*
X208947000Y-106927750D01*
X209201000Y-106927750D01*
X209201000Y-108077000D01*
X210550250Y-108077000D01*
X210709000Y-107918250D01*
X210709000Y-107277690D01*
X210612327Y-107044301D01*
X210433698Y-106865673D01*
X210200309Y-106769000D01*
X209359750Y-106769000D01*
X209201000Y-106927750D01*
X208947000Y-106927750D01*
X208788250Y-106769000D01*
X207947691Y-106769000D01*
X207714302Y-106865673D01*
X207535673Y-107044301D01*
X207439000Y-107277690D01*
X207216000Y-107277690D01*
X207119327Y-107044301D01*
X206940698Y-106865673D01*
X206707309Y-106769000D01*
X205866750Y-106769000D01*
X205708000Y-106927750D01*
X205454000Y-106927750D01*
X205295250Y-106769000D01*
X204454691Y-106769000D01*
X204221302Y-106865673D01*
X204042673Y-107044301D01*
X203946000Y-107277690D01*
X203706313Y-107277690D01*
X203651494Y-106986359D01*
X203404669Y-106602781D01*
X203049000Y-106359762D01*
X203049000Y-104002098D01*
X203621020Y-103888316D01*
X203850474Y-103735000D01*
X204838300Y-103735000D01*
X205460926Y-103611152D01*
X205549485Y-103551979D01*
X206667000Y-103551979D01*
X207084641Y-103473394D01*
X207468219Y-103226569D01*
X207708921Y-102874290D01*
X207708921Y-102908000D01*
X207787506Y-103325641D01*
X208034331Y-103709219D01*
X208410944Y-103966548D01*
X208858000Y-104057079D01*
X211258000Y-104057079D01*
X211447000Y-104021516D01*
X211447000Y-106468224D01*
X211272781Y-106580331D01*
X211015452Y-106956944D01*
X210924921Y-107404000D01*
X210924921Y-109004000D01*
X211003506Y-109421641D01*
X211250331Y-109805219D01*
X211447000Y-109939597D01*
X211447000Y-110610074D01*
X210391537Y-111665537D01*
X210133998Y-112050972D01*
X210051698Y-111968673D01*
X209818309Y-111872000D01*
X209327750Y-111872000D01*
X209169000Y-112030750D01*
X209169000Y-113030000D01*
X209189000Y-113030000D01*
X209189000Y-113284000D01*
X209169000Y-113284000D01*
X209169000Y-114283250D01*
X209327750Y-114442000D01*
X209818309Y-114442000D01*
X210049000Y-114346445D01*
X210049000Y-123616032D01*
X209664714Y-124191155D01*
X209499000Y-125024257D01*
X209499000Y-126638943D01*
X209664714Y-127472045D01*
X210136629Y-128178314D01*
X210842898Y-128650229D01*
X211676000Y-128815943D01*
X212509102Y-128650229D01*
X213215371Y-128178314D01*
X213687286Y-127472045D01*
X213853000Y-126638943D01*
X213853000Y-125024257D01*
X213687286Y-124191155D01*
X213303000Y-123616032D01*
X213303000Y-113549804D01*
X213318690Y-113512018D01*
X213318840Y-113340086D01*
X214224463Y-112434463D01*
X214577152Y-111906626D01*
X214701000Y-111284000D01*
X214701000Y-109939776D01*
X214875219Y-109827669D01*
X215132548Y-109451056D01*
X215223079Y-109004000D01*
X215223079Y-107404000D01*
X215144494Y-106986359D01*
X214897669Y-106602781D01*
X214701000Y-106468403D01*
X214701000Y-95611705D01*
X214701001Y-95611700D01*
X214641363Y-95311879D01*
X225295946Y-95311879D01*
X225330263Y-95451089D01*
X225654323Y-96025272D01*
X226173446Y-96431736D01*
X226808600Y-96608600D01*
X227558600Y-96608600D01*
X227558600Y-95050600D01*
X227812600Y-95050600D01*
X227812600Y-96608600D01*
X228562600Y-96608600D01*
X229197754Y-96431736D01*
X229716877Y-96025272D01*
X230040937Y-95451089D01*
X230075254Y-95311879D01*
X229956557Y-95050600D01*
X227812600Y-95050600D01*
X227558600Y-95050600D01*
X225414643Y-95050600D01*
X225295946Y-95311879D01*
X214641363Y-95311879D01*
X214577152Y-94989074D01*
X214273965Y-94535321D01*
X225295946Y-94535321D01*
X225414643Y-94796600D01*
X227558600Y-94796600D01*
X227558600Y-93238600D01*
X227812600Y-93238600D01*
X227812600Y-94796600D01*
X229956557Y-94796600D01*
X230075254Y-94535321D01*
X230040937Y-94396111D01*
X229716877Y-93821928D01*
X229197754Y-93415464D01*
X228562600Y-93238600D01*
X227812600Y-93238600D01*
X227558600Y-93238600D01*
X226808600Y-93238600D01*
X226173446Y-93415464D01*
X225654323Y-93821928D01*
X225330263Y-94396111D01*
X225295946Y-94535321D01*
X214273965Y-94535321D01*
X214224463Y-94461237D01*
X213100763Y-93337537D01*
X212572926Y-92984848D01*
X211950300Y-92861000D01*
X211685000Y-92861000D01*
X211685000Y-90805000D01*
X211561152Y-90182374D01*
X211208463Y-89654537D01*
X210065463Y-88511537D01*
X209537626Y-88158848D01*
X208915000Y-88035000D01*
X208055253Y-88035000D01*
X208039669Y-88010781D01*
X207843000Y-87876403D01*
X207843000Y-87852000D01*
X207719152Y-87229374D01*
X207402729Y-86755813D01*
X207557690Y-86820000D01*
X208248250Y-86820000D01*
X208407000Y-86661250D01*
X208407000Y-85312000D01*
X208661000Y-85312000D01*
X208661000Y-86661250D01*
X208819750Y-86820000D01*
X209510310Y-86820000D01*
X209743699Y-86723327D01*
X209922327Y-86544698D01*
X210019000Y-86311309D01*
X210019000Y-85470750D01*
X211367000Y-85470750D01*
X211367000Y-86311309D01*
X211463673Y-86544698D01*
X211642301Y-86723327D01*
X211875690Y-86820000D01*
X212566250Y-86820000D01*
X212725000Y-86661250D01*
X212725000Y-85312000D01*
X212979000Y-85312000D01*
X212979000Y-86661250D01*
X213137750Y-86820000D01*
X213828310Y-86820000D01*
X214061699Y-86723327D01*
X214240327Y-86544698D01*
X214337000Y-86311309D01*
X214337000Y-85641400D01*
X214886090Y-85641400D01*
X215024522Y-85975633D01*
X215364460Y-86357349D01*
X215824598Y-86579920D01*
X216027000Y-86457090D01*
X216027000Y-85439000D01*
X216281000Y-85439000D01*
X216281000Y-86457090D01*
X216483402Y-86579920D01*
X216943540Y-86357349D01*
X217283478Y-85975633D01*
X217421910Y-85641400D01*
X217298224Y-85439000D01*
X216281000Y-85439000D01*
X216027000Y-85439000D01*
X215009776Y-85439000D01*
X214886090Y-85641400D01*
X214337000Y-85641400D01*
X214337000Y-85470750D01*
X214178250Y-85312000D01*
X212979000Y-85312000D01*
X212725000Y-85312000D01*
X211525750Y-85312000D01*
X211367000Y-85470750D01*
X210019000Y-85470750D01*
X209860250Y-85312000D01*
X208661000Y-85312000D01*
X208407000Y-85312000D01*
X207207750Y-85312000D01*
X207049000Y-85470750D01*
X207049000Y-86311309D01*
X207100453Y-86435527D01*
X205366463Y-84701537D01*
X205299279Y-84656646D01*
X205897234Y-84058691D01*
X207049000Y-84058691D01*
X207049000Y-84899250D01*
X207207750Y-85058000D01*
X208407000Y-85058000D01*
X208407000Y-83708750D01*
X208661000Y-83708750D01*
X208661000Y-85058000D01*
X209860250Y-85058000D01*
X210019000Y-84899250D01*
X210019000Y-84058691D01*
X211367000Y-84058691D01*
X211367000Y-84899250D01*
X211525750Y-85058000D01*
X212725000Y-85058000D01*
X212725000Y-83708750D01*
X212979000Y-83708750D01*
X212979000Y-85058000D01*
X214178250Y-85058000D01*
X214337000Y-84899250D01*
X214337000Y-84058691D01*
X214240327Y-83825302D01*
X214061699Y-83646673D01*
X213828310Y-83550000D01*
X213137750Y-83550000D01*
X212979000Y-83708750D01*
X212725000Y-83708750D01*
X212566250Y-83550000D01*
X211875690Y-83550000D01*
X211642301Y-83646673D01*
X211463673Y-83825302D01*
X211367000Y-84058691D01*
X210019000Y-84058691D01*
X209922327Y-83825302D01*
X209743699Y-83646673D01*
X209510310Y-83550000D01*
X208819750Y-83550000D01*
X208661000Y-83708750D01*
X208407000Y-83708750D01*
X208248250Y-83550000D01*
X207557690Y-83550000D01*
X207324301Y-83646673D01*
X207145673Y-83825302D01*
X207049000Y-84058691D01*
X205897234Y-84058691D01*
X206925309Y-83030616D01*
X207236944Y-83243548D01*
X207684000Y-83334079D01*
X209384000Y-83334079D01*
X209801641Y-83255494D01*
X210185219Y-83008669D01*
X210319597Y-82812000D01*
X211066224Y-82812000D01*
X211178331Y-82986219D01*
X211554944Y-83243548D01*
X212002000Y-83334079D01*
X213702000Y-83334079D01*
X214119641Y-83255494D01*
X214329921Y-83120183D01*
X214329921Y-83987000D01*
X214408506Y-84404641D01*
X214655331Y-84788219D01*
X214897941Y-84953987D01*
X214886090Y-84982600D01*
X215009776Y-85185000D01*
X216027000Y-85185000D01*
X216027000Y-85165000D01*
X216281000Y-85165000D01*
X216281000Y-85185000D01*
X217298224Y-85185000D01*
X217421910Y-84982600D01*
X217409520Y-84952685D01*
X217630219Y-84810669D01*
X217887548Y-84434056D01*
X217978079Y-83987000D01*
X217978079Y-82637000D01*
X217899494Y-82219359D01*
X217781000Y-82035214D01*
X217781000Y-81661005D01*
X217781001Y-81661000D01*
X217657152Y-81038374D01*
X217339099Y-80562374D01*
X217304463Y-80510537D01*
X217304460Y-80510535D01*
X216828463Y-80034537D01*
X216300626Y-79681848D01*
X215678000Y-79558000D01*
X214637776Y-79558000D01*
X214525669Y-79383781D01*
X214149056Y-79126452D01*
X213702000Y-79035921D01*
X212002000Y-79035921D01*
X211584359Y-79114506D01*
X211200781Y-79361331D01*
X211066403Y-79558000D01*
X210319776Y-79558000D01*
X210207669Y-79383781D01*
X209831056Y-79126452D01*
X209384000Y-79035921D01*
X207684000Y-79035921D01*
X207266359Y-79114506D01*
X206882781Y-79361331D01*
X206748403Y-79558000D01*
X206470005Y-79558000D01*
X206470000Y-79557999D01*
X205847374Y-79681848D01*
X205319537Y-80034537D01*
X205319535Y-80034540D01*
X203288074Y-82066000D01*
X189103000Y-82066000D01*
X188480374Y-82189848D01*
X187952537Y-82542537D01*
X187952535Y-82542540D01*
X181825074Y-88670000D01*
X175641000Y-88670000D01*
X175018374Y-88793848D01*
X174490537Y-89146537D01*
X173004637Y-90632437D01*
X172651948Y-91160274D01*
X172528100Y-91782900D01*
X169545000Y-91782900D01*
X169545000Y-67056000D01*
X226388394Y-67056000D01*
X236474000Y-77141606D01*
X236474000Y-77141606D01*
G37*
X236474000Y-77141606D02*
X236474000Y-124026394D01*
X227571869Y-132928525D01*
X226142260Y-134239000D01*
X169545000Y-134239000D01*
X169545000Y-91782900D01*
X172528100Y-91782900D01*
X172528100Y-93687900D01*
X172651948Y-94310526D01*
X173004637Y-94838363D01*
X174292574Y-96126300D01*
X173042737Y-97376137D01*
X172690048Y-97903974D01*
X172566200Y-98526600D01*
X172566200Y-101574600D01*
X172690048Y-102197226D01*
X173042737Y-102725063D01*
X174178274Y-103860600D01*
X173169737Y-104869137D01*
X172817048Y-105396974D01*
X172693200Y-106019600D01*
X172693200Y-114744500D01*
X172817048Y-115367126D01*
X173169737Y-115894963D01*
X190302037Y-133027263D01*
X190829874Y-133379952D01*
X191452500Y-133503800D01*
X215696800Y-133503800D01*
X216319426Y-133379952D01*
X216847263Y-133027263D01*
X220365163Y-129509363D01*
X220717852Y-128981526D01*
X220841700Y-128358900D01*
X220841700Y-102261226D01*
X221552326Y-101550600D01*
X224917650Y-101550600D01*
X225061931Y-101774819D01*
X225438544Y-102032148D01*
X225885600Y-102122679D01*
X229485600Y-102122679D01*
X229903241Y-102044094D01*
X230286819Y-101797269D01*
X230544148Y-101420656D01*
X230634679Y-100973600D01*
X230634679Y-98873600D01*
X230556094Y-98455959D01*
X230309269Y-98072381D01*
X229932656Y-97815052D01*
X229485600Y-97724521D01*
X225885600Y-97724521D01*
X225467959Y-97803106D01*
X225084381Y-98049931D01*
X224915839Y-98296600D01*
X220878400Y-98296600D01*
X220255774Y-98420448D01*
X219727937Y-98773137D01*
X218064237Y-100436837D01*
X217711548Y-100964674D01*
X217587700Y-101587300D01*
X217587700Y-127684974D01*
X215022874Y-130249800D01*
X192126426Y-130249800D01*
X175947200Y-114070574D01*
X175947200Y-109712486D01*
X176451780Y-110217947D01*
X177325111Y-110580586D01*
X178270740Y-110581412D01*
X179144703Y-110220297D01*
X179534680Y-109831000D01*
X184372000Y-109831000D01*
X184994626Y-109707152D01*
X185522463Y-109354463D01*
X185801000Y-109075926D01*
X187565437Y-110840363D01*
X188093274Y-111193052D01*
X188715900Y-111316900D01*
X197827900Y-111316900D01*
X198450526Y-111193052D01*
X198978363Y-110840363D01*
X199909520Y-109909206D01*
X199922000Y-109917733D01*
X199922000Y-111940595D01*
X199840452Y-112059944D01*
X199749921Y-112507000D01*
X199749921Y-113807000D01*
X199828506Y-114224641D01*
X200049000Y-114567299D01*
X200049000Y-123063650D01*
X199824781Y-123207931D01*
X199567452Y-123584544D01*
X199476921Y-124031600D01*
X199476921Y-127631600D01*
X199555506Y-128049241D01*
X199802331Y-128432819D01*
X200178944Y-128690148D01*
X200626000Y-128780679D01*
X202726000Y-128780679D01*
X203143641Y-128702094D01*
X203527219Y-128455269D01*
X203784548Y-128078656D01*
X203875079Y-127631600D01*
X203875079Y-125958600D01*
X204991000Y-125958600D01*
X204991000Y-126708600D01*
X205167864Y-127343754D01*
X205574328Y-127862877D01*
X206148511Y-128186937D01*
X206287721Y-128221254D01*
X206549000Y-128102557D01*
X206549000Y-125958600D01*
X206803000Y-125958600D01*
X206803000Y-128102557D01*
X207064279Y-128221254D01*
X207203489Y-128186937D01*
X207777672Y-127862877D01*
X208184136Y-127343754D01*
X208361000Y-126708600D01*
X208361000Y-125958600D01*
X206803000Y-125958600D01*
X206549000Y-125958600D01*
X204991000Y-125958600D01*
X203875079Y-125958600D01*
X203875079Y-124954600D01*
X204991000Y-124954600D01*
X204991000Y-125704600D01*
X206549000Y-125704600D01*
X206549000Y-123560643D01*
X206803000Y-123560643D01*
X206803000Y-125704600D01*
X208361000Y-125704600D01*
X208361000Y-124954600D01*
X208184136Y-124319446D01*
X207777672Y-123800323D01*
X207203489Y-123476263D01*
X207064279Y-123441946D01*
X206803000Y-123560643D01*
X206549000Y-123560643D01*
X206287721Y-123441946D01*
X206148511Y-123476263D01*
X205574328Y-123800323D01*
X205167864Y-124319446D01*
X204991000Y-124954600D01*
X203875079Y-124954600D01*
X203875079Y-124031600D01*
X203796494Y-123613959D01*
X203549669Y-123230381D01*
X203303000Y-123061839D01*
X203303000Y-114082608D01*
X203329590Y-114056018D01*
X203385271Y-114286611D01*
X203868078Y-114454622D01*
X204378428Y-114425083D01*
X204712729Y-114286611D01*
X204768410Y-114056016D01*
X204049000Y-113336605D01*
X204034858Y-113350748D01*
X203855252Y-113171142D01*
X203869395Y-113157000D01*
X204228605Y-113157000D01*
X204948016Y-113876410D01*
X205178611Y-113820729D01*
X205310143Y-113442750D01*
X207757000Y-113442750D01*
X207757000Y-113933310D01*
X207853673Y-114166699D01*
X208032302Y-114345327D01*
X208265691Y-114442000D01*
X208756250Y-114442000D01*
X208915000Y-114283250D01*
X208915000Y-113284000D01*
X207915750Y-113284000D01*
X207757000Y-113442750D01*
X205310143Y-113442750D01*
X205346622Y-113337922D01*
X205317083Y-112827572D01*
X205178611Y-112493271D01*
X204948016Y-112437590D01*
X204228605Y-113157000D01*
X203869395Y-113157000D01*
X203855252Y-113142858D01*
X204034858Y-112963252D01*
X204049000Y-112977395D01*
X204645704Y-112380690D01*
X207757000Y-112380690D01*
X207757000Y-112871250D01*
X207915750Y-113030000D01*
X208915000Y-113030000D01*
X208915000Y-112030750D01*
X208756250Y-111872000D01*
X208265691Y-111872000D01*
X208032302Y-111968673D01*
X207853673Y-112147301D01*
X207757000Y-112380690D01*
X204645704Y-112380690D01*
X204768410Y-112257984D01*
X204712729Y-112027389D01*
X204229922Y-111859378D01*
X203719572Y-111888917D01*
X203385271Y-112027389D01*
X203329590Y-112257982D01*
X203294648Y-112223040D01*
X203269494Y-112089359D01*
X203176000Y-111944065D01*
X203176000Y-109960367D01*
X203382219Y-109827669D01*
X203639548Y-109451056D01*
X203730079Y-109004000D01*
X203730079Y-108489750D01*
X203946000Y-108489750D01*
X203946000Y-109130310D01*
X204042673Y-109363699D01*
X204221302Y-109542327D01*
X204454691Y-109639000D01*
X205295250Y-109639000D01*
X205454000Y-109480250D01*
X205454000Y-108331000D01*
X205708000Y-108331000D01*
X205708000Y-109480250D01*
X205866750Y-109639000D01*
X206707309Y-109639000D01*
X206940698Y-109542327D01*
X207119327Y-109363699D01*
X207216000Y-109130310D01*
X207216000Y-108489750D01*
X207439000Y-108489750D01*
X207439000Y-109130310D01*
X207535673Y-109363699D01*
X207714302Y-109542327D01*
X207947691Y-109639000D01*
X208788250Y-109639000D01*
X208947000Y-109480250D01*
X208947000Y-108331000D01*
X209201000Y-108331000D01*
X209201000Y-109480250D01*
X209359750Y-109639000D01*
X210200309Y-109639000D01*
X210433698Y-109542327D01*
X210612327Y-109363699D01*
X210709000Y-109130310D01*
X210709000Y-108489750D01*
X210550250Y-108331000D01*
X209201000Y-108331000D01*
X208947000Y-108331000D01*
X207597750Y-108331000D01*
X207439000Y-108489750D01*
X207216000Y-108489750D01*
X207057250Y-108331000D01*
X205708000Y-108331000D01*
X205454000Y-108331000D01*
X204104750Y-108331000D01*
X203946000Y-108489750D01*
X203730079Y-108489750D01*
X203730079Y-107404000D01*
X203706313Y-107277690D01*
X203946000Y-107277690D01*
X203946000Y-107918250D01*
X204104750Y-108077000D01*
X205454000Y-108077000D01*
X205454000Y-106927750D01*
X205708000Y-106927750D01*
X205708000Y-108077000D01*
X207057250Y-108077000D01*
X207216000Y-107918250D01*
X207216000Y-107277690D01*
X207439000Y-107277690D01*
X207439000Y-107918250D01*
X207597750Y-108077000D01*
X208947000Y-108077000D01*
X208947000Y-106927750D01*
X209201000Y-106927750D01*
X209201000Y-108077000D01*
X210550250Y-108077000D01*
X210709000Y-107918250D01*
X210709000Y-107277690D01*
X210612327Y-107044301D01*
X210433698Y-106865673D01*
X210200309Y-106769000D01*
X209359750Y-106769000D01*
X209201000Y-106927750D01*
X208947000Y-106927750D01*
X208788250Y-106769000D01*
X207947691Y-106769000D01*
X207714302Y-106865673D01*
X207535673Y-107044301D01*
X207439000Y-107277690D01*
X207216000Y-107277690D01*
X207119327Y-107044301D01*
X206940698Y-106865673D01*
X206707309Y-106769000D01*
X205866750Y-106769000D01*
X205708000Y-106927750D01*
X205454000Y-106927750D01*
X205295250Y-106769000D01*
X204454691Y-106769000D01*
X204221302Y-106865673D01*
X204042673Y-107044301D01*
X203946000Y-107277690D01*
X203706313Y-107277690D01*
X203651494Y-106986359D01*
X203404669Y-106602781D01*
X203049000Y-106359762D01*
X203049000Y-104002098D01*
X203621020Y-103888316D01*
X203850474Y-103735000D01*
X204838300Y-103735000D01*
X205460926Y-103611152D01*
X205549485Y-103551979D01*
X206667000Y-103551979D01*
X207084641Y-103473394D01*
X207468219Y-103226569D01*
X207708921Y-102874290D01*
X207708921Y-102908000D01*
X207787506Y-103325641D01*
X208034331Y-103709219D01*
X208410944Y-103966548D01*
X208858000Y-104057079D01*
X211258000Y-104057079D01*
X211447000Y-104021516D01*
X211447000Y-106468224D01*
X211272781Y-106580331D01*
X211015452Y-106956944D01*
X210924921Y-107404000D01*
X210924921Y-109004000D01*
X211003506Y-109421641D01*
X211250331Y-109805219D01*
X211447000Y-109939597D01*
X211447000Y-110610074D01*
X210391537Y-111665537D01*
X210133998Y-112050972D01*
X210051698Y-111968673D01*
X209818309Y-111872000D01*
X209327750Y-111872000D01*
X209169000Y-112030750D01*
X209169000Y-113030000D01*
X209189000Y-113030000D01*
X209189000Y-113284000D01*
X209169000Y-113284000D01*
X209169000Y-114283250D01*
X209327750Y-114442000D01*
X209818309Y-114442000D01*
X210049000Y-114346445D01*
X210049000Y-123616032D01*
X209664714Y-124191155D01*
X209499000Y-125024257D01*
X209499000Y-126638943D01*
X209664714Y-127472045D01*
X210136629Y-128178314D01*
X210842898Y-128650229D01*
X211676000Y-128815943D01*
X212509102Y-128650229D01*
X213215371Y-128178314D01*
X213687286Y-127472045D01*
X213853000Y-126638943D01*
X213853000Y-125024257D01*
X213687286Y-124191155D01*
X213303000Y-123616032D01*
X213303000Y-113549804D01*
X213318690Y-113512018D01*
X213318840Y-113340086D01*
X214224463Y-112434463D01*
X214577152Y-111906626D01*
X214701000Y-111284000D01*
X214701000Y-109939776D01*
X214875219Y-109827669D01*
X215132548Y-109451056D01*
X215223079Y-109004000D01*
X215223079Y-107404000D01*
X215144494Y-106986359D01*
X214897669Y-106602781D01*
X214701000Y-106468403D01*
X214701000Y-95611705D01*
X214701001Y-95611700D01*
X214641363Y-95311879D01*
X225295946Y-95311879D01*
X225330263Y-95451089D01*
X225654323Y-96025272D01*
X226173446Y-96431736D01*
X226808600Y-96608600D01*
X227558600Y-96608600D01*
X227558600Y-95050600D01*
X227812600Y-95050600D01*
X227812600Y-96608600D01*
X228562600Y-96608600D01*
X229197754Y-96431736D01*
X229716877Y-96025272D01*
X230040937Y-95451089D01*
X230075254Y-95311879D01*
X229956557Y-95050600D01*
X227812600Y-95050600D01*
X227558600Y-95050600D01*
X225414643Y-95050600D01*
X225295946Y-95311879D01*
X214641363Y-95311879D01*
X214577152Y-94989074D01*
X214273965Y-94535321D01*
X225295946Y-94535321D01*
X225414643Y-94796600D01*
X227558600Y-94796600D01*
X227558600Y-93238600D01*
X227812600Y-93238600D01*
X227812600Y-94796600D01*
X229956557Y-94796600D01*
X230075254Y-94535321D01*
X230040937Y-94396111D01*
X229716877Y-93821928D01*
X229197754Y-93415464D01*
X228562600Y-93238600D01*
X227812600Y-93238600D01*
X227558600Y-93238600D01*
X226808600Y-93238600D01*
X226173446Y-93415464D01*
X225654323Y-93821928D01*
X225330263Y-94396111D01*
X225295946Y-94535321D01*
X214273965Y-94535321D01*
X214224463Y-94461237D01*
X213100763Y-93337537D01*
X212572926Y-92984848D01*
X211950300Y-92861000D01*
X211685000Y-92861000D01*
X211685000Y-90805000D01*
X211561152Y-90182374D01*
X211208463Y-89654537D01*
X210065463Y-88511537D01*
X209537626Y-88158848D01*
X208915000Y-88035000D01*
X208055253Y-88035000D01*
X208039669Y-88010781D01*
X207843000Y-87876403D01*
X207843000Y-87852000D01*
X207719152Y-87229374D01*
X207402729Y-86755813D01*
X207557690Y-86820000D01*
X208248250Y-86820000D01*
X208407000Y-86661250D01*
X208407000Y-85312000D01*
X208661000Y-85312000D01*
X208661000Y-86661250D01*
X208819750Y-86820000D01*
X209510310Y-86820000D01*
X209743699Y-86723327D01*
X209922327Y-86544698D01*
X210019000Y-86311309D01*
X210019000Y-85470750D01*
X211367000Y-85470750D01*
X211367000Y-86311309D01*
X211463673Y-86544698D01*
X211642301Y-86723327D01*
X211875690Y-86820000D01*
X212566250Y-86820000D01*
X212725000Y-86661250D01*
X212725000Y-85312000D01*
X212979000Y-85312000D01*
X212979000Y-86661250D01*
X213137750Y-86820000D01*
X213828310Y-86820000D01*
X214061699Y-86723327D01*
X214240327Y-86544698D01*
X214337000Y-86311309D01*
X214337000Y-85641400D01*
X214886090Y-85641400D01*
X215024522Y-85975633D01*
X215364460Y-86357349D01*
X215824598Y-86579920D01*
X216027000Y-86457090D01*
X216027000Y-85439000D01*
X216281000Y-85439000D01*
X216281000Y-86457090D01*
X216483402Y-86579920D01*
X216943540Y-86357349D01*
X217283478Y-85975633D01*
X217421910Y-85641400D01*
X217298224Y-85439000D01*
X216281000Y-85439000D01*
X216027000Y-85439000D01*
X215009776Y-85439000D01*
X214886090Y-85641400D01*
X214337000Y-85641400D01*
X214337000Y-85470750D01*
X214178250Y-85312000D01*
X212979000Y-85312000D01*
X212725000Y-85312000D01*
X211525750Y-85312000D01*
X211367000Y-85470750D01*
X210019000Y-85470750D01*
X209860250Y-85312000D01*
X208661000Y-85312000D01*
X208407000Y-85312000D01*
X207207750Y-85312000D01*
X207049000Y-85470750D01*
X207049000Y-86311309D01*
X207100453Y-86435527D01*
X205366463Y-84701537D01*
X205299279Y-84656646D01*
X205897234Y-84058691D01*
X207049000Y-84058691D01*
X207049000Y-84899250D01*
X207207750Y-85058000D01*
X208407000Y-85058000D01*
X208407000Y-83708750D01*
X208661000Y-83708750D01*
X208661000Y-85058000D01*
X209860250Y-85058000D01*
X210019000Y-84899250D01*
X210019000Y-84058691D01*
X211367000Y-84058691D01*
X211367000Y-84899250D01*
X211525750Y-85058000D01*
X212725000Y-85058000D01*
X212725000Y-83708750D01*
X212979000Y-83708750D01*
X212979000Y-85058000D01*
X214178250Y-85058000D01*
X214337000Y-84899250D01*
X214337000Y-84058691D01*
X214240327Y-83825302D01*
X214061699Y-83646673D01*
X213828310Y-83550000D01*
X213137750Y-83550000D01*
X212979000Y-83708750D01*
X212725000Y-83708750D01*
X212566250Y-83550000D01*
X211875690Y-83550000D01*
X211642301Y-83646673D01*
X211463673Y-83825302D01*
X211367000Y-84058691D01*
X210019000Y-84058691D01*
X209922327Y-83825302D01*
X209743699Y-83646673D01*
X209510310Y-83550000D01*
X208819750Y-83550000D01*
X208661000Y-83708750D01*
X208407000Y-83708750D01*
X208248250Y-83550000D01*
X207557690Y-83550000D01*
X207324301Y-83646673D01*
X207145673Y-83825302D01*
X207049000Y-84058691D01*
X205897234Y-84058691D01*
X206925309Y-83030616D01*
X207236944Y-83243548D01*
X207684000Y-83334079D01*
X209384000Y-83334079D01*
X209801641Y-83255494D01*
X210185219Y-83008669D01*
X210319597Y-82812000D01*
X211066224Y-82812000D01*
X211178331Y-82986219D01*
X211554944Y-83243548D01*
X212002000Y-83334079D01*
X213702000Y-83334079D01*
X214119641Y-83255494D01*
X214329921Y-83120183D01*
X214329921Y-83987000D01*
X214408506Y-84404641D01*
X214655331Y-84788219D01*
X214897941Y-84953987D01*
X214886090Y-84982600D01*
X215009776Y-85185000D01*
X216027000Y-85185000D01*
X216027000Y-85165000D01*
X216281000Y-85165000D01*
X216281000Y-85185000D01*
X217298224Y-85185000D01*
X217421910Y-84982600D01*
X217409520Y-84952685D01*
X217630219Y-84810669D01*
X217887548Y-84434056D01*
X217978079Y-83987000D01*
X217978079Y-82637000D01*
X217899494Y-82219359D01*
X217781000Y-82035214D01*
X217781000Y-81661005D01*
X217781001Y-81661000D01*
X217657152Y-81038374D01*
X217339099Y-80562374D01*
X217304463Y-80510537D01*
X217304460Y-80510535D01*
X216828463Y-80034537D01*
X216300626Y-79681848D01*
X215678000Y-79558000D01*
X214637776Y-79558000D01*
X214525669Y-79383781D01*
X214149056Y-79126452D01*
X213702000Y-79035921D01*
X212002000Y-79035921D01*
X211584359Y-79114506D01*
X211200781Y-79361331D01*
X211066403Y-79558000D01*
X210319776Y-79558000D01*
X210207669Y-79383781D01*
X209831056Y-79126452D01*
X209384000Y-79035921D01*
X207684000Y-79035921D01*
X207266359Y-79114506D01*
X206882781Y-79361331D01*
X206748403Y-79558000D01*
X206470005Y-79558000D01*
X206470000Y-79557999D01*
X205847374Y-79681848D01*
X205319537Y-80034537D01*
X205319535Y-80034540D01*
X203288074Y-82066000D01*
X189103000Y-82066000D01*
X188480374Y-82189848D01*
X187952537Y-82542537D01*
X187952535Y-82542540D01*
X181825074Y-88670000D01*
X175641000Y-88670000D01*
X175018374Y-88793848D01*
X174490537Y-89146537D01*
X173004637Y-90632437D01*
X172651948Y-91160274D01*
X172528100Y-91782900D01*
X169545000Y-91782900D01*
X169545000Y-67056000D01*
X226388394Y-67056000D01*
X236474000Y-77141606D01*
M02*
