G04 #@! TF.FileFunction,Legend,Bot*
%FSLAX46Y46*%
G04 Gerber Fmt 4.6, Leading zero omitted, Abs format (unit mm)*
G04 Created by KiCad (PCBNEW 4.0.6) date 2017 August 08, Tuesday 08:31:32*
%MOMM*%
%LPD*%
G01*
G04 APERTURE LIST*
%ADD10C,0.100000*%
%ADD11C,0.200000*%
%ADD12C,0.300000*%
%ADD13C,0.120000*%
%ADD14C,0.150000*%
G04 APERTURE END LIST*
D10*
X225242722Y-66669457D02*
X225147484Y-67002790D01*
X225052246Y-66764695D01*
X224957008Y-67002790D01*
X224861770Y-66669457D01*
X224671293Y-67002790D02*
X224671293Y-66502790D01*
X224457008Y-67002790D02*
X224457008Y-66740886D01*
X224480817Y-66693267D01*
X224528436Y-66669457D01*
X224599865Y-66669457D01*
X224647484Y-66693267D01*
X224671293Y-66717076D01*
X224004627Y-67002790D02*
X224004627Y-66740886D01*
X224028436Y-66693267D01*
X224076055Y-66669457D01*
X224171293Y-66669457D01*
X224218912Y-66693267D01*
X224004627Y-66978981D02*
X224052246Y-67002790D01*
X224171293Y-67002790D01*
X224218912Y-66978981D01*
X224242722Y-66931362D01*
X224242722Y-66883743D01*
X224218912Y-66836124D01*
X224171293Y-66812314D01*
X224052246Y-66812314D01*
X224004627Y-66788505D01*
X223837960Y-66669457D02*
X223647484Y-66669457D01*
X223766531Y-66502790D02*
X223766531Y-66931362D01*
X223742722Y-66978981D01*
X223695103Y-67002790D01*
X223647484Y-67002790D01*
X223457008Y-66502790D02*
X223504627Y-66598029D01*
X223266532Y-66978981D02*
X223218913Y-67002790D01*
X223123675Y-67002790D01*
X223076056Y-66978981D01*
X223052246Y-66931362D01*
X223052246Y-66907552D01*
X223076056Y-66859933D01*
X223123675Y-66836124D01*
X223195103Y-66836124D01*
X223242722Y-66812314D01*
X223266532Y-66764695D01*
X223266532Y-66740886D01*
X223242722Y-66693267D01*
X223195103Y-66669457D01*
X223123675Y-66669457D01*
X223076056Y-66693267D01*
X222457008Y-67002790D02*
X222457008Y-66669457D01*
X222457008Y-66717076D02*
X222433199Y-66693267D01*
X222385580Y-66669457D01*
X222314151Y-66669457D01*
X222266532Y-66693267D01*
X222242723Y-66740886D01*
X222242723Y-67002790D01*
X222242723Y-66740886D02*
X222218913Y-66693267D01*
X222171294Y-66669457D01*
X222099866Y-66669457D01*
X222052246Y-66693267D01*
X222028437Y-66740886D01*
X222028437Y-67002790D01*
X221837960Y-66669457D02*
X221718913Y-67002790D01*
X221599865Y-66669457D02*
X221718913Y-67002790D01*
X221766532Y-67121838D01*
X221790341Y-67145648D01*
X221837960Y-67169457D01*
X221028437Y-66669457D02*
X221028437Y-67169457D01*
X221028437Y-66693267D02*
X220980818Y-66669457D01*
X220885580Y-66669457D01*
X220837961Y-66693267D01*
X220814152Y-66717076D01*
X220790342Y-66764695D01*
X220790342Y-66907552D01*
X220814152Y-66955171D01*
X220837961Y-66978981D01*
X220885580Y-67002790D01*
X220980818Y-67002790D01*
X221028437Y-66978981D01*
X220361771Y-66669457D02*
X220361771Y-67002790D01*
X220576056Y-66669457D02*
X220576056Y-66931362D01*
X220552247Y-66978981D01*
X220504628Y-67002790D01*
X220433199Y-67002790D01*
X220385580Y-66978981D01*
X220361771Y-66955171D01*
X220123675Y-67002790D02*
X220123675Y-66669457D01*
X220123675Y-66764695D02*
X220099866Y-66717076D01*
X220076056Y-66693267D01*
X220028437Y-66669457D01*
X219980818Y-66669457D01*
X219814151Y-66669457D02*
X219814151Y-67169457D01*
X219814151Y-66693267D02*
X219766532Y-66669457D01*
X219671294Y-66669457D01*
X219623675Y-66693267D01*
X219599866Y-66717076D01*
X219576056Y-66764695D01*
X219576056Y-66907552D01*
X219599866Y-66955171D01*
X219623675Y-66978981D01*
X219671294Y-67002790D01*
X219766532Y-67002790D01*
X219814151Y-66978981D01*
X219290342Y-67002790D02*
X219337961Y-66978981D01*
X219361770Y-66955171D01*
X219385580Y-66907552D01*
X219385580Y-66764695D01*
X219361770Y-66717076D01*
X219337961Y-66693267D01*
X219290342Y-66669457D01*
X219218913Y-66669457D01*
X219171294Y-66693267D01*
X219147485Y-66717076D01*
X219123675Y-66764695D01*
X219123675Y-66907552D01*
X219147485Y-66955171D01*
X219171294Y-66978981D01*
X219218913Y-67002790D01*
X219290342Y-67002790D01*
X218933199Y-66978981D02*
X218885580Y-67002790D01*
X218790342Y-67002790D01*
X218742723Y-66978981D01*
X218718913Y-66931362D01*
X218718913Y-66907552D01*
X218742723Y-66859933D01*
X218790342Y-66836124D01*
X218861770Y-66836124D01*
X218909389Y-66812314D01*
X218933199Y-66764695D01*
X218933199Y-66740886D01*
X218909389Y-66693267D01*
X218861770Y-66669457D01*
X218790342Y-66669457D01*
X218742723Y-66693267D01*
X218314151Y-66978981D02*
X218361770Y-67002790D01*
X218457008Y-67002790D01*
X218504627Y-66978981D01*
X218528437Y-66931362D01*
X218528437Y-66740886D01*
X218504627Y-66693267D01*
X218457008Y-66669457D01*
X218361770Y-66669457D01*
X218314151Y-66693267D01*
X218290342Y-66740886D01*
X218290342Y-66788505D01*
X218528437Y-66836124D01*
X218076056Y-66955171D02*
X218052247Y-66978981D01*
X218076056Y-67002790D01*
X218099866Y-66978981D01*
X218076056Y-66955171D01*
X218076056Y-67002790D01*
X217837961Y-66955171D02*
X217814152Y-66978981D01*
X217837961Y-67002790D01*
X217861771Y-66978981D01*
X217837961Y-66955171D01*
X217837961Y-67002790D01*
X217599866Y-66955171D02*
X217576057Y-66978981D01*
X217599866Y-67002790D01*
X217623676Y-66978981D01*
X217599866Y-66955171D01*
X217599866Y-67002790D01*
X217290343Y-66955171D02*
X217266533Y-66978981D01*
X217290343Y-67002790D01*
X217314152Y-66978981D01*
X217290343Y-66955171D01*
X217290343Y-67002790D01*
X217385581Y-66526600D02*
X217337962Y-66502790D01*
X217218914Y-66502790D01*
X217171295Y-66526600D01*
X217147486Y-66574219D01*
X217147486Y-66621838D01*
X217171295Y-66669457D01*
X217195105Y-66693267D01*
X217242724Y-66717076D01*
X217266533Y-66740886D01*
X217290343Y-66788505D01*
X217290343Y-66812314D01*
D11*
X173596156Y-100533200D02*
G75*
G03X173596156Y-100533200I-5041756J0D01*
G01*
D12*
X170973428Y-98252286D02*
X170973428Y-98966571D01*
X171473428Y-97466571D02*
X170973428Y-98252286D01*
X170473428Y-97466571D01*
X169973428Y-97966571D02*
X169973428Y-98966571D01*
X169973428Y-98109429D02*
X169902000Y-98038000D01*
X169759142Y-97966571D01*
X169544857Y-97966571D01*
X169402000Y-98038000D01*
X169330571Y-98180857D01*
X169330571Y-98966571D01*
X167973428Y-97966571D02*
X167973428Y-99180857D01*
X168044857Y-99323714D01*
X168116285Y-99395143D01*
X168259142Y-99466571D01*
X168473428Y-99466571D01*
X168616285Y-99395143D01*
X167973428Y-98895143D02*
X168116285Y-98966571D01*
X168401999Y-98966571D01*
X168544857Y-98895143D01*
X168616285Y-98823714D01*
X168687714Y-98680857D01*
X168687714Y-98252286D01*
X168616285Y-98109429D01*
X168544857Y-98038000D01*
X168401999Y-97966571D01*
X168116285Y-97966571D01*
X167973428Y-98038000D01*
X167401999Y-97966571D02*
X167044856Y-98966571D01*
X166687714Y-97966571D01*
X165544857Y-98895143D02*
X165687714Y-98966571D01*
X165973428Y-98966571D01*
X166116285Y-98895143D01*
X166187714Y-98752286D01*
X166187714Y-98180857D01*
X166116285Y-98038000D01*
X165973428Y-97966571D01*
X165687714Y-97966571D01*
X165544857Y-98038000D01*
X165473428Y-98180857D01*
X165473428Y-98323714D01*
X166187714Y-98466571D01*
X170259143Y-100516571D02*
X169973429Y-101516571D01*
X169687715Y-100802286D01*
X169402000Y-101516571D01*
X169116286Y-100516571D01*
X167902000Y-101516571D02*
X167902000Y-100730857D01*
X167973429Y-100588000D01*
X168116286Y-100516571D01*
X168402000Y-100516571D01*
X168544857Y-100588000D01*
X167902000Y-101445143D02*
X168044857Y-101516571D01*
X168402000Y-101516571D01*
X168544857Y-101445143D01*
X168616286Y-101302286D01*
X168616286Y-101159429D01*
X168544857Y-101016571D01*
X168402000Y-100945143D01*
X168044857Y-100945143D01*
X167902000Y-100873714D01*
X167259143Y-101445143D02*
X167116286Y-101516571D01*
X166830571Y-101516571D01*
X166687714Y-101445143D01*
X166616286Y-101302286D01*
X166616286Y-101230857D01*
X166687714Y-101088000D01*
X166830571Y-101016571D01*
X167044857Y-101016571D01*
X167187714Y-100945143D01*
X167259143Y-100802286D01*
X167259143Y-100730857D01*
X167187714Y-100588000D01*
X167044857Y-100516571D01*
X166830571Y-100516571D01*
X166687714Y-100588000D01*
X170473428Y-104066571D02*
X170473428Y-102566571D01*
X169830571Y-104066571D02*
X169830571Y-103280857D01*
X169902000Y-103138000D01*
X170044857Y-103066571D01*
X170259142Y-103066571D01*
X170402000Y-103138000D01*
X170473428Y-103209429D01*
X168544857Y-103995143D02*
X168687714Y-104066571D01*
X168973428Y-104066571D01*
X169116285Y-103995143D01*
X169187714Y-103852286D01*
X169187714Y-103280857D01*
X169116285Y-103138000D01*
X168973428Y-103066571D01*
X168687714Y-103066571D01*
X168544857Y-103138000D01*
X168473428Y-103280857D01*
X168473428Y-103423714D01*
X169187714Y-103566571D01*
X167830571Y-104066571D02*
X167830571Y-103066571D01*
X167830571Y-103352286D02*
X167759143Y-103209429D01*
X167687714Y-103138000D01*
X167544857Y-103066571D01*
X167402000Y-103066571D01*
X166330572Y-103995143D02*
X166473429Y-104066571D01*
X166759143Y-104066571D01*
X166902000Y-103995143D01*
X166973429Y-103852286D01*
X166973429Y-103280857D01*
X166902000Y-103138000D01*
X166759143Y-103066571D01*
X166473429Y-103066571D01*
X166330572Y-103138000D01*
X166259143Y-103280857D01*
X166259143Y-103423714D01*
X166973429Y-103566571D01*
X98737950Y-70750695D02*
X97677289Y-69690035D01*
X97424751Y-69942573D01*
X97323737Y-70144603D01*
X97323736Y-70346634D01*
X97374244Y-70498157D01*
X97525767Y-70750696D01*
X97677289Y-70902218D01*
X97929828Y-71053741D01*
X98081351Y-71104249D01*
X98283382Y-71104248D01*
X98485411Y-71003233D01*
X98737950Y-70750695D01*
X97222721Y-72265924D02*
X96667137Y-71710340D01*
X96616630Y-71558817D01*
X96667137Y-71407294D01*
X96869167Y-71205263D01*
X97020690Y-71154756D01*
X97172214Y-72215416D02*
X97323736Y-72164908D01*
X97576274Y-71912370D01*
X97626782Y-71760848D01*
X97576275Y-71609325D01*
X97475260Y-71508310D01*
X97323736Y-71457802D01*
X97172214Y-71508310D01*
X96919675Y-71760848D01*
X96768152Y-71811355D01*
X96010538Y-72063893D02*
X96717644Y-72771000D01*
X96111553Y-72164909D02*
X96010538Y-72164908D01*
X95859014Y-72215416D01*
X95707492Y-72366939D01*
X95656985Y-72518462D01*
X95707492Y-72669985D01*
X96263076Y-73225569D01*
X94596324Y-73478107D02*
X95454954Y-74336737D01*
X95606477Y-74387244D01*
X95707492Y-74387245D01*
X95859014Y-74336737D01*
X96010538Y-74185214D01*
X96061045Y-74033691D01*
X95252924Y-74134706D02*
X95404446Y-74084198D01*
X95606476Y-73882168D01*
X95656985Y-73730645D01*
X95656984Y-73629630D01*
X95606477Y-73478107D01*
X95303431Y-73175061D01*
X95151908Y-73124554D01*
X95050893Y-73124553D01*
X94899369Y-73175061D01*
X94697339Y-73377092D01*
X94646832Y-73528615D01*
X94343786Y-75043843D02*
X94495309Y-74993335D01*
X94697339Y-74791305D01*
X94747847Y-74639783D01*
X94697340Y-74488260D01*
X94293279Y-74084198D01*
X94141755Y-74033691D01*
X93990232Y-74084198D01*
X93788202Y-74286229D01*
X93737695Y-74437752D01*
X93788202Y-74589275D01*
X93889217Y-74690290D01*
X94495309Y-74286229D01*
X93889217Y-75599427D02*
X93182110Y-74892320D01*
X93384141Y-75094351D02*
X93232619Y-75043843D01*
X93131603Y-75043843D01*
X92980080Y-75094351D01*
X92879065Y-75195366D01*
X98032305Y-130995950D02*
X99092965Y-129935289D01*
X98840427Y-129682751D01*
X98638397Y-129581737D01*
X98436366Y-129581736D01*
X98284843Y-129632244D01*
X98032304Y-129783767D01*
X97880782Y-129935289D01*
X97729259Y-130187828D01*
X97678751Y-130339351D01*
X97678752Y-130541382D01*
X97779767Y-130743411D01*
X98032305Y-130995950D01*
X96517076Y-129480721D02*
X97072660Y-128925137D01*
X97224183Y-128874630D01*
X97375706Y-128925137D01*
X97577737Y-129127167D01*
X97628244Y-129278690D01*
X96567584Y-129430214D02*
X96618092Y-129581736D01*
X96870630Y-129834274D01*
X97022152Y-129884782D01*
X97173675Y-129834275D01*
X97274690Y-129733260D01*
X97325198Y-129581736D01*
X97274690Y-129430214D01*
X97022152Y-129177675D01*
X96971645Y-129026152D01*
X96719107Y-128268538D02*
X96012000Y-128975644D01*
X96618091Y-128369553D02*
X96618092Y-128268538D01*
X96567584Y-128117014D01*
X96416061Y-127965492D01*
X96264538Y-127914985D01*
X96113015Y-127965492D01*
X95557431Y-128521076D01*
X95304893Y-126854324D02*
X94446263Y-127712954D01*
X94395756Y-127864477D01*
X94395755Y-127965492D01*
X94446263Y-128117014D01*
X94597786Y-128268538D01*
X94749309Y-128319045D01*
X94648294Y-127510924D02*
X94698802Y-127662446D01*
X94900832Y-127864476D01*
X95052355Y-127914985D01*
X95153370Y-127914984D01*
X95304893Y-127864477D01*
X95607939Y-127561431D01*
X95658446Y-127409908D01*
X95658447Y-127308893D01*
X95607939Y-127157369D01*
X95405908Y-126955339D01*
X95254385Y-126904832D01*
X93739157Y-126601786D02*
X93789665Y-126753309D01*
X93991695Y-126955339D01*
X94143217Y-127005847D01*
X94294740Y-126955340D01*
X94698802Y-126551279D01*
X94749309Y-126399755D01*
X94698802Y-126248232D01*
X94496771Y-126046202D01*
X94345248Y-125995695D01*
X94193725Y-126046202D01*
X94092710Y-126147217D01*
X94496771Y-126753309D01*
X93183573Y-126147217D02*
X93890680Y-125440110D01*
X93688649Y-125642141D02*
X93739157Y-125490619D01*
X93739157Y-125389603D01*
X93688649Y-125238080D01*
X93587634Y-125137065D01*
X166200350Y-128053095D02*
X165139689Y-126992435D01*
X164887151Y-127244973D01*
X164786137Y-127447003D01*
X164786136Y-127649034D01*
X164836644Y-127800557D01*
X164988167Y-128053096D01*
X165139689Y-128204618D01*
X165392228Y-128356141D01*
X165543751Y-128406649D01*
X165745782Y-128406648D01*
X165947811Y-128305633D01*
X166200350Y-128053095D01*
X164685121Y-129568324D02*
X164129537Y-129012740D01*
X164079030Y-128861217D01*
X164129537Y-128709694D01*
X164331567Y-128507663D01*
X164483090Y-128457156D01*
X164634614Y-129517816D02*
X164786136Y-129467308D01*
X165038674Y-129214770D01*
X165089182Y-129063248D01*
X165038675Y-128911725D01*
X164937660Y-128810710D01*
X164786136Y-128760202D01*
X164634614Y-128810710D01*
X164382075Y-129063248D01*
X164230552Y-129113755D01*
X163472938Y-129366293D02*
X164180044Y-130073400D01*
X163573953Y-129467309D02*
X163472938Y-129467308D01*
X163321414Y-129517816D01*
X163169892Y-129669339D01*
X163119385Y-129820862D01*
X163169892Y-129972385D01*
X163725476Y-130527969D01*
X162058724Y-130780507D02*
X162917354Y-131639137D01*
X163068877Y-131689644D01*
X163169892Y-131689645D01*
X163321414Y-131639137D01*
X163472938Y-131487614D01*
X163523445Y-131336091D01*
X162715324Y-131437106D02*
X162866846Y-131386598D01*
X163068876Y-131184568D01*
X163119385Y-131033045D01*
X163119384Y-130932030D01*
X163068877Y-130780507D01*
X162765831Y-130477461D01*
X162614308Y-130426954D01*
X162513293Y-130426953D01*
X162361769Y-130477461D01*
X162159739Y-130679492D01*
X162109232Y-130831015D01*
X161806186Y-132346243D02*
X161957709Y-132295735D01*
X162159739Y-132093705D01*
X162210247Y-131942183D01*
X162159740Y-131790660D01*
X161755679Y-131386598D01*
X161604155Y-131336091D01*
X161452632Y-131386598D01*
X161250602Y-131588629D01*
X161200095Y-131740152D01*
X161250602Y-131891675D01*
X161351617Y-131992690D01*
X161957709Y-131588629D01*
X161351617Y-132901827D02*
X160644510Y-132194720D01*
X160846541Y-132396751D02*
X160695019Y-132346243D01*
X160594003Y-132346243D01*
X160442480Y-132396751D01*
X160341465Y-132497766D01*
X136407656Y-101262571D02*
X136407656Y-99762571D01*
X135836228Y-99762571D01*
X135693370Y-99834000D01*
X135621942Y-99905429D01*
X135550513Y-100048286D01*
X135550513Y-100262571D01*
X135621942Y-100405429D01*
X135693370Y-100476857D01*
X135836228Y-100548286D01*
X136407656Y-100548286D01*
X134907656Y-101262571D02*
X134907656Y-100262571D01*
X134907656Y-100548286D02*
X134836228Y-100405429D01*
X134764799Y-100334000D01*
X134621942Y-100262571D01*
X134479085Y-100262571D01*
X133979085Y-101262571D02*
X133979085Y-100262571D01*
X133979085Y-99762571D02*
X134050514Y-99834000D01*
X133979085Y-99905429D01*
X133907657Y-99834000D01*
X133979085Y-99762571D01*
X133979085Y-99905429D01*
X133264799Y-101262571D02*
X133264799Y-100262571D01*
X133264799Y-100405429D02*
X133193371Y-100334000D01*
X133050513Y-100262571D01*
X132836228Y-100262571D01*
X132693371Y-100334000D01*
X132621942Y-100476857D01*
X132621942Y-101262571D01*
X132621942Y-100476857D02*
X132550513Y-100334000D01*
X132407656Y-100262571D01*
X132193371Y-100262571D01*
X132050513Y-100334000D01*
X131979085Y-100476857D01*
X131979085Y-101262571D01*
X130621942Y-101262571D02*
X130621942Y-100476857D01*
X130693371Y-100334000D01*
X130836228Y-100262571D01*
X131121942Y-100262571D01*
X131264799Y-100334000D01*
X130621942Y-101191143D02*
X130764799Y-101262571D01*
X131121942Y-101262571D01*
X131264799Y-101191143D01*
X131336228Y-101048286D01*
X131336228Y-100905429D01*
X131264799Y-100762571D01*
X131121942Y-100691143D01*
X130764799Y-100691143D01*
X130621942Y-100619714D01*
X129907656Y-101262571D02*
X129907656Y-100262571D01*
X129907656Y-100548286D02*
X129836228Y-100405429D01*
X129764799Y-100334000D01*
X129621942Y-100262571D01*
X129479085Y-100262571D01*
X129121942Y-100262571D02*
X128764799Y-101262571D01*
X128407657Y-100262571D02*
X128764799Y-101262571D01*
X128907657Y-101619714D01*
X128979085Y-101691143D01*
X129121942Y-101762571D01*
X126907657Y-99762571D02*
X126407657Y-101262571D01*
X125907657Y-99762571D01*
X125193371Y-101262571D02*
X125336229Y-101191143D01*
X125407657Y-101119714D01*
X125479086Y-100976857D01*
X125479086Y-100548286D01*
X125407657Y-100405429D01*
X125336229Y-100334000D01*
X125193371Y-100262571D01*
X124979086Y-100262571D01*
X124836229Y-100334000D01*
X124764800Y-100405429D01*
X124693371Y-100548286D01*
X124693371Y-100976857D01*
X124764800Y-101119714D01*
X124836229Y-101191143D01*
X124979086Y-101262571D01*
X125193371Y-101262571D01*
X123836228Y-101262571D02*
X123979086Y-101191143D01*
X124050514Y-101048286D01*
X124050514Y-99762571D01*
X123479086Y-100262571D02*
X122907657Y-100262571D01*
X123264800Y-99762571D02*
X123264800Y-101048286D01*
X123193372Y-101191143D01*
X123050514Y-101262571D01*
X122907657Y-101262571D01*
X121764800Y-101262571D02*
X121764800Y-100476857D01*
X121836229Y-100334000D01*
X121979086Y-100262571D01*
X122264800Y-100262571D01*
X122407657Y-100334000D01*
X121764800Y-101191143D02*
X121907657Y-101262571D01*
X122264800Y-101262571D01*
X122407657Y-101191143D01*
X122479086Y-101048286D01*
X122479086Y-100905429D01*
X122407657Y-100762571D01*
X122264800Y-100691143D01*
X121907657Y-100691143D01*
X121764800Y-100619714D01*
X120407657Y-100262571D02*
X120407657Y-101476857D01*
X120479086Y-101619714D01*
X120550514Y-101691143D01*
X120693371Y-101762571D01*
X120907657Y-101762571D01*
X121050514Y-101691143D01*
X120407657Y-101191143D02*
X120550514Y-101262571D01*
X120836228Y-101262571D01*
X120979086Y-101191143D01*
X121050514Y-101119714D01*
X121121943Y-100976857D01*
X121121943Y-100548286D01*
X121050514Y-100405429D01*
X120979086Y-100334000D01*
X120836228Y-100262571D01*
X120550514Y-100262571D01*
X120407657Y-100334000D01*
X119121943Y-101191143D02*
X119264800Y-101262571D01*
X119550514Y-101262571D01*
X119693371Y-101191143D01*
X119764800Y-101048286D01*
X119764800Y-100476857D01*
X119693371Y-100334000D01*
X119550514Y-100262571D01*
X119264800Y-100262571D01*
X119121943Y-100334000D01*
X119050514Y-100476857D01*
X119050514Y-100619714D01*
X119764800Y-100762571D01*
X117336229Y-100834000D02*
X116621943Y-100834000D01*
X117479086Y-101262571D02*
X116979086Y-99762571D01*
X116479086Y-101262571D01*
X115979086Y-101262571D02*
X115979086Y-100262571D01*
X115979086Y-100548286D02*
X115907658Y-100405429D01*
X115836229Y-100334000D01*
X115693372Y-100262571D01*
X115550515Y-100262571D01*
X114479087Y-101191143D02*
X114621944Y-101262571D01*
X114907658Y-101262571D01*
X115050515Y-101191143D01*
X115121944Y-101048286D01*
X115121944Y-100476857D01*
X115050515Y-100334000D01*
X114907658Y-100262571D01*
X114621944Y-100262571D01*
X114479087Y-100334000D01*
X114407658Y-100476857D01*
X114407658Y-100619714D01*
X115121944Y-100762571D01*
X113121944Y-101262571D02*
X113121944Y-100476857D01*
X113193373Y-100334000D01*
X113336230Y-100262571D01*
X113621944Y-100262571D01*
X113764801Y-100334000D01*
X113121944Y-101191143D02*
X113264801Y-101262571D01*
X113621944Y-101262571D01*
X113764801Y-101191143D01*
X113836230Y-101048286D01*
X113836230Y-100905429D01*
X113764801Y-100762571D01*
X113621944Y-100691143D01*
X113264801Y-100691143D01*
X113121944Y-100619714D01*
X165520105Y-73566550D02*
X166580765Y-72505889D01*
X166328227Y-72253351D01*
X166126197Y-72152337D01*
X165924166Y-72152336D01*
X165772643Y-72202844D01*
X165520104Y-72354367D01*
X165368582Y-72505889D01*
X165217059Y-72758428D01*
X165166551Y-72909951D01*
X165166552Y-73111982D01*
X165267567Y-73314011D01*
X165520105Y-73566550D01*
X164004876Y-72051321D02*
X164560460Y-71495737D01*
X164711983Y-71445230D01*
X164863506Y-71495737D01*
X165065537Y-71697767D01*
X165116044Y-71849290D01*
X164055384Y-72000814D02*
X164105892Y-72152336D01*
X164358430Y-72404874D01*
X164509952Y-72455382D01*
X164661475Y-72404875D01*
X164762490Y-72303860D01*
X164812998Y-72152336D01*
X164762490Y-72000814D01*
X164509952Y-71748275D01*
X164459445Y-71596752D01*
X164206907Y-70839138D02*
X163499800Y-71546244D01*
X164105891Y-70940153D02*
X164105892Y-70839138D01*
X164055384Y-70687614D01*
X163903861Y-70536092D01*
X163752338Y-70485585D01*
X163600815Y-70536092D01*
X163045231Y-71091676D01*
X162792693Y-69424924D02*
X161934063Y-70283554D01*
X161883556Y-70435077D01*
X161883555Y-70536092D01*
X161934063Y-70687614D01*
X162085586Y-70839138D01*
X162237109Y-70889645D01*
X162136094Y-70081524D02*
X162186602Y-70233046D01*
X162388632Y-70435076D01*
X162540155Y-70485585D01*
X162641170Y-70485584D01*
X162792693Y-70435077D01*
X163095739Y-70132031D01*
X163146246Y-69980508D01*
X163146247Y-69879493D01*
X163095739Y-69727969D01*
X162893708Y-69525939D01*
X162742185Y-69475432D01*
X161226957Y-69172386D02*
X161277465Y-69323909D01*
X161479495Y-69525939D01*
X161631017Y-69576447D01*
X161782540Y-69525940D01*
X162186602Y-69121879D01*
X162237109Y-68970355D01*
X162186602Y-68818832D01*
X161984571Y-68616802D01*
X161833048Y-68566295D01*
X161681525Y-68616802D01*
X161580510Y-68717817D01*
X161984571Y-69323909D01*
X160671373Y-68717817D02*
X161378480Y-68010710D01*
X161176449Y-68212741D02*
X161226957Y-68061219D01*
X161226957Y-67960203D01*
X161176449Y-67808680D01*
X161075434Y-67707665D01*
D11*
X167000000Y-134000000D02*
X167000000Y-67000000D01*
X167000000Y-67000000D02*
X100000000Y-67000000D01*
X100000000Y-67000000D02*
X90000000Y-76000000D01*
X90000000Y-76000000D02*
X90000000Y-125000000D01*
X90000000Y-125000000D02*
X100000000Y-134000000D01*
X100000000Y-134000000D02*
X167000000Y-134000000D01*
D13*
X204581000Y-109224000D02*
X202581000Y-109224000D01*
X202581000Y-107184000D02*
X204581000Y-107184000D01*
X212074000Y-109224000D02*
X210074000Y-109224000D01*
X210074000Y-107184000D02*
X212074000Y-107184000D01*
X204847000Y-100402900D02*
X204847000Y-98402900D01*
X206887000Y-98402900D02*
X206887000Y-100402900D01*
X207464000Y-82185000D02*
X207464000Y-84185000D01*
X209604000Y-84185000D02*
X209604000Y-82185000D01*
X184731000Y-103775000D02*
X184731000Y-105775000D01*
X186871000Y-105775000D02*
X186871000Y-103775000D01*
X205216000Y-88592000D02*
X203216000Y-88592000D01*
X203216000Y-90732000D02*
X205216000Y-90732000D01*
X211782000Y-82185000D02*
X211782000Y-84185000D01*
X213922000Y-84185000D02*
X213922000Y-82185000D01*
D14*
X203747666Y-110311143D02*
X203795285Y-110358762D01*
X203938142Y-110406381D01*
X204033380Y-110406381D01*
X204176238Y-110358762D01*
X204271476Y-110263524D01*
X204319095Y-110168286D01*
X204366714Y-109977810D01*
X204366714Y-109834952D01*
X204319095Y-109644476D01*
X204271476Y-109549238D01*
X204176238Y-109454000D01*
X204033380Y-109406381D01*
X203938142Y-109406381D01*
X203795285Y-109454000D01*
X203747666Y-109501619D01*
X202795285Y-110406381D02*
X203366714Y-110406381D01*
X203081000Y-110406381D02*
X203081000Y-109406381D01*
X203176238Y-109549238D01*
X203271476Y-109644476D01*
X203366714Y-109692095D01*
X211240666Y-110311143D02*
X211288285Y-110358762D01*
X211431142Y-110406381D01*
X211526380Y-110406381D01*
X211669238Y-110358762D01*
X211764476Y-110263524D01*
X211812095Y-110168286D01*
X211859714Y-109977810D01*
X211859714Y-109834952D01*
X211812095Y-109644476D01*
X211764476Y-109549238D01*
X211669238Y-109454000D01*
X211526380Y-109406381D01*
X211431142Y-109406381D01*
X211288285Y-109454000D01*
X211240666Y-109501619D01*
X210859714Y-109501619D02*
X210812095Y-109454000D01*
X210716857Y-109406381D01*
X210478761Y-109406381D01*
X210383523Y-109454000D01*
X210335904Y-109501619D01*
X210288285Y-109596857D01*
X210288285Y-109692095D01*
X210335904Y-109834952D01*
X210907333Y-110406381D01*
X210288285Y-110406381D01*
X204474143Y-99236234D02*
X204521762Y-99188615D01*
X204569381Y-99045758D01*
X204569381Y-98950520D01*
X204521762Y-98807662D01*
X204426524Y-98712424D01*
X204331286Y-98664805D01*
X204140810Y-98617186D01*
X203997952Y-98617186D01*
X203807476Y-98664805D01*
X203712238Y-98712424D01*
X203617000Y-98807662D01*
X203569381Y-98950520D01*
X203569381Y-99045758D01*
X203617000Y-99188615D01*
X203664619Y-99236234D01*
X203569381Y-100140996D02*
X203569381Y-99664805D01*
X204045571Y-99617186D01*
X203997952Y-99664805D01*
X203950333Y-99760043D01*
X203950333Y-99998139D01*
X203997952Y-100093377D01*
X204045571Y-100140996D01*
X204140810Y-100188615D01*
X204378905Y-100188615D01*
X204474143Y-100140996D01*
X204521762Y-100093377D01*
X204569381Y-99998139D01*
X204569381Y-99760043D01*
X204521762Y-99664805D01*
X204474143Y-99617186D01*
X210836381Y-83018334D02*
X210360190Y-82685000D01*
X210836381Y-82446905D02*
X209836381Y-82446905D01*
X209836381Y-82827858D01*
X209884000Y-82923096D01*
X209931619Y-82970715D01*
X210026857Y-83018334D01*
X210169714Y-83018334D01*
X210264952Y-82970715D01*
X210312571Y-82923096D01*
X210360190Y-82827858D01*
X210360190Y-82446905D01*
X209836381Y-83351667D02*
X209836381Y-84018334D01*
X210836381Y-83589762D01*
X188103381Y-104608334D02*
X187627190Y-104275000D01*
X188103381Y-104036905D02*
X187103381Y-104036905D01*
X187103381Y-104417858D01*
X187151000Y-104513096D01*
X187198619Y-104560715D01*
X187293857Y-104608334D01*
X187436714Y-104608334D01*
X187531952Y-104560715D01*
X187579571Y-104513096D01*
X187627190Y-104417858D01*
X187627190Y-104036905D01*
X187531952Y-105179762D02*
X187484333Y-105084524D01*
X187436714Y-105036905D01*
X187341476Y-104989286D01*
X187293857Y-104989286D01*
X187198619Y-105036905D01*
X187151000Y-105084524D01*
X187103381Y-105179762D01*
X187103381Y-105370239D01*
X187151000Y-105465477D01*
X187198619Y-105513096D01*
X187293857Y-105560715D01*
X187341476Y-105560715D01*
X187436714Y-105513096D01*
X187484333Y-105465477D01*
X187531952Y-105370239D01*
X187531952Y-105179762D01*
X187579571Y-105084524D01*
X187627190Y-105036905D01*
X187722429Y-104989286D01*
X187912905Y-104989286D01*
X188008143Y-105036905D01*
X188055762Y-105084524D01*
X188103381Y-105179762D01*
X188103381Y-105370239D01*
X188055762Y-105465477D01*
X188008143Y-105513096D01*
X187912905Y-105560715D01*
X187722429Y-105560715D01*
X187627190Y-105513096D01*
X187579571Y-105465477D01*
X187531952Y-105370239D01*
X204382666Y-91964381D02*
X204716000Y-91488190D01*
X204954095Y-91964381D02*
X204954095Y-90964381D01*
X204573142Y-90964381D01*
X204477904Y-91012000D01*
X204430285Y-91059619D01*
X204382666Y-91154857D01*
X204382666Y-91297714D01*
X204430285Y-91392952D01*
X204477904Y-91440571D01*
X204573142Y-91488190D01*
X204954095Y-91488190D01*
X203906476Y-91964381D02*
X203716000Y-91964381D01*
X203620761Y-91916762D01*
X203573142Y-91869143D01*
X203477904Y-91726286D01*
X203430285Y-91535810D01*
X203430285Y-91154857D01*
X203477904Y-91059619D01*
X203525523Y-91012000D01*
X203620761Y-90964381D01*
X203811238Y-90964381D01*
X203906476Y-91012000D01*
X203954095Y-91059619D01*
X204001714Y-91154857D01*
X204001714Y-91392952D01*
X203954095Y-91488190D01*
X203906476Y-91535810D01*
X203811238Y-91583429D01*
X203620761Y-91583429D01*
X203525523Y-91535810D01*
X203477904Y-91488190D01*
X203430285Y-91392952D01*
X215154381Y-82542143D02*
X214678190Y-82208809D01*
X215154381Y-81970714D02*
X214154381Y-81970714D01*
X214154381Y-82351667D01*
X214202000Y-82446905D01*
X214249619Y-82494524D01*
X214344857Y-82542143D01*
X214487714Y-82542143D01*
X214582952Y-82494524D01*
X214630571Y-82446905D01*
X214678190Y-82351667D01*
X214678190Y-81970714D01*
X215154381Y-83494524D02*
X215154381Y-82923095D01*
X215154381Y-83208809D02*
X214154381Y-83208809D01*
X214297238Y-83113571D01*
X214392476Y-83018333D01*
X214440095Y-82923095D01*
X214154381Y-84113571D02*
X214154381Y-84208810D01*
X214202000Y-84304048D01*
X214249619Y-84351667D01*
X214344857Y-84399286D01*
X214535333Y-84446905D01*
X214773429Y-84446905D01*
X214963905Y-84399286D01*
X215059143Y-84351667D01*
X215106762Y-84304048D01*
X215154381Y-84208810D01*
X215154381Y-84113571D01*
X215106762Y-84018333D01*
X215059143Y-83970714D01*
X214963905Y-83923095D01*
X214773429Y-83875476D01*
X214535333Y-83875476D01*
X214344857Y-83923095D01*
X214249619Y-83970714D01*
X214202000Y-84018333D01*
X214154381Y-84113571D01*
M02*
