M48
;DRILL file {KiCad 4.0.6} date 2017 August 08, Tuesday 09:09:21
;FORMAT={-:-/ absolute / inch / decimal}
FMAT,2
INCH,TZ
T1C0.031
T2C0.035
T3C0.039
T4C0.047
T5C0.055
T6C0.059
T7C0.169
%
G90
G05
M72
T1
X7.935Y-4.455
X7.97Y-3.72
X7.97Y-3.82
X7.97Y-3.92
X7.97Y-4.02
X8.0334Y-4.455
X8.23Y-4.455
X8.27Y-3.72
X8.27Y-3.82
X8.27Y-3.92
X8.27Y-4.02
X8.3284Y-4.455
X8.51Y-3.28
X8.51Y-3.3587
T2
X7.479Y-3.6201
X7.479Y-3.817
X7.479Y-4.0361
X7.479Y-4.233
X7.6759Y-3.7186
X7.6759Y-4.1346
T3
X6.2Y-3.66
X6.2Y-4.26
T4
X4.33Y-4.25
X4.33Y-5.1319
X4.3307Y-2.7711
X4.3307Y-3.653
X4.9213Y-2.77
X4.9213Y-3.6519
X4.9213Y-4.2481
X4.9213Y-5.13
X5.5118Y-2.7681
X5.5118Y-3.65
X5.5118Y-4.25
X5.5118Y-5.1319
X7.Y-3.66
X7.Y-3.96
X7.Y-4.26
T5
X7.94Y-4.954
X8.1369Y-4.954
X8.3337Y-4.954
X8.964Y-3.7371
X8.964Y-3.934
T6
X3.68Y-3.8
X3.68Y-4.0953
T7
X3.937Y-2.9921
X3.937Y-4.9606
X9.0551Y-2.9528
X9.0551Y-4.9606
T0
M30
