G04 #@! TF.FileFunction,Soldermask,Bot*
%FSLAX46Y46*%
G04 Gerber Fmt 4.6, Leading zero omitted, Abs format (unit mm)*
G04 Created by KiCad (PCBNEW 4.0.6) date 2017 August 07, Monday 18:16:46*
%MOMM*%
%LPD*%
G01*
G04 APERTURE LIST*
%ADD10C,0.100000*%
%ADD11C,9.100000*%
%ADD12C,3.100000*%
%ADD13R,1.700000X1.700000*%
%ADD14C,2.200000*%
%ADD15C,2.400000*%
%ADD16O,2.400000X2.400000*%
%ADD17C,15.000000*%
%ADD18R,2.100000X3.600000*%
%ADD19O,2.100000X3.600000*%
%ADD20R,3.600000X2.100000*%
%ADD21O,3.600000X2.100000*%
%ADD22C,2.100000*%
G04 APERTURE END LIST*
D10*
D11*
X175000000Y-100000000D03*
D12*
X156900000Y-80900000D03*
D13*
X136956800Y-73456800D03*
X136956800Y-103301800D03*
X213029800Y-73583800D03*
D14*
X148082000Y-130556000D03*
X148082000Y-115556000D03*
X148082000Y-112014000D03*
X148082000Y-97014000D03*
X148082000Y-92710000D03*
X148082000Y-77710000D03*
D15*
X222377000Y-91567000D03*
D16*
X222377000Y-106807000D03*
D15*
X124587000Y-106299000D03*
D16*
X124587000Y-91059000D03*
D15*
X143256000Y-71247000D03*
D16*
X128016000Y-71247000D03*
D17*
X213000000Y-115750000D03*
X213000000Y-84250000D03*
X137000000Y-84250000D03*
X137000000Y-115750000D03*
D18*
X166624000Y-69215000D03*
D19*
X161624000Y-69215000D03*
X156624000Y-69215000D03*
D18*
X156565600Y-130937000D03*
D19*
X161565600Y-130937000D03*
X166565600Y-130937000D03*
D18*
X184658000Y-69215000D03*
D19*
X179658000Y-69215000D03*
X174658000Y-69215000D03*
D18*
X174701200Y-130937000D03*
D19*
X179701200Y-130937000D03*
X184701200Y-130937000D03*
D18*
X202692000Y-69215000D03*
D19*
X197692000Y-69215000D03*
X192692000Y-69215000D03*
D18*
X192786000Y-130937000D03*
D19*
X197786000Y-130937000D03*
X202786000Y-130937000D03*
D20*
X243713000Y-104902000D03*
D21*
X243713000Y-99902000D03*
X243713000Y-94902000D03*
D20*
X106807000Y-96012000D03*
D21*
X106807000Y-101012000D03*
D10*
G36*
X114500130Y-81898254D02*
X111954546Y-79352670D01*
X113439470Y-77867746D01*
X115985054Y-80413330D01*
X114500130Y-81898254D01*
X114500130Y-81898254D01*
G37*
D22*
X116975004Y-75817136D02*
X118035664Y-76877796D01*
M02*
