M48
;DRILL file {KiCad 4.0.6} date 2017 August 07, Monday 18:13:46
;FORMAT={3:3/ absolute / metric / suppress leading zeros}
FMAT,2
METRIC,TZ
T1C0.400
T2C1.000
T3C1.100
T4C1.200
T5C1.400
T6C5.500
%
G90
G05
M71
T1
X159200Y-115920
X159207Y-84938
X162380Y-115920
X165550Y-100520
X167380Y-115920
X174904Y-85141
X184760Y-116180
X184800Y-99520
X189600Y-115920
X189789Y-107848
X191008Y-84988
T2
X136957Y-73457
X136957Y-103302
X213030Y-73584
T3
X148082Y-77710
X148082Y-92710
X148082Y-97014
X148082Y-112014
X148082Y-115556
X148082Y-130556
T4
X124587Y-91059
X124587Y-106299
X128016Y-71247
X143256Y-71247
X222377Y-91567
X222377Y-106807
T5
X106807Y-96012
X106807Y-101012
X113970Y-79883
X117505Y-76347
X156566Y-130937
X156624Y-69215
X161566Y-130937
X161624Y-69215
X166566Y-130937
X166624Y-69215
X174658Y-69215
X174701Y-130937
X179658Y-69215
X179701Y-130937
X184658Y-69215
X184701Y-130937
X192692Y-69215
X192786Y-130937
X197692Y-69215
X197786Y-130937
X202692Y-69215
X202786Y-130937
X243713Y-94902
X243713Y-99902
X243713Y-104902
T6
X137000Y-84250
X137000Y-115750
X213000Y-84250
X213000Y-115750
T0
M30
