M48
;DRILL file {KiCad 4.0.6} date 2017 August 05, Saturday 23:38:40
;FORMAT={3:3/ absolute / metric / suppress leading zeros}
FMAT,2
METRIC,TZ
T1C0.400
T2C0.500
T3C0.762
T4C1.000
T5C1.400
T6C3.200
%
G90
G05
M71
T1
X109220Y-119888
X114173Y-132715
T2
X122300Y-127600
X122400Y-116300
X126300Y-113300
X128800Y-145300
X128800Y-147700
X129400Y-131300
X129400Y-134800
X141669Y-135763
X142100Y-120100
X142100Y-121400
X142100Y-122700
X142900Y-152000
X143000Y-134100
X148600Y-112800
X148700Y-124700
X150300Y-114300
X150300Y-118300
X151300Y-128800
X151900Y-112700
X154700Y-141800
X156500Y-141800
X156655Y-125286
X162916Y-129388
X164211Y-138684
X166600Y-134800
X169700Y-131200
X172100Y-142200
X175000Y-113800
X178900Y-117100
T3
X128905Y-139446
X131445Y-139446
X139065Y-139446
X141605Y-139446
X144145Y-139446
T4
X105000Y-117140
X105000Y-119680
X105000Y-122220
X105000Y-124760
X105000Y-127300
X105000Y-129840
X105000Y-132380
X105000Y-134920
X105000Y-137460
X105000Y-140000
X160500Y-116400
X175000Y-117120
X175000Y-119660
X175000Y-122200
T5
X107315Y-145606
X112315Y-145606
X117315Y-145606
X122315Y-145606
X150622Y-145732
X155622Y-145732
X160622Y-145732
X174400Y-128500
X174400Y-133500
X174400Y-138500
T6
X100000Y-110000
X100000Y-152000
X180000Y-110000
X180000Y-152000
T0
M30
