G04 #@! TF.FileFunction,Copper,L1,Top,Signal*
%FSLAX46Y46*%
G04 Gerber Fmt 4.6, Leading zero omitted, Abs format (unit mm)*
G04 Created by KiCad (PCBNEW 4.0.6) date 2017 August 05, Saturday 23:38:27*
%MOMM*%
%LPD*%
G01*
G04 APERTURE LIST*
%ADD10C,0.100000*%
%ADD11R,1.700000X1.700000*%
%ADD12O,1.700000X1.700000*%
%ADD13R,3.600000X2.100000*%
%ADD14O,3.600000X2.100000*%
%ADD15R,1.250000X1.500000*%
%ADD16R,1.500000X1.250000*%
%ADD17R,1.500000X1.300000*%
%ADD18R,3.500000X1.800000*%
%ADD19R,2.100000X3.600000*%
%ADD20O,2.100000X3.600000*%
%ADD21R,1.300000X1.500000*%
%ADD22R,1.143000X0.508000*%
%ADD23R,1.600000X3.500000*%
%ADD24C,1.524000*%
%ADD25C,5.700000*%
%ADD26R,0.750000X0.800000*%
%ADD27C,1.000000*%
%ADD28C,0.700000*%
%ADD29C,1.500000*%
%ADD30C,1.000000*%
%ADD31C,0.500000*%
G04 APERTURE END LIST*
D10*
D11*
X175000000Y-122200000D03*
D12*
X175000000Y-119660000D03*
X175000000Y-117120000D03*
D13*
X174400000Y-138500000D03*
D14*
X174400000Y-133500000D03*
X174400000Y-128500000D03*
D15*
X126300000Y-118350000D03*
X126300000Y-115850000D03*
D16*
X154650000Y-118300000D03*
X152150000Y-118300000D03*
D15*
X152400000Y-121432000D03*
X152400000Y-123932000D03*
X145224500Y-118828500D03*
X145224500Y-121328500D03*
X145224500Y-123654500D03*
X145224500Y-126154500D03*
D17*
X122444500Y-130429000D03*
X119744500Y-130429000D03*
D18*
X169632000Y-116332000D03*
X164632000Y-116332000D03*
D11*
X105000000Y-140000000D03*
D12*
X105000000Y-137460000D03*
X105000000Y-134920000D03*
X105000000Y-132380000D03*
X105000000Y-129840000D03*
X105000000Y-127300000D03*
X105000000Y-124760000D03*
X105000000Y-122220000D03*
X105000000Y-119680000D03*
X105000000Y-117140000D03*
D19*
X107315000Y-145605500D03*
D20*
X112315000Y-145605500D03*
X117315000Y-145605500D03*
X122315000Y-145605500D03*
D19*
X150622000Y-145732500D03*
D20*
X155622000Y-145732500D03*
X160622000Y-145732500D03*
D21*
X117284500Y-117458500D03*
X117284500Y-120158500D03*
D17*
X114728000Y-130429000D03*
X117428000Y-130429000D03*
D21*
X120904000Y-118792000D03*
X120904000Y-121492000D03*
D17*
X157350000Y-116400000D03*
X154650000Y-116400000D03*
X164893000Y-128016000D03*
X167593000Y-128016000D03*
D21*
X170650000Y-144900000D03*
X170650000Y-147600000D03*
X173400000Y-147600000D03*
X173400000Y-144900000D03*
D11*
X160500000Y-116400000D03*
D22*
X130302000Y-116332000D03*
X130302000Y-117602000D03*
X130302000Y-118872000D03*
X130302000Y-120142000D03*
X130302000Y-121412000D03*
X130302000Y-122682000D03*
X130302000Y-123952000D03*
X130302000Y-125222000D03*
X140462000Y-125222000D03*
X140462000Y-123952000D03*
X140462000Y-122682000D03*
X140462000Y-121412000D03*
X140462000Y-120142000D03*
X140462000Y-118872000D03*
X140462000Y-117602000D03*
X140462000Y-116332000D03*
D23*
X122491500Y-140050500D03*
X122491500Y-134650500D03*
D15*
X116459000Y-138600500D03*
X116459000Y-136100500D03*
D23*
X151320500Y-134206000D03*
X151320500Y-139606000D03*
X159004000Y-139606000D03*
X159004000Y-134206000D03*
D21*
X170650000Y-152600000D03*
X170650000Y-149900000D03*
X173400000Y-152600000D03*
X173400000Y-149900000D03*
D24*
X128905000Y-139446000D03*
X131445000Y-139446000D03*
X139065000Y-139446000D03*
X141605000Y-139446000D03*
X144145000Y-139446000D03*
D25*
X100000000Y-110000000D03*
X100000000Y-152000000D03*
X180000000Y-110000000D03*
X180000000Y-152000000D03*
D26*
X128700000Y-117750000D03*
X128700000Y-116250000D03*
X143500000Y-118850000D03*
X143500000Y-120350000D03*
X142400000Y-123950000D03*
X142400000Y-125450000D03*
D27*
X109220000Y-119888000D03*
X114173000Y-132715000D03*
X129400000Y-131300000D03*
X129400000Y-134800000D03*
X128800000Y-145300000D03*
X128800000Y-147700000D03*
X126300000Y-113300000D03*
X122300000Y-127600000D03*
X122400000Y-116300000D03*
X169700000Y-131200000D03*
X142100000Y-122700000D03*
X151300000Y-128800000D03*
X166600000Y-134800000D03*
X156654500Y-125285500D03*
X164211000Y-138684000D03*
X148600000Y-112800000D03*
X175000000Y-113800000D03*
X178900000Y-117100000D03*
X150300000Y-114300000D03*
X151900000Y-112700000D03*
X156500000Y-141800000D03*
X154700000Y-141800000D03*
X150300000Y-118300000D03*
X172100000Y-142200000D03*
X142900000Y-152000000D03*
X143000000Y-134100000D03*
X148700000Y-124700000D03*
X162915600Y-129387600D03*
X141668500Y-135763000D03*
X142100000Y-120100000D03*
X142100000Y-121400000D03*
D28*
X126300000Y-118350000D02*
X128100000Y-118350000D01*
X128100000Y-118350000D02*
X128700000Y-117750000D01*
X120904000Y-118792000D02*
X125858000Y-118792000D01*
X125858000Y-118792000D02*
X126300000Y-118350000D01*
X130302000Y-117602000D02*
X128848000Y-117602000D01*
X128848000Y-117602000D02*
X128700000Y-117750000D01*
X114728000Y-130429000D02*
X114728000Y-132160000D01*
X114728000Y-132160000D02*
X114173000Y-132715000D01*
D29*
X105092500Y-122174000D02*
X106934000Y-122174000D01*
X106934000Y-122174000D02*
X109220000Y-119888000D01*
D28*
X105092500Y-122174000D02*
X107442000Y-122174000D01*
X112157500Y-117458500D02*
X117284500Y-117458500D01*
X107442000Y-122174000D02*
X112157500Y-117458500D01*
X117284500Y-117458500D02*
X119570500Y-117458500D01*
X119570500Y-117458500D02*
X120904000Y-118792000D01*
D29*
X129400000Y-134800000D02*
X129400000Y-131300000D01*
X129316500Y-134716500D02*
X129316500Y-134650500D01*
X129400000Y-134800000D02*
X129316500Y-134716500D01*
X131445000Y-139446000D02*
X131445000Y-142655000D01*
X131445000Y-142655000D02*
X128800000Y-145300000D01*
X128800000Y-150400000D02*
X128800000Y-147700000D01*
X126300000Y-113300000D02*
X126300000Y-115850000D01*
D28*
X126300000Y-115850000D02*
X122850000Y-115850000D01*
X122444500Y-127744500D02*
X122444500Y-130429000D01*
X122300000Y-127600000D02*
X122444500Y-127744500D01*
X122850000Y-115850000D02*
X122400000Y-116300000D01*
X128700000Y-116250000D02*
X126700000Y-116250000D01*
X126700000Y-116250000D02*
X126300000Y-115850000D01*
X130302000Y-116332000D02*
X128782000Y-116332000D01*
X128782000Y-116332000D02*
X128700000Y-116250000D01*
X122444500Y-130429000D02*
X122444500Y-134603500D01*
X122444500Y-134603500D02*
X122491500Y-134650500D01*
D29*
X116459000Y-136100500D02*
X110914500Y-136100500D01*
X107061000Y-139954000D02*
X105092500Y-139954000D01*
X110914500Y-136100500D02*
X107061000Y-139954000D01*
X122491500Y-134650500D02*
X129316500Y-134650500D01*
X116459000Y-136100500D02*
X116459000Y-135255000D01*
X117063500Y-134650500D02*
X122491500Y-134650500D01*
X116459000Y-135255000D02*
X117063500Y-134650500D01*
X105092500Y-139954000D02*
X105092500Y-143383000D01*
X105092500Y-143383000D02*
X107315000Y-145605500D01*
X102235000Y-142049500D02*
X102235000Y-146939000D01*
X103695500Y-117094000D02*
X102235000Y-118554500D01*
X102235000Y-118554500D02*
X102235000Y-142049500D01*
X105092500Y-117094000D02*
X103695500Y-117094000D01*
X122315000Y-147750500D02*
X122315000Y-145605500D01*
X119888000Y-150177500D02*
X122315000Y-147750500D01*
X105473500Y-150177500D02*
X119888000Y-150177500D01*
X102235000Y-146939000D02*
X105473500Y-150177500D01*
X122315000Y-145605500D02*
X122315000Y-140227000D01*
X122315000Y-140227000D02*
X122491500Y-140050500D01*
X122491500Y-140050500D02*
X117909000Y-140050500D01*
X117909000Y-140050500D02*
X116459000Y-138600500D01*
X128905000Y-139446000D02*
X128905000Y-139573000D01*
X128905000Y-139573000D02*
X128427500Y-140050500D01*
X128427500Y-140050500D02*
X122491500Y-140050500D01*
D30*
X116459000Y-138600500D02*
X116459000Y-138747500D01*
X122315000Y-140227000D02*
X122491500Y-140050500D01*
X122966500Y-140525500D02*
X122491500Y-140050500D01*
D28*
X119744500Y-130429000D02*
X117428000Y-130429000D01*
D30*
X175000000Y-122200000D02*
X176700000Y-122200000D01*
X178400000Y-138500000D02*
X174400000Y-138500000D01*
X179200000Y-137700000D02*
X178400000Y-138500000D01*
X179200000Y-124700000D02*
X179200000Y-137700000D01*
X176700000Y-122200000D02*
X179200000Y-124700000D01*
X175000000Y-122200000D02*
X172300000Y-122200000D01*
X169632000Y-119532000D02*
X169632000Y-116332000D01*
X172300000Y-122200000D02*
X169632000Y-119532000D01*
D28*
X160500000Y-116400000D02*
X164564000Y-116400000D01*
X164564000Y-116400000D02*
X164632000Y-116332000D01*
X157350000Y-116400000D02*
X160500000Y-116400000D01*
D30*
X170627500Y-149802500D02*
X170627500Y-147422500D01*
D31*
X173400000Y-149900000D02*
X174100000Y-149900000D01*
X174600000Y-144900000D02*
X173400000Y-144900000D01*
X174900000Y-145200000D02*
X174600000Y-144900000D01*
X174900000Y-149100000D02*
X174900000Y-145200000D01*
X174100000Y-149900000D02*
X174900000Y-149100000D01*
D28*
X130302000Y-123952000D02*
X128333500Y-123952000D01*
X107505500Y-132334000D02*
X105092500Y-132334000D01*
X115062000Y-124777500D02*
X107505500Y-132334000D01*
X127508000Y-124777500D02*
X115062000Y-124777500D01*
X128333500Y-123952000D02*
X127508000Y-124777500D01*
X105092500Y-129794000D02*
X108140500Y-129794000D01*
X127825500Y-122682000D02*
X130302000Y-122682000D01*
X127127000Y-123380500D02*
X127825500Y-122682000D01*
X114554000Y-123380500D02*
X127127000Y-123380500D01*
X108140500Y-129794000D02*
X114554000Y-123380500D01*
X105092500Y-127254000D02*
X108140500Y-127254000D01*
X113347500Y-122047000D02*
X120349000Y-122047000D01*
X108140500Y-127254000D02*
X113347500Y-122047000D01*
X120349000Y-122047000D02*
X120904000Y-121492000D01*
X120904000Y-121492000D02*
X130222000Y-121492000D01*
X130222000Y-121492000D02*
X130302000Y-121412000D01*
X105092500Y-124714000D02*
X107188000Y-124714000D01*
X111743500Y-120158500D02*
X117284500Y-120158500D01*
X107188000Y-124714000D02*
X111743500Y-120158500D01*
X117284500Y-120158500D02*
X130285500Y-120158500D01*
X130285500Y-120158500D02*
X130302000Y-120142000D01*
D29*
X167593000Y-128016000D02*
X167593000Y-129093000D01*
X167593000Y-129093000D02*
X169700000Y-131200000D01*
X174400000Y-133500000D02*
X172000000Y-133500000D01*
X172000000Y-133500000D02*
X169700000Y-131200000D01*
D28*
X140462000Y-122682000D02*
X142082000Y-122682000D01*
X142082000Y-122682000D02*
X142100000Y-122700000D01*
D29*
X151320500Y-134206000D02*
X151320500Y-128820500D01*
X151320500Y-128820500D02*
X151300000Y-128800000D01*
D28*
X145224500Y-118828500D02*
X147828500Y-118828500D01*
X150432000Y-121432000D02*
X152400000Y-121432000D01*
X147828500Y-118828500D02*
X150432000Y-121432000D01*
D31*
X170650000Y-144900000D02*
X169900000Y-144900000D01*
X168400000Y-136600000D02*
X166600000Y-134800000D01*
X168400000Y-143400000D02*
X168400000Y-136600000D01*
X169900000Y-144900000D02*
X168400000Y-143400000D01*
D28*
X143500000Y-118850000D02*
X145203000Y-118850000D01*
X145203000Y-118850000D02*
X145224500Y-118828500D01*
X140462000Y-118872000D02*
X143478000Y-118872000D01*
X143478000Y-118872000D02*
X143500000Y-118850000D01*
D29*
X152400000Y-121432000D02*
X152801000Y-121432000D01*
X152801000Y-121432000D02*
X156654500Y-125285500D01*
X151912000Y-121432000D02*
X152400000Y-121432000D01*
D28*
X145181000Y-118872000D02*
X145224500Y-118828500D01*
D29*
X160622000Y-145732500D02*
X161036000Y-145732500D01*
X161036000Y-145732500D02*
X164211000Y-142557500D01*
X164211000Y-142557500D02*
X164211000Y-138684000D01*
X151320500Y-133032500D02*
X151320500Y-134206000D01*
X144145000Y-139446000D02*
X144145000Y-137668000D01*
X147607000Y-134206000D02*
X151320500Y-134206000D01*
X144145000Y-137668000D02*
X147607000Y-134206000D01*
X175000000Y-117120000D02*
X175000000Y-113800000D01*
X178900000Y-117120000D02*
X179120000Y-117120000D01*
X178900000Y-117100000D02*
X178900000Y-117120000D01*
X151900000Y-112700000D02*
X150300000Y-114300000D01*
X154700000Y-141800000D02*
X154727000Y-141773000D01*
X154727000Y-141773000D02*
X154700000Y-141800000D01*
X154700000Y-141800000D02*
X154700000Y-141746000D01*
D28*
X152150000Y-118300000D02*
X150300000Y-118300000D01*
D31*
X172100000Y-146800000D02*
X172100000Y-142200000D01*
X172100000Y-146800000D02*
X172900000Y-147600000D01*
D29*
X179700000Y-142200000D02*
X172100000Y-142200000D01*
X181700000Y-140200000D02*
X179700000Y-142200000D01*
X181700000Y-119700000D02*
X181700000Y-140200000D01*
X179120000Y-117120000D02*
X181700000Y-119700000D01*
D31*
X173400000Y-147600000D02*
X172900000Y-147600000D01*
X173400000Y-147600000D02*
X172800000Y-147600000D01*
D30*
X145224500Y-122600000D02*
X146600000Y-122600000D01*
X146600000Y-122600000D02*
X148700000Y-124700000D01*
X145224500Y-123654500D02*
X145224500Y-122600000D01*
X145224500Y-122600000D02*
X145224500Y-121328500D01*
D28*
X142400000Y-123950000D02*
X144929000Y-123950000D01*
X144929000Y-123950000D02*
X145224500Y-123654500D01*
X143500000Y-120350000D02*
X143500000Y-120900000D01*
X143500000Y-120900000D02*
X143928500Y-121328500D01*
X143928500Y-121328500D02*
X145224500Y-121328500D01*
X140462000Y-123952000D02*
X142398000Y-123952000D01*
X142398000Y-123952000D02*
X142400000Y-123950000D01*
D31*
X164287200Y-128016000D02*
X164893000Y-128016000D01*
X170650000Y-152600000D02*
X171500000Y-152600000D01*
X171500000Y-152600000D02*
X172000000Y-152100000D01*
X172000000Y-152100000D02*
X172000000Y-148400000D01*
X172000000Y-148400000D02*
X172800000Y-147600000D01*
D29*
X164893000Y-128016000D02*
X164287200Y-128016000D01*
X164287200Y-128016000D02*
X162915600Y-129387600D01*
X141605000Y-139446000D02*
X141605000Y-135826500D01*
X141605000Y-135826500D02*
X141668500Y-135763000D01*
D30*
X170627500Y-152502500D02*
X170992000Y-152502500D01*
D29*
X151320500Y-139606000D02*
X152560000Y-139606000D01*
X155622000Y-142668000D02*
X155622000Y-145732500D01*
X152560000Y-139606000D02*
X154700000Y-141746000D01*
X154700000Y-141746000D02*
X155622000Y-142668000D01*
X151320500Y-139606000D02*
X159004000Y-139606000D01*
X141605000Y-139446000D02*
X141605000Y-140398500D01*
X141605000Y-140398500D02*
X143573500Y-142367000D01*
X143573500Y-142367000D02*
X148559500Y-142367000D01*
X148559500Y-142367000D02*
X151320500Y-139606000D01*
D28*
X144927000Y-123952000D02*
X145224500Y-123654500D01*
D31*
X173400000Y-152600000D02*
X173400000Y-153800000D01*
X169100000Y-154500000D02*
X163160750Y-148560750D01*
X172700000Y-154500000D02*
X169100000Y-154500000D01*
X173400000Y-153800000D02*
X172700000Y-154500000D01*
D28*
X142400000Y-125450000D02*
X142550000Y-125450000D01*
X142550000Y-125450000D02*
X143254500Y-126154500D01*
X143254500Y-126154500D02*
X145224500Y-126154500D01*
X140462000Y-125222000D02*
X140822000Y-125222000D01*
X140822000Y-125222000D02*
X141050000Y-125450000D01*
X141050000Y-125450000D02*
X142400000Y-125450000D01*
D29*
X152400000Y-123932000D02*
X152400000Y-124079000D01*
X152400000Y-124079000D02*
X159004000Y-130683000D01*
X159004000Y-130683000D02*
X159004000Y-134206000D01*
X147447000Y-126154500D02*
X150177500Y-126154500D01*
X150177500Y-126154500D02*
X152400000Y-123932000D01*
X150622000Y-145732500D02*
X150622000Y-146050000D01*
X150622000Y-146050000D02*
X153797000Y-149225000D01*
X163416000Y-134206000D02*
X159004000Y-134206000D01*
X166560500Y-137350500D02*
X163416000Y-134206000D01*
X166560500Y-145161000D02*
X166560500Y-137350500D01*
X162496500Y-149225000D02*
X163160750Y-148560750D01*
X163160750Y-148560750D02*
X166560500Y-145161000D01*
X153797000Y-149225000D02*
X162496500Y-149225000D01*
X139065000Y-139446000D02*
X139065000Y-141414500D01*
X143383000Y-145732500D02*
X150622000Y-145732500D01*
X139065000Y-141414500D02*
X143383000Y-145732500D01*
X145224500Y-126154500D02*
X147447000Y-126154500D01*
D28*
X105092500Y-134874000D02*
X106934000Y-134874000D01*
X129349500Y-125222000D02*
X130302000Y-125222000D01*
X128524000Y-126047500D02*
X129349500Y-125222000D01*
X115760500Y-126047500D02*
X128524000Y-126047500D01*
X106934000Y-134874000D02*
X115760500Y-126047500D01*
X140462000Y-120142000D02*
X142058000Y-120142000D01*
X142058000Y-120142000D02*
X142100000Y-120100000D01*
X140462000Y-121412000D02*
X142088000Y-121412000D01*
X142088000Y-121412000D02*
X142100000Y-121400000D01*
X154650000Y-118300000D02*
X154650000Y-116400000D01*
X140462000Y-117602000D02*
X143098000Y-117602000D01*
X144300000Y-116400000D02*
X154650000Y-116400000D01*
X143098000Y-117602000D02*
X144300000Y-116400000D01*
D30*
G36*
X141792010Y-147323490D02*
X142521962Y-147811229D01*
X143383000Y-147982500D01*
X148127287Y-147982500D01*
X148147207Y-148088367D01*
X148475724Y-148598896D01*
X148976983Y-148941392D01*
X149572000Y-149061886D01*
X150451906Y-149061886D01*
X152206010Y-150815990D01*
X152935962Y-151303729D01*
X153797000Y-151475000D01*
X162496500Y-151475000D01*
X163357538Y-151303729D01*
X163400289Y-151275163D01*
X166575126Y-154450000D01*
X139956010Y-154450000D01*
X139979988Y-145511468D01*
X141792010Y-147323490D01*
X141792010Y-147323490D01*
G37*
X141792010Y-147323490D02*
X142521962Y-147811229D01*
X143383000Y-147982500D01*
X148127287Y-147982500D01*
X148147207Y-148088367D01*
X148475724Y-148598896D01*
X148976983Y-148941392D01*
X149572000Y-149061886D01*
X150451906Y-149061886D01*
X152206010Y-150815990D01*
X152935962Y-151303729D01*
X153797000Y-151475000D01*
X162496500Y-151475000D01*
X163357538Y-151303729D01*
X163400289Y-151275163D01*
X166575126Y-154450000D01*
X139956010Y-154450000D01*
X139979988Y-145511468D01*
X141792010Y-147323490D01*
G36*
X170700000Y-152550000D02*
X170720000Y-152550000D01*
X170720000Y-152650000D01*
X170700000Y-152650000D01*
X170700000Y-152670000D01*
X170600000Y-152670000D01*
X170600000Y-152650000D01*
X170580000Y-152650000D01*
X170580000Y-152550000D01*
X170600000Y-152550000D01*
X170600000Y-152530000D01*
X170700000Y-152530000D01*
X170700000Y-152550000D01*
X170700000Y-152550000D01*
G37*
X170700000Y-152550000D02*
X170720000Y-152550000D01*
X170720000Y-152650000D01*
X170700000Y-152650000D01*
X170700000Y-152670000D01*
X170600000Y-152670000D01*
X170600000Y-152650000D01*
X170580000Y-152650000D01*
X170580000Y-152550000D01*
X170600000Y-152550000D01*
X170600000Y-152530000D01*
X170700000Y-152530000D01*
X170700000Y-152550000D01*
G36*
X175650756Y-109130935D02*
X175649246Y-110861472D01*
X176310099Y-112460858D01*
X177532705Y-113685601D01*
X179130935Y-114349244D01*
X180861472Y-114350754D01*
X182460858Y-113689901D01*
X183450000Y-112702485D01*
X183450000Y-149298822D01*
X182467295Y-148314399D01*
X180869065Y-147650756D01*
X179138528Y-147649246D01*
X177539142Y-148310099D01*
X176625754Y-149221893D01*
X176650000Y-149100000D01*
X176650000Y-145200000D01*
X176516789Y-144530304D01*
X176137437Y-143962563D01*
X175837437Y-143662563D01*
X175278509Y-143289100D01*
X175146276Y-143083604D01*
X174645017Y-142741108D01*
X174050000Y-142620614D01*
X172750000Y-142620614D01*
X172194133Y-142725207D01*
X172028105Y-142832043D01*
X171895017Y-142741108D01*
X171300000Y-142620614D01*
X170150000Y-142620614D01*
X170150000Y-136600000D01*
X170016789Y-135930304D01*
X169637437Y-135362563D01*
X168545108Y-134270234D01*
X168296506Y-133668571D01*
X167734388Y-133105471D01*
X166999570Y-132800348D01*
X166203921Y-132799654D01*
X165487608Y-133095628D01*
X165006990Y-132615010D01*
X164277038Y-132127271D01*
X163416000Y-131956000D01*
X161254000Y-131956000D01*
X161254000Y-130683000D01*
X161082729Y-129821962D01*
X160940439Y-129609010D01*
X160594990Y-129092009D01*
X159943981Y-128441000D01*
X162643000Y-128441000D01*
X162643000Y-128964368D01*
X162871361Y-129515681D01*
X163293318Y-129937638D01*
X163844631Y-130166000D01*
X164468000Y-130166000D01*
X164843000Y-129791000D01*
X164843000Y-128066000D01*
X163018000Y-128066000D01*
X162643000Y-128441000D01*
X159943981Y-128441000D01*
X158570613Y-127067632D01*
X162643000Y-127067632D01*
X162643000Y-127591000D01*
X163018000Y-127966000D01*
X164843000Y-127966000D01*
X164843000Y-126241000D01*
X164468000Y-125866000D01*
X163844631Y-125866000D01*
X163293318Y-126094362D01*
X162871361Y-126516319D01*
X162643000Y-127067632D01*
X158570613Y-127067632D01*
X158299155Y-126796175D01*
X158733229Y-126146538D01*
X158904500Y-125285500D01*
X158733229Y-124424462D01*
X158245490Y-123694510D01*
X155005366Y-120454386D01*
X155400000Y-120454386D01*
X155955867Y-120349793D01*
X156466396Y-120021276D01*
X156808892Y-119520017D01*
X156929386Y-118925000D01*
X156929386Y-118579386D01*
X158100000Y-118579386D01*
X158655867Y-118474793D01*
X158722651Y-118431819D01*
X159054983Y-118658892D01*
X159650000Y-118779386D01*
X161350000Y-118779386D01*
X161905867Y-118674793D01*
X162127691Y-118532053D01*
X162286983Y-118640892D01*
X162882000Y-118761386D01*
X166382000Y-118761386D01*
X166937867Y-118656793D01*
X167129645Y-118533387D01*
X167286983Y-118640892D01*
X167632000Y-118710760D01*
X167632000Y-119531995D01*
X167631999Y-119532000D01*
X167784241Y-120297367D01*
X168217786Y-120946214D01*
X170885784Y-123614211D01*
X170885786Y-123614214D01*
X171466150Y-124002000D01*
X171534633Y-124047759D01*
X172300000Y-124200001D01*
X172300005Y-124200000D01*
X173176082Y-124200000D01*
X173554983Y-124458892D01*
X174150000Y-124579386D01*
X175850000Y-124579386D01*
X176187461Y-124515889D01*
X177200000Y-125528427D01*
X177200000Y-127062642D01*
X176988478Y-126732233D01*
X176172037Y-126163241D01*
X175200000Y-125950000D01*
X174450000Y-125950000D01*
X174450000Y-128450000D01*
X174470000Y-128450000D01*
X174470000Y-128550000D01*
X174450000Y-128550000D01*
X174450000Y-128570000D01*
X174350000Y-128570000D01*
X174350000Y-128550000D01*
X171475575Y-128550000D01*
X171139700Y-128948216D01*
X171274973Y-129429649D01*
X171565593Y-129883613D01*
X169872386Y-128190406D01*
X169872386Y-128051784D01*
X171139700Y-128051784D01*
X171475575Y-128450000D01*
X174350000Y-128450000D01*
X174350000Y-125950000D01*
X173600000Y-125950000D01*
X172627963Y-126163241D01*
X171811522Y-126732233D01*
X171274973Y-127570351D01*
X171139700Y-128051784D01*
X169872386Y-128051784D01*
X169872386Y-127366000D01*
X169767793Y-126810133D01*
X169439276Y-126299604D01*
X168938017Y-125957108D01*
X168343000Y-125836614D01*
X167948001Y-125836614D01*
X167593000Y-125766000D01*
X167237999Y-125836614D01*
X166843000Y-125836614D01*
X166287133Y-125941207D01*
X166222830Y-125982585D01*
X165941369Y-125866000D01*
X165318000Y-125866000D01*
X164943000Y-126241000D01*
X164943000Y-127966000D01*
X164963000Y-127966000D01*
X164963000Y-128066000D01*
X164943000Y-128066000D01*
X164943000Y-129791000D01*
X165318000Y-130166000D01*
X165655900Y-130166000D01*
X166002010Y-130683990D01*
X170409010Y-135090990D01*
X171138962Y-135578729D01*
X172000000Y-135750000D01*
X172451026Y-135750000D01*
X172609506Y-135855893D01*
X172934881Y-135920614D01*
X172600000Y-135920614D01*
X172044133Y-136025207D01*
X171533604Y-136353724D01*
X171191108Y-136854983D01*
X171070614Y-137450000D01*
X171070614Y-139550000D01*
X171175207Y-140105867D01*
X171503724Y-140616396D01*
X172004983Y-140958892D01*
X172600000Y-141079386D01*
X176200000Y-141079386D01*
X176755867Y-140974793D01*
X177266396Y-140646276D01*
X177366342Y-140500000D01*
X178399995Y-140500000D01*
X178400000Y-140500001D01*
X179165367Y-140347759D01*
X179814214Y-139914214D01*
X180614211Y-139114216D01*
X180614214Y-139114214D01*
X181047759Y-138465367D01*
X181083750Y-138284430D01*
X181200001Y-137700000D01*
X181200000Y-137699995D01*
X181200000Y-124700005D01*
X181200001Y-124700000D01*
X181047759Y-123934633D01*
X181005725Y-123871724D01*
X180614214Y-123285786D01*
X180614211Y-123285784D01*
X178114214Y-120785786D01*
X177465367Y-120352241D01*
X177266223Y-120312629D01*
X177396039Y-119660000D01*
X177217156Y-118760694D01*
X176964258Y-118382205D01*
X177296226Y-117619855D01*
X177312720Y-117536922D01*
X176974367Y-117170000D01*
X175050000Y-117170000D01*
X175050000Y-117190000D01*
X174950000Y-117190000D01*
X174950000Y-117170000D01*
X174930000Y-117170000D01*
X174930000Y-117070000D01*
X174950000Y-117070000D01*
X174950000Y-115145530D01*
X175050000Y-115145530D01*
X175050000Y-117070000D01*
X176974367Y-117070000D01*
X177312720Y-116703078D01*
X177296226Y-116620145D01*
X176930150Y-115779467D01*
X176270226Y-115142873D01*
X175416922Y-114807278D01*
X175050000Y-115145530D01*
X174950000Y-115145530D01*
X174583078Y-114807278D01*
X173729774Y-115142873D01*
X173069850Y-115779467D01*
X172911386Y-116143373D01*
X172911386Y-115432000D01*
X172806793Y-114876133D01*
X172478276Y-114365604D01*
X171977017Y-114023108D01*
X171382000Y-113902614D01*
X167882000Y-113902614D01*
X167326133Y-114007207D01*
X167134355Y-114130613D01*
X166977017Y-114023108D01*
X166382000Y-113902614D01*
X162882000Y-113902614D01*
X162326133Y-114007207D01*
X162028937Y-114198448D01*
X161945017Y-114141108D01*
X161350000Y-114020614D01*
X159650000Y-114020614D01*
X159094133Y-114125207D01*
X158725862Y-114362183D01*
X158695017Y-114341108D01*
X158100000Y-114220614D01*
X156600000Y-114220614D01*
X156044133Y-114325207D01*
X156006854Y-114349196D01*
X155995017Y-114341108D01*
X155400000Y-114220614D01*
X153900000Y-114220614D01*
X153344133Y-114325207D01*
X152994795Y-114550000D01*
X144300005Y-114550000D01*
X144300000Y-114549999D01*
X143628328Y-114683604D01*
X143592036Y-114690823D01*
X142991852Y-115091852D01*
X142991850Y-115091855D01*
X142474649Y-115609056D01*
X142458293Y-115522133D01*
X142129776Y-115011604D01*
X141628517Y-114669108D01*
X141033500Y-114548614D01*
X140063046Y-114548614D01*
X140081820Y-107550000D01*
X176307217Y-107550000D01*
X175650756Y-109130935D01*
X175650756Y-109130935D01*
G37*
X175650756Y-109130935D02*
X175649246Y-110861472D01*
X176310099Y-112460858D01*
X177532705Y-113685601D01*
X179130935Y-114349244D01*
X180861472Y-114350754D01*
X182460858Y-113689901D01*
X183450000Y-112702485D01*
X183450000Y-149298822D01*
X182467295Y-148314399D01*
X180869065Y-147650756D01*
X179138528Y-147649246D01*
X177539142Y-148310099D01*
X176625754Y-149221893D01*
X176650000Y-149100000D01*
X176650000Y-145200000D01*
X176516789Y-144530304D01*
X176137437Y-143962563D01*
X175837437Y-143662563D01*
X175278509Y-143289100D01*
X175146276Y-143083604D01*
X174645017Y-142741108D01*
X174050000Y-142620614D01*
X172750000Y-142620614D01*
X172194133Y-142725207D01*
X172028105Y-142832043D01*
X171895017Y-142741108D01*
X171300000Y-142620614D01*
X170150000Y-142620614D01*
X170150000Y-136600000D01*
X170016789Y-135930304D01*
X169637437Y-135362563D01*
X168545108Y-134270234D01*
X168296506Y-133668571D01*
X167734388Y-133105471D01*
X166999570Y-132800348D01*
X166203921Y-132799654D01*
X165487608Y-133095628D01*
X165006990Y-132615010D01*
X164277038Y-132127271D01*
X163416000Y-131956000D01*
X161254000Y-131956000D01*
X161254000Y-130683000D01*
X161082729Y-129821962D01*
X160940439Y-129609010D01*
X160594990Y-129092009D01*
X159943981Y-128441000D01*
X162643000Y-128441000D01*
X162643000Y-128964368D01*
X162871361Y-129515681D01*
X163293318Y-129937638D01*
X163844631Y-130166000D01*
X164468000Y-130166000D01*
X164843000Y-129791000D01*
X164843000Y-128066000D01*
X163018000Y-128066000D01*
X162643000Y-128441000D01*
X159943981Y-128441000D01*
X158570613Y-127067632D01*
X162643000Y-127067632D01*
X162643000Y-127591000D01*
X163018000Y-127966000D01*
X164843000Y-127966000D01*
X164843000Y-126241000D01*
X164468000Y-125866000D01*
X163844631Y-125866000D01*
X163293318Y-126094362D01*
X162871361Y-126516319D01*
X162643000Y-127067632D01*
X158570613Y-127067632D01*
X158299155Y-126796175D01*
X158733229Y-126146538D01*
X158904500Y-125285500D01*
X158733229Y-124424462D01*
X158245490Y-123694510D01*
X155005366Y-120454386D01*
X155400000Y-120454386D01*
X155955867Y-120349793D01*
X156466396Y-120021276D01*
X156808892Y-119520017D01*
X156929386Y-118925000D01*
X156929386Y-118579386D01*
X158100000Y-118579386D01*
X158655867Y-118474793D01*
X158722651Y-118431819D01*
X159054983Y-118658892D01*
X159650000Y-118779386D01*
X161350000Y-118779386D01*
X161905867Y-118674793D01*
X162127691Y-118532053D01*
X162286983Y-118640892D01*
X162882000Y-118761386D01*
X166382000Y-118761386D01*
X166937867Y-118656793D01*
X167129645Y-118533387D01*
X167286983Y-118640892D01*
X167632000Y-118710760D01*
X167632000Y-119531995D01*
X167631999Y-119532000D01*
X167784241Y-120297367D01*
X168217786Y-120946214D01*
X170885784Y-123614211D01*
X170885786Y-123614214D01*
X171466150Y-124002000D01*
X171534633Y-124047759D01*
X172300000Y-124200001D01*
X172300005Y-124200000D01*
X173176082Y-124200000D01*
X173554983Y-124458892D01*
X174150000Y-124579386D01*
X175850000Y-124579386D01*
X176187461Y-124515889D01*
X177200000Y-125528427D01*
X177200000Y-127062642D01*
X176988478Y-126732233D01*
X176172037Y-126163241D01*
X175200000Y-125950000D01*
X174450000Y-125950000D01*
X174450000Y-128450000D01*
X174470000Y-128450000D01*
X174470000Y-128550000D01*
X174450000Y-128550000D01*
X174450000Y-128570000D01*
X174350000Y-128570000D01*
X174350000Y-128550000D01*
X171475575Y-128550000D01*
X171139700Y-128948216D01*
X171274973Y-129429649D01*
X171565593Y-129883613D01*
X169872386Y-128190406D01*
X169872386Y-128051784D01*
X171139700Y-128051784D01*
X171475575Y-128450000D01*
X174350000Y-128450000D01*
X174350000Y-125950000D01*
X173600000Y-125950000D01*
X172627963Y-126163241D01*
X171811522Y-126732233D01*
X171274973Y-127570351D01*
X171139700Y-128051784D01*
X169872386Y-128051784D01*
X169872386Y-127366000D01*
X169767793Y-126810133D01*
X169439276Y-126299604D01*
X168938017Y-125957108D01*
X168343000Y-125836614D01*
X167948001Y-125836614D01*
X167593000Y-125766000D01*
X167237999Y-125836614D01*
X166843000Y-125836614D01*
X166287133Y-125941207D01*
X166222830Y-125982585D01*
X165941369Y-125866000D01*
X165318000Y-125866000D01*
X164943000Y-126241000D01*
X164943000Y-127966000D01*
X164963000Y-127966000D01*
X164963000Y-128066000D01*
X164943000Y-128066000D01*
X164943000Y-129791000D01*
X165318000Y-130166000D01*
X165655900Y-130166000D01*
X166002010Y-130683990D01*
X170409010Y-135090990D01*
X171138962Y-135578729D01*
X172000000Y-135750000D01*
X172451026Y-135750000D01*
X172609506Y-135855893D01*
X172934881Y-135920614D01*
X172600000Y-135920614D01*
X172044133Y-136025207D01*
X171533604Y-136353724D01*
X171191108Y-136854983D01*
X171070614Y-137450000D01*
X171070614Y-139550000D01*
X171175207Y-140105867D01*
X171503724Y-140616396D01*
X172004983Y-140958892D01*
X172600000Y-141079386D01*
X176200000Y-141079386D01*
X176755867Y-140974793D01*
X177266396Y-140646276D01*
X177366342Y-140500000D01*
X178399995Y-140500000D01*
X178400000Y-140500001D01*
X179165367Y-140347759D01*
X179814214Y-139914214D01*
X180614211Y-139114216D01*
X180614214Y-139114214D01*
X181047759Y-138465367D01*
X181083750Y-138284430D01*
X181200001Y-137700000D01*
X181200000Y-137699995D01*
X181200000Y-124700005D01*
X181200001Y-124700000D01*
X181047759Y-123934633D01*
X181005725Y-123871724D01*
X180614214Y-123285786D01*
X180614211Y-123285784D01*
X178114214Y-120785786D01*
X177465367Y-120352241D01*
X177266223Y-120312629D01*
X177396039Y-119660000D01*
X177217156Y-118760694D01*
X176964258Y-118382205D01*
X177296226Y-117619855D01*
X177312720Y-117536922D01*
X176974367Y-117170000D01*
X175050000Y-117170000D01*
X175050000Y-117190000D01*
X174950000Y-117190000D01*
X174950000Y-117170000D01*
X174930000Y-117170000D01*
X174930000Y-117070000D01*
X174950000Y-117070000D01*
X174950000Y-115145530D01*
X175050000Y-115145530D01*
X175050000Y-117070000D01*
X176974367Y-117070000D01*
X177312720Y-116703078D01*
X177296226Y-116620145D01*
X176930150Y-115779467D01*
X176270226Y-115142873D01*
X175416922Y-114807278D01*
X175050000Y-115145530D01*
X174950000Y-115145530D01*
X174583078Y-114807278D01*
X173729774Y-115142873D01*
X173069850Y-115779467D01*
X172911386Y-116143373D01*
X172911386Y-115432000D01*
X172806793Y-114876133D01*
X172478276Y-114365604D01*
X171977017Y-114023108D01*
X171382000Y-113902614D01*
X167882000Y-113902614D01*
X167326133Y-114007207D01*
X167134355Y-114130613D01*
X166977017Y-114023108D01*
X166382000Y-113902614D01*
X162882000Y-113902614D01*
X162326133Y-114007207D01*
X162028937Y-114198448D01*
X161945017Y-114141108D01*
X161350000Y-114020614D01*
X159650000Y-114020614D01*
X159094133Y-114125207D01*
X158725862Y-114362183D01*
X158695017Y-114341108D01*
X158100000Y-114220614D01*
X156600000Y-114220614D01*
X156044133Y-114325207D01*
X156006854Y-114349196D01*
X155995017Y-114341108D01*
X155400000Y-114220614D01*
X153900000Y-114220614D01*
X153344133Y-114325207D01*
X152994795Y-114550000D01*
X144300005Y-114550000D01*
X144300000Y-114549999D01*
X143628328Y-114683604D01*
X143592036Y-114690823D01*
X142991852Y-115091852D01*
X142991850Y-115091855D01*
X142474649Y-115609056D01*
X142458293Y-115522133D01*
X142129776Y-115011604D01*
X141628517Y-114669108D01*
X141033500Y-114548614D01*
X140063046Y-114548614D01*
X140081820Y-107550000D01*
X176307217Y-107550000D01*
X175650756Y-109130935D01*
G36*
X156754000Y-131614981D02*
X156754000Y-132063980D01*
X156674614Y-132456000D01*
X156674614Y-135956000D01*
X156779207Y-136511867D01*
X157032768Y-136905912D01*
X156932362Y-137006318D01*
X156704000Y-137557631D01*
X156704000Y-139181000D01*
X157079000Y-139556000D01*
X158954000Y-139556000D01*
X158954000Y-139536000D01*
X159054000Y-139536000D01*
X159054000Y-139556000D01*
X160929000Y-139556000D01*
X161304000Y-139181000D01*
X161304000Y-137557631D01*
X161075638Y-137006318D01*
X160972363Y-136903043D01*
X161212892Y-136551017D01*
X161232133Y-136456000D01*
X162484020Y-136456000D01*
X162920349Y-136892330D01*
X162620010Y-137093010D01*
X162132271Y-137822962D01*
X161961000Y-138684000D01*
X161961000Y-141625520D01*
X161119677Y-142466843D01*
X160865113Y-142416207D01*
X161075638Y-142205682D01*
X161304000Y-141654369D01*
X161304000Y-140031000D01*
X160929000Y-139656000D01*
X159054000Y-139656000D01*
X159054000Y-142481000D01*
X159339715Y-142766715D01*
X158818878Y-143114727D01*
X158266107Y-143942006D01*
X158118026Y-144686463D01*
X157958759Y-143960463D01*
X157389767Y-143144022D01*
X156551649Y-142607473D01*
X156070216Y-142472200D01*
X155672000Y-142808075D01*
X155672000Y-145682500D01*
X155692000Y-145682500D01*
X155692000Y-145782500D01*
X155672000Y-145782500D01*
X155672000Y-145802500D01*
X155572000Y-145802500D01*
X155572000Y-145782500D01*
X155552000Y-145782500D01*
X155552000Y-145682500D01*
X155572000Y-145682500D01*
X155572000Y-142808075D01*
X155173784Y-142472200D01*
X154692351Y-142607473D01*
X153854233Y-143144022D01*
X153285241Y-143960463D01*
X153201386Y-144342707D01*
X153201386Y-143932500D01*
X153096793Y-143376633D01*
X152768276Y-142866104D01*
X152627196Y-142769708D01*
X152970181Y-142627639D01*
X153392138Y-142205682D01*
X153620500Y-141654369D01*
X153620500Y-140031000D01*
X156704000Y-140031000D01*
X156704000Y-141654369D01*
X156932362Y-142205682D01*
X157354319Y-142627639D01*
X157905632Y-142856000D01*
X158579000Y-142856000D01*
X158954000Y-142481000D01*
X158954000Y-139656000D01*
X157079000Y-139656000D01*
X156704000Y-140031000D01*
X153620500Y-140031000D01*
X153245500Y-139656000D01*
X151370500Y-139656000D01*
X151370500Y-139676000D01*
X151270500Y-139676000D01*
X151270500Y-139656000D01*
X149395500Y-139656000D01*
X149020500Y-140031000D01*
X149020500Y-141654369D01*
X149248862Y-142205682D01*
X149466201Y-142423021D01*
X149016133Y-142507707D01*
X148505604Y-142836224D01*
X148163108Y-143337483D01*
X148133741Y-143482500D01*
X144314980Y-143482500D01*
X142397475Y-141564995D01*
X142852395Y-141385869D01*
X142877638Y-141369003D01*
X143693086Y-141707606D01*
X144592966Y-141708392D01*
X145424646Y-141364748D01*
X146061512Y-140728993D01*
X146406606Y-139897914D01*
X146407392Y-138998034D01*
X146395000Y-138968043D01*
X146395000Y-138599980D01*
X148538981Y-136456000D01*
X149085195Y-136456000D01*
X149095707Y-136511867D01*
X149349268Y-136905912D01*
X149248862Y-137006318D01*
X149020500Y-137557631D01*
X149020500Y-139181000D01*
X149395500Y-139556000D01*
X151270500Y-139556000D01*
X151270500Y-139536000D01*
X151370500Y-139536000D01*
X151370500Y-139556000D01*
X153245500Y-139556000D01*
X153620500Y-139181000D01*
X153620500Y-137557631D01*
X153392138Y-137006318D01*
X153288863Y-136903043D01*
X153529392Y-136551017D01*
X153649886Y-135956000D01*
X153649886Y-132456000D01*
X153570500Y-132034097D01*
X153570500Y-128820500D01*
X153473905Y-128334886D01*
X156754000Y-131614981D01*
X156754000Y-131614981D01*
G37*
X156754000Y-131614981D02*
X156754000Y-132063980D01*
X156674614Y-132456000D01*
X156674614Y-135956000D01*
X156779207Y-136511867D01*
X157032768Y-136905912D01*
X156932362Y-137006318D01*
X156704000Y-137557631D01*
X156704000Y-139181000D01*
X157079000Y-139556000D01*
X158954000Y-139556000D01*
X158954000Y-139536000D01*
X159054000Y-139536000D01*
X159054000Y-139556000D01*
X160929000Y-139556000D01*
X161304000Y-139181000D01*
X161304000Y-137557631D01*
X161075638Y-137006318D01*
X160972363Y-136903043D01*
X161212892Y-136551017D01*
X161232133Y-136456000D01*
X162484020Y-136456000D01*
X162920349Y-136892330D01*
X162620010Y-137093010D01*
X162132271Y-137822962D01*
X161961000Y-138684000D01*
X161961000Y-141625520D01*
X161119677Y-142466843D01*
X160865113Y-142416207D01*
X161075638Y-142205682D01*
X161304000Y-141654369D01*
X161304000Y-140031000D01*
X160929000Y-139656000D01*
X159054000Y-139656000D01*
X159054000Y-142481000D01*
X159339715Y-142766715D01*
X158818878Y-143114727D01*
X158266107Y-143942006D01*
X158118026Y-144686463D01*
X157958759Y-143960463D01*
X157389767Y-143144022D01*
X156551649Y-142607473D01*
X156070216Y-142472200D01*
X155672000Y-142808075D01*
X155672000Y-145682500D01*
X155692000Y-145682500D01*
X155692000Y-145782500D01*
X155672000Y-145782500D01*
X155672000Y-145802500D01*
X155572000Y-145802500D01*
X155572000Y-145782500D01*
X155552000Y-145782500D01*
X155552000Y-145682500D01*
X155572000Y-145682500D01*
X155572000Y-142808075D01*
X155173784Y-142472200D01*
X154692351Y-142607473D01*
X153854233Y-143144022D01*
X153285241Y-143960463D01*
X153201386Y-144342707D01*
X153201386Y-143932500D01*
X153096793Y-143376633D01*
X152768276Y-142866104D01*
X152627196Y-142769708D01*
X152970181Y-142627639D01*
X153392138Y-142205682D01*
X153620500Y-141654369D01*
X153620500Y-140031000D01*
X156704000Y-140031000D01*
X156704000Y-141654369D01*
X156932362Y-142205682D01*
X157354319Y-142627639D01*
X157905632Y-142856000D01*
X158579000Y-142856000D01*
X158954000Y-142481000D01*
X158954000Y-139656000D01*
X157079000Y-139656000D01*
X156704000Y-140031000D01*
X153620500Y-140031000D01*
X153245500Y-139656000D01*
X151370500Y-139656000D01*
X151370500Y-139676000D01*
X151270500Y-139676000D01*
X151270500Y-139656000D01*
X149395500Y-139656000D01*
X149020500Y-140031000D01*
X149020500Y-141654369D01*
X149248862Y-142205682D01*
X149466201Y-142423021D01*
X149016133Y-142507707D01*
X148505604Y-142836224D01*
X148163108Y-143337483D01*
X148133741Y-143482500D01*
X144314980Y-143482500D01*
X142397475Y-141564995D01*
X142852395Y-141385869D01*
X142877638Y-141369003D01*
X143693086Y-141707606D01*
X144592966Y-141708392D01*
X145424646Y-141364748D01*
X146061512Y-140728993D01*
X146406606Y-139897914D01*
X146407392Y-138998034D01*
X146395000Y-138968043D01*
X146395000Y-138599980D01*
X148538981Y-136456000D01*
X149085195Y-136456000D01*
X149095707Y-136511867D01*
X149349268Y-136905912D01*
X149248862Y-137006318D01*
X149020500Y-137557631D01*
X149020500Y-139181000D01*
X149395500Y-139556000D01*
X151270500Y-139556000D01*
X151270500Y-139536000D01*
X151370500Y-139536000D01*
X151370500Y-139556000D01*
X153245500Y-139556000D01*
X153620500Y-139181000D01*
X153620500Y-137557631D01*
X153392138Y-137006318D01*
X153288863Y-136903043D01*
X153529392Y-136551017D01*
X153649886Y-135956000D01*
X153649886Y-132456000D01*
X153570500Y-132034097D01*
X153570500Y-128820500D01*
X153473905Y-128334886D01*
X156754000Y-131614981D01*
G36*
X141689853Y-139431858D02*
X141675711Y-139446000D01*
X141689853Y-139460142D01*
X141619142Y-139530853D01*
X141605000Y-139516711D01*
X141590858Y-139530853D01*
X141520147Y-139460142D01*
X141534289Y-139446000D01*
X141520147Y-139431858D01*
X141590858Y-139361147D01*
X141605000Y-139375289D01*
X141619142Y-139361147D01*
X141689853Y-139431858D01*
X141689853Y-139431858D01*
G37*
X141689853Y-139431858D02*
X141675711Y-139446000D01*
X141689853Y-139460142D01*
X141619142Y-139530853D01*
X141605000Y-139516711D01*
X141590858Y-139530853D01*
X141520147Y-139460142D01*
X141534289Y-139446000D01*
X141520147Y-139431858D01*
X141590858Y-139361147D01*
X141605000Y-139375289D01*
X141619142Y-139361147D01*
X141689853Y-139431858D01*
G36*
X140205029Y-127067632D02*
X140342036Y-127159177D01*
X141050000Y-127300001D01*
X141050005Y-127300000D01*
X141632980Y-127300000D01*
X141821978Y-127338273D01*
X141946350Y-127462645D01*
X141946352Y-127462648D01*
X142546536Y-127863677D01*
X143254500Y-128004500D01*
X143552405Y-128004500D01*
X144004483Y-128313392D01*
X144599500Y-128433886D01*
X145849500Y-128433886D01*
X146005674Y-128404500D01*
X149128670Y-128404500D01*
X149050000Y-128800000D01*
X149070500Y-128903061D01*
X149070500Y-131956000D01*
X147607000Y-131956000D01*
X146745962Y-132127271D01*
X146016009Y-132615010D01*
X142554010Y-136077010D01*
X142066271Y-136806962D01*
X141989996Y-137190423D01*
X141194913Y-137176438D01*
X140357605Y-137506131D01*
X140332362Y-137522997D01*
X140001785Y-137385730D01*
X140029630Y-127005386D01*
X140111871Y-127005386D01*
X140205029Y-127067632D01*
X140205029Y-127067632D01*
G37*
X140205029Y-127067632D02*
X140342036Y-127159177D01*
X141050000Y-127300001D01*
X141050005Y-127300000D01*
X141632980Y-127300000D01*
X141821978Y-127338273D01*
X141946350Y-127462645D01*
X141946352Y-127462648D01*
X142546536Y-127863677D01*
X143254500Y-128004500D01*
X143552405Y-128004500D01*
X144004483Y-128313392D01*
X144599500Y-128433886D01*
X145849500Y-128433886D01*
X146005674Y-128404500D01*
X149128670Y-128404500D01*
X149050000Y-128800000D01*
X149070500Y-128903061D01*
X149070500Y-131956000D01*
X147607000Y-131956000D01*
X146745962Y-132127271D01*
X146016009Y-132615010D01*
X142554010Y-136077010D01*
X142066271Y-136806962D01*
X141989996Y-137190423D01*
X141194913Y-137176438D01*
X140357605Y-137506131D01*
X140332362Y-137522997D01*
X140001785Y-137385730D01*
X140029630Y-127005386D01*
X140111871Y-127005386D01*
X140205029Y-127067632D01*
G36*
X149123852Y-122740148D02*
X149724035Y-123141177D01*
X149961590Y-123188430D01*
X149245520Y-123904500D01*
X147174500Y-123904500D01*
X146974500Y-123704500D01*
X145274500Y-123704500D01*
X145274500Y-123724500D01*
X145174500Y-123724500D01*
X145174500Y-123704500D01*
X145154500Y-123704500D01*
X145154500Y-123604500D01*
X145174500Y-123604500D01*
X145174500Y-123584500D01*
X145274500Y-123584500D01*
X145274500Y-123604500D01*
X146974500Y-123604500D01*
X147349500Y-123229500D01*
X147349500Y-122606131D01*
X147302018Y-122491500D01*
X147349500Y-122376869D01*
X147349500Y-121753500D01*
X146974500Y-121378500D01*
X145274500Y-121378500D01*
X145274500Y-121404500D01*
X145227485Y-121404500D01*
X145279676Y-121278500D01*
X146974500Y-121278500D01*
X147318352Y-120934648D01*
X149123852Y-122740148D01*
X149123852Y-122740148D01*
G37*
X149123852Y-122740148D02*
X149724035Y-123141177D01*
X149961590Y-123188430D01*
X149245520Y-123904500D01*
X147174500Y-123904500D01*
X146974500Y-123704500D01*
X145274500Y-123704500D01*
X145274500Y-123724500D01*
X145174500Y-123724500D01*
X145174500Y-123704500D01*
X145154500Y-123704500D01*
X145154500Y-123604500D01*
X145174500Y-123604500D01*
X145174500Y-123584500D01*
X145274500Y-123584500D01*
X145274500Y-123604500D01*
X146974500Y-123604500D01*
X147349500Y-123229500D01*
X147349500Y-122606131D01*
X147302018Y-122491500D01*
X147349500Y-122376869D01*
X147349500Y-121753500D01*
X146974500Y-121378500D01*
X145274500Y-121378500D01*
X145274500Y-121404500D01*
X145227485Y-121404500D01*
X145279676Y-121278500D01*
X146974500Y-121278500D01*
X147318352Y-120934648D01*
X149123852Y-122740148D01*
G36*
X152220000Y-118350000D02*
X152200000Y-118350000D01*
X152200000Y-118370000D01*
X152100000Y-118370000D01*
X152100000Y-118350000D01*
X152080000Y-118350000D01*
X152080000Y-118250000D01*
X152220000Y-118250000D01*
X152220000Y-118350000D01*
X152220000Y-118350000D01*
G37*
X152220000Y-118350000D02*
X152200000Y-118350000D01*
X152200000Y-118370000D01*
X152100000Y-118370000D01*
X152100000Y-118350000D01*
X152080000Y-118350000D01*
X152080000Y-118250000D01*
X152220000Y-118250000D01*
X152220000Y-118350000D01*
G36*
X130955347Y-141699736D02*
X131600000Y-141711075D01*
X131600000Y-154450000D01*
X103692783Y-154450000D01*
X104349244Y-152869065D01*
X104349932Y-152080812D01*
X104612462Y-152256229D01*
X105473500Y-152427500D01*
X119888000Y-152427500D01*
X120749038Y-152256229D01*
X121478990Y-151768490D01*
X123905990Y-149341490D01*
X124393729Y-148611538D01*
X124409950Y-148529990D01*
X124565000Y-147750500D01*
X124565000Y-147554474D01*
X124670893Y-147395994D01*
X124865000Y-146420151D01*
X124865000Y-144790849D01*
X124670893Y-143815006D01*
X124565000Y-143656526D01*
X124565000Y-142593670D01*
X124700392Y-142395517D01*
X124719633Y-142300500D01*
X128427500Y-142300500D01*
X129288538Y-142129229D01*
X130018490Y-141641490D01*
X130261882Y-141398098D01*
X130955347Y-141699736D01*
X130955347Y-141699736D01*
G37*
X130955347Y-141699736D02*
X131600000Y-141711075D01*
X131600000Y-154450000D01*
X103692783Y-154450000D01*
X104349244Y-152869065D01*
X104349932Y-152080812D01*
X104612462Y-152256229D01*
X105473500Y-152427500D01*
X119888000Y-152427500D01*
X120749038Y-152256229D01*
X121478990Y-151768490D01*
X123905990Y-149341490D01*
X124393729Y-148611538D01*
X124409950Y-148529990D01*
X124565000Y-147750500D01*
X124565000Y-147554474D01*
X124670893Y-147395994D01*
X124865000Y-146420151D01*
X124865000Y-144790849D01*
X124670893Y-143815006D01*
X124565000Y-143656526D01*
X124565000Y-142593670D01*
X124700392Y-142395517D01*
X124719633Y-142300500D01*
X128427500Y-142300500D01*
X129288538Y-142129229D01*
X130018490Y-141641490D01*
X130261882Y-141398098D01*
X130955347Y-141699736D01*
G36*
X131600000Y-114755338D02*
X131171868Y-114578000D01*
X130727000Y-114578000D01*
X130352000Y-114953000D01*
X130352000Y-115013263D01*
X130346638Y-115000318D01*
X129924681Y-114578361D01*
X129373368Y-114350000D01*
X129125000Y-114350000D01*
X128750000Y-114725000D01*
X128750000Y-114937180D01*
X128650000Y-115037180D01*
X128650000Y-114725000D01*
X128275000Y-114350000D01*
X128237928Y-114350000D01*
X128196638Y-114250318D01*
X127774681Y-113828361D01*
X127223368Y-113600000D01*
X126725000Y-113600000D01*
X126350000Y-113975000D01*
X126350000Y-115800000D01*
X126370000Y-115800000D01*
X126370000Y-115900000D01*
X126350000Y-115900000D01*
X126350000Y-115920000D01*
X126250000Y-115920000D01*
X126250000Y-115900000D01*
X124550000Y-115900000D01*
X124175000Y-116275000D01*
X124175000Y-116898369D01*
X124193073Y-116942000D01*
X122601095Y-116942000D01*
X122149017Y-116633108D01*
X121554000Y-116512614D01*
X121240910Y-116512614D01*
X120878648Y-116150352D01*
X120278465Y-115749323D01*
X119570500Y-115608499D01*
X119570495Y-115608500D01*
X118981595Y-115608500D01*
X118529517Y-115299608D01*
X117934500Y-115179114D01*
X116634500Y-115179114D01*
X116078633Y-115283707D01*
X115573891Y-115608500D01*
X112157505Y-115608500D01*
X112157500Y-115608499D01*
X111449535Y-115749323D01*
X110849352Y-116150352D01*
X109338193Y-117661511D01*
X109220000Y-117638001D01*
X108358962Y-117809271D01*
X107629010Y-118297010D01*
X107188385Y-118737635D01*
X106969466Y-118410000D01*
X107217156Y-118039306D01*
X107396039Y-117140000D01*
X107217156Y-116240694D01*
X106707740Y-115478299D01*
X105945345Y-114968883D01*
X105104513Y-114801631D01*
X124175000Y-114801631D01*
X124175000Y-115425000D01*
X124550000Y-115800000D01*
X126250000Y-115800000D01*
X126250000Y-113975000D01*
X125875000Y-113600000D01*
X125376632Y-113600000D01*
X124825319Y-113828361D01*
X124403362Y-114250318D01*
X124175000Y-114801631D01*
X105104513Y-114801631D01*
X105046039Y-114790000D01*
X104953961Y-114790000D01*
X104682485Y-114844000D01*
X103695500Y-114844000D01*
X102834462Y-115015271D01*
X102221260Y-115425000D01*
X102104510Y-115503010D01*
X100644010Y-116963510D01*
X100156271Y-117693462D01*
X99985000Y-118554500D01*
X99985000Y-146939000D01*
X100126448Y-147650108D01*
X99138528Y-147649246D01*
X97539142Y-148310099D01*
X96550000Y-149297515D01*
X96550000Y-112701178D01*
X97532705Y-113685601D01*
X99130935Y-114349244D01*
X100861472Y-114350754D01*
X102460858Y-113689901D01*
X103685601Y-112467295D01*
X104349244Y-110869065D01*
X104350754Y-109138528D01*
X103694387Y-107550000D01*
X131600000Y-107550000D01*
X131600000Y-114755338D01*
X131600000Y-114755338D01*
G37*
X131600000Y-114755338D02*
X131171868Y-114578000D01*
X130727000Y-114578000D01*
X130352000Y-114953000D01*
X130352000Y-115013263D01*
X130346638Y-115000318D01*
X129924681Y-114578361D01*
X129373368Y-114350000D01*
X129125000Y-114350000D01*
X128750000Y-114725000D01*
X128750000Y-114937180D01*
X128650000Y-115037180D01*
X128650000Y-114725000D01*
X128275000Y-114350000D01*
X128237928Y-114350000D01*
X128196638Y-114250318D01*
X127774681Y-113828361D01*
X127223368Y-113600000D01*
X126725000Y-113600000D01*
X126350000Y-113975000D01*
X126350000Y-115800000D01*
X126370000Y-115800000D01*
X126370000Y-115900000D01*
X126350000Y-115900000D01*
X126350000Y-115920000D01*
X126250000Y-115920000D01*
X126250000Y-115900000D01*
X124550000Y-115900000D01*
X124175000Y-116275000D01*
X124175000Y-116898369D01*
X124193073Y-116942000D01*
X122601095Y-116942000D01*
X122149017Y-116633108D01*
X121554000Y-116512614D01*
X121240910Y-116512614D01*
X120878648Y-116150352D01*
X120278465Y-115749323D01*
X119570500Y-115608499D01*
X119570495Y-115608500D01*
X118981595Y-115608500D01*
X118529517Y-115299608D01*
X117934500Y-115179114D01*
X116634500Y-115179114D01*
X116078633Y-115283707D01*
X115573891Y-115608500D01*
X112157505Y-115608500D01*
X112157500Y-115608499D01*
X111449535Y-115749323D01*
X110849352Y-116150352D01*
X109338193Y-117661511D01*
X109220000Y-117638001D01*
X108358962Y-117809271D01*
X107629010Y-118297010D01*
X107188385Y-118737635D01*
X106969466Y-118410000D01*
X107217156Y-118039306D01*
X107396039Y-117140000D01*
X107217156Y-116240694D01*
X106707740Y-115478299D01*
X105945345Y-114968883D01*
X105104513Y-114801631D01*
X124175000Y-114801631D01*
X124175000Y-115425000D01*
X124550000Y-115800000D01*
X126250000Y-115800000D01*
X126250000Y-113975000D01*
X125875000Y-113600000D01*
X125376632Y-113600000D01*
X124825319Y-113828361D01*
X124403362Y-114250318D01*
X124175000Y-114801631D01*
X105104513Y-114801631D01*
X105046039Y-114790000D01*
X104953961Y-114790000D01*
X104682485Y-114844000D01*
X103695500Y-114844000D01*
X102834462Y-115015271D01*
X102221260Y-115425000D01*
X102104510Y-115503010D01*
X100644010Y-116963510D01*
X100156271Y-117693462D01*
X99985000Y-118554500D01*
X99985000Y-146939000D01*
X100126448Y-147650108D01*
X99138528Y-147649246D01*
X97539142Y-148310099D01*
X96550000Y-149297515D01*
X96550000Y-112701178D01*
X97532705Y-113685601D01*
X99130935Y-114349244D01*
X100861472Y-114350754D01*
X102460858Y-113689901D01*
X103685601Y-112467295D01*
X104349244Y-110869065D01*
X104350754Y-109138528D01*
X103694387Y-107550000D01*
X131600000Y-107550000D01*
X131600000Y-114755338D01*
G36*
X131600000Y-137186378D02*
X131034913Y-137176438D01*
X130197605Y-137506131D01*
X130172362Y-137522997D01*
X129356914Y-137184394D01*
X128457034Y-137183608D01*
X127625354Y-137527252D01*
X127351628Y-137800500D01*
X124726805Y-137800500D01*
X124716293Y-137744633D01*
X124462732Y-137350588D01*
X124563138Y-137250182D01*
X124791500Y-136698869D01*
X124791500Y-135075500D01*
X124416500Y-134700500D01*
X122541500Y-134700500D01*
X122541500Y-134720500D01*
X122441500Y-134720500D01*
X122441500Y-134700500D01*
X120566500Y-134700500D01*
X120191500Y-135075500D01*
X120191500Y-136698869D01*
X120419862Y-137250182D01*
X120523137Y-137353457D01*
X120282608Y-137705483D01*
X120263367Y-137800500D01*
X118840980Y-137800500D01*
X118549047Y-137508567D01*
X118513425Y-137319251D01*
X118584000Y-137148869D01*
X118584000Y-136525500D01*
X118209000Y-136150500D01*
X116509000Y-136150500D01*
X116509000Y-136170500D01*
X116409000Y-136170500D01*
X116409000Y-136150500D01*
X114709000Y-136150500D01*
X114334000Y-136525500D01*
X114334000Y-137148869D01*
X114409693Y-137331607D01*
X114304614Y-137850500D01*
X114304614Y-138119816D01*
X114209000Y-138600500D01*
X114304614Y-139081184D01*
X114304614Y-139350500D01*
X114409207Y-139906367D01*
X114737724Y-140416896D01*
X115238983Y-140759392D01*
X115485918Y-140809398D01*
X116318010Y-141641490D01*
X117047962Y-142129229D01*
X117909000Y-142300500D01*
X120065000Y-142300500D01*
X120065000Y-143656526D01*
X119959107Y-143815006D01*
X119815000Y-144539482D01*
X119670893Y-143815006D01*
X119118122Y-142987727D01*
X118290843Y-142434956D01*
X117315000Y-142240849D01*
X116339157Y-142434956D01*
X115511878Y-142987727D01*
X114959107Y-143815006D01*
X114815000Y-144539482D01*
X114670893Y-143815006D01*
X114118122Y-142987727D01*
X113290843Y-142434956D01*
X112315000Y-142240849D01*
X111339157Y-142434956D01*
X110511878Y-142987727D01*
X109959107Y-143815006D01*
X109865000Y-144288114D01*
X109865000Y-143507132D01*
X109636639Y-142955819D01*
X109214682Y-142533862D01*
X108663369Y-142305500D01*
X107740000Y-142305500D01*
X107365000Y-142680500D01*
X107365000Y-145555500D01*
X107385000Y-145555500D01*
X107385000Y-145655500D01*
X107365000Y-145655500D01*
X107365000Y-145675500D01*
X107265000Y-145675500D01*
X107265000Y-145655500D01*
X105140000Y-145655500D01*
X104765000Y-146030500D01*
X104765000Y-146287020D01*
X104485000Y-146007020D01*
X104485000Y-143507132D01*
X104765000Y-143507132D01*
X104765000Y-145180500D01*
X105140000Y-145555500D01*
X107265000Y-145555500D01*
X107265000Y-142680500D01*
X106890000Y-142305500D01*
X106255801Y-142305500D01*
X106699682Y-142121638D01*
X107121639Y-141699681D01*
X107350000Y-141148368D01*
X107350000Y-140425000D01*
X106975000Y-140050000D01*
X105050000Y-140050000D01*
X105050000Y-141975000D01*
X105425000Y-142350000D01*
X105859199Y-142350000D01*
X105415318Y-142533862D01*
X104993361Y-142955819D01*
X104765000Y-143507132D01*
X104485000Y-143507132D01*
X104485000Y-142350000D01*
X104575000Y-142350000D01*
X104950000Y-141975000D01*
X104950000Y-140050000D01*
X104930000Y-140050000D01*
X104930000Y-139950000D01*
X104950000Y-139950000D01*
X104950000Y-139930000D01*
X105050000Y-139930000D01*
X105050000Y-139950000D01*
X106975000Y-139950000D01*
X107350000Y-139575000D01*
X107350000Y-138851632D01*
X107173275Y-138424979D01*
X107217156Y-138359306D01*
X107396039Y-137460000D01*
X107237626Y-136663606D01*
X107641965Y-136583177D01*
X108242148Y-136182148D01*
X112219136Y-132205160D01*
X112173348Y-132315430D01*
X112172654Y-133111079D01*
X112476494Y-133846429D01*
X113038612Y-134409529D01*
X113773430Y-134714652D01*
X114473536Y-134715263D01*
X114334000Y-135052131D01*
X114334000Y-135675500D01*
X114709000Y-136050500D01*
X116409000Y-136050500D01*
X116409000Y-134225500D01*
X116509000Y-134225500D01*
X116509000Y-136050500D01*
X118209000Y-136050500D01*
X118584000Y-135675500D01*
X118584000Y-135052131D01*
X118355638Y-134500818D01*
X117933681Y-134078861D01*
X117382368Y-133850500D01*
X116884000Y-133850500D01*
X116509000Y-134225500D01*
X116409000Y-134225500D01*
X116034000Y-133850500D01*
X115866415Y-133850500D01*
X115867529Y-133849388D01*
X116018510Y-133485785D01*
X116036145Y-133468150D01*
X116036148Y-133468148D01*
X116437177Y-132867964D01*
X116460864Y-132748883D01*
X116496136Y-132571558D01*
X116678000Y-132608386D01*
X118178000Y-132608386D01*
X118601239Y-132528749D01*
X118994500Y-132608386D01*
X120191500Y-132608386D01*
X120191500Y-134225500D01*
X120566500Y-134600500D01*
X122441500Y-134600500D01*
X122441500Y-131775500D01*
X122394500Y-131728500D01*
X122394500Y-130479000D01*
X122494500Y-130479000D01*
X122494500Y-132204000D01*
X122541500Y-132251000D01*
X122541500Y-134600500D01*
X124416500Y-134600500D01*
X124791500Y-134225500D01*
X124791500Y-132602131D01*
X124563138Y-132050818D01*
X124453570Y-131941250D01*
X124466139Y-131928681D01*
X124694500Y-131377368D01*
X124694500Y-130854000D01*
X124319500Y-130479000D01*
X122494500Y-130479000D01*
X122394500Y-130479000D01*
X122374500Y-130479000D01*
X122374500Y-130379000D01*
X122394500Y-130379000D01*
X122394500Y-128654000D01*
X122494500Y-128654000D01*
X122494500Y-130379000D01*
X124319500Y-130379000D01*
X124694500Y-130004000D01*
X124694500Y-129480632D01*
X124466139Y-128929319D01*
X124044182Y-128507362D01*
X123492869Y-128279000D01*
X122869500Y-128279000D01*
X122494500Y-128654000D01*
X122394500Y-128654000D01*
X122019500Y-128279000D01*
X121396131Y-128279000D01*
X121122225Y-128392456D01*
X121089517Y-128370108D01*
X120494500Y-128249614D01*
X118994500Y-128249614D01*
X118571261Y-128329251D01*
X118178000Y-128249614D01*
X116678000Y-128249614D01*
X116122133Y-128354207D01*
X116084854Y-128378196D01*
X116073017Y-128370108D01*
X116057359Y-128366937D01*
X116526796Y-127897500D01*
X128523995Y-127897500D01*
X128524000Y-127897501D01*
X129231965Y-127756677D01*
X129832148Y-127355648D01*
X130115796Y-127072000D01*
X130302000Y-127072000D01*
X130636891Y-127005386D01*
X130873500Y-127005386D01*
X131429367Y-126900793D01*
X131600000Y-126790993D01*
X131600000Y-137186378D01*
X131600000Y-137186378D01*
G37*
X131600000Y-137186378D02*
X131034913Y-137176438D01*
X130197605Y-137506131D01*
X130172362Y-137522997D01*
X129356914Y-137184394D01*
X128457034Y-137183608D01*
X127625354Y-137527252D01*
X127351628Y-137800500D01*
X124726805Y-137800500D01*
X124716293Y-137744633D01*
X124462732Y-137350588D01*
X124563138Y-137250182D01*
X124791500Y-136698869D01*
X124791500Y-135075500D01*
X124416500Y-134700500D01*
X122541500Y-134700500D01*
X122541500Y-134720500D01*
X122441500Y-134720500D01*
X122441500Y-134700500D01*
X120566500Y-134700500D01*
X120191500Y-135075500D01*
X120191500Y-136698869D01*
X120419862Y-137250182D01*
X120523137Y-137353457D01*
X120282608Y-137705483D01*
X120263367Y-137800500D01*
X118840980Y-137800500D01*
X118549047Y-137508567D01*
X118513425Y-137319251D01*
X118584000Y-137148869D01*
X118584000Y-136525500D01*
X118209000Y-136150500D01*
X116509000Y-136150500D01*
X116509000Y-136170500D01*
X116409000Y-136170500D01*
X116409000Y-136150500D01*
X114709000Y-136150500D01*
X114334000Y-136525500D01*
X114334000Y-137148869D01*
X114409693Y-137331607D01*
X114304614Y-137850500D01*
X114304614Y-138119816D01*
X114209000Y-138600500D01*
X114304614Y-139081184D01*
X114304614Y-139350500D01*
X114409207Y-139906367D01*
X114737724Y-140416896D01*
X115238983Y-140759392D01*
X115485918Y-140809398D01*
X116318010Y-141641490D01*
X117047962Y-142129229D01*
X117909000Y-142300500D01*
X120065000Y-142300500D01*
X120065000Y-143656526D01*
X119959107Y-143815006D01*
X119815000Y-144539482D01*
X119670893Y-143815006D01*
X119118122Y-142987727D01*
X118290843Y-142434956D01*
X117315000Y-142240849D01*
X116339157Y-142434956D01*
X115511878Y-142987727D01*
X114959107Y-143815006D01*
X114815000Y-144539482D01*
X114670893Y-143815006D01*
X114118122Y-142987727D01*
X113290843Y-142434956D01*
X112315000Y-142240849D01*
X111339157Y-142434956D01*
X110511878Y-142987727D01*
X109959107Y-143815006D01*
X109865000Y-144288114D01*
X109865000Y-143507132D01*
X109636639Y-142955819D01*
X109214682Y-142533862D01*
X108663369Y-142305500D01*
X107740000Y-142305500D01*
X107365000Y-142680500D01*
X107365000Y-145555500D01*
X107385000Y-145555500D01*
X107385000Y-145655500D01*
X107365000Y-145655500D01*
X107365000Y-145675500D01*
X107265000Y-145675500D01*
X107265000Y-145655500D01*
X105140000Y-145655500D01*
X104765000Y-146030500D01*
X104765000Y-146287020D01*
X104485000Y-146007020D01*
X104485000Y-143507132D01*
X104765000Y-143507132D01*
X104765000Y-145180500D01*
X105140000Y-145555500D01*
X107265000Y-145555500D01*
X107265000Y-142680500D01*
X106890000Y-142305500D01*
X106255801Y-142305500D01*
X106699682Y-142121638D01*
X107121639Y-141699681D01*
X107350000Y-141148368D01*
X107350000Y-140425000D01*
X106975000Y-140050000D01*
X105050000Y-140050000D01*
X105050000Y-141975000D01*
X105425000Y-142350000D01*
X105859199Y-142350000D01*
X105415318Y-142533862D01*
X104993361Y-142955819D01*
X104765000Y-143507132D01*
X104485000Y-143507132D01*
X104485000Y-142350000D01*
X104575000Y-142350000D01*
X104950000Y-141975000D01*
X104950000Y-140050000D01*
X104930000Y-140050000D01*
X104930000Y-139950000D01*
X104950000Y-139950000D01*
X104950000Y-139930000D01*
X105050000Y-139930000D01*
X105050000Y-139950000D01*
X106975000Y-139950000D01*
X107350000Y-139575000D01*
X107350000Y-138851632D01*
X107173275Y-138424979D01*
X107217156Y-138359306D01*
X107396039Y-137460000D01*
X107237626Y-136663606D01*
X107641965Y-136583177D01*
X108242148Y-136182148D01*
X112219136Y-132205160D01*
X112173348Y-132315430D01*
X112172654Y-133111079D01*
X112476494Y-133846429D01*
X113038612Y-134409529D01*
X113773430Y-134714652D01*
X114473536Y-134715263D01*
X114334000Y-135052131D01*
X114334000Y-135675500D01*
X114709000Y-136050500D01*
X116409000Y-136050500D01*
X116409000Y-134225500D01*
X116509000Y-134225500D01*
X116509000Y-136050500D01*
X118209000Y-136050500D01*
X118584000Y-135675500D01*
X118584000Y-135052131D01*
X118355638Y-134500818D01*
X117933681Y-134078861D01*
X117382368Y-133850500D01*
X116884000Y-133850500D01*
X116509000Y-134225500D01*
X116409000Y-134225500D01*
X116034000Y-133850500D01*
X115866415Y-133850500D01*
X115867529Y-133849388D01*
X116018510Y-133485785D01*
X116036145Y-133468150D01*
X116036148Y-133468148D01*
X116437177Y-132867964D01*
X116460864Y-132748883D01*
X116496136Y-132571558D01*
X116678000Y-132608386D01*
X118178000Y-132608386D01*
X118601239Y-132528749D01*
X118994500Y-132608386D01*
X120191500Y-132608386D01*
X120191500Y-134225500D01*
X120566500Y-134600500D01*
X122441500Y-134600500D01*
X122441500Y-131775500D01*
X122394500Y-131728500D01*
X122394500Y-130479000D01*
X122494500Y-130479000D01*
X122494500Y-132204000D01*
X122541500Y-132251000D01*
X122541500Y-134600500D01*
X124416500Y-134600500D01*
X124791500Y-134225500D01*
X124791500Y-132602131D01*
X124563138Y-132050818D01*
X124453570Y-131941250D01*
X124466139Y-131928681D01*
X124694500Y-131377368D01*
X124694500Y-130854000D01*
X124319500Y-130479000D01*
X122494500Y-130479000D01*
X122394500Y-130479000D01*
X122374500Y-130479000D01*
X122374500Y-130379000D01*
X122394500Y-130379000D01*
X122394500Y-128654000D01*
X122494500Y-128654000D01*
X122494500Y-130379000D01*
X124319500Y-130379000D01*
X124694500Y-130004000D01*
X124694500Y-129480632D01*
X124466139Y-128929319D01*
X124044182Y-128507362D01*
X123492869Y-128279000D01*
X122869500Y-128279000D01*
X122494500Y-128654000D01*
X122394500Y-128654000D01*
X122019500Y-128279000D01*
X121396131Y-128279000D01*
X121122225Y-128392456D01*
X121089517Y-128370108D01*
X120494500Y-128249614D01*
X118994500Y-128249614D01*
X118571261Y-128329251D01*
X118178000Y-128249614D01*
X116678000Y-128249614D01*
X116122133Y-128354207D01*
X116084854Y-128378196D01*
X116073017Y-128370108D01*
X116057359Y-128366937D01*
X116526796Y-127897500D01*
X128523995Y-127897500D01*
X128524000Y-127897501D01*
X129231965Y-127756677D01*
X129832148Y-127355648D01*
X130115796Y-127072000D01*
X130302000Y-127072000D01*
X130636891Y-127005386D01*
X130873500Y-127005386D01*
X131429367Y-126900793D01*
X131600000Y-126790993D01*
X131600000Y-137186378D01*
G36*
X131529853Y-139431858D02*
X131515711Y-139446000D01*
X131529853Y-139460142D01*
X131459142Y-139530853D01*
X131445000Y-139516711D01*
X131430858Y-139530853D01*
X131360147Y-139460142D01*
X131374289Y-139446000D01*
X131360147Y-139431858D01*
X131430858Y-139361147D01*
X131445000Y-139375289D01*
X131459142Y-139361147D01*
X131529853Y-139431858D01*
X131529853Y-139431858D01*
G37*
X131529853Y-139431858D02*
X131515711Y-139446000D01*
X131529853Y-139460142D01*
X131459142Y-139530853D01*
X131445000Y-139516711D01*
X131430858Y-139530853D01*
X131360147Y-139460142D01*
X131374289Y-139446000D01*
X131360147Y-139431858D01*
X131430858Y-139361147D01*
X131445000Y-139375289D01*
X131459142Y-139361147D01*
X131529853Y-139431858D01*
M02*
