G04 #@! TF.FileFunction,Soldermask,Top*
%FSLAX46Y46*%
G04 Gerber Fmt 4.6, Leading zero omitted, Abs format (unit mm)*
G04 Created by KiCad (PCBNEW 4.0.6) date 2017 August 14, Monday 14:56:33*
%MOMM*%
%LPD*%
G01*
G04 APERTURE LIST*
%ADD10C,0.100000*%
%ADD11R,2.100000X3.600000*%
%ADD12O,2.100000X3.600000*%
%ADD13R,1.600000X2.400000*%
%ADD14O,1.600000X2.400000*%
%ADD15R,1.600000X1.600000*%
%ADD16C,1.600000*%
%ADD17C,1.620000*%
%ADD18R,1.100000X1.100000*%
%ADD19R,1.500000X1.500000*%
%ADD20C,7.500000*%
%ADD21C,7.600000*%
%ADD22C,2.500000*%
%ADD23C,2.000000*%
%ADD24C,3.000000*%
%ADD25C,1.500000*%
%ADD26O,6.000000X9.000000*%
%ADD27O,9.000000X6.000000*%
%ADD28R,1.700000X1.700000*%
%ADD29O,1.700000X1.700000*%
%ADD30R,3.600000X2.100000*%
%ADD31O,3.600000X2.100000*%
%ADD32R,1.250000X1.500000*%
%ADD33R,1.500000X1.250000*%
%ADD34R,1.500000X1.300000*%
%ADD35R,3.500000X1.800000*%
%ADD36R,1.300000X1.500000*%
%ADD37R,1.143000X0.508000*%
%ADD38R,1.600000X3.500000*%
%ADD39C,5.700000*%
%ADD40R,0.750000X0.800000*%
%ADD41R,2.400000X1.600000*%
%ADD42O,2.400000X1.600000*%
%ADD43R,1.350000X1.350000*%
%ADD44O,1.350000X1.350000*%
%ADD45C,2.400000*%
%ADD46O,2.400000X2.400000*%
%ADD47R,1.300000X1.300000*%
%ADD48C,1.300000*%
%ADD49C,5.000000*%
%ADD50C,9.100000*%
%ADD51R,2.400000X3.000000*%
%ADD52C,3.100000*%
%ADD53C,2.200000*%
%ADD54C,15.000000*%
%ADD55C,2.100000*%
G04 APERTURE END LIST*
D10*
D11*
X38354000Y-74168000D03*
D12*
X43354000Y-74168000D03*
X48354000Y-74168000D03*
D11*
X57658000Y-74168000D03*
D12*
X62658000Y-74168000D03*
X67658000Y-74168000D03*
X72658000Y-74168000D03*
D11*
X82042000Y-74168000D03*
D12*
X87042000Y-74168000D03*
D13*
X59944000Y-32512000D03*
D14*
X67564000Y-24892000D03*
X62484000Y-32512000D03*
X65024000Y-24892000D03*
X65024000Y-32512000D03*
X62484000Y-24892000D03*
X67564000Y-32512000D03*
X59944000Y-24892000D03*
D13*
X83566000Y-32766000D03*
D14*
X91186000Y-25146000D03*
X86106000Y-32766000D03*
X88646000Y-25146000D03*
X88646000Y-32766000D03*
X86106000Y-25146000D03*
X91186000Y-32766000D03*
X83566000Y-25146000D03*
D13*
X35560000Y-32512000D03*
D14*
X43180000Y-24892000D03*
X38100000Y-32512000D03*
X40640000Y-24892000D03*
X40640000Y-32512000D03*
X38100000Y-24892000D03*
X43180000Y-32512000D03*
X35560000Y-24892000D03*
D15*
X31750000Y-65151000D03*
D16*
X29250000Y-65151000D03*
D15*
X48768000Y-65786000D03*
D16*
X51268000Y-65786000D03*
D17*
X43180000Y-44624000D03*
X38180000Y-42124000D03*
X43180000Y-39624000D03*
X67564000Y-44624000D03*
X62564000Y-42124000D03*
X67564000Y-39624000D03*
X91186000Y-44878000D03*
X86186000Y-42378000D03*
X91186000Y-39878000D03*
D18*
X55308000Y-58166000D03*
X55308000Y-53086000D03*
X55308000Y-55626000D03*
D19*
X68008000Y-61976000D03*
X65468000Y-61976000D03*
X62928000Y-61976000D03*
X68008000Y-49276000D03*
X65468000Y-49276000D03*
X62928000Y-49276000D03*
D18*
X79184000Y-58166000D03*
X79184000Y-53086000D03*
X79184000Y-55626000D03*
D19*
X91884000Y-61976000D03*
X89344000Y-61976000D03*
X86804000Y-61976000D03*
X91884000Y-49276000D03*
X89344000Y-49276000D03*
X86804000Y-49276000D03*
D18*
X31178000Y-58166000D03*
X31178000Y-53086000D03*
X31178000Y-55626000D03*
D19*
X43878000Y-61976000D03*
X41338000Y-61976000D03*
X38798000Y-61976000D03*
X43878000Y-49276000D03*
X41338000Y-49276000D03*
X38798000Y-49276000D03*
D20*
X20440000Y-20594000D03*
X103440000Y-20594000D03*
X20440000Y-78594000D03*
X103440000Y-78594000D03*
D21*
X118781000Y-21196000D03*
X118781000Y-79196000D03*
X244781000Y-79196000D03*
D22*
X175641000Y-49276000D03*
D23*
X201891000Y-63526000D03*
X149391000Y-35026000D03*
X201891000Y-35026000D03*
D24*
X199141000Y-37901000D03*
X195141000Y-37901000D03*
X177641000Y-37901000D03*
X173641000Y-37901000D03*
X162141000Y-37901000D03*
X199141000Y-60651000D03*
X180641000Y-60651000D03*
X167641000Y-60651000D03*
X162141000Y-60651000D03*
X152141000Y-60651000D03*
X152141000Y-37901000D03*
D23*
X149391000Y-63526000D03*
D11*
X139700000Y-25196000D03*
D12*
X134700000Y-25196000D03*
X129700000Y-25196000D03*
D11*
X185547000Y-25196000D03*
D12*
X180547000Y-25196000D03*
X175547000Y-25196000D03*
D11*
X224155000Y-25196000D03*
D12*
X219155000Y-25196000D03*
D11*
X153416000Y-75196000D03*
D12*
X158416000Y-75196000D03*
D11*
X200152000Y-25146000D03*
D12*
X195152000Y-25146000D03*
D11*
X169037000Y-75196000D03*
D12*
X174037000Y-75196000D03*
X179037000Y-75196000D03*
X184037000Y-75196000D03*
D25*
X231521000Y-61971000D03*
X231521000Y-65791000D03*
D26*
X210121000Y-58631000D03*
X210121000Y-69131000D03*
D25*
X231521000Y-63881000D03*
X231521000Y-38222000D03*
X231521000Y-42042000D03*
D26*
X210121000Y-34882000D03*
X210121000Y-45382000D03*
D25*
X231521000Y-40132000D03*
X136657000Y-70866000D03*
X132837000Y-70866000D03*
D27*
X139997000Y-49466000D03*
X129497000Y-49466000D03*
D25*
X134747000Y-70866000D03*
D21*
X244781000Y-21196000D03*
D28*
X95000000Y-103200000D03*
D29*
X95000000Y-100660000D03*
X95000000Y-98120000D03*
D30*
X94400000Y-119500000D03*
D31*
X94400000Y-114500000D03*
X94400000Y-109500000D03*
D32*
X46300000Y-99350000D03*
X46300000Y-96850000D03*
D33*
X74650000Y-99300000D03*
X72150000Y-99300000D03*
D32*
X72400000Y-102432000D03*
X72400000Y-104932000D03*
X65224500Y-99828500D03*
X65224500Y-102328500D03*
X65224500Y-104654500D03*
X65224500Y-107154500D03*
D34*
X42444500Y-111429000D03*
X39744500Y-111429000D03*
D35*
X89632000Y-97332000D03*
X84632000Y-97332000D03*
D28*
X25000000Y-121000000D03*
D29*
X25000000Y-118460000D03*
X25000000Y-115920000D03*
X25000000Y-113380000D03*
X25000000Y-110840000D03*
X25000000Y-108300000D03*
X25000000Y-105760000D03*
X25000000Y-103220000D03*
X25000000Y-100680000D03*
X25000000Y-98140000D03*
D11*
X27315000Y-126605500D03*
D12*
X32315000Y-126605500D03*
X37315000Y-126605500D03*
X42315000Y-126605500D03*
D11*
X70622000Y-126732500D03*
D12*
X75622000Y-126732500D03*
X80622000Y-126732500D03*
D36*
X37284500Y-98458500D03*
X37284500Y-101158500D03*
D34*
X34728000Y-111429000D03*
X37428000Y-111429000D03*
D36*
X40904000Y-99792000D03*
X40904000Y-102492000D03*
D34*
X77350000Y-97400000D03*
X74650000Y-97400000D03*
X84893000Y-109016000D03*
X87593000Y-109016000D03*
D36*
X90650000Y-125900000D03*
X90650000Y-128600000D03*
X93400000Y-128600000D03*
X93400000Y-125900000D03*
D28*
X80500000Y-97400000D03*
D37*
X50302000Y-97332000D03*
X50302000Y-98602000D03*
X50302000Y-99872000D03*
X50302000Y-101142000D03*
X50302000Y-102412000D03*
X50302000Y-103682000D03*
X50302000Y-104952000D03*
X50302000Y-106222000D03*
X60462000Y-106222000D03*
X60462000Y-104952000D03*
X60462000Y-103682000D03*
X60462000Y-102412000D03*
X60462000Y-101142000D03*
X60462000Y-99872000D03*
X60462000Y-98602000D03*
X60462000Y-97332000D03*
D38*
X42491500Y-121050500D03*
X42491500Y-115650500D03*
D32*
X36459000Y-119600500D03*
X36459000Y-117100500D03*
D38*
X71320500Y-115206000D03*
X71320500Y-120606000D03*
X79004000Y-120606000D03*
X79004000Y-115206000D03*
D36*
X90650000Y-133600000D03*
X90650000Y-130900000D03*
X93400000Y-133600000D03*
X93400000Y-130900000D03*
D39*
X20000000Y-91000000D03*
X20000000Y-133000000D03*
X100000000Y-91000000D03*
X100000000Y-133000000D03*
D40*
X48700000Y-98750000D03*
X48700000Y-97250000D03*
X63500000Y-99850000D03*
X63500000Y-101350000D03*
X62400000Y-104950000D03*
X62400000Y-106450000D03*
D23*
X48880000Y-120500000D03*
X51420000Y-120500000D03*
X59040000Y-120500000D03*
X61580000Y-120500000D03*
X64120000Y-120500000D03*
D11*
X220676000Y-148831600D03*
D12*
X225676000Y-148831600D03*
X230676000Y-148831600D03*
D41*
X229058000Y-125108000D03*
D42*
X221438000Y-117488000D03*
X229058000Y-122568000D03*
X221438000Y-120028000D03*
X229058000Y-120028000D03*
X221438000Y-122568000D03*
X229058000Y-117488000D03*
X221438000Y-125108000D03*
D43*
X235154000Y-106312000D03*
D44*
X235154000Y-108312000D03*
D30*
X246685600Y-122923600D03*
D31*
X246685600Y-117923600D03*
D45*
X128982000Y-130950000D03*
D46*
X128982000Y-153350000D03*
D45*
X129000000Y-115786200D03*
D46*
X129000000Y-93386200D03*
D45*
X144000000Y-153302000D03*
D46*
X144000000Y-130902000D03*
D45*
X144000000Y-93358000D03*
D46*
X144000000Y-115758000D03*
D45*
X159000000Y-130950000D03*
D46*
X159000000Y-153350000D03*
D45*
X159000000Y-115710000D03*
D46*
X159000000Y-93310000D03*
D22*
X112472000Y-127020000D03*
X112472000Y-119520000D03*
D47*
X220549000Y-136157000D03*
D48*
X223049000Y-136157000D03*
D47*
X228042000Y-136157000D03*
D48*
X230542000Y-136157000D03*
D49*
X249000000Y-98000000D03*
X249000000Y-149000000D03*
X119000000Y-149000000D03*
X119000000Y-99000000D03*
D23*
X176480000Y-131204000D03*
X176480000Y-115964000D03*
D22*
X196800000Y-131204000D03*
X196800000Y-123584000D03*
X196800000Y-115964000D03*
D17*
X208966600Y-114951800D03*
X213966600Y-117451800D03*
X208966600Y-119951800D03*
X208966600Y-125518200D03*
X213966600Y-128018200D03*
X208966600Y-130518200D03*
D50*
X132000000Y28000000D03*
D51*
X116200000Y43030000D03*
X116200000Y19770000D03*
X116200000Y35180000D03*
X119380000Y19770000D03*
X119380000Y35180000D03*
X116200000Y27480000D03*
X119380000Y27480000D03*
X122550000Y27480000D03*
X116200000Y12080000D03*
X119380000Y12080000D03*
X124380000Y12080000D03*
X132000000Y43030000D03*
X137000000Y12080000D03*
X141800000Y12080000D03*
X146600000Y12080000D03*
X146600000Y20280000D03*
X141800000Y36070000D03*
X141800000Y43030000D03*
X141800000Y28480000D03*
X146600000Y28480000D03*
X146600000Y36070000D03*
X147800000Y43030000D03*
D52*
X113900000Y47100000D03*
D28*
X93956800Y54543200D03*
X93956800Y24698200D03*
X170029800Y54416200D03*
D53*
X105082000Y-2556000D03*
X105082000Y12444000D03*
X105082000Y15986000D03*
X105082000Y30986000D03*
X105082000Y35290000D03*
X105082000Y50290000D03*
D45*
X179377000Y36433000D03*
D46*
X179377000Y21193000D03*
D45*
X81587000Y21701000D03*
D46*
X81587000Y36941000D03*
D45*
X100256000Y56753000D03*
D46*
X85016000Y56753000D03*
D54*
X170000000Y12250000D03*
X170000000Y43750000D03*
X94000000Y43750000D03*
X94000000Y12250000D03*
D11*
X123624000Y58785000D03*
D12*
X118624000Y58785000D03*
X113624000Y58785000D03*
D11*
X113565600Y-2937000D03*
D12*
X118565600Y-2937000D03*
X123565600Y-2937000D03*
D11*
X141658000Y58785000D03*
D12*
X136658000Y58785000D03*
X131658000Y58785000D03*
D11*
X131701200Y-2937000D03*
D12*
X136701200Y-2937000D03*
X141701200Y-2937000D03*
D11*
X159692000Y58785000D03*
D12*
X154692000Y58785000D03*
X149692000Y58785000D03*
D11*
X149786000Y-2937000D03*
D12*
X154786000Y-2937000D03*
X159786000Y-2937000D03*
D30*
X200713000Y23098000D03*
D31*
X200713000Y28098000D03*
X200713000Y33098000D03*
D30*
X63807000Y31988000D03*
D31*
X63807000Y26988000D03*
D10*
G36*
X71500130Y46101746D02*
X68954546Y48647330D01*
X70439470Y50132254D01*
X72985054Y47586670D01*
X71500130Y46101746D01*
X71500130Y46101746D01*
G37*
D55*
X73975004Y52182864D02*
X75035664Y51122204D01*
M02*
