G04 #@! TF.FileFunction,Paste,Top*
%FSLAX46Y46*%
G04 Gerber Fmt 4.6, Leading zero omitted, Abs format (unit mm)*
G04 Created by KiCad (PCBNEW 4.0.6) date 2017 August 07, Monday 22:44:53*
%MOMM*%
%LPD*%
G01*
G04 APERTURE LIST*
%ADD10C,0.100000*%
%ADD11R,1.250000X1.500000*%
%ADD12R,1.500000X1.250000*%
%ADD13R,1.500000X1.300000*%
%ADD14R,3.500000X1.800000*%
%ADD15R,1.300000X1.500000*%
%ADD16R,1.143000X0.508000*%
%ADD17R,1.600000X3.500000*%
%ADD18R,0.750000X0.800000*%
G04 APERTURE END LIST*
D10*
D11*
X227392000Y-134479000D03*
X227392000Y-131979000D03*
D12*
X255742000Y-134429000D03*
X253242000Y-134429000D03*
D11*
X253492000Y-137561000D03*
X253492000Y-140061000D03*
X246316500Y-134957500D03*
X246316500Y-137457500D03*
X246316500Y-139783500D03*
X246316500Y-142283500D03*
D13*
X223536500Y-146558000D03*
X220836500Y-146558000D03*
D14*
X270724000Y-132461000D03*
X265724000Y-132461000D03*
D15*
X218376500Y-133587500D03*
X218376500Y-136287500D03*
D13*
X215820000Y-146558000D03*
X218520000Y-146558000D03*
D15*
X221996000Y-134921000D03*
X221996000Y-137621000D03*
D13*
X258442000Y-132529000D03*
X255742000Y-132529000D03*
X265985000Y-144145000D03*
X268685000Y-144145000D03*
D15*
X271742000Y-161029000D03*
X271742000Y-163729000D03*
X274492000Y-163729000D03*
X274492000Y-161029000D03*
D16*
X231394000Y-132461000D03*
X231394000Y-133731000D03*
X231394000Y-135001000D03*
X231394000Y-136271000D03*
X231394000Y-137541000D03*
X231394000Y-138811000D03*
X231394000Y-140081000D03*
X231394000Y-141351000D03*
X241554000Y-141351000D03*
X241554000Y-140081000D03*
X241554000Y-138811000D03*
X241554000Y-137541000D03*
X241554000Y-136271000D03*
X241554000Y-135001000D03*
X241554000Y-133731000D03*
X241554000Y-132461000D03*
D17*
X223583500Y-156179500D03*
X223583500Y-150779500D03*
D11*
X217551000Y-154729500D03*
X217551000Y-152229500D03*
D17*
X252412500Y-150335000D03*
X252412500Y-155735000D03*
X260096000Y-155735000D03*
X260096000Y-150335000D03*
D15*
X271742000Y-168729000D03*
X271742000Y-166029000D03*
X274492000Y-168729000D03*
X274492000Y-166029000D03*
D18*
X229792000Y-133879000D03*
X229792000Y-132379000D03*
X244592000Y-134979000D03*
X244592000Y-136479000D03*
X243492000Y-140079000D03*
X243492000Y-141579000D03*
M02*
