M48
;DRILL file {KiCad 4.0.6} date 2017 August 07, Monday 22:44:57
;FORMAT={3:3/ absolute / metric / suppress leading zeros}
FMAT,2
METRIC,TZ
T1C0.400
T2C0.500
T3C0.700
T4C0.762
T5C0.800
T6C0.900
T7C1.000
T8C1.100
T9C1.200
T10C1.400
T11C1.500
T12C3.200
T13C4.300
T14C5.500
%
G90
G05
M71
T1
X83762Y-157322
X83769Y-126340
X86942Y-157322
X90112Y-141922
X91942Y-157322
X99466Y-126543
X109322Y-157582
X109362Y-140922
X114162Y-157322
X114351Y-149250
X115570Y-126390
X210312Y-136017
X215265Y-148844
T2
X223392Y-143729
X223492Y-132429
X227392Y-129429
X229892Y-161429
X229892Y-163829
X230492Y-147429
X230492Y-150929
X242760Y-151892
X243192Y-136229
X243192Y-137529
X243192Y-138829
X243992Y-168129
X244092Y-150229
X249692Y-128929
X249792Y-140829
X251392Y-130429
X251392Y-134429
X252392Y-144929
X252992Y-128829
X255792Y-157929
X257592Y-157929
X257746Y-141415
X264008Y-145517
X265303Y-154813
X267692Y-150929
X270792Y-147329
X273192Y-158329
X276092Y-129929
X279992Y-133229
T3
X206311Y-61468
X206311Y-64008
X206311Y-66548
X230441Y-61468
X230441Y-64008
X230441Y-66548
X254317Y-61468
X254317Y-64008
X254317Y-66548
T4
X229997Y-155575
X232537Y-155575
X240157Y-155575
X242697Y-155575
X245237Y-155575
T5
X131318Y-66802
X132207Y-48133
X132207Y-50673
X132207Y-53213
X132207Y-55753
X133818Y-66802
X138811Y-66802
X139827Y-48133
X139827Y-50673
X139827Y-53213
X139827Y-55753
X141311Y-66802
X145923Y-36957
X145923Y-38957
X204383Y-73533
X206883Y-73533
X210693Y-33274
X210693Y-40894
X213233Y-33274
X213233Y-40894
X215773Y-33274
X215773Y-40894
X218313Y-33274
X218313Y-40894
X223901Y-74168
X226401Y-74168
X235077Y-33274
X235077Y-40894
X237617Y-33274
X237617Y-40894
X240157Y-33274
X240157Y-40894
X242697Y-33274
X242697Y-40894
X258699Y-33528
X258699Y-41148
X261239Y-33528
X261239Y-41148
X263779Y-33528
X263779Y-41148
X266319Y-33528
X266319Y-41148
T6
X119736Y-45597
X119736Y-50597
X119736Y-56163
X119736Y-61163
X124736Y-48097
X124736Y-58663
X213313Y-50506
X218313Y-48006
X218313Y-53006
X237697Y-50506
X242697Y-48006
X242697Y-53006
X261319Y-50760
X266319Y-48260
X266319Y-53260
T7
X61519Y-114859
X61519Y-144704
X87249Y-46609
X87249Y-61849
X137592Y-114986
X206092Y-133269
X206092Y-135809
X206092Y-138349
X206092Y-140889
X206092Y-143429
X206092Y-145969
X206092Y-148509
X206092Y-151049
X206092Y-153589
X206092Y-156129
X213931Y-57658
X213931Y-70358
X216471Y-57658
X216471Y-70358
X219011Y-57658
X219011Y-70358
X238061Y-57658
X238061Y-70358
X240601Y-57658
X240601Y-70358
X243141Y-57658
X243141Y-70358
X261592Y-132529
X261937Y-57658
X261937Y-70358
X264477Y-57658
X264477Y-70358
X267017Y-57658
X267017Y-70358
X276092Y-133249
X276092Y-135789
X276092Y-138329
T8
X72644Y-119112
X72644Y-134112
X72644Y-138416
X72644Y-153416
X72644Y-156958
X72644Y-171958
T9
X39751Y-61595
X39751Y-83995
X39769Y-24031
X39769Y-46431
X49149Y-132461
X49149Y-147701
X52578Y-112649
X54769Y-24003
X54769Y-46403
X54769Y-61547
X54769Y-83947
X67818Y-112649
X69769Y-23955
X69769Y-46355
X69769Y-61595
X69769Y-83995
X107569Y-46609
X107569Y-54229
X107569Y-61849
X146939Y-132969
X146939Y-148209
T10
X31369Y-137414
X31369Y-142414
X38532Y-121285
X42067Y-117749
X81128Y-172339
X81186Y-110617
X86128Y-172339
X86186Y-110617
X91128Y-172339
X91186Y-110617
X99220Y-110617
X99263Y-172339
X104220Y-110617
X104263Y-172339
X109220Y-110617
X109263Y-172339
X117254Y-110617
X117348Y-172339
X122254Y-110617
X122348Y-172339
X127254Y-110617
X127348Y-172339
X131445Y-79477
X136445Y-79477
X141445Y-79477
X157455Y-48569
X157455Y-53569
X168275Y-136304
X168275Y-141304
X168275Y-146304
X208407Y-161735
X213407Y-161735
X213487Y-82550
X218407Y-161735
X218487Y-82550
X223407Y-161735
X223487Y-82550
X232791Y-82550
X237791Y-82550
X242791Y-82550
X247791Y-82550
X251714Y-161862
X256714Y-161862
X257175Y-82550
X261714Y-161862
X262175Y-82550
X275492Y-144629
X275492Y-149629
X275492Y-154629
T11
X23241Y-50165
X23241Y-57665
T12
X201092Y-126129
X201092Y-168129
X281092Y-126129
X281092Y-168129
T13
X29769Y-29645
X29769Y-79645
X159769Y-28645
X159769Y-79645
X195573Y-28976
X195573Y-86976
X278573Y-28976
X278573Y-86976
T14
X61562Y-125652
X61562Y-157152
X137562Y-125652
X137562Y-157152
T0
M30
