G04 #@! TF.FileFunction,Profile,NP*
%FSLAX46Y46*%
G04 Gerber Fmt 4.6, Leading zero omitted, Abs format (unit mm)*
G04 Created by KiCad (PCBNEW 4.0.6) date 2017 August 07, Monday 22:44:53*
%MOMM*%
%LPD*%
G01*
G04 APERTURE LIST*
%ADD10C,0.100000*%
%ADD11C,0.150000*%
G04 APERTURE END LIST*
D10*
D11*
X155769000Y-18645000D02*
X167769000Y-29645000D01*
X29769000Y-18645000D02*
X155769000Y-18645000D01*
X17769000Y-29641800D02*
X29769000Y-18645000D01*
X17769000Y-78645000D02*
X17769000Y-29645000D01*
X29769000Y-89645000D02*
X17769000Y-78645000D01*
X155769000Y-89645000D02*
X29769000Y-89645000D01*
X167769000Y-78645000D02*
X155769000Y-89645000D01*
X167769000Y-29645000D02*
X167769000Y-78645000D01*
D10*
X61562000Y-181402000D02*
X137562000Y-181402000D01*
X61562000Y-101402000D02*
X137562000Y-101402000D01*
X61562000Y-181402000D02*
G75*
G02X61562000Y-101402000I0J40000000D01*
G01*
X137562000Y-181402000D02*
G75*
G03X137562000Y-101402000I0J40000000D01*
G01*
X179888306Y-126593600D02*
G75*
G03X179888306Y-126593600I-1666666J0D01*
G01*
X175721640Y-126593600D02*
X180721640Y-126593600D01*
X178221640Y-124093600D02*
X178221640Y-129093600D01*
X197758666Y-172129000D02*
G75*
G03X197758666Y-172129000I-1666666J0D01*
G01*
X193592000Y-172129000D02*
X198592000Y-172129000D01*
X196092000Y-169629000D02*
X196092000Y-174629000D01*
X200092000Y-122129000D02*
X196092000Y-126129000D01*
X282092000Y-122129000D02*
X200092000Y-122129000D01*
X286092000Y-126129000D02*
X282092000Y-122129000D01*
X286092000Y-168129000D02*
X286092000Y-126129000D01*
X286092000Y-168129000D02*
X282092000Y-172129000D01*
X200092000Y-172129000D02*
X282092000Y-172129000D01*
X196092000Y-168129000D02*
X200092000Y-172129000D01*
X196092000Y-126129000D02*
X196092000Y-168129000D01*
X279573000Y-22976000D02*
X194573000Y-22976000D01*
X284573000Y-28976000D02*
X279573000Y-22976000D01*
X284573000Y-86976000D02*
X284573000Y-28976000D01*
X279573000Y-92976000D02*
X284573000Y-86976000D01*
X194573000Y-92976000D02*
X279573000Y-92976000D01*
X194573000Y-92976000D02*
X189573000Y-86976000D01*
X189573000Y-28976000D02*
X189573000Y-86976000D01*
X189573000Y-28976000D02*
X194573000Y-22976000D01*
M02*
