G04 #@! TF.FileFunction,Legend,Bot*
%FSLAX46Y46*%
G04 Gerber Fmt 4.6, Leading zero omitted, Abs format (unit mm)*
G04 Created by KiCad (PCBNEW 4.0.6) date 2017 August 07, Monday 22:44:53*
%MOMM*%
%LPD*%
G01*
G04 APERTURE LIST*
%ADD10C,0.100000*%
%ADD11C,0.200000*%
%ADD12C,0.300000*%
%ADD13C,0.250000*%
%ADD14C,0.125000*%
%ADD15C,0.120000*%
%ADD16C,0.150000*%
G04 APERTURE END LIST*
D10*
X155011722Y-20314457D02*
X154916484Y-20647790D01*
X154821246Y-20409695D01*
X154726008Y-20647790D01*
X154630770Y-20314457D01*
X154440293Y-20647790D02*
X154440293Y-20147790D01*
X154226008Y-20647790D02*
X154226008Y-20385886D01*
X154249817Y-20338267D01*
X154297436Y-20314457D01*
X154368865Y-20314457D01*
X154416484Y-20338267D01*
X154440293Y-20362076D01*
X153773627Y-20647790D02*
X153773627Y-20385886D01*
X153797436Y-20338267D01*
X153845055Y-20314457D01*
X153940293Y-20314457D01*
X153987912Y-20338267D01*
X153773627Y-20623981D02*
X153821246Y-20647790D01*
X153940293Y-20647790D01*
X153987912Y-20623981D01*
X154011722Y-20576362D01*
X154011722Y-20528743D01*
X153987912Y-20481124D01*
X153940293Y-20457314D01*
X153821246Y-20457314D01*
X153773627Y-20433505D01*
X153606960Y-20314457D02*
X153416484Y-20314457D01*
X153535531Y-20147790D02*
X153535531Y-20576362D01*
X153511722Y-20623981D01*
X153464103Y-20647790D01*
X153416484Y-20647790D01*
X153226008Y-20147790D02*
X153273627Y-20243029D01*
X153035532Y-20623981D02*
X152987913Y-20647790D01*
X152892675Y-20647790D01*
X152845056Y-20623981D01*
X152821246Y-20576362D01*
X152821246Y-20552552D01*
X152845056Y-20504933D01*
X152892675Y-20481124D01*
X152964103Y-20481124D01*
X153011722Y-20457314D01*
X153035532Y-20409695D01*
X153035532Y-20385886D01*
X153011722Y-20338267D01*
X152964103Y-20314457D01*
X152892675Y-20314457D01*
X152845056Y-20338267D01*
X152226008Y-20647790D02*
X152226008Y-20314457D01*
X152226008Y-20362076D02*
X152202199Y-20338267D01*
X152154580Y-20314457D01*
X152083151Y-20314457D01*
X152035532Y-20338267D01*
X152011723Y-20385886D01*
X152011723Y-20647790D01*
X152011723Y-20385886D02*
X151987913Y-20338267D01*
X151940294Y-20314457D01*
X151868866Y-20314457D01*
X151821246Y-20338267D01*
X151797437Y-20385886D01*
X151797437Y-20647790D01*
X151606960Y-20314457D02*
X151487913Y-20647790D01*
X151368865Y-20314457D02*
X151487913Y-20647790D01*
X151535532Y-20766838D01*
X151559341Y-20790648D01*
X151606960Y-20814457D01*
X150797437Y-20314457D02*
X150797437Y-20814457D01*
X150797437Y-20338267D02*
X150749818Y-20314457D01*
X150654580Y-20314457D01*
X150606961Y-20338267D01*
X150583152Y-20362076D01*
X150559342Y-20409695D01*
X150559342Y-20552552D01*
X150583152Y-20600171D01*
X150606961Y-20623981D01*
X150654580Y-20647790D01*
X150749818Y-20647790D01*
X150797437Y-20623981D01*
X150130771Y-20314457D02*
X150130771Y-20647790D01*
X150345056Y-20314457D02*
X150345056Y-20576362D01*
X150321247Y-20623981D01*
X150273628Y-20647790D01*
X150202199Y-20647790D01*
X150154580Y-20623981D01*
X150130771Y-20600171D01*
X149892675Y-20647790D02*
X149892675Y-20314457D01*
X149892675Y-20409695D02*
X149868866Y-20362076D01*
X149845056Y-20338267D01*
X149797437Y-20314457D01*
X149749818Y-20314457D01*
X149583151Y-20314457D02*
X149583151Y-20814457D01*
X149583151Y-20338267D02*
X149535532Y-20314457D01*
X149440294Y-20314457D01*
X149392675Y-20338267D01*
X149368866Y-20362076D01*
X149345056Y-20409695D01*
X149345056Y-20552552D01*
X149368866Y-20600171D01*
X149392675Y-20623981D01*
X149440294Y-20647790D01*
X149535532Y-20647790D01*
X149583151Y-20623981D01*
X149059342Y-20647790D02*
X149106961Y-20623981D01*
X149130770Y-20600171D01*
X149154580Y-20552552D01*
X149154580Y-20409695D01*
X149130770Y-20362076D01*
X149106961Y-20338267D01*
X149059342Y-20314457D01*
X148987913Y-20314457D01*
X148940294Y-20338267D01*
X148916485Y-20362076D01*
X148892675Y-20409695D01*
X148892675Y-20552552D01*
X148916485Y-20600171D01*
X148940294Y-20623981D01*
X148987913Y-20647790D01*
X149059342Y-20647790D01*
X148702199Y-20623981D02*
X148654580Y-20647790D01*
X148559342Y-20647790D01*
X148511723Y-20623981D01*
X148487913Y-20576362D01*
X148487913Y-20552552D01*
X148511723Y-20504933D01*
X148559342Y-20481124D01*
X148630770Y-20481124D01*
X148678389Y-20457314D01*
X148702199Y-20409695D01*
X148702199Y-20385886D01*
X148678389Y-20338267D01*
X148630770Y-20314457D01*
X148559342Y-20314457D01*
X148511723Y-20338267D01*
X148083151Y-20623981D02*
X148130770Y-20647790D01*
X148226008Y-20647790D01*
X148273627Y-20623981D01*
X148297437Y-20576362D01*
X148297437Y-20385886D01*
X148273627Y-20338267D01*
X148226008Y-20314457D01*
X148130770Y-20314457D01*
X148083151Y-20338267D01*
X148059342Y-20385886D01*
X148059342Y-20433505D01*
X148297437Y-20481124D01*
X147845056Y-20600171D02*
X147821247Y-20623981D01*
X147845056Y-20647790D01*
X147868866Y-20623981D01*
X147845056Y-20600171D01*
X147845056Y-20647790D01*
X147606961Y-20600171D02*
X147583152Y-20623981D01*
X147606961Y-20647790D01*
X147630771Y-20623981D01*
X147606961Y-20600171D01*
X147606961Y-20647790D01*
X147368866Y-20600171D02*
X147345057Y-20623981D01*
X147368866Y-20647790D01*
X147392676Y-20623981D01*
X147368866Y-20600171D01*
X147368866Y-20647790D01*
X147059343Y-20600171D02*
X147035533Y-20623981D01*
X147059343Y-20647790D01*
X147083152Y-20623981D01*
X147059343Y-20600171D01*
X147059343Y-20647790D01*
X147154581Y-20171600D02*
X147106962Y-20147790D01*
X146987914Y-20147790D01*
X146940295Y-20171600D01*
X146916486Y-20219219D01*
X146916486Y-20266838D01*
X146940295Y-20314457D01*
X146964105Y-20338267D01*
X147011724Y-20362076D01*
X147035533Y-20385886D01*
X147059343Y-20433505D01*
X147059343Y-20457314D01*
D11*
X103365156Y-54178200D02*
G75*
G03X103365156Y-54178200I-5041756J0D01*
G01*
D12*
X100742428Y-51897286D02*
X100742428Y-52611571D01*
X101242428Y-51111571D02*
X100742428Y-51897286D01*
X100242428Y-51111571D01*
X99742428Y-51611571D02*
X99742428Y-52611571D01*
X99742428Y-51754429D02*
X99671000Y-51683000D01*
X99528142Y-51611571D01*
X99313857Y-51611571D01*
X99171000Y-51683000D01*
X99099571Y-51825857D01*
X99099571Y-52611571D01*
X97742428Y-51611571D02*
X97742428Y-52825857D01*
X97813857Y-52968714D01*
X97885285Y-53040143D01*
X98028142Y-53111571D01*
X98242428Y-53111571D01*
X98385285Y-53040143D01*
X97742428Y-52540143D02*
X97885285Y-52611571D01*
X98170999Y-52611571D01*
X98313857Y-52540143D01*
X98385285Y-52468714D01*
X98456714Y-52325857D01*
X98456714Y-51897286D01*
X98385285Y-51754429D01*
X98313857Y-51683000D01*
X98170999Y-51611571D01*
X97885285Y-51611571D01*
X97742428Y-51683000D01*
X97170999Y-51611571D02*
X96813856Y-52611571D01*
X96456714Y-51611571D01*
X95313857Y-52540143D02*
X95456714Y-52611571D01*
X95742428Y-52611571D01*
X95885285Y-52540143D01*
X95956714Y-52397286D01*
X95956714Y-51825857D01*
X95885285Y-51683000D01*
X95742428Y-51611571D01*
X95456714Y-51611571D01*
X95313857Y-51683000D01*
X95242428Y-51825857D01*
X95242428Y-51968714D01*
X95956714Y-52111571D01*
X100028143Y-54161571D02*
X99742429Y-55161571D01*
X99456715Y-54447286D01*
X99171000Y-55161571D01*
X98885286Y-54161571D01*
X97671000Y-55161571D02*
X97671000Y-54375857D01*
X97742429Y-54233000D01*
X97885286Y-54161571D01*
X98171000Y-54161571D01*
X98313857Y-54233000D01*
X97671000Y-55090143D02*
X97813857Y-55161571D01*
X98171000Y-55161571D01*
X98313857Y-55090143D01*
X98385286Y-54947286D01*
X98385286Y-54804429D01*
X98313857Y-54661571D01*
X98171000Y-54590143D01*
X97813857Y-54590143D01*
X97671000Y-54518714D01*
X97028143Y-55090143D02*
X96885286Y-55161571D01*
X96599571Y-55161571D01*
X96456714Y-55090143D01*
X96385286Y-54947286D01*
X96385286Y-54875857D01*
X96456714Y-54733000D01*
X96599571Y-54661571D01*
X96813857Y-54661571D01*
X96956714Y-54590143D01*
X97028143Y-54447286D01*
X97028143Y-54375857D01*
X96956714Y-54233000D01*
X96813857Y-54161571D01*
X96599571Y-54161571D01*
X96456714Y-54233000D01*
X100242428Y-57711571D02*
X100242428Y-56211571D01*
X99599571Y-57711571D02*
X99599571Y-56925857D01*
X99671000Y-56783000D01*
X99813857Y-56711571D01*
X100028142Y-56711571D01*
X100171000Y-56783000D01*
X100242428Y-56854429D01*
X98313857Y-57640143D02*
X98456714Y-57711571D01*
X98742428Y-57711571D01*
X98885285Y-57640143D01*
X98956714Y-57497286D01*
X98956714Y-56925857D01*
X98885285Y-56783000D01*
X98742428Y-56711571D01*
X98456714Y-56711571D01*
X98313857Y-56783000D01*
X98242428Y-56925857D01*
X98242428Y-57068714D01*
X98956714Y-57211571D01*
X97599571Y-57711571D02*
X97599571Y-56711571D01*
X97599571Y-56997286D02*
X97528143Y-56854429D01*
X97456714Y-56783000D01*
X97313857Y-56711571D01*
X97171000Y-56711571D01*
X96099572Y-57640143D02*
X96242429Y-57711571D01*
X96528143Y-57711571D01*
X96671000Y-57640143D01*
X96742429Y-57497286D01*
X96742429Y-56925857D01*
X96671000Y-56783000D01*
X96528143Y-56711571D01*
X96242429Y-56711571D01*
X96099572Y-56783000D01*
X96028143Y-56925857D01*
X96028143Y-57068714D01*
X96742429Y-57211571D01*
X28506950Y-24395695D02*
X27446289Y-23335035D01*
X27193751Y-23587573D01*
X27092737Y-23789603D01*
X27092736Y-23991634D01*
X27143244Y-24143157D01*
X27294767Y-24395696D01*
X27446289Y-24547218D01*
X27698828Y-24698741D01*
X27850351Y-24749249D01*
X28052382Y-24749248D01*
X28254411Y-24648233D01*
X28506950Y-24395695D01*
X26991721Y-25910924D02*
X26436137Y-25355340D01*
X26385630Y-25203817D01*
X26436137Y-25052294D01*
X26638167Y-24850263D01*
X26789690Y-24799756D01*
X26941214Y-25860416D02*
X27092736Y-25809908D01*
X27345274Y-25557370D01*
X27395782Y-25405848D01*
X27345275Y-25254325D01*
X27244260Y-25153310D01*
X27092736Y-25102802D01*
X26941214Y-25153310D01*
X26688675Y-25405848D01*
X26537152Y-25456355D01*
X25779538Y-25708893D02*
X26486644Y-26416000D01*
X25880553Y-25809909D02*
X25779538Y-25809908D01*
X25628014Y-25860416D01*
X25476492Y-26011939D01*
X25425985Y-26163462D01*
X25476492Y-26314985D01*
X26032076Y-26870569D01*
X24365324Y-27123107D02*
X25223954Y-27981737D01*
X25375477Y-28032244D01*
X25476492Y-28032245D01*
X25628014Y-27981737D01*
X25779538Y-27830214D01*
X25830045Y-27678691D01*
X25021924Y-27779706D02*
X25173446Y-27729198D01*
X25375476Y-27527168D01*
X25425985Y-27375645D01*
X25425984Y-27274630D01*
X25375477Y-27123107D01*
X25072431Y-26820061D01*
X24920908Y-26769554D01*
X24819893Y-26769553D01*
X24668369Y-26820061D01*
X24466339Y-27022092D01*
X24415832Y-27173615D01*
X24112786Y-28688843D02*
X24264309Y-28638335D01*
X24466339Y-28436305D01*
X24516847Y-28284783D01*
X24466340Y-28133260D01*
X24062279Y-27729198D01*
X23910755Y-27678691D01*
X23759232Y-27729198D01*
X23557202Y-27931229D01*
X23506695Y-28082752D01*
X23557202Y-28234275D01*
X23658217Y-28335290D01*
X24264309Y-27931229D01*
X23658217Y-29244427D02*
X22951110Y-28537320D01*
X23153141Y-28739351D02*
X23001619Y-28688843D01*
X22900603Y-28688843D01*
X22749080Y-28739351D01*
X22648065Y-28840366D01*
X27801305Y-84640950D02*
X28861965Y-83580289D01*
X28609427Y-83327751D01*
X28407397Y-83226737D01*
X28205366Y-83226736D01*
X28053843Y-83277244D01*
X27801304Y-83428767D01*
X27649782Y-83580289D01*
X27498259Y-83832828D01*
X27447751Y-83984351D01*
X27447752Y-84186382D01*
X27548767Y-84388411D01*
X27801305Y-84640950D01*
X26286076Y-83125721D02*
X26841660Y-82570137D01*
X26993183Y-82519630D01*
X27144706Y-82570137D01*
X27346737Y-82772167D01*
X27397244Y-82923690D01*
X26336584Y-83075214D02*
X26387092Y-83226736D01*
X26639630Y-83479274D01*
X26791152Y-83529782D01*
X26942675Y-83479275D01*
X27043690Y-83378260D01*
X27094198Y-83226736D01*
X27043690Y-83075214D01*
X26791152Y-82822675D01*
X26740645Y-82671152D01*
X26488107Y-81913538D02*
X25781000Y-82620644D01*
X26387091Y-82014553D02*
X26387092Y-81913538D01*
X26336584Y-81762014D01*
X26185061Y-81610492D01*
X26033538Y-81559985D01*
X25882015Y-81610492D01*
X25326431Y-82166076D01*
X25073893Y-80499324D02*
X24215263Y-81357954D01*
X24164756Y-81509477D01*
X24164755Y-81610492D01*
X24215263Y-81762014D01*
X24366786Y-81913538D01*
X24518309Y-81964045D01*
X24417294Y-81155924D02*
X24467802Y-81307446D01*
X24669832Y-81509476D01*
X24821355Y-81559985D01*
X24922370Y-81559984D01*
X25073893Y-81509477D01*
X25376939Y-81206431D01*
X25427446Y-81054908D01*
X25427447Y-80953893D01*
X25376939Y-80802369D01*
X25174908Y-80600339D01*
X25023385Y-80549832D01*
X23508157Y-80246786D02*
X23558665Y-80398309D01*
X23760695Y-80600339D01*
X23912217Y-80650847D01*
X24063740Y-80600340D01*
X24467802Y-80196279D01*
X24518309Y-80044755D01*
X24467802Y-79893232D01*
X24265771Y-79691202D01*
X24114248Y-79640695D01*
X23962725Y-79691202D01*
X23861710Y-79792217D01*
X24265771Y-80398309D01*
X22952573Y-79792217D02*
X23659680Y-79085110D01*
X23457649Y-79287141D02*
X23508157Y-79135619D01*
X23508157Y-79034603D01*
X23457649Y-78883080D01*
X23356634Y-78782065D01*
X95969350Y-81698095D02*
X94908689Y-80637435D01*
X94656151Y-80889973D01*
X94555137Y-81092003D01*
X94555136Y-81294034D01*
X94605644Y-81445557D01*
X94757167Y-81698096D01*
X94908689Y-81849618D01*
X95161228Y-82001141D01*
X95312751Y-82051649D01*
X95514782Y-82051648D01*
X95716811Y-81950633D01*
X95969350Y-81698095D01*
X94454121Y-83213324D02*
X93898537Y-82657740D01*
X93848030Y-82506217D01*
X93898537Y-82354694D01*
X94100567Y-82152663D01*
X94252090Y-82102156D01*
X94403614Y-83162816D02*
X94555136Y-83112308D01*
X94807674Y-82859770D01*
X94858182Y-82708248D01*
X94807675Y-82556725D01*
X94706660Y-82455710D01*
X94555136Y-82405202D01*
X94403614Y-82455710D01*
X94151075Y-82708248D01*
X93999552Y-82758755D01*
X93241938Y-83011293D02*
X93949044Y-83718400D01*
X93342953Y-83112309D02*
X93241938Y-83112308D01*
X93090414Y-83162816D01*
X92938892Y-83314339D01*
X92888385Y-83465862D01*
X92938892Y-83617385D01*
X93494476Y-84172969D01*
X91827724Y-84425507D02*
X92686354Y-85284137D01*
X92837877Y-85334644D01*
X92938892Y-85334645D01*
X93090414Y-85284137D01*
X93241938Y-85132614D01*
X93292445Y-84981091D01*
X92484324Y-85082106D02*
X92635846Y-85031598D01*
X92837876Y-84829568D01*
X92888385Y-84678045D01*
X92888384Y-84577030D01*
X92837877Y-84425507D01*
X92534831Y-84122461D01*
X92383308Y-84071954D01*
X92282293Y-84071953D01*
X92130769Y-84122461D01*
X91928739Y-84324492D01*
X91878232Y-84476015D01*
X91575186Y-85991243D02*
X91726709Y-85940735D01*
X91928739Y-85738705D01*
X91979247Y-85587183D01*
X91928740Y-85435660D01*
X91524679Y-85031598D01*
X91373155Y-84981091D01*
X91221632Y-85031598D01*
X91019602Y-85233629D01*
X90969095Y-85385152D01*
X91019602Y-85536675D01*
X91120617Y-85637690D01*
X91726709Y-85233629D01*
X91120617Y-86546827D02*
X90413510Y-85839720D01*
X90615541Y-86041751D02*
X90464019Y-85991243D01*
X90363003Y-85991243D01*
X90211480Y-86041751D01*
X90110465Y-86142766D01*
X66176656Y-54907571D02*
X66176656Y-53407571D01*
X65605228Y-53407571D01*
X65462370Y-53479000D01*
X65390942Y-53550429D01*
X65319513Y-53693286D01*
X65319513Y-53907571D01*
X65390942Y-54050429D01*
X65462370Y-54121857D01*
X65605228Y-54193286D01*
X66176656Y-54193286D01*
X64676656Y-54907571D02*
X64676656Y-53907571D01*
X64676656Y-54193286D02*
X64605228Y-54050429D01*
X64533799Y-53979000D01*
X64390942Y-53907571D01*
X64248085Y-53907571D01*
X63748085Y-54907571D02*
X63748085Y-53907571D01*
X63748085Y-53407571D02*
X63819514Y-53479000D01*
X63748085Y-53550429D01*
X63676657Y-53479000D01*
X63748085Y-53407571D01*
X63748085Y-53550429D01*
X63033799Y-54907571D02*
X63033799Y-53907571D01*
X63033799Y-54050429D02*
X62962371Y-53979000D01*
X62819513Y-53907571D01*
X62605228Y-53907571D01*
X62462371Y-53979000D01*
X62390942Y-54121857D01*
X62390942Y-54907571D01*
X62390942Y-54121857D02*
X62319513Y-53979000D01*
X62176656Y-53907571D01*
X61962371Y-53907571D01*
X61819513Y-53979000D01*
X61748085Y-54121857D01*
X61748085Y-54907571D01*
X60390942Y-54907571D02*
X60390942Y-54121857D01*
X60462371Y-53979000D01*
X60605228Y-53907571D01*
X60890942Y-53907571D01*
X61033799Y-53979000D01*
X60390942Y-54836143D02*
X60533799Y-54907571D01*
X60890942Y-54907571D01*
X61033799Y-54836143D01*
X61105228Y-54693286D01*
X61105228Y-54550429D01*
X61033799Y-54407571D01*
X60890942Y-54336143D01*
X60533799Y-54336143D01*
X60390942Y-54264714D01*
X59676656Y-54907571D02*
X59676656Y-53907571D01*
X59676656Y-54193286D02*
X59605228Y-54050429D01*
X59533799Y-53979000D01*
X59390942Y-53907571D01*
X59248085Y-53907571D01*
X58890942Y-53907571D02*
X58533799Y-54907571D01*
X58176657Y-53907571D02*
X58533799Y-54907571D01*
X58676657Y-55264714D01*
X58748085Y-55336143D01*
X58890942Y-55407571D01*
X56676657Y-53407571D02*
X56176657Y-54907571D01*
X55676657Y-53407571D01*
X54962371Y-54907571D02*
X55105229Y-54836143D01*
X55176657Y-54764714D01*
X55248086Y-54621857D01*
X55248086Y-54193286D01*
X55176657Y-54050429D01*
X55105229Y-53979000D01*
X54962371Y-53907571D01*
X54748086Y-53907571D01*
X54605229Y-53979000D01*
X54533800Y-54050429D01*
X54462371Y-54193286D01*
X54462371Y-54621857D01*
X54533800Y-54764714D01*
X54605229Y-54836143D01*
X54748086Y-54907571D01*
X54962371Y-54907571D01*
X53605228Y-54907571D02*
X53748086Y-54836143D01*
X53819514Y-54693286D01*
X53819514Y-53407571D01*
X53248086Y-53907571D02*
X52676657Y-53907571D01*
X53033800Y-53407571D02*
X53033800Y-54693286D01*
X52962372Y-54836143D01*
X52819514Y-54907571D01*
X52676657Y-54907571D01*
X51533800Y-54907571D02*
X51533800Y-54121857D01*
X51605229Y-53979000D01*
X51748086Y-53907571D01*
X52033800Y-53907571D01*
X52176657Y-53979000D01*
X51533800Y-54836143D02*
X51676657Y-54907571D01*
X52033800Y-54907571D01*
X52176657Y-54836143D01*
X52248086Y-54693286D01*
X52248086Y-54550429D01*
X52176657Y-54407571D01*
X52033800Y-54336143D01*
X51676657Y-54336143D01*
X51533800Y-54264714D01*
X50176657Y-53907571D02*
X50176657Y-55121857D01*
X50248086Y-55264714D01*
X50319514Y-55336143D01*
X50462371Y-55407571D01*
X50676657Y-55407571D01*
X50819514Y-55336143D01*
X50176657Y-54836143D02*
X50319514Y-54907571D01*
X50605228Y-54907571D01*
X50748086Y-54836143D01*
X50819514Y-54764714D01*
X50890943Y-54621857D01*
X50890943Y-54193286D01*
X50819514Y-54050429D01*
X50748086Y-53979000D01*
X50605228Y-53907571D01*
X50319514Y-53907571D01*
X50176657Y-53979000D01*
X48890943Y-54836143D02*
X49033800Y-54907571D01*
X49319514Y-54907571D01*
X49462371Y-54836143D01*
X49533800Y-54693286D01*
X49533800Y-54121857D01*
X49462371Y-53979000D01*
X49319514Y-53907571D01*
X49033800Y-53907571D01*
X48890943Y-53979000D01*
X48819514Y-54121857D01*
X48819514Y-54264714D01*
X49533800Y-54407571D01*
X47105229Y-54479000D02*
X46390943Y-54479000D01*
X47248086Y-54907571D02*
X46748086Y-53407571D01*
X46248086Y-54907571D01*
X45748086Y-54907571D02*
X45748086Y-53907571D01*
X45748086Y-54193286D02*
X45676658Y-54050429D01*
X45605229Y-53979000D01*
X45462372Y-53907571D01*
X45319515Y-53907571D01*
X44248087Y-54836143D02*
X44390944Y-54907571D01*
X44676658Y-54907571D01*
X44819515Y-54836143D01*
X44890944Y-54693286D01*
X44890944Y-54121857D01*
X44819515Y-53979000D01*
X44676658Y-53907571D01*
X44390944Y-53907571D01*
X44248087Y-53979000D01*
X44176658Y-54121857D01*
X44176658Y-54264714D01*
X44890944Y-54407571D01*
X42890944Y-54907571D02*
X42890944Y-54121857D01*
X42962373Y-53979000D01*
X43105230Y-53907571D01*
X43390944Y-53907571D01*
X43533801Y-53979000D01*
X42890944Y-54836143D02*
X43033801Y-54907571D01*
X43390944Y-54907571D01*
X43533801Y-54836143D01*
X43605230Y-54693286D01*
X43605230Y-54550429D01*
X43533801Y-54407571D01*
X43390944Y-54336143D01*
X43033801Y-54336143D01*
X42890944Y-54264714D01*
X95289105Y-27211550D02*
X96349765Y-26150889D01*
X96097227Y-25898351D01*
X95895197Y-25797337D01*
X95693166Y-25797336D01*
X95541643Y-25847844D01*
X95289104Y-25999367D01*
X95137582Y-26150889D01*
X94986059Y-26403428D01*
X94935551Y-26554951D01*
X94935552Y-26756982D01*
X95036567Y-26959011D01*
X95289105Y-27211550D01*
X93773876Y-25696321D02*
X94329460Y-25140737D01*
X94480983Y-25090230D01*
X94632506Y-25140737D01*
X94834537Y-25342767D01*
X94885044Y-25494290D01*
X93824384Y-25645814D02*
X93874892Y-25797336D01*
X94127430Y-26049874D01*
X94278952Y-26100382D01*
X94430475Y-26049875D01*
X94531490Y-25948860D01*
X94581998Y-25797336D01*
X94531490Y-25645814D01*
X94278952Y-25393275D01*
X94228445Y-25241752D01*
X93975907Y-24484138D02*
X93268800Y-25191244D01*
X93874891Y-24585153D02*
X93874892Y-24484138D01*
X93824384Y-24332614D01*
X93672861Y-24181092D01*
X93521338Y-24130585D01*
X93369815Y-24181092D01*
X92814231Y-24736676D01*
X92561693Y-23069924D02*
X91703063Y-23928554D01*
X91652556Y-24080077D01*
X91652555Y-24181092D01*
X91703063Y-24332614D01*
X91854586Y-24484138D01*
X92006109Y-24534645D01*
X91905094Y-23726524D02*
X91955602Y-23878046D01*
X92157632Y-24080076D01*
X92309155Y-24130585D01*
X92410170Y-24130584D01*
X92561693Y-24080077D01*
X92864739Y-23777031D01*
X92915246Y-23625508D01*
X92915247Y-23524493D01*
X92864739Y-23372969D01*
X92662708Y-23170939D01*
X92511185Y-23120432D01*
X90995957Y-22817386D02*
X91046465Y-22968909D01*
X91248495Y-23170939D01*
X91400017Y-23221447D01*
X91551540Y-23170940D01*
X91955602Y-22766879D01*
X92006109Y-22615355D01*
X91955602Y-22463832D01*
X91753571Y-22261802D01*
X91602048Y-22211295D01*
X91450525Y-22261802D01*
X91349510Y-22362817D01*
X91753571Y-22968909D01*
X90440373Y-22362817D02*
X91147480Y-21655710D01*
X90945449Y-21857741D02*
X90995957Y-21706219D01*
X90995957Y-21605203D01*
X90945449Y-21453680D01*
X90844434Y-21352665D01*
D11*
X96769000Y-87645000D02*
X96769000Y-20645000D01*
X96769000Y-20645000D02*
X29769000Y-20645000D01*
X29769000Y-20645000D02*
X19769000Y-29645000D01*
X19769000Y-29645000D02*
X19769000Y-78645000D01*
X19769000Y-78645000D02*
X29769000Y-87645000D01*
X29769000Y-87645000D02*
X96769000Y-87645000D01*
X164804641Y-155402000D02*
G75*
G03X164804641Y-155402000I-4242641J0D01*
G01*
D13*
X162276286Y-153628190D02*
X162276286Y-154104381D01*
X162609619Y-153104381D02*
X162276286Y-153628190D01*
X161942952Y-153104381D01*
X161609619Y-153437714D02*
X161609619Y-154104381D01*
X161609619Y-153532952D02*
X161562000Y-153485333D01*
X161466762Y-153437714D01*
X161323904Y-153437714D01*
X161228666Y-153485333D01*
X161181047Y-153580571D01*
X161181047Y-154104381D01*
X160276285Y-153437714D02*
X160276285Y-154247238D01*
X160323904Y-154342476D01*
X160371523Y-154390095D01*
X160466762Y-154437714D01*
X160609619Y-154437714D01*
X160704857Y-154390095D01*
X160276285Y-154056762D02*
X160371523Y-154104381D01*
X160562000Y-154104381D01*
X160657238Y-154056762D01*
X160704857Y-154009143D01*
X160752476Y-153913905D01*
X160752476Y-153628190D01*
X160704857Y-153532952D01*
X160657238Y-153485333D01*
X160562000Y-153437714D01*
X160371523Y-153437714D01*
X160276285Y-153485333D01*
X159895333Y-153437714D02*
X159657238Y-154104381D01*
X159419142Y-153437714D01*
X158657237Y-154056762D02*
X158752475Y-154104381D01*
X158942952Y-154104381D01*
X159038190Y-154056762D01*
X159085809Y-153961524D01*
X159085809Y-153580571D01*
X159038190Y-153485333D01*
X158942952Y-153437714D01*
X158752475Y-153437714D01*
X158657237Y-153485333D01*
X158609618Y-153580571D01*
X158609618Y-153675810D01*
X159085809Y-153771048D01*
X161800095Y-155187714D02*
X161609619Y-155854381D01*
X161419142Y-155378190D01*
X161228666Y-155854381D01*
X161038190Y-155187714D01*
X160228666Y-155854381D02*
X160228666Y-155330571D01*
X160276285Y-155235333D01*
X160371523Y-155187714D01*
X160562000Y-155187714D01*
X160657238Y-155235333D01*
X160228666Y-155806762D02*
X160323904Y-155854381D01*
X160562000Y-155854381D01*
X160657238Y-155806762D01*
X160704857Y-155711524D01*
X160704857Y-155616286D01*
X160657238Y-155521048D01*
X160562000Y-155473429D01*
X160323904Y-155473429D01*
X160228666Y-155425810D01*
X159800095Y-155806762D02*
X159704857Y-155854381D01*
X159514381Y-155854381D01*
X159419142Y-155806762D01*
X159371523Y-155711524D01*
X159371523Y-155663905D01*
X159419142Y-155568667D01*
X159514381Y-155521048D01*
X159657238Y-155521048D01*
X159752476Y-155473429D01*
X159800095Y-155378190D01*
X159800095Y-155330571D01*
X159752476Y-155235333D01*
X159657238Y-155187714D01*
X159514381Y-155187714D01*
X159419142Y-155235333D01*
X161942953Y-157604381D02*
X161942953Y-156604381D01*
X161514381Y-157604381D02*
X161514381Y-157080571D01*
X161562000Y-156985333D01*
X161657238Y-156937714D01*
X161800096Y-156937714D01*
X161895334Y-156985333D01*
X161942953Y-157032952D01*
X160657238Y-157556762D02*
X160752476Y-157604381D01*
X160942953Y-157604381D01*
X161038191Y-157556762D01*
X161085810Y-157461524D01*
X161085810Y-157080571D01*
X161038191Y-156985333D01*
X160942953Y-156937714D01*
X160752476Y-156937714D01*
X160657238Y-156985333D01*
X160609619Y-157080571D01*
X160609619Y-157175810D01*
X161085810Y-157271048D01*
X160181048Y-157604381D02*
X160181048Y-156937714D01*
X160181048Y-157128190D02*
X160133429Y-157032952D01*
X160085810Y-156985333D01*
X159990572Y-156937714D01*
X159895333Y-156937714D01*
X159181047Y-157556762D02*
X159276285Y-157604381D01*
X159466762Y-157604381D01*
X159562000Y-157556762D01*
X159609619Y-157461524D01*
X159609619Y-157080571D01*
X159562000Y-156985333D01*
X159466762Y-156937714D01*
X159276285Y-156937714D01*
X159181047Y-156985333D01*
X159133428Y-157080571D01*
X159133428Y-157175810D01*
X159609619Y-157271048D01*
D12*
X45643043Y-120853358D02*
X44834921Y-121661480D01*
X41905479Y-124590922D02*
X41097357Y-125399044D01*
X41905479Y-125399043D02*
X41097357Y-124590921D01*
X53178782Y-117125894D02*
X52673705Y-117630970D01*
X53582842Y-117327924D02*
X52168629Y-116620817D01*
X52875736Y-118035031D01*
X51360507Y-118136046D02*
X52067614Y-118843153D01*
X51815075Y-117681477D02*
X52370660Y-118237062D01*
X52421168Y-118388584D01*
X52370659Y-118540107D01*
X52219137Y-118691630D01*
X52067614Y-118742137D01*
X51966599Y-118742137D01*
X51663552Y-119247214D02*
X50400862Y-119095691D01*
X50956446Y-118540107D02*
X51107969Y-119802798D01*
X49895785Y-121014981D02*
X48835125Y-119954321D01*
X48582587Y-120206859D01*
X48481573Y-120408889D01*
X48481572Y-120610920D01*
X48532080Y-120762443D01*
X48683603Y-121014982D01*
X48835125Y-121166504D01*
X49087664Y-121318027D01*
X49239187Y-121368535D01*
X49441218Y-121368534D01*
X49643247Y-121267519D01*
X49895785Y-121014981D01*
X48128018Y-122580718D02*
X48229034Y-122580718D01*
X48431065Y-122479702D01*
X48532080Y-122378687D01*
X48633095Y-122176657D01*
X48633096Y-121974626D01*
X48582588Y-121823104D01*
X48431065Y-121570565D01*
X48279542Y-121419042D01*
X48027003Y-121267519D01*
X47875481Y-121217011D01*
X47673450Y-121217012D01*
X47471420Y-121318026D01*
X47370404Y-121419042D01*
X47269389Y-121621073D01*
X47269389Y-121722088D01*
X47370404Y-122732241D02*
X46562282Y-123540363D01*
X45956190Y-124954576D02*
X46461267Y-124449500D01*
X45400606Y-123388840D01*
X45602637Y-125308130D02*
X44895530Y-124601023D01*
X44541977Y-124247469D02*
X44642992Y-124247469D01*
X44642992Y-124348485D01*
X44541977Y-124348485D01*
X44541977Y-124247469D01*
X44642992Y-124348485D01*
X44390454Y-125106099D02*
X45097560Y-125813206D01*
X44491469Y-125207115D02*
X44390454Y-125207114D01*
X44238930Y-125257622D01*
X44087408Y-125409145D01*
X44036901Y-125560668D01*
X44087408Y-125712191D01*
X44642992Y-126267775D01*
X44137915Y-126772851D02*
X43077255Y-125712191D01*
X43632840Y-126469806D02*
X43733855Y-127176912D01*
X43026748Y-126469805D02*
X43834870Y-126469806D01*
X42471164Y-128338588D02*
X42370148Y-128540618D01*
X42117610Y-128793156D01*
X41966088Y-128843664D01*
X41865072Y-128843664D01*
X41713549Y-128793156D01*
X41612534Y-128692141D01*
X41562026Y-128540619D01*
X41562026Y-128439603D01*
X41612534Y-128288080D01*
X41764057Y-128035542D01*
X41814565Y-127884019D01*
X41814565Y-127783004D01*
X41764057Y-127631481D01*
X41663042Y-127530466D01*
X41511519Y-127479959D01*
X41410504Y-127479958D01*
X41258980Y-127530466D01*
X41006443Y-127783003D01*
X40905428Y-127985034D01*
X40299336Y-129197217D02*
X41006443Y-129904324D01*
X40753904Y-128742648D02*
X41309489Y-129298233D01*
X41359997Y-129449755D01*
X41309488Y-129601278D01*
X41157966Y-129752801D01*
X41006443Y-129803308D01*
X40905428Y-129803308D01*
X39794259Y-129702293D02*
X40854920Y-130762953D01*
X39844767Y-129752801D02*
X39693244Y-129803308D01*
X39491214Y-130005339D01*
X39440707Y-130156862D01*
X39440707Y-130257878D01*
X39491214Y-130409401D01*
X39794259Y-130712446D01*
X39945783Y-130762953D01*
X40046798Y-130762953D01*
X40198321Y-130712446D01*
X40400351Y-130510415D01*
X40450859Y-130358893D01*
X38834614Y-130661938D02*
X39895275Y-131722599D01*
X38885122Y-130712446D02*
X38733599Y-130762953D01*
X38531569Y-130964984D01*
X38481062Y-131116507D01*
X38481062Y-131217523D01*
X38531569Y-131369046D01*
X38834614Y-131672091D01*
X38986137Y-131722599D01*
X39087153Y-131722599D01*
X39238676Y-131672091D01*
X39440706Y-131470060D01*
X39491214Y-131318538D01*
X38430553Y-132480213D02*
X38481062Y-132328690D01*
X38430554Y-132177168D01*
X37521416Y-131268030D01*
X37420401Y-132076152D02*
X37874969Y-133035797D01*
X36915325Y-132581228D02*
X37874969Y-133035797D01*
X38228523Y-133187319D01*
X38329539Y-133187320D01*
X38481061Y-133136812D01*
D14*
X115823899Y-179628190D02*
X115823899Y-179128190D01*
X115657233Y-179294857D02*
X115466757Y-179294857D01*
X115585804Y-179128190D02*
X115585804Y-179556762D01*
X115561995Y-179604381D01*
X115514376Y-179628190D01*
X115466757Y-179628190D01*
X114704853Y-179294857D02*
X114704853Y-179699619D01*
X114728662Y-179747238D01*
X114752472Y-179771048D01*
X114800091Y-179794857D01*
X114871519Y-179794857D01*
X114919138Y-179771048D01*
X114704853Y-179604381D02*
X114752472Y-179628190D01*
X114847710Y-179628190D01*
X114895329Y-179604381D01*
X114919138Y-179580571D01*
X114942948Y-179532952D01*
X114942948Y-179390095D01*
X114919138Y-179342476D01*
X114895329Y-179318667D01*
X114847710Y-179294857D01*
X114752472Y-179294857D01*
X114704853Y-179318667D01*
X114466757Y-179628190D02*
X114466757Y-179294857D01*
X114466757Y-179128190D02*
X114490567Y-179152000D01*
X114466757Y-179175810D01*
X114442948Y-179152000D01*
X114466757Y-179128190D01*
X114466757Y-179175810D01*
X114276281Y-179294857D02*
X114157234Y-179628190D01*
X114038186Y-179294857D01*
X113657234Y-179604381D02*
X113704853Y-179628190D01*
X113800091Y-179628190D01*
X113847710Y-179604381D01*
X113871520Y-179556762D01*
X113871520Y-179366286D01*
X113847710Y-179318667D01*
X113800091Y-179294857D01*
X113704853Y-179294857D01*
X113657234Y-179318667D01*
X113633425Y-179366286D01*
X113633425Y-179413905D01*
X113871520Y-179461524D01*
X113442949Y-179604381D02*
X113395330Y-179628190D01*
X113300092Y-179628190D01*
X113252473Y-179604381D01*
X113228663Y-179556762D01*
X113228663Y-179532952D01*
X113252473Y-179485333D01*
X113300092Y-179461524D01*
X113371520Y-179461524D01*
X113419139Y-179437714D01*
X113442949Y-179390095D01*
X113442949Y-179366286D01*
X113419139Y-179318667D01*
X113371520Y-179294857D01*
X113300092Y-179294857D01*
X113252473Y-179318667D01*
X112633425Y-179628190D02*
X112633425Y-179294857D01*
X112633425Y-179342476D02*
X112609616Y-179318667D01*
X112561997Y-179294857D01*
X112490568Y-179294857D01*
X112442949Y-179318667D01*
X112419140Y-179366286D01*
X112419140Y-179628190D01*
X112419140Y-179366286D02*
X112395330Y-179318667D01*
X112347711Y-179294857D01*
X112276283Y-179294857D01*
X112228663Y-179318667D01*
X112204854Y-179366286D01*
X112204854Y-179628190D01*
X111776282Y-179604381D02*
X111823901Y-179628190D01*
X111919139Y-179628190D01*
X111966758Y-179604381D01*
X111990568Y-179556762D01*
X111990568Y-179366286D01*
X111966758Y-179318667D01*
X111919139Y-179294857D01*
X111823901Y-179294857D01*
X111776282Y-179318667D01*
X111752473Y-179366286D01*
X111752473Y-179413905D01*
X111990568Y-179461524D01*
X110942950Y-179628190D02*
X110942950Y-179366286D01*
X110966759Y-179318667D01*
X111014378Y-179294857D01*
X111109616Y-179294857D01*
X111157235Y-179318667D01*
X110942950Y-179604381D02*
X110990569Y-179628190D01*
X111109616Y-179628190D01*
X111157235Y-179604381D01*
X111181045Y-179556762D01*
X111181045Y-179509143D01*
X111157235Y-179461524D01*
X111109616Y-179437714D01*
X110990569Y-179437714D01*
X110942950Y-179413905D01*
X110323902Y-179628190D02*
X110323902Y-179128190D01*
X110109617Y-179628190D02*
X110109617Y-179366286D01*
X110133426Y-179318667D01*
X110181045Y-179294857D01*
X110252474Y-179294857D01*
X110300093Y-179318667D01*
X110323902Y-179342476D01*
X109681045Y-179604381D02*
X109728664Y-179628190D01*
X109823902Y-179628190D01*
X109871521Y-179604381D01*
X109895331Y-179556762D01*
X109895331Y-179366286D01*
X109871521Y-179318667D01*
X109823902Y-179294857D01*
X109728664Y-179294857D01*
X109681045Y-179318667D01*
X109657236Y-179366286D01*
X109657236Y-179413905D01*
X109895331Y-179461524D01*
X109228665Y-179628190D02*
X109228665Y-179366286D01*
X109252474Y-179318667D01*
X109300093Y-179294857D01*
X109395331Y-179294857D01*
X109442950Y-179318667D01*
X109228665Y-179604381D02*
X109276284Y-179628190D01*
X109395331Y-179628190D01*
X109442950Y-179604381D01*
X109466760Y-179556762D01*
X109466760Y-179509143D01*
X109442950Y-179461524D01*
X109395331Y-179437714D01*
X109276284Y-179437714D01*
X109228665Y-179413905D01*
X108776284Y-179628190D02*
X108776284Y-179128190D01*
X108776284Y-179604381D02*
X108823903Y-179628190D01*
X108919141Y-179628190D01*
X108966760Y-179604381D01*
X108990569Y-179580571D01*
X109014379Y-179532952D01*
X109014379Y-179390095D01*
X108990569Y-179342476D01*
X108966760Y-179318667D01*
X108919141Y-179294857D01*
X108823903Y-179294857D01*
X108776284Y-179318667D01*
X108323903Y-179628190D02*
X108323903Y-179366286D01*
X108347712Y-179318667D01*
X108395331Y-179294857D01*
X108490569Y-179294857D01*
X108538188Y-179318667D01*
X108323903Y-179604381D02*
X108371522Y-179628190D01*
X108490569Y-179628190D01*
X108538188Y-179604381D01*
X108561998Y-179556762D01*
X108561998Y-179509143D01*
X108538188Y-179461524D01*
X108490569Y-179437714D01*
X108371522Y-179437714D01*
X108323903Y-179413905D01*
X107871522Y-179604381D02*
X107919141Y-179628190D01*
X108014379Y-179628190D01*
X108061998Y-179604381D01*
X108085807Y-179580571D01*
X108109617Y-179532952D01*
X108109617Y-179390095D01*
X108085807Y-179342476D01*
X108061998Y-179318667D01*
X108014379Y-179294857D01*
X107919141Y-179294857D01*
X107871522Y-179318667D01*
X107657236Y-179628190D02*
X107657236Y-179128190D01*
X107442951Y-179628190D02*
X107442951Y-179366286D01*
X107466760Y-179318667D01*
X107514379Y-179294857D01*
X107585808Y-179294857D01*
X107633427Y-179318667D01*
X107657236Y-179342476D01*
X107014379Y-179604381D02*
X107061998Y-179628190D01*
X107157236Y-179628190D01*
X107204855Y-179604381D01*
X107228665Y-179556762D01*
X107228665Y-179366286D01*
X107204855Y-179318667D01*
X107157236Y-179294857D01*
X107061998Y-179294857D01*
X107014379Y-179318667D01*
X106990570Y-179366286D01*
X106990570Y-179413905D01*
X107228665Y-179461524D01*
X106395332Y-179294857D02*
X106395332Y-179723429D01*
X106419142Y-179771048D01*
X106466761Y-179794857D01*
X106490570Y-179794857D01*
X106395332Y-179128190D02*
X106419142Y-179152000D01*
X106395332Y-179175810D01*
X106371523Y-179152000D01*
X106395332Y-179128190D01*
X106395332Y-179175810D01*
X105942952Y-179294857D02*
X105942952Y-179628190D01*
X106157237Y-179294857D02*
X106157237Y-179556762D01*
X106133428Y-179604381D01*
X106085809Y-179628190D01*
X106014380Y-179628190D01*
X105966761Y-179604381D01*
X105942952Y-179580571D01*
X105728666Y-179604381D02*
X105681047Y-179628190D01*
X105585809Y-179628190D01*
X105538190Y-179604381D01*
X105514380Y-179556762D01*
X105514380Y-179532952D01*
X105538190Y-179485333D01*
X105585809Y-179461524D01*
X105657237Y-179461524D01*
X105704856Y-179437714D01*
X105728666Y-179390095D01*
X105728666Y-179366286D01*
X105704856Y-179318667D01*
X105657237Y-179294857D01*
X105585809Y-179294857D01*
X105538190Y-179318667D01*
X105371523Y-179294857D02*
X105181047Y-179294857D01*
X105300094Y-179128190D02*
X105300094Y-179556762D01*
X105276285Y-179604381D01*
X105228666Y-179628190D01*
X105181047Y-179628190D01*
X104704857Y-179294857D02*
X104514381Y-179294857D01*
X104633428Y-179128190D02*
X104633428Y-179556762D01*
X104609619Y-179604381D01*
X104562000Y-179628190D01*
X104514381Y-179628190D01*
X104347714Y-179628190D02*
X104347714Y-179294857D01*
X104347714Y-179390095D02*
X104323905Y-179342476D01*
X104300095Y-179318667D01*
X104252476Y-179294857D01*
X104204857Y-179294857D01*
X104085809Y-179294857D02*
X103966762Y-179628190D01*
X103847714Y-179294857D02*
X103966762Y-179628190D01*
X104014381Y-179747238D01*
X104038190Y-179771048D01*
X104085809Y-179794857D01*
X103657238Y-179628190D02*
X103657238Y-179294857D01*
X103657238Y-179128190D02*
X103681048Y-179152000D01*
X103657238Y-179175810D01*
X103633429Y-179152000D01*
X103657238Y-179128190D01*
X103657238Y-179175810D01*
X103419143Y-179294857D02*
X103419143Y-179628190D01*
X103419143Y-179342476D02*
X103395334Y-179318667D01*
X103347715Y-179294857D01*
X103276286Y-179294857D01*
X103228667Y-179318667D01*
X103204858Y-179366286D01*
X103204858Y-179628190D01*
X102752477Y-179294857D02*
X102752477Y-179699619D01*
X102776286Y-179747238D01*
X102800096Y-179771048D01*
X102847715Y-179794857D01*
X102919143Y-179794857D01*
X102966762Y-179771048D01*
X102752477Y-179604381D02*
X102800096Y-179628190D01*
X102895334Y-179628190D01*
X102942953Y-179604381D01*
X102966762Y-179580571D01*
X102990572Y-179532952D01*
X102990572Y-179390095D01*
X102966762Y-179342476D01*
X102942953Y-179318667D01*
X102895334Y-179294857D01*
X102800096Y-179294857D01*
X102752477Y-179318667D01*
X102204858Y-179294857D02*
X102014382Y-179294857D01*
X102133429Y-179128190D02*
X102133429Y-179556762D01*
X102109620Y-179604381D01*
X102062001Y-179628190D01*
X102014382Y-179628190D01*
X101776287Y-179628190D02*
X101823906Y-179604381D01*
X101847715Y-179580571D01*
X101871525Y-179532952D01*
X101871525Y-179390095D01*
X101847715Y-179342476D01*
X101823906Y-179318667D01*
X101776287Y-179294857D01*
X101704858Y-179294857D01*
X101657239Y-179318667D01*
X101633430Y-179342476D01*
X101609620Y-179390095D01*
X101609620Y-179532952D01*
X101633430Y-179580571D01*
X101657239Y-179604381D01*
X101704858Y-179628190D01*
X101776287Y-179628190D01*
X101085811Y-179294857D02*
X100895335Y-179294857D01*
X101014382Y-179128190D02*
X101014382Y-179556762D01*
X100990573Y-179604381D01*
X100942954Y-179628190D01*
X100895335Y-179628190D01*
X100728668Y-179628190D02*
X100728668Y-179128190D01*
X100514383Y-179628190D02*
X100514383Y-179366286D01*
X100538192Y-179318667D01*
X100585811Y-179294857D01*
X100657240Y-179294857D01*
X100704859Y-179318667D01*
X100728668Y-179342476D01*
X100276287Y-179628190D02*
X100276287Y-179294857D01*
X100276287Y-179128190D02*
X100300097Y-179152000D01*
X100276287Y-179175810D01*
X100252478Y-179152000D01*
X100276287Y-179128190D01*
X100276287Y-179175810D01*
X100038192Y-179294857D02*
X100038192Y-179628190D01*
X100038192Y-179342476D02*
X100014383Y-179318667D01*
X99966764Y-179294857D01*
X99895335Y-179294857D01*
X99847716Y-179318667D01*
X99823907Y-179366286D01*
X99823907Y-179628190D01*
X99585811Y-179628190D02*
X99585811Y-179128190D01*
X99538192Y-179437714D02*
X99395335Y-179628190D01*
X99395335Y-179294857D02*
X99585811Y-179485333D01*
X98585812Y-179628190D02*
X98585812Y-179128190D01*
X98585812Y-179604381D02*
X98633431Y-179628190D01*
X98728669Y-179628190D01*
X98776288Y-179604381D01*
X98800097Y-179580571D01*
X98823907Y-179532952D01*
X98823907Y-179390095D01*
X98800097Y-179342476D01*
X98776288Y-179318667D01*
X98728669Y-179294857D01*
X98633431Y-179294857D01*
X98585812Y-179318667D01*
X98276288Y-179628190D02*
X98323907Y-179604381D01*
X98347716Y-179580571D01*
X98371526Y-179532952D01*
X98371526Y-179390095D01*
X98347716Y-179342476D01*
X98323907Y-179318667D01*
X98276288Y-179294857D01*
X98204859Y-179294857D01*
X98157240Y-179318667D01*
X98133431Y-179342476D01*
X98109621Y-179390095D01*
X98109621Y-179532952D01*
X98133431Y-179580571D01*
X98157240Y-179604381D01*
X98204859Y-179628190D01*
X98276288Y-179628190D01*
X97942954Y-179294857D02*
X97847716Y-179628190D01*
X97752478Y-179390095D01*
X97657240Y-179628190D01*
X97562002Y-179294857D01*
X97371525Y-179294857D02*
X97371525Y-179628190D01*
X97371525Y-179342476D02*
X97347716Y-179318667D01*
X97300097Y-179294857D01*
X97228668Y-179294857D01*
X97181049Y-179318667D01*
X97157240Y-179366286D01*
X97157240Y-179628190D01*
X96609621Y-179294857D02*
X96419145Y-179294857D01*
X96538192Y-179128190D02*
X96538192Y-179556762D01*
X96514383Y-179604381D01*
X96466764Y-179628190D01*
X96419145Y-179628190D01*
X96181050Y-179628190D02*
X96228669Y-179604381D01*
X96252478Y-179580571D01*
X96276288Y-179532952D01*
X96276288Y-179390095D01*
X96252478Y-179342476D01*
X96228669Y-179318667D01*
X96181050Y-179294857D01*
X96109621Y-179294857D01*
X96062002Y-179318667D01*
X96038193Y-179342476D01*
X96014383Y-179390095D01*
X96014383Y-179532952D01*
X96038193Y-179580571D01*
X96062002Y-179604381D01*
X96109621Y-179628190D01*
X96181050Y-179628190D01*
X95466764Y-179294857D02*
X95347717Y-179628190D01*
X95228669Y-179294857D02*
X95347717Y-179628190D01*
X95395336Y-179747238D01*
X95419145Y-179771048D01*
X95466764Y-179794857D01*
X94966765Y-179628190D02*
X95014384Y-179604381D01*
X95038193Y-179580571D01*
X95062003Y-179532952D01*
X95062003Y-179390095D01*
X95038193Y-179342476D01*
X95014384Y-179318667D01*
X94966765Y-179294857D01*
X94895336Y-179294857D01*
X94847717Y-179318667D01*
X94823908Y-179342476D01*
X94800098Y-179390095D01*
X94800098Y-179532952D01*
X94823908Y-179580571D01*
X94847717Y-179604381D01*
X94895336Y-179628190D01*
X94966765Y-179628190D01*
X94371527Y-179294857D02*
X94371527Y-179628190D01*
X94585812Y-179294857D02*
X94585812Y-179556762D01*
X94562003Y-179604381D01*
X94514384Y-179628190D01*
X94442955Y-179628190D01*
X94395336Y-179604381D01*
X94371527Y-179580571D01*
X94133431Y-179628190D02*
X94133431Y-179294857D01*
X94133431Y-179390095D02*
X94109622Y-179342476D01*
X94085812Y-179318667D01*
X94038193Y-179294857D01*
X93990574Y-179294857D01*
X93371527Y-179628190D02*
X93419146Y-179604381D01*
X93442955Y-179556762D01*
X93442955Y-179128190D01*
X92990574Y-179604381D02*
X93038193Y-179628190D01*
X93133431Y-179628190D01*
X93181050Y-179604381D01*
X93204860Y-179556762D01*
X93204860Y-179366286D01*
X93181050Y-179318667D01*
X93133431Y-179294857D01*
X93038193Y-179294857D01*
X92990574Y-179318667D01*
X92966765Y-179366286D01*
X92966765Y-179413905D01*
X93204860Y-179461524D01*
X92800098Y-179294857D02*
X92681051Y-179628190D01*
X92562003Y-179294857D01*
X92181051Y-179604381D02*
X92228670Y-179628190D01*
X92323908Y-179628190D01*
X92371527Y-179604381D01*
X92395337Y-179556762D01*
X92395337Y-179366286D01*
X92371527Y-179318667D01*
X92323908Y-179294857D01*
X92228670Y-179294857D01*
X92181051Y-179318667D01*
X92157242Y-179366286D01*
X92157242Y-179413905D01*
X92395337Y-179461524D01*
X91871528Y-179628190D02*
X91919147Y-179604381D01*
X91942956Y-179556762D01*
X91942956Y-179128190D01*
X91681051Y-179580571D02*
X91657242Y-179604381D01*
X91681051Y-179628190D01*
X91704861Y-179604381D01*
X91681051Y-179580571D01*
X91681051Y-179628190D01*
D11*
X284627714Y-155033762D02*
X284484857Y-155081381D01*
X284246761Y-155081381D01*
X284151523Y-155033762D01*
X284103904Y-154986143D01*
X284056285Y-154890905D01*
X284056285Y-154795667D01*
X284103904Y-154700429D01*
X284151523Y-154652810D01*
X284246761Y-154605190D01*
X284437238Y-154557571D01*
X284532476Y-154509952D01*
X284580095Y-154462333D01*
X284627714Y-154367095D01*
X284627714Y-154271857D01*
X284580095Y-154176619D01*
X284532476Y-154129000D01*
X284437238Y-154081381D01*
X284199142Y-154081381D01*
X284056285Y-154129000D01*
X283437238Y-154081381D02*
X283246761Y-154081381D01*
X283151523Y-154129000D01*
X283056285Y-154224238D01*
X283008666Y-154414714D01*
X283008666Y-154748048D01*
X283056285Y-154938524D01*
X283151523Y-155033762D01*
X283246761Y-155081381D01*
X283437238Y-155081381D01*
X283532476Y-155033762D01*
X283627714Y-154938524D01*
X283675333Y-154748048D01*
X283675333Y-154414714D01*
X283627714Y-154224238D01*
X283532476Y-154129000D01*
X283437238Y-154081381D01*
X282580095Y-154081381D02*
X282580095Y-154890905D01*
X282532476Y-154986143D01*
X282484857Y-155033762D01*
X282389619Y-155081381D01*
X282199142Y-155081381D01*
X282103904Y-155033762D01*
X282056285Y-154986143D01*
X282008666Y-154890905D01*
X282008666Y-154081381D01*
X280961047Y-155081381D02*
X281294381Y-154605190D01*
X281532476Y-155081381D02*
X281532476Y-154081381D01*
X281151523Y-154081381D01*
X281056285Y-154129000D01*
X281008666Y-154176619D01*
X280961047Y-154271857D01*
X280961047Y-154414714D01*
X281008666Y-154509952D01*
X281056285Y-154557571D01*
X281151523Y-154605190D01*
X281532476Y-154605190D01*
X279961047Y-154986143D02*
X280008666Y-155033762D01*
X280151523Y-155081381D01*
X280246761Y-155081381D01*
X280389619Y-155033762D01*
X280484857Y-154938524D01*
X280532476Y-154843286D01*
X280580095Y-154652810D01*
X280580095Y-154509952D01*
X280532476Y-154319476D01*
X280484857Y-154224238D01*
X280389619Y-154129000D01*
X280246761Y-154081381D01*
X280151523Y-154081381D01*
X280008666Y-154129000D01*
X279961047Y-154176619D01*
X279532476Y-154557571D02*
X279199142Y-154557571D01*
X279056285Y-155081381D02*
X279532476Y-155081381D01*
X279532476Y-154081381D01*
X279056285Y-154081381D01*
X282842000Y-148879000D02*
X282937238Y-148831381D01*
X283080095Y-148831381D01*
X283222953Y-148879000D01*
X283318191Y-148974238D01*
X283365810Y-149069476D01*
X283413429Y-149259952D01*
X283413429Y-149402810D01*
X283365810Y-149593286D01*
X283318191Y-149688524D01*
X283222953Y-149783762D01*
X283080095Y-149831381D01*
X282984857Y-149831381D01*
X282842000Y-149783762D01*
X282794381Y-149736143D01*
X282794381Y-149402810D01*
X282984857Y-149402810D01*
X282413429Y-149545667D02*
X281937238Y-149545667D01*
X282508667Y-149831381D02*
X282175334Y-148831381D01*
X281842000Y-149831381D01*
X281651524Y-148831381D02*
X281080095Y-148831381D01*
X281365810Y-149831381D02*
X281365810Y-148831381D01*
X280746762Y-149307571D02*
X280413428Y-149307571D01*
X280270571Y-149831381D02*
X280746762Y-149831381D01*
X280746762Y-148831381D01*
X280270571Y-148831381D01*
X283794381Y-145081381D02*
X283794381Y-144081381D01*
X283556286Y-144081381D01*
X283413428Y-144129000D01*
X283318190Y-144224238D01*
X283270571Y-144319476D01*
X283222952Y-144509952D01*
X283222952Y-144652810D01*
X283270571Y-144843286D01*
X283318190Y-144938524D01*
X283413428Y-145033762D01*
X283556286Y-145081381D01*
X283794381Y-145081381D01*
X282222952Y-145081381D02*
X282556286Y-144605190D01*
X282794381Y-145081381D02*
X282794381Y-144081381D01*
X282413428Y-144081381D01*
X282318190Y-144129000D01*
X282270571Y-144176619D01*
X282222952Y-144271857D01*
X282222952Y-144414714D01*
X282270571Y-144509952D01*
X282318190Y-144557571D01*
X282413428Y-144605190D01*
X282794381Y-144605190D01*
X281842000Y-144795667D02*
X281365809Y-144795667D01*
X281937238Y-145081381D02*
X281603905Y-144081381D01*
X281270571Y-145081381D01*
X280937238Y-145081381D02*
X280937238Y-144081381D01*
X280461048Y-145081381D02*
X280461048Y-144081381D01*
X279889619Y-145081381D01*
X279889619Y-144081381D01*
X239014000Y-171129000D02*
X239014000Y-123129000D01*
X233997500Y-171129000D02*
X233997500Y-123129000D01*
D12*
X275506288Y-126407571D02*
X275506288Y-124907571D01*
X274863431Y-126407571D02*
X274863431Y-125621857D01*
X274934860Y-125479000D01*
X275077717Y-125407571D01*
X275292002Y-125407571D01*
X275434860Y-125479000D01*
X275506288Y-125550429D01*
X274363431Y-125407571D02*
X273792002Y-125407571D01*
X274149145Y-124907571D02*
X274149145Y-126193286D01*
X274077717Y-126336143D01*
X273934859Y-126407571D01*
X273792002Y-126407571D01*
X273506288Y-125407571D02*
X272934859Y-125407571D01*
X273292002Y-124907571D02*
X273292002Y-126193286D01*
X273220574Y-126336143D01*
X273077716Y-126407571D01*
X272934859Y-126407571D01*
X272434859Y-125407571D02*
X272434859Y-126907571D01*
X272434859Y-125479000D02*
X272292002Y-125407571D01*
X272006288Y-125407571D01*
X271863431Y-125479000D01*
X271792002Y-125550429D01*
X271720573Y-125693286D01*
X271720573Y-126121857D01*
X271792002Y-126264714D01*
X271863431Y-126336143D01*
X272006288Y-126407571D01*
X272292002Y-126407571D01*
X272434859Y-126336143D01*
X271149145Y-126336143D02*
X271006288Y-126407571D01*
X270720573Y-126407571D01*
X270577716Y-126336143D01*
X270506288Y-126193286D01*
X270506288Y-126121857D01*
X270577716Y-125979000D01*
X270720573Y-125907571D01*
X270934859Y-125907571D01*
X271077716Y-125836143D01*
X271149145Y-125693286D01*
X271149145Y-125621857D01*
X271077716Y-125479000D01*
X270934859Y-125407571D01*
X270720573Y-125407571D01*
X270577716Y-125479000D01*
X269863430Y-126264714D02*
X269792002Y-126336143D01*
X269863430Y-126407571D01*
X269934859Y-126336143D01*
X269863430Y-126264714D01*
X269863430Y-126407571D01*
X269863430Y-125479000D02*
X269792002Y-125550429D01*
X269863430Y-125621857D01*
X269934859Y-125550429D01*
X269863430Y-125479000D01*
X269863430Y-125621857D01*
X268077716Y-124836143D02*
X269363430Y-126764714D01*
X266506287Y-124836143D02*
X267792001Y-126764714D01*
X266149143Y-125407571D02*
X265863429Y-126407571D01*
X265577715Y-125693286D01*
X265292000Y-126407571D01*
X265006286Y-125407571D01*
X264577714Y-125407571D02*
X264292000Y-126407571D01*
X264006286Y-125693286D01*
X263720571Y-126407571D01*
X263434857Y-125407571D01*
X263006285Y-125407571D02*
X262720571Y-126407571D01*
X262434857Y-125693286D01*
X262149142Y-126407571D01*
X261863428Y-125407571D01*
X261291999Y-126264714D02*
X261220571Y-126336143D01*
X261291999Y-126407571D01*
X261363428Y-126336143D01*
X261291999Y-126264714D01*
X261291999Y-126407571D01*
X260649142Y-126336143D02*
X260506285Y-126407571D01*
X260220570Y-126407571D01*
X260077713Y-126336143D01*
X260006285Y-126193286D01*
X260006285Y-126121857D01*
X260077713Y-125979000D01*
X260220570Y-125907571D01*
X260434856Y-125907571D01*
X260577713Y-125836143D01*
X260649142Y-125693286D01*
X260649142Y-125621857D01*
X260577713Y-125479000D01*
X260434856Y-125407571D01*
X260220570Y-125407571D01*
X260077713Y-125479000D01*
X259506284Y-125407571D02*
X259220570Y-126407571D01*
X258934856Y-125693286D01*
X258649141Y-126407571D01*
X258363427Y-125407571D01*
X257791998Y-126407571D02*
X257791998Y-125407571D01*
X257791998Y-124907571D02*
X257863427Y-124979000D01*
X257791998Y-125050429D01*
X257720570Y-124979000D01*
X257791998Y-124907571D01*
X257791998Y-125050429D01*
X257291998Y-125407571D02*
X256720569Y-125407571D01*
X257077712Y-124907571D02*
X257077712Y-126193286D01*
X257006284Y-126336143D01*
X256863426Y-126407571D01*
X256720569Y-126407571D01*
X255577712Y-126336143D02*
X255720569Y-126407571D01*
X256006283Y-126407571D01*
X256149141Y-126336143D01*
X256220569Y-126264714D01*
X256291998Y-126121857D01*
X256291998Y-125693286D01*
X256220569Y-125550429D01*
X256149141Y-125479000D01*
X256006283Y-125407571D01*
X255720569Y-125407571D01*
X255577712Y-125479000D01*
X254934855Y-126407571D02*
X254934855Y-124907571D01*
X254291998Y-126407571D02*
X254291998Y-125621857D01*
X254363427Y-125479000D01*
X254506284Y-125407571D01*
X254720569Y-125407571D01*
X254863427Y-125479000D01*
X254934855Y-125550429D01*
X252934855Y-126336143D02*
X253077712Y-126407571D01*
X253363426Y-126407571D01*
X253506284Y-126336143D01*
X253577712Y-126264714D01*
X253649141Y-126121857D01*
X253649141Y-125693286D01*
X253577712Y-125550429D01*
X253506284Y-125479000D01*
X253363426Y-125407571D01*
X253077712Y-125407571D01*
X252934855Y-125479000D01*
X252291998Y-126407571D02*
X252291998Y-125407571D01*
X252291998Y-125693286D02*
X252220570Y-125550429D01*
X252149141Y-125479000D01*
X252006284Y-125407571D01*
X251863427Y-125407571D01*
X250720570Y-126407571D02*
X250720570Y-125621857D01*
X250791999Y-125479000D01*
X250934856Y-125407571D01*
X251220570Y-125407571D01*
X251363427Y-125479000D01*
X250720570Y-126336143D02*
X250863427Y-126407571D01*
X251220570Y-126407571D01*
X251363427Y-126336143D01*
X251434856Y-126193286D01*
X251434856Y-126050429D01*
X251363427Y-125907571D01*
X251220570Y-125836143D01*
X250863427Y-125836143D01*
X250720570Y-125764714D01*
X250220570Y-125407571D02*
X249649141Y-125407571D01*
X250006284Y-126407571D02*
X250006284Y-125121857D01*
X249934856Y-124979000D01*
X249791998Y-124907571D01*
X249649141Y-124907571D01*
X249363427Y-125407571D02*
X248791998Y-125407571D01*
X249149141Y-124907571D02*
X249149141Y-126193286D01*
X249077713Y-126336143D01*
X248934855Y-126407571D01*
X248791998Y-126407571D01*
X248291998Y-126264714D02*
X248220570Y-126336143D01*
X248291998Y-126407571D01*
X248363427Y-126336143D01*
X248291998Y-126264714D01*
X248291998Y-126407571D01*
X247363426Y-126407571D02*
X247506284Y-126336143D01*
X247577712Y-126264714D01*
X247649141Y-126121857D01*
X247649141Y-125693286D01*
X247577712Y-125550429D01*
X247506284Y-125479000D01*
X247363426Y-125407571D01*
X247149141Y-125407571D01*
X247006284Y-125479000D01*
X246934855Y-125550429D01*
X246863426Y-125693286D01*
X246863426Y-126121857D01*
X246934855Y-126264714D01*
X247006284Y-126336143D01*
X247149141Y-126407571D01*
X247363426Y-126407571D01*
X246220569Y-126407571D02*
X246220569Y-125407571D01*
X246220569Y-125693286D02*
X246149141Y-125550429D01*
X246077712Y-125479000D01*
X245934855Y-125407571D01*
X245791998Y-125407571D01*
X244649141Y-125407571D02*
X244649141Y-126621857D01*
X244720570Y-126764714D01*
X244791998Y-126836143D01*
X244934855Y-126907571D01*
X245149141Y-126907571D01*
X245291998Y-126836143D01*
X244649141Y-126336143D02*
X244791998Y-126407571D01*
X245077712Y-126407571D01*
X245220570Y-126336143D01*
X245291998Y-126264714D01*
X245363427Y-126121857D01*
X245363427Y-125693286D01*
X245291998Y-125550429D01*
X245220570Y-125479000D01*
X245077712Y-125407571D01*
X244791998Y-125407571D01*
X244649141Y-125479000D01*
X242863427Y-124836143D02*
X244149141Y-126764714D01*
D10*
X228818190Y-126838529D02*
X228318190Y-126838529D01*
X228318190Y-126957576D01*
X228342000Y-127029005D01*
X228389619Y-127076624D01*
X228437238Y-127100433D01*
X228532476Y-127124243D01*
X228603905Y-127124243D01*
X228699143Y-127100433D01*
X228746762Y-127076624D01*
X228794381Y-127029005D01*
X228818190Y-126957576D01*
X228818190Y-126838529D01*
X228818190Y-127409957D02*
X228794381Y-127362338D01*
X228770571Y-127338529D01*
X228722952Y-127314719D01*
X228580095Y-127314719D01*
X228532476Y-127338529D01*
X228508667Y-127362338D01*
X228484857Y-127409957D01*
X228484857Y-127481386D01*
X228508667Y-127529005D01*
X228532476Y-127552814D01*
X228580095Y-127576624D01*
X228722952Y-127576624D01*
X228770571Y-127552814D01*
X228794381Y-127529005D01*
X228818190Y-127481386D01*
X228818190Y-127409957D01*
X228484857Y-127790910D02*
X228818190Y-127790910D01*
X228532476Y-127790910D02*
X228508667Y-127814719D01*
X228484857Y-127862338D01*
X228484857Y-127933767D01*
X228508667Y-127981386D01*
X228556286Y-128005195D01*
X228818190Y-128005195D01*
X228318190Y-128267100D02*
X228413429Y-128219481D01*
X228484857Y-128409957D02*
X228484857Y-128600433D01*
X228318190Y-128481386D02*
X228746762Y-128481386D01*
X228794381Y-128505195D01*
X228818190Y-128552814D01*
X228818190Y-128600433D01*
X228818190Y-129148052D02*
X228318190Y-129148052D01*
X228508667Y-129148052D02*
X228484857Y-129195671D01*
X228484857Y-129290909D01*
X228508667Y-129338528D01*
X228532476Y-129362337D01*
X228580095Y-129386147D01*
X228722952Y-129386147D01*
X228770571Y-129362337D01*
X228794381Y-129338528D01*
X228818190Y-129290909D01*
X228818190Y-129195671D01*
X228794381Y-129148052D01*
X228818190Y-129671861D02*
X228794381Y-129624242D01*
X228746762Y-129600433D01*
X228318190Y-129600433D01*
X228818190Y-130076623D02*
X228556286Y-130076623D01*
X228508667Y-130052814D01*
X228484857Y-130005195D01*
X228484857Y-129909957D01*
X228508667Y-129862338D01*
X228794381Y-130076623D02*
X228818190Y-130029004D01*
X228818190Y-129909957D01*
X228794381Y-129862338D01*
X228746762Y-129838528D01*
X228699143Y-129838528D01*
X228651524Y-129862338D01*
X228627714Y-129909957D01*
X228627714Y-130029004D01*
X228603905Y-130076623D01*
X228818190Y-130314719D02*
X228484857Y-130314719D01*
X228532476Y-130314719D02*
X228508667Y-130338528D01*
X228484857Y-130386147D01*
X228484857Y-130457576D01*
X228508667Y-130505195D01*
X228556286Y-130529004D01*
X228818190Y-130529004D01*
X228556286Y-130529004D02*
X228508667Y-130552814D01*
X228484857Y-130600433D01*
X228484857Y-130671861D01*
X228508667Y-130719481D01*
X228556286Y-130743290D01*
X228818190Y-130743290D01*
X228794381Y-131171862D02*
X228818190Y-131124243D01*
X228818190Y-131029005D01*
X228794381Y-130981386D01*
X228746762Y-130957576D01*
X228556286Y-130957576D01*
X228508667Y-130981386D01*
X228484857Y-131029005D01*
X228484857Y-131124243D01*
X228508667Y-131171862D01*
X228556286Y-131195671D01*
X228603905Y-131195671D01*
X228651524Y-130957576D01*
X228818190Y-131790909D02*
X228484857Y-131790909D01*
X228532476Y-131790909D02*
X228508667Y-131814718D01*
X228484857Y-131862337D01*
X228484857Y-131933766D01*
X228508667Y-131981385D01*
X228556286Y-132005194D01*
X228818190Y-132005194D01*
X228556286Y-132005194D02*
X228508667Y-132029004D01*
X228484857Y-132076623D01*
X228484857Y-132148051D01*
X228508667Y-132195671D01*
X228556286Y-132219480D01*
X228818190Y-132219480D01*
X228794381Y-132648052D02*
X228818190Y-132600433D01*
X228818190Y-132505195D01*
X228794381Y-132457576D01*
X228746762Y-132433766D01*
X228556286Y-132433766D01*
X228508667Y-132457576D01*
X228484857Y-132505195D01*
X228484857Y-132600433D01*
X228508667Y-132648052D01*
X228556286Y-132671861D01*
X228603905Y-132671861D01*
X228651524Y-132433766D01*
X228770571Y-132886147D02*
X228794381Y-132909956D01*
X228818190Y-132886147D01*
X228794381Y-132862337D01*
X228770571Y-132886147D01*
X228818190Y-132886147D01*
X228818190Y-133505194D02*
X228318190Y-133505194D01*
X228318190Y-133767098D02*
X228413429Y-133719479D01*
X228818190Y-133981384D02*
X228484857Y-133981384D01*
X228532476Y-133981384D02*
X228508667Y-134005193D01*
X228484857Y-134052812D01*
X228484857Y-134124241D01*
X228508667Y-134171860D01*
X228556286Y-134195669D01*
X228818190Y-134195669D01*
X228556286Y-134195669D02*
X228508667Y-134219479D01*
X228484857Y-134267098D01*
X228484857Y-134338526D01*
X228508667Y-134386146D01*
X228556286Y-134409955D01*
X228818190Y-134409955D01*
X228818190Y-135243288D02*
X228556286Y-135243288D01*
X228508667Y-135219479D01*
X228484857Y-135171860D01*
X228484857Y-135076622D01*
X228508667Y-135029003D01*
X228794381Y-135243288D02*
X228818190Y-135195669D01*
X228818190Y-135076622D01*
X228794381Y-135029003D01*
X228746762Y-135005193D01*
X228699143Y-135005193D01*
X228651524Y-135029003D01*
X228627714Y-135076622D01*
X228627714Y-135195669D01*
X228603905Y-135243288D01*
X228484857Y-135481384D02*
X228818190Y-135481384D01*
X228532476Y-135481384D02*
X228508667Y-135505193D01*
X228484857Y-135552812D01*
X228484857Y-135624241D01*
X228508667Y-135671860D01*
X228556286Y-135695669D01*
X228818190Y-135695669D01*
X228818190Y-136314717D02*
X228484857Y-136314717D01*
X228318190Y-136314717D02*
X228342000Y-136290907D01*
X228365810Y-136314717D01*
X228342000Y-136338526D01*
X228318190Y-136314717D01*
X228365810Y-136314717D01*
X228484857Y-136552812D02*
X228818190Y-136552812D01*
X228532476Y-136552812D02*
X228508667Y-136576621D01*
X228484857Y-136624240D01*
X228484857Y-136695669D01*
X228508667Y-136743288D01*
X228556286Y-136767097D01*
X228818190Y-136767097D01*
X228484857Y-136933764D02*
X228484857Y-137124240D01*
X228318190Y-137005193D02*
X228746762Y-137005193D01*
X228794381Y-137029002D01*
X228818190Y-137076621D01*
X228818190Y-137124240D01*
X228794381Y-137481383D02*
X228818190Y-137433764D01*
X228818190Y-137338526D01*
X228794381Y-137290907D01*
X228746762Y-137267097D01*
X228556286Y-137267097D01*
X228508667Y-137290907D01*
X228484857Y-137338526D01*
X228484857Y-137433764D01*
X228508667Y-137481383D01*
X228556286Y-137505192D01*
X228603905Y-137505192D01*
X228651524Y-137267097D01*
X228818190Y-137719478D02*
X228484857Y-137719478D01*
X228580095Y-137719478D02*
X228532476Y-137743287D01*
X228508667Y-137767097D01*
X228484857Y-137814716D01*
X228484857Y-137862335D01*
X228484857Y-138029002D02*
X228984857Y-138029002D01*
X228508667Y-138029002D02*
X228484857Y-138076621D01*
X228484857Y-138171859D01*
X228508667Y-138219478D01*
X228532476Y-138243287D01*
X228580095Y-138267097D01*
X228722952Y-138267097D01*
X228770571Y-138243287D01*
X228794381Y-138219478D01*
X228818190Y-138171859D01*
X228818190Y-138076621D01*
X228794381Y-138029002D01*
X228818190Y-138481383D02*
X228484857Y-138481383D01*
X228580095Y-138481383D02*
X228532476Y-138505192D01*
X228508667Y-138529002D01*
X228484857Y-138576621D01*
X228484857Y-138624240D01*
X228794381Y-138981383D02*
X228818190Y-138933764D01*
X228818190Y-138838526D01*
X228794381Y-138790907D01*
X228746762Y-138767097D01*
X228556286Y-138767097D01*
X228508667Y-138790907D01*
X228484857Y-138838526D01*
X228484857Y-138933764D01*
X228508667Y-138981383D01*
X228556286Y-139005192D01*
X228603905Y-139005192D01*
X228651524Y-138767097D01*
X228484857Y-139148049D02*
X228484857Y-139338525D01*
X228318190Y-139219478D02*
X228746762Y-139219478D01*
X228794381Y-139243287D01*
X228818190Y-139290906D01*
X228818190Y-139338525D01*
X228794381Y-139695668D02*
X228818190Y-139648049D01*
X228818190Y-139552811D01*
X228794381Y-139505192D01*
X228746762Y-139481382D01*
X228556286Y-139481382D01*
X228508667Y-139505192D01*
X228484857Y-139552811D01*
X228484857Y-139648049D01*
X228508667Y-139695668D01*
X228556286Y-139719477D01*
X228603905Y-139719477D01*
X228651524Y-139481382D01*
X228818190Y-139933763D02*
X228484857Y-139933763D01*
X228580095Y-139933763D02*
X228532476Y-139957572D01*
X228508667Y-139981382D01*
X228484857Y-140029001D01*
X228484857Y-140076620D01*
X228770571Y-140243287D02*
X228794381Y-140267096D01*
X228818190Y-140243287D01*
X228794381Y-140219477D01*
X228770571Y-140243287D01*
X228818190Y-140243287D01*
X228818190Y-140862334D02*
X228318190Y-140862334D01*
X228318190Y-141124238D02*
X228413429Y-141076619D01*
X228818190Y-141338524D02*
X228484857Y-141338524D01*
X228532476Y-141338524D02*
X228508667Y-141362333D01*
X228484857Y-141409952D01*
X228484857Y-141481381D01*
X228508667Y-141529000D01*
X228556286Y-141552809D01*
X228818190Y-141552809D01*
X228556286Y-141552809D02*
X228508667Y-141576619D01*
X228484857Y-141624238D01*
X228484857Y-141695666D01*
X228508667Y-141743286D01*
X228556286Y-141767095D01*
X228818190Y-141767095D01*
X228484857Y-142386143D02*
X228818190Y-142386143D01*
X228532476Y-142386143D02*
X228508667Y-142409952D01*
X228484857Y-142457571D01*
X228484857Y-142529000D01*
X228508667Y-142576619D01*
X228556286Y-142600428D01*
X228818190Y-142600428D01*
X228818190Y-142909952D02*
X228794381Y-142862333D01*
X228770571Y-142838524D01*
X228722952Y-142814714D01*
X228580095Y-142814714D01*
X228532476Y-142838524D01*
X228508667Y-142862333D01*
X228484857Y-142909952D01*
X228484857Y-142981381D01*
X228508667Y-143029000D01*
X228532476Y-143052809D01*
X228580095Y-143076619D01*
X228722952Y-143076619D01*
X228770571Y-143052809D01*
X228794381Y-143029000D01*
X228818190Y-142981381D01*
X228818190Y-142909952D01*
X228484857Y-143219476D02*
X228484857Y-143409952D01*
X228318190Y-143290905D02*
X228746762Y-143290905D01*
X228794381Y-143314714D01*
X228818190Y-143362333D01*
X228818190Y-143409952D01*
X228794381Y-143933761D02*
X228818190Y-143981380D01*
X228818190Y-144076618D01*
X228794381Y-144124237D01*
X228746762Y-144148047D01*
X228722952Y-144148047D01*
X228675333Y-144124237D01*
X228651524Y-144076618D01*
X228651524Y-144005190D01*
X228627714Y-143957571D01*
X228580095Y-143933761D01*
X228556286Y-143933761D01*
X228508667Y-143957571D01*
X228484857Y-144005190D01*
X228484857Y-144076618D01*
X228508667Y-144124237D01*
X228484857Y-144576618D02*
X228818190Y-144576618D01*
X228484857Y-144362333D02*
X228746762Y-144362333D01*
X228794381Y-144386142D01*
X228818190Y-144433761D01*
X228818190Y-144505190D01*
X228794381Y-144552809D01*
X228770571Y-144576618D01*
X228484857Y-144814714D02*
X228984857Y-144814714D01*
X228508667Y-144814714D02*
X228484857Y-144862333D01*
X228484857Y-144957571D01*
X228508667Y-145005190D01*
X228532476Y-145028999D01*
X228580095Y-145052809D01*
X228722952Y-145052809D01*
X228770571Y-145028999D01*
X228794381Y-145005190D01*
X228818190Y-144957571D01*
X228818190Y-144862333D01*
X228794381Y-144814714D01*
X228484857Y-145267095D02*
X228984857Y-145267095D01*
X228508667Y-145267095D02*
X228484857Y-145314714D01*
X228484857Y-145409952D01*
X228508667Y-145457571D01*
X228532476Y-145481380D01*
X228580095Y-145505190D01*
X228722952Y-145505190D01*
X228770571Y-145481380D01*
X228794381Y-145457571D01*
X228818190Y-145409952D01*
X228818190Y-145314714D01*
X228794381Y-145267095D01*
X228818190Y-145790904D02*
X228794381Y-145743285D01*
X228770571Y-145719476D01*
X228722952Y-145695666D01*
X228580095Y-145695666D01*
X228532476Y-145719476D01*
X228508667Y-145743285D01*
X228484857Y-145790904D01*
X228484857Y-145862333D01*
X228508667Y-145909952D01*
X228532476Y-145933761D01*
X228580095Y-145957571D01*
X228722952Y-145957571D01*
X228770571Y-145933761D01*
X228794381Y-145909952D01*
X228818190Y-145862333D01*
X228818190Y-145790904D01*
X228794381Y-146148047D02*
X228818190Y-146195666D01*
X228818190Y-146290904D01*
X228794381Y-146338523D01*
X228746762Y-146362333D01*
X228722952Y-146362333D01*
X228675333Y-146338523D01*
X228651524Y-146290904D01*
X228651524Y-146219476D01*
X228627714Y-146171857D01*
X228580095Y-146148047D01*
X228556286Y-146148047D01*
X228508667Y-146171857D01*
X228484857Y-146219476D01*
X228484857Y-146290904D01*
X228508667Y-146338523D01*
X228794381Y-146767095D02*
X228818190Y-146719476D01*
X228818190Y-146624238D01*
X228794381Y-146576619D01*
X228746762Y-146552809D01*
X228556286Y-146552809D01*
X228508667Y-146576619D01*
X228484857Y-146624238D01*
X228484857Y-146719476D01*
X228508667Y-146767095D01*
X228556286Y-146790904D01*
X228603905Y-146790904D01*
X228651524Y-146552809D01*
X228818190Y-147219475D02*
X228318190Y-147219475D01*
X228794381Y-147219475D02*
X228818190Y-147171856D01*
X228818190Y-147076618D01*
X228794381Y-147028999D01*
X228770571Y-147005190D01*
X228722952Y-146981380D01*
X228580095Y-146981380D01*
X228532476Y-147005190D01*
X228508667Y-147028999D01*
X228484857Y-147076618D01*
X228484857Y-147171856D01*
X228508667Y-147219475D01*
X228484857Y-147767094D02*
X228484857Y-147957570D01*
X228318190Y-147838523D02*
X228746762Y-147838523D01*
X228794381Y-147862332D01*
X228818190Y-147909951D01*
X228818190Y-147957570D01*
X228818190Y-148195665D02*
X228794381Y-148148046D01*
X228770571Y-148124237D01*
X228722952Y-148100427D01*
X228580095Y-148100427D01*
X228532476Y-148124237D01*
X228508667Y-148148046D01*
X228484857Y-148195665D01*
X228484857Y-148267094D01*
X228508667Y-148314713D01*
X228532476Y-148338522D01*
X228580095Y-148362332D01*
X228722952Y-148362332D01*
X228770571Y-148338522D01*
X228794381Y-148314713D01*
X228818190Y-148267094D01*
X228818190Y-148195665D01*
X228818190Y-148957570D02*
X228318190Y-148957570D01*
X228627714Y-149005189D02*
X228818190Y-149148046D01*
X228484857Y-149148046D02*
X228675333Y-148957570D01*
X228484857Y-149362332D02*
X228818190Y-149362332D01*
X228532476Y-149362332D02*
X228508667Y-149386141D01*
X228484857Y-149433760D01*
X228484857Y-149505189D01*
X228508667Y-149552808D01*
X228556286Y-149576617D01*
X228818190Y-149576617D01*
X228818190Y-149886141D02*
X228794381Y-149838522D01*
X228770571Y-149814713D01*
X228722952Y-149790903D01*
X228580095Y-149790903D01*
X228532476Y-149814713D01*
X228508667Y-149838522D01*
X228484857Y-149886141D01*
X228484857Y-149957570D01*
X228508667Y-150005189D01*
X228532476Y-150028998D01*
X228580095Y-150052808D01*
X228722952Y-150052808D01*
X228770571Y-150028998D01*
X228794381Y-150005189D01*
X228818190Y-149957570D01*
X228818190Y-149886141D01*
X228484857Y-150219475D02*
X228818190Y-150314713D01*
X228580095Y-150409951D01*
X228818190Y-150505189D01*
X228484857Y-150600427D01*
X228818190Y-151386141D02*
X228556286Y-151386141D01*
X228508667Y-151362332D01*
X228484857Y-151314713D01*
X228484857Y-151219475D01*
X228508667Y-151171856D01*
X228794381Y-151386141D02*
X228818190Y-151338522D01*
X228818190Y-151219475D01*
X228794381Y-151171856D01*
X228746762Y-151148046D01*
X228699143Y-151148046D01*
X228651524Y-151171856D01*
X228627714Y-151219475D01*
X228627714Y-151338522D01*
X228603905Y-151386141D01*
X228484857Y-152005189D02*
X228984857Y-152005189D01*
X228508667Y-152005189D02*
X228484857Y-152052808D01*
X228484857Y-152148046D01*
X228508667Y-152195665D01*
X228532476Y-152219474D01*
X228580095Y-152243284D01*
X228722952Y-152243284D01*
X228770571Y-152219474D01*
X228794381Y-152195665D01*
X228818190Y-152148046D01*
X228818190Y-152052808D01*
X228794381Y-152005189D01*
X228818190Y-152528998D02*
X228794381Y-152481379D01*
X228770571Y-152457570D01*
X228722952Y-152433760D01*
X228580095Y-152433760D01*
X228532476Y-152457570D01*
X228508667Y-152481379D01*
X228484857Y-152528998D01*
X228484857Y-152600427D01*
X228508667Y-152648046D01*
X228532476Y-152671855D01*
X228580095Y-152695665D01*
X228722952Y-152695665D01*
X228770571Y-152671855D01*
X228794381Y-152648046D01*
X228818190Y-152600427D01*
X228818190Y-152528998D01*
X228484857Y-152862332D02*
X228818190Y-152957570D01*
X228580095Y-153052808D01*
X228818190Y-153148046D01*
X228484857Y-153243284D01*
X228794381Y-153624237D02*
X228818190Y-153576618D01*
X228818190Y-153481380D01*
X228794381Y-153433761D01*
X228746762Y-153409951D01*
X228556286Y-153409951D01*
X228508667Y-153433761D01*
X228484857Y-153481380D01*
X228484857Y-153576618D01*
X228508667Y-153624237D01*
X228556286Y-153648046D01*
X228603905Y-153648046D01*
X228651524Y-153409951D01*
X228818190Y-153862332D02*
X228484857Y-153862332D01*
X228580095Y-153862332D02*
X228532476Y-153886141D01*
X228508667Y-153909951D01*
X228484857Y-153957570D01*
X228484857Y-154005189D01*
X228794381Y-154528998D02*
X228818190Y-154576617D01*
X228818190Y-154671855D01*
X228794381Y-154719474D01*
X228746762Y-154743284D01*
X228722952Y-154743284D01*
X228675333Y-154719474D01*
X228651524Y-154671855D01*
X228651524Y-154600427D01*
X228627714Y-154552808D01*
X228580095Y-154528998D01*
X228556286Y-154528998D01*
X228508667Y-154552808D01*
X228484857Y-154600427D01*
X228484857Y-154671855D01*
X228508667Y-154719474D01*
X228818190Y-155028998D02*
X228794381Y-154981379D01*
X228770571Y-154957570D01*
X228722952Y-154933760D01*
X228580095Y-154933760D01*
X228532476Y-154957570D01*
X228508667Y-154981379D01*
X228484857Y-155028998D01*
X228484857Y-155100427D01*
X228508667Y-155148046D01*
X228532476Y-155171855D01*
X228580095Y-155195665D01*
X228722952Y-155195665D01*
X228770571Y-155171855D01*
X228794381Y-155148046D01*
X228818190Y-155100427D01*
X228818190Y-155028998D01*
X228794381Y-155624236D02*
X228818190Y-155576617D01*
X228818190Y-155481379D01*
X228794381Y-155433760D01*
X228770571Y-155409951D01*
X228722952Y-155386141D01*
X228580095Y-155386141D01*
X228532476Y-155409951D01*
X228508667Y-155433760D01*
X228484857Y-155481379D01*
X228484857Y-155576617D01*
X228508667Y-155624236D01*
X228818190Y-155838522D02*
X228318190Y-155838522D01*
X228627714Y-155886141D02*
X228818190Y-156028998D01*
X228484857Y-156028998D02*
X228675333Y-155838522D01*
X228794381Y-156433760D02*
X228818190Y-156386141D01*
X228818190Y-156290903D01*
X228794381Y-156243284D01*
X228746762Y-156219474D01*
X228556286Y-156219474D01*
X228508667Y-156243284D01*
X228484857Y-156290903D01*
X228484857Y-156386141D01*
X228508667Y-156433760D01*
X228556286Y-156457569D01*
X228603905Y-156457569D01*
X228651524Y-156219474D01*
X228484857Y-156600426D02*
X228484857Y-156790902D01*
X228318190Y-156671855D02*
X228746762Y-156671855D01*
X228794381Y-156695664D01*
X228818190Y-156743283D01*
X228818190Y-156790902D01*
X228484857Y-157267092D02*
X228484857Y-157457568D01*
X228818190Y-157338521D02*
X228389619Y-157338521D01*
X228342000Y-157362330D01*
X228318190Y-157409949D01*
X228318190Y-157457568D01*
X228818190Y-157624235D02*
X228484857Y-157624235D01*
X228580095Y-157624235D02*
X228532476Y-157648044D01*
X228508667Y-157671854D01*
X228484857Y-157719473D01*
X228484857Y-157767092D01*
X228818190Y-158005187D02*
X228794381Y-157957568D01*
X228770571Y-157933759D01*
X228722952Y-157909949D01*
X228580095Y-157909949D01*
X228532476Y-157933759D01*
X228508667Y-157957568D01*
X228484857Y-158005187D01*
X228484857Y-158076616D01*
X228508667Y-158124235D01*
X228532476Y-158148044D01*
X228580095Y-158171854D01*
X228722952Y-158171854D01*
X228770571Y-158148044D01*
X228794381Y-158124235D01*
X228818190Y-158076616D01*
X228818190Y-158005187D01*
X228818190Y-158386140D02*
X228484857Y-158386140D01*
X228532476Y-158386140D02*
X228508667Y-158409949D01*
X228484857Y-158457568D01*
X228484857Y-158528997D01*
X228508667Y-158576616D01*
X228556286Y-158600425D01*
X228818190Y-158600425D01*
X228556286Y-158600425D02*
X228508667Y-158624235D01*
X228484857Y-158671854D01*
X228484857Y-158743282D01*
X228508667Y-158790902D01*
X228556286Y-158814711D01*
X228818190Y-158814711D01*
X228818190Y-159648044D02*
X228556286Y-159648044D01*
X228508667Y-159624235D01*
X228484857Y-159576616D01*
X228484857Y-159481378D01*
X228508667Y-159433759D01*
X228794381Y-159648044D02*
X228818190Y-159600425D01*
X228818190Y-159481378D01*
X228794381Y-159433759D01*
X228746762Y-159409949D01*
X228699143Y-159409949D01*
X228651524Y-159433759D01*
X228627714Y-159481378D01*
X228627714Y-159600425D01*
X228603905Y-159648044D01*
X228794381Y-160481377D02*
X228818190Y-160433758D01*
X228818190Y-160338520D01*
X228794381Y-160290901D01*
X228770571Y-160267092D01*
X228722952Y-160243282D01*
X228580095Y-160243282D01*
X228532476Y-160267092D01*
X228508667Y-160290901D01*
X228484857Y-160338520D01*
X228484857Y-160433758D01*
X228508667Y-160481377D01*
X228818190Y-160767091D02*
X228794381Y-160719472D01*
X228770571Y-160695663D01*
X228722952Y-160671853D01*
X228580095Y-160671853D01*
X228532476Y-160695663D01*
X228508667Y-160719472D01*
X228484857Y-160767091D01*
X228484857Y-160838520D01*
X228508667Y-160886139D01*
X228532476Y-160909948D01*
X228580095Y-160933758D01*
X228722952Y-160933758D01*
X228770571Y-160909948D01*
X228794381Y-160886139D01*
X228818190Y-160838520D01*
X228818190Y-160767091D01*
X228818190Y-161148044D02*
X228484857Y-161148044D01*
X228532476Y-161148044D02*
X228508667Y-161171853D01*
X228484857Y-161219472D01*
X228484857Y-161290901D01*
X228508667Y-161338520D01*
X228556286Y-161362329D01*
X228818190Y-161362329D01*
X228556286Y-161362329D02*
X228508667Y-161386139D01*
X228484857Y-161433758D01*
X228484857Y-161505186D01*
X228508667Y-161552806D01*
X228556286Y-161576615D01*
X228818190Y-161576615D01*
X228484857Y-161814711D02*
X228984857Y-161814711D01*
X228508667Y-161814711D02*
X228484857Y-161862330D01*
X228484857Y-161957568D01*
X228508667Y-162005187D01*
X228532476Y-162028996D01*
X228580095Y-162052806D01*
X228722952Y-162052806D01*
X228770571Y-162028996D01*
X228794381Y-162005187D01*
X228818190Y-161957568D01*
X228818190Y-161862330D01*
X228794381Y-161814711D01*
X228484857Y-162481377D02*
X228818190Y-162481377D01*
X228484857Y-162267092D02*
X228746762Y-162267092D01*
X228794381Y-162290901D01*
X228818190Y-162338520D01*
X228818190Y-162409949D01*
X228794381Y-162457568D01*
X228770571Y-162481377D01*
X228484857Y-162648044D02*
X228484857Y-162838520D01*
X228318190Y-162719473D02*
X228746762Y-162719473D01*
X228794381Y-162743282D01*
X228818190Y-162790901D01*
X228818190Y-162838520D01*
X228794381Y-163195663D02*
X228818190Y-163148044D01*
X228818190Y-163052806D01*
X228794381Y-163005187D01*
X228746762Y-162981377D01*
X228556286Y-162981377D01*
X228508667Y-163005187D01*
X228484857Y-163052806D01*
X228484857Y-163148044D01*
X228508667Y-163195663D01*
X228556286Y-163219472D01*
X228603905Y-163219472D01*
X228651524Y-162981377D01*
X228818190Y-163433758D02*
X228484857Y-163433758D01*
X228580095Y-163433758D02*
X228532476Y-163457567D01*
X228508667Y-163481377D01*
X228484857Y-163528996D01*
X228484857Y-163576615D01*
X228484857Y-164052805D02*
X228484857Y-164243281D01*
X228318190Y-164124234D02*
X228746762Y-164124234D01*
X228794381Y-164148043D01*
X228818190Y-164195662D01*
X228818190Y-164243281D01*
X228794381Y-164600424D02*
X228818190Y-164552805D01*
X228818190Y-164457567D01*
X228794381Y-164409948D01*
X228746762Y-164386138D01*
X228556286Y-164386138D01*
X228508667Y-164409948D01*
X228484857Y-164457567D01*
X228484857Y-164552805D01*
X228508667Y-164600424D01*
X228556286Y-164624233D01*
X228603905Y-164624233D01*
X228651524Y-164386138D01*
X228818190Y-164838519D02*
X228484857Y-164838519D01*
X228580095Y-164838519D02*
X228532476Y-164862328D01*
X228508667Y-164886138D01*
X228484857Y-164933757D01*
X228484857Y-164981376D01*
X228818190Y-165148043D02*
X228484857Y-165148043D01*
X228532476Y-165148043D02*
X228508667Y-165171852D01*
X228484857Y-165219471D01*
X228484857Y-165290900D01*
X228508667Y-165338519D01*
X228556286Y-165362328D01*
X228818190Y-165362328D01*
X228556286Y-165362328D02*
X228508667Y-165386138D01*
X228484857Y-165433757D01*
X228484857Y-165505185D01*
X228508667Y-165552805D01*
X228556286Y-165576614D01*
X228818190Y-165576614D01*
X228818190Y-165814710D02*
X228484857Y-165814710D01*
X228318190Y-165814710D02*
X228342000Y-165790900D01*
X228365810Y-165814710D01*
X228342000Y-165838519D01*
X228318190Y-165814710D01*
X228365810Y-165814710D01*
X228484857Y-166052805D02*
X228818190Y-166052805D01*
X228532476Y-166052805D02*
X228508667Y-166076614D01*
X228484857Y-166124233D01*
X228484857Y-166195662D01*
X228508667Y-166243281D01*
X228556286Y-166267090D01*
X228818190Y-166267090D01*
X228818190Y-166719471D02*
X228556286Y-166719471D01*
X228508667Y-166695662D01*
X228484857Y-166648043D01*
X228484857Y-166552805D01*
X228508667Y-166505186D01*
X228794381Y-166719471D02*
X228818190Y-166671852D01*
X228818190Y-166552805D01*
X228794381Y-166505186D01*
X228746762Y-166481376D01*
X228699143Y-166481376D01*
X228651524Y-166505186D01*
X228627714Y-166552805D01*
X228627714Y-166671852D01*
X228603905Y-166719471D01*
X228818190Y-167028995D02*
X228794381Y-166981376D01*
X228746762Y-166957567D01*
X228318190Y-166957567D01*
X228770571Y-167219472D02*
X228794381Y-167243281D01*
X228818190Y-167219472D01*
X228794381Y-167195662D01*
X228770571Y-167219472D01*
X228818190Y-167219472D01*
D12*
X235670571Y-134743285D02*
X235670571Y-135600428D01*
X237170571Y-135171857D02*
X235670571Y-135171857D01*
X237170571Y-136100428D02*
X235670571Y-136100428D01*
X237170571Y-136743285D02*
X236384857Y-136743285D01*
X236242000Y-136671856D01*
X236170571Y-136528999D01*
X236170571Y-136314714D01*
X236242000Y-136171856D01*
X236313429Y-136100428D01*
X237170571Y-137671857D02*
X237099143Y-137528999D01*
X237027714Y-137457571D01*
X236884857Y-137386142D01*
X236456286Y-137386142D01*
X236313429Y-137457571D01*
X236242000Y-137528999D01*
X236170571Y-137671857D01*
X236170571Y-137886142D01*
X236242000Y-138028999D01*
X236313429Y-138100428D01*
X236456286Y-138171857D01*
X236884857Y-138171857D01*
X237027714Y-138100428D01*
X237099143Y-138028999D01*
X237170571Y-137886142D01*
X237170571Y-137671857D01*
X236170571Y-139457571D02*
X237170571Y-139457571D01*
X236170571Y-138814714D02*
X236956286Y-138814714D01*
X237099143Y-138886142D01*
X237170571Y-139029000D01*
X237170571Y-139243285D01*
X237099143Y-139386142D01*
X237027714Y-139457571D01*
X237099143Y-141243285D02*
X237170571Y-141386142D01*
X237170571Y-141671857D01*
X237099143Y-141814714D01*
X236956286Y-141886142D01*
X236884857Y-141886142D01*
X236742000Y-141814714D01*
X236670571Y-141671857D01*
X236670571Y-141457571D01*
X236599143Y-141314714D01*
X236456286Y-141243285D01*
X236384857Y-141243285D01*
X236242000Y-141314714D01*
X236170571Y-141457571D01*
X236170571Y-141671857D01*
X236242000Y-141814714D01*
X237170571Y-142529000D02*
X235670571Y-142529000D01*
X237170571Y-143171857D02*
X236384857Y-143171857D01*
X236242000Y-143100428D01*
X236170571Y-142957571D01*
X236170571Y-142743286D01*
X236242000Y-142600428D01*
X236313429Y-142529000D01*
X237170571Y-144529000D02*
X236384857Y-144529000D01*
X236242000Y-144457571D01*
X236170571Y-144314714D01*
X236170571Y-144029000D01*
X236242000Y-143886143D01*
X237099143Y-144529000D02*
X237170571Y-144386143D01*
X237170571Y-144029000D01*
X237099143Y-143886143D01*
X236956286Y-143814714D01*
X236813429Y-143814714D01*
X236670571Y-143886143D01*
X236599143Y-144029000D01*
X236599143Y-144386143D01*
X236527714Y-144529000D01*
X237170571Y-145457572D02*
X237099143Y-145314714D01*
X236956286Y-145243286D01*
X235670571Y-145243286D01*
X237170571Y-146243286D02*
X237099143Y-146100428D01*
X236956286Y-146029000D01*
X235670571Y-146029000D01*
X236170571Y-147957571D02*
X237170571Y-147957571D01*
X236313429Y-147957571D02*
X236242000Y-148028999D01*
X236170571Y-148171857D01*
X236170571Y-148386142D01*
X236242000Y-148528999D01*
X236384857Y-148600428D01*
X237170571Y-148600428D01*
X237170571Y-149529000D02*
X237099143Y-149386142D01*
X237027714Y-149314714D01*
X236884857Y-149243285D01*
X236456286Y-149243285D01*
X236313429Y-149314714D01*
X236242000Y-149386142D01*
X236170571Y-149529000D01*
X236170571Y-149743285D01*
X236242000Y-149886142D01*
X236313429Y-149957571D01*
X236456286Y-150029000D01*
X236884857Y-150029000D01*
X237027714Y-149957571D01*
X237099143Y-149886142D01*
X237170571Y-149743285D01*
X237170571Y-149529000D01*
X236170571Y-150457571D02*
X236170571Y-151029000D01*
X235670571Y-150671857D02*
X236956286Y-150671857D01*
X237099143Y-150743285D01*
X237170571Y-150886143D01*
X237170571Y-151029000D01*
X236170571Y-152671857D02*
X237670571Y-152671857D01*
X236242000Y-152671857D02*
X236170571Y-152814714D01*
X236170571Y-153100428D01*
X236242000Y-153243285D01*
X236313429Y-153314714D01*
X236456286Y-153386143D01*
X236884857Y-153386143D01*
X237027714Y-153314714D01*
X237099143Y-153243285D01*
X237170571Y-153100428D01*
X237170571Y-152814714D01*
X237099143Y-152671857D01*
X237170571Y-154671857D02*
X236384857Y-154671857D01*
X236242000Y-154600428D01*
X236170571Y-154457571D01*
X236170571Y-154171857D01*
X236242000Y-154029000D01*
X237099143Y-154671857D02*
X237170571Y-154529000D01*
X237170571Y-154171857D01*
X237099143Y-154029000D01*
X236956286Y-153957571D01*
X236813429Y-153957571D01*
X236670571Y-154029000D01*
X236599143Y-154171857D01*
X236599143Y-154529000D01*
X236527714Y-154671857D01*
X237099143Y-155314714D02*
X237170571Y-155457571D01*
X237170571Y-155743286D01*
X237099143Y-155886143D01*
X236956286Y-155957571D01*
X236884857Y-155957571D01*
X236742000Y-155886143D01*
X236670571Y-155743286D01*
X236670571Y-155529000D01*
X236599143Y-155386143D01*
X236456286Y-155314714D01*
X236384857Y-155314714D01*
X236242000Y-155386143D01*
X236170571Y-155529000D01*
X236170571Y-155743286D01*
X236242000Y-155886143D01*
X237099143Y-156529000D02*
X237170571Y-156671857D01*
X237170571Y-156957572D01*
X237099143Y-157100429D01*
X236956286Y-157171857D01*
X236884857Y-157171857D01*
X236742000Y-157100429D01*
X236670571Y-156957572D01*
X236670571Y-156743286D01*
X236599143Y-156600429D01*
X236456286Y-156529000D01*
X236384857Y-156529000D01*
X236242000Y-156600429D01*
X236170571Y-156743286D01*
X236170571Y-156957572D01*
X236242000Y-157100429D01*
D14*
X257906992Y-27912190D02*
X257906992Y-27412190D01*
X257621278Y-27912190D01*
X257621278Y-27412190D01*
X257311754Y-27912190D02*
X257359373Y-27888381D01*
X257383182Y-27864571D01*
X257406992Y-27816952D01*
X257406992Y-27674095D01*
X257383182Y-27626476D01*
X257359373Y-27602667D01*
X257311754Y-27578857D01*
X257240325Y-27578857D01*
X257192706Y-27602667D01*
X257168897Y-27626476D01*
X257145087Y-27674095D01*
X257145087Y-27816952D01*
X257168897Y-27864571D01*
X257192706Y-27888381D01*
X257240325Y-27912190D01*
X257311754Y-27912190D01*
X257002230Y-27578857D02*
X256811754Y-27578857D01*
X256930801Y-27412190D02*
X256930801Y-27840762D01*
X256906992Y-27888381D01*
X256859373Y-27912190D01*
X256811754Y-27912190D01*
X256335564Y-27578857D02*
X256145088Y-27578857D01*
X256264135Y-27412190D02*
X256264135Y-27840762D01*
X256240326Y-27888381D01*
X256192707Y-27912190D01*
X256145088Y-27912190D01*
X255978421Y-27912190D02*
X255978421Y-27412190D01*
X255764136Y-27912190D02*
X255764136Y-27650286D01*
X255787945Y-27602667D01*
X255835564Y-27578857D01*
X255906993Y-27578857D01*
X255954612Y-27602667D01*
X255978421Y-27626476D01*
X255311755Y-27912190D02*
X255311755Y-27650286D01*
X255335564Y-27602667D01*
X255383183Y-27578857D01*
X255478421Y-27578857D01*
X255526040Y-27602667D01*
X255311755Y-27888381D02*
X255359374Y-27912190D01*
X255478421Y-27912190D01*
X255526040Y-27888381D01*
X255549850Y-27840762D01*
X255549850Y-27793143D01*
X255526040Y-27745524D01*
X255478421Y-27721714D01*
X255359374Y-27721714D01*
X255311755Y-27697905D01*
X255145088Y-27578857D02*
X254954612Y-27578857D01*
X255073659Y-27412190D02*
X255073659Y-27840762D01*
X255049850Y-27888381D01*
X255002231Y-27912190D01*
X254954612Y-27912190D01*
X254192708Y-27912190D02*
X254192708Y-27650286D01*
X254216517Y-27602667D01*
X254264136Y-27578857D01*
X254359374Y-27578857D01*
X254406993Y-27602667D01*
X254192708Y-27888381D02*
X254240327Y-27912190D01*
X254359374Y-27912190D01*
X254406993Y-27888381D01*
X254430803Y-27840762D01*
X254430803Y-27793143D01*
X254406993Y-27745524D01*
X254359374Y-27721714D01*
X254240327Y-27721714D01*
X254192708Y-27697905D01*
X253954612Y-27578857D02*
X253954612Y-27912190D01*
X253954612Y-27626476D02*
X253930803Y-27602667D01*
X253883184Y-27578857D01*
X253811755Y-27578857D01*
X253764136Y-27602667D01*
X253740327Y-27650286D01*
X253740327Y-27912190D01*
X253549850Y-27578857D02*
X253430803Y-27912190D01*
X253311755Y-27578857D02*
X253430803Y-27912190D01*
X253478422Y-28031238D01*
X253502231Y-28055048D01*
X253549850Y-28078857D01*
X253049851Y-27912190D02*
X253097470Y-27888381D01*
X253121279Y-27864571D01*
X253145089Y-27816952D01*
X253145089Y-27674095D01*
X253121279Y-27626476D01*
X253097470Y-27602667D01*
X253049851Y-27578857D01*
X252978422Y-27578857D01*
X252930803Y-27602667D01*
X252906994Y-27626476D01*
X252883184Y-27674095D01*
X252883184Y-27816952D01*
X252906994Y-27864571D01*
X252930803Y-27888381D01*
X252978422Y-27912190D01*
X253049851Y-27912190D01*
X252668898Y-27578857D02*
X252668898Y-27912190D01*
X252668898Y-27626476D02*
X252645089Y-27602667D01*
X252597470Y-27578857D01*
X252526041Y-27578857D01*
X252478422Y-27602667D01*
X252454613Y-27650286D01*
X252454613Y-27912190D01*
X252026041Y-27888381D02*
X252073660Y-27912190D01*
X252168898Y-27912190D01*
X252216517Y-27888381D01*
X252240327Y-27840762D01*
X252240327Y-27650286D01*
X252216517Y-27602667D01*
X252168898Y-27578857D01*
X252073660Y-27578857D01*
X252026041Y-27602667D01*
X252002232Y-27650286D01*
X252002232Y-27697905D01*
X252240327Y-27745524D01*
X251192709Y-27888381D02*
X251240328Y-27912190D01*
X251335566Y-27912190D01*
X251383185Y-27888381D01*
X251406994Y-27864571D01*
X251430804Y-27816952D01*
X251430804Y-27674095D01*
X251406994Y-27626476D01*
X251383185Y-27602667D01*
X251335566Y-27578857D01*
X251240328Y-27578857D01*
X251192709Y-27602667D01*
X250764138Y-27912190D02*
X250764138Y-27650286D01*
X250787947Y-27602667D01*
X250835566Y-27578857D01*
X250930804Y-27578857D01*
X250978423Y-27602667D01*
X250764138Y-27888381D02*
X250811757Y-27912190D01*
X250930804Y-27912190D01*
X250978423Y-27888381D01*
X251002233Y-27840762D01*
X251002233Y-27793143D01*
X250978423Y-27745524D01*
X250930804Y-27721714D01*
X250811757Y-27721714D01*
X250764138Y-27697905D01*
X250526042Y-27912190D02*
X250526042Y-27578857D01*
X250526042Y-27674095D02*
X250502233Y-27626476D01*
X250478423Y-27602667D01*
X250430804Y-27578857D01*
X250383185Y-27578857D01*
X250026042Y-27888381D02*
X250073661Y-27912190D01*
X250168899Y-27912190D01*
X250216518Y-27888381D01*
X250240328Y-27840762D01*
X250240328Y-27650286D01*
X250216518Y-27602667D01*
X250168899Y-27578857D01*
X250073661Y-27578857D01*
X250026042Y-27602667D01*
X250002233Y-27650286D01*
X250002233Y-27697905D01*
X250240328Y-27745524D01*
X249811757Y-27888381D02*
X249764138Y-27912190D01*
X249668900Y-27912190D01*
X249621281Y-27888381D01*
X249597471Y-27840762D01*
X249597471Y-27816952D01*
X249621281Y-27769333D01*
X249668900Y-27745524D01*
X249740328Y-27745524D01*
X249787947Y-27721714D01*
X249811757Y-27674095D01*
X249811757Y-27650286D01*
X249787947Y-27602667D01*
X249740328Y-27578857D01*
X249668900Y-27578857D01*
X249621281Y-27602667D01*
X249049852Y-27578857D02*
X248954614Y-27912190D01*
X248859376Y-27674095D01*
X248764138Y-27912190D01*
X248668900Y-27578857D01*
X248478423Y-27912190D02*
X248478423Y-27412190D01*
X248264138Y-27912190D02*
X248264138Y-27650286D01*
X248287947Y-27602667D01*
X248335566Y-27578857D01*
X248406995Y-27578857D01*
X248454614Y-27602667D01*
X248478423Y-27626476D01*
X247811757Y-27912190D02*
X247811757Y-27650286D01*
X247835566Y-27602667D01*
X247883185Y-27578857D01*
X247978423Y-27578857D01*
X248026042Y-27602667D01*
X247811757Y-27888381D02*
X247859376Y-27912190D01*
X247978423Y-27912190D01*
X248026042Y-27888381D01*
X248049852Y-27840762D01*
X248049852Y-27793143D01*
X248026042Y-27745524D01*
X247978423Y-27721714D01*
X247859376Y-27721714D01*
X247811757Y-27697905D01*
X247645090Y-27578857D02*
X247454614Y-27578857D01*
X247573661Y-27412190D02*
X247573661Y-27840762D01*
X247549852Y-27888381D01*
X247502233Y-27912190D01*
X247454614Y-27912190D01*
X246906995Y-27912190D02*
X246906995Y-27412190D01*
X246311758Y-27888381D02*
X246264139Y-27912190D01*
X246168901Y-27912190D01*
X246121282Y-27888381D01*
X246097472Y-27840762D01*
X246097472Y-27816952D01*
X246121282Y-27769333D01*
X246168901Y-27745524D01*
X246240329Y-27745524D01*
X246287948Y-27721714D01*
X246311758Y-27674095D01*
X246311758Y-27650286D01*
X246287948Y-27602667D01*
X246240329Y-27578857D01*
X246168901Y-27578857D01*
X246121282Y-27602667D01*
X245668901Y-27912190D02*
X245668901Y-27650286D01*
X245692710Y-27602667D01*
X245740329Y-27578857D01*
X245835567Y-27578857D01*
X245883186Y-27602667D01*
X245668901Y-27888381D02*
X245716520Y-27912190D01*
X245835567Y-27912190D01*
X245883186Y-27888381D01*
X245906996Y-27840762D01*
X245906996Y-27793143D01*
X245883186Y-27745524D01*
X245835567Y-27721714D01*
X245716520Y-27721714D01*
X245668901Y-27697905D01*
X245478424Y-27578857D02*
X245359377Y-27912190D01*
X245240329Y-27578857D02*
X245359377Y-27912190D01*
X245406996Y-28031238D01*
X245430805Y-28055048D01*
X245478424Y-28078857D01*
X245026044Y-27888381D02*
X245026044Y-27912190D01*
X245049853Y-27959810D01*
X245073663Y-27983619D01*
X244430806Y-27912190D02*
X244430806Y-27412190D01*
X244430806Y-27602667D02*
X244383187Y-27578857D01*
X244287949Y-27578857D01*
X244240330Y-27602667D01*
X244216521Y-27626476D01*
X244192711Y-27674095D01*
X244192711Y-27816952D01*
X244216521Y-27864571D01*
X244240330Y-27888381D01*
X244287949Y-27912190D01*
X244383187Y-27912190D01*
X244430806Y-27888381D01*
X243764140Y-27578857D02*
X243764140Y-27912190D01*
X243978425Y-27578857D02*
X243978425Y-27840762D01*
X243954616Y-27888381D01*
X243906997Y-27912190D01*
X243835568Y-27912190D01*
X243787949Y-27888381D01*
X243764140Y-27864571D01*
X243597473Y-27578857D02*
X243406997Y-27578857D01*
X243526044Y-27412190D02*
X243526044Y-27840762D01*
X243502235Y-27888381D01*
X243454616Y-27912190D01*
X243406997Y-27912190D01*
X242930807Y-27578857D02*
X242740331Y-27578857D01*
X242859378Y-27412190D02*
X242859378Y-27840762D01*
X242835569Y-27888381D01*
X242787950Y-27912190D01*
X242740331Y-27912190D01*
X242573664Y-27912190D02*
X242573664Y-27412190D01*
X242359379Y-27912190D02*
X242359379Y-27650286D01*
X242383188Y-27602667D01*
X242430807Y-27578857D01*
X242502236Y-27578857D01*
X242549855Y-27602667D01*
X242573664Y-27626476D01*
X241930807Y-27888381D02*
X241978426Y-27912190D01*
X242073664Y-27912190D01*
X242121283Y-27888381D01*
X242145093Y-27840762D01*
X242145093Y-27650286D01*
X242121283Y-27602667D01*
X242073664Y-27578857D01*
X241978426Y-27578857D01*
X241930807Y-27602667D01*
X241906998Y-27650286D01*
X241906998Y-27697905D01*
X242145093Y-27745524D01*
X241311760Y-27912190D02*
X241311760Y-27578857D01*
X241311760Y-27674095D02*
X241287951Y-27626476D01*
X241264141Y-27602667D01*
X241216522Y-27578857D01*
X241168903Y-27578857D01*
X240811760Y-27888381D02*
X240859379Y-27912190D01*
X240954617Y-27912190D01*
X241002236Y-27888381D01*
X241026046Y-27840762D01*
X241026046Y-27650286D01*
X241002236Y-27602667D01*
X240954617Y-27578857D01*
X240859379Y-27578857D01*
X240811760Y-27602667D01*
X240787951Y-27650286D01*
X240787951Y-27697905D01*
X241026046Y-27745524D01*
X240597475Y-27888381D02*
X240549856Y-27912190D01*
X240454618Y-27912190D01*
X240406999Y-27888381D01*
X240383189Y-27840762D01*
X240383189Y-27816952D01*
X240406999Y-27769333D01*
X240454618Y-27745524D01*
X240526046Y-27745524D01*
X240573665Y-27721714D01*
X240597475Y-27674095D01*
X240597475Y-27650286D01*
X240573665Y-27602667D01*
X240526046Y-27578857D01*
X240454618Y-27578857D01*
X240406999Y-27602667D01*
X240240332Y-27578857D02*
X240049856Y-27578857D01*
X240168903Y-27412190D02*
X240168903Y-27840762D01*
X240145094Y-27888381D01*
X240097475Y-27912190D01*
X240049856Y-27912190D01*
X239668904Y-27912190D02*
X239668904Y-27650286D01*
X239692713Y-27602667D01*
X239740332Y-27578857D01*
X239835570Y-27578857D01*
X239883189Y-27602667D01*
X239668904Y-27888381D02*
X239716523Y-27912190D01*
X239835570Y-27912190D01*
X239883189Y-27888381D01*
X239906999Y-27840762D01*
X239906999Y-27793143D01*
X239883189Y-27745524D01*
X239835570Y-27721714D01*
X239716523Y-27721714D01*
X239668904Y-27697905D01*
X239216523Y-27578857D02*
X239216523Y-27912190D01*
X239430808Y-27578857D02*
X239430808Y-27840762D01*
X239406999Y-27888381D01*
X239359380Y-27912190D01*
X239287951Y-27912190D01*
X239240332Y-27888381D01*
X239216523Y-27864571D01*
X238978427Y-27912190D02*
X238978427Y-27578857D01*
X238978427Y-27674095D02*
X238954618Y-27626476D01*
X238930808Y-27602667D01*
X238883189Y-27578857D01*
X238835570Y-27578857D01*
X238454618Y-27912190D02*
X238454618Y-27650286D01*
X238478427Y-27602667D01*
X238526046Y-27578857D01*
X238621284Y-27578857D01*
X238668903Y-27602667D01*
X238454618Y-27888381D02*
X238502237Y-27912190D01*
X238621284Y-27912190D01*
X238668903Y-27888381D01*
X238692713Y-27840762D01*
X238692713Y-27793143D01*
X238668903Y-27745524D01*
X238621284Y-27721714D01*
X238502237Y-27721714D01*
X238454618Y-27697905D01*
X238216522Y-27578857D02*
X238216522Y-27912190D01*
X238216522Y-27626476D02*
X238192713Y-27602667D01*
X238145094Y-27578857D01*
X238073665Y-27578857D01*
X238026046Y-27602667D01*
X238002237Y-27650286D01*
X238002237Y-27912190D01*
X237835570Y-27578857D02*
X237645094Y-27578857D01*
X237764141Y-27412190D02*
X237764141Y-27840762D01*
X237740332Y-27888381D01*
X237692713Y-27912190D01*
X237645094Y-27912190D01*
X237097475Y-27912190D02*
X237097475Y-27578857D01*
X237097475Y-27412190D02*
X237121285Y-27436000D01*
X237097475Y-27459810D01*
X237073666Y-27436000D01*
X237097475Y-27412190D01*
X237097475Y-27459810D01*
X236883190Y-27888381D02*
X236835571Y-27912190D01*
X236740333Y-27912190D01*
X236692714Y-27888381D01*
X236668904Y-27840762D01*
X236668904Y-27816952D01*
X236692714Y-27769333D01*
X236740333Y-27745524D01*
X236811761Y-27745524D01*
X236859380Y-27721714D01*
X236883190Y-27674095D01*
X236883190Y-27650286D01*
X236859380Y-27602667D01*
X236811761Y-27578857D01*
X236740333Y-27578857D01*
X236692714Y-27602667D01*
X235859381Y-27912190D02*
X235859381Y-27650286D01*
X235883190Y-27602667D01*
X235930809Y-27578857D01*
X236026047Y-27578857D01*
X236073666Y-27602667D01*
X235859381Y-27888381D02*
X235907000Y-27912190D01*
X236026047Y-27912190D01*
X236073666Y-27888381D01*
X236097476Y-27840762D01*
X236097476Y-27793143D01*
X236073666Y-27745524D01*
X236026047Y-27721714D01*
X235907000Y-27721714D01*
X235859381Y-27697905D01*
X235692714Y-27578857D02*
X235502238Y-27578857D01*
X235621285Y-27412190D02*
X235621285Y-27840762D01*
X235597476Y-27888381D01*
X235549857Y-27912190D01*
X235502238Y-27912190D01*
X235026048Y-27578857D02*
X234835572Y-27578857D01*
X234954619Y-27412190D02*
X234954619Y-27840762D01*
X234930810Y-27888381D01*
X234883191Y-27912190D01*
X234835572Y-27912190D01*
X234668905Y-27912190D02*
X234668905Y-27412190D01*
X234454620Y-27912190D02*
X234454620Y-27650286D01*
X234478429Y-27602667D01*
X234526048Y-27578857D01*
X234597477Y-27578857D01*
X234645096Y-27602667D01*
X234668905Y-27626476D01*
X234026048Y-27888381D02*
X234073667Y-27912190D01*
X234168905Y-27912190D01*
X234216524Y-27888381D01*
X234240334Y-27840762D01*
X234240334Y-27650286D01*
X234216524Y-27602667D01*
X234168905Y-27578857D01*
X234073667Y-27578857D01*
X234026048Y-27602667D01*
X234002239Y-27650286D01*
X234002239Y-27697905D01*
X234240334Y-27745524D01*
X233335573Y-27412190D02*
X233335573Y-27531238D01*
X233454620Y-27483619D02*
X233335573Y-27531238D01*
X233216525Y-27483619D01*
X233407001Y-27626476D02*
X233335573Y-27531238D01*
X233264144Y-27626476D01*
X232954621Y-27912190D02*
X233002240Y-27888381D01*
X233026049Y-27864571D01*
X233049859Y-27816952D01*
X233049859Y-27674095D01*
X233026049Y-27626476D01*
X233002240Y-27602667D01*
X232954621Y-27578857D01*
X232883192Y-27578857D01*
X232835573Y-27602667D01*
X232811764Y-27626476D01*
X232787954Y-27674095D01*
X232787954Y-27816952D01*
X232811764Y-27864571D01*
X232835573Y-27888381D01*
X232883192Y-27912190D01*
X232954621Y-27912190D01*
X232645097Y-27578857D02*
X232454621Y-27578857D01*
X232573668Y-27412190D02*
X232573668Y-27840762D01*
X232549859Y-27888381D01*
X232502240Y-27912190D01*
X232454621Y-27912190D01*
X232287954Y-27912190D02*
X232287954Y-27412190D01*
X232073669Y-27912190D02*
X232073669Y-27650286D01*
X232097478Y-27602667D01*
X232145097Y-27578857D01*
X232216526Y-27578857D01*
X232264145Y-27602667D01*
X232287954Y-27626476D01*
X231645097Y-27888381D02*
X231692716Y-27912190D01*
X231787954Y-27912190D01*
X231835573Y-27888381D01*
X231859383Y-27840762D01*
X231859383Y-27650286D01*
X231835573Y-27602667D01*
X231787954Y-27578857D01*
X231692716Y-27578857D01*
X231645097Y-27602667D01*
X231621288Y-27650286D01*
X231621288Y-27697905D01*
X231859383Y-27745524D01*
X231407002Y-27912190D02*
X231407002Y-27578857D01*
X231407002Y-27674095D02*
X231383193Y-27626476D01*
X231359383Y-27602667D01*
X231311764Y-27578857D01*
X231264145Y-27578857D01*
X231026050Y-27412190D02*
X231026050Y-27531238D01*
X231145097Y-27483619D02*
X231026050Y-27531238D01*
X230907002Y-27483619D01*
X231097478Y-27626476D02*
X231026050Y-27531238D01*
X230954621Y-27626476D01*
X230145098Y-27888381D02*
X230192717Y-27912190D01*
X230287955Y-27912190D01*
X230335574Y-27888381D01*
X230359384Y-27840762D01*
X230359384Y-27650286D01*
X230335574Y-27602667D01*
X230287955Y-27578857D01*
X230192717Y-27578857D01*
X230145098Y-27602667D01*
X230121289Y-27650286D01*
X230121289Y-27697905D01*
X230359384Y-27745524D01*
X229907003Y-27578857D02*
X229907003Y-27912190D01*
X229907003Y-27626476D02*
X229883194Y-27602667D01*
X229835575Y-27578857D01*
X229764146Y-27578857D01*
X229716527Y-27602667D01*
X229692718Y-27650286D01*
X229692718Y-27912190D01*
X229240337Y-27912190D02*
X229240337Y-27412190D01*
X229240337Y-27888381D02*
X229287956Y-27912190D01*
X229383194Y-27912190D01*
X229430813Y-27888381D01*
X229454622Y-27864571D01*
X229478432Y-27816952D01*
X229478432Y-27674095D01*
X229454622Y-27626476D01*
X229430813Y-27602667D01*
X229383194Y-27578857D01*
X229287956Y-27578857D01*
X229240337Y-27602667D01*
X228549861Y-27912190D02*
X228597480Y-27888381D01*
X228621289Y-27864571D01*
X228645099Y-27816952D01*
X228645099Y-27674095D01*
X228621289Y-27626476D01*
X228597480Y-27602667D01*
X228549861Y-27578857D01*
X228478432Y-27578857D01*
X228430813Y-27602667D01*
X228407004Y-27626476D01*
X228383194Y-27674095D01*
X228383194Y-27816952D01*
X228407004Y-27864571D01*
X228430813Y-27888381D01*
X228478432Y-27912190D01*
X228549861Y-27912190D01*
X228240337Y-27578857D02*
X228049861Y-27578857D01*
X228168908Y-27912190D02*
X228168908Y-27483619D01*
X228145099Y-27436000D01*
X228097480Y-27412190D01*
X228049861Y-27412190D01*
X227573671Y-27578857D02*
X227383195Y-27578857D01*
X227502242Y-27412190D02*
X227502242Y-27840762D01*
X227478433Y-27888381D01*
X227430814Y-27912190D01*
X227383195Y-27912190D01*
X227216528Y-27912190D02*
X227216528Y-27412190D01*
X227002243Y-27912190D02*
X227002243Y-27650286D01*
X227026052Y-27602667D01*
X227073671Y-27578857D01*
X227145100Y-27578857D01*
X227192719Y-27602667D01*
X227216528Y-27626476D01*
X226573671Y-27888381D02*
X226621290Y-27912190D01*
X226716528Y-27912190D01*
X226764147Y-27888381D01*
X226787957Y-27840762D01*
X226787957Y-27650286D01*
X226764147Y-27602667D01*
X226716528Y-27578857D01*
X226621290Y-27578857D01*
X226573671Y-27602667D01*
X226549862Y-27650286D01*
X226549862Y-27697905D01*
X226787957Y-27745524D01*
X225954624Y-27412190D02*
X225954624Y-27816952D01*
X225930815Y-27864571D01*
X225907005Y-27888381D01*
X225859386Y-27912190D01*
X225764148Y-27912190D01*
X225716529Y-27888381D01*
X225692720Y-27864571D01*
X225668910Y-27816952D01*
X225668910Y-27412190D01*
X225430814Y-27578857D02*
X225430814Y-27912190D01*
X225430814Y-27626476D02*
X225407005Y-27602667D01*
X225359386Y-27578857D01*
X225287957Y-27578857D01*
X225240338Y-27602667D01*
X225216529Y-27650286D01*
X225216529Y-27912190D01*
X224978433Y-27912190D02*
X224978433Y-27578857D01*
X224978433Y-27412190D02*
X225002243Y-27436000D01*
X224978433Y-27459810D01*
X224954624Y-27436000D01*
X224978433Y-27412190D01*
X224978433Y-27459810D01*
X224787957Y-27578857D02*
X224668910Y-27912190D01*
X224549862Y-27578857D01*
X224168910Y-27888381D02*
X224216529Y-27912190D01*
X224311767Y-27912190D01*
X224359386Y-27888381D01*
X224383196Y-27840762D01*
X224383196Y-27650286D01*
X224359386Y-27602667D01*
X224311767Y-27578857D01*
X224216529Y-27578857D01*
X224168910Y-27602667D01*
X224145101Y-27650286D01*
X224145101Y-27697905D01*
X224383196Y-27745524D01*
X223930815Y-27912190D02*
X223930815Y-27578857D01*
X223930815Y-27674095D02*
X223907006Y-27626476D01*
X223883196Y-27602667D01*
X223835577Y-27578857D01*
X223787958Y-27578857D01*
X223645101Y-27888381D02*
X223597482Y-27912190D01*
X223502244Y-27912190D01*
X223454625Y-27888381D01*
X223430815Y-27840762D01*
X223430815Y-27816952D01*
X223454625Y-27769333D01*
X223502244Y-27745524D01*
X223573672Y-27745524D01*
X223621291Y-27721714D01*
X223645101Y-27674095D01*
X223645101Y-27650286D01*
X223621291Y-27602667D01*
X223573672Y-27578857D01*
X223502244Y-27578857D01*
X223454625Y-27602667D01*
X223026053Y-27888381D02*
X223073672Y-27912190D01*
X223168910Y-27912190D01*
X223216529Y-27888381D01*
X223240339Y-27840762D01*
X223240339Y-27650286D01*
X223216529Y-27602667D01*
X223168910Y-27578857D01*
X223073672Y-27578857D01*
X223026053Y-27602667D01*
X223002244Y-27650286D01*
X223002244Y-27697905D01*
X223240339Y-27745524D01*
X222787958Y-27864571D02*
X222764149Y-27888381D01*
X222787958Y-27912190D01*
X222811768Y-27888381D01*
X222787958Y-27864571D01*
X222787958Y-27912190D01*
D11*
X280594981Y-76835000D02*
G75*
G03X280594981Y-76835000I-4369981J0D01*
G01*
D10*
X277812286Y-75338190D02*
X277812286Y-75814381D01*
X278145619Y-74814381D02*
X277812286Y-75338190D01*
X277478952Y-74814381D01*
X277145619Y-75147714D02*
X277145619Y-75814381D01*
X277145619Y-75242952D02*
X277098000Y-75195333D01*
X277002762Y-75147714D01*
X276859904Y-75147714D01*
X276764666Y-75195333D01*
X276717047Y-75290571D01*
X276717047Y-75814381D01*
X275812285Y-75147714D02*
X275812285Y-75957238D01*
X275859904Y-76052476D01*
X275907523Y-76100095D01*
X276002762Y-76147714D01*
X276145619Y-76147714D01*
X276240857Y-76100095D01*
X275812285Y-75766762D02*
X275907523Y-75814381D01*
X276098000Y-75814381D01*
X276193238Y-75766762D01*
X276240857Y-75719143D01*
X276288476Y-75623905D01*
X276288476Y-75338190D01*
X276240857Y-75242952D01*
X276193238Y-75195333D01*
X276098000Y-75147714D01*
X275907523Y-75147714D01*
X275812285Y-75195333D01*
X275431333Y-75147714D02*
X275193238Y-75814381D01*
X274955142Y-75147714D01*
X274193237Y-75766762D02*
X274288475Y-75814381D01*
X274478952Y-75814381D01*
X274574190Y-75766762D01*
X274621809Y-75671524D01*
X274621809Y-75290571D01*
X274574190Y-75195333D01*
X274478952Y-75147714D01*
X274288475Y-75147714D01*
X274193237Y-75195333D01*
X274145618Y-75290571D01*
X274145618Y-75385810D01*
X274621809Y-75481048D01*
X277336095Y-76747714D02*
X277145619Y-77414381D01*
X276955142Y-76938190D01*
X276764666Y-77414381D01*
X276574190Y-76747714D01*
X275764666Y-77414381D02*
X275764666Y-76890571D01*
X275812285Y-76795333D01*
X275907523Y-76747714D01*
X276098000Y-76747714D01*
X276193238Y-76795333D01*
X275764666Y-77366762D02*
X275859904Y-77414381D01*
X276098000Y-77414381D01*
X276193238Y-77366762D01*
X276240857Y-77271524D01*
X276240857Y-77176286D01*
X276193238Y-77081048D01*
X276098000Y-77033429D01*
X275859904Y-77033429D01*
X275764666Y-76985810D01*
X275336095Y-77366762D02*
X275240857Y-77414381D01*
X275050381Y-77414381D01*
X274955142Y-77366762D01*
X274907523Y-77271524D01*
X274907523Y-77223905D01*
X274955142Y-77128667D01*
X275050381Y-77081048D01*
X275193238Y-77081048D01*
X275288476Y-77033429D01*
X275336095Y-76938190D01*
X275336095Y-76890571D01*
X275288476Y-76795333D01*
X275193238Y-76747714D01*
X275050381Y-76747714D01*
X274955142Y-76795333D01*
X277478953Y-79014381D02*
X277478953Y-78014381D01*
X277050381Y-79014381D02*
X277050381Y-78490571D01*
X277098000Y-78395333D01*
X277193238Y-78347714D01*
X277336096Y-78347714D01*
X277431334Y-78395333D01*
X277478953Y-78442952D01*
X276193238Y-78966762D02*
X276288476Y-79014381D01*
X276478953Y-79014381D01*
X276574191Y-78966762D01*
X276621810Y-78871524D01*
X276621810Y-78490571D01*
X276574191Y-78395333D01*
X276478953Y-78347714D01*
X276288476Y-78347714D01*
X276193238Y-78395333D01*
X276145619Y-78490571D01*
X276145619Y-78585810D01*
X276621810Y-78681048D01*
X275717048Y-79014381D02*
X275717048Y-78347714D01*
X275717048Y-78538190D02*
X275669429Y-78442952D01*
X275621810Y-78395333D01*
X275526572Y-78347714D01*
X275431333Y-78347714D01*
X274717047Y-78966762D02*
X274812285Y-79014381D01*
X275002762Y-79014381D01*
X275098000Y-78966762D01*
X275145619Y-78871524D01*
X275145619Y-78490571D01*
X275098000Y-78395333D01*
X275002762Y-78347714D01*
X274812285Y-78347714D01*
X274717047Y-78395333D01*
X274669428Y-78490571D01*
X274669428Y-78585810D01*
X275145619Y-78681048D01*
X264272857Y-90858571D02*
X263701428Y-90858571D01*
X263987142Y-91144286D02*
X263987142Y-90572857D01*
X262987143Y-90394286D02*
X263344286Y-90394286D01*
X263380000Y-90751429D01*
X263344286Y-90715714D01*
X263272857Y-90680000D01*
X263094286Y-90680000D01*
X263022857Y-90715714D01*
X262987143Y-90751429D01*
X262951428Y-90822857D01*
X262951428Y-91001429D01*
X262987143Y-91072857D01*
X263022857Y-91108571D01*
X263094286Y-91144286D01*
X263272857Y-91144286D01*
X263344286Y-91108571D01*
X263380000Y-91072857D01*
X262737142Y-90394286D02*
X262487142Y-91144286D01*
X262237142Y-90394286D01*
X261272856Y-90394286D02*
X261129999Y-90394286D01*
X261058571Y-90430000D01*
X260987142Y-90501429D01*
X260951428Y-90644286D01*
X260951428Y-90894286D01*
X260987142Y-91037143D01*
X261058571Y-91108571D01*
X261129999Y-91144286D01*
X261272856Y-91144286D01*
X261344285Y-91108571D01*
X261415714Y-91037143D01*
X261451428Y-90894286D01*
X261451428Y-90644286D01*
X261415714Y-90501429D01*
X261344285Y-90430000D01*
X261272856Y-90394286D01*
X260630000Y-91144286D02*
X260630000Y-90394286D01*
X260201428Y-91144286D02*
X260522857Y-90715714D01*
X260201428Y-90394286D02*
X260630000Y-90822857D01*
X221069000Y-90858571D02*
X220497571Y-90858571D01*
X219747571Y-91144286D02*
X220176143Y-91144286D01*
X219961857Y-91144286D02*
X219961857Y-90394286D01*
X220033286Y-90501429D01*
X220104714Y-90572857D01*
X220176143Y-90608571D01*
X219069000Y-90394286D02*
X219426143Y-90394286D01*
X219461857Y-90751429D01*
X219426143Y-90715714D01*
X219354714Y-90680000D01*
X219176143Y-90680000D01*
X219104714Y-90715714D01*
X219069000Y-90751429D01*
X219033285Y-90822857D01*
X219033285Y-91001429D01*
X219069000Y-91072857D01*
X219104714Y-91108571D01*
X219176143Y-91144286D01*
X219354714Y-91144286D01*
X219426143Y-91108571D01*
X219461857Y-91072857D01*
X218818999Y-90394286D02*
X218568999Y-91144286D01*
X218318999Y-90394286D01*
X217354713Y-90394286D02*
X217211856Y-90394286D01*
X217140428Y-90430000D01*
X217068999Y-90501429D01*
X217033285Y-90644286D01*
X217033285Y-90894286D01*
X217068999Y-91037143D01*
X217140428Y-91108571D01*
X217211856Y-91144286D01*
X217354713Y-91144286D01*
X217426142Y-91108571D01*
X217497571Y-91037143D01*
X217533285Y-90894286D01*
X217533285Y-90644286D01*
X217497571Y-90501429D01*
X217426142Y-90430000D01*
X217354713Y-90394286D01*
X216711857Y-91144286D02*
X216711857Y-90394286D01*
X216283285Y-91144286D02*
X216604714Y-90715714D01*
X216283285Y-90394286D02*
X216711857Y-90822857D01*
X203416000Y-90350571D02*
X202844571Y-90350571D01*
X203130285Y-90636286D02*
X203130285Y-90064857D01*
X202094571Y-90636286D02*
X202523143Y-90636286D01*
X202308857Y-90636286D02*
X202308857Y-89886286D01*
X202380286Y-89993429D01*
X202451714Y-90064857D01*
X202523143Y-90100571D01*
X201416000Y-89886286D02*
X201773143Y-89886286D01*
X201808857Y-90243429D01*
X201773143Y-90207714D01*
X201701714Y-90172000D01*
X201523143Y-90172000D01*
X201451714Y-90207714D01*
X201416000Y-90243429D01*
X201380285Y-90314857D01*
X201380285Y-90493429D01*
X201416000Y-90564857D01*
X201451714Y-90600571D01*
X201523143Y-90636286D01*
X201701714Y-90636286D01*
X201773143Y-90600571D01*
X201808857Y-90564857D01*
X201165999Y-89886286D02*
X200915999Y-90636286D01*
X200665999Y-89886286D01*
X199701713Y-89886286D02*
X199558856Y-89886286D01*
X199487428Y-89922000D01*
X199415999Y-89993429D01*
X199380285Y-90136286D01*
X199380285Y-90386286D01*
X199415999Y-90529143D01*
X199487428Y-90600571D01*
X199558856Y-90636286D01*
X199701713Y-90636286D01*
X199773142Y-90600571D01*
X199844571Y-90529143D01*
X199880285Y-90386286D01*
X199880285Y-90136286D01*
X199844571Y-89993429D01*
X199773142Y-89922000D01*
X199701713Y-89886286D01*
X199058857Y-90636286D02*
X199058857Y-89886286D01*
X198630285Y-90636286D02*
X198951714Y-90207714D01*
X198630285Y-89886286D02*
X199058857Y-90314857D01*
D15*
X134350000Y-62869000D02*
X132350000Y-62869000D01*
X132350000Y-60829000D02*
X134350000Y-60829000D01*
X141843000Y-62869000D02*
X139843000Y-62869000D01*
X139843000Y-60829000D02*
X141843000Y-60829000D01*
X134616000Y-54047900D02*
X134616000Y-52047900D01*
X136656000Y-52047900D02*
X136656000Y-54047900D01*
X137233000Y-35830000D02*
X137233000Y-37830000D01*
X139373000Y-37830000D02*
X139373000Y-35830000D01*
X114500000Y-57420000D02*
X114500000Y-59420000D01*
X116640000Y-59420000D02*
X116640000Y-57420000D01*
X134985000Y-42237000D02*
X132985000Y-42237000D01*
X132985000Y-44377000D02*
X134985000Y-44377000D01*
X141551000Y-35830000D02*
X141551000Y-37830000D01*
X143691000Y-37830000D02*
X143691000Y-35830000D01*
X77054000Y-172768000D02*
X77054000Y-156148000D01*
X68234000Y-172768000D02*
X68234000Y-156148000D01*
X77054000Y-172768000D02*
X73940000Y-172768000D01*
X71348000Y-172768000D02*
X68234000Y-172768000D01*
X77054000Y-156148000D02*
X73940000Y-156148000D01*
X71348000Y-156148000D02*
X68234000Y-156148000D01*
X77054000Y-154226000D02*
X77054000Y-137606000D01*
X68234000Y-154226000D02*
X68234000Y-137606000D01*
X77054000Y-154226000D02*
X73940000Y-154226000D01*
X71348000Y-154226000D02*
X68234000Y-154226000D01*
X77054000Y-137606000D02*
X73940000Y-137606000D01*
X71348000Y-137606000D02*
X68234000Y-137606000D01*
X77054000Y-134922000D02*
X77054000Y-118302000D01*
X68234000Y-134922000D02*
X68234000Y-118302000D01*
X77054000Y-134922000D02*
X73940000Y-134922000D01*
X71348000Y-134922000D02*
X68234000Y-134922000D01*
X77054000Y-118302000D02*
X73940000Y-118302000D01*
X71348000Y-118302000D02*
X68234000Y-118302000D01*
X144629000Y-134579000D02*
X149249000Y-134579000D01*
X149249000Y-134579000D02*
X149249000Y-146599000D01*
X149249000Y-146599000D02*
X144629000Y-146599000D01*
X144629000Y-146599000D02*
X144629000Y-134579000D01*
X146939000Y-134349000D02*
X146939000Y-134579000D01*
X146939000Y-146829000D02*
X146939000Y-146599000D01*
X51459000Y-146091000D02*
X46839000Y-146091000D01*
X46839000Y-146091000D02*
X46839000Y-134071000D01*
X46839000Y-134071000D02*
X51459000Y-134071000D01*
X51459000Y-134071000D02*
X51459000Y-146091000D01*
X49149000Y-146321000D02*
X49149000Y-146091000D01*
X49149000Y-133841000D02*
X49149000Y-134071000D01*
X66208000Y-110339000D02*
X66208000Y-114959000D01*
X66208000Y-114959000D02*
X54188000Y-114959000D01*
X54188000Y-114959000D02*
X54188000Y-110339000D01*
X54188000Y-110339000D02*
X66208000Y-110339000D01*
X66438000Y-112649000D02*
X66208000Y-112649000D01*
X53958000Y-112649000D02*
X54188000Y-112649000D01*
D16*
X37471140Y-125287224D02*
X28872721Y-116688806D01*
X28872721Y-116688806D02*
X37471140Y-108090387D01*
X37471140Y-108090387D02*
X46069558Y-116688806D01*
X46069558Y-116688806D02*
X37471140Y-125287224D01*
X29933382Y-117749466D02*
X31206174Y-119022258D01*
X31206174Y-119022258D02*
X39804592Y-110423840D01*
X39804592Y-110423840D02*
X38531800Y-109151048D01*
X38531800Y-109151048D02*
X29933382Y-117749466D01*
X30697057Y-114864470D02*
X32111270Y-113450257D01*
X32111270Y-113450257D02*
X32995154Y-114687694D01*
X32995154Y-114687694D02*
X31934494Y-115748354D01*
X31934494Y-115748354D02*
X30697057Y-114864470D01*
X34232591Y-111328937D02*
X35646804Y-109914723D01*
X35646804Y-109914723D02*
X36530688Y-111152160D01*
X36530688Y-111152160D02*
X35470028Y-112212820D01*
X35470028Y-112212820D02*
X34232591Y-111328937D01*
X40299567Y-123052767D02*
X40935963Y-123264899D01*
X40935963Y-123264899D02*
X40511699Y-123689163D01*
X40511699Y-123689163D02*
X40299567Y-123052767D01*
D15*
X274762000Y-131919000D02*
X277422000Y-131919000D01*
X274762000Y-137059000D02*
X274762000Y-131919000D01*
X277422000Y-137059000D02*
X277422000Y-131919000D01*
X274762000Y-137059000D02*
X277422000Y-137059000D01*
X274762000Y-138329000D02*
X274762000Y-139659000D01*
X274762000Y-139659000D02*
X276092000Y-139659000D01*
X204762000Y-131939000D02*
X207422000Y-131939000D01*
X204762000Y-154859000D02*
X204762000Y-131939000D01*
X207422000Y-154859000D02*
X207422000Y-131939000D01*
X204762000Y-154859000D02*
X207422000Y-154859000D01*
X204762000Y-156129000D02*
X204762000Y-157459000D01*
X204762000Y-157459000D02*
X206092000Y-157459000D01*
X266292000Y-137399000D02*
X268292000Y-137399000D01*
X268292000Y-135259000D02*
X266292000Y-135259000D01*
X266292000Y-140399000D02*
X268292000Y-140399000D01*
X268292000Y-138259000D02*
X266292000Y-138259000D01*
X216640600Y-74768200D02*
X216640600Y-76768200D01*
X214600600Y-76768200D02*
X214600600Y-74768200D01*
X202073000Y-82546000D02*
X204073000Y-82546000D01*
X204073000Y-84586000D02*
X202073000Y-84586000D01*
X269109000Y-38338000D02*
X269109000Y-36338000D01*
X271149000Y-36338000D02*
X271149000Y-38338000D01*
X245233000Y-38084000D02*
X245233000Y-36084000D01*
X247273000Y-36084000D02*
X247273000Y-38084000D01*
X220849000Y-38084000D02*
X220849000Y-36084000D01*
X222889000Y-36084000D02*
X222889000Y-38084000D01*
X206429000Y-46466000D02*
X206429000Y-44466000D01*
X204289000Y-44466000D02*
X204289000Y-46466000D01*
X231575000Y-47228000D02*
X231575000Y-45228000D01*
X229435000Y-45228000D02*
X229435000Y-47228000D01*
X259769000Y-47355000D02*
X259769000Y-45355000D01*
X257629000Y-45355000D02*
X257629000Y-47355000D01*
X225479000Y-38084000D02*
X225479000Y-36084000D01*
X223339000Y-36084000D02*
X223339000Y-38084000D01*
X220799000Y-47006000D02*
X220799000Y-49006000D01*
X222939000Y-49006000D02*
X222939000Y-47006000D01*
X249863000Y-38084000D02*
X249863000Y-36084000D01*
X247723000Y-36084000D02*
X247723000Y-38084000D01*
X245183000Y-47006000D02*
X245183000Y-49006000D01*
X247323000Y-49006000D02*
X247323000Y-47006000D01*
X273739000Y-38338000D02*
X273739000Y-36338000D01*
X271599000Y-36338000D02*
X271599000Y-38338000D01*
X269059000Y-47260000D02*
X269059000Y-49260000D01*
X271199000Y-49260000D02*
X271199000Y-47260000D01*
X207337000Y-44466000D02*
X207337000Y-46466000D01*
X209477000Y-46466000D02*
X209477000Y-44466000D01*
X232483000Y-45228000D02*
X232483000Y-47228000D01*
X234623000Y-47228000D02*
X234623000Y-45228000D01*
X254073000Y-45355000D02*
X254073000Y-47355000D01*
X256213000Y-47355000D02*
X256213000Y-45355000D01*
X231721000Y-87900000D02*
X231721000Y-89900000D01*
X233861000Y-89900000D02*
X233861000Y-87900000D01*
X236801000Y-87900000D02*
X236801000Y-89900000D01*
X238941000Y-89900000D02*
X238941000Y-87900000D01*
X241881000Y-87900000D02*
X241881000Y-89900000D01*
X244021000Y-89900000D02*
X244021000Y-87900000D01*
X212563200Y-88725400D02*
X214563200Y-88725400D01*
X214563200Y-86585400D02*
X212563200Y-86585400D01*
X268659000Y-85074000D02*
X268659000Y-83074000D01*
X266519000Y-83074000D02*
X266519000Y-85074000D01*
X210110000Y-89220000D02*
X210110000Y-91120000D01*
X210110000Y-91120000D02*
X205410000Y-91120000D01*
X210110000Y-89220000D02*
X205410000Y-89220000D01*
X271324000Y-89728000D02*
X271324000Y-91628000D01*
X271324000Y-91628000D02*
X266624000Y-91628000D01*
X271324000Y-89728000D02*
X266624000Y-89728000D01*
X227763000Y-89728000D02*
X227763000Y-91628000D01*
X227763000Y-91628000D02*
X223063000Y-91628000D01*
X227763000Y-89728000D02*
X223063000Y-89728000D01*
X221599000Y-86560000D02*
X219599000Y-86560000D01*
X219599000Y-88700000D02*
X221599000Y-88700000D01*
D16*
X133516666Y-63956143D02*
X133564285Y-64003762D01*
X133707142Y-64051381D01*
X133802380Y-64051381D01*
X133945238Y-64003762D01*
X134040476Y-63908524D01*
X134088095Y-63813286D01*
X134135714Y-63622810D01*
X134135714Y-63479952D01*
X134088095Y-63289476D01*
X134040476Y-63194238D01*
X133945238Y-63099000D01*
X133802380Y-63051381D01*
X133707142Y-63051381D01*
X133564285Y-63099000D01*
X133516666Y-63146619D01*
X132564285Y-64051381D02*
X133135714Y-64051381D01*
X132850000Y-64051381D02*
X132850000Y-63051381D01*
X132945238Y-63194238D01*
X133040476Y-63289476D01*
X133135714Y-63337095D01*
X141009666Y-63956143D02*
X141057285Y-64003762D01*
X141200142Y-64051381D01*
X141295380Y-64051381D01*
X141438238Y-64003762D01*
X141533476Y-63908524D01*
X141581095Y-63813286D01*
X141628714Y-63622810D01*
X141628714Y-63479952D01*
X141581095Y-63289476D01*
X141533476Y-63194238D01*
X141438238Y-63099000D01*
X141295380Y-63051381D01*
X141200142Y-63051381D01*
X141057285Y-63099000D01*
X141009666Y-63146619D01*
X140628714Y-63146619D02*
X140581095Y-63099000D01*
X140485857Y-63051381D01*
X140247761Y-63051381D01*
X140152523Y-63099000D01*
X140104904Y-63146619D01*
X140057285Y-63241857D01*
X140057285Y-63337095D01*
X140104904Y-63479952D01*
X140676333Y-64051381D01*
X140057285Y-64051381D01*
X134243143Y-52881234D02*
X134290762Y-52833615D01*
X134338381Y-52690758D01*
X134338381Y-52595520D01*
X134290762Y-52452662D01*
X134195524Y-52357424D01*
X134100286Y-52309805D01*
X133909810Y-52262186D01*
X133766952Y-52262186D01*
X133576476Y-52309805D01*
X133481238Y-52357424D01*
X133386000Y-52452662D01*
X133338381Y-52595520D01*
X133338381Y-52690758D01*
X133386000Y-52833615D01*
X133433619Y-52881234D01*
X133338381Y-53785996D02*
X133338381Y-53309805D01*
X133814571Y-53262186D01*
X133766952Y-53309805D01*
X133719333Y-53405043D01*
X133719333Y-53643139D01*
X133766952Y-53738377D01*
X133814571Y-53785996D01*
X133909810Y-53833615D01*
X134147905Y-53833615D01*
X134243143Y-53785996D01*
X134290762Y-53738377D01*
X134338381Y-53643139D01*
X134338381Y-53405043D01*
X134290762Y-53309805D01*
X134243143Y-53262186D01*
X140605381Y-36663334D02*
X140129190Y-36330000D01*
X140605381Y-36091905D02*
X139605381Y-36091905D01*
X139605381Y-36472858D01*
X139653000Y-36568096D01*
X139700619Y-36615715D01*
X139795857Y-36663334D01*
X139938714Y-36663334D01*
X140033952Y-36615715D01*
X140081571Y-36568096D01*
X140129190Y-36472858D01*
X140129190Y-36091905D01*
X139605381Y-36996667D02*
X139605381Y-37663334D01*
X140605381Y-37234762D01*
X117872381Y-58253334D02*
X117396190Y-57920000D01*
X117872381Y-57681905D02*
X116872381Y-57681905D01*
X116872381Y-58062858D01*
X116920000Y-58158096D01*
X116967619Y-58205715D01*
X117062857Y-58253334D01*
X117205714Y-58253334D01*
X117300952Y-58205715D01*
X117348571Y-58158096D01*
X117396190Y-58062858D01*
X117396190Y-57681905D01*
X117300952Y-58824762D02*
X117253333Y-58729524D01*
X117205714Y-58681905D01*
X117110476Y-58634286D01*
X117062857Y-58634286D01*
X116967619Y-58681905D01*
X116920000Y-58729524D01*
X116872381Y-58824762D01*
X116872381Y-59015239D01*
X116920000Y-59110477D01*
X116967619Y-59158096D01*
X117062857Y-59205715D01*
X117110476Y-59205715D01*
X117205714Y-59158096D01*
X117253333Y-59110477D01*
X117300952Y-59015239D01*
X117300952Y-58824762D01*
X117348571Y-58729524D01*
X117396190Y-58681905D01*
X117491429Y-58634286D01*
X117681905Y-58634286D01*
X117777143Y-58681905D01*
X117824762Y-58729524D01*
X117872381Y-58824762D01*
X117872381Y-59015239D01*
X117824762Y-59110477D01*
X117777143Y-59158096D01*
X117681905Y-59205715D01*
X117491429Y-59205715D01*
X117396190Y-59158096D01*
X117348571Y-59110477D01*
X117300952Y-59015239D01*
X134151666Y-45609381D02*
X134485000Y-45133190D01*
X134723095Y-45609381D02*
X134723095Y-44609381D01*
X134342142Y-44609381D01*
X134246904Y-44657000D01*
X134199285Y-44704619D01*
X134151666Y-44799857D01*
X134151666Y-44942714D01*
X134199285Y-45037952D01*
X134246904Y-45085571D01*
X134342142Y-45133190D01*
X134723095Y-45133190D01*
X133675476Y-45609381D02*
X133485000Y-45609381D01*
X133389761Y-45561762D01*
X133342142Y-45514143D01*
X133246904Y-45371286D01*
X133199285Y-45180810D01*
X133199285Y-44799857D01*
X133246904Y-44704619D01*
X133294523Y-44657000D01*
X133389761Y-44609381D01*
X133580238Y-44609381D01*
X133675476Y-44657000D01*
X133723095Y-44704619D01*
X133770714Y-44799857D01*
X133770714Y-45037952D01*
X133723095Y-45133190D01*
X133675476Y-45180810D01*
X133580238Y-45228429D01*
X133389761Y-45228429D01*
X133294523Y-45180810D01*
X133246904Y-45133190D01*
X133199285Y-45037952D01*
X144923381Y-36187143D02*
X144447190Y-35853809D01*
X144923381Y-35615714D02*
X143923381Y-35615714D01*
X143923381Y-35996667D01*
X143971000Y-36091905D01*
X144018619Y-36139524D01*
X144113857Y-36187143D01*
X144256714Y-36187143D01*
X144351952Y-36139524D01*
X144399571Y-36091905D01*
X144447190Y-35996667D01*
X144447190Y-35615714D01*
X144923381Y-37139524D02*
X144923381Y-36568095D01*
X144923381Y-36853809D02*
X143923381Y-36853809D01*
X144066238Y-36758571D01*
X144161476Y-36663333D01*
X144209095Y-36568095D01*
X143923381Y-37758571D02*
X143923381Y-37853810D01*
X143971000Y-37949048D01*
X144018619Y-37996667D01*
X144113857Y-38044286D01*
X144304333Y-38091905D01*
X144542429Y-38091905D01*
X144732905Y-38044286D01*
X144828143Y-37996667D01*
X144875762Y-37949048D01*
X144923381Y-37853810D01*
X144923381Y-37758571D01*
X144875762Y-37663333D01*
X144828143Y-37615714D01*
X144732905Y-37568095D01*
X144542429Y-37520476D01*
X144304333Y-37520476D01*
X144113857Y-37568095D01*
X144018619Y-37615714D01*
X143971000Y-37663333D01*
X143923381Y-37758571D01*
X78661143Y-164291334D02*
X78708762Y-164243715D01*
X78756381Y-164100858D01*
X78756381Y-164005620D01*
X78708762Y-163862762D01*
X78613524Y-163767524D01*
X78518286Y-163719905D01*
X78327810Y-163672286D01*
X78184952Y-163672286D01*
X77994476Y-163719905D01*
X77899238Y-163767524D01*
X77804000Y-163862762D01*
X77756381Y-164005620D01*
X77756381Y-164100858D01*
X77804000Y-164243715D01*
X77851619Y-164291334D01*
X77756381Y-164624667D02*
X77756381Y-165243715D01*
X78137333Y-164910381D01*
X78137333Y-165053239D01*
X78184952Y-165148477D01*
X78232571Y-165196096D01*
X78327810Y-165243715D01*
X78565905Y-165243715D01*
X78661143Y-165196096D01*
X78708762Y-165148477D01*
X78756381Y-165053239D01*
X78756381Y-164767524D01*
X78708762Y-164672286D01*
X78661143Y-164624667D01*
X78661143Y-145749334D02*
X78708762Y-145701715D01*
X78756381Y-145558858D01*
X78756381Y-145463620D01*
X78708762Y-145320762D01*
X78613524Y-145225524D01*
X78518286Y-145177905D01*
X78327810Y-145130286D01*
X78184952Y-145130286D01*
X77994476Y-145177905D01*
X77899238Y-145225524D01*
X77804000Y-145320762D01*
X77756381Y-145463620D01*
X77756381Y-145558858D01*
X77804000Y-145701715D01*
X77851619Y-145749334D01*
X78089714Y-146606477D02*
X78756381Y-146606477D01*
X77708762Y-146368381D02*
X78423048Y-146130286D01*
X78423048Y-146749334D01*
X78661143Y-126445334D02*
X78708762Y-126397715D01*
X78756381Y-126254858D01*
X78756381Y-126159620D01*
X78708762Y-126016762D01*
X78613524Y-125921524D01*
X78518286Y-125873905D01*
X78327810Y-125826286D01*
X78184952Y-125826286D01*
X77994476Y-125873905D01*
X77899238Y-125921524D01*
X77804000Y-126016762D01*
X77756381Y-126159620D01*
X77756381Y-126254858D01*
X77804000Y-126397715D01*
X77851619Y-126445334D01*
X77756381Y-127350096D02*
X77756381Y-126873905D01*
X78232571Y-126826286D01*
X78184952Y-126873905D01*
X78137333Y-126969143D01*
X78137333Y-127207239D01*
X78184952Y-127302477D01*
X78232571Y-127350096D01*
X78327810Y-127397715D01*
X78565905Y-127397715D01*
X78661143Y-127350096D01*
X78708762Y-127302477D01*
X78756381Y-127207239D01*
X78756381Y-126969143D01*
X78708762Y-126873905D01*
X78661143Y-126826286D01*
X144081381Y-140422334D02*
X143605190Y-140089000D01*
X144081381Y-139850905D02*
X143081381Y-139850905D01*
X143081381Y-140231858D01*
X143129000Y-140327096D01*
X143176619Y-140374715D01*
X143271857Y-140422334D01*
X143414714Y-140422334D01*
X143509952Y-140374715D01*
X143557571Y-140327096D01*
X143605190Y-140231858D01*
X143605190Y-139850905D01*
X144081381Y-141374715D02*
X144081381Y-140803286D01*
X144081381Y-141089000D02*
X143081381Y-141089000D01*
X143224238Y-140993762D01*
X143319476Y-140898524D01*
X143367095Y-140803286D01*
X52911381Y-139914334D02*
X52435190Y-139581000D01*
X52911381Y-139342905D02*
X51911381Y-139342905D01*
X51911381Y-139723858D01*
X51959000Y-139819096D01*
X52006619Y-139866715D01*
X52101857Y-139914334D01*
X52244714Y-139914334D01*
X52339952Y-139866715D01*
X52387571Y-139819096D01*
X52435190Y-139723858D01*
X52435190Y-139342905D01*
X52006619Y-140295286D02*
X51959000Y-140342905D01*
X51911381Y-140438143D01*
X51911381Y-140676239D01*
X51959000Y-140771477D01*
X52006619Y-140819096D01*
X52101857Y-140866715D01*
X52197095Y-140866715D01*
X52339952Y-140819096D01*
X52911381Y-140247667D01*
X52911381Y-140866715D01*
X60364666Y-109791381D02*
X60698000Y-109315190D01*
X60936095Y-109791381D02*
X60936095Y-108791381D01*
X60555142Y-108791381D01*
X60459904Y-108839000D01*
X60412285Y-108886619D01*
X60364666Y-108981857D01*
X60364666Y-109124714D01*
X60412285Y-109219952D01*
X60459904Y-109267571D01*
X60555142Y-109315190D01*
X60936095Y-109315190D01*
X60031333Y-108791381D02*
X59412285Y-108791381D01*
X59745619Y-109172333D01*
X59602761Y-109172333D01*
X59507523Y-109219952D01*
X59459904Y-109267571D01*
X59412285Y-109362810D01*
X59412285Y-109600905D01*
X59459904Y-109696143D01*
X59507523Y-109743762D01*
X59602761Y-109791381D01*
X59888476Y-109791381D01*
X59983714Y-109743762D01*
X60031333Y-109696143D01*
X44447927Y-120534120D02*
X43740820Y-119827013D01*
X43471445Y-120096387D01*
X43437774Y-120197403D01*
X43437774Y-120264746D01*
X43471445Y-120365761D01*
X43572460Y-120466776D01*
X43673476Y-120500448D01*
X43740819Y-120500448D01*
X43841834Y-120466776D01*
X44111209Y-120197402D01*
X43134728Y-120567792D02*
X43067385Y-120567792D01*
X42966370Y-120601463D01*
X42798010Y-120769823D01*
X42764339Y-120870838D01*
X42764339Y-120938181D01*
X42798010Y-121039196D01*
X42865354Y-121106540D01*
X43000041Y-121173883D01*
X43808163Y-121173883D01*
X43370430Y-121611616D01*
X42225591Y-121342242D02*
X42158247Y-121409586D01*
X42124575Y-121510601D01*
X42124575Y-121577944D01*
X42158247Y-121678960D01*
X42259262Y-121847318D01*
X42427621Y-122015678D01*
X42595980Y-122116693D01*
X42696995Y-122150364D01*
X42764339Y-122150364D01*
X42865354Y-122116693D01*
X42932698Y-122049349D01*
X42966370Y-121948333D01*
X42966370Y-121880990D01*
X42932698Y-121779975D01*
X42831683Y-121611616D01*
X42663323Y-121443257D01*
X42494965Y-121342242D01*
X42393950Y-121308570D01*
X42326606Y-121308570D01*
X42225591Y-121342242D01*
X273425333Y-139331381D02*
X273425333Y-140045667D01*
X273472953Y-140188524D01*
X273568191Y-140283762D01*
X273711048Y-140331381D01*
X273806286Y-140331381D01*
X272520571Y-139664714D02*
X272520571Y-140331381D01*
X272758667Y-139283762D02*
X272996762Y-139998048D01*
X272377714Y-139998048D01*
X206425333Y-157911381D02*
X206425333Y-158625667D01*
X206472953Y-158768524D01*
X206568191Y-158863762D01*
X206711048Y-158911381D01*
X206806286Y-158911381D01*
X205425333Y-158911381D02*
X205996762Y-158911381D01*
X205711048Y-158911381D02*
X205711048Y-157911381D01*
X205806286Y-158054238D01*
X205901524Y-158149476D01*
X205996762Y-158197095D01*
X267458666Y-134931381D02*
X267792000Y-134455190D01*
X268030095Y-134931381D02*
X268030095Y-133931381D01*
X267649142Y-133931381D01*
X267553904Y-133979000D01*
X267506285Y-134026619D01*
X267458666Y-134121857D01*
X267458666Y-134264714D01*
X267506285Y-134359952D01*
X267553904Y-134407571D01*
X267649142Y-134455190D01*
X268030095Y-134455190D01*
X266601523Y-134264714D02*
X266601523Y-134931381D01*
X266839619Y-133883762D02*
X267077714Y-134598048D01*
X266458666Y-134598048D01*
X267526166Y-141857381D02*
X267859500Y-141381190D01*
X268097595Y-141857381D02*
X268097595Y-140857381D01*
X267716642Y-140857381D01*
X267621404Y-140905000D01*
X267573785Y-140952619D01*
X267526166Y-141047857D01*
X267526166Y-141190714D01*
X267573785Y-141285952D01*
X267621404Y-141333571D01*
X267716642Y-141381190D01*
X268097595Y-141381190D01*
X266621404Y-140857381D02*
X267097595Y-140857381D01*
X267145214Y-141333571D01*
X267097595Y-141285952D01*
X267002357Y-141238333D01*
X266764261Y-141238333D01*
X266669023Y-141285952D01*
X266621404Y-141333571D01*
X266573785Y-141428810D01*
X266573785Y-141666905D01*
X266621404Y-141762143D01*
X266669023Y-141809762D01*
X266764261Y-141857381D01*
X267002357Y-141857381D01*
X267097595Y-141809762D01*
X267145214Y-141762143D01*
X217727743Y-75601534D02*
X217775362Y-75553915D01*
X217822981Y-75411058D01*
X217822981Y-75315820D01*
X217775362Y-75172962D01*
X217680124Y-75077724D01*
X217584886Y-75030105D01*
X217394410Y-74982486D01*
X217251552Y-74982486D01*
X217061076Y-75030105D01*
X216965838Y-75077724D01*
X216870600Y-75172962D01*
X216822981Y-75315820D01*
X216822981Y-75411058D01*
X216870600Y-75553915D01*
X216918219Y-75601534D01*
X216822981Y-76506296D02*
X216822981Y-76030105D01*
X217299171Y-75982486D01*
X217251552Y-76030105D01*
X217203933Y-76125343D01*
X217203933Y-76363439D01*
X217251552Y-76458677D01*
X217299171Y-76506296D01*
X217394410Y-76553915D01*
X217632505Y-76553915D01*
X217727743Y-76506296D01*
X217775362Y-76458677D01*
X217822981Y-76363439D01*
X217822981Y-76125343D01*
X217775362Y-76030105D01*
X217727743Y-75982486D01*
X203239666Y-82173143D02*
X203287285Y-82220762D01*
X203430142Y-82268381D01*
X203525380Y-82268381D01*
X203668238Y-82220762D01*
X203763476Y-82125524D01*
X203811095Y-82030286D01*
X203858714Y-81839810D01*
X203858714Y-81696952D01*
X203811095Y-81506476D01*
X203763476Y-81411238D01*
X203668238Y-81316000D01*
X203525380Y-81268381D01*
X203430142Y-81268381D01*
X203287285Y-81316000D01*
X203239666Y-81363619D01*
X202382523Y-81601714D02*
X202382523Y-82268381D01*
X202620619Y-81220762D02*
X202858714Y-81935048D01*
X202239666Y-81935048D01*
X268736143Y-37171334D02*
X268783762Y-37123715D01*
X268831381Y-36980858D01*
X268831381Y-36885620D01*
X268783762Y-36742762D01*
X268688524Y-36647524D01*
X268593286Y-36599905D01*
X268402810Y-36552286D01*
X268259952Y-36552286D01*
X268069476Y-36599905D01*
X267974238Y-36647524D01*
X267879000Y-36742762D01*
X267831381Y-36885620D01*
X267831381Y-36980858D01*
X267879000Y-37123715D01*
X267926619Y-37171334D01*
X267831381Y-37504667D02*
X267831381Y-38123715D01*
X268212333Y-37790381D01*
X268212333Y-37933239D01*
X268259952Y-38028477D01*
X268307571Y-38076096D01*
X268402810Y-38123715D01*
X268640905Y-38123715D01*
X268736143Y-38076096D01*
X268783762Y-38028477D01*
X268831381Y-37933239D01*
X268831381Y-37647524D01*
X268783762Y-37552286D01*
X268736143Y-37504667D01*
X244860143Y-36917334D02*
X244907762Y-36869715D01*
X244955381Y-36726858D01*
X244955381Y-36631620D01*
X244907762Y-36488762D01*
X244812524Y-36393524D01*
X244717286Y-36345905D01*
X244526810Y-36298286D01*
X244383952Y-36298286D01*
X244193476Y-36345905D01*
X244098238Y-36393524D01*
X244003000Y-36488762D01*
X243955381Y-36631620D01*
X243955381Y-36726858D01*
X244003000Y-36869715D01*
X244050619Y-36917334D01*
X244050619Y-37298286D02*
X244003000Y-37345905D01*
X243955381Y-37441143D01*
X243955381Y-37679239D01*
X244003000Y-37774477D01*
X244050619Y-37822096D01*
X244145857Y-37869715D01*
X244241095Y-37869715D01*
X244383952Y-37822096D01*
X244955381Y-37250667D01*
X244955381Y-37869715D01*
X220476143Y-36917334D02*
X220523762Y-36869715D01*
X220571381Y-36726858D01*
X220571381Y-36631620D01*
X220523762Y-36488762D01*
X220428524Y-36393524D01*
X220333286Y-36345905D01*
X220142810Y-36298286D01*
X219999952Y-36298286D01*
X219809476Y-36345905D01*
X219714238Y-36393524D01*
X219619000Y-36488762D01*
X219571381Y-36631620D01*
X219571381Y-36726858D01*
X219619000Y-36869715D01*
X219666619Y-36917334D01*
X220571381Y-37869715D02*
X220571381Y-37298286D01*
X220571381Y-37584000D02*
X219571381Y-37584000D01*
X219714238Y-37488762D01*
X219809476Y-37393524D01*
X219857095Y-37298286D01*
X203961381Y-45299334D02*
X203485190Y-44966000D01*
X203961381Y-44727905D02*
X202961381Y-44727905D01*
X202961381Y-45108858D01*
X203009000Y-45204096D01*
X203056619Y-45251715D01*
X203151857Y-45299334D01*
X203294714Y-45299334D01*
X203389952Y-45251715D01*
X203437571Y-45204096D01*
X203485190Y-45108858D01*
X203485190Y-44727905D01*
X203961381Y-46251715D02*
X203961381Y-45680286D01*
X203961381Y-45966000D02*
X202961381Y-45966000D01*
X203104238Y-45870762D01*
X203199476Y-45775524D01*
X203247095Y-45680286D01*
X228925381Y-46061334D02*
X228449190Y-45728000D01*
X228925381Y-45489905D02*
X227925381Y-45489905D01*
X227925381Y-45870858D01*
X227973000Y-45966096D01*
X228020619Y-46013715D01*
X228115857Y-46061334D01*
X228258714Y-46061334D01*
X228353952Y-46013715D01*
X228401571Y-45966096D01*
X228449190Y-45870858D01*
X228449190Y-45489905D01*
X228020619Y-46442286D02*
X227973000Y-46489905D01*
X227925381Y-46585143D01*
X227925381Y-46823239D01*
X227973000Y-46918477D01*
X228020619Y-46966096D01*
X228115857Y-47013715D01*
X228211095Y-47013715D01*
X228353952Y-46966096D01*
X228925381Y-46394667D01*
X228925381Y-47013715D01*
X261310381Y-46188334D02*
X260834190Y-45855000D01*
X261310381Y-45616905D02*
X260310381Y-45616905D01*
X260310381Y-45997858D01*
X260358000Y-46093096D01*
X260405619Y-46140715D01*
X260500857Y-46188334D01*
X260643714Y-46188334D01*
X260738952Y-46140715D01*
X260786571Y-46093096D01*
X260834190Y-45997858D01*
X260834190Y-45616905D01*
X260310381Y-46521667D02*
X260310381Y-47140715D01*
X260691333Y-46807381D01*
X260691333Y-46950239D01*
X260738952Y-47045477D01*
X260786571Y-47093096D01*
X260881810Y-47140715D01*
X261119905Y-47140715D01*
X261215143Y-47093096D01*
X261262762Y-47045477D01*
X261310381Y-46950239D01*
X261310381Y-46664524D01*
X261262762Y-46569286D01*
X261215143Y-46521667D01*
X226893381Y-36917334D02*
X226417190Y-36584000D01*
X226893381Y-36345905D02*
X225893381Y-36345905D01*
X225893381Y-36726858D01*
X225941000Y-36822096D01*
X225988619Y-36869715D01*
X226083857Y-36917334D01*
X226226714Y-36917334D01*
X226321952Y-36869715D01*
X226369571Y-36822096D01*
X226417190Y-36726858D01*
X226417190Y-36345905D01*
X226226714Y-37774477D02*
X226893381Y-37774477D01*
X225845762Y-37536381D02*
X226560048Y-37298286D01*
X226560048Y-37917334D01*
X224171381Y-47839334D02*
X223695190Y-47506000D01*
X224171381Y-47267905D02*
X223171381Y-47267905D01*
X223171381Y-47648858D01*
X223219000Y-47744096D01*
X223266619Y-47791715D01*
X223361857Y-47839334D01*
X223504714Y-47839334D01*
X223599952Y-47791715D01*
X223647571Y-47744096D01*
X223695190Y-47648858D01*
X223695190Y-47267905D01*
X223171381Y-48744096D02*
X223171381Y-48267905D01*
X223647571Y-48220286D01*
X223599952Y-48267905D01*
X223552333Y-48363143D01*
X223552333Y-48601239D01*
X223599952Y-48696477D01*
X223647571Y-48744096D01*
X223742810Y-48791715D01*
X223980905Y-48791715D01*
X224076143Y-48744096D01*
X224123762Y-48696477D01*
X224171381Y-48601239D01*
X224171381Y-48363143D01*
X224123762Y-48267905D01*
X224076143Y-48220286D01*
X251277381Y-36917334D02*
X250801190Y-36584000D01*
X251277381Y-36345905D02*
X250277381Y-36345905D01*
X250277381Y-36726858D01*
X250325000Y-36822096D01*
X250372619Y-36869715D01*
X250467857Y-36917334D01*
X250610714Y-36917334D01*
X250705952Y-36869715D01*
X250753571Y-36822096D01*
X250801190Y-36726858D01*
X250801190Y-36345905D01*
X250277381Y-37774477D02*
X250277381Y-37584000D01*
X250325000Y-37488762D01*
X250372619Y-37441143D01*
X250515476Y-37345905D01*
X250705952Y-37298286D01*
X251086905Y-37298286D01*
X251182143Y-37345905D01*
X251229762Y-37393524D01*
X251277381Y-37488762D01*
X251277381Y-37679239D01*
X251229762Y-37774477D01*
X251182143Y-37822096D01*
X251086905Y-37869715D01*
X250848810Y-37869715D01*
X250753571Y-37822096D01*
X250705952Y-37774477D01*
X250658333Y-37679239D01*
X250658333Y-37488762D01*
X250705952Y-37393524D01*
X250753571Y-37345905D01*
X250848810Y-37298286D01*
X248737381Y-47839334D02*
X248261190Y-47506000D01*
X248737381Y-47267905D02*
X247737381Y-47267905D01*
X247737381Y-47648858D01*
X247785000Y-47744096D01*
X247832619Y-47791715D01*
X247927857Y-47839334D01*
X248070714Y-47839334D01*
X248165952Y-47791715D01*
X248213571Y-47744096D01*
X248261190Y-47648858D01*
X248261190Y-47267905D01*
X247737381Y-48172667D02*
X247737381Y-48839334D01*
X248737381Y-48410762D01*
X275153381Y-37171334D02*
X274677190Y-36838000D01*
X275153381Y-36599905D02*
X274153381Y-36599905D01*
X274153381Y-36980858D01*
X274201000Y-37076096D01*
X274248619Y-37123715D01*
X274343857Y-37171334D01*
X274486714Y-37171334D01*
X274581952Y-37123715D01*
X274629571Y-37076096D01*
X274677190Y-36980858D01*
X274677190Y-36599905D01*
X274581952Y-37742762D02*
X274534333Y-37647524D01*
X274486714Y-37599905D01*
X274391476Y-37552286D01*
X274343857Y-37552286D01*
X274248619Y-37599905D01*
X274201000Y-37647524D01*
X274153381Y-37742762D01*
X274153381Y-37933239D01*
X274201000Y-38028477D01*
X274248619Y-38076096D01*
X274343857Y-38123715D01*
X274391476Y-38123715D01*
X274486714Y-38076096D01*
X274534333Y-38028477D01*
X274581952Y-37933239D01*
X274581952Y-37742762D01*
X274629571Y-37647524D01*
X274677190Y-37599905D01*
X274772429Y-37552286D01*
X274962905Y-37552286D01*
X275058143Y-37599905D01*
X275105762Y-37647524D01*
X275153381Y-37742762D01*
X275153381Y-37933239D01*
X275105762Y-38028477D01*
X275058143Y-38076096D01*
X274962905Y-38123715D01*
X274772429Y-38123715D01*
X274677190Y-38076096D01*
X274629571Y-38028477D01*
X274581952Y-37933239D01*
X272431381Y-48093334D02*
X271955190Y-47760000D01*
X272431381Y-47521905D02*
X271431381Y-47521905D01*
X271431381Y-47902858D01*
X271479000Y-47998096D01*
X271526619Y-48045715D01*
X271621857Y-48093334D01*
X271764714Y-48093334D01*
X271859952Y-48045715D01*
X271907571Y-47998096D01*
X271955190Y-47902858D01*
X271955190Y-47521905D01*
X272431381Y-48569524D02*
X272431381Y-48760000D01*
X272383762Y-48855239D01*
X272336143Y-48902858D01*
X272193286Y-48998096D01*
X272002810Y-49045715D01*
X271621857Y-49045715D01*
X271526619Y-48998096D01*
X271479000Y-48950477D01*
X271431381Y-48855239D01*
X271431381Y-48664762D01*
X271479000Y-48569524D01*
X271526619Y-48521905D01*
X271621857Y-48474286D01*
X271859952Y-48474286D01*
X271955190Y-48521905D01*
X272002810Y-48569524D01*
X272050429Y-48664762D01*
X272050429Y-48855239D01*
X272002810Y-48950477D01*
X271955190Y-48998096D01*
X271859952Y-49045715D01*
X210709381Y-44823143D02*
X210233190Y-44489809D01*
X210709381Y-44251714D02*
X209709381Y-44251714D01*
X209709381Y-44632667D01*
X209757000Y-44727905D01*
X209804619Y-44775524D01*
X209899857Y-44823143D01*
X210042714Y-44823143D01*
X210137952Y-44775524D01*
X210185571Y-44727905D01*
X210233190Y-44632667D01*
X210233190Y-44251714D01*
X210709381Y-45775524D02*
X210709381Y-45204095D01*
X210709381Y-45489809D02*
X209709381Y-45489809D01*
X209852238Y-45394571D01*
X209947476Y-45299333D01*
X209995095Y-45204095D01*
X209709381Y-46394571D02*
X209709381Y-46489810D01*
X209757000Y-46585048D01*
X209804619Y-46632667D01*
X209899857Y-46680286D01*
X210090333Y-46727905D01*
X210328429Y-46727905D01*
X210518905Y-46680286D01*
X210614143Y-46632667D01*
X210661762Y-46585048D01*
X210709381Y-46489810D01*
X210709381Y-46394571D01*
X210661762Y-46299333D01*
X210614143Y-46251714D01*
X210518905Y-46204095D01*
X210328429Y-46156476D01*
X210090333Y-46156476D01*
X209899857Y-46204095D01*
X209804619Y-46251714D01*
X209757000Y-46299333D01*
X209709381Y-46394571D01*
X236037381Y-45585143D02*
X235561190Y-45251809D01*
X236037381Y-45013714D02*
X235037381Y-45013714D01*
X235037381Y-45394667D01*
X235085000Y-45489905D01*
X235132619Y-45537524D01*
X235227857Y-45585143D01*
X235370714Y-45585143D01*
X235465952Y-45537524D01*
X235513571Y-45489905D01*
X235561190Y-45394667D01*
X235561190Y-45013714D01*
X236037381Y-46537524D02*
X236037381Y-45966095D01*
X236037381Y-46251809D02*
X235037381Y-46251809D01*
X235180238Y-46156571D01*
X235275476Y-46061333D01*
X235323095Y-45966095D01*
X236037381Y-47489905D02*
X236037381Y-46918476D01*
X236037381Y-47204190D02*
X235037381Y-47204190D01*
X235180238Y-47108952D01*
X235275476Y-47013714D01*
X235323095Y-46918476D01*
X253182381Y-45712143D02*
X252706190Y-45378809D01*
X253182381Y-45140714D02*
X252182381Y-45140714D01*
X252182381Y-45521667D01*
X252230000Y-45616905D01*
X252277619Y-45664524D01*
X252372857Y-45712143D01*
X252515714Y-45712143D01*
X252610952Y-45664524D01*
X252658571Y-45616905D01*
X252706190Y-45521667D01*
X252706190Y-45140714D01*
X253182381Y-46664524D02*
X253182381Y-46093095D01*
X253182381Y-46378809D02*
X252182381Y-46378809D01*
X252325238Y-46283571D01*
X252420476Y-46188333D01*
X252468095Y-46093095D01*
X252277619Y-47045476D02*
X252230000Y-47093095D01*
X252182381Y-47188333D01*
X252182381Y-47426429D01*
X252230000Y-47521667D01*
X252277619Y-47569286D01*
X252372857Y-47616905D01*
X252468095Y-47616905D01*
X252610952Y-47569286D01*
X253182381Y-46997857D01*
X253182381Y-47616905D01*
X235093381Y-88257143D02*
X234617190Y-87923809D01*
X235093381Y-87685714D02*
X234093381Y-87685714D01*
X234093381Y-88066667D01*
X234141000Y-88161905D01*
X234188619Y-88209524D01*
X234283857Y-88257143D01*
X234426714Y-88257143D01*
X234521952Y-88209524D01*
X234569571Y-88161905D01*
X234617190Y-88066667D01*
X234617190Y-87685714D01*
X235093381Y-89209524D02*
X235093381Y-88638095D01*
X235093381Y-88923809D02*
X234093381Y-88923809D01*
X234236238Y-88828571D01*
X234331476Y-88733333D01*
X234379095Y-88638095D01*
X234093381Y-89542857D02*
X234093381Y-90161905D01*
X234474333Y-89828571D01*
X234474333Y-89971429D01*
X234521952Y-90066667D01*
X234569571Y-90114286D01*
X234664810Y-90161905D01*
X234902905Y-90161905D01*
X234998143Y-90114286D01*
X235045762Y-90066667D01*
X235093381Y-89971429D01*
X235093381Y-89685714D01*
X235045762Y-89590476D01*
X234998143Y-89542857D01*
X240173381Y-88257143D02*
X239697190Y-87923809D01*
X240173381Y-87685714D02*
X239173381Y-87685714D01*
X239173381Y-88066667D01*
X239221000Y-88161905D01*
X239268619Y-88209524D01*
X239363857Y-88257143D01*
X239506714Y-88257143D01*
X239601952Y-88209524D01*
X239649571Y-88161905D01*
X239697190Y-88066667D01*
X239697190Y-87685714D01*
X240173381Y-89209524D02*
X240173381Y-88638095D01*
X240173381Y-88923809D02*
X239173381Y-88923809D01*
X239316238Y-88828571D01*
X239411476Y-88733333D01*
X239459095Y-88638095D01*
X239506714Y-90066667D02*
X240173381Y-90066667D01*
X239125762Y-89828571D02*
X239840048Y-89590476D01*
X239840048Y-90209524D01*
X245253381Y-88257143D02*
X244777190Y-87923809D01*
X245253381Y-87685714D02*
X244253381Y-87685714D01*
X244253381Y-88066667D01*
X244301000Y-88161905D01*
X244348619Y-88209524D01*
X244443857Y-88257143D01*
X244586714Y-88257143D01*
X244681952Y-88209524D01*
X244729571Y-88161905D01*
X244777190Y-88066667D01*
X244777190Y-87685714D01*
X245253381Y-89209524D02*
X245253381Y-88638095D01*
X245253381Y-88923809D02*
X244253381Y-88923809D01*
X244396238Y-88828571D01*
X244491476Y-88733333D01*
X244539095Y-88638095D01*
X244253381Y-90114286D02*
X244253381Y-89638095D01*
X244729571Y-89590476D01*
X244681952Y-89638095D01*
X244634333Y-89733333D01*
X244634333Y-89971429D01*
X244681952Y-90066667D01*
X244729571Y-90114286D01*
X244824810Y-90161905D01*
X245062905Y-90161905D01*
X245158143Y-90114286D01*
X245205762Y-90066667D01*
X245253381Y-89971429D01*
X245253381Y-89733333D01*
X245205762Y-89638095D01*
X245158143Y-89590476D01*
X214206057Y-86257781D02*
X214539391Y-85781590D01*
X214777486Y-86257781D02*
X214777486Y-85257781D01*
X214396533Y-85257781D01*
X214301295Y-85305400D01*
X214253676Y-85353019D01*
X214206057Y-85448257D01*
X214206057Y-85591114D01*
X214253676Y-85686352D01*
X214301295Y-85733971D01*
X214396533Y-85781590D01*
X214777486Y-85781590D01*
X213253676Y-86257781D02*
X213825105Y-86257781D01*
X213539391Y-86257781D02*
X213539391Y-85257781D01*
X213634629Y-85400638D01*
X213729867Y-85495876D01*
X213825105Y-85543495D01*
X212396533Y-85257781D02*
X212587010Y-85257781D01*
X212682248Y-85305400D01*
X212729867Y-85353019D01*
X212825105Y-85495876D01*
X212872724Y-85686352D01*
X212872724Y-86067305D01*
X212825105Y-86162543D01*
X212777486Y-86210162D01*
X212682248Y-86257781D01*
X212491771Y-86257781D01*
X212396533Y-86210162D01*
X212348914Y-86162543D01*
X212301295Y-86067305D01*
X212301295Y-85829210D01*
X212348914Y-85733971D01*
X212396533Y-85686352D01*
X212491771Y-85638733D01*
X212682248Y-85638733D01*
X212777486Y-85686352D01*
X212825105Y-85733971D01*
X212872724Y-85829210D01*
X266191381Y-83431143D02*
X265715190Y-83097809D01*
X266191381Y-82859714D02*
X265191381Y-82859714D01*
X265191381Y-83240667D01*
X265239000Y-83335905D01*
X265286619Y-83383524D01*
X265381857Y-83431143D01*
X265524714Y-83431143D01*
X265619952Y-83383524D01*
X265667571Y-83335905D01*
X265715190Y-83240667D01*
X265715190Y-82859714D01*
X266191381Y-84383524D02*
X266191381Y-83812095D01*
X266191381Y-84097809D02*
X265191381Y-84097809D01*
X265334238Y-84002571D01*
X265429476Y-83907333D01*
X265477095Y-83812095D01*
X265191381Y-84716857D02*
X265191381Y-85383524D01*
X266191381Y-84954952D01*
X207748095Y-88772381D02*
X207748095Y-87772381D01*
X207510000Y-87772381D01*
X207367142Y-87820000D01*
X207271904Y-87915238D01*
X207224285Y-88010476D01*
X207176666Y-88200952D01*
X207176666Y-88343810D01*
X207224285Y-88534286D01*
X207271904Y-88629524D01*
X207367142Y-88724762D01*
X207510000Y-88772381D01*
X207748095Y-88772381D01*
X206224285Y-88772381D02*
X206795714Y-88772381D01*
X206510000Y-88772381D02*
X206510000Y-87772381D01*
X206605238Y-87915238D01*
X206700476Y-88010476D01*
X206795714Y-88058095D01*
X268962095Y-89280381D02*
X268962095Y-88280381D01*
X268724000Y-88280381D01*
X268581142Y-88328000D01*
X268485904Y-88423238D01*
X268438285Y-88518476D01*
X268390666Y-88708952D01*
X268390666Y-88851810D01*
X268438285Y-89042286D01*
X268485904Y-89137524D01*
X268581142Y-89232762D01*
X268724000Y-89280381D01*
X268962095Y-89280381D01*
X268009714Y-88375619D02*
X267962095Y-88328000D01*
X267866857Y-88280381D01*
X267628761Y-88280381D01*
X267533523Y-88328000D01*
X267485904Y-88375619D01*
X267438285Y-88470857D01*
X267438285Y-88566095D01*
X267485904Y-88708952D01*
X268057333Y-89280381D01*
X267438285Y-89280381D01*
X225401095Y-89352381D02*
X225401095Y-88352381D01*
X225163000Y-88352381D01*
X225020142Y-88400000D01*
X224924904Y-88495238D01*
X224877285Y-88590476D01*
X224829666Y-88780952D01*
X224829666Y-88923810D01*
X224877285Y-89114286D01*
X224924904Y-89209524D01*
X225020142Y-89304762D01*
X225163000Y-89352381D01*
X225401095Y-89352381D01*
X224496333Y-88352381D02*
X223877285Y-88352381D01*
X224210619Y-88733333D01*
X224067761Y-88733333D01*
X223972523Y-88780952D01*
X223924904Y-88828571D01*
X223877285Y-88923810D01*
X223877285Y-89161905D01*
X223924904Y-89257143D01*
X223972523Y-89304762D01*
X224067761Y-89352381D01*
X224353476Y-89352381D01*
X224448714Y-89304762D01*
X224496333Y-89257143D01*
X221241857Y-86050381D02*
X221575191Y-85574190D01*
X221813286Y-86050381D02*
X221813286Y-85050381D01*
X221432333Y-85050381D01*
X221337095Y-85098000D01*
X221289476Y-85145619D01*
X221241857Y-85240857D01*
X221241857Y-85383714D01*
X221289476Y-85478952D01*
X221337095Y-85526571D01*
X221432333Y-85574190D01*
X221813286Y-85574190D01*
X220289476Y-86050381D02*
X220860905Y-86050381D01*
X220575191Y-86050381D02*
X220575191Y-85050381D01*
X220670429Y-85193238D01*
X220765667Y-85288476D01*
X220860905Y-85336095D01*
X219718048Y-85478952D02*
X219813286Y-85431333D01*
X219860905Y-85383714D01*
X219908524Y-85288476D01*
X219908524Y-85240857D01*
X219860905Y-85145619D01*
X219813286Y-85098000D01*
X219718048Y-85050381D01*
X219527571Y-85050381D01*
X219432333Y-85098000D01*
X219384714Y-85145619D01*
X219337095Y-85240857D01*
X219337095Y-85288476D01*
X219384714Y-85383714D01*
X219432333Y-85431333D01*
X219527571Y-85478952D01*
X219718048Y-85478952D01*
X219813286Y-85526571D01*
X219860905Y-85574190D01*
X219908524Y-85669429D01*
X219908524Y-85859905D01*
X219860905Y-85955143D01*
X219813286Y-86002762D01*
X219718048Y-86050381D01*
X219527571Y-86050381D01*
X219432333Y-86002762D01*
X219384714Y-85955143D01*
X219337095Y-85859905D01*
X219337095Y-85669429D01*
X219384714Y-85574190D01*
X219432333Y-85526571D01*
X219527571Y-85478952D01*
M02*
