G04 #@! TF.FileFunction,Paste,Bot*
%FSLAX46Y46*%
G04 Gerber Fmt 4.6, Leading zero omitted, Abs format (unit mm)*
G04 Created by KiCad (PCBNEW 4.0.6) date 2017 August 07, Monday 22:44:53*
%MOMM*%
%LPD*%
G01*
G04 APERTURE LIST*
%ADD10C,0.100000*%
%ADD11R,2.000000X1.600000*%
%ADD12R,1.600000X2.000000*%
%ADD13R,1.700000X2.000000*%
%ADD14R,2.000000X1.700000*%
G04 APERTURE END LIST*
D10*
D11*
X131350000Y-61849000D03*
X135350000Y-61849000D03*
X138843000Y-61849000D03*
X142843000Y-61849000D03*
D12*
X135636000Y-51047900D03*
X135636000Y-55047900D03*
D13*
X138303000Y-38830000D03*
X138303000Y-34830000D03*
X115570000Y-60420000D03*
X115570000Y-56420000D03*
D14*
X131985000Y-43307000D03*
X135985000Y-43307000D03*
D13*
X142621000Y-38830000D03*
X142621000Y-34830000D03*
D14*
X269292000Y-136329000D03*
X265292000Y-136329000D03*
X269292000Y-139329000D03*
X265292000Y-139329000D03*
D12*
X215620600Y-77768200D03*
X215620600Y-73768200D03*
D11*
X205073000Y-83566000D03*
X201073000Y-83566000D03*
D12*
X270129000Y-35338000D03*
X270129000Y-39338000D03*
X246253000Y-35084000D03*
X246253000Y-39084000D03*
X221869000Y-35084000D03*
X221869000Y-39084000D03*
D13*
X205359000Y-43466000D03*
X205359000Y-47466000D03*
X230505000Y-44228000D03*
X230505000Y-48228000D03*
X258699000Y-44355000D03*
X258699000Y-48355000D03*
X224409000Y-35084000D03*
X224409000Y-39084000D03*
X221869000Y-50006000D03*
X221869000Y-46006000D03*
X248793000Y-35084000D03*
X248793000Y-39084000D03*
X246253000Y-50006000D03*
X246253000Y-46006000D03*
X272669000Y-35338000D03*
X272669000Y-39338000D03*
X270129000Y-50260000D03*
X270129000Y-46260000D03*
X208407000Y-47466000D03*
X208407000Y-43466000D03*
X233553000Y-48228000D03*
X233553000Y-44228000D03*
X255143000Y-48355000D03*
X255143000Y-44355000D03*
X232791000Y-90900000D03*
X232791000Y-86900000D03*
X237871000Y-90900000D03*
X237871000Y-86900000D03*
X242951000Y-90900000D03*
X242951000Y-86900000D03*
D14*
X215563200Y-87655400D03*
X211563200Y-87655400D03*
D13*
X267589000Y-82074000D03*
X267589000Y-86074000D03*
D14*
X209010000Y-90170000D03*
X205010000Y-90170000D03*
X270224000Y-90678000D03*
X266224000Y-90678000D03*
X226663000Y-90678000D03*
X222663000Y-90678000D03*
X218599000Y-87630000D03*
X222599000Y-87630000D03*
M02*
