G04 #@! TF.FileFunction,Copper,L1,Top,Signal*
%FSLAX46Y46*%
G04 Gerber Fmt 4.6, Leading zero omitted, Abs format (unit mm)*
G04 Created by KiCad (PCBNEW 4.0.6) date 2017 August 07, Monday 22:44:53*
%MOMM*%
%LPD*%
G01*
G04 APERTURE LIST*
%ADD10C,0.100000*%
%ADD11R,2.100000X3.600000*%
%ADD12O,2.100000X3.600000*%
%ADD13R,2.400000X1.600000*%
%ADD14O,2.400000X1.600000*%
%ADD15R,1.350000X1.350000*%
%ADD16O,1.350000X1.350000*%
%ADD17R,3.600000X2.100000*%
%ADD18O,3.600000X2.100000*%
%ADD19C,2.400000*%
%ADD20O,2.400000X2.400000*%
%ADD21C,2.500000*%
%ADD22R,1.300000X1.300000*%
%ADD23C,1.300000*%
%ADD24C,5.000000*%
%ADD25C,2.000000*%
%ADD26C,1.620000*%
%ADD27R,2.400000X3.000000*%
%ADD28R,1.700000X1.700000*%
%ADD29C,2.200000*%
%ADD30C,15.000000*%
%ADD31C,2.100000*%
%ADD32O,1.700000X1.700000*%
%ADD33R,1.250000X1.500000*%
%ADD34R,1.500000X1.250000*%
%ADD35R,1.500000X1.300000*%
%ADD36R,3.500000X1.800000*%
%ADD37R,1.300000X1.500000*%
%ADD38R,1.143000X0.508000*%
%ADD39R,1.600000X3.500000*%
%ADD40C,1.524000*%
%ADD41C,5.700000*%
%ADD42R,0.750000X0.800000*%
%ADD43R,1.600000X2.400000*%
%ADD44O,1.600000X2.400000*%
%ADD45R,1.600000X1.600000*%
%ADD46C,1.600000*%
%ADD47R,1.100000X1.100000*%
%ADD48R,1.500000X1.500000*%
%ADD49C,7.500000*%
%ADD50C,1.000000*%
%ADD51C,0.600000*%
%ADD52C,0.700000*%
%ADD53C,1.500000*%
%ADD54C,2.000000*%
%ADD55C,0.400000*%
%ADD56C,1.000000*%
%ADD57C,0.500000*%
G04 APERTURE END LIST*
D10*
D11*
X131445000Y-79476600D03*
D12*
X136445000Y-79476600D03*
X141445000Y-79476600D03*
D13*
X139827000Y-55753000D03*
D14*
X132207000Y-48133000D03*
X139827000Y-53213000D03*
X132207000Y-50673000D03*
X139827000Y-50673000D03*
X132207000Y-53213000D03*
X139827000Y-48133000D03*
X132207000Y-55753000D03*
D15*
X145923000Y-36957000D03*
D16*
X145923000Y-38957000D03*
D17*
X157454600Y-53568600D03*
D18*
X157454600Y-48568600D03*
D19*
X39751000Y-61595000D03*
D20*
X39751000Y-83995000D03*
D19*
X39769000Y-46431200D03*
D20*
X39769000Y-24031200D03*
D19*
X54769000Y-83947000D03*
D20*
X54769000Y-61547000D03*
D19*
X54769000Y-24003000D03*
D20*
X54769000Y-46403000D03*
D19*
X69769000Y-61595000D03*
D20*
X69769000Y-83995000D03*
D19*
X69769000Y-46355000D03*
D20*
X69769000Y-23955000D03*
D21*
X23241000Y-57665000D03*
X23241000Y-50165000D03*
D22*
X131318000Y-66802000D03*
D23*
X133818000Y-66802000D03*
D22*
X138811000Y-66802000D03*
D23*
X141311000Y-66802000D03*
D24*
X159769000Y-28645000D03*
X159769000Y-79645000D03*
X29769000Y-79645000D03*
X29769000Y-29645000D03*
D25*
X87249000Y-61849000D03*
X87249000Y-46609000D03*
D21*
X107569000Y-61849000D03*
X107569000Y-54229000D03*
X107569000Y-46609000D03*
D26*
X119735600Y-45596800D03*
X124735600Y-48096800D03*
X119735600Y-50596800D03*
X119735600Y-56163200D03*
X124735600Y-58663200D03*
X119735600Y-61163200D03*
D27*
X83762000Y-126372000D03*
X83762000Y-149632000D03*
X83762000Y-134222000D03*
X86942000Y-149632000D03*
X86942000Y-134222000D03*
X83762000Y-141922000D03*
X86942000Y-141922000D03*
X90112000Y-141922000D03*
X83762000Y-157322000D03*
X86942000Y-157322000D03*
X91942000Y-157322000D03*
X99562000Y-126372000D03*
X104562000Y-157322000D03*
X109362000Y-157322000D03*
X114162000Y-157322000D03*
X114162000Y-149122000D03*
X109362000Y-133332000D03*
X109362000Y-126372000D03*
X109362000Y-140922000D03*
X114162000Y-140922000D03*
X114162000Y-133332000D03*
X115362000Y-126372000D03*
D28*
X61518800Y-114858800D03*
X61518800Y-144703800D03*
X137591800Y-114985800D03*
D29*
X72644000Y-171958000D03*
X72644000Y-156958000D03*
X72644000Y-153416000D03*
X72644000Y-138416000D03*
X72644000Y-134112000D03*
X72644000Y-119112000D03*
D19*
X146939000Y-132969000D03*
D20*
X146939000Y-148209000D03*
D19*
X49149000Y-147701000D03*
D20*
X49149000Y-132461000D03*
D19*
X67818000Y-112649000D03*
D20*
X52578000Y-112649000D03*
D30*
X137562000Y-157152000D03*
X137562000Y-125652000D03*
X61562000Y-125652000D03*
X61562000Y-157152000D03*
D11*
X91186000Y-110617000D03*
D12*
X86186000Y-110617000D03*
X81186000Y-110617000D03*
D11*
X81127600Y-172339000D03*
D12*
X86127600Y-172339000D03*
X91127600Y-172339000D03*
D11*
X109220000Y-110617000D03*
D12*
X104220000Y-110617000D03*
X99220000Y-110617000D03*
D11*
X99263200Y-172339000D03*
D12*
X104263200Y-172339000D03*
X109263200Y-172339000D03*
D11*
X127254000Y-110617000D03*
D12*
X122254000Y-110617000D03*
X117254000Y-110617000D03*
D11*
X117348000Y-172339000D03*
D12*
X122348000Y-172339000D03*
X127348000Y-172339000D03*
D17*
X168275000Y-146304000D03*
D18*
X168275000Y-141304000D03*
X168275000Y-136304000D03*
D17*
X31369000Y-137414000D03*
D18*
X31369000Y-142414000D03*
D10*
G36*
X39062130Y-123300254D02*
X36516546Y-120754670D01*
X38001470Y-119269746D01*
X40547054Y-121815330D01*
X39062130Y-123300254D01*
X39062130Y-123300254D01*
G37*
D31*
X41537004Y-117219136D02*
X42597664Y-118279796D01*
D28*
X276092000Y-138329000D03*
D32*
X276092000Y-135789000D03*
X276092000Y-133249000D03*
D17*
X275492000Y-154629000D03*
D18*
X275492000Y-149629000D03*
X275492000Y-144629000D03*
D33*
X227392000Y-134479000D03*
X227392000Y-131979000D03*
D34*
X255742000Y-134429000D03*
X253242000Y-134429000D03*
D33*
X253492000Y-137561000D03*
X253492000Y-140061000D03*
X246316500Y-134957500D03*
X246316500Y-137457500D03*
X246316500Y-139783500D03*
X246316500Y-142283500D03*
D35*
X223536500Y-146558000D03*
X220836500Y-146558000D03*
D36*
X270724000Y-132461000D03*
X265724000Y-132461000D03*
D28*
X206092000Y-156129000D03*
D32*
X206092000Y-153589000D03*
X206092000Y-151049000D03*
X206092000Y-148509000D03*
X206092000Y-145969000D03*
X206092000Y-143429000D03*
X206092000Y-140889000D03*
X206092000Y-138349000D03*
X206092000Y-135809000D03*
X206092000Y-133269000D03*
D11*
X208407000Y-161734500D03*
D12*
X213407000Y-161734500D03*
X218407000Y-161734500D03*
X223407000Y-161734500D03*
D11*
X251714000Y-161861500D03*
D12*
X256714000Y-161861500D03*
X261714000Y-161861500D03*
D37*
X218376500Y-133587500D03*
X218376500Y-136287500D03*
D35*
X215820000Y-146558000D03*
X218520000Y-146558000D03*
D37*
X221996000Y-134921000D03*
X221996000Y-137621000D03*
D35*
X258442000Y-132529000D03*
X255742000Y-132529000D03*
X265985000Y-144145000D03*
X268685000Y-144145000D03*
D37*
X271742000Y-161029000D03*
X271742000Y-163729000D03*
X274492000Y-163729000D03*
X274492000Y-161029000D03*
D28*
X261592000Y-132529000D03*
D38*
X231394000Y-132461000D03*
X231394000Y-133731000D03*
X231394000Y-135001000D03*
X231394000Y-136271000D03*
X231394000Y-137541000D03*
X231394000Y-138811000D03*
X231394000Y-140081000D03*
X231394000Y-141351000D03*
X241554000Y-141351000D03*
X241554000Y-140081000D03*
X241554000Y-138811000D03*
X241554000Y-137541000D03*
X241554000Y-136271000D03*
X241554000Y-135001000D03*
X241554000Y-133731000D03*
X241554000Y-132461000D03*
D39*
X223583500Y-156179500D03*
X223583500Y-150779500D03*
D33*
X217551000Y-154729500D03*
X217551000Y-152229500D03*
D39*
X252412500Y-150335000D03*
X252412500Y-155735000D03*
X260096000Y-155735000D03*
X260096000Y-150335000D03*
D37*
X271742000Y-168729000D03*
X271742000Y-166029000D03*
X274492000Y-168729000D03*
X274492000Y-166029000D03*
D40*
X229997000Y-155575000D03*
X232537000Y-155575000D03*
X240157000Y-155575000D03*
X242697000Y-155575000D03*
X245237000Y-155575000D03*
D41*
X201092000Y-126129000D03*
X201092000Y-168129000D03*
X281092000Y-126129000D03*
X281092000Y-168129000D03*
D42*
X229792000Y-133879000D03*
X229792000Y-132379000D03*
X244592000Y-134979000D03*
X244592000Y-136479000D03*
X243492000Y-140079000D03*
X243492000Y-141579000D03*
D11*
X213487000Y-82550000D03*
D12*
X218487000Y-82550000D03*
X223487000Y-82550000D03*
D11*
X232791000Y-82550000D03*
D12*
X237791000Y-82550000D03*
X242791000Y-82550000D03*
X247791000Y-82550000D03*
D11*
X257175000Y-82550000D03*
D12*
X262175000Y-82550000D03*
D43*
X235077000Y-40894000D03*
D44*
X242697000Y-33274000D03*
X237617000Y-40894000D03*
X240157000Y-33274000D03*
X240157000Y-40894000D03*
X237617000Y-33274000D03*
X242697000Y-40894000D03*
X235077000Y-33274000D03*
D43*
X258699000Y-41148000D03*
D44*
X266319000Y-33528000D03*
X261239000Y-41148000D03*
X263779000Y-33528000D03*
X263779000Y-41148000D03*
X261239000Y-33528000D03*
X266319000Y-41148000D03*
X258699000Y-33528000D03*
D43*
X210693000Y-40894000D03*
D44*
X218313000Y-33274000D03*
X213233000Y-40894000D03*
X215773000Y-33274000D03*
X215773000Y-40894000D03*
X213233000Y-33274000D03*
X218313000Y-40894000D03*
X210693000Y-33274000D03*
D45*
X206883000Y-73533000D03*
D46*
X204383000Y-73533000D03*
D45*
X223901000Y-74168000D03*
D46*
X226401000Y-74168000D03*
D26*
X218313000Y-53006000D03*
X213313000Y-50506000D03*
X218313000Y-48006000D03*
X242697000Y-53006000D03*
X237697000Y-50506000D03*
X242697000Y-48006000D03*
X266319000Y-53260000D03*
X261319000Y-50760000D03*
X266319000Y-48260000D03*
D47*
X230441000Y-66548000D03*
X230441000Y-61468000D03*
X230441000Y-64008000D03*
D48*
X243141000Y-70358000D03*
X240601000Y-70358000D03*
X238061000Y-70358000D03*
X243141000Y-57658000D03*
X240601000Y-57658000D03*
X238061000Y-57658000D03*
D47*
X254317000Y-66548000D03*
X254317000Y-61468000D03*
X254317000Y-64008000D03*
D48*
X267017000Y-70358000D03*
X264477000Y-70358000D03*
X261937000Y-70358000D03*
X267017000Y-57658000D03*
X264477000Y-57658000D03*
X261937000Y-57658000D03*
D47*
X206311000Y-66548000D03*
X206311000Y-61468000D03*
X206311000Y-64008000D03*
D48*
X219011000Y-70358000D03*
X216471000Y-70358000D03*
X213931000Y-70358000D03*
X219011000Y-57658000D03*
X216471000Y-57658000D03*
X213931000Y-57658000D03*
D49*
X195573000Y-28976000D03*
X278573000Y-28976000D03*
X195573000Y-86976000D03*
X278573000Y-86976000D03*
D50*
X210312000Y-136017000D03*
X215265000Y-148844000D03*
X230492000Y-147429000D03*
X230492000Y-150929000D03*
X229892000Y-161429000D03*
X229892000Y-163829000D03*
X227392000Y-129429000D03*
X223392000Y-143729000D03*
X223492000Y-132429000D03*
D51*
X115570000Y-126390400D03*
X99466400Y-126542800D03*
X83769200Y-126339600D03*
X114350800Y-149250400D03*
X109362000Y-140922000D03*
X114162000Y-157322000D03*
X90112000Y-141922000D03*
X109321600Y-157581600D03*
X91942000Y-157322000D03*
X83762000Y-157322000D03*
X86942000Y-157322000D03*
D50*
X270792000Y-147329000D03*
X243192000Y-138829000D03*
X252392000Y-144929000D03*
X267692000Y-150929000D03*
X257746500Y-141414500D03*
X265303000Y-154813000D03*
X249692000Y-128929000D03*
X276092000Y-129929000D03*
X279992000Y-133229000D03*
X251392000Y-130429000D03*
X252992000Y-128829000D03*
X257592000Y-157929000D03*
X255792000Y-157929000D03*
X251392000Y-134429000D03*
X273192000Y-158329000D03*
X243992000Y-168129000D03*
X244092000Y-150229000D03*
X249792000Y-140829000D03*
X264007600Y-145516600D03*
X242760500Y-151892000D03*
X243192000Y-136229000D03*
X243192000Y-137529000D03*
D52*
X227392000Y-134479000D02*
X229192000Y-134479000D01*
X229192000Y-134479000D02*
X229792000Y-133879000D01*
X221996000Y-134921000D02*
X226950000Y-134921000D01*
X226950000Y-134921000D02*
X227392000Y-134479000D01*
X231394000Y-133731000D02*
X229940000Y-133731000D01*
X229940000Y-133731000D02*
X229792000Y-133879000D01*
X215820000Y-146558000D02*
X215820000Y-148289000D01*
X215820000Y-148289000D02*
X215265000Y-148844000D01*
D53*
X206184500Y-138303000D02*
X208026000Y-138303000D01*
X208026000Y-138303000D02*
X210312000Y-136017000D01*
D52*
X206184500Y-138303000D02*
X208534000Y-138303000D01*
X213249500Y-133587500D02*
X218376500Y-133587500D01*
X208534000Y-138303000D02*
X213249500Y-133587500D01*
X218376500Y-133587500D02*
X220662500Y-133587500D01*
X220662500Y-133587500D02*
X221996000Y-134921000D01*
D53*
X230492000Y-150929000D02*
X230492000Y-147429000D01*
X230408500Y-150845500D02*
X230408500Y-150779500D01*
X230492000Y-150929000D02*
X230408500Y-150845500D01*
X232537000Y-155575000D02*
X232537000Y-158784000D01*
X232537000Y-158784000D02*
X229892000Y-161429000D01*
X229892000Y-166529000D02*
X229892000Y-163829000D01*
X227392000Y-129429000D02*
X227392000Y-131979000D01*
D52*
X227392000Y-131979000D02*
X223942000Y-131979000D01*
X223536500Y-143873500D02*
X223536500Y-146558000D01*
X223392000Y-143729000D02*
X223536500Y-143873500D01*
X223942000Y-131979000D02*
X223492000Y-132429000D01*
X229792000Y-132379000D02*
X227792000Y-132379000D01*
X227792000Y-132379000D02*
X227392000Y-131979000D01*
X231394000Y-132461000D02*
X229874000Y-132461000D01*
X229874000Y-132461000D02*
X229792000Y-132379000D01*
X223536500Y-146558000D02*
X223536500Y-150732500D01*
X223536500Y-150732500D02*
X223583500Y-150779500D01*
D53*
X217551000Y-152229500D02*
X212006500Y-152229500D01*
X208153000Y-156083000D02*
X206184500Y-156083000D01*
X212006500Y-152229500D02*
X208153000Y-156083000D01*
X223583500Y-150779500D02*
X230408500Y-150779500D01*
X217551000Y-152229500D02*
X217551000Y-151384000D01*
X218155500Y-150779500D02*
X223583500Y-150779500D01*
X217551000Y-151384000D02*
X218155500Y-150779500D01*
X206184500Y-156083000D02*
X206184500Y-159512000D01*
X206184500Y-159512000D02*
X208407000Y-161734500D01*
D54*
X61562000Y-157152000D02*
X61648000Y-157152000D01*
X61648000Y-157152000D02*
X67030600Y-162534600D01*
X132179400Y-162534600D02*
X137562000Y-157152000D01*
X67030600Y-162534600D02*
X132179400Y-162534600D01*
X61562000Y-157152000D02*
X61562000Y-144747000D01*
X61562000Y-144747000D02*
X61518800Y-144703800D01*
X137562000Y-157152000D02*
X137996000Y-157152000D01*
X137996000Y-157152000D02*
X146939000Y-148209000D01*
X61562000Y-157152000D02*
X58600000Y-157152000D01*
X137562000Y-157152000D02*
X132027000Y-157152000D01*
X58600000Y-157152000D02*
X49149000Y-147701000D01*
X72644000Y-153416000D02*
X72644000Y-156958000D01*
X72644000Y-119112000D02*
X72644000Y-117475000D01*
X72644000Y-117475000D02*
X67818000Y-112649000D01*
X109362000Y-133332000D02*
X114162000Y-133332000D01*
X81534000Y-116459000D02*
X79502000Y-116459000D01*
X36576000Y-119329200D02*
X38531800Y-121285000D01*
X36576000Y-115951000D02*
X36576000Y-119329200D01*
X45720000Y-106807000D02*
X36576000Y-115951000D01*
X69850000Y-106807000D02*
X45720000Y-106807000D01*
X79502000Y-116459000D02*
X69850000Y-106807000D01*
X72644000Y-171958000D02*
X47371000Y-171958000D01*
X47371000Y-171958000D02*
X38531800Y-163118800D01*
X38531800Y-163118800D02*
X38531800Y-121285000D01*
X91186000Y-110617000D02*
X91186000Y-106807000D01*
X106426000Y-103759000D02*
X109220000Y-106553000D01*
X94234000Y-103759000D02*
X106426000Y-103759000D01*
X91186000Y-106807000D02*
X94234000Y-103759000D01*
X127254000Y-110617000D02*
X127254000Y-106934000D01*
X109220000Y-106299000D02*
X109220000Y-106553000D01*
X109220000Y-106553000D02*
X109220000Y-110617000D01*
X111125000Y-104394000D02*
X109220000Y-106299000D01*
X124714000Y-104394000D02*
X111125000Y-104394000D01*
X127254000Y-106934000D02*
X124714000Y-104394000D01*
X137591800Y-114985800D02*
X131622800Y-114985800D01*
X131622800Y-114985800D02*
X127254000Y-110617000D01*
X137562000Y-125652000D02*
X137562000Y-115015600D01*
X137562000Y-115015600D02*
X137591800Y-114985800D01*
X72644000Y-134112000D02*
X72644000Y-124968000D01*
X81153000Y-116459000D02*
X81534000Y-116459000D01*
X81534000Y-116459000D02*
X96520000Y-116459000D01*
X72644000Y-124968000D02*
X81153000Y-116459000D01*
X137562000Y-125652000D02*
X139622000Y-125652000D01*
X139622000Y-125652000D02*
X146939000Y-132969000D01*
X137562000Y-125652000D02*
X132383000Y-125652000D01*
X132383000Y-125652000D02*
X123190000Y-116459000D01*
X123190000Y-116459000D02*
X96520000Y-116459000D01*
X96520000Y-116459000D02*
X91948000Y-121031000D01*
X91948000Y-121031000D02*
X91948000Y-129540000D01*
X91948000Y-129540000D02*
X95740000Y-133332000D01*
X95740000Y-133332000D02*
X109362000Y-133332000D01*
X77279000Y-141922000D02*
X83762000Y-141922000D01*
X73773000Y-138416000D02*
X77279000Y-141922000D01*
X83762000Y-141922000D02*
X86942000Y-141922000D01*
X83762000Y-134222000D02*
X83762000Y-141922000D01*
X83762000Y-141922000D02*
X83762000Y-149632000D01*
X91127600Y-172339000D02*
X91127600Y-169359600D01*
X42926000Y-138684000D02*
X49149000Y-132461000D01*
X42926000Y-160782000D02*
X42926000Y-138684000D01*
X50139600Y-167995600D02*
X42926000Y-160782000D01*
X69138800Y-167995600D02*
X50139600Y-167995600D01*
X70002400Y-167132000D02*
X69138800Y-167995600D01*
X88900000Y-167132000D02*
X70002400Y-167132000D01*
X91127600Y-169359600D02*
X88900000Y-167132000D01*
X91127600Y-172339000D02*
X91127600Y-175074600D01*
X106807000Y-179070000D02*
X109263200Y-176613800D01*
X95123000Y-179070000D02*
X106807000Y-179070000D01*
X91127600Y-175074600D02*
X95123000Y-179070000D01*
X127373400Y-172491400D02*
X127373400Y-176029600D01*
X109263200Y-176700200D02*
X109263200Y-176613800D01*
X109263200Y-176613800D02*
X109263200Y-172339000D01*
X111252000Y-178689000D02*
X109263200Y-176700200D01*
X124460000Y-178689000D02*
X111252000Y-178689000D01*
X127373400Y-176029600D02*
X124460000Y-178689000D01*
X61562000Y-125652000D02*
X61562000Y-114902000D01*
X61562000Y-114902000D02*
X61518800Y-114858800D01*
X52578000Y-112649000D02*
X59309000Y-112649000D01*
X59309000Y-112649000D02*
X61518800Y-114858800D01*
X52578000Y-112649000D02*
X47167800Y-112649000D01*
X47167800Y-112649000D02*
X42067334Y-117749466D01*
X72644000Y-138416000D02*
X73773000Y-138416000D01*
X86942000Y-149632000D02*
X86942000Y-141922000D01*
X86942000Y-141922000D02*
X86942000Y-134222000D01*
X83762000Y-134222000D02*
X86942000Y-134222000D01*
X83762000Y-149632000D02*
X86942000Y-149632000D01*
X61562000Y-125652000D02*
X61562000Y-133952000D01*
X66026000Y-138416000D02*
X72644000Y-138416000D01*
X61562000Y-133952000D02*
X66026000Y-138416000D01*
X49149000Y-132461000D02*
X49149000Y-124831132D01*
X49149000Y-124831132D02*
X42067334Y-117749466D01*
X61562000Y-125652000D02*
X55958000Y-125652000D01*
X55958000Y-125652000D02*
X49149000Y-132461000D01*
D55*
X115570000Y-126390400D02*
X115551600Y-126372000D01*
X115551600Y-126372000D02*
X115362000Y-126372000D01*
D54*
X168275000Y-136304000D02*
X150335000Y-136304000D01*
X150335000Y-136304000D02*
X149504400Y-137134600D01*
X149504400Y-137134600D02*
X133705600Y-137134600D01*
D55*
X99466400Y-126542800D02*
X99562000Y-126447200D01*
X99562000Y-126447200D02*
X99562000Y-126372000D01*
D54*
X109362000Y-122413000D02*
X109362000Y-126372000D01*
X111379000Y-120396000D02*
X109362000Y-122413000D01*
X117221000Y-120396000D02*
X111379000Y-120396000D01*
X133604000Y-136779000D02*
X117221000Y-120396000D01*
X99562000Y-126372000D02*
X109362000Y-126372000D01*
D55*
X83769200Y-126339600D02*
X83762000Y-126346800D01*
X83762000Y-126346800D02*
X83762000Y-126372000D01*
X114350800Y-149250400D02*
X114222400Y-149122000D01*
X114222400Y-149122000D02*
X114162000Y-149122000D01*
X114222400Y-149122000D02*
X114162000Y-149122000D01*
D54*
X168275000Y-141304000D02*
X151812000Y-141304000D01*
X151812000Y-141304000D02*
X151430000Y-140922000D01*
X151430000Y-140922000D02*
X114162000Y-140922000D01*
X151812000Y-141304000D02*
X151430000Y-140922000D01*
X114162000Y-140922000D02*
X109362000Y-140922000D01*
X109362000Y-140922000D02*
X114162000Y-140922000D01*
X114544000Y-141304000D02*
X114162000Y-140922000D01*
X168275000Y-146304000D02*
X152097598Y-146304000D01*
X109362000Y-155407600D02*
X111455200Y-153314400D01*
X111455200Y-153314400D02*
X116583602Y-153314400D01*
X116583602Y-153314400D02*
X125476000Y-144422002D01*
X125476000Y-144422002D02*
X150215600Y-144422002D01*
X150215600Y-144422002D02*
X152097598Y-146304000D01*
X109362000Y-155407600D02*
X109362000Y-157322000D01*
D55*
X109321600Y-157581600D02*
X109362000Y-157541200D01*
X109362000Y-157541200D02*
X109362000Y-157322000D01*
D54*
X104562000Y-157322000D02*
X109362000Y-157322000D01*
D55*
X91942000Y-157372400D02*
X91942000Y-157322000D01*
D53*
X203327000Y-158178500D02*
X203327000Y-163068000D01*
X204787500Y-133223000D02*
X203327000Y-134683500D01*
X203327000Y-134683500D02*
X203327000Y-158178500D01*
X206184500Y-133223000D02*
X204787500Y-133223000D01*
X223407000Y-163879500D02*
X223407000Y-161734500D01*
X220980000Y-166306500D02*
X223407000Y-163879500D01*
X206565500Y-166306500D02*
X220980000Y-166306500D01*
X203327000Y-163068000D02*
X206565500Y-166306500D01*
X223407000Y-161734500D02*
X223407000Y-156356000D01*
X223407000Y-156356000D02*
X223583500Y-156179500D01*
X223583500Y-156179500D02*
X219001000Y-156179500D01*
X219001000Y-156179500D02*
X217551000Y-154729500D01*
X229997000Y-155575000D02*
X229997000Y-155702000D01*
X229997000Y-155702000D02*
X229519500Y-156179500D01*
X229519500Y-156179500D02*
X223583500Y-156179500D01*
D56*
X217551000Y-154729500D02*
X217551000Y-154876500D01*
X223407000Y-156356000D02*
X223583500Y-156179500D01*
X224058500Y-156654500D02*
X223583500Y-156179500D01*
D52*
X220836500Y-146558000D02*
X218520000Y-146558000D01*
D56*
X276092000Y-138329000D02*
X277792000Y-138329000D01*
X279492000Y-154629000D02*
X275492000Y-154629000D01*
X280292000Y-153829000D02*
X279492000Y-154629000D01*
X280292000Y-140829000D02*
X280292000Y-153829000D01*
X277792000Y-138329000D02*
X280292000Y-140829000D01*
X276092000Y-138329000D02*
X273392000Y-138329000D01*
X270724000Y-135661000D02*
X270724000Y-132461000D01*
X273392000Y-138329000D02*
X270724000Y-135661000D01*
D52*
X261592000Y-132529000D02*
X265656000Y-132529000D01*
X265656000Y-132529000D02*
X265724000Y-132461000D01*
X258442000Y-132529000D02*
X261592000Y-132529000D01*
D56*
X271719500Y-165931500D02*
X271719500Y-163551500D01*
D57*
X274492000Y-166029000D02*
X275192000Y-166029000D01*
X275692000Y-161029000D02*
X274492000Y-161029000D01*
X275992000Y-161329000D02*
X275692000Y-161029000D01*
X275992000Y-165229000D02*
X275992000Y-161329000D01*
X275192000Y-166029000D02*
X275992000Y-165229000D01*
D52*
X231394000Y-140081000D02*
X229425500Y-140081000D01*
X208597500Y-148463000D02*
X206184500Y-148463000D01*
X216154000Y-140906500D02*
X208597500Y-148463000D01*
X228600000Y-140906500D02*
X216154000Y-140906500D01*
X229425500Y-140081000D02*
X228600000Y-140906500D01*
X206184500Y-145923000D02*
X209232500Y-145923000D01*
X228917500Y-138811000D02*
X231394000Y-138811000D01*
X228219000Y-139509500D02*
X228917500Y-138811000D01*
X215646000Y-139509500D02*
X228219000Y-139509500D01*
X209232500Y-145923000D02*
X215646000Y-139509500D01*
X206184500Y-143383000D02*
X209232500Y-143383000D01*
X214439500Y-138176000D02*
X221441000Y-138176000D01*
X209232500Y-143383000D02*
X214439500Y-138176000D01*
X221441000Y-138176000D02*
X221996000Y-137621000D01*
X221996000Y-137621000D02*
X231314000Y-137621000D01*
X231314000Y-137621000D02*
X231394000Y-137541000D01*
X206184500Y-140843000D02*
X208280000Y-140843000D01*
X212835500Y-136287500D02*
X218376500Y-136287500D01*
X208280000Y-140843000D02*
X212835500Y-136287500D01*
X218376500Y-136287500D02*
X231377500Y-136287500D01*
X231377500Y-136287500D02*
X231394000Y-136271000D01*
D53*
X268685000Y-144145000D02*
X268685000Y-145222000D01*
X268685000Y-145222000D02*
X270792000Y-147329000D01*
X275492000Y-149629000D02*
X273092000Y-149629000D01*
X273092000Y-149629000D02*
X270792000Y-147329000D01*
D52*
X241554000Y-138811000D02*
X243174000Y-138811000D01*
X243174000Y-138811000D02*
X243192000Y-138829000D01*
D53*
X252412500Y-150335000D02*
X252412500Y-144949500D01*
X252412500Y-144949500D02*
X252392000Y-144929000D01*
D52*
X246316500Y-134957500D02*
X248920500Y-134957500D01*
X251524000Y-137561000D02*
X253492000Y-137561000D01*
X248920500Y-134957500D02*
X251524000Y-137561000D01*
D57*
X271742000Y-161029000D02*
X270992000Y-161029000D01*
X269492000Y-152729000D02*
X267692000Y-150929000D01*
X269492000Y-159529000D02*
X269492000Y-152729000D01*
X270992000Y-161029000D02*
X269492000Y-159529000D01*
D52*
X244592000Y-134979000D02*
X246295000Y-134979000D01*
X246295000Y-134979000D02*
X246316500Y-134957500D01*
X241554000Y-135001000D02*
X244570000Y-135001000D01*
X244570000Y-135001000D02*
X244592000Y-134979000D01*
D53*
X253492000Y-137561000D02*
X253893000Y-137561000D01*
X253893000Y-137561000D02*
X257746500Y-141414500D01*
X253004000Y-137561000D02*
X253492000Y-137561000D01*
D52*
X246273000Y-135001000D02*
X246316500Y-134957500D01*
D53*
X261714000Y-161861500D02*
X262128000Y-161861500D01*
X262128000Y-161861500D02*
X265303000Y-158686500D01*
X265303000Y-158686500D02*
X265303000Y-154813000D01*
X252412500Y-149161500D02*
X252412500Y-150335000D01*
X245237000Y-155575000D02*
X245237000Y-153797000D01*
X248699000Y-150335000D02*
X252412500Y-150335000D01*
X245237000Y-153797000D02*
X248699000Y-150335000D01*
X276092000Y-133249000D02*
X276092000Y-129929000D01*
X279992000Y-133249000D02*
X280212000Y-133249000D01*
X279992000Y-133229000D02*
X279992000Y-133249000D01*
X252992000Y-128829000D02*
X251392000Y-130429000D01*
X255792000Y-157929000D02*
X255819000Y-157902000D01*
X255819000Y-157902000D02*
X255792000Y-157929000D01*
X255792000Y-157929000D02*
X255792000Y-157875000D01*
D52*
X253242000Y-134429000D02*
X251392000Y-134429000D01*
D57*
X273192000Y-162929000D02*
X273192000Y-158329000D01*
X273192000Y-162929000D02*
X273992000Y-163729000D01*
D53*
X280792000Y-158329000D02*
X273192000Y-158329000D01*
X282792000Y-156329000D02*
X280792000Y-158329000D01*
X282792000Y-135829000D02*
X282792000Y-156329000D01*
X280212000Y-133249000D02*
X282792000Y-135829000D01*
D57*
X274492000Y-163729000D02*
X273992000Y-163729000D01*
X274492000Y-163729000D02*
X273892000Y-163729000D01*
D56*
X246316500Y-138729000D02*
X247692000Y-138729000D01*
X247692000Y-138729000D02*
X249792000Y-140829000D01*
X246316500Y-139783500D02*
X246316500Y-138729000D01*
X246316500Y-138729000D02*
X246316500Y-137457500D01*
D52*
X243492000Y-140079000D02*
X246021000Y-140079000D01*
X246021000Y-140079000D02*
X246316500Y-139783500D01*
X244592000Y-136479000D02*
X244592000Y-137029000D01*
X244592000Y-137029000D02*
X245020500Y-137457500D01*
X245020500Y-137457500D02*
X246316500Y-137457500D01*
X241554000Y-140081000D02*
X243490000Y-140081000D01*
X243490000Y-140081000D02*
X243492000Y-140079000D01*
D57*
X265379200Y-144145000D02*
X265985000Y-144145000D01*
X271742000Y-168729000D02*
X272592000Y-168729000D01*
X272592000Y-168729000D02*
X273092000Y-168229000D01*
X273092000Y-168229000D02*
X273092000Y-164529000D01*
X273092000Y-164529000D02*
X273892000Y-163729000D01*
D53*
X265985000Y-144145000D02*
X265379200Y-144145000D01*
X265379200Y-144145000D02*
X264007600Y-145516600D01*
X242697000Y-155575000D02*
X242697000Y-151955500D01*
X242697000Y-151955500D02*
X242760500Y-151892000D01*
D56*
X271719500Y-168631500D02*
X272084000Y-168631500D01*
D53*
X252412500Y-155735000D02*
X253652000Y-155735000D01*
X256714000Y-158797000D02*
X256714000Y-161861500D01*
X253652000Y-155735000D02*
X255792000Y-157875000D01*
X255792000Y-157875000D02*
X256714000Y-158797000D01*
X252412500Y-155735000D02*
X260096000Y-155735000D01*
X242697000Y-155575000D02*
X242697000Y-156527500D01*
X242697000Y-156527500D02*
X244665500Y-158496000D01*
X244665500Y-158496000D02*
X249651500Y-158496000D01*
X249651500Y-158496000D02*
X252412500Y-155735000D01*
D52*
X246019000Y-140081000D02*
X246316500Y-139783500D01*
D57*
X274492000Y-168729000D02*
X274492000Y-169929000D01*
X270192000Y-170629000D02*
X264252750Y-164689750D01*
X273792000Y-170629000D02*
X270192000Y-170629000D01*
X274492000Y-169929000D02*
X273792000Y-170629000D01*
D52*
X243492000Y-141579000D02*
X243642000Y-141579000D01*
X243642000Y-141579000D02*
X244346500Y-142283500D01*
X244346500Y-142283500D02*
X246316500Y-142283500D01*
X241554000Y-141351000D02*
X241914000Y-141351000D01*
X241914000Y-141351000D02*
X242142000Y-141579000D01*
X242142000Y-141579000D02*
X243492000Y-141579000D01*
D53*
X253492000Y-140061000D02*
X253492000Y-140208000D01*
X253492000Y-140208000D02*
X260096000Y-146812000D01*
X260096000Y-146812000D02*
X260096000Y-150335000D01*
X248539000Y-142283500D02*
X251269500Y-142283500D01*
X251269500Y-142283500D02*
X253492000Y-140061000D01*
X251714000Y-161861500D02*
X251714000Y-162179000D01*
X251714000Y-162179000D02*
X254889000Y-165354000D01*
X264508000Y-150335000D02*
X260096000Y-150335000D01*
X267652500Y-153479500D02*
X264508000Y-150335000D01*
X267652500Y-161290000D02*
X267652500Y-153479500D01*
X263588500Y-165354000D02*
X264252750Y-164689750D01*
X264252750Y-164689750D02*
X267652500Y-161290000D01*
X254889000Y-165354000D02*
X263588500Y-165354000D01*
X240157000Y-155575000D02*
X240157000Y-157543500D01*
X244475000Y-161861500D02*
X251714000Y-161861500D01*
X240157000Y-157543500D02*
X244475000Y-161861500D01*
X246316500Y-142283500D02*
X248539000Y-142283500D01*
D52*
X206184500Y-151003000D02*
X208026000Y-151003000D01*
X230441500Y-141351000D02*
X231394000Y-141351000D01*
X229616000Y-142176500D02*
X230441500Y-141351000D01*
X216852500Y-142176500D02*
X229616000Y-142176500D01*
X208026000Y-151003000D02*
X216852500Y-142176500D01*
X241554000Y-136271000D02*
X243150000Y-136271000D01*
X243150000Y-136271000D02*
X243192000Y-136229000D01*
X241554000Y-137541000D02*
X243180000Y-137541000D01*
X243180000Y-137541000D02*
X243192000Y-137529000D01*
X255742000Y-134429000D02*
X255742000Y-132529000D01*
X241554000Y-133731000D02*
X244190000Y-133731000D01*
X245392000Y-132529000D02*
X255742000Y-132529000D01*
X244190000Y-133731000D02*
X245392000Y-132529000D01*
D56*
G36*
X242884010Y-163452490D02*
X243613962Y-163940229D01*
X244475000Y-164111500D01*
X249219287Y-164111500D01*
X249239207Y-164217367D01*
X249567724Y-164727896D01*
X250068983Y-165070392D01*
X250664000Y-165190886D01*
X251543906Y-165190886D01*
X253298010Y-166944990D01*
X254027962Y-167432729D01*
X254889000Y-167604000D01*
X263588500Y-167604000D01*
X264449538Y-167432729D01*
X264492289Y-167404163D01*
X267667126Y-170579000D01*
X241048010Y-170579000D01*
X241071988Y-161640468D01*
X242884010Y-163452490D01*
X242884010Y-163452490D01*
G37*
X242884010Y-163452490D02*
X243613962Y-163940229D01*
X244475000Y-164111500D01*
X249219287Y-164111500D01*
X249239207Y-164217367D01*
X249567724Y-164727896D01*
X250068983Y-165070392D01*
X250664000Y-165190886D01*
X251543906Y-165190886D01*
X253298010Y-166944990D01*
X254027962Y-167432729D01*
X254889000Y-167604000D01*
X263588500Y-167604000D01*
X264449538Y-167432729D01*
X264492289Y-167404163D01*
X267667126Y-170579000D01*
X241048010Y-170579000D01*
X241071988Y-161640468D01*
X242884010Y-163452490D01*
G36*
X271792000Y-168679000D02*
X271812000Y-168679000D01*
X271812000Y-168779000D01*
X271792000Y-168779000D01*
X271792000Y-168799000D01*
X271692000Y-168799000D01*
X271692000Y-168779000D01*
X271672000Y-168779000D01*
X271672000Y-168679000D01*
X271692000Y-168679000D01*
X271692000Y-168659000D01*
X271792000Y-168659000D01*
X271792000Y-168679000D01*
X271792000Y-168679000D01*
G37*
X271792000Y-168679000D02*
X271812000Y-168679000D01*
X271812000Y-168779000D01*
X271792000Y-168779000D01*
X271792000Y-168799000D01*
X271692000Y-168799000D01*
X271692000Y-168779000D01*
X271672000Y-168779000D01*
X271672000Y-168679000D01*
X271692000Y-168679000D01*
X271692000Y-168659000D01*
X271792000Y-168659000D01*
X271792000Y-168679000D01*
G36*
X276742756Y-125259935D02*
X276741246Y-126990472D01*
X277402099Y-128589858D01*
X278624705Y-129814601D01*
X280222935Y-130478244D01*
X281953472Y-130479754D01*
X283552858Y-129818901D01*
X284542000Y-128831485D01*
X284542000Y-165427822D01*
X283559295Y-164443399D01*
X281961065Y-163779756D01*
X280230528Y-163778246D01*
X278631142Y-164439099D01*
X277717754Y-165350893D01*
X277742000Y-165229000D01*
X277742000Y-161329000D01*
X277608789Y-160659304D01*
X277229437Y-160091563D01*
X276929437Y-159791563D01*
X276370509Y-159418100D01*
X276238276Y-159212604D01*
X275737017Y-158870108D01*
X275142000Y-158749614D01*
X273842000Y-158749614D01*
X273286133Y-158854207D01*
X273120105Y-158961043D01*
X272987017Y-158870108D01*
X272392000Y-158749614D01*
X271242000Y-158749614D01*
X271242000Y-152729000D01*
X271108789Y-152059304D01*
X270729437Y-151491563D01*
X269637108Y-150399234D01*
X269388506Y-149797571D01*
X268826388Y-149234471D01*
X268091570Y-148929348D01*
X267295921Y-148928654D01*
X266579608Y-149224628D01*
X266098990Y-148744010D01*
X265369038Y-148256271D01*
X264508000Y-148085000D01*
X262346000Y-148085000D01*
X262346000Y-146812000D01*
X262174729Y-145950962D01*
X262032439Y-145738010D01*
X261686990Y-145221009D01*
X261035981Y-144570000D01*
X263735000Y-144570000D01*
X263735000Y-145093368D01*
X263963361Y-145644681D01*
X264385318Y-146066638D01*
X264936631Y-146295000D01*
X265560000Y-146295000D01*
X265935000Y-145920000D01*
X265935000Y-144195000D01*
X264110000Y-144195000D01*
X263735000Y-144570000D01*
X261035981Y-144570000D01*
X259662613Y-143196632D01*
X263735000Y-143196632D01*
X263735000Y-143720000D01*
X264110000Y-144095000D01*
X265935000Y-144095000D01*
X265935000Y-142370000D01*
X265560000Y-141995000D01*
X264936631Y-141995000D01*
X264385318Y-142223362D01*
X263963361Y-142645319D01*
X263735000Y-143196632D01*
X259662613Y-143196632D01*
X259391155Y-142925175D01*
X259825229Y-142275538D01*
X259996500Y-141414500D01*
X259825229Y-140553462D01*
X259337490Y-139823510D01*
X256097366Y-136583386D01*
X256492000Y-136583386D01*
X257047867Y-136478793D01*
X257558396Y-136150276D01*
X257900892Y-135649017D01*
X258021386Y-135054000D01*
X258021386Y-134708386D01*
X259192000Y-134708386D01*
X259747867Y-134603793D01*
X259814651Y-134560819D01*
X260146983Y-134787892D01*
X260742000Y-134908386D01*
X262442000Y-134908386D01*
X262997867Y-134803793D01*
X263219691Y-134661053D01*
X263378983Y-134769892D01*
X263974000Y-134890386D01*
X267474000Y-134890386D01*
X268029867Y-134785793D01*
X268221645Y-134662387D01*
X268378983Y-134769892D01*
X268724000Y-134839760D01*
X268724000Y-135660995D01*
X268723999Y-135661000D01*
X268876241Y-136426367D01*
X269309786Y-137075214D01*
X271977784Y-139743211D01*
X271977786Y-139743214D01*
X272558150Y-140131000D01*
X272626633Y-140176759D01*
X273392000Y-140329001D01*
X273392005Y-140329000D01*
X274268082Y-140329000D01*
X274646983Y-140587892D01*
X275242000Y-140708386D01*
X276942000Y-140708386D01*
X277279461Y-140644889D01*
X278292000Y-141657427D01*
X278292000Y-143191642D01*
X278080478Y-142861233D01*
X277264037Y-142292241D01*
X276292000Y-142079000D01*
X275542000Y-142079000D01*
X275542000Y-144579000D01*
X275562000Y-144579000D01*
X275562000Y-144679000D01*
X275542000Y-144679000D01*
X275542000Y-144699000D01*
X275442000Y-144699000D01*
X275442000Y-144679000D01*
X272567575Y-144679000D01*
X272231700Y-145077216D01*
X272366973Y-145558649D01*
X272657593Y-146012613D01*
X270964386Y-144319406D01*
X270964386Y-144180784D01*
X272231700Y-144180784D01*
X272567575Y-144579000D01*
X275442000Y-144579000D01*
X275442000Y-142079000D01*
X274692000Y-142079000D01*
X273719963Y-142292241D01*
X272903522Y-142861233D01*
X272366973Y-143699351D01*
X272231700Y-144180784D01*
X270964386Y-144180784D01*
X270964386Y-143495000D01*
X270859793Y-142939133D01*
X270531276Y-142428604D01*
X270030017Y-142086108D01*
X269435000Y-141965614D01*
X269040001Y-141965614D01*
X268685000Y-141895000D01*
X268329999Y-141965614D01*
X267935000Y-141965614D01*
X267379133Y-142070207D01*
X267314830Y-142111585D01*
X267033369Y-141995000D01*
X266410000Y-141995000D01*
X266035000Y-142370000D01*
X266035000Y-144095000D01*
X266055000Y-144095000D01*
X266055000Y-144195000D01*
X266035000Y-144195000D01*
X266035000Y-145920000D01*
X266410000Y-146295000D01*
X266747900Y-146295000D01*
X267094010Y-146812990D01*
X271501010Y-151219990D01*
X272230962Y-151707729D01*
X273092000Y-151879000D01*
X273543026Y-151879000D01*
X273701506Y-151984893D01*
X274026881Y-152049614D01*
X273692000Y-152049614D01*
X273136133Y-152154207D01*
X272625604Y-152482724D01*
X272283108Y-152983983D01*
X272162614Y-153579000D01*
X272162614Y-155679000D01*
X272267207Y-156234867D01*
X272595724Y-156745396D01*
X273096983Y-157087892D01*
X273692000Y-157208386D01*
X277292000Y-157208386D01*
X277847867Y-157103793D01*
X278358396Y-156775276D01*
X278458342Y-156629000D01*
X279491995Y-156629000D01*
X279492000Y-156629001D01*
X280257367Y-156476759D01*
X280906214Y-156043214D01*
X281706211Y-155243216D01*
X281706214Y-155243214D01*
X282139759Y-154594367D01*
X282175750Y-154413430D01*
X282292001Y-153829000D01*
X282292000Y-153828995D01*
X282292000Y-140829005D01*
X282292001Y-140829000D01*
X282139759Y-140063633D01*
X282097725Y-140000724D01*
X281706214Y-139414786D01*
X281706211Y-139414784D01*
X279206214Y-136914786D01*
X278557367Y-136481241D01*
X278358223Y-136441629D01*
X278488039Y-135789000D01*
X278309156Y-134889694D01*
X278056258Y-134511205D01*
X278388226Y-133748855D01*
X278404720Y-133665922D01*
X278066367Y-133299000D01*
X276142000Y-133299000D01*
X276142000Y-133319000D01*
X276042000Y-133319000D01*
X276042000Y-133299000D01*
X276022000Y-133299000D01*
X276022000Y-133199000D01*
X276042000Y-133199000D01*
X276042000Y-131274530D01*
X276142000Y-131274530D01*
X276142000Y-133199000D01*
X278066367Y-133199000D01*
X278404720Y-132832078D01*
X278388226Y-132749145D01*
X278022150Y-131908467D01*
X277362226Y-131271873D01*
X276508922Y-130936278D01*
X276142000Y-131274530D01*
X276042000Y-131274530D01*
X275675078Y-130936278D01*
X274821774Y-131271873D01*
X274161850Y-131908467D01*
X274003386Y-132272373D01*
X274003386Y-131561000D01*
X273898793Y-131005133D01*
X273570276Y-130494604D01*
X273069017Y-130152108D01*
X272474000Y-130031614D01*
X268974000Y-130031614D01*
X268418133Y-130136207D01*
X268226355Y-130259613D01*
X268069017Y-130152108D01*
X267474000Y-130031614D01*
X263974000Y-130031614D01*
X263418133Y-130136207D01*
X263120937Y-130327448D01*
X263037017Y-130270108D01*
X262442000Y-130149614D01*
X260742000Y-130149614D01*
X260186133Y-130254207D01*
X259817862Y-130491183D01*
X259787017Y-130470108D01*
X259192000Y-130349614D01*
X257692000Y-130349614D01*
X257136133Y-130454207D01*
X257098854Y-130478196D01*
X257087017Y-130470108D01*
X256492000Y-130349614D01*
X254992000Y-130349614D01*
X254436133Y-130454207D01*
X254086795Y-130679000D01*
X245392005Y-130679000D01*
X245392000Y-130678999D01*
X244720328Y-130812604D01*
X244684036Y-130819823D01*
X244083852Y-131220852D01*
X244083850Y-131220855D01*
X243566649Y-131738056D01*
X243550293Y-131651133D01*
X243221776Y-131140604D01*
X242720517Y-130798108D01*
X242125500Y-130677614D01*
X241155046Y-130677614D01*
X241173820Y-123679000D01*
X277399217Y-123679000D01*
X276742756Y-125259935D01*
X276742756Y-125259935D01*
G37*
X276742756Y-125259935D02*
X276741246Y-126990472D01*
X277402099Y-128589858D01*
X278624705Y-129814601D01*
X280222935Y-130478244D01*
X281953472Y-130479754D01*
X283552858Y-129818901D01*
X284542000Y-128831485D01*
X284542000Y-165427822D01*
X283559295Y-164443399D01*
X281961065Y-163779756D01*
X280230528Y-163778246D01*
X278631142Y-164439099D01*
X277717754Y-165350893D01*
X277742000Y-165229000D01*
X277742000Y-161329000D01*
X277608789Y-160659304D01*
X277229437Y-160091563D01*
X276929437Y-159791563D01*
X276370509Y-159418100D01*
X276238276Y-159212604D01*
X275737017Y-158870108D01*
X275142000Y-158749614D01*
X273842000Y-158749614D01*
X273286133Y-158854207D01*
X273120105Y-158961043D01*
X272987017Y-158870108D01*
X272392000Y-158749614D01*
X271242000Y-158749614D01*
X271242000Y-152729000D01*
X271108789Y-152059304D01*
X270729437Y-151491563D01*
X269637108Y-150399234D01*
X269388506Y-149797571D01*
X268826388Y-149234471D01*
X268091570Y-148929348D01*
X267295921Y-148928654D01*
X266579608Y-149224628D01*
X266098990Y-148744010D01*
X265369038Y-148256271D01*
X264508000Y-148085000D01*
X262346000Y-148085000D01*
X262346000Y-146812000D01*
X262174729Y-145950962D01*
X262032439Y-145738010D01*
X261686990Y-145221009D01*
X261035981Y-144570000D01*
X263735000Y-144570000D01*
X263735000Y-145093368D01*
X263963361Y-145644681D01*
X264385318Y-146066638D01*
X264936631Y-146295000D01*
X265560000Y-146295000D01*
X265935000Y-145920000D01*
X265935000Y-144195000D01*
X264110000Y-144195000D01*
X263735000Y-144570000D01*
X261035981Y-144570000D01*
X259662613Y-143196632D01*
X263735000Y-143196632D01*
X263735000Y-143720000D01*
X264110000Y-144095000D01*
X265935000Y-144095000D01*
X265935000Y-142370000D01*
X265560000Y-141995000D01*
X264936631Y-141995000D01*
X264385318Y-142223362D01*
X263963361Y-142645319D01*
X263735000Y-143196632D01*
X259662613Y-143196632D01*
X259391155Y-142925175D01*
X259825229Y-142275538D01*
X259996500Y-141414500D01*
X259825229Y-140553462D01*
X259337490Y-139823510D01*
X256097366Y-136583386D01*
X256492000Y-136583386D01*
X257047867Y-136478793D01*
X257558396Y-136150276D01*
X257900892Y-135649017D01*
X258021386Y-135054000D01*
X258021386Y-134708386D01*
X259192000Y-134708386D01*
X259747867Y-134603793D01*
X259814651Y-134560819D01*
X260146983Y-134787892D01*
X260742000Y-134908386D01*
X262442000Y-134908386D01*
X262997867Y-134803793D01*
X263219691Y-134661053D01*
X263378983Y-134769892D01*
X263974000Y-134890386D01*
X267474000Y-134890386D01*
X268029867Y-134785793D01*
X268221645Y-134662387D01*
X268378983Y-134769892D01*
X268724000Y-134839760D01*
X268724000Y-135660995D01*
X268723999Y-135661000D01*
X268876241Y-136426367D01*
X269309786Y-137075214D01*
X271977784Y-139743211D01*
X271977786Y-139743214D01*
X272558150Y-140131000D01*
X272626633Y-140176759D01*
X273392000Y-140329001D01*
X273392005Y-140329000D01*
X274268082Y-140329000D01*
X274646983Y-140587892D01*
X275242000Y-140708386D01*
X276942000Y-140708386D01*
X277279461Y-140644889D01*
X278292000Y-141657427D01*
X278292000Y-143191642D01*
X278080478Y-142861233D01*
X277264037Y-142292241D01*
X276292000Y-142079000D01*
X275542000Y-142079000D01*
X275542000Y-144579000D01*
X275562000Y-144579000D01*
X275562000Y-144679000D01*
X275542000Y-144679000D01*
X275542000Y-144699000D01*
X275442000Y-144699000D01*
X275442000Y-144679000D01*
X272567575Y-144679000D01*
X272231700Y-145077216D01*
X272366973Y-145558649D01*
X272657593Y-146012613D01*
X270964386Y-144319406D01*
X270964386Y-144180784D01*
X272231700Y-144180784D01*
X272567575Y-144579000D01*
X275442000Y-144579000D01*
X275442000Y-142079000D01*
X274692000Y-142079000D01*
X273719963Y-142292241D01*
X272903522Y-142861233D01*
X272366973Y-143699351D01*
X272231700Y-144180784D01*
X270964386Y-144180784D01*
X270964386Y-143495000D01*
X270859793Y-142939133D01*
X270531276Y-142428604D01*
X270030017Y-142086108D01*
X269435000Y-141965614D01*
X269040001Y-141965614D01*
X268685000Y-141895000D01*
X268329999Y-141965614D01*
X267935000Y-141965614D01*
X267379133Y-142070207D01*
X267314830Y-142111585D01*
X267033369Y-141995000D01*
X266410000Y-141995000D01*
X266035000Y-142370000D01*
X266035000Y-144095000D01*
X266055000Y-144095000D01*
X266055000Y-144195000D01*
X266035000Y-144195000D01*
X266035000Y-145920000D01*
X266410000Y-146295000D01*
X266747900Y-146295000D01*
X267094010Y-146812990D01*
X271501010Y-151219990D01*
X272230962Y-151707729D01*
X273092000Y-151879000D01*
X273543026Y-151879000D01*
X273701506Y-151984893D01*
X274026881Y-152049614D01*
X273692000Y-152049614D01*
X273136133Y-152154207D01*
X272625604Y-152482724D01*
X272283108Y-152983983D01*
X272162614Y-153579000D01*
X272162614Y-155679000D01*
X272267207Y-156234867D01*
X272595724Y-156745396D01*
X273096983Y-157087892D01*
X273692000Y-157208386D01*
X277292000Y-157208386D01*
X277847867Y-157103793D01*
X278358396Y-156775276D01*
X278458342Y-156629000D01*
X279491995Y-156629000D01*
X279492000Y-156629001D01*
X280257367Y-156476759D01*
X280906214Y-156043214D01*
X281706211Y-155243216D01*
X281706214Y-155243214D01*
X282139759Y-154594367D01*
X282175750Y-154413430D01*
X282292001Y-153829000D01*
X282292000Y-153828995D01*
X282292000Y-140829005D01*
X282292001Y-140829000D01*
X282139759Y-140063633D01*
X282097725Y-140000724D01*
X281706214Y-139414786D01*
X281706211Y-139414784D01*
X279206214Y-136914786D01*
X278557367Y-136481241D01*
X278358223Y-136441629D01*
X278488039Y-135789000D01*
X278309156Y-134889694D01*
X278056258Y-134511205D01*
X278388226Y-133748855D01*
X278404720Y-133665922D01*
X278066367Y-133299000D01*
X276142000Y-133299000D01*
X276142000Y-133319000D01*
X276042000Y-133319000D01*
X276042000Y-133299000D01*
X276022000Y-133299000D01*
X276022000Y-133199000D01*
X276042000Y-133199000D01*
X276042000Y-131274530D01*
X276142000Y-131274530D01*
X276142000Y-133199000D01*
X278066367Y-133199000D01*
X278404720Y-132832078D01*
X278388226Y-132749145D01*
X278022150Y-131908467D01*
X277362226Y-131271873D01*
X276508922Y-130936278D01*
X276142000Y-131274530D01*
X276042000Y-131274530D01*
X275675078Y-130936278D01*
X274821774Y-131271873D01*
X274161850Y-131908467D01*
X274003386Y-132272373D01*
X274003386Y-131561000D01*
X273898793Y-131005133D01*
X273570276Y-130494604D01*
X273069017Y-130152108D01*
X272474000Y-130031614D01*
X268974000Y-130031614D01*
X268418133Y-130136207D01*
X268226355Y-130259613D01*
X268069017Y-130152108D01*
X267474000Y-130031614D01*
X263974000Y-130031614D01*
X263418133Y-130136207D01*
X263120937Y-130327448D01*
X263037017Y-130270108D01*
X262442000Y-130149614D01*
X260742000Y-130149614D01*
X260186133Y-130254207D01*
X259817862Y-130491183D01*
X259787017Y-130470108D01*
X259192000Y-130349614D01*
X257692000Y-130349614D01*
X257136133Y-130454207D01*
X257098854Y-130478196D01*
X257087017Y-130470108D01*
X256492000Y-130349614D01*
X254992000Y-130349614D01*
X254436133Y-130454207D01*
X254086795Y-130679000D01*
X245392005Y-130679000D01*
X245392000Y-130678999D01*
X244720328Y-130812604D01*
X244684036Y-130819823D01*
X244083852Y-131220852D01*
X244083850Y-131220855D01*
X243566649Y-131738056D01*
X243550293Y-131651133D01*
X243221776Y-131140604D01*
X242720517Y-130798108D01*
X242125500Y-130677614D01*
X241155046Y-130677614D01*
X241173820Y-123679000D01*
X277399217Y-123679000D01*
X276742756Y-125259935D01*
G36*
X257846000Y-147743981D02*
X257846000Y-148192980D01*
X257766614Y-148585000D01*
X257766614Y-152085000D01*
X257871207Y-152640867D01*
X258124768Y-153034912D01*
X258024362Y-153135318D01*
X257796000Y-153686631D01*
X257796000Y-155310000D01*
X258171000Y-155685000D01*
X260046000Y-155685000D01*
X260046000Y-155665000D01*
X260146000Y-155665000D01*
X260146000Y-155685000D01*
X262021000Y-155685000D01*
X262396000Y-155310000D01*
X262396000Y-153686631D01*
X262167638Y-153135318D01*
X262064363Y-153032043D01*
X262304892Y-152680017D01*
X262324133Y-152585000D01*
X263576020Y-152585000D01*
X264012349Y-153021330D01*
X263712010Y-153222010D01*
X263224271Y-153951962D01*
X263053000Y-154813000D01*
X263053000Y-157754520D01*
X262211677Y-158595843D01*
X261957113Y-158545207D01*
X262167638Y-158334682D01*
X262396000Y-157783369D01*
X262396000Y-156160000D01*
X262021000Y-155785000D01*
X260146000Y-155785000D01*
X260146000Y-158610000D01*
X260431715Y-158895715D01*
X259910878Y-159243727D01*
X259358107Y-160071006D01*
X259210026Y-160815463D01*
X259050759Y-160089463D01*
X258481767Y-159273022D01*
X257643649Y-158736473D01*
X257162216Y-158601200D01*
X256764000Y-158937075D01*
X256764000Y-161811500D01*
X256784000Y-161811500D01*
X256784000Y-161911500D01*
X256764000Y-161911500D01*
X256764000Y-161931500D01*
X256664000Y-161931500D01*
X256664000Y-161911500D01*
X256644000Y-161911500D01*
X256644000Y-161811500D01*
X256664000Y-161811500D01*
X256664000Y-158937075D01*
X256265784Y-158601200D01*
X255784351Y-158736473D01*
X254946233Y-159273022D01*
X254377241Y-160089463D01*
X254293386Y-160471707D01*
X254293386Y-160061500D01*
X254188793Y-159505633D01*
X253860276Y-158995104D01*
X253719196Y-158898708D01*
X254062181Y-158756639D01*
X254484138Y-158334682D01*
X254712500Y-157783369D01*
X254712500Y-156160000D01*
X257796000Y-156160000D01*
X257796000Y-157783369D01*
X258024362Y-158334682D01*
X258446319Y-158756639D01*
X258997632Y-158985000D01*
X259671000Y-158985000D01*
X260046000Y-158610000D01*
X260046000Y-155785000D01*
X258171000Y-155785000D01*
X257796000Y-156160000D01*
X254712500Y-156160000D01*
X254337500Y-155785000D01*
X252462500Y-155785000D01*
X252462500Y-155805000D01*
X252362500Y-155805000D01*
X252362500Y-155785000D01*
X250487500Y-155785000D01*
X250112500Y-156160000D01*
X250112500Y-157783369D01*
X250340862Y-158334682D01*
X250558201Y-158552021D01*
X250108133Y-158636707D01*
X249597604Y-158965224D01*
X249255108Y-159466483D01*
X249225741Y-159611500D01*
X245406980Y-159611500D01*
X243489475Y-157693995D01*
X243944395Y-157514869D01*
X243969638Y-157498003D01*
X244785086Y-157836606D01*
X245684966Y-157837392D01*
X246516646Y-157493748D01*
X247153512Y-156857993D01*
X247498606Y-156026914D01*
X247499392Y-155127034D01*
X247487000Y-155097043D01*
X247487000Y-154728980D01*
X249630981Y-152585000D01*
X250177195Y-152585000D01*
X250187707Y-152640867D01*
X250441268Y-153034912D01*
X250340862Y-153135318D01*
X250112500Y-153686631D01*
X250112500Y-155310000D01*
X250487500Y-155685000D01*
X252362500Y-155685000D01*
X252362500Y-155665000D01*
X252462500Y-155665000D01*
X252462500Y-155685000D01*
X254337500Y-155685000D01*
X254712500Y-155310000D01*
X254712500Y-153686631D01*
X254484138Y-153135318D01*
X254380863Y-153032043D01*
X254621392Y-152680017D01*
X254741886Y-152085000D01*
X254741886Y-148585000D01*
X254662500Y-148163097D01*
X254662500Y-144949500D01*
X254565905Y-144463886D01*
X257846000Y-147743981D01*
X257846000Y-147743981D01*
G37*
X257846000Y-147743981D02*
X257846000Y-148192980D01*
X257766614Y-148585000D01*
X257766614Y-152085000D01*
X257871207Y-152640867D01*
X258124768Y-153034912D01*
X258024362Y-153135318D01*
X257796000Y-153686631D01*
X257796000Y-155310000D01*
X258171000Y-155685000D01*
X260046000Y-155685000D01*
X260046000Y-155665000D01*
X260146000Y-155665000D01*
X260146000Y-155685000D01*
X262021000Y-155685000D01*
X262396000Y-155310000D01*
X262396000Y-153686631D01*
X262167638Y-153135318D01*
X262064363Y-153032043D01*
X262304892Y-152680017D01*
X262324133Y-152585000D01*
X263576020Y-152585000D01*
X264012349Y-153021330D01*
X263712010Y-153222010D01*
X263224271Y-153951962D01*
X263053000Y-154813000D01*
X263053000Y-157754520D01*
X262211677Y-158595843D01*
X261957113Y-158545207D01*
X262167638Y-158334682D01*
X262396000Y-157783369D01*
X262396000Y-156160000D01*
X262021000Y-155785000D01*
X260146000Y-155785000D01*
X260146000Y-158610000D01*
X260431715Y-158895715D01*
X259910878Y-159243727D01*
X259358107Y-160071006D01*
X259210026Y-160815463D01*
X259050759Y-160089463D01*
X258481767Y-159273022D01*
X257643649Y-158736473D01*
X257162216Y-158601200D01*
X256764000Y-158937075D01*
X256764000Y-161811500D01*
X256784000Y-161811500D01*
X256784000Y-161911500D01*
X256764000Y-161911500D01*
X256764000Y-161931500D01*
X256664000Y-161931500D01*
X256664000Y-161911500D01*
X256644000Y-161911500D01*
X256644000Y-161811500D01*
X256664000Y-161811500D01*
X256664000Y-158937075D01*
X256265784Y-158601200D01*
X255784351Y-158736473D01*
X254946233Y-159273022D01*
X254377241Y-160089463D01*
X254293386Y-160471707D01*
X254293386Y-160061500D01*
X254188793Y-159505633D01*
X253860276Y-158995104D01*
X253719196Y-158898708D01*
X254062181Y-158756639D01*
X254484138Y-158334682D01*
X254712500Y-157783369D01*
X254712500Y-156160000D01*
X257796000Y-156160000D01*
X257796000Y-157783369D01*
X258024362Y-158334682D01*
X258446319Y-158756639D01*
X258997632Y-158985000D01*
X259671000Y-158985000D01*
X260046000Y-158610000D01*
X260046000Y-155785000D01*
X258171000Y-155785000D01*
X257796000Y-156160000D01*
X254712500Y-156160000D01*
X254337500Y-155785000D01*
X252462500Y-155785000D01*
X252462500Y-155805000D01*
X252362500Y-155805000D01*
X252362500Y-155785000D01*
X250487500Y-155785000D01*
X250112500Y-156160000D01*
X250112500Y-157783369D01*
X250340862Y-158334682D01*
X250558201Y-158552021D01*
X250108133Y-158636707D01*
X249597604Y-158965224D01*
X249255108Y-159466483D01*
X249225741Y-159611500D01*
X245406980Y-159611500D01*
X243489475Y-157693995D01*
X243944395Y-157514869D01*
X243969638Y-157498003D01*
X244785086Y-157836606D01*
X245684966Y-157837392D01*
X246516646Y-157493748D01*
X247153512Y-156857993D01*
X247498606Y-156026914D01*
X247499392Y-155127034D01*
X247487000Y-155097043D01*
X247487000Y-154728980D01*
X249630981Y-152585000D01*
X250177195Y-152585000D01*
X250187707Y-152640867D01*
X250441268Y-153034912D01*
X250340862Y-153135318D01*
X250112500Y-153686631D01*
X250112500Y-155310000D01*
X250487500Y-155685000D01*
X252362500Y-155685000D01*
X252362500Y-155665000D01*
X252462500Y-155665000D01*
X252462500Y-155685000D01*
X254337500Y-155685000D01*
X254712500Y-155310000D01*
X254712500Y-153686631D01*
X254484138Y-153135318D01*
X254380863Y-153032043D01*
X254621392Y-152680017D01*
X254741886Y-152085000D01*
X254741886Y-148585000D01*
X254662500Y-148163097D01*
X254662500Y-144949500D01*
X254565905Y-144463886D01*
X257846000Y-147743981D01*
G36*
X242781853Y-155560858D02*
X242767711Y-155575000D01*
X242781853Y-155589142D01*
X242711142Y-155659853D01*
X242697000Y-155645711D01*
X242682858Y-155659853D01*
X242612147Y-155589142D01*
X242626289Y-155575000D01*
X242612147Y-155560858D01*
X242682858Y-155490147D01*
X242697000Y-155504289D01*
X242711142Y-155490147D01*
X242781853Y-155560858D01*
X242781853Y-155560858D01*
G37*
X242781853Y-155560858D02*
X242767711Y-155575000D01*
X242781853Y-155589142D01*
X242711142Y-155659853D01*
X242697000Y-155645711D01*
X242682858Y-155659853D01*
X242612147Y-155589142D01*
X242626289Y-155575000D01*
X242612147Y-155560858D01*
X242682858Y-155490147D01*
X242697000Y-155504289D01*
X242711142Y-155490147D01*
X242781853Y-155560858D01*
G36*
X241297029Y-143196632D02*
X241434036Y-143288177D01*
X242142000Y-143429001D01*
X242142005Y-143429000D01*
X242724980Y-143429000D01*
X242913978Y-143467273D01*
X243038350Y-143591645D01*
X243038352Y-143591648D01*
X243638536Y-143992677D01*
X244346500Y-144133500D01*
X244644405Y-144133500D01*
X245096483Y-144442392D01*
X245691500Y-144562886D01*
X246941500Y-144562886D01*
X247097674Y-144533500D01*
X250220670Y-144533500D01*
X250142000Y-144929000D01*
X250162500Y-145032061D01*
X250162500Y-148085000D01*
X248699000Y-148085000D01*
X247837962Y-148256271D01*
X247108009Y-148744010D01*
X243646010Y-152206010D01*
X243158271Y-152935962D01*
X243081996Y-153319423D01*
X242286913Y-153305438D01*
X241449605Y-153635131D01*
X241424362Y-153651997D01*
X241093785Y-153514730D01*
X241121630Y-143134386D01*
X241203871Y-143134386D01*
X241297029Y-143196632D01*
X241297029Y-143196632D01*
G37*
X241297029Y-143196632D02*
X241434036Y-143288177D01*
X242142000Y-143429001D01*
X242142005Y-143429000D01*
X242724980Y-143429000D01*
X242913978Y-143467273D01*
X243038350Y-143591645D01*
X243038352Y-143591648D01*
X243638536Y-143992677D01*
X244346500Y-144133500D01*
X244644405Y-144133500D01*
X245096483Y-144442392D01*
X245691500Y-144562886D01*
X246941500Y-144562886D01*
X247097674Y-144533500D01*
X250220670Y-144533500D01*
X250142000Y-144929000D01*
X250162500Y-145032061D01*
X250162500Y-148085000D01*
X248699000Y-148085000D01*
X247837962Y-148256271D01*
X247108009Y-148744010D01*
X243646010Y-152206010D01*
X243158271Y-152935962D01*
X243081996Y-153319423D01*
X242286913Y-153305438D01*
X241449605Y-153635131D01*
X241424362Y-153651997D01*
X241093785Y-153514730D01*
X241121630Y-143134386D01*
X241203871Y-143134386D01*
X241297029Y-143196632D01*
G36*
X250215852Y-138869148D02*
X250816035Y-139270177D01*
X251053590Y-139317430D01*
X250337520Y-140033500D01*
X248266500Y-140033500D01*
X248066500Y-139833500D01*
X246366500Y-139833500D01*
X246366500Y-139853500D01*
X246266500Y-139853500D01*
X246266500Y-139833500D01*
X246246500Y-139833500D01*
X246246500Y-139733500D01*
X246266500Y-139733500D01*
X246266500Y-139713500D01*
X246366500Y-139713500D01*
X246366500Y-139733500D01*
X248066500Y-139733500D01*
X248441500Y-139358500D01*
X248441500Y-138735131D01*
X248394018Y-138620500D01*
X248441500Y-138505869D01*
X248441500Y-137882500D01*
X248066500Y-137507500D01*
X246366500Y-137507500D01*
X246366500Y-137533500D01*
X246319485Y-137533500D01*
X246371676Y-137407500D01*
X248066500Y-137407500D01*
X248410352Y-137063648D01*
X250215852Y-138869148D01*
X250215852Y-138869148D01*
G37*
X250215852Y-138869148D02*
X250816035Y-139270177D01*
X251053590Y-139317430D01*
X250337520Y-140033500D01*
X248266500Y-140033500D01*
X248066500Y-139833500D01*
X246366500Y-139833500D01*
X246366500Y-139853500D01*
X246266500Y-139853500D01*
X246266500Y-139833500D01*
X246246500Y-139833500D01*
X246246500Y-139733500D01*
X246266500Y-139733500D01*
X246266500Y-139713500D01*
X246366500Y-139713500D01*
X246366500Y-139733500D01*
X248066500Y-139733500D01*
X248441500Y-139358500D01*
X248441500Y-138735131D01*
X248394018Y-138620500D01*
X248441500Y-138505869D01*
X248441500Y-137882500D01*
X248066500Y-137507500D01*
X246366500Y-137507500D01*
X246366500Y-137533500D01*
X246319485Y-137533500D01*
X246371676Y-137407500D01*
X248066500Y-137407500D01*
X248410352Y-137063648D01*
X250215852Y-138869148D01*
G36*
X253312000Y-134479000D02*
X253292000Y-134479000D01*
X253292000Y-134499000D01*
X253192000Y-134499000D01*
X253192000Y-134479000D01*
X253172000Y-134479000D01*
X253172000Y-134379000D01*
X253312000Y-134379000D01*
X253312000Y-134479000D01*
X253312000Y-134479000D01*
G37*
X253312000Y-134479000D02*
X253292000Y-134479000D01*
X253292000Y-134499000D01*
X253192000Y-134499000D01*
X253192000Y-134479000D01*
X253172000Y-134479000D01*
X253172000Y-134379000D01*
X253312000Y-134379000D01*
X253312000Y-134479000D01*
G36*
X232047347Y-157828736D02*
X232692000Y-157840075D01*
X232692000Y-170579000D01*
X204784783Y-170579000D01*
X205441244Y-168998065D01*
X205441932Y-168209812D01*
X205704462Y-168385229D01*
X206565500Y-168556500D01*
X220980000Y-168556500D01*
X221841038Y-168385229D01*
X222570990Y-167897490D01*
X224997990Y-165470490D01*
X225485729Y-164740538D01*
X225501950Y-164658990D01*
X225657000Y-163879500D01*
X225657000Y-163683474D01*
X225762893Y-163524994D01*
X225957000Y-162549151D01*
X225957000Y-160919849D01*
X225762893Y-159944006D01*
X225657000Y-159785526D01*
X225657000Y-158722670D01*
X225792392Y-158524517D01*
X225811633Y-158429500D01*
X229519500Y-158429500D01*
X230380538Y-158258229D01*
X231110490Y-157770490D01*
X231353882Y-157527098D01*
X232047347Y-157828736D01*
X232047347Y-157828736D01*
G37*
X232047347Y-157828736D02*
X232692000Y-157840075D01*
X232692000Y-170579000D01*
X204784783Y-170579000D01*
X205441244Y-168998065D01*
X205441932Y-168209812D01*
X205704462Y-168385229D01*
X206565500Y-168556500D01*
X220980000Y-168556500D01*
X221841038Y-168385229D01*
X222570990Y-167897490D01*
X224997990Y-165470490D01*
X225485729Y-164740538D01*
X225501950Y-164658990D01*
X225657000Y-163879500D01*
X225657000Y-163683474D01*
X225762893Y-163524994D01*
X225957000Y-162549151D01*
X225957000Y-160919849D01*
X225762893Y-159944006D01*
X225657000Y-159785526D01*
X225657000Y-158722670D01*
X225792392Y-158524517D01*
X225811633Y-158429500D01*
X229519500Y-158429500D01*
X230380538Y-158258229D01*
X231110490Y-157770490D01*
X231353882Y-157527098D01*
X232047347Y-157828736D01*
G36*
X232692000Y-130884338D02*
X232263868Y-130707000D01*
X231819000Y-130707000D01*
X231444000Y-131082000D01*
X231444000Y-131142263D01*
X231438638Y-131129318D01*
X231016681Y-130707361D01*
X230465368Y-130479000D01*
X230217000Y-130479000D01*
X229842000Y-130854000D01*
X229842000Y-131066180D01*
X229742000Y-131166180D01*
X229742000Y-130854000D01*
X229367000Y-130479000D01*
X229329928Y-130479000D01*
X229288638Y-130379318D01*
X228866681Y-129957361D01*
X228315368Y-129729000D01*
X227817000Y-129729000D01*
X227442000Y-130104000D01*
X227442000Y-131929000D01*
X227462000Y-131929000D01*
X227462000Y-132029000D01*
X227442000Y-132029000D01*
X227442000Y-132049000D01*
X227342000Y-132049000D01*
X227342000Y-132029000D01*
X225642000Y-132029000D01*
X225267000Y-132404000D01*
X225267000Y-133027369D01*
X225285073Y-133071000D01*
X223693095Y-133071000D01*
X223241017Y-132762108D01*
X222646000Y-132641614D01*
X222332910Y-132641614D01*
X221970648Y-132279352D01*
X221370465Y-131878323D01*
X220662500Y-131737499D01*
X220662495Y-131737500D01*
X220073595Y-131737500D01*
X219621517Y-131428608D01*
X219026500Y-131308114D01*
X217726500Y-131308114D01*
X217170633Y-131412707D01*
X216665891Y-131737500D01*
X213249505Y-131737500D01*
X213249500Y-131737499D01*
X212541535Y-131878323D01*
X211941352Y-132279352D01*
X210430193Y-133790511D01*
X210312000Y-133767001D01*
X209450962Y-133938271D01*
X208721010Y-134426010D01*
X208280385Y-134866635D01*
X208061466Y-134539000D01*
X208309156Y-134168306D01*
X208488039Y-133269000D01*
X208309156Y-132369694D01*
X207799740Y-131607299D01*
X207037345Y-131097883D01*
X206196513Y-130930631D01*
X225267000Y-130930631D01*
X225267000Y-131554000D01*
X225642000Y-131929000D01*
X227342000Y-131929000D01*
X227342000Y-130104000D01*
X226967000Y-129729000D01*
X226468632Y-129729000D01*
X225917319Y-129957361D01*
X225495362Y-130379318D01*
X225267000Y-130930631D01*
X206196513Y-130930631D01*
X206138039Y-130919000D01*
X206045961Y-130919000D01*
X205774485Y-130973000D01*
X204787500Y-130973000D01*
X203926462Y-131144271D01*
X203313260Y-131554000D01*
X203196510Y-131632010D01*
X201736010Y-133092510D01*
X201248271Y-133822462D01*
X201077000Y-134683500D01*
X201077000Y-163068000D01*
X201218448Y-163779108D01*
X200230528Y-163778246D01*
X198631142Y-164439099D01*
X197642000Y-165426515D01*
X197642000Y-128830178D01*
X198624705Y-129814601D01*
X200222935Y-130478244D01*
X201953472Y-130479754D01*
X203552858Y-129818901D01*
X204777601Y-128596295D01*
X205441244Y-126998065D01*
X205442754Y-125267528D01*
X204786387Y-123679000D01*
X232692000Y-123679000D01*
X232692000Y-130884338D01*
X232692000Y-130884338D01*
G37*
X232692000Y-130884338D02*
X232263868Y-130707000D01*
X231819000Y-130707000D01*
X231444000Y-131082000D01*
X231444000Y-131142263D01*
X231438638Y-131129318D01*
X231016681Y-130707361D01*
X230465368Y-130479000D01*
X230217000Y-130479000D01*
X229842000Y-130854000D01*
X229842000Y-131066180D01*
X229742000Y-131166180D01*
X229742000Y-130854000D01*
X229367000Y-130479000D01*
X229329928Y-130479000D01*
X229288638Y-130379318D01*
X228866681Y-129957361D01*
X228315368Y-129729000D01*
X227817000Y-129729000D01*
X227442000Y-130104000D01*
X227442000Y-131929000D01*
X227462000Y-131929000D01*
X227462000Y-132029000D01*
X227442000Y-132029000D01*
X227442000Y-132049000D01*
X227342000Y-132049000D01*
X227342000Y-132029000D01*
X225642000Y-132029000D01*
X225267000Y-132404000D01*
X225267000Y-133027369D01*
X225285073Y-133071000D01*
X223693095Y-133071000D01*
X223241017Y-132762108D01*
X222646000Y-132641614D01*
X222332910Y-132641614D01*
X221970648Y-132279352D01*
X221370465Y-131878323D01*
X220662500Y-131737499D01*
X220662495Y-131737500D01*
X220073595Y-131737500D01*
X219621517Y-131428608D01*
X219026500Y-131308114D01*
X217726500Y-131308114D01*
X217170633Y-131412707D01*
X216665891Y-131737500D01*
X213249505Y-131737500D01*
X213249500Y-131737499D01*
X212541535Y-131878323D01*
X211941352Y-132279352D01*
X210430193Y-133790511D01*
X210312000Y-133767001D01*
X209450962Y-133938271D01*
X208721010Y-134426010D01*
X208280385Y-134866635D01*
X208061466Y-134539000D01*
X208309156Y-134168306D01*
X208488039Y-133269000D01*
X208309156Y-132369694D01*
X207799740Y-131607299D01*
X207037345Y-131097883D01*
X206196513Y-130930631D01*
X225267000Y-130930631D01*
X225267000Y-131554000D01*
X225642000Y-131929000D01*
X227342000Y-131929000D01*
X227342000Y-130104000D01*
X226967000Y-129729000D01*
X226468632Y-129729000D01*
X225917319Y-129957361D01*
X225495362Y-130379318D01*
X225267000Y-130930631D01*
X206196513Y-130930631D01*
X206138039Y-130919000D01*
X206045961Y-130919000D01*
X205774485Y-130973000D01*
X204787500Y-130973000D01*
X203926462Y-131144271D01*
X203313260Y-131554000D01*
X203196510Y-131632010D01*
X201736010Y-133092510D01*
X201248271Y-133822462D01*
X201077000Y-134683500D01*
X201077000Y-163068000D01*
X201218448Y-163779108D01*
X200230528Y-163778246D01*
X198631142Y-164439099D01*
X197642000Y-165426515D01*
X197642000Y-128830178D01*
X198624705Y-129814601D01*
X200222935Y-130478244D01*
X201953472Y-130479754D01*
X203552858Y-129818901D01*
X204777601Y-128596295D01*
X205441244Y-126998065D01*
X205442754Y-125267528D01*
X204786387Y-123679000D01*
X232692000Y-123679000D01*
X232692000Y-130884338D01*
G36*
X232692000Y-153315378D02*
X232126913Y-153305438D01*
X231289605Y-153635131D01*
X231264362Y-153651997D01*
X230448914Y-153313394D01*
X229549034Y-153312608D01*
X228717354Y-153656252D01*
X228443628Y-153929500D01*
X225818805Y-153929500D01*
X225808293Y-153873633D01*
X225554732Y-153479588D01*
X225655138Y-153379182D01*
X225883500Y-152827869D01*
X225883500Y-151204500D01*
X225508500Y-150829500D01*
X223633500Y-150829500D01*
X223633500Y-150849500D01*
X223533500Y-150849500D01*
X223533500Y-150829500D01*
X221658500Y-150829500D01*
X221283500Y-151204500D01*
X221283500Y-152827869D01*
X221511862Y-153379182D01*
X221615137Y-153482457D01*
X221374608Y-153834483D01*
X221355367Y-153929500D01*
X219932980Y-153929500D01*
X219641047Y-153637567D01*
X219605425Y-153448251D01*
X219676000Y-153277869D01*
X219676000Y-152654500D01*
X219301000Y-152279500D01*
X217601000Y-152279500D01*
X217601000Y-152299500D01*
X217501000Y-152299500D01*
X217501000Y-152279500D01*
X215801000Y-152279500D01*
X215426000Y-152654500D01*
X215426000Y-153277869D01*
X215501693Y-153460607D01*
X215396614Y-153979500D01*
X215396614Y-154248816D01*
X215301000Y-154729500D01*
X215396614Y-155210184D01*
X215396614Y-155479500D01*
X215501207Y-156035367D01*
X215829724Y-156545896D01*
X216330983Y-156888392D01*
X216577918Y-156938398D01*
X217410010Y-157770490D01*
X218139962Y-158258229D01*
X219001000Y-158429500D01*
X221157000Y-158429500D01*
X221157000Y-159785526D01*
X221051107Y-159944006D01*
X220907000Y-160668482D01*
X220762893Y-159944006D01*
X220210122Y-159116727D01*
X219382843Y-158563956D01*
X218407000Y-158369849D01*
X217431157Y-158563956D01*
X216603878Y-159116727D01*
X216051107Y-159944006D01*
X215907000Y-160668482D01*
X215762893Y-159944006D01*
X215210122Y-159116727D01*
X214382843Y-158563956D01*
X213407000Y-158369849D01*
X212431157Y-158563956D01*
X211603878Y-159116727D01*
X211051107Y-159944006D01*
X210957000Y-160417114D01*
X210957000Y-159636132D01*
X210728639Y-159084819D01*
X210306682Y-158662862D01*
X209755369Y-158434500D01*
X208832000Y-158434500D01*
X208457000Y-158809500D01*
X208457000Y-161684500D01*
X208477000Y-161684500D01*
X208477000Y-161784500D01*
X208457000Y-161784500D01*
X208457000Y-161804500D01*
X208357000Y-161804500D01*
X208357000Y-161784500D01*
X206232000Y-161784500D01*
X205857000Y-162159500D01*
X205857000Y-162416020D01*
X205577000Y-162136020D01*
X205577000Y-159636132D01*
X205857000Y-159636132D01*
X205857000Y-161309500D01*
X206232000Y-161684500D01*
X208357000Y-161684500D01*
X208357000Y-158809500D01*
X207982000Y-158434500D01*
X207347801Y-158434500D01*
X207791682Y-158250638D01*
X208213639Y-157828681D01*
X208442000Y-157277368D01*
X208442000Y-156554000D01*
X208067000Y-156179000D01*
X206142000Y-156179000D01*
X206142000Y-158104000D01*
X206517000Y-158479000D01*
X206951199Y-158479000D01*
X206507318Y-158662862D01*
X206085361Y-159084819D01*
X205857000Y-159636132D01*
X205577000Y-159636132D01*
X205577000Y-158479000D01*
X205667000Y-158479000D01*
X206042000Y-158104000D01*
X206042000Y-156179000D01*
X206022000Y-156179000D01*
X206022000Y-156079000D01*
X206042000Y-156079000D01*
X206042000Y-156059000D01*
X206142000Y-156059000D01*
X206142000Y-156079000D01*
X208067000Y-156079000D01*
X208442000Y-155704000D01*
X208442000Y-154980632D01*
X208265275Y-154553979D01*
X208309156Y-154488306D01*
X208488039Y-153589000D01*
X208329626Y-152792606D01*
X208733965Y-152712177D01*
X209334148Y-152311148D01*
X213311136Y-148334160D01*
X213265348Y-148444430D01*
X213264654Y-149240079D01*
X213568494Y-149975429D01*
X214130612Y-150538529D01*
X214865430Y-150843652D01*
X215565536Y-150844263D01*
X215426000Y-151181131D01*
X215426000Y-151804500D01*
X215801000Y-152179500D01*
X217501000Y-152179500D01*
X217501000Y-150354500D01*
X217601000Y-150354500D01*
X217601000Y-152179500D01*
X219301000Y-152179500D01*
X219676000Y-151804500D01*
X219676000Y-151181131D01*
X219447638Y-150629818D01*
X219025681Y-150207861D01*
X218474368Y-149979500D01*
X217976000Y-149979500D01*
X217601000Y-150354500D01*
X217501000Y-150354500D01*
X217126000Y-149979500D01*
X216958415Y-149979500D01*
X216959529Y-149978388D01*
X217110510Y-149614785D01*
X217128145Y-149597150D01*
X217128148Y-149597148D01*
X217529177Y-148996964D01*
X217552864Y-148877883D01*
X217588136Y-148700558D01*
X217770000Y-148737386D01*
X219270000Y-148737386D01*
X219693239Y-148657749D01*
X220086500Y-148737386D01*
X221283500Y-148737386D01*
X221283500Y-150354500D01*
X221658500Y-150729500D01*
X223533500Y-150729500D01*
X223533500Y-147904500D01*
X223486500Y-147857500D01*
X223486500Y-146608000D01*
X223586500Y-146608000D01*
X223586500Y-148333000D01*
X223633500Y-148380000D01*
X223633500Y-150729500D01*
X225508500Y-150729500D01*
X225883500Y-150354500D01*
X225883500Y-148731131D01*
X225655138Y-148179818D01*
X225545570Y-148070250D01*
X225558139Y-148057681D01*
X225786500Y-147506368D01*
X225786500Y-146983000D01*
X225411500Y-146608000D01*
X223586500Y-146608000D01*
X223486500Y-146608000D01*
X223466500Y-146608000D01*
X223466500Y-146508000D01*
X223486500Y-146508000D01*
X223486500Y-144783000D01*
X223586500Y-144783000D01*
X223586500Y-146508000D01*
X225411500Y-146508000D01*
X225786500Y-146133000D01*
X225786500Y-145609632D01*
X225558139Y-145058319D01*
X225136182Y-144636362D01*
X224584869Y-144408000D01*
X223961500Y-144408000D01*
X223586500Y-144783000D01*
X223486500Y-144783000D01*
X223111500Y-144408000D01*
X222488131Y-144408000D01*
X222214225Y-144521456D01*
X222181517Y-144499108D01*
X221586500Y-144378614D01*
X220086500Y-144378614D01*
X219663261Y-144458251D01*
X219270000Y-144378614D01*
X217770000Y-144378614D01*
X217214133Y-144483207D01*
X217176854Y-144507196D01*
X217165017Y-144499108D01*
X217149359Y-144495937D01*
X217618796Y-144026500D01*
X229615995Y-144026500D01*
X229616000Y-144026501D01*
X230323965Y-143885677D01*
X230924148Y-143484648D01*
X231207796Y-143201000D01*
X231394000Y-143201000D01*
X231728891Y-143134386D01*
X231965500Y-143134386D01*
X232521367Y-143029793D01*
X232692000Y-142919993D01*
X232692000Y-153315378D01*
X232692000Y-153315378D01*
G37*
X232692000Y-153315378D02*
X232126913Y-153305438D01*
X231289605Y-153635131D01*
X231264362Y-153651997D01*
X230448914Y-153313394D01*
X229549034Y-153312608D01*
X228717354Y-153656252D01*
X228443628Y-153929500D01*
X225818805Y-153929500D01*
X225808293Y-153873633D01*
X225554732Y-153479588D01*
X225655138Y-153379182D01*
X225883500Y-152827869D01*
X225883500Y-151204500D01*
X225508500Y-150829500D01*
X223633500Y-150829500D01*
X223633500Y-150849500D01*
X223533500Y-150849500D01*
X223533500Y-150829500D01*
X221658500Y-150829500D01*
X221283500Y-151204500D01*
X221283500Y-152827869D01*
X221511862Y-153379182D01*
X221615137Y-153482457D01*
X221374608Y-153834483D01*
X221355367Y-153929500D01*
X219932980Y-153929500D01*
X219641047Y-153637567D01*
X219605425Y-153448251D01*
X219676000Y-153277869D01*
X219676000Y-152654500D01*
X219301000Y-152279500D01*
X217601000Y-152279500D01*
X217601000Y-152299500D01*
X217501000Y-152299500D01*
X217501000Y-152279500D01*
X215801000Y-152279500D01*
X215426000Y-152654500D01*
X215426000Y-153277869D01*
X215501693Y-153460607D01*
X215396614Y-153979500D01*
X215396614Y-154248816D01*
X215301000Y-154729500D01*
X215396614Y-155210184D01*
X215396614Y-155479500D01*
X215501207Y-156035367D01*
X215829724Y-156545896D01*
X216330983Y-156888392D01*
X216577918Y-156938398D01*
X217410010Y-157770490D01*
X218139962Y-158258229D01*
X219001000Y-158429500D01*
X221157000Y-158429500D01*
X221157000Y-159785526D01*
X221051107Y-159944006D01*
X220907000Y-160668482D01*
X220762893Y-159944006D01*
X220210122Y-159116727D01*
X219382843Y-158563956D01*
X218407000Y-158369849D01*
X217431157Y-158563956D01*
X216603878Y-159116727D01*
X216051107Y-159944006D01*
X215907000Y-160668482D01*
X215762893Y-159944006D01*
X215210122Y-159116727D01*
X214382843Y-158563956D01*
X213407000Y-158369849D01*
X212431157Y-158563956D01*
X211603878Y-159116727D01*
X211051107Y-159944006D01*
X210957000Y-160417114D01*
X210957000Y-159636132D01*
X210728639Y-159084819D01*
X210306682Y-158662862D01*
X209755369Y-158434500D01*
X208832000Y-158434500D01*
X208457000Y-158809500D01*
X208457000Y-161684500D01*
X208477000Y-161684500D01*
X208477000Y-161784500D01*
X208457000Y-161784500D01*
X208457000Y-161804500D01*
X208357000Y-161804500D01*
X208357000Y-161784500D01*
X206232000Y-161784500D01*
X205857000Y-162159500D01*
X205857000Y-162416020D01*
X205577000Y-162136020D01*
X205577000Y-159636132D01*
X205857000Y-159636132D01*
X205857000Y-161309500D01*
X206232000Y-161684500D01*
X208357000Y-161684500D01*
X208357000Y-158809500D01*
X207982000Y-158434500D01*
X207347801Y-158434500D01*
X207791682Y-158250638D01*
X208213639Y-157828681D01*
X208442000Y-157277368D01*
X208442000Y-156554000D01*
X208067000Y-156179000D01*
X206142000Y-156179000D01*
X206142000Y-158104000D01*
X206517000Y-158479000D01*
X206951199Y-158479000D01*
X206507318Y-158662862D01*
X206085361Y-159084819D01*
X205857000Y-159636132D01*
X205577000Y-159636132D01*
X205577000Y-158479000D01*
X205667000Y-158479000D01*
X206042000Y-158104000D01*
X206042000Y-156179000D01*
X206022000Y-156179000D01*
X206022000Y-156079000D01*
X206042000Y-156079000D01*
X206042000Y-156059000D01*
X206142000Y-156059000D01*
X206142000Y-156079000D01*
X208067000Y-156079000D01*
X208442000Y-155704000D01*
X208442000Y-154980632D01*
X208265275Y-154553979D01*
X208309156Y-154488306D01*
X208488039Y-153589000D01*
X208329626Y-152792606D01*
X208733965Y-152712177D01*
X209334148Y-152311148D01*
X213311136Y-148334160D01*
X213265348Y-148444430D01*
X213264654Y-149240079D01*
X213568494Y-149975429D01*
X214130612Y-150538529D01*
X214865430Y-150843652D01*
X215565536Y-150844263D01*
X215426000Y-151181131D01*
X215426000Y-151804500D01*
X215801000Y-152179500D01*
X217501000Y-152179500D01*
X217501000Y-150354500D01*
X217601000Y-150354500D01*
X217601000Y-152179500D01*
X219301000Y-152179500D01*
X219676000Y-151804500D01*
X219676000Y-151181131D01*
X219447638Y-150629818D01*
X219025681Y-150207861D01*
X218474368Y-149979500D01*
X217976000Y-149979500D01*
X217601000Y-150354500D01*
X217501000Y-150354500D01*
X217126000Y-149979500D01*
X216958415Y-149979500D01*
X216959529Y-149978388D01*
X217110510Y-149614785D01*
X217128145Y-149597150D01*
X217128148Y-149597148D01*
X217529177Y-148996964D01*
X217552864Y-148877883D01*
X217588136Y-148700558D01*
X217770000Y-148737386D01*
X219270000Y-148737386D01*
X219693239Y-148657749D01*
X220086500Y-148737386D01*
X221283500Y-148737386D01*
X221283500Y-150354500D01*
X221658500Y-150729500D01*
X223533500Y-150729500D01*
X223533500Y-147904500D01*
X223486500Y-147857500D01*
X223486500Y-146608000D01*
X223586500Y-146608000D01*
X223586500Y-148333000D01*
X223633500Y-148380000D01*
X223633500Y-150729500D01*
X225508500Y-150729500D01*
X225883500Y-150354500D01*
X225883500Y-148731131D01*
X225655138Y-148179818D01*
X225545570Y-148070250D01*
X225558139Y-148057681D01*
X225786500Y-147506368D01*
X225786500Y-146983000D01*
X225411500Y-146608000D01*
X223586500Y-146608000D01*
X223486500Y-146608000D01*
X223466500Y-146608000D01*
X223466500Y-146508000D01*
X223486500Y-146508000D01*
X223486500Y-144783000D01*
X223586500Y-144783000D01*
X223586500Y-146508000D01*
X225411500Y-146508000D01*
X225786500Y-146133000D01*
X225786500Y-145609632D01*
X225558139Y-145058319D01*
X225136182Y-144636362D01*
X224584869Y-144408000D01*
X223961500Y-144408000D01*
X223586500Y-144783000D01*
X223486500Y-144783000D01*
X223111500Y-144408000D01*
X222488131Y-144408000D01*
X222214225Y-144521456D01*
X222181517Y-144499108D01*
X221586500Y-144378614D01*
X220086500Y-144378614D01*
X219663261Y-144458251D01*
X219270000Y-144378614D01*
X217770000Y-144378614D01*
X217214133Y-144483207D01*
X217176854Y-144507196D01*
X217165017Y-144499108D01*
X217149359Y-144495937D01*
X217618796Y-144026500D01*
X229615995Y-144026500D01*
X229616000Y-144026501D01*
X230323965Y-143885677D01*
X230924148Y-143484648D01*
X231207796Y-143201000D01*
X231394000Y-143201000D01*
X231728891Y-143134386D01*
X231965500Y-143134386D01*
X232521367Y-143029793D01*
X232692000Y-142919993D01*
X232692000Y-153315378D01*
G36*
X232621853Y-155560858D02*
X232607711Y-155575000D01*
X232621853Y-155589142D01*
X232551142Y-155659853D01*
X232537000Y-155645711D01*
X232522858Y-155659853D01*
X232452147Y-155589142D01*
X232466289Y-155575000D01*
X232452147Y-155560858D01*
X232522858Y-155490147D01*
X232537000Y-155504289D01*
X232551142Y-155490147D01*
X232621853Y-155560858D01*
X232621853Y-155560858D01*
G37*
X232621853Y-155560858D02*
X232607711Y-155575000D01*
X232621853Y-155589142D01*
X232551142Y-155659853D01*
X232537000Y-155645711D01*
X232522858Y-155659853D01*
X232452147Y-155589142D01*
X232466289Y-155575000D01*
X232452147Y-155560858D01*
X232522858Y-155490147D01*
X232537000Y-155504289D01*
X232551142Y-155490147D01*
X232621853Y-155560858D01*
M02*
