G04 #@! TF.FileFunction,Drawing*
%FSLAX46Y46*%
G04 Gerber Fmt 4.6, Leading zero omitted, Abs format (unit mm)*
G04 Created by KiCad (PCBNEW 4.0.6) date 2017 August 07, Monday 22:44:53*
%MOMM*%
%LPD*%
G01*
G04 APERTURE LIST*
%ADD10C,0.100000*%
%ADD11C,0.300000*%
G04 APERTURE END LIST*
D10*
D11*
X1474493Y-106093956D02*
X1473143Y-106951098D01*
X1473818Y-106522527D02*
X-26180Y-106520164D01*
X187881Y-106663359D01*
X330512Y-106806441D01*
X401716Y-106949411D01*
X-23481Y-104805881D02*
X-23930Y-105091595D01*
X47273Y-105234564D01*
X118590Y-105306106D01*
X332650Y-105449300D01*
X618252Y-105521179D01*
X1189679Y-105522079D01*
X1332648Y-105450875D01*
X1404190Y-105379559D01*
X1475843Y-105236814D01*
X1476293Y-104951101D01*
X1405090Y-104808131D01*
X1333773Y-104736590D01*
X1191029Y-104664937D01*
X833886Y-104664374D01*
X690917Y-104735577D01*
X619377Y-104806894D01*
X547723Y-104949638D01*
X547273Y-105235352D01*
X618477Y-105378322D01*
X689792Y-105449863D01*
X832537Y-105521516D01*
X1478992Y-103236818D02*
X1477642Y-104093960D01*
X1478317Y-103665388D02*
X-21681Y-103663026D01*
X192380Y-103806220D01*
X335012Y-103949303D01*
X406216Y-104092272D01*
X1337148Y-102593736D02*
X1408689Y-102522421D01*
X1480005Y-102593961D01*
X1408464Y-102665278D01*
X1337148Y-102593736D01*
X1480005Y-102593961D01*
X123877Y-101948968D02*
X52560Y-101877427D01*
X-18644Y-101734457D01*
X-18081Y-101377315D01*
X53573Y-101234570D01*
X125114Y-101163254D01*
X268083Y-101092051D01*
X410940Y-101092276D01*
X625113Y-101164041D01*
X1480905Y-102022533D01*
X1482367Y-101093963D01*
X1483492Y-100379679D02*
X1483942Y-100093965D01*
X1412739Y-99950995D01*
X1341422Y-99879455D01*
X1127363Y-99736260D01*
X841760Y-99664382D01*
X270333Y-99663482D01*
X127364Y-99734685D01*
X55822Y-99806001D01*
X-15831Y-99948746D01*
X-16281Y-100234459D01*
X54923Y-100377429D01*
X126239Y-100448970D01*
X268983Y-100520624D01*
X626126Y-100521186D01*
X769095Y-100449982D01*
X840636Y-100378667D01*
X912289Y-100235921D01*
X912739Y-99950208D01*
X841535Y-99807239D01*
X770220Y-99735697D01*
X627476Y-99664044D01*
X-13919Y-98734462D02*
X-13694Y-98591605D01*
X57960Y-98448861D01*
X129501Y-98377544D01*
X272470Y-98306340D01*
X558296Y-98235363D01*
X915439Y-98235925D01*
X1201040Y-98307803D01*
X1343785Y-98379457D01*
X1415101Y-98450998D01*
X1486304Y-98593967D01*
X1486079Y-98736824D01*
X1414426Y-98879569D01*
X1342885Y-98950885D01*
X1199915Y-99022088D01*
X914089Y-99093067D01*
X556947Y-99092504D01*
X271345Y-99020626D01*
X128601Y-98948973D01*
X57285Y-98877431D01*
X-13919Y-98734462D01*
X1489678Y-96451113D02*
X489680Y-96449538D01*
X632538Y-96449763D02*
X561221Y-96378223D01*
X490017Y-96235253D01*
X490355Y-96020968D01*
X562008Y-95878223D01*
X704978Y-95807019D01*
X1490691Y-95808257D01*
X704978Y-95807019D02*
X562233Y-95735366D01*
X491030Y-95592396D01*
X491367Y-95378112D01*
X563021Y-95235366D01*
X705990Y-95164163D01*
X1491703Y-95165401D01*
X1492828Y-94451116D02*
X492829Y-94449541D01*
X635687Y-94449766D02*
X564371Y-94378225D01*
X493167Y-94235255D01*
X493504Y-94020970D01*
X565158Y-93878226D01*
X708127Y-93807022D01*
X1493840Y-93808259D01*
X708127Y-93807022D02*
X565383Y-93735368D01*
X494179Y-93592399D01*
X494517Y-93378114D01*
X566170Y-93235369D01*
X709140Y-93164166D01*
X1494853Y-93165403D01*
X2282483Y-19378594D02*
X2028483Y-180668594D01*
X35560000Y-19431000D02*
X-417514Y-19374342D01*
X35306000Y-180721000D02*
X-671514Y-180664342D01*
X2028483Y-180668594D02*
X1443837Y-179541168D01*
X2028483Y-180668594D02*
X2616677Y-179543015D01*
X2282483Y-19378594D02*
X1694289Y-20504173D01*
X2282483Y-19378594D02*
X2867129Y-20506020D01*
X145793793Y-6142534D02*
X145865853Y-6071742D01*
X146009338Y-6001584D01*
X146366467Y-6004755D01*
X146508685Y-6077449D01*
X146579477Y-6149510D01*
X146649633Y-6292995D01*
X146648365Y-6435846D01*
X146575037Y-6649490D01*
X145710318Y-7498988D01*
X146638853Y-7507232D01*
X147152150Y-6011730D02*
X148152111Y-6020609D01*
X147495962Y-7514842D01*
X149495882Y-7532598D02*
X148638773Y-7524988D01*
X149067328Y-7528793D02*
X149080645Y-6028853D01*
X148935892Y-6241862D01*
X148791771Y-6383445D01*
X148648285Y-6453603D01*
X150139982Y-7395454D02*
X150210773Y-7467515D01*
X150138714Y-7538306D01*
X150067922Y-7466246D01*
X150139982Y-7395454D01*
X150138714Y-7538306D01*
X150723438Y-6043438D02*
X151723398Y-6052316D01*
X151067249Y-7546550D01*
X152352912Y-7557964D02*
X152638615Y-7560501D01*
X152782101Y-7490344D01*
X152854160Y-7419552D01*
X152998915Y-7206544D01*
X153072877Y-6921474D01*
X153077950Y-6350069D01*
X153007793Y-6206583D01*
X152937001Y-6134523D01*
X152794784Y-6061829D01*
X152509081Y-6059292D01*
X152365595Y-6129450D01*
X152293535Y-6200242D01*
X152220841Y-6342459D01*
X152217670Y-6699588D01*
X152287828Y-6843073D01*
X152358619Y-6915133D01*
X152500837Y-6987827D01*
X152786540Y-6990364D01*
X152930025Y-6920206D01*
X153002086Y-6849415D01*
X153074779Y-6707198D01*
X154495684Y-7576989D02*
X153638575Y-7569379D01*
X154067130Y-7573184D02*
X154080447Y-6073243D01*
X153935693Y-6286253D01*
X153791573Y-6427836D01*
X153648087Y-6497993D01*
X156281328Y-7592843D02*
X156290206Y-6592882D01*
X156288938Y-6735735D02*
X156360997Y-6664943D01*
X156504483Y-6594785D01*
X156718760Y-6596687D01*
X156860977Y-6669382D01*
X156931135Y-6812867D01*
X156924159Y-7598550D01*
X156931135Y-6812867D02*
X157003830Y-6670650D01*
X157147315Y-6600492D01*
X157361592Y-6602395D01*
X157503810Y-6675089D01*
X157573967Y-6818575D01*
X157566991Y-7604258D01*
X158281249Y-7610599D02*
X158290127Y-6610639D01*
X158288859Y-6753491D02*
X158360918Y-6682699D01*
X158504405Y-6612541D01*
X158718681Y-6614444D01*
X158860898Y-6687138D01*
X158931056Y-6830624D01*
X158924081Y-7616307D01*
X158931056Y-6830624D02*
X159003751Y-6688406D01*
X159147236Y-6618249D01*
X159361513Y-6620151D01*
X159503731Y-6692845D01*
X159573888Y-6836331D01*
X159566912Y-7622014D01*
X16814080Y-7026038D02*
X288594080Y-9439038D01*
X16510000Y-41275000D02*
X16838051Y-4326144D01*
X288290000Y-43688000D02*
X288618051Y-6739144D01*
X288594080Y-9439038D02*
X287462414Y-10015434D01*
X288594080Y-9439038D02*
X287472827Y-8842639D01*
X16814080Y-7026038D02*
X17935333Y-7622437D01*
X16814080Y-7026038D02*
X17945746Y-6449642D01*
X173832487Y-47763577D02*
X173836067Y-48763571D01*
X172333775Y-48126089D01*
X173839136Y-49620707D02*
X173839647Y-49763563D01*
X173768730Y-49906675D01*
X173697557Y-49978360D01*
X173554957Y-50050300D01*
X173269501Y-50122750D01*
X172912360Y-50124029D01*
X172626392Y-50053624D01*
X172483280Y-49982707D01*
X172411596Y-49911534D01*
X172339657Y-49768934D01*
X172339145Y-49626078D01*
X172410062Y-49482966D01*
X172481234Y-49411282D01*
X172623835Y-49339343D01*
X172909291Y-49266891D01*
X173266432Y-49265613D01*
X173552400Y-49336018D01*
X173695512Y-49406934D01*
X173767196Y-49478107D01*
X173839136Y-49620707D01*
X172486093Y-50768416D02*
X172414921Y-50840099D01*
X172343237Y-50768928D01*
X172414409Y-50697243D01*
X172486093Y-50768416D01*
X172343237Y-50768928D01*
X172346050Y-51554637D02*
X172347073Y-51840350D01*
X172419012Y-51982950D01*
X172490697Y-52054122D01*
X172705492Y-52196212D01*
X172991461Y-52266616D01*
X173562885Y-52264570D01*
X173705485Y-52192631D01*
X173776658Y-52120947D01*
X173847575Y-51977835D01*
X173846552Y-51692123D01*
X173774612Y-51549522D01*
X173702928Y-51478350D01*
X173559816Y-51407433D01*
X173202675Y-51408712D01*
X173060075Y-51480652D01*
X172988903Y-51552335D01*
X172917986Y-51695448D01*
X172919009Y-51981160D01*
X172990949Y-52123760D01*
X173062633Y-52194933D01*
X173205744Y-52265849D01*
X173353205Y-53551043D02*
X172353211Y-53554624D01*
X173923350Y-53191857D02*
X172850651Y-52838552D01*
X172853975Y-53767118D01*
X173855503Y-54192106D02*
X173858828Y-55120671D01*
X173285612Y-54622720D01*
X173286380Y-54837005D01*
X173215462Y-54980117D01*
X173144291Y-55051801D01*
X173001690Y-55123740D01*
X172644550Y-55125019D01*
X172501438Y-55054103D01*
X172429754Y-54982930D01*
X172357814Y-54840329D01*
X172356280Y-54411760D01*
X172427196Y-54268648D01*
X172498369Y-54196965D01*
X172365231Y-56911744D02*
X173365225Y-56908164D01*
X173222367Y-56908675D02*
X173294052Y-56979847D01*
X173365992Y-57122448D01*
X173366759Y-57336732D01*
X173295842Y-57479844D01*
X173153242Y-57551784D01*
X172367533Y-57554597D01*
X173153242Y-57551784D02*
X173296353Y-57622701D01*
X173368293Y-57765301D01*
X173369061Y-57979585D01*
X173298144Y-58122698D01*
X173155543Y-58194637D01*
X172369834Y-58197450D01*
X172372392Y-58911731D02*
X173372385Y-58908151D01*
X173229528Y-58908663D02*
X173301212Y-58979834D01*
X173373152Y-59122436D01*
X173373920Y-59336719D01*
X173303003Y-59479831D01*
X173160402Y-59551771D01*
X172374693Y-59554584D01*
X173160402Y-59551771D02*
X173303514Y-59622688D01*
X173375454Y-59765289D01*
X173376221Y-59979572D01*
X173305304Y-60122685D01*
X173162704Y-60194624D01*
X172376995Y-60197437D01*
X171556577Y-18585925D02*
X171810577Y-89528125D01*
X155448000Y-18643600D02*
X174256560Y-18576258D01*
X155702000Y-89585800D02*
X174510560Y-89518458D01*
X171810577Y-89528125D02*
X171220127Y-88403728D01*
X171810577Y-89528125D02*
X172392961Y-88399529D01*
X171556577Y-18585925D02*
X170974193Y-19714521D01*
X171556577Y-18585925D02*
X172147027Y-19710322D01*
X86740173Y-16295772D02*
X85883030Y-16295772D01*
X86311602Y-16295772D02*
X86311602Y-14795772D01*
X86168745Y-15010058D01*
X86025887Y-15152915D01*
X85883030Y-15224344D01*
X88025887Y-15295772D02*
X88025887Y-16295772D01*
X87668744Y-14724344D02*
X87311601Y-15795772D01*
X88240173Y-15795772D01*
X88883029Y-16295772D02*
X89168744Y-16295772D01*
X89311601Y-16224344D01*
X89383029Y-16152915D01*
X89525887Y-15938630D01*
X89597315Y-15652915D01*
X89597315Y-15081487D01*
X89525887Y-14938630D01*
X89454458Y-14867201D01*
X89311601Y-14795772D01*
X89025887Y-14795772D01*
X88883029Y-14867201D01*
X88811601Y-14938630D01*
X88740172Y-15081487D01*
X88740172Y-15438630D01*
X88811601Y-15581487D01*
X88883029Y-15652915D01*
X89025887Y-15724344D01*
X89311601Y-15724344D01*
X89454458Y-15652915D01*
X89525887Y-15581487D01*
X89597315Y-15438630D01*
X90240172Y-16152915D02*
X90311600Y-16224344D01*
X90240172Y-16295772D01*
X90168743Y-16224344D01*
X90240172Y-16152915D01*
X90240172Y-16295772D01*
X91025886Y-16295772D02*
X91311601Y-16295772D01*
X91454458Y-16224344D01*
X91525886Y-16152915D01*
X91668744Y-15938630D01*
X91740172Y-15652915D01*
X91740172Y-15081487D01*
X91668744Y-14938630D01*
X91597315Y-14867201D01*
X91454458Y-14795772D01*
X91168744Y-14795772D01*
X91025886Y-14867201D01*
X90954458Y-14938630D01*
X90883029Y-15081487D01*
X90883029Y-15438630D01*
X90954458Y-15581487D01*
X91025886Y-15652915D01*
X91168744Y-15724344D01*
X91454458Y-15724344D01*
X91597315Y-15652915D01*
X91668744Y-15581487D01*
X91740172Y-15438630D01*
X93025886Y-14795772D02*
X92740172Y-14795772D01*
X92597315Y-14867201D01*
X92525886Y-14938630D01*
X92383029Y-15152915D01*
X92311600Y-15438630D01*
X92311600Y-16010058D01*
X92383029Y-16152915D01*
X92454457Y-16224344D01*
X92597315Y-16295772D01*
X92883029Y-16295772D01*
X93025886Y-16224344D01*
X93097315Y-16152915D01*
X93168743Y-16010058D01*
X93168743Y-15652915D01*
X93097315Y-15510058D01*
X93025886Y-15438630D01*
X92883029Y-15367201D01*
X92597315Y-15367201D01*
X92454457Y-15438630D01*
X92383029Y-15510058D01*
X92311600Y-15652915D01*
X93740171Y-14938630D02*
X93811600Y-14867201D01*
X93954457Y-14795772D01*
X94311600Y-14795772D01*
X94454457Y-14867201D01*
X94525886Y-14938630D01*
X94597314Y-15081487D01*
X94597314Y-15224344D01*
X94525886Y-15438630D01*
X93668743Y-16295772D01*
X94597314Y-16295772D01*
X96383028Y-16295772D02*
X96383028Y-15295772D01*
X96383028Y-15438630D02*
X96454456Y-15367201D01*
X96597314Y-15295772D01*
X96811599Y-15295772D01*
X96954456Y-15367201D01*
X97025885Y-15510058D01*
X97025885Y-16295772D01*
X97025885Y-15510058D02*
X97097314Y-15367201D01*
X97240171Y-15295772D01*
X97454456Y-15295772D01*
X97597314Y-15367201D01*
X97668742Y-15510058D01*
X97668742Y-16295772D01*
X98383028Y-16295772D02*
X98383028Y-15295772D01*
X98383028Y-15438630D02*
X98454456Y-15367201D01*
X98597314Y-15295772D01*
X98811599Y-15295772D01*
X98954456Y-15367201D01*
X99025885Y-15510058D01*
X99025885Y-16295772D01*
X99025885Y-15510058D02*
X99097314Y-15367201D01*
X99240171Y-15295772D01*
X99454456Y-15295772D01*
X99597314Y-15367201D01*
X99668742Y-15510058D01*
X99668742Y-16295772D01*
X167792400Y-16967201D02*
X17830800Y-16967201D01*
X167792400Y-29997400D02*
X167792400Y-14267201D01*
X17830800Y-29997400D02*
X17830800Y-14267201D01*
X17830800Y-16967201D02*
X18957304Y-16380780D01*
X17830800Y-16967201D02*
X18957304Y-17553622D01*
X167792400Y-16967201D02*
X166665896Y-16380780D01*
X167792400Y-16967201D02*
X166665896Y-17553622D01*
X93490573Y-94730571D02*
X92633430Y-94730571D01*
X93062002Y-94730571D02*
X93062002Y-93230571D01*
X92919145Y-93444857D01*
X92776287Y-93587714D01*
X92633430Y-93659143D01*
X94847716Y-93230571D02*
X94133430Y-93230571D01*
X94062001Y-93944857D01*
X94133430Y-93873429D01*
X94276287Y-93802000D01*
X94633430Y-93802000D01*
X94776287Y-93873429D01*
X94847716Y-93944857D01*
X94919144Y-94087714D01*
X94919144Y-94444857D01*
X94847716Y-94587714D01*
X94776287Y-94659143D01*
X94633430Y-94730571D01*
X94276287Y-94730571D01*
X94133430Y-94659143D01*
X94062001Y-94587714D01*
X96204858Y-93230571D02*
X95919144Y-93230571D01*
X95776287Y-93302000D01*
X95704858Y-93373429D01*
X95562001Y-93587714D01*
X95490572Y-93873429D01*
X95490572Y-94444857D01*
X95562001Y-94587714D01*
X95633429Y-94659143D01*
X95776287Y-94730571D01*
X96062001Y-94730571D01*
X96204858Y-94659143D01*
X96276287Y-94587714D01*
X96347715Y-94444857D01*
X96347715Y-94087714D01*
X96276287Y-93944857D01*
X96204858Y-93873429D01*
X96062001Y-93802000D01*
X95776287Y-93802000D01*
X95633429Y-93873429D01*
X95562001Y-93944857D01*
X95490572Y-94087714D01*
X96990572Y-94587714D02*
X97062000Y-94659143D01*
X96990572Y-94730571D01*
X96919143Y-94659143D01*
X96990572Y-94587714D01*
X96990572Y-94730571D01*
X97990572Y-93230571D02*
X98133429Y-93230571D01*
X98276286Y-93302000D01*
X98347715Y-93373429D01*
X98419144Y-93516286D01*
X98490572Y-93802000D01*
X98490572Y-94159143D01*
X98419144Y-94444857D01*
X98347715Y-94587714D01*
X98276286Y-94659143D01*
X98133429Y-94730571D01*
X97990572Y-94730571D01*
X97847715Y-94659143D01*
X97776286Y-94587714D01*
X97704858Y-94444857D01*
X97633429Y-94159143D01*
X97633429Y-93802000D01*
X97704858Y-93516286D01*
X97776286Y-93373429D01*
X97847715Y-93302000D01*
X97990572Y-93230571D01*
X99419143Y-93230571D02*
X99562000Y-93230571D01*
X99704857Y-93302000D01*
X99776286Y-93373429D01*
X99847715Y-93516286D01*
X99919143Y-93802000D01*
X99919143Y-94159143D01*
X99847715Y-94444857D01*
X99776286Y-94587714D01*
X99704857Y-94659143D01*
X99562000Y-94730571D01*
X99419143Y-94730571D01*
X99276286Y-94659143D01*
X99204857Y-94587714D01*
X99133429Y-94444857D01*
X99062000Y-94159143D01*
X99062000Y-93802000D01*
X99133429Y-93516286D01*
X99204857Y-93373429D01*
X99276286Y-93302000D01*
X99419143Y-93230571D01*
X100847714Y-93230571D02*
X100990571Y-93230571D01*
X101133428Y-93302000D01*
X101204857Y-93373429D01*
X101276286Y-93516286D01*
X101347714Y-93802000D01*
X101347714Y-94159143D01*
X101276286Y-94444857D01*
X101204857Y-94587714D01*
X101133428Y-94659143D01*
X100990571Y-94730571D01*
X100847714Y-94730571D01*
X100704857Y-94659143D01*
X100633428Y-94587714D01*
X100562000Y-94444857D01*
X100490571Y-94159143D01*
X100490571Y-93802000D01*
X100562000Y-93516286D01*
X100633428Y-93373429D01*
X100704857Y-93302000D01*
X100847714Y-93230571D01*
X103133428Y-94730571D02*
X103133428Y-93730571D01*
X103133428Y-93873429D02*
X103204856Y-93802000D01*
X103347714Y-93730571D01*
X103561999Y-93730571D01*
X103704856Y-93802000D01*
X103776285Y-93944857D01*
X103776285Y-94730571D01*
X103776285Y-93944857D02*
X103847714Y-93802000D01*
X103990571Y-93730571D01*
X104204856Y-93730571D01*
X104347714Y-93802000D01*
X104419142Y-93944857D01*
X104419142Y-94730571D01*
X105133428Y-94730571D02*
X105133428Y-93730571D01*
X105133428Y-93873429D02*
X105204856Y-93802000D01*
X105347714Y-93730571D01*
X105561999Y-93730571D01*
X105704856Y-93802000D01*
X105776285Y-93944857D01*
X105776285Y-94730571D01*
X105776285Y-93944857D02*
X105847714Y-93802000D01*
X105990571Y-93730571D01*
X106204856Y-93730571D01*
X106347714Y-93802000D01*
X106419142Y-93944857D01*
X106419142Y-94730571D01*
X177562000Y-95402000D02*
X21562000Y-95402000D01*
X177562000Y-141402000D02*
X177562000Y-92702000D01*
X21562000Y-141402000D02*
X21562000Y-92702000D01*
X21562000Y-95402000D02*
X22688504Y-94815579D01*
X21562000Y-95402000D02*
X22688504Y-95988421D01*
X177562000Y-95402000D02*
X176435496Y-94815579D01*
X177562000Y-95402000D02*
X176435496Y-95988421D01*
X187090571Y-135473430D02*
X187162000Y-135330572D01*
X187233429Y-135259144D01*
X187376286Y-135187715D01*
X187447714Y-135187715D01*
X187590571Y-135259144D01*
X187662000Y-135330572D01*
X187733429Y-135473430D01*
X187733429Y-135759144D01*
X187662000Y-135902001D01*
X187590571Y-135973430D01*
X187447714Y-136044858D01*
X187376286Y-136044858D01*
X187233429Y-135973430D01*
X187162000Y-135902001D01*
X187090571Y-135759144D01*
X187090571Y-135473430D01*
X187019143Y-135330572D01*
X186947714Y-135259144D01*
X186804857Y-135187715D01*
X186519143Y-135187715D01*
X186376286Y-135259144D01*
X186304857Y-135330572D01*
X186233429Y-135473430D01*
X186233429Y-135759144D01*
X186304857Y-135902001D01*
X186376286Y-135973430D01*
X186519143Y-136044858D01*
X186804857Y-136044858D01*
X186947714Y-135973430D01*
X187019143Y-135902001D01*
X187090571Y-135759144D01*
X187733429Y-136973429D02*
X187733429Y-137116286D01*
X187662000Y-137259143D01*
X187590571Y-137330572D01*
X187447714Y-137402001D01*
X187162000Y-137473429D01*
X186804857Y-137473429D01*
X186519143Y-137402001D01*
X186376286Y-137330572D01*
X186304857Y-137259143D01*
X186233429Y-137116286D01*
X186233429Y-136973429D01*
X186304857Y-136830572D01*
X186376286Y-136759143D01*
X186519143Y-136687715D01*
X186804857Y-136616286D01*
X187162000Y-136616286D01*
X187447714Y-136687715D01*
X187590571Y-136759143D01*
X187662000Y-136830572D01*
X187733429Y-136973429D01*
X186376286Y-138116286D02*
X186304857Y-138187714D01*
X186233429Y-138116286D01*
X186304857Y-138044857D01*
X186376286Y-138116286D01*
X186233429Y-138116286D01*
X187733429Y-139116286D02*
X187733429Y-139259143D01*
X187662000Y-139402000D01*
X187590571Y-139473429D01*
X187447714Y-139544858D01*
X187162000Y-139616286D01*
X186804857Y-139616286D01*
X186519143Y-139544858D01*
X186376286Y-139473429D01*
X186304857Y-139402000D01*
X186233429Y-139259143D01*
X186233429Y-139116286D01*
X186304857Y-138973429D01*
X186376286Y-138902000D01*
X186519143Y-138830572D01*
X186804857Y-138759143D01*
X187162000Y-138759143D01*
X187447714Y-138830572D01*
X187590571Y-138902000D01*
X187662000Y-138973429D01*
X187733429Y-139116286D01*
X187733429Y-140544857D02*
X187733429Y-140687714D01*
X187662000Y-140830571D01*
X187590571Y-140902000D01*
X187447714Y-140973429D01*
X187162000Y-141044857D01*
X186804857Y-141044857D01*
X186519143Y-140973429D01*
X186376286Y-140902000D01*
X186304857Y-140830571D01*
X186233429Y-140687714D01*
X186233429Y-140544857D01*
X186304857Y-140402000D01*
X186376286Y-140330571D01*
X186519143Y-140259143D01*
X186804857Y-140187714D01*
X187162000Y-140187714D01*
X187447714Y-140259143D01*
X187590571Y-140330571D01*
X187662000Y-140402000D01*
X187733429Y-140544857D01*
X187733429Y-141973428D02*
X187733429Y-142116285D01*
X187662000Y-142259142D01*
X187590571Y-142330571D01*
X187447714Y-142402000D01*
X187162000Y-142473428D01*
X186804857Y-142473428D01*
X186519143Y-142402000D01*
X186376286Y-142330571D01*
X186304857Y-142259142D01*
X186233429Y-142116285D01*
X186233429Y-141973428D01*
X186304857Y-141830571D01*
X186376286Y-141759142D01*
X186519143Y-141687714D01*
X186804857Y-141616285D01*
X187162000Y-141616285D01*
X187447714Y-141687714D01*
X187590571Y-141759142D01*
X187662000Y-141830571D01*
X187733429Y-141973428D01*
X186233429Y-144259142D02*
X187233429Y-144259142D01*
X187090571Y-144259142D02*
X187162000Y-144330570D01*
X187233429Y-144473428D01*
X187233429Y-144687713D01*
X187162000Y-144830570D01*
X187019143Y-144901999D01*
X186233429Y-144901999D01*
X187019143Y-144901999D02*
X187162000Y-144973428D01*
X187233429Y-145116285D01*
X187233429Y-145330570D01*
X187162000Y-145473428D01*
X187019143Y-145544856D01*
X186233429Y-145544856D01*
X186233429Y-146259142D02*
X187233429Y-146259142D01*
X187090571Y-146259142D02*
X187162000Y-146330570D01*
X187233429Y-146473428D01*
X187233429Y-146687713D01*
X187162000Y-146830570D01*
X187019143Y-146901999D01*
X186233429Y-146901999D01*
X187019143Y-146901999D02*
X187162000Y-146973428D01*
X187233429Y-147116285D01*
X187233429Y-147330570D01*
X187162000Y-147473428D01*
X187019143Y-147544856D01*
X186233429Y-147544856D01*
X185562000Y-101402000D02*
X185562000Y-181402000D01*
X137562000Y-101402000D02*
X188262000Y-101402000D01*
X137562000Y-181402000D02*
X188262000Y-181402000D01*
X185562000Y-181402000D02*
X184975579Y-180275496D01*
X185562000Y-181402000D02*
X186148421Y-180275496D01*
X185562000Y-101402000D02*
X184975579Y-102528504D01*
X185562000Y-101402000D02*
X186148421Y-102528504D01*
X234806287Y-111257571D02*
X235806287Y-111257571D01*
X235163430Y-112757571D01*
X236663429Y-111257571D02*
X236806286Y-111257571D01*
X236949143Y-111329000D01*
X237020572Y-111400429D01*
X237092001Y-111543286D01*
X237163429Y-111829000D01*
X237163429Y-112186143D01*
X237092001Y-112471857D01*
X237020572Y-112614714D01*
X236949143Y-112686143D01*
X236806286Y-112757571D01*
X236663429Y-112757571D01*
X236520572Y-112686143D01*
X236449143Y-112614714D01*
X236377715Y-112471857D01*
X236306286Y-112186143D01*
X236306286Y-111829000D01*
X236377715Y-111543286D01*
X236449143Y-111400429D01*
X236520572Y-111329000D01*
X236663429Y-111257571D01*
X237806286Y-112614714D02*
X237877714Y-112686143D01*
X237806286Y-112757571D01*
X237734857Y-112686143D01*
X237806286Y-112614714D01*
X237806286Y-112757571D01*
X238806286Y-111257571D02*
X238949143Y-111257571D01*
X239092000Y-111329000D01*
X239163429Y-111400429D01*
X239234858Y-111543286D01*
X239306286Y-111829000D01*
X239306286Y-112186143D01*
X239234858Y-112471857D01*
X239163429Y-112614714D01*
X239092000Y-112686143D01*
X238949143Y-112757571D01*
X238806286Y-112757571D01*
X238663429Y-112686143D01*
X238592000Y-112614714D01*
X238520572Y-112471857D01*
X238449143Y-112186143D01*
X238449143Y-111829000D01*
X238520572Y-111543286D01*
X238592000Y-111400429D01*
X238663429Y-111329000D01*
X238806286Y-111257571D01*
X240234857Y-111257571D02*
X240377714Y-111257571D01*
X240520571Y-111329000D01*
X240592000Y-111400429D01*
X240663429Y-111543286D01*
X240734857Y-111829000D01*
X240734857Y-112186143D01*
X240663429Y-112471857D01*
X240592000Y-112614714D01*
X240520571Y-112686143D01*
X240377714Y-112757571D01*
X240234857Y-112757571D01*
X240092000Y-112686143D01*
X240020571Y-112614714D01*
X239949143Y-112471857D01*
X239877714Y-112186143D01*
X239877714Y-111829000D01*
X239949143Y-111543286D01*
X240020571Y-111400429D01*
X240092000Y-111329000D01*
X240234857Y-111257571D01*
X241663428Y-111257571D02*
X241806285Y-111257571D01*
X241949142Y-111329000D01*
X242020571Y-111400429D01*
X242092000Y-111543286D01*
X242163428Y-111829000D01*
X242163428Y-112186143D01*
X242092000Y-112471857D01*
X242020571Y-112614714D01*
X241949142Y-112686143D01*
X241806285Y-112757571D01*
X241663428Y-112757571D01*
X241520571Y-112686143D01*
X241449142Y-112614714D01*
X241377714Y-112471857D01*
X241306285Y-112186143D01*
X241306285Y-111829000D01*
X241377714Y-111543286D01*
X241449142Y-111400429D01*
X241520571Y-111329000D01*
X241663428Y-111257571D01*
X243949142Y-112757571D02*
X243949142Y-111757571D01*
X243949142Y-111900429D02*
X244020570Y-111829000D01*
X244163428Y-111757571D01*
X244377713Y-111757571D01*
X244520570Y-111829000D01*
X244591999Y-111971857D01*
X244591999Y-112757571D01*
X244591999Y-111971857D02*
X244663428Y-111829000D01*
X244806285Y-111757571D01*
X245020570Y-111757571D01*
X245163428Y-111829000D01*
X245234856Y-111971857D01*
X245234856Y-112757571D01*
X245949142Y-112757571D02*
X245949142Y-111757571D01*
X245949142Y-111900429D02*
X246020570Y-111829000D01*
X246163428Y-111757571D01*
X246377713Y-111757571D01*
X246520570Y-111829000D01*
X246591999Y-111971857D01*
X246591999Y-112757571D01*
X246591999Y-111971857D02*
X246663428Y-111829000D01*
X246806285Y-111757571D01*
X247020570Y-111757571D01*
X247163428Y-111829000D01*
X247234856Y-111971857D01*
X247234856Y-112757571D01*
X276092000Y-113429000D02*
X206092000Y-113429000D01*
X276092000Y-133229000D02*
X276092000Y-110729000D01*
X206092000Y-133229000D02*
X206092000Y-110729000D01*
X206092000Y-113429000D02*
X207218504Y-112842579D01*
X206092000Y-113429000D02*
X207218504Y-114015421D01*
X276092000Y-113429000D02*
X274965496Y-112842579D01*
X276092000Y-113429000D02*
X274965496Y-114015421D01*
X235163430Y-178100429D02*
X235020572Y-178029000D01*
X234949144Y-177957571D01*
X234877715Y-177814714D01*
X234877715Y-177743286D01*
X234949144Y-177600429D01*
X235020572Y-177529000D01*
X235163430Y-177457571D01*
X235449144Y-177457571D01*
X235592001Y-177529000D01*
X235663430Y-177600429D01*
X235734858Y-177743286D01*
X235734858Y-177814714D01*
X235663430Y-177957571D01*
X235592001Y-178029000D01*
X235449144Y-178100429D01*
X235163430Y-178100429D01*
X235020572Y-178171857D01*
X234949144Y-178243286D01*
X234877715Y-178386143D01*
X234877715Y-178671857D01*
X234949144Y-178814714D01*
X235020572Y-178886143D01*
X235163430Y-178957571D01*
X235449144Y-178957571D01*
X235592001Y-178886143D01*
X235663430Y-178814714D01*
X235734858Y-178671857D01*
X235734858Y-178386143D01*
X235663430Y-178243286D01*
X235592001Y-178171857D01*
X235449144Y-178100429D01*
X236663429Y-177457571D02*
X236806286Y-177457571D01*
X236949143Y-177529000D01*
X237020572Y-177600429D01*
X237092001Y-177743286D01*
X237163429Y-178029000D01*
X237163429Y-178386143D01*
X237092001Y-178671857D01*
X237020572Y-178814714D01*
X236949143Y-178886143D01*
X236806286Y-178957571D01*
X236663429Y-178957571D01*
X236520572Y-178886143D01*
X236449143Y-178814714D01*
X236377715Y-178671857D01*
X236306286Y-178386143D01*
X236306286Y-178029000D01*
X236377715Y-177743286D01*
X236449143Y-177600429D01*
X236520572Y-177529000D01*
X236663429Y-177457571D01*
X237806286Y-178814714D02*
X237877714Y-178886143D01*
X237806286Y-178957571D01*
X237734857Y-178886143D01*
X237806286Y-178814714D01*
X237806286Y-178957571D01*
X238806286Y-177457571D02*
X238949143Y-177457571D01*
X239092000Y-177529000D01*
X239163429Y-177600429D01*
X239234858Y-177743286D01*
X239306286Y-178029000D01*
X239306286Y-178386143D01*
X239234858Y-178671857D01*
X239163429Y-178814714D01*
X239092000Y-178886143D01*
X238949143Y-178957571D01*
X238806286Y-178957571D01*
X238663429Y-178886143D01*
X238592000Y-178814714D01*
X238520572Y-178671857D01*
X238449143Y-178386143D01*
X238449143Y-178029000D01*
X238520572Y-177743286D01*
X238592000Y-177600429D01*
X238663429Y-177529000D01*
X238806286Y-177457571D01*
X240234857Y-177457571D02*
X240377714Y-177457571D01*
X240520571Y-177529000D01*
X240592000Y-177600429D01*
X240663429Y-177743286D01*
X240734857Y-178029000D01*
X240734857Y-178386143D01*
X240663429Y-178671857D01*
X240592000Y-178814714D01*
X240520571Y-178886143D01*
X240377714Y-178957571D01*
X240234857Y-178957571D01*
X240092000Y-178886143D01*
X240020571Y-178814714D01*
X239949143Y-178671857D01*
X239877714Y-178386143D01*
X239877714Y-178029000D01*
X239949143Y-177743286D01*
X240020571Y-177600429D01*
X240092000Y-177529000D01*
X240234857Y-177457571D01*
X241663428Y-177457571D02*
X241806285Y-177457571D01*
X241949142Y-177529000D01*
X242020571Y-177600429D01*
X242092000Y-177743286D01*
X242163428Y-178029000D01*
X242163428Y-178386143D01*
X242092000Y-178671857D01*
X242020571Y-178814714D01*
X241949142Y-178886143D01*
X241806285Y-178957571D01*
X241663428Y-178957571D01*
X241520571Y-178886143D01*
X241449142Y-178814714D01*
X241377714Y-178671857D01*
X241306285Y-178386143D01*
X241306285Y-178029000D01*
X241377714Y-177743286D01*
X241449142Y-177600429D01*
X241520571Y-177529000D01*
X241663428Y-177457571D01*
X243949142Y-178957571D02*
X243949142Y-177957571D01*
X243949142Y-178100429D02*
X244020570Y-178029000D01*
X244163428Y-177957571D01*
X244377713Y-177957571D01*
X244520570Y-178029000D01*
X244591999Y-178171857D01*
X244591999Y-178957571D01*
X244591999Y-178171857D02*
X244663428Y-178029000D01*
X244806285Y-177957571D01*
X245020570Y-177957571D01*
X245163428Y-178029000D01*
X245234856Y-178171857D01*
X245234856Y-178957571D01*
X245949142Y-178957571D02*
X245949142Y-177957571D01*
X245949142Y-178100429D02*
X246020570Y-178029000D01*
X246163428Y-177957571D01*
X246377713Y-177957571D01*
X246520570Y-178029000D01*
X246591999Y-178171857D01*
X246591999Y-178957571D01*
X246591999Y-178171857D02*
X246663428Y-178029000D01*
X246806285Y-177957571D01*
X247020570Y-177957571D01*
X247163428Y-178029000D01*
X247234856Y-178171857D01*
X247234856Y-178957571D01*
X201092000Y-176929000D02*
X281092000Y-176929000D01*
X201092000Y-168129000D02*
X201092000Y-179629000D01*
X281092000Y-168129000D02*
X281092000Y-179629000D01*
X281092000Y-176929000D02*
X279965496Y-177515421D01*
X281092000Y-176929000D02*
X279965496Y-176342579D01*
X201092000Y-176929000D02*
X202218504Y-177515421D01*
X201092000Y-176929000D02*
X202218504Y-176342579D01*
X235163430Y-117300429D02*
X235020572Y-117229000D01*
X234949144Y-117157571D01*
X234877715Y-117014714D01*
X234877715Y-116943286D01*
X234949144Y-116800429D01*
X235020572Y-116729000D01*
X235163430Y-116657571D01*
X235449144Y-116657571D01*
X235592001Y-116729000D01*
X235663430Y-116800429D01*
X235734858Y-116943286D01*
X235734858Y-117014714D01*
X235663430Y-117157571D01*
X235592001Y-117229000D01*
X235449144Y-117300429D01*
X235163430Y-117300429D01*
X235020572Y-117371857D01*
X234949144Y-117443286D01*
X234877715Y-117586143D01*
X234877715Y-117871857D01*
X234949144Y-118014714D01*
X235020572Y-118086143D01*
X235163430Y-118157571D01*
X235449144Y-118157571D01*
X235592001Y-118086143D01*
X235663430Y-118014714D01*
X235734858Y-117871857D01*
X235734858Y-117586143D01*
X235663430Y-117443286D01*
X235592001Y-117371857D01*
X235449144Y-117300429D01*
X236663429Y-116657571D02*
X236806286Y-116657571D01*
X236949143Y-116729000D01*
X237020572Y-116800429D01*
X237092001Y-116943286D01*
X237163429Y-117229000D01*
X237163429Y-117586143D01*
X237092001Y-117871857D01*
X237020572Y-118014714D01*
X236949143Y-118086143D01*
X236806286Y-118157571D01*
X236663429Y-118157571D01*
X236520572Y-118086143D01*
X236449143Y-118014714D01*
X236377715Y-117871857D01*
X236306286Y-117586143D01*
X236306286Y-117229000D01*
X236377715Y-116943286D01*
X236449143Y-116800429D01*
X236520572Y-116729000D01*
X236663429Y-116657571D01*
X237806286Y-118014714D02*
X237877714Y-118086143D01*
X237806286Y-118157571D01*
X237734857Y-118086143D01*
X237806286Y-118014714D01*
X237806286Y-118157571D01*
X238806286Y-116657571D02*
X238949143Y-116657571D01*
X239092000Y-116729000D01*
X239163429Y-116800429D01*
X239234858Y-116943286D01*
X239306286Y-117229000D01*
X239306286Y-117586143D01*
X239234858Y-117871857D01*
X239163429Y-118014714D01*
X239092000Y-118086143D01*
X238949143Y-118157571D01*
X238806286Y-118157571D01*
X238663429Y-118086143D01*
X238592000Y-118014714D01*
X238520572Y-117871857D01*
X238449143Y-117586143D01*
X238449143Y-117229000D01*
X238520572Y-116943286D01*
X238592000Y-116800429D01*
X238663429Y-116729000D01*
X238806286Y-116657571D01*
X240234857Y-116657571D02*
X240377714Y-116657571D01*
X240520571Y-116729000D01*
X240592000Y-116800429D01*
X240663429Y-116943286D01*
X240734857Y-117229000D01*
X240734857Y-117586143D01*
X240663429Y-117871857D01*
X240592000Y-118014714D01*
X240520571Y-118086143D01*
X240377714Y-118157571D01*
X240234857Y-118157571D01*
X240092000Y-118086143D01*
X240020571Y-118014714D01*
X239949143Y-117871857D01*
X239877714Y-117586143D01*
X239877714Y-117229000D01*
X239949143Y-116943286D01*
X240020571Y-116800429D01*
X240092000Y-116729000D01*
X240234857Y-116657571D01*
X241663428Y-116657571D02*
X241806285Y-116657571D01*
X241949142Y-116729000D01*
X242020571Y-116800429D01*
X242092000Y-116943286D01*
X242163428Y-117229000D01*
X242163428Y-117586143D01*
X242092000Y-117871857D01*
X242020571Y-118014714D01*
X241949142Y-118086143D01*
X241806285Y-118157571D01*
X241663428Y-118157571D01*
X241520571Y-118086143D01*
X241449142Y-118014714D01*
X241377714Y-117871857D01*
X241306285Y-117586143D01*
X241306285Y-117229000D01*
X241377714Y-116943286D01*
X241449142Y-116800429D01*
X241520571Y-116729000D01*
X241663428Y-116657571D01*
X243949142Y-118157571D02*
X243949142Y-117157571D01*
X243949142Y-117300429D02*
X244020570Y-117229000D01*
X244163428Y-117157571D01*
X244377713Y-117157571D01*
X244520570Y-117229000D01*
X244591999Y-117371857D01*
X244591999Y-118157571D01*
X244591999Y-117371857D02*
X244663428Y-117229000D01*
X244806285Y-117157571D01*
X245020570Y-117157571D01*
X245163428Y-117229000D01*
X245234856Y-117371857D01*
X245234856Y-118157571D01*
X245949142Y-118157571D02*
X245949142Y-117157571D01*
X245949142Y-117300429D02*
X246020570Y-117229000D01*
X246163428Y-117157571D01*
X246377713Y-117157571D01*
X246520570Y-117229000D01*
X246591999Y-117371857D01*
X246591999Y-118157571D01*
X246591999Y-117371857D02*
X246663428Y-117229000D01*
X246806285Y-117157571D01*
X247020570Y-117157571D01*
X247163428Y-117229000D01*
X247234856Y-117371857D01*
X247234856Y-118157571D01*
X201092000Y-118829000D02*
X281092000Y-118829000D01*
X201092000Y-126129000D02*
X201092000Y-116129000D01*
X281092000Y-126129000D02*
X281092000Y-116129000D01*
X281092000Y-118829000D02*
X279965496Y-119415421D01*
X281092000Y-118829000D02*
X279965496Y-118242579D01*
X201092000Y-118829000D02*
X202218504Y-119415421D01*
X201092000Y-118829000D02*
X202218504Y-118242579D01*
X192363429Y-141629001D02*
X191363429Y-141629001D01*
X192934857Y-141271858D02*
X191863429Y-140914715D01*
X191863429Y-141843287D01*
X192720571Y-142343286D02*
X192792000Y-142414715D01*
X192863429Y-142557572D01*
X192863429Y-142914715D01*
X192792000Y-143057572D01*
X192720571Y-143129001D01*
X192577714Y-143200429D01*
X192434857Y-143200429D01*
X192220571Y-143129001D01*
X191363429Y-142271858D01*
X191363429Y-143200429D01*
X191506286Y-143843286D02*
X191434857Y-143914714D01*
X191363429Y-143843286D01*
X191434857Y-143771857D01*
X191506286Y-143843286D01*
X191363429Y-143843286D01*
X192863429Y-144843286D02*
X192863429Y-144986143D01*
X192792000Y-145129000D01*
X192720571Y-145200429D01*
X192577714Y-145271858D01*
X192292000Y-145343286D01*
X191934857Y-145343286D01*
X191649143Y-145271858D01*
X191506286Y-145200429D01*
X191434857Y-145129000D01*
X191363429Y-144986143D01*
X191363429Y-144843286D01*
X191434857Y-144700429D01*
X191506286Y-144629000D01*
X191649143Y-144557572D01*
X191934857Y-144486143D01*
X192292000Y-144486143D01*
X192577714Y-144557572D01*
X192720571Y-144629000D01*
X192792000Y-144700429D01*
X192863429Y-144843286D01*
X192863429Y-146271857D02*
X192863429Y-146414714D01*
X192792000Y-146557571D01*
X192720571Y-146629000D01*
X192577714Y-146700429D01*
X192292000Y-146771857D01*
X191934857Y-146771857D01*
X191649143Y-146700429D01*
X191506286Y-146629000D01*
X191434857Y-146557571D01*
X191363429Y-146414714D01*
X191363429Y-146271857D01*
X191434857Y-146129000D01*
X191506286Y-146057571D01*
X191649143Y-145986143D01*
X191934857Y-145914714D01*
X192292000Y-145914714D01*
X192577714Y-145986143D01*
X192720571Y-146057571D01*
X192792000Y-146129000D01*
X192863429Y-146271857D01*
X192863429Y-147700428D02*
X192863429Y-147843285D01*
X192792000Y-147986142D01*
X192720571Y-148057571D01*
X192577714Y-148129000D01*
X192292000Y-148200428D01*
X191934857Y-148200428D01*
X191649143Y-148129000D01*
X191506286Y-148057571D01*
X191434857Y-147986142D01*
X191363429Y-147843285D01*
X191363429Y-147700428D01*
X191434857Y-147557571D01*
X191506286Y-147486142D01*
X191649143Y-147414714D01*
X191934857Y-147343285D01*
X192292000Y-147343285D01*
X192577714Y-147414714D01*
X192720571Y-147486142D01*
X192792000Y-147557571D01*
X192863429Y-147700428D01*
X191363429Y-149986142D02*
X192363429Y-149986142D01*
X192220571Y-149986142D02*
X192292000Y-150057570D01*
X192363429Y-150200428D01*
X192363429Y-150414713D01*
X192292000Y-150557570D01*
X192149143Y-150628999D01*
X191363429Y-150628999D01*
X192149143Y-150628999D02*
X192292000Y-150700428D01*
X192363429Y-150843285D01*
X192363429Y-151057570D01*
X192292000Y-151200428D01*
X192149143Y-151271856D01*
X191363429Y-151271856D01*
X191363429Y-151986142D02*
X192363429Y-151986142D01*
X192220571Y-151986142D02*
X192292000Y-152057570D01*
X192363429Y-152200428D01*
X192363429Y-152414713D01*
X192292000Y-152557570D01*
X192149143Y-152628999D01*
X191363429Y-152628999D01*
X192149143Y-152628999D02*
X192292000Y-152700428D01*
X192363429Y-152843285D01*
X192363429Y-153057570D01*
X192292000Y-153200428D01*
X192149143Y-153271856D01*
X191363429Y-153271856D01*
X193392000Y-126129000D02*
X193392000Y-168129000D01*
X201092000Y-126129000D02*
X190692000Y-126129000D01*
X201092000Y-168129000D02*
X190692000Y-168129000D01*
X193392000Y-168129000D02*
X192805579Y-167002496D01*
X193392000Y-168129000D02*
X193978421Y-167002496D01*
X193392000Y-126129000D02*
X192805579Y-127255504D01*
X193392000Y-126129000D02*
X193978421Y-127255504D01*
X298843429Y-141637430D02*
X298843429Y-140923144D01*
X298129143Y-140851715D01*
X298200571Y-140923144D01*
X298272000Y-141066001D01*
X298272000Y-141423144D01*
X298200571Y-141566001D01*
X298129143Y-141637430D01*
X297986286Y-141708858D01*
X297629143Y-141708858D01*
X297486286Y-141637430D01*
X297414857Y-141566001D01*
X297343429Y-141423144D01*
X297343429Y-141066001D01*
X297414857Y-140923144D01*
X297486286Y-140851715D01*
X298843429Y-142637429D02*
X298843429Y-142780286D01*
X298772000Y-142923143D01*
X298700571Y-142994572D01*
X298557714Y-143066001D01*
X298272000Y-143137429D01*
X297914857Y-143137429D01*
X297629143Y-143066001D01*
X297486286Y-142994572D01*
X297414857Y-142923143D01*
X297343429Y-142780286D01*
X297343429Y-142637429D01*
X297414857Y-142494572D01*
X297486286Y-142423143D01*
X297629143Y-142351715D01*
X297914857Y-142280286D01*
X298272000Y-142280286D01*
X298557714Y-142351715D01*
X298700571Y-142423143D01*
X298772000Y-142494572D01*
X298843429Y-142637429D01*
X297486286Y-143780286D02*
X297414857Y-143851714D01*
X297343429Y-143780286D01*
X297414857Y-143708857D01*
X297486286Y-143780286D01*
X297343429Y-143780286D01*
X298843429Y-144780286D02*
X298843429Y-144923143D01*
X298772000Y-145066000D01*
X298700571Y-145137429D01*
X298557714Y-145208858D01*
X298272000Y-145280286D01*
X297914857Y-145280286D01*
X297629143Y-145208858D01*
X297486286Y-145137429D01*
X297414857Y-145066000D01*
X297343429Y-144923143D01*
X297343429Y-144780286D01*
X297414857Y-144637429D01*
X297486286Y-144566000D01*
X297629143Y-144494572D01*
X297914857Y-144423143D01*
X298272000Y-144423143D01*
X298557714Y-144494572D01*
X298700571Y-144566000D01*
X298772000Y-144637429D01*
X298843429Y-144780286D01*
X298843429Y-145780286D02*
X298843429Y-146708857D01*
X298272000Y-146208857D01*
X298272000Y-146423143D01*
X298200571Y-146566000D01*
X298129143Y-146637429D01*
X297986286Y-146708857D01*
X297629143Y-146708857D01*
X297486286Y-146637429D01*
X297414857Y-146566000D01*
X297343429Y-146423143D01*
X297343429Y-145994571D01*
X297414857Y-145851714D01*
X297486286Y-145780286D01*
X298200571Y-147566000D02*
X298272000Y-147423142D01*
X298343429Y-147351714D01*
X298486286Y-147280285D01*
X298557714Y-147280285D01*
X298700571Y-147351714D01*
X298772000Y-147423142D01*
X298843429Y-147566000D01*
X298843429Y-147851714D01*
X298772000Y-147994571D01*
X298700571Y-148066000D01*
X298557714Y-148137428D01*
X298486286Y-148137428D01*
X298343429Y-148066000D01*
X298272000Y-147994571D01*
X298200571Y-147851714D01*
X298200571Y-147566000D01*
X298129143Y-147423142D01*
X298057714Y-147351714D01*
X297914857Y-147280285D01*
X297629143Y-147280285D01*
X297486286Y-147351714D01*
X297414857Y-147423142D01*
X297343429Y-147566000D01*
X297343429Y-147851714D01*
X297414857Y-147994571D01*
X297486286Y-148066000D01*
X297629143Y-148137428D01*
X297914857Y-148137428D01*
X298057714Y-148066000D01*
X298129143Y-147994571D01*
X298200571Y-147851714D01*
X297343429Y-149923142D02*
X298343429Y-149923142D01*
X298200571Y-149923142D02*
X298272000Y-149994570D01*
X298343429Y-150137428D01*
X298343429Y-150351713D01*
X298272000Y-150494570D01*
X298129143Y-150565999D01*
X297343429Y-150565999D01*
X298129143Y-150565999D02*
X298272000Y-150637428D01*
X298343429Y-150780285D01*
X298343429Y-150994570D01*
X298272000Y-151137428D01*
X298129143Y-151208856D01*
X297343429Y-151208856D01*
X297343429Y-151923142D02*
X298343429Y-151923142D01*
X298200571Y-151923142D02*
X298272000Y-151994570D01*
X298343429Y-152137428D01*
X298343429Y-152351713D01*
X298272000Y-152494570D01*
X298129143Y-152565999D01*
X297343429Y-152565999D01*
X298129143Y-152565999D02*
X298272000Y-152637428D01*
X298343429Y-152780285D01*
X298343429Y-152994570D01*
X298272000Y-153137428D01*
X298129143Y-153208856D01*
X297343429Y-153208856D01*
X296672000Y-122047000D02*
X296672000Y-172085000D01*
X288798000Y-122047000D02*
X299372000Y-122047000D01*
X288798000Y-172085000D02*
X299372000Y-172085000D01*
X296672000Y-172085000D02*
X296085579Y-170958496D01*
X296672000Y-172085000D02*
X297258421Y-170958496D01*
X296672000Y-122047000D02*
X296085579Y-123173504D01*
X296672000Y-122047000D02*
X297258421Y-123173504D01*
X290080429Y-51626287D02*
X290080429Y-52626287D01*
X288580429Y-51983430D01*
X290080429Y-53483429D02*
X290080429Y-53626286D01*
X290009000Y-53769143D01*
X289937571Y-53840572D01*
X289794714Y-53912001D01*
X289509000Y-53983429D01*
X289151857Y-53983429D01*
X288866143Y-53912001D01*
X288723286Y-53840572D01*
X288651857Y-53769143D01*
X288580429Y-53626286D01*
X288580429Y-53483429D01*
X288651857Y-53340572D01*
X288723286Y-53269143D01*
X288866143Y-53197715D01*
X289151857Y-53126286D01*
X289509000Y-53126286D01*
X289794714Y-53197715D01*
X289937571Y-53269143D01*
X290009000Y-53340572D01*
X290080429Y-53483429D01*
X288723286Y-54626286D02*
X288651857Y-54697714D01*
X288580429Y-54626286D01*
X288651857Y-54554857D01*
X288723286Y-54626286D01*
X288580429Y-54626286D01*
X288580429Y-56126286D02*
X288580429Y-55269143D01*
X288580429Y-55697715D02*
X290080429Y-55697715D01*
X289866143Y-55554858D01*
X289723286Y-55412000D01*
X289651857Y-55269143D01*
X290080429Y-57054857D02*
X290080429Y-57197714D01*
X290009000Y-57340571D01*
X289937571Y-57412000D01*
X289794714Y-57483429D01*
X289509000Y-57554857D01*
X289151857Y-57554857D01*
X288866143Y-57483429D01*
X288723286Y-57412000D01*
X288651857Y-57340571D01*
X288580429Y-57197714D01*
X288580429Y-57054857D01*
X288651857Y-56912000D01*
X288723286Y-56840571D01*
X288866143Y-56769143D01*
X289151857Y-56697714D01*
X289509000Y-56697714D01*
X289794714Y-56769143D01*
X289937571Y-56840571D01*
X290009000Y-56912000D01*
X290080429Y-57054857D01*
X289580429Y-58840571D02*
X288580429Y-58840571D01*
X290151857Y-58483428D02*
X289080429Y-58126285D01*
X289080429Y-59054857D01*
X288580429Y-60769142D02*
X289580429Y-60769142D01*
X289437571Y-60769142D02*
X289509000Y-60840570D01*
X289580429Y-60983428D01*
X289580429Y-61197713D01*
X289509000Y-61340570D01*
X289366143Y-61411999D01*
X288580429Y-61411999D01*
X289366143Y-61411999D02*
X289509000Y-61483428D01*
X289580429Y-61626285D01*
X289580429Y-61840570D01*
X289509000Y-61983428D01*
X289366143Y-62054856D01*
X288580429Y-62054856D01*
X288580429Y-62769142D02*
X289580429Y-62769142D01*
X289437571Y-62769142D02*
X289509000Y-62840570D01*
X289580429Y-62983428D01*
X289580429Y-63197713D01*
X289509000Y-63340570D01*
X289366143Y-63411999D01*
X288580429Y-63411999D01*
X289366143Y-63411999D02*
X289509000Y-63483428D01*
X289580429Y-63626285D01*
X289580429Y-63840570D01*
X289509000Y-63983428D01*
X289366143Y-64054856D01*
X288580429Y-64054856D01*
X287909000Y-22860000D02*
X287909000Y-92964000D01*
X279527000Y-22860000D02*
X290609000Y-22860000D01*
X279527000Y-92964000D02*
X290609000Y-92964000D01*
X287909000Y-92964000D02*
X287322579Y-91837496D01*
X287909000Y-92964000D02*
X288495421Y-91837496D01*
X287909000Y-22860000D02*
X287322579Y-23986504D01*
X287909000Y-22860000D02*
X288495421Y-23986504D01*
X231065878Y-18488053D02*
X231351592Y-18488817D01*
X231494640Y-18417771D01*
X231566259Y-18346533D01*
X231709689Y-18132631D01*
X231781881Y-17847108D01*
X231783409Y-17275682D01*
X231712363Y-17132635D01*
X231641125Y-17061015D01*
X231498459Y-16989204D01*
X231212747Y-16988440D01*
X231069698Y-17059487D01*
X230998079Y-17130725D01*
X230926269Y-17273390D01*
X230925314Y-17630532D01*
X230996360Y-17773579D01*
X231067597Y-17845198D01*
X231210264Y-17917009D01*
X231495977Y-17917773D01*
X231639024Y-17846726D01*
X231710644Y-17775489D01*
X231782454Y-17632824D01*
X233068545Y-17493404D02*
X233065871Y-18493400D01*
X232712931Y-16921023D02*
X232352925Y-17991492D01*
X233281493Y-17993975D01*
X233851964Y-18352645D02*
X233923201Y-18424265D01*
X233851582Y-18495501D01*
X233780345Y-18423883D01*
X233851964Y-18352645D01*
X233851582Y-18495501D01*
X234637294Y-18497602D02*
X234923008Y-18498366D01*
X235066055Y-18427320D01*
X235137674Y-18356083D01*
X235281104Y-18142180D01*
X235353296Y-17856657D01*
X235354824Y-17285231D01*
X235283778Y-17142184D01*
X235212540Y-17070564D01*
X235069875Y-16998753D01*
X234784162Y-16997989D01*
X234641113Y-17069036D01*
X234569495Y-17140274D01*
X234497684Y-17282939D01*
X234496729Y-17640081D01*
X234567776Y-17783129D01*
X234639012Y-17854747D01*
X234781679Y-17926558D01*
X235067392Y-17927322D01*
X235210439Y-17856275D01*
X235282059Y-17785039D01*
X235353869Y-17642373D01*
X236065859Y-18501422D02*
X236351573Y-18502186D01*
X236494621Y-18431140D01*
X236566240Y-18359902D01*
X236709670Y-18146000D01*
X236781862Y-17860477D01*
X236783390Y-17289051D01*
X236712344Y-17146004D01*
X236641106Y-17074384D01*
X236498441Y-17002573D01*
X236212728Y-17001809D01*
X236069679Y-17072856D01*
X235998060Y-17144094D01*
X235926250Y-17286759D01*
X235925295Y-17643901D01*
X235996342Y-17786948D01*
X236067578Y-17858567D01*
X236210245Y-17930378D01*
X236495958Y-17931142D01*
X236639005Y-17860095D01*
X236710625Y-17788858D01*
X236782435Y-17646193D01*
X238069863Y-17006775D02*
X237784150Y-17006011D01*
X237641103Y-17077058D01*
X237569483Y-17148295D01*
X237426053Y-17362198D01*
X237353861Y-17647721D01*
X237352333Y-18219147D01*
X237423380Y-18362194D01*
X237494616Y-18433814D01*
X237637283Y-18505623D01*
X237922996Y-18506387D01*
X238066043Y-18435342D01*
X238137663Y-18364104D01*
X238209473Y-18221438D01*
X238210428Y-17864297D01*
X238139382Y-17721249D01*
X238068144Y-17649630D01*
X237925479Y-17577820D01*
X237639766Y-17577056D01*
X237496717Y-17648103D01*
X237425098Y-17719339D01*
X237353288Y-17862005D01*
X239994416Y-18511926D02*
X239997090Y-17511930D01*
X239996708Y-17654787D02*
X240068327Y-17583549D01*
X240211375Y-17512502D01*
X240425660Y-17513075D01*
X240568325Y-17584886D01*
X240639372Y-17727934D01*
X240637271Y-18513645D01*
X240639372Y-17727934D02*
X240711183Y-17585268D01*
X240854230Y-17514221D01*
X241068514Y-17514794D01*
X241211181Y-17586605D01*
X241282227Y-17729652D01*
X241280126Y-18515364D01*
X241994409Y-18517274D02*
X241997083Y-17517277D01*
X241996701Y-17660135D02*
X242068320Y-17588897D01*
X242211368Y-17517850D01*
X242425653Y-17518423D01*
X242568318Y-17590234D01*
X242639365Y-17733281D01*
X242637264Y-18518992D01*
X242639365Y-17733281D02*
X242711176Y-17590616D01*
X242854223Y-17519569D01*
X243068507Y-17520142D01*
X243211174Y-17591953D01*
X243282220Y-17735000D01*
X243280119Y-18520711D01*
X284633490Y-19302713D02*
X189637490Y-19048713D01*
X284607000Y-29210000D02*
X284640709Y-16602723D01*
X189611000Y-28956000D02*
X189644709Y-16348723D01*
X189637490Y-19048713D02*
X190765558Y-18465306D01*
X189637490Y-19048713D02*
X190762422Y-19638144D01*
X284633490Y-19302713D02*
X283508558Y-18713282D01*
X284633490Y-19302713D02*
X283505422Y-19886120D01*
M02*
