G04 #@! TF.FileFunction,Soldermask,Top*
%FSLAX46Y46*%
G04 Gerber Fmt 4.6, Leading zero omitted, Abs format (unit mm)*
G04 Created by KiCad (PCBNEW 4.0.6) date 2017 August 07, Monday 22:44:53*
%MOMM*%
%LPD*%
G01*
G04 APERTURE LIST*
%ADD10C,0.100000*%
%ADD11R,2.100000X3.600000*%
%ADD12O,2.100000X3.600000*%
%ADD13R,2.400000X1.600000*%
%ADD14O,2.400000X1.600000*%
%ADD15R,1.350000X1.350000*%
%ADD16O,1.350000X1.350000*%
%ADD17R,3.600000X2.100000*%
%ADD18O,3.600000X2.100000*%
%ADD19C,2.400000*%
%ADD20O,2.400000X2.400000*%
%ADD21C,2.500000*%
%ADD22R,1.300000X1.300000*%
%ADD23C,1.300000*%
%ADD24C,5.000000*%
%ADD25C,2.000000*%
%ADD26C,1.620000*%
%ADD27C,9.100000*%
%ADD28R,2.400000X3.000000*%
%ADD29C,3.100000*%
%ADD30R,1.700000X1.700000*%
%ADD31C,2.200000*%
%ADD32C,15.000000*%
%ADD33C,2.100000*%
%ADD34O,1.700000X1.700000*%
%ADD35R,1.250000X1.500000*%
%ADD36R,1.500000X1.250000*%
%ADD37R,1.500000X1.300000*%
%ADD38R,3.500000X1.800000*%
%ADD39R,1.300000X1.500000*%
%ADD40R,1.143000X0.508000*%
%ADD41R,1.600000X3.500000*%
%ADD42C,1.524000*%
%ADD43C,5.700000*%
%ADD44R,0.750000X0.800000*%
%ADD45R,1.600000X2.400000*%
%ADD46O,1.600000X2.400000*%
%ADD47R,1.600000X1.600000*%
%ADD48C,1.600000*%
%ADD49R,1.100000X1.100000*%
%ADD50R,1.500000X1.500000*%
%ADD51C,7.500000*%
G04 APERTURE END LIST*
D10*
D11*
X131445000Y-79476600D03*
D12*
X136445000Y-79476600D03*
X141445000Y-79476600D03*
D13*
X139827000Y-55753000D03*
D14*
X132207000Y-48133000D03*
X139827000Y-53213000D03*
X132207000Y-50673000D03*
X139827000Y-50673000D03*
X132207000Y-53213000D03*
X139827000Y-48133000D03*
X132207000Y-55753000D03*
D15*
X145923000Y-36957000D03*
D16*
X145923000Y-38957000D03*
D17*
X157454600Y-53568600D03*
D18*
X157454600Y-48568600D03*
D19*
X39751000Y-61595000D03*
D20*
X39751000Y-83995000D03*
D19*
X39769000Y-46431200D03*
D20*
X39769000Y-24031200D03*
D19*
X54769000Y-83947000D03*
D20*
X54769000Y-61547000D03*
D19*
X54769000Y-24003000D03*
D20*
X54769000Y-46403000D03*
D19*
X69769000Y-61595000D03*
D20*
X69769000Y-83995000D03*
D19*
X69769000Y-46355000D03*
D20*
X69769000Y-23955000D03*
D21*
X23241000Y-57665000D03*
X23241000Y-50165000D03*
D22*
X131318000Y-66802000D03*
D23*
X133818000Y-66802000D03*
D22*
X138811000Y-66802000D03*
D23*
X141311000Y-66802000D03*
D24*
X159769000Y-28645000D03*
X159769000Y-79645000D03*
X29769000Y-79645000D03*
X29769000Y-29645000D03*
D25*
X87249000Y-61849000D03*
X87249000Y-46609000D03*
D21*
X107569000Y-61849000D03*
X107569000Y-54229000D03*
X107569000Y-46609000D03*
D26*
X119735600Y-45596800D03*
X124735600Y-48096800D03*
X119735600Y-50596800D03*
X119735600Y-56163200D03*
X124735600Y-58663200D03*
X119735600Y-61163200D03*
D27*
X99562000Y-141402000D03*
D28*
X83762000Y-126372000D03*
X83762000Y-149632000D03*
X83762000Y-134222000D03*
X86942000Y-149632000D03*
X86942000Y-134222000D03*
X83762000Y-141922000D03*
X86942000Y-141922000D03*
X90112000Y-141922000D03*
X83762000Y-157322000D03*
X86942000Y-157322000D03*
X91942000Y-157322000D03*
X99562000Y-126372000D03*
X104562000Y-157322000D03*
X109362000Y-157322000D03*
X114162000Y-157322000D03*
X114162000Y-149122000D03*
X109362000Y-133332000D03*
X109362000Y-126372000D03*
X109362000Y-140922000D03*
X114162000Y-140922000D03*
X114162000Y-133332000D03*
X115362000Y-126372000D03*
D29*
X81462000Y-122302000D03*
D30*
X61518800Y-114858800D03*
X61518800Y-144703800D03*
X137591800Y-114985800D03*
D31*
X72644000Y-171958000D03*
X72644000Y-156958000D03*
X72644000Y-153416000D03*
X72644000Y-138416000D03*
X72644000Y-134112000D03*
X72644000Y-119112000D03*
D19*
X146939000Y-132969000D03*
D20*
X146939000Y-148209000D03*
D19*
X49149000Y-147701000D03*
D20*
X49149000Y-132461000D03*
D19*
X67818000Y-112649000D03*
D20*
X52578000Y-112649000D03*
D32*
X137562000Y-157152000D03*
X137562000Y-125652000D03*
X61562000Y-125652000D03*
X61562000Y-157152000D03*
D11*
X91186000Y-110617000D03*
D12*
X86186000Y-110617000D03*
X81186000Y-110617000D03*
D11*
X81127600Y-172339000D03*
D12*
X86127600Y-172339000D03*
X91127600Y-172339000D03*
D11*
X109220000Y-110617000D03*
D12*
X104220000Y-110617000D03*
X99220000Y-110617000D03*
D11*
X99263200Y-172339000D03*
D12*
X104263200Y-172339000D03*
X109263200Y-172339000D03*
D11*
X127254000Y-110617000D03*
D12*
X122254000Y-110617000D03*
X117254000Y-110617000D03*
D11*
X117348000Y-172339000D03*
D12*
X122348000Y-172339000D03*
X127348000Y-172339000D03*
D17*
X168275000Y-146304000D03*
D18*
X168275000Y-141304000D03*
X168275000Y-136304000D03*
D17*
X31369000Y-137414000D03*
D18*
X31369000Y-142414000D03*
D10*
G36*
X39062130Y-123300254D02*
X36516546Y-120754670D01*
X38001470Y-119269746D01*
X40547054Y-121815330D01*
X39062130Y-123300254D01*
X39062130Y-123300254D01*
G37*
D33*
X41537004Y-117219136D02*
X42597664Y-118279796D01*
D30*
X276092000Y-138329000D03*
D34*
X276092000Y-135789000D03*
X276092000Y-133249000D03*
D17*
X275492000Y-154629000D03*
D18*
X275492000Y-149629000D03*
X275492000Y-144629000D03*
D35*
X227392000Y-134479000D03*
X227392000Y-131979000D03*
D36*
X255742000Y-134429000D03*
X253242000Y-134429000D03*
D35*
X253492000Y-137561000D03*
X253492000Y-140061000D03*
X246316500Y-134957500D03*
X246316500Y-137457500D03*
X246316500Y-139783500D03*
X246316500Y-142283500D03*
D37*
X223536500Y-146558000D03*
X220836500Y-146558000D03*
D38*
X270724000Y-132461000D03*
X265724000Y-132461000D03*
D30*
X206092000Y-156129000D03*
D34*
X206092000Y-153589000D03*
X206092000Y-151049000D03*
X206092000Y-148509000D03*
X206092000Y-145969000D03*
X206092000Y-143429000D03*
X206092000Y-140889000D03*
X206092000Y-138349000D03*
X206092000Y-135809000D03*
X206092000Y-133269000D03*
D11*
X208407000Y-161734500D03*
D12*
X213407000Y-161734500D03*
X218407000Y-161734500D03*
X223407000Y-161734500D03*
D11*
X251714000Y-161861500D03*
D12*
X256714000Y-161861500D03*
X261714000Y-161861500D03*
D39*
X218376500Y-133587500D03*
X218376500Y-136287500D03*
D37*
X215820000Y-146558000D03*
X218520000Y-146558000D03*
D39*
X221996000Y-134921000D03*
X221996000Y-137621000D03*
D37*
X258442000Y-132529000D03*
X255742000Y-132529000D03*
X265985000Y-144145000D03*
X268685000Y-144145000D03*
D39*
X271742000Y-161029000D03*
X271742000Y-163729000D03*
X274492000Y-163729000D03*
X274492000Y-161029000D03*
D30*
X261592000Y-132529000D03*
D40*
X231394000Y-132461000D03*
X231394000Y-133731000D03*
X231394000Y-135001000D03*
X231394000Y-136271000D03*
X231394000Y-137541000D03*
X231394000Y-138811000D03*
X231394000Y-140081000D03*
X231394000Y-141351000D03*
X241554000Y-141351000D03*
X241554000Y-140081000D03*
X241554000Y-138811000D03*
X241554000Y-137541000D03*
X241554000Y-136271000D03*
X241554000Y-135001000D03*
X241554000Y-133731000D03*
X241554000Y-132461000D03*
D41*
X223583500Y-156179500D03*
X223583500Y-150779500D03*
D35*
X217551000Y-154729500D03*
X217551000Y-152229500D03*
D41*
X252412500Y-150335000D03*
X252412500Y-155735000D03*
X260096000Y-155735000D03*
X260096000Y-150335000D03*
D39*
X271742000Y-168729000D03*
X271742000Y-166029000D03*
X274492000Y-168729000D03*
X274492000Y-166029000D03*
D42*
X229997000Y-155575000D03*
X232537000Y-155575000D03*
X240157000Y-155575000D03*
X242697000Y-155575000D03*
X245237000Y-155575000D03*
D43*
X201092000Y-126129000D03*
X201092000Y-168129000D03*
X281092000Y-126129000D03*
X281092000Y-168129000D03*
D44*
X229792000Y-133879000D03*
X229792000Y-132379000D03*
X244592000Y-134979000D03*
X244592000Y-136479000D03*
X243492000Y-140079000D03*
X243492000Y-141579000D03*
D11*
X213487000Y-82550000D03*
D12*
X218487000Y-82550000D03*
X223487000Y-82550000D03*
D11*
X232791000Y-82550000D03*
D12*
X237791000Y-82550000D03*
X242791000Y-82550000D03*
X247791000Y-82550000D03*
D11*
X257175000Y-82550000D03*
D12*
X262175000Y-82550000D03*
D45*
X235077000Y-40894000D03*
D46*
X242697000Y-33274000D03*
X237617000Y-40894000D03*
X240157000Y-33274000D03*
X240157000Y-40894000D03*
X237617000Y-33274000D03*
X242697000Y-40894000D03*
X235077000Y-33274000D03*
D45*
X258699000Y-41148000D03*
D46*
X266319000Y-33528000D03*
X261239000Y-41148000D03*
X263779000Y-33528000D03*
X263779000Y-41148000D03*
X261239000Y-33528000D03*
X266319000Y-41148000D03*
X258699000Y-33528000D03*
D45*
X210693000Y-40894000D03*
D46*
X218313000Y-33274000D03*
X213233000Y-40894000D03*
X215773000Y-33274000D03*
X215773000Y-40894000D03*
X213233000Y-33274000D03*
X218313000Y-40894000D03*
X210693000Y-33274000D03*
D47*
X206883000Y-73533000D03*
D48*
X204383000Y-73533000D03*
D47*
X223901000Y-74168000D03*
D48*
X226401000Y-74168000D03*
D26*
X218313000Y-53006000D03*
X213313000Y-50506000D03*
X218313000Y-48006000D03*
X242697000Y-53006000D03*
X237697000Y-50506000D03*
X242697000Y-48006000D03*
X266319000Y-53260000D03*
X261319000Y-50760000D03*
X266319000Y-48260000D03*
D49*
X230441000Y-66548000D03*
X230441000Y-61468000D03*
X230441000Y-64008000D03*
D50*
X243141000Y-70358000D03*
X240601000Y-70358000D03*
X238061000Y-70358000D03*
X243141000Y-57658000D03*
X240601000Y-57658000D03*
X238061000Y-57658000D03*
D49*
X254317000Y-66548000D03*
X254317000Y-61468000D03*
X254317000Y-64008000D03*
D50*
X267017000Y-70358000D03*
X264477000Y-70358000D03*
X261937000Y-70358000D03*
X267017000Y-57658000D03*
X264477000Y-57658000D03*
X261937000Y-57658000D03*
D49*
X206311000Y-66548000D03*
X206311000Y-61468000D03*
X206311000Y-64008000D03*
D50*
X219011000Y-70358000D03*
X216471000Y-70358000D03*
X213931000Y-70358000D03*
X219011000Y-57658000D03*
X216471000Y-57658000D03*
X213931000Y-57658000D03*
D51*
X195573000Y-28976000D03*
X278573000Y-28976000D03*
X195573000Y-86976000D03*
X278573000Y-86976000D03*
M02*
