G04 #@! TF.FileFunction,Paste,Top*
%FSLAX46Y46*%
G04 Gerber Fmt 4.6, Leading zero omitted, Abs format (unit mm)*
G04 Created by KiCad (PCBNEW 4.0.6) date 2017 August 14, Monday 14:56:33*
%MOMM*%
%LPD*%
G01*
G04 APERTURE LIST*
%ADD10C,0.100000*%
%ADD11R,1.250000X1.500000*%
%ADD12R,1.500000X1.250000*%
%ADD13R,1.500000X1.300000*%
%ADD14R,3.500000X1.800000*%
%ADD15R,1.300000X1.500000*%
%ADD16R,1.143000X0.508000*%
%ADD17R,1.600000X3.500000*%
%ADD18R,0.750000X0.800000*%
G04 APERTURE END LIST*
D10*
D11*
X46300000Y-99350000D03*
X46300000Y-96850000D03*
D12*
X74650000Y-99300000D03*
X72150000Y-99300000D03*
D11*
X72400000Y-102432000D03*
X72400000Y-104932000D03*
X65224500Y-99828500D03*
X65224500Y-102328500D03*
X65224500Y-104654500D03*
X65224500Y-107154500D03*
D13*
X42444500Y-111429000D03*
X39744500Y-111429000D03*
D14*
X89632000Y-97332000D03*
X84632000Y-97332000D03*
D15*
X37284500Y-98458500D03*
X37284500Y-101158500D03*
D13*
X34728000Y-111429000D03*
X37428000Y-111429000D03*
D15*
X40904000Y-99792000D03*
X40904000Y-102492000D03*
D13*
X77350000Y-97400000D03*
X74650000Y-97400000D03*
X84893000Y-109016000D03*
X87593000Y-109016000D03*
D15*
X90650000Y-125900000D03*
X90650000Y-128600000D03*
X93400000Y-128600000D03*
X93400000Y-125900000D03*
D16*
X50302000Y-97332000D03*
X50302000Y-98602000D03*
X50302000Y-99872000D03*
X50302000Y-101142000D03*
X50302000Y-102412000D03*
X50302000Y-103682000D03*
X50302000Y-104952000D03*
X50302000Y-106222000D03*
X60462000Y-106222000D03*
X60462000Y-104952000D03*
X60462000Y-103682000D03*
X60462000Y-102412000D03*
X60462000Y-101142000D03*
X60462000Y-99872000D03*
X60462000Y-98602000D03*
X60462000Y-97332000D03*
D17*
X42491500Y-121050500D03*
X42491500Y-115650500D03*
D11*
X36459000Y-119600500D03*
X36459000Y-117100500D03*
D17*
X71320500Y-115206000D03*
X71320500Y-120606000D03*
X79004000Y-120606000D03*
X79004000Y-115206000D03*
D15*
X90650000Y-133600000D03*
X90650000Y-130900000D03*
X93400000Y-133600000D03*
X93400000Y-130900000D03*
D18*
X48700000Y-98750000D03*
X48700000Y-97250000D03*
X63500000Y-99850000D03*
X63500000Y-101350000D03*
X62400000Y-104950000D03*
X62400000Y-106450000D03*
M02*
