G04 #@! TF.FileFunction,Copper,L1,Top,Signal*
%FSLAX46Y46*%
G04 Gerber Fmt 4.6, Leading zero omitted, Abs format (unit mm)*
G04 Created by KiCad (PCBNEW 4.0.6) date 2017 August 14, Monday 14:56:33*
%MOMM*%
%LPD*%
G01*
G04 APERTURE LIST*
%ADD10C,0.100000*%
%ADD11R,2.100000X3.600000*%
%ADD12O,2.100000X3.600000*%
%ADD13R,1.600000X2.400000*%
%ADD14O,1.600000X2.400000*%
%ADD15R,1.600000X1.600000*%
%ADD16C,1.600000*%
%ADD17C,1.620000*%
%ADD18R,1.100000X1.100000*%
%ADD19R,1.500000X1.500000*%
%ADD20C,7.500000*%
%ADD21C,7.600000*%
%ADD22C,2.000000*%
%ADD23C,3.000000*%
%ADD24C,1.500000*%
%ADD25O,6.000000X9.000000*%
%ADD26O,9.000000X6.000000*%
%ADD27R,1.700000X1.700000*%
%ADD28O,1.700000X1.700000*%
%ADD29R,3.600000X2.100000*%
%ADD30O,3.600000X2.100000*%
%ADD31R,1.250000X1.500000*%
%ADD32R,1.500000X1.250000*%
%ADD33R,1.500000X1.300000*%
%ADD34R,3.500000X1.800000*%
%ADD35R,1.300000X1.500000*%
%ADD36R,1.143000X0.508000*%
%ADD37R,1.600000X3.500000*%
%ADD38C,5.700000*%
%ADD39R,0.750000X0.800000*%
%ADD40R,2.400000X1.600000*%
%ADD41O,2.400000X1.600000*%
%ADD42R,1.350000X1.350000*%
%ADD43O,1.350000X1.350000*%
%ADD44C,2.400000*%
%ADD45O,2.400000X2.400000*%
%ADD46C,2.500000*%
%ADD47R,1.300000X1.300000*%
%ADD48C,1.300000*%
%ADD49C,5.000000*%
%ADD50R,2.400000X3.000000*%
%ADD51C,2.200000*%
%ADD52C,15.000000*%
%ADD53C,2.100000*%
%ADD54C,1.000000*%
%ADD55C,0.600000*%
%ADD56C,1.500000*%
%ADD57C,1.000000*%
%ADD58C,0.700000*%
%ADD59C,0.500000*%
%ADD60C,2.000000*%
%ADD61C,0.400000*%
G04 APERTURE END LIST*
D10*
D11*
X38354000Y-74168000D03*
D12*
X43354000Y-74168000D03*
X48354000Y-74168000D03*
D11*
X57658000Y-74168000D03*
D12*
X62658000Y-74168000D03*
X67658000Y-74168000D03*
X72658000Y-74168000D03*
D11*
X82042000Y-74168000D03*
D12*
X87042000Y-74168000D03*
D13*
X59944000Y-32512000D03*
D14*
X67564000Y-24892000D03*
X62484000Y-32512000D03*
X65024000Y-24892000D03*
X65024000Y-32512000D03*
X62484000Y-24892000D03*
X67564000Y-32512000D03*
X59944000Y-24892000D03*
D13*
X83566000Y-32766000D03*
D14*
X91186000Y-25146000D03*
X86106000Y-32766000D03*
X88646000Y-25146000D03*
X88646000Y-32766000D03*
X86106000Y-25146000D03*
X91186000Y-32766000D03*
X83566000Y-25146000D03*
D13*
X35560000Y-32512000D03*
D14*
X43180000Y-24892000D03*
X38100000Y-32512000D03*
X40640000Y-24892000D03*
X40640000Y-32512000D03*
X38100000Y-24892000D03*
X43180000Y-32512000D03*
X35560000Y-24892000D03*
D15*
X31750000Y-65151000D03*
D16*
X29250000Y-65151000D03*
D15*
X48768000Y-65786000D03*
D16*
X51268000Y-65786000D03*
D17*
X43180000Y-44624000D03*
X38180000Y-42124000D03*
X43180000Y-39624000D03*
X67564000Y-44624000D03*
X62564000Y-42124000D03*
X67564000Y-39624000D03*
X91186000Y-44878000D03*
X86186000Y-42378000D03*
X91186000Y-39878000D03*
D18*
X55308000Y-58166000D03*
X55308000Y-53086000D03*
X55308000Y-55626000D03*
D19*
X68008000Y-61976000D03*
X65468000Y-61976000D03*
X62928000Y-61976000D03*
X68008000Y-49276000D03*
X65468000Y-49276000D03*
X62928000Y-49276000D03*
D18*
X79184000Y-58166000D03*
X79184000Y-53086000D03*
X79184000Y-55626000D03*
D19*
X91884000Y-61976000D03*
X89344000Y-61976000D03*
X86804000Y-61976000D03*
X91884000Y-49276000D03*
X89344000Y-49276000D03*
X86804000Y-49276000D03*
D18*
X31178000Y-58166000D03*
X31178000Y-53086000D03*
X31178000Y-55626000D03*
D19*
X43878000Y-61976000D03*
X41338000Y-61976000D03*
X38798000Y-61976000D03*
X43878000Y-49276000D03*
X41338000Y-49276000D03*
X38798000Y-49276000D03*
D20*
X20440000Y-20594000D03*
X103440000Y-20594000D03*
X20440000Y-78594000D03*
X103440000Y-78594000D03*
D21*
X118781000Y-21196000D03*
X118781000Y-79196000D03*
X244781000Y-79196000D03*
D22*
X201891000Y-63526000D03*
X149391000Y-35026000D03*
X201891000Y-35026000D03*
D23*
X199141000Y-37901000D03*
X195141000Y-37901000D03*
X177641000Y-37901000D03*
X173641000Y-37901000D03*
X162141000Y-37901000D03*
X199141000Y-60651000D03*
X180641000Y-60651000D03*
X167641000Y-60651000D03*
X162141000Y-60651000D03*
X152141000Y-60651000D03*
X152141000Y-37901000D03*
D22*
X149391000Y-63526000D03*
D11*
X139700000Y-25196000D03*
D12*
X134700000Y-25196000D03*
X129700000Y-25196000D03*
D11*
X185547000Y-25196000D03*
D12*
X180547000Y-25196000D03*
X175547000Y-25196000D03*
D11*
X224155000Y-25196000D03*
D12*
X219155000Y-25196000D03*
D11*
X153416000Y-75196000D03*
D12*
X158416000Y-75196000D03*
D11*
X200152000Y-25146000D03*
D12*
X195152000Y-25146000D03*
D11*
X169037000Y-75196000D03*
D12*
X174037000Y-75196000D03*
X179037000Y-75196000D03*
X184037000Y-75196000D03*
D24*
X231521000Y-61971000D03*
X231521000Y-65791000D03*
D25*
X210121000Y-58631000D03*
X210121000Y-69131000D03*
D24*
X231521000Y-63881000D03*
X231521000Y-38222000D03*
X231521000Y-42042000D03*
D25*
X210121000Y-34882000D03*
X210121000Y-45382000D03*
D24*
X231521000Y-40132000D03*
X136657000Y-70866000D03*
X132837000Y-70866000D03*
D26*
X139997000Y-49466000D03*
X129497000Y-49466000D03*
D24*
X134747000Y-70866000D03*
D21*
X244781000Y-21196000D03*
D27*
X95000000Y-103200000D03*
D28*
X95000000Y-100660000D03*
X95000000Y-98120000D03*
D29*
X94400000Y-119500000D03*
D30*
X94400000Y-114500000D03*
X94400000Y-109500000D03*
D31*
X46300000Y-99350000D03*
X46300000Y-96850000D03*
D32*
X74650000Y-99300000D03*
X72150000Y-99300000D03*
D31*
X72400000Y-102432000D03*
X72400000Y-104932000D03*
X65224500Y-99828500D03*
X65224500Y-102328500D03*
X65224500Y-104654500D03*
X65224500Y-107154500D03*
D33*
X42444500Y-111429000D03*
X39744500Y-111429000D03*
D34*
X89632000Y-97332000D03*
X84632000Y-97332000D03*
D27*
X25000000Y-121000000D03*
D28*
X25000000Y-118460000D03*
X25000000Y-115920000D03*
X25000000Y-113380000D03*
X25000000Y-110840000D03*
X25000000Y-108300000D03*
X25000000Y-105760000D03*
X25000000Y-103220000D03*
X25000000Y-100680000D03*
X25000000Y-98140000D03*
D11*
X27315000Y-126605500D03*
D12*
X32315000Y-126605500D03*
X37315000Y-126605500D03*
X42315000Y-126605500D03*
D11*
X70622000Y-126732500D03*
D12*
X75622000Y-126732500D03*
X80622000Y-126732500D03*
D35*
X37284500Y-98458500D03*
X37284500Y-101158500D03*
D33*
X34728000Y-111429000D03*
X37428000Y-111429000D03*
D35*
X40904000Y-99792000D03*
X40904000Y-102492000D03*
D33*
X77350000Y-97400000D03*
X74650000Y-97400000D03*
X84893000Y-109016000D03*
X87593000Y-109016000D03*
D35*
X90650000Y-125900000D03*
X90650000Y-128600000D03*
X93400000Y-128600000D03*
X93400000Y-125900000D03*
D27*
X80500000Y-97400000D03*
D36*
X50302000Y-97332000D03*
X50302000Y-98602000D03*
X50302000Y-99872000D03*
X50302000Y-101142000D03*
X50302000Y-102412000D03*
X50302000Y-103682000D03*
X50302000Y-104952000D03*
X50302000Y-106222000D03*
X60462000Y-106222000D03*
X60462000Y-104952000D03*
X60462000Y-103682000D03*
X60462000Y-102412000D03*
X60462000Y-101142000D03*
X60462000Y-99872000D03*
X60462000Y-98602000D03*
X60462000Y-97332000D03*
D37*
X42491500Y-121050500D03*
X42491500Y-115650500D03*
D31*
X36459000Y-119600500D03*
X36459000Y-117100500D03*
D37*
X71320500Y-115206000D03*
X71320500Y-120606000D03*
X79004000Y-120606000D03*
X79004000Y-115206000D03*
D35*
X90650000Y-133600000D03*
X90650000Y-130900000D03*
X93400000Y-133600000D03*
X93400000Y-130900000D03*
D38*
X20000000Y-91000000D03*
X20000000Y-133000000D03*
X100000000Y-91000000D03*
X100000000Y-133000000D03*
D39*
X48700000Y-98750000D03*
X48700000Y-97250000D03*
X63500000Y-99850000D03*
X63500000Y-101350000D03*
X62400000Y-104950000D03*
X62400000Y-106450000D03*
D22*
X48880000Y-120500000D03*
X51420000Y-120500000D03*
X59040000Y-120500000D03*
X61580000Y-120500000D03*
X64120000Y-120500000D03*
D11*
X220676000Y-148831600D03*
D12*
X225676000Y-148831600D03*
X230676000Y-148831600D03*
D40*
X229058000Y-125108000D03*
D41*
X221438000Y-117488000D03*
X229058000Y-122568000D03*
X221438000Y-120028000D03*
X229058000Y-120028000D03*
X221438000Y-122568000D03*
X229058000Y-117488000D03*
X221438000Y-125108000D03*
D42*
X235154000Y-106312000D03*
D43*
X235154000Y-108312000D03*
D29*
X246685600Y-122923600D03*
D30*
X246685600Y-117923600D03*
D44*
X128982000Y-130950000D03*
D45*
X128982000Y-153350000D03*
D44*
X129000000Y-115786200D03*
D45*
X129000000Y-93386200D03*
D44*
X144000000Y-153302000D03*
D45*
X144000000Y-130902000D03*
D44*
X144000000Y-93358000D03*
D45*
X144000000Y-115758000D03*
D44*
X159000000Y-130950000D03*
D45*
X159000000Y-153350000D03*
D44*
X159000000Y-115710000D03*
D45*
X159000000Y-93310000D03*
D46*
X112472000Y-127020000D03*
X112472000Y-119520000D03*
D47*
X220549000Y-136157000D03*
D48*
X223049000Y-136157000D03*
D47*
X228042000Y-136157000D03*
D48*
X230542000Y-136157000D03*
D49*
X249000000Y-98000000D03*
X249000000Y-149000000D03*
X119000000Y-149000000D03*
X119000000Y-99000000D03*
D22*
X176480000Y-131204000D03*
X176480000Y-115964000D03*
D46*
X196800000Y-131204000D03*
X196800000Y-123584000D03*
X196800000Y-115964000D03*
D17*
X208966600Y-114951800D03*
X213966600Y-117451800D03*
X208966600Y-119951800D03*
X208966600Y-125518200D03*
X213966600Y-128018200D03*
X208966600Y-130518200D03*
D50*
X116200000Y43030000D03*
X116200000Y19770000D03*
X116200000Y35180000D03*
X119380000Y19770000D03*
X119380000Y35180000D03*
X116200000Y27480000D03*
X119380000Y27480000D03*
X122550000Y27480000D03*
X116200000Y12080000D03*
X119380000Y12080000D03*
X124380000Y12080000D03*
X132000000Y43030000D03*
X137000000Y12080000D03*
X141800000Y12080000D03*
X146600000Y12080000D03*
X146600000Y20280000D03*
X141800000Y36070000D03*
X141800000Y43030000D03*
X141800000Y28480000D03*
X146600000Y28480000D03*
X146600000Y36070000D03*
X147800000Y43030000D03*
D27*
X93956800Y54543200D03*
X93956800Y24698200D03*
X170029800Y54416200D03*
D51*
X105082000Y-2556000D03*
X105082000Y12444000D03*
X105082000Y15986000D03*
X105082000Y30986000D03*
X105082000Y35290000D03*
X105082000Y50290000D03*
D44*
X179377000Y36433000D03*
D45*
X179377000Y21193000D03*
D44*
X81587000Y21701000D03*
D45*
X81587000Y36941000D03*
D44*
X100256000Y56753000D03*
D45*
X85016000Y56753000D03*
D52*
X170000000Y12250000D03*
X170000000Y43750000D03*
X94000000Y43750000D03*
X94000000Y12250000D03*
D11*
X123624000Y58785000D03*
D12*
X118624000Y58785000D03*
X113624000Y58785000D03*
D11*
X113565600Y-2937000D03*
D12*
X118565600Y-2937000D03*
X123565600Y-2937000D03*
D11*
X141658000Y58785000D03*
D12*
X136658000Y58785000D03*
X131658000Y58785000D03*
D11*
X131701200Y-2937000D03*
D12*
X136701200Y-2937000D03*
X141701200Y-2937000D03*
D11*
X159692000Y58785000D03*
D12*
X154692000Y58785000D03*
X149692000Y58785000D03*
D11*
X149786000Y-2937000D03*
D12*
X154786000Y-2937000D03*
X159786000Y-2937000D03*
D29*
X200713000Y23098000D03*
D30*
X200713000Y28098000D03*
X200713000Y33098000D03*
D29*
X63807000Y31988000D03*
D30*
X63807000Y26988000D03*
D10*
G36*
X71500130Y46101746D02*
X68954546Y48647330D01*
X70439470Y50132254D01*
X72985054Y47586670D01*
X71500130Y46101746D01*
X71500130Y46101746D01*
G37*
D53*
X73975004Y52182864D02*
X75035664Y51122204D01*
D54*
X49400000Y-112300000D03*
X49400000Y-115800000D03*
X48800000Y-126300000D03*
X48800000Y-128700000D03*
X46300000Y-94300000D03*
X42300000Y-108600000D03*
X42400000Y-97300000D03*
X62100000Y-101100000D03*
X29220000Y-100888000D03*
X34173000Y-113715000D03*
X89700000Y-112200000D03*
X62100000Y-103700000D03*
X71300000Y-109800000D03*
X86600000Y-115800000D03*
X76654500Y-106285500D03*
X84211000Y-119684000D03*
X68600000Y-93800000D03*
X95000000Y-94800000D03*
X98900000Y-98100000D03*
X70300000Y-95300000D03*
X71900000Y-93700000D03*
X76500000Y-122800000D03*
X74700000Y-122800000D03*
X70300000Y-99300000D03*
X92100000Y-123200000D03*
X62900000Y-133000000D03*
X63000000Y-115100000D03*
X68700000Y-105700000D03*
X82915600Y-110387600D03*
X61668500Y-116763000D03*
X62100000Y-102400000D03*
D55*
X148008000Y43011600D03*
X131904400Y42859200D03*
X116207200Y43062400D03*
X146788800Y20151600D03*
X141800000Y28480000D03*
X146600000Y12080000D03*
X122550000Y27480000D03*
X141759600Y11820400D03*
X124380000Y12080000D03*
X116200000Y12080000D03*
X119380000Y12080000D03*
D56*
X22235000Y-123049500D02*
X22235000Y-127939000D01*
X23695500Y-98094000D02*
X22235000Y-99554500D01*
X22235000Y-99554500D02*
X22235000Y-123049500D01*
X25092500Y-98094000D02*
X23695500Y-98094000D01*
X42315000Y-128750500D02*
X42315000Y-126605500D01*
X39888000Y-131177500D02*
X42315000Y-128750500D01*
X25473500Y-131177500D02*
X39888000Y-131177500D01*
X22235000Y-127939000D02*
X25473500Y-131177500D01*
X42315000Y-126605500D02*
X42315000Y-121227000D01*
X42315000Y-121227000D02*
X42491500Y-121050500D01*
X42491500Y-121050500D02*
X37909000Y-121050500D01*
X37909000Y-121050500D02*
X36459000Y-119600500D01*
X48905000Y-120446000D02*
X48905000Y-120573000D01*
X48905000Y-120573000D02*
X48427500Y-121050500D01*
X48427500Y-121050500D02*
X42491500Y-121050500D01*
D57*
X36459000Y-119600500D02*
X36459000Y-119747500D01*
X42315000Y-121227000D02*
X42491500Y-121050500D01*
X42966500Y-121525500D02*
X42491500Y-121050500D01*
D56*
X49400000Y-115800000D02*
X49400000Y-112300000D01*
X49316500Y-115716500D02*
X49316500Y-115650500D01*
X49400000Y-115800000D02*
X49316500Y-115716500D01*
X51445000Y-120446000D02*
X51445000Y-123655000D01*
X51445000Y-123655000D02*
X48800000Y-126300000D01*
X48800000Y-131400000D02*
X48800000Y-128700000D01*
X46300000Y-94300000D02*
X46300000Y-96850000D01*
D58*
X46300000Y-96850000D02*
X42850000Y-96850000D01*
X42444500Y-108744500D02*
X42444500Y-111429000D01*
X42300000Y-108600000D02*
X42444500Y-108744500D01*
X42850000Y-96850000D02*
X42400000Y-97300000D01*
X48700000Y-97250000D02*
X46700000Y-97250000D01*
X46700000Y-97250000D02*
X46300000Y-96850000D01*
X50302000Y-97332000D02*
X48782000Y-97332000D01*
X48782000Y-97332000D02*
X48700000Y-97250000D01*
X42444500Y-111429000D02*
X42444500Y-115603500D01*
X42444500Y-115603500D02*
X42491500Y-115650500D01*
D56*
X36459000Y-117100500D02*
X30914500Y-117100500D01*
X27061000Y-120954000D02*
X25092500Y-120954000D01*
X30914500Y-117100500D02*
X27061000Y-120954000D01*
X42491500Y-115650500D02*
X49316500Y-115650500D01*
X36459000Y-117100500D02*
X36459000Y-116255000D01*
X37063500Y-115650500D02*
X42491500Y-115650500D01*
X36459000Y-116255000D02*
X37063500Y-115650500D01*
X25092500Y-120954000D02*
X25092500Y-124383000D01*
X25092500Y-124383000D02*
X27315000Y-126605500D01*
D58*
X60462000Y-101142000D02*
X62058000Y-101142000D01*
X62058000Y-101142000D02*
X62100000Y-101100000D01*
D57*
X95000000Y-103200000D02*
X96700000Y-103200000D01*
X98400000Y-119500000D02*
X94400000Y-119500000D01*
X99200000Y-118700000D02*
X98400000Y-119500000D01*
X99200000Y-105700000D02*
X99200000Y-118700000D01*
X96700000Y-103200000D02*
X99200000Y-105700000D01*
X95000000Y-103200000D02*
X92300000Y-103200000D01*
X89632000Y-100532000D02*
X89632000Y-97332000D01*
X92300000Y-103200000D02*
X89632000Y-100532000D01*
X90627500Y-130802500D02*
X90627500Y-128422500D01*
D58*
X25092500Y-115874000D02*
X26934000Y-115874000D01*
X49349500Y-106222000D02*
X50302000Y-106222000D01*
X48524000Y-107047500D02*
X49349500Y-106222000D01*
X35760500Y-107047500D02*
X48524000Y-107047500D01*
X26934000Y-115874000D02*
X35760500Y-107047500D01*
X46300000Y-99350000D02*
X48100000Y-99350000D01*
X48100000Y-99350000D02*
X48700000Y-98750000D01*
X40904000Y-99792000D02*
X45858000Y-99792000D01*
X45858000Y-99792000D02*
X46300000Y-99350000D01*
X50302000Y-98602000D02*
X48848000Y-98602000D01*
X48848000Y-98602000D02*
X48700000Y-98750000D01*
X34728000Y-111429000D02*
X34728000Y-113160000D01*
X34728000Y-113160000D02*
X34173000Y-113715000D01*
D56*
X25092500Y-103174000D02*
X26934000Y-103174000D01*
X26934000Y-103174000D02*
X29220000Y-100888000D01*
D58*
X25092500Y-103174000D02*
X27442000Y-103174000D01*
X32157500Y-98458500D02*
X37284500Y-98458500D01*
X27442000Y-103174000D02*
X32157500Y-98458500D01*
X37284500Y-98458500D02*
X39570500Y-98458500D01*
X39570500Y-98458500D02*
X40904000Y-99792000D01*
X39744500Y-111429000D02*
X37428000Y-111429000D01*
X80500000Y-97400000D02*
X84564000Y-97400000D01*
X84564000Y-97400000D02*
X84632000Y-97332000D01*
X77350000Y-97400000D02*
X80500000Y-97400000D01*
D59*
X93400000Y-130900000D02*
X94100000Y-130900000D01*
X94600000Y-125900000D02*
X93400000Y-125900000D01*
X94900000Y-126200000D02*
X94600000Y-125900000D01*
X94900000Y-130100000D02*
X94900000Y-126200000D01*
X94100000Y-130900000D02*
X94900000Y-130100000D01*
D58*
X50302000Y-104952000D02*
X48333500Y-104952000D01*
X27505500Y-113334000D02*
X25092500Y-113334000D01*
X35062000Y-105777500D02*
X27505500Y-113334000D01*
X47508000Y-105777500D02*
X35062000Y-105777500D01*
X48333500Y-104952000D02*
X47508000Y-105777500D01*
X25092500Y-110794000D02*
X28140500Y-110794000D01*
X47825500Y-103682000D02*
X50302000Y-103682000D01*
X47127000Y-104380500D02*
X47825500Y-103682000D01*
X34554000Y-104380500D02*
X47127000Y-104380500D01*
X28140500Y-110794000D02*
X34554000Y-104380500D01*
X25092500Y-108254000D02*
X28140500Y-108254000D01*
X33347500Y-103047000D02*
X40349000Y-103047000D01*
X28140500Y-108254000D02*
X33347500Y-103047000D01*
X40349000Y-103047000D02*
X40904000Y-102492000D01*
X40904000Y-102492000D02*
X50222000Y-102492000D01*
X50222000Y-102492000D02*
X50302000Y-102412000D01*
X25092500Y-105714000D02*
X27188000Y-105714000D01*
X31743500Y-101158500D02*
X37284500Y-101158500D01*
X27188000Y-105714000D02*
X31743500Y-101158500D01*
X37284500Y-101158500D02*
X50285500Y-101158500D01*
X50285500Y-101158500D02*
X50302000Y-101142000D01*
D56*
X87593000Y-109016000D02*
X87593000Y-110093000D01*
X87593000Y-110093000D02*
X89700000Y-112200000D01*
X94400000Y-114500000D02*
X92000000Y-114500000D01*
X92000000Y-114500000D02*
X89700000Y-112200000D01*
D58*
X60462000Y-103682000D02*
X62082000Y-103682000D01*
X62082000Y-103682000D02*
X62100000Y-103700000D01*
D56*
X71320500Y-115206000D02*
X71320500Y-109820500D01*
X71320500Y-109820500D02*
X71300000Y-109800000D01*
D58*
X65224500Y-99828500D02*
X67828500Y-99828500D01*
X70432000Y-102432000D02*
X72400000Y-102432000D01*
X67828500Y-99828500D02*
X70432000Y-102432000D01*
D59*
X90650000Y-125900000D02*
X89900000Y-125900000D01*
X88400000Y-117600000D02*
X86600000Y-115800000D01*
X88400000Y-124400000D02*
X88400000Y-117600000D01*
X89900000Y-125900000D02*
X88400000Y-124400000D01*
D58*
X63500000Y-99850000D02*
X65203000Y-99850000D01*
X65203000Y-99850000D02*
X65224500Y-99828500D01*
X60462000Y-99872000D02*
X63478000Y-99872000D01*
X63478000Y-99872000D02*
X63500000Y-99850000D01*
D56*
X72400000Y-102432000D02*
X72801000Y-102432000D01*
X72801000Y-102432000D02*
X76654500Y-106285500D01*
X71912000Y-102432000D02*
X72400000Y-102432000D01*
D58*
X65181000Y-99872000D02*
X65224500Y-99828500D01*
D56*
X80622000Y-126732500D02*
X81036000Y-126732500D01*
X81036000Y-126732500D02*
X84211000Y-123557500D01*
X84211000Y-123557500D02*
X84211000Y-119684000D01*
X71320500Y-114032500D02*
X71320500Y-115206000D01*
X64145000Y-120446000D02*
X64145000Y-118668000D01*
X67607000Y-115206000D02*
X71320500Y-115206000D01*
X64145000Y-118668000D02*
X67607000Y-115206000D01*
X95000000Y-98120000D02*
X95000000Y-94800000D01*
X98900000Y-98120000D02*
X99120000Y-98120000D01*
X98900000Y-98100000D02*
X98900000Y-98120000D01*
X71900000Y-93700000D02*
X70300000Y-95300000D01*
X74700000Y-122800000D02*
X74727000Y-122773000D01*
X74727000Y-122773000D02*
X74700000Y-122800000D01*
X74700000Y-122800000D02*
X74700000Y-122746000D01*
D58*
X72150000Y-99300000D02*
X70300000Y-99300000D01*
D59*
X92100000Y-127800000D02*
X92100000Y-123200000D01*
X92100000Y-127800000D02*
X92900000Y-128600000D01*
D56*
X99700000Y-123200000D02*
X92100000Y-123200000D01*
X101700000Y-121200000D02*
X99700000Y-123200000D01*
X101700000Y-100700000D02*
X101700000Y-121200000D01*
X99120000Y-98120000D02*
X101700000Y-100700000D01*
D59*
X93400000Y-128600000D02*
X92900000Y-128600000D01*
X93400000Y-128600000D02*
X92800000Y-128600000D01*
D57*
X65224500Y-103600000D02*
X66600000Y-103600000D01*
X66600000Y-103600000D02*
X68700000Y-105700000D01*
X65224500Y-104654500D02*
X65224500Y-103600000D01*
X65224500Y-103600000D02*
X65224500Y-102328500D01*
D58*
X62400000Y-104950000D02*
X64929000Y-104950000D01*
X64929000Y-104950000D02*
X65224500Y-104654500D01*
X63500000Y-101350000D02*
X63500000Y-101900000D01*
X63500000Y-101900000D02*
X63928500Y-102328500D01*
X63928500Y-102328500D02*
X65224500Y-102328500D01*
X60462000Y-104952000D02*
X62398000Y-104952000D01*
X62398000Y-104952000D02*
X62400000Y-104950000D01*
D59*
X84287200Y-109016000D02*
X84893000Y-109016000D01*
X90650000Y-133600000D02*
X91500000Y-133600000D01*
X91500000Y-133600000D02*
X92000000Y-133100000D01*
X92000000Y-133100000D02*
X92000000Y-129400000D01*
X92000000Y-129400000D02*
X92800000Y-128600000D01*
D56*
X84893000Y-109016000D02*
X84287200Y-109016000D01*
X84287200Y-109016000D02*
X82915600Y-110387600D01*
X61605000Y-120446000D02*
X61605000Y-116826500D01*
X61605000Y-116826500D02*
X61668500Y-116763000D01*
D57*
X90627500Y-133502500D02*
X90992000Y-133502500D01*
D56*
X71320500Y-120606000D02*
X72560000Y-120606000D01*
X75622000Y-123668000D02*
X75622000Y-126732500D01*
X72560000Y-120606000D02*
X74700000Y-122746000D01*
X74700000Y-122746000D02*
X75622000Y-123668000D01*
X71320500Y-120606000D02*
X79004000Y-120606000D01*
X61605000Y-120446000D02*
X61605000Y-121398500D01*
X61605000Y-121398500D02*
X63573500Y-123367000D01*
X63573500Y-123367000D02*
X68559500Y-123367000D01*
X68559500Y-123367000D02*
X71320500Y-120606000D01*
D58*
X64927000Y-104952000D02*
X65224500Y-104654500D01*
D59*
X93400000Y-133600000D02*
X93400000Y-134800000D01*
X89100000Y-135500000D02*
X83160750Y-129560750D01*
X92700000Y-135500000D02*
X89100000Y-135500000D01*
X93400000Y-134800000D02*
X92700000Y-135500000D01*
D58*
X62400000Y-106450000D02*
X62550000Y-106450000D01*
X62550000Y-106450000D02*
X63254500Y-107154500D01*
X63254500Y-107154500D02*
X65224500Y-107154500D01*
X60462000Y-106222000D02*
X60822000Y-106222000D01*
X60822000Y-106222000D02*
X61050000Y-106450000D01*
X61050000Y-106450000D02*
X62400000Y-106450000D01*
D56*
X72400000Y-104932000D02*
X72400000Y-105079000D01*
X72400000Y-105079000D02*
X79004000Y-111683000D01*
X79004000Y-111683000D02*
X79004000Y-115206000D01*
X67447000Y-107154500D02*
X70177500Y-107154500D01*
X70177500Y-107154500D02*
X72400000Y-104932000D01*
X70622000Y-126732500D02*
X70622000Y-127050000D01*
X70622000Y-127050000D02*
X73797000Y-130225000D01*
X83416000Y-115206000D02*
X79004000Y-115206000D01*
X86560500Y-118350500D02*
X83416000Y-115206000D01*
X86560500Y-126161000D02*
X86560500Y-118350500D01*
X82496500Y-130225000D02*
X83160750Y-129560750D01*
X83160750Y-129560750D02*
X86560500Y-126161000D01*
X73797000Y-130225000D02*
X82496500Y-130225000D01*
X59065000Y-120446000D02*
X59065000Y-122414500D01*
X63383000Y-126732500D02*
X70622000Y-126732500D01*
X59065000Y-122414500D02*
X63383000Y-126732500D01*
X65224500Y-107154500D02*
X67447000Y-107154500D01*
D58*
X60462000Y-102412000D02*
X62088000Y-102412000D01*
X62088000Y-102412000D02*
X62100000Y-102400000D01*
X74650000Y-99300000D02*
X74650000Y-97400000D01*
X60462000Y-98602000D02*
X63098000Y-98602000D01*
X64300000Y-97400000D02*
X74650000Y-97400000D01*
X63098000Y-98602000D02*
X64300000Y-97400000D01*
D60*
X94000000Y12250000D02*
X94086000Y12250000D01*
X94086000Y12250000D02*
X99468600Y6867400D01*
X164617400Y6867400D02*
X170000000Y12250000D01*
X99468600Y6867400D02*
X164617400Y6867400D01*
X94000000Y12250000D02*
X94000000Y24655000D01*
X94000000Y24655000D02*
X93956800Y24698200D01*
X170000000Y12250000D02*
X170434000Y12250000D01*
X170434000Y12250000D02*
X179377000Y21193000D01*
X94000000Y12250000D02*
X91038000Y12250000D01*
X170000000Y12250000D02*
X164465000Y12250000D01*
X91038000Y12250000D02*
X81587000Y21701000D01*
X105082000Y15986000D02*
X105082000Y12444000D01*
X105082000Y50290000D02*
X105082000Y51927000D01*
X105082000Y51927000D02*
X100256000Y56753000D01*
X141800000Y36070000D02*
X146600000Y36070000D01*
X113972000Y52943000D02*
X111940000Y52943000D01*
X69014000Y50072800D02*
X70969800Y48117000D01*
X69014000Y53451000D02*
X69014000Y50072800D01*
X78158000Y62595000D02*
X69014000Y53451000D01*
X102288000Y62595000D02*
X78158000Y62595000D01*
X111940000Y52943000D02*
X102288000Y62595000D01*
X105082000Y-2556000D02*
X79809000Y-2556000D01*
X79809000Y-2556000D02*
X70969800Y6283200D01*
X70969800Y6283200D02*
X70969800Y48117000D01*
X123624000Y58785000D02*
X123624000Y62595000D01*
X138864000Y65643000D02*
X141658000Y62849000D01*
X126672000Y65643000D02*
X138864000Y65643000D01*
X123624000Y62595000D02*
X126672000Y65643000D01*
X159692000Y58785000D02*
X159692000Y62468000D01*
X141658000Y63103000D02*
X141658000Y62849000D01*
X141658000Y62849000D02*
X141658000Y58785000D01*
X143563000Y65008000D02*
X141658000Y63103000D01*
X157152000Y65008000D02*
X143563000Y65008000D01*
X159692000Y62468000D02*
X157152000Y65008000D01*
X170029800Y54416200D02*
X164060800Y54416200D01*
X164060800Y54416200D02*
X159692000Y58785000D01*
X170000000Y43750000D02*
X170000000Y54386400D01*
X170000000Y54386400D02*
X170029800Y54416200D01*
X105082000Y35290000D02*
X105082000Y44434000D01*
X113591000Y52943000D02*
X113972000Y52943000D01*
X113972000Y52943000D02*
X128958000Y52943000D01*
X105082000Y44434000D02*
X113591000Y52943000D01*
X170000000Y43750000D02*
X172060000Y43750000D01*
X172060000Y43750000D02*
X179377000Y36433000D01*
X170000000Y43750000D02*
X164821000Y43750000D01*
X164821000Y43750000D02*
X155628000Y52943000D01*
X155628000Y52943000D02*
X128958000Y52943000D01*
X128958000Y52943000D02*
X124386000Y48371000D01*
X124386000Y48371000D02*
X124386000Y39862000D01*
X124386000Y39862000D02*
X128178000Y36070000D01*
X128178000Y36070000D02*
X141800000Y36070000D01*
X109717000Y27480000D02*
X116200000Y27480000D01*
X106211000Y30986000D02*
X109717000Y27480000D01*
X116200000Y27480000D02*
X119380000Y27480000D01*
X116200000Y35180000D02*
X116200000Y27480000D01*
X116200000Y27480000D02*
X116200000Y19770000D01*
X123565600Y-2937000D02*
X123565600Y42400D01*
X75364000Y30718000D02*
X81587000Y36941000D01*
X75364000Y8620000D02*
X75364000Y30718000D01*
X82577600Y1406400D02*
X75364000Y8620000D01*
X101576800Y1406400D02*
X82577600Y1406400D01*
X102440400Y2270000D02*
X101576800Y1406400D01*
X121338000Y2270000D02*
X102440400Y2270000D01*
X123565600Y42400D02*
X121338000Y2270000D01*
X123565600Y-2937000D02*
X123565600Y-5672600D01*
X139245000Y-9668000D02*
X141701200Y-7211800D01*
X127561000Y-9668000D02*
X139245000Y-9668000D01*
X123565600Y-5672600D02*
X127561000Y-9668000D01*
X159811400Y-3089400D02*
X159811400Y-6627600D01*
X141701200Y-7298200D02*
X141701200Y-7211800D01*
X141701200Y-7211800D02*
X141701200Y-2937000D01*
X143690000Y-9287000D02*
X141701200Y-7298200D01*
X156898000Y-9287000D02*
X143690000Y-9287000D01*
X159811400Y-6627600D02*
X156898000Y-9287000D01*
X94000000Y43750000D02*
X94000000Y54500000D01*
X94000000Y54500000D02*
X93956800Y54543200D01*
X85016000Y56753000D02*
X91747000Y56753000D01*
X91747000Y56753000D02*
X93956800Y54543200D01*
X85016000Y56753000D02*
X79605800Y56753000D01*
X79605800Y56753000D02*
X74505334Y51652534D01*
X105082000Y30986000D02*
X106211000Y30986000D01*
X119380000Y19770000D02*
X119380000Y27480000D01*
X119380000Y27480000D02*
X119380000Y35180000D01*
X116200000Y35180000D02*
X119380000Y35180000D01*
X116200000Y19770000D02*
X119380000Y19770000D01*
X94000000Y43750000D02*
X94000000Y35450000D01*
X98464000Y30986000D02*
X105082000Y30986000D01*
X94000000Y35450000D02*
X98464000Y30986000D01*
X81587000Y36941000D02*
X81587000Y44570868D01*
X81587000Y44570868D02*
X74505334Y51652534D01*
X94000000Y43750000D02*
X88396000Y43750000D01*
X88396000Y43750000D02*
X81587000Y36941000D01*
D61*
X148008000Y43011600D02*
X147989600Y43030000D01*
X147989600Y43030000D02*
X147800000Y43030000D01*
D60*
X200713000Y33098000D02*
X182773000Y33098000D01*
X182773000Y33098000D02*
X181942400Y32267400D01*
X181942400Y32267400D02*
X166143600Y32267400D01*
D61*
X131904400Y42859200D02*
X132000000Y42954800D01*
X132000000Y42954800D02*
X132000000Y43030000D01*
D60*
X141800000Y46989000D02*
X141800000Y43030000D01*
X143817000Y49006000D02*
X141800000Y46989000D01*
X149659000Y49006000D02*
X143817000Y49006000D01*
X166042000Y32623000D02*
X149659000Y49006000D01*
X132000000Y43030000D02*
X141800000Y43030000D01*
D61*
X116207200Y43062400D02*
X116200000Y43055200D01*
X116200000Y43055200D02*
X116200000Y43030000D01*
X146788800Y20151600D02*
X146660400Y20280000D01*
X146660400Y20280000D02*
X146600000Y20280000D01*
X146660400Y20280000D02*
X146600000Y20280000D01*
D60*
X200713000Y28098000D02*
X184250000Y28098000D01*
X184250000Y28098000D02*
X183868000Y28480000D01*
X183868000Y28480000D02*
X146600000Y28480000D01*
X184250000Y28098000D02*
X183868000Y28480000D01*
X146600000Y28480000D02*
X141800000Y28480000D01*
X141800000Y28480000D02*
X146600000Y28480000D01*
X146982000Y28098000D02*
X146600000Y28480000D01*
X200713000Y23098000D02*
X184535598Y23098000D01*
X141800000Y13994400D02*
X143893200Y16087600D01*
X143893200Y16087600D02*
X149021602Y16087600D01*
X149021602Y16087600D02*
X157914000Y24979998D01*
X157914000Y24979998D02*
X182653600Y24979998D01*
X182653600Y24979998D02*
X184535598Y23098000D01*
X141800000Y13994400D02*
X141800000Y12080000D01*
D61*
X141759600Y11820400D02*
X141800000Y11860800D01*
X141800000Y11860800D02*
X141800000Y12080000D01*
D60*
X137000000Y12080000D02*
X141800000Y12080000D01*
D61*
X124380000Y12029600D02*
X124380000Y12080000D01*
D57*
G36*
X61792010Y-128323490D02*
X62521962Y-128811229D01*
X63383000Y-128982500D01*
X68127287Y-128982500D01*
X68147207Y-129088367D01*
X68475724Y-129598896D01*
X68976983Y-129941392D01*
X69572000Y-130061886D01*
X70451906Y-130061886D01*
X72206010Y-131815990D01*
X72935962Y-132303729D01*
X73797000Y-132475000D01*
X82496500Y-132475000D01*
X83357538Y-132303729D01*
X83400289Y-132275163D01*
X86575126Y-135450000D01*
X59956010Y-135450000D01*
X59979988Y-126511468D01*
X61792010Y-128323490D01*
X61792010Y-128323490D01*
G37*
X61792010Y-128323490D02*
X62521962Y-128811229D01*
X63383000Y-128982500D01*
X68127287Y-128982500D01*
X68147207Y-129088367D01*
X68475724Y-129598896D01*
X68976983Y-129941392D01*
X69572000Y-130061886D01*
X70451906Y-130061886D01*
X72206010Y-131815990D01*
X72935962Y-132303729D01*
X73797000Y-132475000D01*
X82496500Y-132475000D01*
X83357538Y-132303729D01*
X83400289Y-132275163D01*
X86575126Y-135450000D01*
X59956010Y-135450000D01*
X59979988Y-126511468D01*
X61792010Y-128323490D01*
G36*
X90700000Y-133550000D02*
X90720000Y-133550000D01*
X90720000Y-133650000D01*
X90700000Y-133650000D01*
X90700000Y-133670000D01*
X90600000Y-133670000D01*
X90600000Y-133650000D01*
X90580000Y-133650000D01*
X90580000Y-133550000D01*
X90600000Y-133550000D01*
X90600000Y-133530000D01*
X90700000Y-133530000D01*
X90700000Y-133550000D01*
X90700000Y-133550000D01*
G37*
X90700000Y-133550000D02*
X90720000Y-133550000D01*
X90720000Y-133650000D01*
X90700000Y-133650000D01*
X90700000Y-133670000D01*
X90600000Y-133670000D01*
X90600000Y-133650000D01*
X90580000Y-133650000D01*
X90580000Y-133550000D01*
X90600000Y-133550000D01*
X90600000Y-133530000D01*
X90700000Y-133530000D01*
X90700000Y-133550000D01*
G36*
X95650756Y-90130935D02*
X95649246Y-91861472D01*
X96310099Y-93460858D01*
X97532705Y-94685601D01*
X99130935Y-95349244D01*
X100861472Y-95350754D01*
X102460858Y-94689901D01*
X103450000Y-93702485D01*
X103450000Y-130298822D01*
X102467295Y-129314399D01*
X100869065Y-128650756D01*
X99138528Y-128649246D01*
X97539142Y-129310099D01*
X96625754Y-130221893D01*
X96650000Y-130100000D01*
X96650000Y-126200000D01*
X96516789Y-125530304D01*
X96137437Y-124962563D01*
X95837437Y-124662563D01*
X95278509Y-124289100D01*
X95146276Y-124083604D01*
X94645017Y-123741108D01*
X94050000Y-123620614D01*
X92750000Y-123620614D01*
X92194133Y-123725207D01*
X92028105Y-123832043D01*
X91895017Y-123741108D01*
X91300000Y-123620614D01*
X90150000Y-123620614D01*
X90150000Y-117600000D01*
X90016789Y-116930304D01*
X89637437Y-116362563D01*
X88545108Y-115270234D01*
X88296506Y-114668571D01*
X87734388Y-114105471D01*
X86999570Y-113800348D01*
X86203921Y-113799654D01*
X85487608Y-114095628D01*
X85006990Y-113615010D01*
X84277038Y-113127271D01*
X83416000Y-112956000D01*
X81254000Y-112956000D01*
X81254000Y-111683000D01*
X81082729Y-110821962D01*
X80940439Y-110609010D01*
X80594990Y-110092009D01*
X79943981Y-109441000D01*
X82643000Y-109441000D01*
X82643000Y-109964368D01*
X82871361Y-110515681D01*
X83293318Y-110937638D01*
X83844631Y-111166000D01*
X84468000Y-111166000D01*
X84843000Y-110791000D01*
X84843000Y-109066000D01*
X83018000Y-109066000D01*
X82643000Y-109441000D01*
X79943981Y-109441000D01*
X78570613Y-108067632D01*
X82643000Y-108067632D01*
X82643000Y-108591000D01*
X83018000Y-108966000D01*
X84843000Y-108966000D01*
X84843000Y-107241000D01*
X84468000Y-106866000D01*
X83844631Y-106866000D01*
X83293318Y-107094362D01*
X82871361Y-107516319D01*
X82643000Y-108067632D01*
X78570613Y-108067632D01*
X78299155Y-107796175D01*
X78733229Y-107146538D01*
X78904500Y-106285500D01*
X78733229Y-105424462D01*
X78245490Y-104694510D01*
X75005366Y-101454386D01*
X75400000Y-101454386D01*
X75955867Y-101349793D01*
X76466396Y-101021276D01*
X76808892Y-100520017D01*
X76929386Y-99925000D01*
X76929386Y-99579386D01*
X78100000Y-99579386D01*
X78655867Y-99474793D01*
X78722651Y-99431819D01*
X79054983Y-99658892D01*
X79650000Y-99779386D01*
X81350000Y-99779386D01*
X81905867Y-99674793D01*
X82127691Y-99532053D01*
X82286983Y-99640892D01*
X82882000Y-99761386D01*
X86382000Y-99761386D01*
X86937867Y-99656793D01*
X87129645Y-99533387D01*
X87286983Y-99640892D01*
X87632000Y-99710760D01*
X87632000Y-100531995D01*
X87631999Y-100532000D01*
X87784241Y-101297367D01*
X88217786Y-101946214D01*
X90885784Y-104614211D01*
X90885786Y-104614214D01*
X91466150Y-105002000D01*
X91534633Y-105047759D01*
X92300000Y-105200001D01*
X92300005Y-105200000D01*
X93176082Y-105200000D01*
X93554983Y-105458892D01*
X94150000Y-105579386D01*
X95850000Y-105579386D01*
X96187461Y-105515889D01*
X97200000Y-106528427D01*
X97200000Y-108062642D01*
X96988478Y-107732233D01*
X96172037Y-107163241D01*
X95200000Y-106950000D01*
X94450000Y-106950000D01*
X94450000Y-109450000D01*
X94470000Y-109450000D01*
X94470000Y-109550000D01*
X94450000Y-109550000D01*
X94450000Y-109570000D01*
X94350000Y-109570000D01*
X94350000Y-109550000D01*
X91475575Y-109550000D01*
X91139700Y-109948216D01*
X91274973Y-110429649D01*
X91565593Y-110883613D01*
X89872386Y-109190406D01*
X89872386Y-109051784D01*
X91139700Y-109051784D01*
X91475575Y-109450000D01*
X94350000Y-109450000D01*
X94350000Y-106950000D01*
X93600000Y-106950000D01*
X92627963Y-107163241D01*
X91811522Y-107732233D01*
X91274973Y-108570351D01*
X91139700Y-109051784D01*
X89872386Y-109051784D01*
X89872386Y-108366000D01*
X89767793Y-107810133D01*
X89439276Y-107299604D01*
X88938017Y-106957108D01*
X88343000Y-106836614D01*
X87948001Y-106836614D01*
X87593000Y-106766000D01*
X87237999Y-106836614D01*
X86843000Y-106836614D01*
X86287133Y-106941207D01*
X86222830Y-106982585D01*
X85941369Y-106866000D01*
X85318000Y-106866000D01*
X84943000Y-107241000D01*
X84943000Y-108966000D01*
X84963000Y-108966000D01*
X84963000Y-109066000D01*
X84943000Y-109066000D01*
X84943000Y-110791000D01*
X85318000Y-111166000D01*
X85655900Y-111166000D01*
X86002010Y-111683990D01*
X90409010Y-116090990D01*
X91138962Y-116578729D01*
X92000000Y-116750000D01*
X92451026Y-116750000D01*
X92609506Y-116855893D01*
X92934881Y-116920614D01*
X92600000Y-116920614D01*
X92044133Y-117025207D01*
X91533604Y-117353724D01*
X91191108Y-117854983D01*
X91070614Y-118450000D01*
X91070614Y-120550000D01*
X91175207Y-121105867D01*
X91503724Y-121616396D01*
X92004983Y-121958892D01*
X92600000Y-122079386D01*
X96200000Y-122079386D01*
X96755867Y-121974793D01*
X97266396Y-121646276D01*
X97366342Y-121500000D01*
X98399995Y-121500000D01*
X98400000Y-121500001D01*
X99165367Y-121347759D01*
X99814214Y-120914214D01*
X100614211Y-120114216D01*
X100614214Y-120114214D01*
X101047759Y-119465367D01*
X101083750Y-119284430D01*
X101200001Y-118700000D01*
X101200000Y-118699995D01*
X101200000Y-105700005D01*
X101200001Y-105700000D01*
X101047759Y-104934633D01*
X101005725Y-104871724D01*
X100614214Y-104285786D01*
X100614211Y-104285784D01*
X98114214Y-101785786D01*
X97465367Y-101352241D01*
X97266223Y-101312629D01*
X97396039Y-100660000D01*
X97217156Y-99760694D01*
X96964258Y-99382205D01*
X97296226Y-98619855D01*
X97312720Y-98536922D01*
X96974367Y-98170000D01*
X95050000Y-98170000D01*
X95050000Y-98190000D01*
X94950000Y-98190000D01*
X94950000Y-98170000D01*
X94930000Y-98170000D01*
X94930000Y-98070000D01*
X94950000Y-98070000D01*
X94950000Y-96145530D01*
X95050000Y-96145530D01*
X95050000Y-98070000D01*
X96974367Y-98070000D01*
X97312720Y-97703078D01*
X97296226Y-97620145D01*
X96930150Y-96779467D01*
X96270226Y-96142873D01*
X95416922Y-95807278D01*
X95050000Y-96145530D01*
X94950000Y-96145530D01*
X94583078Y-95807278D01*
X93729774Y-96142873D01*
X93069850Y-96779467D01*
X92911386Y-97143373D01*
X92911386Y-96432000D01*
X92806793Y-95876133D01*
X92478276Y-95365604D01*
X91977017Y-95023108D01*
X91382000Y-94902614D01*
X87882000Y-94902614D01*
X87326133Y-95007207D01*
X87134355Y-95130613D01*
X86977017Y-95023108D01*
X86382000Y-94902614D01*
X82882000Y-94902614D01*
X82326133Y-95007207D01*
X82028937Y-95198448D01*
X81945017Y-95141108D01*
X81350000Y-95020614D01*
X79650000Y-95020614D01*
X79094133Y-95125207D01*
X78725862Y-95362183D01*
X78695017Y-95341108D01*
X78100000Y-95220614D01*
X76600000Y-95220614D01*
X76044133Y-95325207D01*
X76006854Y-95349196D01*
X75995017Y-95341108D01*
X75400000Y-95220614D01*
X73900000Y-95220614D01*
X73344133Y-95325207D01*
X72994795Y-95550000D01*
X64300005Y-95550000D01*
X64300000Y-95549999D01*
X63628328Y-95683604D01*
X63592036Y-95690823D01*
X62991852Y-96091852D01*
X62991850Y-96091855D01*
X62474649Y-96609056D01*
X62458293Y-96522133D01*
X62129776Y-96011604D01*
X61628517Y-95669108D01*
X61033500Y-95548614D01*
X60063046Y-95548614D01*
X60081820Y-88550000D01*
X96307217Y-88550000D01*
X95650756Y-90130935D01*
X95650756Y-90130935D01*
G37*
X95650756Y-90130935D02*
X95649246Y-91861472D01*
X96310099Y-93460858D01*
X97532705Y-94685601D01*
X99130935Y-95349244D01*
X100861472Y-95350754D01*
X102460858Y-94689901D01*
X103450000Y-93702485D01*
X103450000Y-130298822D01*
X102467295Y-129314399D01*
X100869065Y-128650756D01*
X99138528Y-128649246D01*
X97539142Y-129310099D01*
X96625754Y-130221893D01*
X96650000Y-130100000D01*
X96650000Y-126200000D01*
X96516789Y-125530304D01*
X96137437Y-124962563D01*
X95837437Y-124662563D01*
X95278509Y-124289100D01*
X95146276Y-124083604D01*
X94645017Y-123741108D01*
X94050000Y-123620614D01*
X92750000Y-123620614D01*
X92194133Y-123725207D01*
X92028105Y-123832043D01*
X91895017Y-123741108D01*
X91300000Y-123620614D01*
X90150000Y-123620614D01*
X90150000Y-117600000D01*
X90016789Y-116930304D01*
X89637437Y-116362563D01*
X88545108Y-115270234D01*
X88296506Y-114668571D01*
X87734388Y-114105471D01*
X86999570Y-113800348D01*
X86203921Y-113799654D01*
X85487608Y-114095628D01*
X85006990Y-113615010D01*
X84277038Y-113127271D01*
X83416000Y-112956000D01*
X81254000Y-112956000D01*
X81254000Y-111683000D01*
X81082729Y-110821962D01*
X80940439Y-110609010D01*
X80594990Y-110092009D01*
X79943981Y-109441000D01*
X82643000Y-109441000D01*
X82643000Y-109964368D01*
X82871361Y-110515681D01*
X83293318Y-110937638D01*
X83844631Y-111166000D01*
X84468000Y-111166000D01*
X84843000Y-110791000D01*
X84843000Y-109066000D01*
X83018000Y-109066000D01*
X82643000Y-109441000D01*
X79943981Y-109441000D01*
X78570613Y-108067632D01*
X82643000Y-108067632D01*
X82643000Y-108591000D01*
X83018000Y-108966000D01*
X84843000Y-108966000D01*
X84843000Y-107241000D01*
X84468000Y-106866000D01*
X83844631Y-106866000D01*
X83293318Y-107094362D01*
X82871361Y-107516319D01*
X82643000Y-108067632D01*
X78570613Y-108067632D01*
X78299155Y-107796175D01*
X78733229Y-107146538D01*
X78904500Y-106285500D01*
X78733229Y-105424462D01*
X78245490Y-104694510D01*
X75005366Y-101454386D01*
X75400000Y-101454386D01*
X75955867Y-101349793D01*
X76466396Y-101021276D01*
X76808892Y-100520017D01*
X76929386Y-99925000D01*
X76929386Y-99579386D01*
X78100000Y-99579386D01*
X78655867Y-99474793D01*
X78722651Y-99431819D01*
X79054983Y-99658892D01*
X79650000Y-99779386D01*
X81350000Y-99779386D01*
X81905867Y-99674793D01*
X82127691Y-99532053D01*
X82286983Y-99640892D01*
X82882000Y-99761386D01*
X86382000Y-99761386D01*
X86937867Y-99656793D01*
X87129645Y-99533387D01*
X87286983Y-99640892D01*
X87632000Y-99710760D01*
X87632000Y-100531995D01*
X87631999Y-100532000D01*
X87784241Y-101297367D01*
X88217786Y-101946214D01*
X90885784Y-104614211D01*
X90885786Y-104614214D01*
X91466150Y-105002000D01*
X91534633Y-105047759D01*
X92300000Y-105200001D01*
X92300005Y-105200000D01*
X93176082Y-105200000D01*
X93554983Y-105458892D01*
X94150000Y-105579386D01*
X95850000Y-105579386D01*
X96187461Y-105515889D01*
X97200000Y-106528427D01*
X97200000Y-108062642D01*
X96988478Y-107732233D01*
X96172037Y-107163241D01*
X95200000Y-106950000D01*
X94450000Y-106950000D01*
X94450000Y-109450000D01*
X94470000Y-109450000D01*
X94470000Y-109550000D01*
X94450000Y-109550000D01*
X94450000Y-109570000D01*
X94350000Y-109570000D01*
X94350000Y-109550000D01*
X91475575Y-109550000D01*
X91139700Y-109948216D01*
X91274973Y-110429649D01*
X91565593Y-110883613D01*
X89872386Y-109190406D01*
X89872386Y-109051784D01*
X91139700Y-109051784D01*
X91475575Y-109450000D01*
X94350000Y-109450000D01*
X94350000Y-106950000D01*
X93600000Y-106950000D01*
X92627963Y-107163241D01*
X91811522Y-107732233D01*
X91274973Y-108570351D01*
X91139700Y-109051784D01*
X89872386Y-109051784D01*
X89872386Y-108366000D01*
X89767793Y-107810133D01*
X89439276Y-107299604D01*
X88938017Y-106957108D01*
X88343000Y-106836614D01*
X87948001Y-106836614D01*
X87593000Y-106766000D01*
X87237999Y-106836614D01*
X86843000Y-106836614D01*
X86287133Y-106941207D01*
X86222830Y-106982585D01*
X85941369Y-106866000D01*
X85318000Y-106866000D01*
X84943000Y-107241000D01*
X84943000Y-108966000D01*
X84963000Y-108966000D01*
X84963000Y-109066000D01*
X84943000Y-109066000D01*
X84943000Y-110791000D01*
X85318000Y-111166000D01*
X85655900Y-111166000D01*
X86002010Y-111683990D01*
X90409010Y-116090990D01*
X91138962Y-116578729D01*
X92000000Y-116750000D01*
X92451026Y-116750000D01*
X92609506Y-116855893D01*
X92934881Y-116920614D01*
X92600000Y-116920614D01*
X92044133Y-117025207D01*
X91533604Y-117353724D01*
X91191108Y-117854983D01*
X91070614Y-118450000D01*
X91070614Y-120550000D01*
X91175207Y-121105867D01*
X91503724Y-121616396D01*
X92004983Y-121958892D01*
X92600000Y-122079386D01*
X96200000Y-122079386D01*
X96755867Y-121974793D01*
X97266396Y-121646276D01*
X97366342Y-121500000D01*
X98399995Y-121500000D01*
X98400000Y-121500001D01*
X99165367Y-121347759D01*
X99814214Y-120914214D01*
X100614211Y-120114216D01*
X100614214Y-120114214D01*
X101047759Y-119465367D01*
X101083750Y-119284430D01*
X101200001Y-118700000D01*
X101200000Y-118699995D01*
X101200000Y-105700005D01*
X101200001Y-105700000D01*
X101047759Y-104934633D01*
X101005725Y-104871724D01*
X100614214Y-104285786D01*
X100614211Y-104285784D01*
X98114214Y-101785786D01*
X97465367Y-101352241D01*
X97266223Y-101312629D01*
X97396039Y-100660000D01*
X97217156Y-99760694D01*
X96964258Y-99382205D01*
X97296226Y-98619855D01*
X97312720Y-98536922D01*
X96974367Y-98170000D01*
X95050000Y-98170000D01*
X95050000Y-98190000D01*
X94950000Y-98190000D01*
X94950000Y-98170000D01*
X94930000Y-98170000D01*
X94930000Y-98070000D01*
X94950000Y-98070000D01*
X94950000Y-96145530D01*
X95050000Y-96145530D01*
X95050000Y-98070000D01*
X96974367Y-98070000D01*
X97312720Y-97703078D01*
X97296226Y-97620145D01*
X96930150Y-96779467D01*
X96270226Y-96142873D01*
X95416922Y-95807278D01*
X95050000Y-96145530D01*
X94950000Y-96145530D01*
X94583078Y-95807278D01*
X93729774Y-96142873D01*
X93069850Y-96779467D01*
X92911386Y-97143373D01*
X92911386Y-96432000D01*
X92806793Y-95876133D01*
X92478276Y-95365604D01*
X91977017Y-95023108D01*
X91382000Y-94902614D01*
X87882000Y-94902614D01*
X87326133Y-95007207D01*
X87134355Y-95130613D01*
X86977017Y-95023108D01*
X86382000Y-94902614D01*
X82882000Y-94902614D01*
X82326133Y-95007207D01*
X82028937Y-95198448D01*
X81945017Y-95141108D01*
X81350000Y-95020614D01*
X79650000Y-95020614D01*
X79094133Y-95125207D01*
X78725862Y-95362183D01*
X78695017Y-95341108D01*
X78100000Y-95220614D01*
X76600000Y-95220614D01*
X76044133Y-95325207D01*
X76006854Y-95349196D01*
X75995017Y-95341108D01*
X75400000Y-95220614D01*
X73900000Y-95220614D01*
X73344133Y-95325207D01*
X72994795Y-95550000D01*
X64300005Y-95550000D01*
X64300000Y-95549999D01*
X63628328Y-95683604D01*
X63592036Y-95690823D01*
X62991852Y-96091852D01*
X62991850Y-96091855D01*
X62474649Y-96609056D01*
X62458293Y-96522133D01*
X62129776Y-96011604D01*
X61628517Y-95669108D01*
X61033500Y-95548614D01*
X60063046Y-95548614D01*
X60081820Y-88550000D01*
X96307217Y-88550000D01*
X95650756Y-90130935D01*
G36*
X76754000Y-112614981D02*
X76754000Y-113063980D01*
X76674614Y-113456000D01*
X76674614Y-116956000D01*
X76779207Y-117511867D01*
X77032768Y-117905912D01*
X76932362Y-118006318D01*
X76704000Y-118557631D01*
X76704000Y-120181000D01*
X77079000Y-120556000D01*
X78954000Y-120556000D01*
X78954000Y-120536000D01*
X79054000Y-120536000D01*
X79054000Y-120556000D01*
X80929000Y-120556000D01*
X81304000Y-120181000D01*
X81304000Y-118557631D01*
X81075638Y-118006318D01*
X80972363Y-117903043D01*
X81212892Y-117551017D01*
X81232133Y-117456000D01*
X82484020Y-117456000D01*
X82920349Y-117892330D01*
X82620010Y-118093010D01*
X82132271Y-118822962D01*
X81961000Y-119684000D01*
X81961000Y-122625520D01*
X81119677Y-123466843D01*
X80865113Y-123416207D01*
X81075638Y-123205682D01*
X81304000Y-122654369D01*
X81304000Y-121031000D01*
X80929000Y-120656000D01*
X79054000Y-120656000D01*
X79054000Y-123481000D01*
X79339715Y-123766715D01*
X78818878Y-124114727D01*
X78266107Y-124942006D01*
X78118026Y-125686463D01*
X77958759Y-124960463D01*
X77389767Y-124144022D01*
X76551649Y-123607473D01*
X76070216Y-123472200D01*
X75672000Y-123808075D01*
X75672000Y-126682500D01*
X75692000Y-126682500D01*
X75692000Y-126782500D01*
X75672000Y-126782500D01*
X75672000Y-126802500D01*
X75572000Y-126802500D01*
X75572000Y-126782500D01*
X75552000Y-126782500D01*
X75552000Y-126682500D01*
X75572000Y-126682500D01*
X75572000Y-123808075D01*
X75173784Y-123472200D01*
X74692351Y-123607473D01*
X73854233Y-124144022D01*
X73285241Y-124960463D01*
X73201386Y-125342707D01*
X73201386Y-124932500D01*
X73096793Y-124376633D01*
X72768276Y-123866104D01*
X72627196Y-123769708D01*
X72970181Y-123627639D01*
X73392138Y-123205682D01*
X73620500Y-122654369D01*
X73620500Y-121031000D01*
X76704000Y-121031000D01*
X76704000Y-122654369D01*
X76932362Y-123205682D01*
X77354319Y-123627639D01*
X77905632Y-123856000D01*
X78579000Y-123856000D01*
X78954000Y-123481000D01*
X78954000Y-120656000D01*
X77079000Y-120656000D01*
X76704000Y-121031000D01*
X73620500Y-121031000D01*
X73245500Y-120656000D01*
X71370500Y-120656000D01*
X71370500Y-120676000D01*
X71270500Y-120676000D01*
X71270500Y-120656000D01*
X69395500Y-120656000D01*
X69020500Y-121031000D01*
X69020500Y-122654369D01*
X69248862Y-123205682D01*
X69466201Y-123423021D01*
X69016133Y-123507707D01*
X68505604Y-123836224D01*
X68163108Y-124337483D01*
X68133741Y-124482500D01*
X64314980Y-124482500D01*
X62612885Y-122780405D01*
X62859912Y-122683726D01*
X63620538Y-122999565D01*
X64615099Y-123000433D01*
X65534286Y-122620633D01*
X66238161Y-121917985D01*
X66619565Y-120999462D01*
X66620433Y-120004901D01*
X66436129Y-119558851D01*
X68538981Y-117456000D01*
X69085195Y-117456000D01*
X69095707Y-117511867D01*
X69349268Y-117905912D01*
X69248862Y-118006318D01*
X69020500Y-118557631D01*
X69020500Y-120181000D01*
X69395500Y-120556000D01*
X71270500Y-120556000D01*
X71270500Y-120536000D01*
X71370500Y-120536000D01*
X71370500Y-120556000D01*
X73245500Y-120556000D01*
X73620500Y-120181000D01*
X73620500Y-118557631D01*
X73392138Y-118006318D01*
X73288863Y-117903043D01*
X73529392Y-117551017D01*
X73649886Y-116956000D01*
X73649886Y-113456000D01*
X73570500Y-113034097D01*
X73570500Y-109820500D01*
X73473905Y-109334886D01*
X76754000Y-112614981D01*
X76754000Y-112614981D01*
G37*
X76754000Y-112614981D02*
X76754000Y-113063980D01*
X76674614Y-113456000D01*
X76674614Y-116956000D01*
X76779207Y-117511867D01*
X77032768Y-117905912D01*
X76932362Y-118006318D01*
X76704000Y-118557631D01*
X76704000Y-120181000D01*
X77079000Y-120556000D01*
X78954000Y-120556000D01*
X78954000Y-120536000D01*
X79054000Y-120536000D01*
X79054000Y-120556000D01*
X80929000Y-120556000D01*
X81304000Y-120181000D01*
X81304000Y-118557631D01*
X81075638Y-118006318D01*
X80972363Y-117903043D01*
X81212892Y-117551017D01*
X81232133Y-117456000D01*
X82484020Y-117456000D01*
X82920349Y-117892330D01*
X82620010Y-118093010D01*
X82132271Y-118822962D01*
X81961000Y-119684000D01*
X81961000Y-122625520D01*
X81119677Y-123466843D01*
X80865113Y-123416207D01*
X81075638Y-123205682D01*
X81304000Y-122654369D01*
X81304000Y-121031000D01*
X80929000Y-120656000D01*
X79054000Y-120656000D01*
X79054000Y-123481000D01*
X79339715Y-123766715D01*
X78818878Y-124114727D01*
X78266107Y-124942006D01*
X78118026Y-125686463D01*
X77958759Y-124960463D01*
X77389767Y-124144022D01*
X76551649Y-123607473D01*
X76070216Y-123472200D01*
X75672000Y-123808075D01*
X75672000Y-126682500D01*
X75692000Y-126682500D01*
X75692000Y-126782500D01*
X75672000Y-126782500D01*
X75672000Y-126802500D01*
X75572000Y-126802500D01*
X75572000Y-126782500D01*
X75552000Y-126782500D01*
X75552000Y-126682500D01*
X75572000Y-126682500D01*
X75572000Y-123808075D01*
X75173784Y-123472200D01*
X74692351Y-123607473D01*
X73854233Y-124144022D01*
X73285241Y-124960463D01*
X73201386Y-125342707D01*
X73201386Y-124932500D01*
X73096793Y-124376633D01*
X72768276Y-123866104D01*
X72627196Y-123769708D01*
X72970181Y-123627639D01*
X73392138Y-123205682D01*
X73620500Y-122654369D01*
X73620500Y-121031000D01*
X76704000Y-121031000D01*
X76704000Y-122654369D01*
X76932362Y-123205682D01*
X77354319Y-123627639D01*
X77905632Y-123856000D01*
X78579000Y-123856000D01*
X78954000Y-123481000D01*
X78954000Y-120656000D01*
X77079000Y-120656000D01*
X76704000Y-121031000D01*
X73620500Y-121031000D01*
X73245500Y-120656000D01*
X71370500Y-120656000D01*
X71370500Y-120676000D01*
X71270500Y-120676000D01*
X71270500Y-120656000D01*
X69395500Y-120656000D01*
X69020500Y-121031000D01*
X69020500Y-122654369D01*
X69248862Y-123205682D01*
X69466201Y-123423021D01*
X69016133Y-123507707D01*
X68505604Y-123836224D01*
X68163108Y-124337483D01*
X68133741Y-124482500D01*
X64314980Y-124482500D01*
X62612885Y-122780405D01*
X62859912Y-122683726D01*
X63620538Y-122999565D01*
X64615099Y-123000433D01*
X65534286Y-122620633D01*
X66238161Y-121917985D01*
X66619565Y-120999462D01*
X66620433Y-120004901D01*
X66436129Y-119558851D01*
X68538981Y-117456000D01*
X69085195Y-117456000D01*
X69095707Y-117511867D01*
X69349268Y-117905912D01*
X69248862Y-118006318D01*
X69020500Y-118557631D01*
X69020500Y-120181000D01*
X69395500Y-120556000D01*
X71270500Y-120556000D01*
X71270500Y-120536000D01*
X71370500Y-120536000D01*
X71370500Y-120556000D01*
X73245500Y-120556000D01*
X73620500Y-120181000D01*
X73620500Y-118557631D01*
X73392138Y-118006318D01*
X73288863Y-117903043D01*
X73529392Y-117551017D01*
X73649886Y-116956000D01*
X73649886Y-113456000D01*
X73570500Y-113034097D01*
X73570500Y-109820500D01*
X73473905Y-109334886D01*
X76754000Y-112614981D01*
G36*
X61620051Y-120441056D02*
X61619948Y-120559047D01*
X61594142Y-120584853D01*
X61580000Y-120570711D01*
X61565858Y-120584853D01*
X61539949Y-120558944D01*
X61540052Y-120440953D01*
X61565858Y-120415147D01*
X61580000Y-120429289D01*
X61594142Y-120415147D01*
X61620051Y-120441056D01*
X61620051Y-120441056D01*
G37*
X61620051Y-120441056D02*
X61619948Y-120559047D01*
X61594142Y-120584853D01*
X61580000Y-120570711D01*
X61565858Y-120584853D01*
X61539949Y-120558944D01*
X61540052Y-120440953D01*
X61565858Y-120415147D01*
X61580000Y-120429289D01*
X61594142Y-120415147D01*
X61620051Y-120441056D01*
G36*
X60205029Y-108067632D02*
X60342036Y-108159177D01*
X61050000Y-108300001D01*
X61050005Y-108300000D01*
X61632980Y-108300000D01*
X61821978Y-108338273D01*
X61946350Y-108462645D01*
X61946352Y-108462648D01*
X62546536Y-108863677D01*
X63254500Y-109004500D01*
X63552405Y-109004500D01*
X64004483Y-109313392D01*
X64599500Y-109433886D01*
X65849500Y-109433886D01*
X66005674Y-109404500D01*
X69128670Y-109404500D01*
X69050000Y-109800000D01*
X69070500Y-109903061D01*
X69070500Y-112956000D01*
X67607000Y-112956000D01*
X66745962Y-113127271D01*
X66016009Y-113615010D01*
X62554010Y-117077010D01*
X62066271Y-117806962D01*
X62026225Y-118008288D01*
X61131945Y-117990710D01*
X60300088Y-118316274D01*
X60002303Y-118192623D01*
X60029630Y-108005386D01*
X60111871Y-108005386D01*
X60205029Y-108067632D01*
X60205029Y-108067632D01*
G37*
X60205029Y-108067632D02*
X60342036Y-108159177D01*
X61050000Y-108300001D01*
X61050005Y-108300000D01*
X61632980Y-108300000D01*
X61821978Y-108338273D01*
X61946350Y-108462645D01*
X61946352Y-108462648D01*
X62546536Y-108863677D01*
X63254500Y-109004500D01*
X63552405Y-109004500D01*
X64004483Y-109313392D01*
X64599500Y-109433886D01*
X65849500Y-109433886D01*
X66005674Y-109404500D01*
X69128670Y-109404500D01*
X69050000Y-109800000D01*
X69070500Y-109903061D01*
X69070500Y-112956000D01*
X67607000Y-112956000D01*
X66745962Y-113127271D01*
X66016009Y-113615010D01*
X62554010Y-117077010D01*
X62066271Y-117806962D01*
X62026225Y-118008288D01*
X61131945Y-117990710D01*
X60300088Y-118316274D01*
X60002303Y-118192623D01*
X60029630Y-108005386D01*
X60111871Y-108005386D01*
X60205029Y-108067632D01*
G36*
X69123852Y-103740148D02*
X69724035Y-104141177D01*
X69961590Y-104188430D01*
X69245520Y-104904500D01*
X67174500Y-104904500D01*
X66974500Y-104704500D01*
X65274500Y-104704500D01*
X65274500Y-104724500D01*
X65174500Y-104724500D01*
X65174500Y-104704500D01*
X65154500Y-104704500D01*
X65154500Y-104604500D01*
X65174500Y-104604500D01*
X65174500Y-104584500D01*
X65274500Y-104584500D01*
X65274500Y-104604500D01*
X66974500Y-104604500D01*
X67349500Y-104229500D01*
X67349500Y-103606131D01*
X67302018Y-103491500D01*
X67349500Y-103376869D01*
X67349500Y-102753500D01*
X66974500Y-102378500D01*
X65274500Y-102378500D01*
X65274500Y-102404500D01*
X65227485Y-102404500D01*
X65279676Y-102278500D01*
X66974500Y-102278500D01*
X67318352Y-101934648D01*
X69123852Y-103740148D01*
X69123852Y-103740148D01*
G37*
X69123852Y-103740148D02*
X69724035Y-104141177D01*
X69961590Y-104188430D01*
X69245520Y-104904500D01*
X67174500Y-104904500D01*
X66974500Y-104704500D01*
X65274500Y-104704500D01*
X65274500Y-104724500D01*
X65174500Y-104724500D01*
X65174500Y-104704500D01*
X65154500Y-104704500D01*
X65154500Y-104604500D01*
X65174500Y-104604500D01*
X65174500Y-104584500D01*
X65274500Y-104584500D01*
X65274500Y-104604500D01*
X66974500Y-104604500D01*
X67349500Y-104229500D01*
X67349500Y-103606131D01*
X67302018Y-103491500D01*
X67349500Y-103376869D01*
X67349500Y-102753500D01*
X66974500Y-102378500D01*
X65274500Y-102378500D01*
X65274500Y-102404500D01*
X65227485Y-102404500D01*
X65279676Y-102278500D01*
X66974500Y-102278500D01*
X67318352Y-101934648D01*
X69123852Y-103740148D01*
G36*
X72220000Y-99350000D02*
X72200000Y-99350000D01*
X72200000Y-99370000D01*
X72100000Y-99370000D01*
X72100000Y-99350000D01*
X72080000Y-99350000D01*
X72080000Y-99250000D01*
X72220000Y-99250000D01*
X72220000Y-99350000D01*
X72220000Y-99350000D01*
G37*
X72220000Y-99350000D02*
X72200000Y-99350000D01*
X72200000Y-99370000D01*
X72100000Y-99370000D01*
X72100000Y-99350000D01*
X72080000Y-99350000D01*
X72080000Y-99250000D01*
X72220000Y-99250000D01*
X72220000Y-99350000D01*
G36*
X50873686Y-122989745D02*
X51600000Y-123004021D01*
X51600000Y-135450000D01*
X23692783Y-135450000D01*
X24349244Y-133869065D01*
X24349932Y-133080812D01*
X24612462Y-133256229D01*
X25473500Y-133427500D01*
X39888000Y-133427500D01*
X40749038Y-133256229D01*
X41478990Y-132768490D01*
X43905990Y-130341490D01*
X44393729Y-129611538D01*
X44409950Y-129529990D01*
X44565000Y-128750500D01*
X44565000Y-128554474D01*
X44670893Y-128395994D01*
X44865000Y-127420151D01*
X44865000Y-125790849D01*
X44670893Y-124815006D01*
X44565000Y-124656526D01*
X44565000Y-123593670D01*
X44700392Y-123395517D01*
X44719633Y-123300500D01*
X48427500Y-123300500D01*
X49288538Y-123129229D01*
X49653377Y-122885451D01*
X50158309Y-122676817D01*
X50873686Y-122989745D01*
X50873686Y-122989745D01*
G37*
X50873686Y-122989745D02*
X51600000Y-123004021D01*
X51600000Y-135450000D01*
X23692783Y-135450000D01*
X24349244Y-133869065D01*
X24349932Y-133080812D01*
X24612462Y-133256229D01*
X25473500Y-133427500D01*
X39888000Y-133427500D01*
X40749038Y-133256229D01*
X41478990Y-132768490D01*
X43905990Y-130341490D01*
X44393729Y-129611538D01*
X44409950Y-129529990D01*
X44565000Y-128750500D01*
X44565000Y-128554474D01*
X44670893Y-128395994D01*
X44865000Y-127420151D01*
X44865000Y-125790849D01*
X44670893Y-124815006D01*
X44565000Y-124656526D01*
X44565000Y-123593670D01*
X44700392Y-123395517D01*
X44719633Y-123300500D01*
X48427500Y-123300500D01*
X49288538Y-123129229D01*
X49653377Y-122885451D01*
X50158309Y-122676817D01*
X50873686Y-122989745D01*
G36*
X51600000Y-95755338D02*
X51171868Y-95578000D01*
X50727000Y-95578000D01*
X50352000Y-95953000D01*
X50352000Y-96013263D01*
X50346638Y-96000318D01*
X49924681Y-95578361D01*
X49373368Y-95350000D01*
X49125000Y-95350000D01*
X48750000Y-95725000D01*
X48750000Y-95937180D01*
X48650000Y-96037180D01*
X48650000Y-95725000D01*
X48275000Y-95350000D01*
X48237928Y-95350000D01*
X48196638Y-95250318D01*
X47774681Y-94828361D01*
X47223368Y-94600000D01*
X46725000Y-94600000D01*
X46350000Y-94975000D01*
X46350000Y-96800000D01*
X46370000Y-96800000D01*
X46370000Y-96900000D01*
X46350000Y-96900000D01*
X46350000Y-96920000D01*
X46250000Y-96920000D01*
X46250000Y-96900000D01*
X44550000Y-96900000D01*
X44175000Y-97275000D01*
X44175000Y-97898369D01*
X44193073Y-97942000D01*
X42601095Y-97942000D01*
X42149017Y-97633108D01*
X41554000Y-97512614D01*
X41240910Y-97512614D01*
X40878648Y-97150352D01*
X40278465Y-96749323D01*
X39570500Y-96608499D01*
X39570495Y-96608500D01*
X38981595Y-96608500D01*
X38529517Y-96299608D01*
X37934500Y-96179114D01*
X36634500Y-96179114D01*
X36078633Y-96283707D01*
X35573891Y-96608500D01*
X32157505Y-96608500D01*
X32157500Y-96608499D01*
X31449535Y-96749323D01*
X30849352Y-97150352D01*
X29338193Y-98661511D01*
X29220000Y-98638001D01*
X28358962Y-98809271D01*
X27629010Y-99297010D01*
X27188385Y-99737635D01*
X26969466Y-99410000D01*
X27217156Y-99039306D01*
X27396039Y-98140000D01*
X27217156Y-97240694D01*
X26707740Y-96478299D01*
X25945345Y-95968883D01*
X25104513Y-95801631D01*
X44175000Y-95801631D01*
X44175000Y-96425000D01*
X44550000Y-96800000D01*
X46250000Y-96800000D01*
X46250000Y-94975000D01*
X45875000Y-94600000D01*
X45376632Y-94600000D01*
X44825319Y-94828361D01*
X44403362Y-95250318D01*
X44175000Y-95801631D01*
X25104513Y-95801631D01*
X25046039Y-95790000D01*
X24953961Y-95790000D01*
X24682485Y-95844000D01*
X23695500Y-95844000D01*
X22834462Y-96015271D01*
X22221260Y-96425000D01*
X22104510Y-96503010D01*
X20644010Y-97963510D01*
X20156271Y-98693462D01*
X19985000Y-99554500D01*
X19985000Y-127939000D01*
X20126448Y-128650108D01*
X19138528Y-128649246D01*
X17539142Y-129310099D01*
X16550000Y-130297515D01*
X16550000Y-93701178D01*
X17532705Y-94685601D01*
X19130935Y-95349244D01*
X20861472Y-95350754D01*
X22460858Y-94689901D01*
X23685601Y-93467295D01*
X24349244Y-91869065D01*
X24350754Y-90138528D01*
X23694387Y-88550000D01*
X51600000Y-88550000D01*
X51600000Y-95755338D01*
X51600000Y-95755338D01*
G37*
X51600000Y-95755338D02*
X51171868Y-95578000D01*
X50727000Y-95578000D01*
X50352000Y-95953000D01*
X50352000Y-96013263D01*
X50346638Y-96000318D01*
X49924681Y-95578361D01*
X49373368Y-95350000D01*
X49125000Y-95350000D01*
X48750000Y-95725000D01*
X48750000Y-95937180D01*
X48650000Y-96037180D01*
X48650000Y-95725000D01*
X48275000Y-95350000D01*
X48237928Y-95350000D01*
X48196638Y-95250318D01*
X47774681Y-94828361D01*
X47223368Y-94600000D01*
X46725000Y-94600000D01*
X46350000Y-94975000D01*
X46350000Y-96800000D01*
X46370000Y-96800000D01*
X46370000Y-96900000D01*
X46350000Y-96900000D01*
X46350000Y-96920000D01*
X46250000Y-96920000D01*
X46250000Y-96900000D01*
X44550000Y-96900000D01*
X44175000Y-97275000D01*
X44175000Y-97898369D01*
X44193073Y-97942000D01*
X42601095Y-97942000D01*
X42149017Y-97633108D01*
X41554000Y-97512614D01*
X41240910Y-97512614D01*
X40878648Y-97150352D01*
X40278465Y-96749323D01*
X39570500Y-96608499D01*
X39570495Y-96608500D01*
X38981595Y-96608500D01*
X38529517Y-96299608D01*
X37934500Y-96179114D01*
X36634500Y-96179114D01*
X36078633Y-96283707D01*
X35573891Y-96608500D01*
X32157505Y-96608500D01*
X32157500Y-96608499D01*
X31449535Y-96749323D01*
X30849352Y-97150352D01*
X29338193Y-98661511D01*
X29220000Y-98638001D01*
X28358962Y-98809271D01*
X27629010Y-99297010D01*
X27188385Y-99737635D01*
X26969466Y-99410000D01*
X27217156Y-99039306D01*
X27396039Y-98140000D01*
X27217156Y-97240694D01*
X26707740Y-96478299D01*
X25945345Y-95968883D01*
X25104513Y-95801631D01*
X44175000Y-95801631D01*
X44175000Y-96425000D01*
X44550000Y-96800000D01*
X46250000Y-96800000D01*
X46250000Y-94975000D01*
X45875000Y-94600000D01*
X45376632Y-94600000D01*
X44825319Y-94828361D01*
X44403362Y-95250318D01*
X44175000Y-95801631D01*
X25104513Y-95801631D01*
X25046039Y-95790000D01*
X24953961Y-95790000D01*
X24682485Y-95844000D01*
X23695500Y-95844000D01*
X22834462Y-96015271D01*
X22221260Y-96425000D01*
X22104510Y-96503010D01*
X20644010Y-97963510D01*
X20156271Y-98693462D01*
X19985000Y-99554500D01*
X19985000Y-127939000D01*
X20126448Y-128650108D01*
X19138528Y-128649246D01*
X17539142Y-129310099D01*
X16550000Y-130297515D01*
X16550000Y-93701178D01*
X17532705Y-94685601D01*
X19130935Y-95349244D01*
X20861472Y-95350754D01*
X22460858Y-94689901D01*
X23685601Y-93467295D01*
X24349244Y-91869065D01*
X24350754Y-90138528D01*
X23694387Y-88550000D01*
X51600000Y-88550000D01*
X51600000Y-95755338D01*
G36*
X51600000Y-118003055D02*
X50971945Y-117990710D01*
X50140088Y-118316274D01*
X49379462Y-118000435D01*
X48384901Y-117999567D01*
X47465714Y-118379367D01*
X47043846Y-118800500D01*
X44726805Y-118800500D01*
X44716293Y-118744633D01*
X44462732Y-118350588D01*
X44563138Y-118250182D01*
X44791500Y-117698869D01*
X44791500Y-116075500D01*
X44416500Y-115700500D01*
X42541500Y-115700500D01*
X42541500Y-115720500D01*
X42441500Y-115720500D01*
X42441500Y-115700500D01*
X40566500Y-115700500D01*
X40191500Y-116075500D01*
X40191500Y-117698869D01*
X40419862Y-118250182D01*
X40523137Y-118353457D01*
X40282608Y-118705483D01*
X40263367Y-118800500D01*
X38840980Y-118800500D01*
X38549047Y-118508567D01*
X38513425Y-118319251D01*
X38584000Y-118148869D01*
X38584000Y-117525500D01*
X38209000Y-117150500D01*
X36509000Y-117150500D01*
X36509000Y-117170500D01*
X36409000Y-117170500D01*
X36409000Y-117150500D01*
X34709000Y-117150500D01*
X34334000Y-117525500D01*
X34334000Y-118148869D01*
X34409693Y-118331607D01*
X34304614Y-118850500D01*
X34304614Y-119119816D01*
X34209000Y-119600500D01*
X34304614Y-120081184D01*
X34304614Y-120350500D01*
X34409207Y-120906367D01*
X34737724Y-121416896D01*
X35238983Y-121759392D01*
X35485918Y-121809398D01*
X36318010Y-122641490D01*
X37047962Y-123129229D01*
X37909000Y-123300500D01*
X40065000Y-123300500D01*
X40065000Y-124656526D01*
X39959107Y-124815006D01*
X39815000Y-125539482D01*
X39670893Y-124815006D01*
X39118122Y-123987727D01*
X38290843Y-123434956D01*
X37315000Y-123240849D01*
X36339157Y-123434956D01*
X35511878Y-123987727D01*
X34959107Y-124815006D01*
X34815000Y-125539482D01*
X34670893Y-124815006D01*
X34118122Y-123987727D01*
X33290843Y-123434956D01*
X32315000Y-123240849D01*
X31339157Y-123434956D01*
X30511878Y-123987727D01*
X29959107Y-124815006D01*
X29865000Y-125288114D01*
X29865000Y-124507132D01*
X29636639Y-123955819D01*
X29214682Y-123533862D01*
X28663369Y-123305500D01*
X27740000Y-123305500D01*
X27365000Y-123680500D01*
X27365000Y-126555500D01*
X27385000Y-126555500D01*
X27385000Y-126655500D01*
X27365000Y-126655500D01*
X27365000Y-126675500D01*
X27265000Y-126675500D01*
X27265000Y-126655500D01*
X25140000Y-126655500D01*
X24765000Y-127030500D01*
X24765000Y-127287020D01*
X24485000Y-127007020D01*
X24485000Y-124507132D01*
X24765000Y-124507132D01*
X24765000Y-126180500D01*
X25140000Y-126555500D01*
X27265000Y-126555500D01*
X27265000Y-123680500D01*
X26890000Y-123305500D01*
X26255801Y-123305500D01*
X26699682Y-123121638D01*
X27121639Y-122699681D01*
X27350000Y-122148368D01*
X27350000Y-121425000D01*
X26975000Y-121050000D01*
X25050000Y-121050000D01*
X25050000Y-122975000D01*
X25425000Y-123350000D01*
X25859199Y-123350000D01*
X25415318Y-123533862D01*
X24993361Y-123955819D01*
X24765000Y-124507132D01*
X24485000Y-124507132D01*
X24485000Y-123350000D01*
X24575000Y-123350000D01*
X24950000Y-122975000D01*
X24950000Y-121050000D01*
X24930000Y-121050000D01*
X24930000Y-120950000D01*
X24950000Y-120950000D01*
X24950000Y-120930000D01*
X25050000Y-120930000D01*
X25050000Y-120950000D01*
X26975000Y-120950000D01*
X27350000Y-120575000D01*
X27350000Y-119851632D01*
X27173275Y-119424979D01*
X27217156Y-119359306D01*
X27396039Y-118460000D01*
X27237626Y-117663606D01*
X27641965Y-117583177D01*
X28242148Y-117182148D01*
X32219136Y-113205160D01*
X32173348Y-113315430D01*
X32172654Y-114111079D01*
X32476494Y-114846429D01*
X33038612Y-115409529D01*
X33773430Y-115714652D01*
X34473536Y-115715263D01*
X34334000Y-116052131D01*
X34334000Y-116675500D01*
X34709000Y-117050500D01*
X36409000Y-117050500D01*
X36409000Y-115225500D01*
X36509000Y-115225500D01*
X36509000Y-117050500D01*
X38209000Y-117050500D01*
X38584000Y-116675500D01*
X38584000Y-116052131D01*
X38355638Y-115500818D01*
X37933681Y-115078861D01*
X37382368Y-114850500D01*
X36884000Y-114850500D01*
X36509000Y-115225500D01*
X36409000Y-115225500D01*
X36034000Y-114850500D01*
X35866415Y-114850500D01*
X35867529Y-114849388D01*
X36018510Y-114485785D01*
X36036145Y-114468150D01*
X36036148Y-114468148D01*
X36437177Y-113867964D01*
X36460864Y-113748883D01*
X36496136Y-113571558D01*
X36678000Y-113608386D01*
X38178000Y-113608386D01*
X38601239Y-113528749D01*
X38994500Y-113608386D01*
X40191500Y-113608386D01*
X40191500Y-115225500D01*
X40566500Y-115600500D01*
X42441500Y-115600500D01*
X42441500Y-112775500D01*
X42394500Y-112728500D01*
X42394500Y-111479000D01*
X42494500Y-111479000D01*
X42494500Y-113204000D01*
X42541500Y-113251000D01*
X42541500Y-115600500D01*
X44416500Y-115600500D01*
X44791500Y-115225500D01*
X44791500Y-113602131D01*
X44563138Y-113050818D01*
X44453570Y-112941250D01*
X44466139Y-112928681D01*
X44694500Y-112377368D01*
X44694500Y-111854000D01*
X44319500Y-111479000D01*
X42494500Y-111479000D01*
X42394500Y-111479000D01*
X42374500Y-111479000D01*
X42374500Y-111379000D01*
X42394500Y-111379000D01*
X42394500Y-109654000D01*
X42494500Y-109654000D01*
X42494500Y-111379000D01*
X44319500Y-111379000D01*
X44694500Y-111004000D01*
X44694500Y-110480632D01*
X44466139Y-109929319D01*
X44044182Y-109507362D01*
X43492869Y-109279000D01*
X42869500Y-109279000D01*
X42494500Y-109654000D01*
X42394500Y-109654000D01*
X42019500Y-109279000D01*
X41396131Y-109279000D01*
X41122225Y-109392456D01*
X41089517Y-109370108D01*
X40494500Y-109249614D01*
X38994500Y-109249614D01*
X38571261Y-109329251D01*
X38178000Y-109249614D01*
X36678000Y-109249614D01*
X36122133Y-109354207D01*
X36084854Y-109378196D01*
X36073017Y-109370108D01*
X36057359Y-109366937D01*
X36526796Y-108897500D01*
X48523995Y-108897500D01*
X48524000Y-108897501D01*
X49231965Y-108756677D01*
X49832148Y-108355648D01*
X50115796Y-108072000D01*
X50302000Y-108072000D01*
X50636891Y-108005386D01*
X50873500Y-108005386D01*
X51429367Y-107900793D01*
X51600000Y-107790993D01*
X51600000Y-118003055D01*
X51600000Y-118003055D01*
G37*
X51600000Y-118003055D02*
X50971945Y-117990710D01*
X50140088Y-118316274D01*
X49379462Y-118000435D01*
X48384901Y-117999567D01*
X47465714Y-118379367D01*
X47043846Y-118800500D01*
X44726805Y-118800500D01*
X44716293Y-118744633D01*
X44462732Y-118350588D01*
X44563138Y-118250182D01*
X44791500Y-117698869D01*
X44791500Y-116075500D01*
X44416500Y-115700500D01*
X42541500Y-115700500D01*
X42541500Y-115720500D01*
X42441500Y-115720500D01*
X42441500Y-115700500D01*
X40566500Y-115700500D01*
X40191500Y-116075500D01*
X40191500Y-117698869D01*
X40419862Y-118250182D01*
X40523137Y-118353457D01*
X40282608Y-118705483D01*
X40263367Y-118800500D01*
X38840980Y-118800500D01*
X38549047Y-118508567D01*
X38513425Y-118319251D01*
X38584000Y-118148869D01*
X38584000Y-117525500D01*
X38209000Y-117150500D01*
X36509000Y-117150500D01*
X36509000Y-117170500D01*
X36409000Y-117170500D01*
X36409000Y-117150500D01*
X34709000Y-117150500D01*
X34334000Y-117525500D01*
X34334000Y-118148869D01*
X34409693Y-118331607D01*
X34304614Y-118850500D01*
X34304614Y-119119816D01*
X34209000Y-119600500D01*
X34304614Y-120081184D01*
X34304614Y-120350500D01*
X34409207Y-120906367D01*
X34737724Y-121416896D01*
X35238983Y-121759392D01*
X35485918Y-121809398D01*
X36318010Y-122641490D01*
X37047962Y-123129229D01*
X37909000Y-123300500D01*
X40065000Y-123300500D01*
X40065000Y-124656526D01*
X39959107Y-124815006D01*
X39815000Y-125539482D01*
X39670893Y-124815006D01*
X39118122Y-123987727D01*
X38290843Y-123434956D01*
X37315000Y-123240849D01*
X36339157Y-123434956D01*
X35511878Y-123987727D01*
X34959107Y-124815006D01*
X34815000Y-125539482D01*
X34670893Y-124815006D01*
X34118122Y-123987727D01*
X33290843Y-123434956D01*
X32315000Y-123240849D01*
X31339157Y-123434956D01*
X30511878Y-123987727D01*
X29959107Y-124815006D01*
X29865000Y-125288114D01*
X29865000Y-124507132D01*
X29636639Y-123955819D01*
X29214682Y-123533862D01*
X28663369Y-123305500D01*
X27740000Y-123305500D01*
X27365000Y-123680500D01*
X27365000Y-126555500D01*
X27385000Y-126555500D01*
X27385000Y-126655500D01*
X27365000Y-126655500D01*
X27365000Y-126675500D01*
X27265000Y-126675500D01*
X27265000Y-126655500D01*
X25140000Y-126655500D01*
X24765000Y-127030500D01*
X24765000Y-127287020D01*
X24485000Y-127007020D01*
X24485000Y-124507132D01*
X24765000Y-124507132D01*
X24765000Y-126180500D01*
X25140000Y-126555500D01*
X27265000Y-126555500D01*
X27265000Y-123680500D01*
X26890000Y-123305500D01*
X26255801Y-123305500D01*
X26699682Y-123121638D01*
X27121639Y-122699681D01*
X27350000Y-122148368D01*
X27350000Y-121425000D01*
X26975000Y-121050000D01*
X25050000Y-121050000D01*
X25050000Y-122975000D01*
X25425000Y-123350000D01*
X25859199Y-123350000D01*
X25415318Y-123533862D01*
X24993361Y-123955819D01*
X24765000Y-124507132D01*
X24485000Y-124507132D01*
X24485000Y-123350000D01*
X24575000Y-123350000D01*
X24950000Y-122975000D01*
X24950000Y-121050000D01*
X24930000Y-121050000D01*
X24930000Y-120950000D01*
X24950000Y-120950000D01*
X24950000Y-120930000D01*
X25050000Y-120930000D01*
X25050000Y-120950000D01*
X26975000Y-120950000D01*
X27350000Y-120575000D01*
X27350000Y-119851632D01*
X27173275Y-119424979D01*
X27217156Y-119359306D01*
X27396039Y-118460000D01*
X27237626Y-117663606D01*
X27641965Y-117583177D01*
X28242148Y-117182148D01*
X32219136Y-113205160D01*
X32173348Y-113315430D01*
X32172654Y-114111079D01*
X32476494Y-114846429D01*
X33038612Y-115409529D01*
X33773430Y-115714652D01*
X34473536Y-115715263D01*
X34334000Y-116052131D01*
X34334000Y-116675500D01*
X34709000Y-117050500D01*
X36409000Y-117050500D01*
X36409000Y-115225500D01*
X36509000Y-115225500D01*
X36509000Y-117050500D01*
X38209000Y-117050500D01*
X38584000Y-116675500D01*
X38584000Y-116052131D01*
X38355638Y-115500818D01*
X37933681Y-115078861D01*
X37382368Y-114850500D01*
X36884000Y-114850500D01*
X36509000Y-115225500D01*
X36409000Y-115225500D01*
X36034000Y-114850500D01*
X35866415Y-114850500D01*
X35867529Y-114849388D01*
X36018510Y-114485785D01*
X36036145Y-114468150D01*
X36036148Y-114468148D01*
X36437177Y-113867964D01*
X36460864Y-113748883D01*
X36496136Y-113571558D01*
X36678000Y-113608386D01*
X38178000Y-113608386D01*
X38601239Y-113528749D01*
X38994500Y-113608386D01*
X40191500Y-113608386D01*
X40191500Y-115225500D01*
X40566500Y-115600500D01*
X42441500Y-115600500D01*
X42441500Y-112775500D01*
X42394500Y-112728500D01*
X42394500Y-111479000D01*
X42494500Y-111479000D01*
X42494500Y-113204000D01*
X42541500Y-113251000D01*
X42541500Y-115600500D01*
X44416500Y-115600500D01*
X44791500Y-115225500D01*
X44791500Y-113602131D01*
X44563138Y-113050818D01*
X44453570Y-112941250D01*
X44466139Y-112928681D01*
X44694500Y-112377368D01*
X44694500Y-111854000D01*
X44319500Y-111479000D01*
X42494500Y-111479000D01*
X42394500Y-111479000D01*
X42374500Y-111479000D01*
X42374500Y-111379000D01*
X42394500Y-111379000D01*
X42394500Y-109654000D01*
X42494500Y-109654000D01*
X42494500Y-111379000D01*
X44319500Y-111379000D01*
X44694500Y-111004000D01*
X44694500Y-110480632D01*
X44466139Y-109929319D01*
X44044182Y-109507362D01*
X43492869Y-109279000D01*
X42869500Y-109279000D01*
X42494500Y-109654000D01*
X42394500Y-109654000D01*
X42019500Y-109279000D01*
X41396131Y-109279000D01*
X41122225Y-109392456D01*
X41089517Y-109370108D01*
X40494500Y-109249614D01*
X38994500Y-109249614D01*
X38571261Y-109329251D01*
X38178000Y-109249614D01*
X36678000Y-109249614D01*
X36122133Y-109354207D01*
X36084854Y-109378196D01*
X36073017Y-109370108D01*
X36057359Y-109366937D01*
X36526796Y-108897500D01*
X48523995Y-108897500D01*
X48524000Y-108897501D01*
X49231965Y-108756677D01*
X49832148Y-108355648D01*
X50115796Y-108072000D01*
X50302000Y-108072000D01*
X50636891Y-108005386D01*
X50873500Y-108005386D01*
X51429367Y-107900793D01*
X51600000Y-107790993D01*
X51600000Y-118003055D01*
G36*
X51504853Y-120485858D02*
X51490711Y-120500000D01*
X51504853Y-120514142D01*
X51434142Y-120584853D01*
X51420000Y-120570711D01*
X51405858Y-120584853D01*
X51379949Y-120558944D01*
X51380052Y-120440953D01*
X51405858Y-120415147D01*
X51420000Y-120429289D01*
X51434142Y-120415147D01*
X51504853Y-120485858D01*
X51504853Y-120485858D01*
G37*
X51504853Y-120485858D02*
X51490711Y-120500000D01*
X51504853Y-120514142D01*
X51434142Y-120584853D01*
X51420000Y-120570711D01*
X51405858Y-120584853D01*
X51379949Y-120558944D01*
X51380052Y-120440953D01*
X51405858Y-120415147D01*
X51420000Y-120429289D01*
X51434142Y-120415147D01*
X51504853Y-120485858D01*
M02*
