M48
;DRILL file {KiCad 4.0.6} date 2017 August 15, Tuesday 11:44:34
;FORMAT={3:3/ absolute / metric / suppress leading zeros}
FMAT,2
METRIC,TZ
T1C0.400
T2C0.500
T3C0.700
T4C0.800
T5C0.900
T6C1.000
T7C1.100
T8C1.200
T9C1.400
T10C1.500
T11C2.000
T12C3.200
T13C4.300
T14C5.500
%
G90
G05
M71
T1
X29220Y-100888
X34173Y-113715
X116200Y12080
X116207Y43062
X119380Y12080
X122550Y27480
X124380Y12080
X131904Y42859
X141760Y11820
X141800Y28480
X146600Y12080
X146789Y20152
X148008Y43012
T2
X42300Y-108600
X42400Y-97300
X46300Y-94300
X48800Y-126300
X48800Y-128700
X49400Y-112300
X49400Y-115800
X61668Y-116763
X62100Y-101100
X62100Y-102400
X62100Y-103700
X62900Y-133000
X63000Y-115100
X68600Y-93800
X68700Y-105700
X70300Y-95300
X70300Y-99300
X71300Y-109800
X71900Y-93700
X74700Y-122800
X76500Y-122800
X76655Y-106286
X82916Y-110388
X84211Y-119684
X86600Y-115800
X89700Y-112200
X92100Y-123200
X95000Y-94800
X98900Y-98100
T3
X31178Y-53086
X31178Y-55626
X31178Y-58166
X55308Y-53086
X55308Y-55626
X55308Y-58166
X79184Y-53086
X79184Y-55626
X79184Y-58166
T4
X29250Y-65151
X31750Y-65151
X35560Y-24892
X35560Y-32512
X38100Y-24892
X38100Y-32512
X40640Y-24892
X40640Y-32512
X43180Y-24892
X43180Y-32512
X48768Y-65786
X51268Y-65786
X59944Y-24892
X59944Y-32512
X62484Y-24892
X62484Y-32512
X65024Y-24892
X65024Y-32512
X67564Y-24892
X67564Y-32512
X83566Y-25146
X83566Y-32766
X86106Y-25146
X86106Y-32766
X88646Y-25146
X88646Y-32766
X91186Y-25146
X91186Y-32766
X132837Y-70866
X134747Y-70866
X136657Y-70866
X220549Y-136157
X221438Y-117488
X221438Y-120028
X221438Y-122568
X221438Y-125108
X223049Y-136157
X228042Y-136157
X229058Y-117488
X229058Y-120028
X229058Y-122568
X229058Y-125108
X230542Y-136157
X231521Y-38222
X231521Y-40132
X231521Y-42042
X231521Y-61971
X231521Y-63881
X231521Y-65791
X235154Y-106312
X235154Y-108312
T5
X38180Y-42124
X43180Y-39624
X43180Y-44624
X62564Y-42124
X67564Y-39624
X67564Y-44624
X86186Y-42378
X91186Y-39878
X91186Y-44878
X208967Y-114952
X208967Y-119952
X208967Y-125518
X208967Y-130518
X213967Y-117452
X213967Y-128018
T6
X25000Y-98140
X25000Y-100680
X25000Y-103220
X25000Y-105760
X25000Y-108300
X25000Y-110840
X25000Y-113380
X25000Y-115920
X25000Y-118460
X25000Y-121000
X38798Y-49276
X38798Y-61976
X41338Y-49276
X41338Y-61976
X43878Y-49276
X43878Y-61976
X48880Y-120500
X51420Y-120500
X59040Y-120500
X61580Y-120500
X62928Y-49276
X62928Y-61976
X64120Y-120500
X65468Y-49276
X65468Y-61976
X68008Y-49276
X68008Y-61976
X80500Y-97400
X86804Y-49276
X86804Y-61976
X89344Y-49276
X89344Y-61976
X91884Y-49276
X91884Y-61976
X93957Y54543
X93957Y24698
X95000Y-98120
X95000Y-100660
X95000Y-103200
X170030Y54416
X176480Y-115964
X176480Y-131204
T7
X105082Y50290
X105082Y35290
X105082Y30986
X105082Y15986
X105082Y12444
X105082Y-2556
T8
X81587Y36941
X81587Y21701
X85016Y56753
X100256Y56753
X128982Y-130950
X128982Y-153350
X129000Y-93386
X129000Y-115786
X144000Y-93358
X144000Y-115758
X144000Y-130902
X144000Y-153302
X159000Y-93310
X159000Y-115710
X159000Y-130950
X159000Y-153350
X179377Y36433
X179377Y21193
X196800Y-115964
X196800Y-123584
X196800Y-131204
T9
X27315Y-126606
X32315Y-126606
X37315Y-126606
X38354Y-74168
X42315Y-126606
X43354Y-74168
X48354Y-74168
X57658Y-74168
X62658Y-74168
X63807Y31988
X63807Y26988
X67658Y-74168
X70622Y-126732
X70970Y48117
X72658Y-74168
X74505Y51653
X75622Y-126732
X80622Y-126732
X82042Y-74168
X87042Y-74168
X94400Y-109500
X94400Y-114500
X94400Y-119500
X113566Y-2937
X113624Y58785
X118566Y-2937
X118624Y58785
X123566Y-2937
X123624Y58785
X129700Y-25196
X131658Y58785
X131701Y-2937
X134700Y-25196
X136658Y58785
X136701Y-2937
X139700Y-25196
X141658Y58785
X141701Y-2937
X149692Y58785
X149786Y-2937
X153416Y-75196
X154692Y58785
X154786Y-2937
X158416Y-75196
X159692Y58785
X159786Y-2937
X169037Y-75196
X174037Y-75196
X175547Y-25196
X179037Y-75196
X180547Y-25196
X184037Y-75196
X185547Y-25196
X195152Y-25146
X200152Y-25146
X200713Y33098
X200713Y28098
X200713Y23098
X219155Y-25196
X220676Y-148832
X224155Y-25196
X225676Y-148832
X230676Y-148832
X246686Y-117924
X246686Y-122924
T10
X112472Y-119520
X112472Y-127020
T11
X152141Y-37901
X152141Y-60651
X162141Y-37901
X162141Y-60651
X167641Y-60651
X173641Y-37901
X177641Y-37901
X180641Y-60651
X195141Y-37901
X199141Y-37901
X199141Y-60651
T12
X20000Y-91000
X20000Y-133000
X100000Y-91000
X100000Y-133000
T13
X20440Y-20594
X20440Y-78594
X103440Y-20594
X103440Y-78594
X118781Y-21196
X118781Y-79196
X119000Y-99000
X119000Y-149000
X244781Y-21196
X244781Y-79196
X249000Y-98000
X249000Y-149000
T14
X94000Y43750
X94000Y12250
X170000Y43750
X170000Y12250
T11
X127497Y-49466G85X131497Y-49466
G05
X137997Y-49466G85X141997Y-49466
G05
X210121Y-36882G85X210121Y-32882
G05
X210121Y-47382G85X210121Y-43382
G05
X210121Y-60631G85X210121Y-56631
G05
X210121Y-71131G85X210121Y-67131
G05
T0
M30
