G04 #@! TF.FileFunction,Legend,Bot*
%FSLAX46Y46*%
G04 Gerber Fmt 4.6, Leading zero omitted, Abs format (unit mm)*
G04 Created by KiCad (PCBNEW 4.0.6) date 2017 August 14, Monday 14:56:33*
%MOMM*%
%LPD*%
G01*
G04 APERTURE LIST*
%ADD10C,0.100000*%
%ADD11C,0.125000*%
%ADD12C,0.200000*%
%ADD13C,0.187500*%
%ADD14C,0.250000*%
%ADD15C,0.300000*%
%ADD16C,0.120000*%
%ADD17C,0.150000*%
G04 APERTURE END LIST*
D10*
D11*
X82773992Y-19530190D02*
X82773992Y-19030190D01*
X82488278Y-19530190D01*
X82488278Y-19030190D01*
X82178754Y-19530190D02*
X82226373Y-19506381D01*
X82250182Y-19482571D01*
X82273992Y-19434952D01*
X82273992Y-19292095D01*
X82250182Y-19244476D01*
X82226373Y-19220667D01*
X82178754Y-19196857D01*
X82107325Y-19196857D01*
X82059706Y-19220667D01*
X82035897Y-19244476D01*
X82012087Y-19292095D01*
X82012087Y-19434952D01*
X82035897Y-19482571D01*
X82059706Y-19506381D01*
X82107325Y-19530190D01*
X82178754Y-19530190D01*
X81869230Y-19196857D02*
X81678754Y-19196857D01*
X81797801Y-19030190D02*
X81797801Y-19458762D01*
X81773992Y-19506381D01*
X81726373Y-19530190D01*
X81678754Y-19530190D01*
X81202564Y-19196857D02*
X81012088Y-19196857D01*
X81131135Y-19030190D02*
X81131135Y-19458762D01*
X81107326Y-19506381D01*
X81059707Y-19530190D01*
X81012088Y-19530190D01*
X80845421Y-19530190D02*
X80845421Y-19030190D01*
X80631136Y-19530190D02*
X80631136Y-19268286D01*
X80654945Y-19220667D01*
X80702564Y-19196857D01*
X80773993Y-19196857D01*
X80821612Y-19220667D01*
X80845421Y-19244476D01*
X80178755Y-19530190D02*
X80178755Y-19268286D01*
X80202564Y-19220667D01*
X80250183Y-19196857D01*
X80345421Y-19196857D01*
X80393040Y-19220667D01*
X80178755Y-19506381D02*
X80226374Y-19530190D01*
X80345421Y-19530190D01*
X80393040Y-19506381D01*
X80416850Y-19458762D01*
X80416850Y-19411143D01*
X80393040Y-19363524D01*
X80345421Y-19339714D01*
X80226374Y-19339714D01*
X80178755Y-19315905D01*
X80012088Y-19196857D02*
X79821612Y-19196857D01*
X79940659Y-19030190D02*
X79940659Y-19458762D01*
X79916850Y-19506381D01*
X79869231Y-19530190D01*
X79821612Y-19530190D01*
X79059708Y-19530190D02*
X79059708Y-19268286D01*
X79083517Y-19220667D01*
X79131136Y-19196857D01*
X79226374Y-19196857D01*
X79273993Y-19220667D01*
X79059708Y-19506381D02*
X79107327Y-19530190D01*
X79226374Y-19530190D01*
X79273993Y-19506381D01*
X79297803Y-19458762D01*
X79297803Y-19411143D01*
X79273993Y-19363524D01*
X79226374Y-19339714D01*
X79107327Y-19339714D01*
X79059708Y-19315905D01*
X78821612Y-19196857D02*
X78821612Y-19530190D01*
X78821612Y-19244476D02*
X78797803Y-19220667D01*
X78750184Y-19196857D01*
X78678755Y-19196857D01*
X78631136Y-19220667D01*
X78607327Y-19268286D01*
X78607327Y-19530190D01*
X78416850Y-19196857D02*
X78297803Y-19530190D01*
X78178755Y-19196857D02*
X78297803Y-19530190D01*
X78345422Y-19649238D01*
X78369231Y-19673048D01*
X78416850Y-19696857D01*
X77916851Y-19530190D02*
X77964470Y-19506381D01*
X77988279Y-19482571D01*
X78012089Y-19434952D01*
X78012089Y-19292095D01*
X77988279Y-19244476D01*
X77964470Y-19220667D01*
X77916851Y-19196857D01*
X77845422Y-19196857D01*
X77797803Y-19220667D01*
X77773994Y-19244476D01*
X77750184Y-19292095D01*
X77750184Y-19434952D01*
X77773994Y-19482571D01*
X77797803Y-19506381D01*
X77845422Y-19530190D01*
X77916851Y-19530190D01*
X77535898Y-19196857D02*
X77535898Y-19530190D01*
X77535898Y-19244476D02*
X77512089Y-19220667D01*
X77464470Y-19196857D01*
X77393041Y-19196857D01*
X77345422Y-19220667D01*
X77321613Y-19268286D01*
X77321613Y-19530190D01*
X76893041Y-19506381D02*
X76940660Y-19530190D01*
X77035898Y-19530190D01*
X77083517Y-19506381D01*
X77107327Y-19458762D01*
X77107327Y-19268286D01*
X77083517Y-19220667D01*
X77035898Y-19196857D01*
X76940660Y-19196857D01*
X76893041Y-19220667D01*
X76869232Y-19268286D01*
X76869232Y-19315905D01*
X77107327Y-19363524D01*
X76059709Y-19506381D02*
X76107328Y-19530190D01*
X76202566Y-19530190D01*
X76250185Y-19506381D01*
X76273994Y-19482571D01*
X76297804Y-19434952D01*
X76297804Y-19292095D01*
X76273994Y-19244476D01*
X76250185Y-19220667D01*
X76202566Y-19196857D01*
X76107328Y-19196857D01*
X76059709Y-19220667D01*
X75631138Y-19530190D02*
X75631138Y-19268286D01*
X75654947Y-19220667D01*
X75702566Y-19196857D01*
X75797804Y-19196857D01*
X75845423Y-19220667D01*
X75631138Y-19506381D02*
X75678757Y-19530190D01*
X75797804Y-19530190D01*
X75845423Y-19506381D01*
X75869233Y-19458762D01*
X75869233Y-19411143D01*
X75845423Y-19363524D01*
X75797804Y-19339714D01*
X75678757Y-19339714D01*
X75631138Y-19315905D01*
X75393042Y-19530190D02*
X75393042Y-19196857D01*
X75393042Y-19292095D02*
X75369233Y-19244476D01*
X75345423Y-19220667D01*
X75297804Y-19196857D01*
X75250185Y-19196857D01*
X74893042Y-19506381D02*
X74940661Y-19530190D01*
X75035899Y-19530190D01*
X75083518Y-19506381D01*
X75107328Y-19458762D01*
X75107328Y-19268286D01*
X75083518Y-19220667D01*
X75035899Y-19196857D01*
X74940661Y-19196857D01*
X74893042Y-19220667D01*
X74869233Y-19268286D01*
X74869233Y-19315905D01*
X75107328Y-19363524D01*
X74678757Y-19506381D02*
X74631138Y-19530190D01*
X74535900Y-19530190D01*
X74488281Y-19506381D01*
X74464471Y-19458762D01*
X74464471Y-19434952D01*
X74488281Y-19387333D01*
X74535900Y-19363524D01*
X74607328Y-19363524D01*
X74654947Y-19339714D01*
X74678757Y-19292095D01*
X74678757Y-19268286D01*
X74654947Y-19220667D01*
X74607328Y-19196857D01*
X74535900Y-19196857D01*
X74488281Y-19220667D01*
X73916852Y-19196857D02*
X73821614Y-19530190D01*
X73726376Y-19292095D01*
X73631138Y-19530190D01*
X73535900Y-19196857D01*
X73345423Y-19530190D02*
X73345423Y-19030190D01*
X73131138Y-19530190D02*
X73131138Y-19268286D01*
X73154947Y-19220667D01*
X73202566Y-19196857D01*
X73273995Y-19196857D01*
X73321614Y-19220667D01*
X73345423Y-19244476D01*
X72678757Y-19530190D02*
X72678757Y-19268286D01*
X72702566Y-19220667D01*
X72750185Y-19196857D01*
X72845423Y-19196857D01*
X72893042Y-19220667D01*
X72678757Y-19506381D02*
X72726376Y-19530190D01*
X72845423Y-19530190D01*
X72893042Y-19506381D01*
X72916852Y-19458762D01*
X72916852Y-19411143D01*
X72893042Y-19363524D01*
X72845423Y-19339714D01*
X72726376Y-19339714D01*
X72678757Y-19315905D01*
X72512090Y-19196857D02*
X72321614Y-19196857D01*
X72440661Y-19030190D02*
X72440661Y-19458762D01*
X72416852Y-19506381D01*
X72369233Y-19530190D01*
X72321614Y-19530190D01*
X71773995Y-19530190D02*
X71773995Y-19030190D01*
X71178758Y-19506381D02*
X71131139Y-19530190D01*
X71035901Y-19530190D01*
X70988282Y-19506381D01*
X70964472Y-19458762D01*
X70964472Y-19434952D01*
X70988282Y-19387333D01*
X71035901Y-19363524D01*
X71107329Y-19363524D01*
X71154948Y-19339714D01*
X71178758Y-19292095D01*
X71178758Y-19268286D01*
X71154948Y-19220667D01*
X71107329Y-19196857D01*
X71035901Y-19196857D01*
X70988282Y-19220667D01*
X70535901Y-19530190D02*
X70535901Y-19268286D01*
X70559710Y-19220667D01*
X70607329Y-19196857D01*
X70702567Y-19196857D01*
X70750186Y-19220667D01*
X70535901Y-19506381D02*
X70583520Y-19530190D01*
X70702567Y-19530190D01*
X70750186Y-19506381D01*
X70773996Y-19458762D01*
X70773996Y-19411143D01*
X70750186Y-19363524D01*
X70702567Y-19339714D01*
X70583520Y-19339714D01*
X70535901Y-19315905D01*
X70345424Y-19196857D02*
X70226377Y-19530190D01*
X70107329Y-19196857D02*
X70226377Y-19530190D01*
X70273996Y-19649238D01*
X70297805Y-19673048D01*
X70345424Y-19696857D01*
X69893044Y-19506381D02*
X69893044Y-19530190D01*
X69916853Y-19577810D01*
X69940663Y-19601619D01*
X69297806Y-19530190D02*
X69297806Y-19030190D01*
X69297806Y-19220667D02*
X69250187Y-19196857D01*
X69154949Y-19196857D01*
X69107330Y-19220667D01*
X69083521Y-19244476D01*
X69059711Y-19292095D01*
X69059711Y-19434952D01*
X69083521Y-19482571D01*
X69107330Y-19506381D01*
X69154949Y-19530190D01*
X69250187Y-19530190D01*
X69297806Y-19506381D01*
X68631140Y-19196857D02*
X68631140Y-19530190D01*
X68845425Y-19196857D02*
X68845425Y-19458762D01*
X68821616Y-19506381D01*
X68773997Y-19530190D01*
X68702568Y-19530190D01*
X68654949Y-19506381D01*
X68631140Y-19482571D01*
X68464473Y-19196857D02*
X68273997Y-19196857D01*
X68393044Y-19030190D02*
X68393044Y-19458762D01*
X68369235Y-19506381D01*
X68321616Y-19530190D01*
X68273997Y-19530190D01*
X67797807Y-19196857D02*
X67607331Y-19196857D01*
X67726378Y-19030190D02*
X67726378Y-19458762D01*
X67702569Y-19506381D01*
X67654950Y-19530190D01*
X67607331Y-19530190D01*
X67440664Y-19530190D02*
X67440664Y-19030190D01*
X67226379Y-19530190D02*
X67226379Y-19268286D01*
X67250188Y-19220667D01*
X67297807Y-19196857D01*
X67369236Y-19196857D01*
X67416855Y-19220667D01*
X67440664Y-19244476D01*
X66797807Y-19506381D02*
X66845426Y-19530190D01*
X66940664Y-19530190D01*
X66988283Y-19506381D01*
X67012093Y-19458762D01*
X67012093Y-19268286D01*
X66988283Y-19220667D01*
X66940664Y-19196857D01*
X66845426Y-19196857D01*
X66797807Y-19220667D01*
X66773998Y-19268286D01*
X66773998Y-19315905D01*
X67012093Y-19363524D01*
X66178760Y-19530190D02*
X66178760Y-19196857D01*
X66178760Y-19292095D02*
X66154951Y-19244476D01*
X66131141Y-19220667D01*
X66083522Y-19196857D01*
X66035903Y-19196857D01*
X65678760Y-19506381D02*
X65726379Y-19530190D01*
X65821617Y-19530190D01*
X65869236Y-19506381D01*
X65893046Y-19458762D01*
X65893046Y-19268286D01*
X65869236Y-19220667D01*
X65821617Y-19196857D01*
X65726379Y-19196857D01*
X65678760Y-19220667D01*
X65654951Y-19268286D01*
X65654951Y-19315905D01*
X65893046Y-19363524D01*
X65464475Y-19506381D02*
X65416856Y-19530190D01*
X65321618Y-19530190D01*
X65273999Y-19506381D01*
X65250189Y-19458762D01*
X65250189Y-19434952D01*
X65273999Y-19387333D01*
X65321618Y-19363524D01*
X65393046Y-19363524D01*
X65440665Y-19339714D01*
X65464475Y-19292095D01*
X65464475Y-19268286D01*
X65440665Y-19220667D01*
X65393046Y-19196857D01*
X65321618Y-19196857D01*
X65273999Y-19220667D01*
X65107332Y-19196857D02*
X64916856Y-19196857D01*
X65035903Y-19030190D02*
X65035903Y-19458762D01*
X65012094Y-19506381D01*
X64964475Y-19530190D01*
X64916856Y-19530190D01*
X64535904Y-19530190D02*
X64535904Y-19268286D01*
X64559713Y-19220667D01*
X64607332Y-19196857D01*
X64702570Y-19196857D01*
X64750189Y-19220667D01*
X64535904Y-19506381D02*
X64583523Y-19530190D01*
X64702570Y-19530190D01*
X64750189Y-19506381D01*
X64773999Y-19458762D01*
X64773999Y-19411143D01*
X64750189Y-19363524D01*
X64702570Y-19339714D01*
X64583523Y-19339714D01*
X64535904Y-19315905D01*
X64083523Y-19196857D02*
X64083523Y-19530190D01*
X64297808Y-19196857D02*
X64297808Y-19458762D01*
X64273999Y-19506381D01*
X64226380Y-19530190D01*
X64154951Y-19530190D01*
X64107332Y-19506381D01*
X64083523Y-19482571D01*
X63845427Y-19530190D02*
X63845427Y-19196857D01*
X63845427Y-19292095D02*
X63821618Y-19244476D01*
X63797808Y-19220667D01*
X63750189Y-19196857D01*
X63702570Y-19196857D01*
X63321618Y-19530190D02*
X63321618Y-19268286D01*
X63345427Y-19220667D01*
X63393046Y-19196857D01*
X63488284Y-19196857D01*
X63535903Y-19220667D01*
X63321618Y-19506381D02*
X63369237Y-19530190D01*
X63488284Y-19530190D01*
X63535903Y-19506381D01*
X63559713Y-19458762D01*
X63559713Y-19411143D01*
X63535903Y-19363524D01*
X63488284Y-19339714D01*
X63369237Y-19339714D01*
X63321618Y-19315905D01*
X63083522Y-19196857D02*
X63083522Y-19530190D01*
X63083522Y-19244476D02*
X63059713Y-19220667D01*
X63012094Y-19196857D01*
X62940665Y-19196857D01*
X62893046Y-19220667D01*
X62869237Y-19268286D01*
X62869237Y-19530190D01*
X62702570Y-19196857D02*
X62512094Y-19196857D01*
X62631141Y-19030190D02*
X62631141Y-19458762D01*
X62607332Y-19506381D01*
X62559713Y-19530190D01*
X62512094Y-19530190D01*
X61964475Y-19530190D02*
X61964475Y-19196857D01*
X61964475Y-19030190D02*
X61988285Y-19054000D01*
X61964475Y-19077810D01*
X61940666Y-19054000D01*
X61964475Y-19030190D01*
X61964475Y-19077810D01*
X61750190Y-19506381D02*
X61702571Y-19530190D01*
X61607333Y-19530190D01*
X61559714Y-19506381D01*
X61535904Y-19458762D01*
X61535904Y-19434952D01*
X61559714Y-19387333D01*
X61607333Y-19363524D01*
X61678761Y-19363524D01*
X61726380Y-19339714D01*
X61750190Y-19292095D01*
X61750190Y-19268286D01*
X61726380Y-19220667D01*
X61678761Y-19196857D01*
X61607333Y-19196857D01*
X61559714Y-19220667D01*
X60726381Y-19530190D02*
X60726381Y-19268286D01*
X60750190Y-19220667D01*
X60797809Y-19196857D01*
X60893047Y-19196857D01*
X60940666Y-19220667D01*
X60726381Y-19506381D02*
X60774000Y-19530190D01*
X60893047Y-19530190D01*
X60940666Y-19506381D01*
X60964476Y-19458762D01*
X60964476Y-19411143D01*
X60940666Y-19363524D01*
X60893047Y-19339714D01*
X60774000Y-19339714D01*
X60726381Y-19315905D01*
X60559714Y-19196857D02*
X60369238Y-19196857D01*
X60488285Y-19030190D02*
X60488285Y-19458762D01*
X60464476Y-19506381D01*
X60416857Y-19530190D01*
X60369238Y-19530190D01*
X59893048Y-19196857D02*
X59702572Y-19196857D01*
X59821619Y-19030190D02*
X59821619Y-19458762D01*
X59797810Y-19506381D01*
X59750191Y-19530190D01*
X59702572Y-19530190D01*
X59535905Y-19530190D02*
X59535905Y-19030190D01*
X59321620Y-19530190D02*
X59321620Y-19268286D01*
X59345429Y-19220667D01*
X59393048Y-19196857D01*
X59464477Y-19196857D01*
X59512096Y-19220667D01*
X59535905Y-19244476D01*
X58893048Y-19506381D02*
X58940667Y-19530190D01*
X59035905Y-19530190D01*
X59083524Y-19506381D01*
X59107334Y-19458762D01*
X59107334Y-19268286D01*
X59083524Y-19220667D01*
X59035905Y-19196857D01*
X58940667Y-19196857D01*
X58893048Y-19220667D01*
X58869239Y-19268286D01*
X58869239Y-19315905D01*
X59107334Y-19363524D01*
X58202573Y-19030190D02*
X58202573Y-19149238D01*
X58321620Y-19101619D02*
X58202573Y-19149238D01*
X58083525Y-19101619D01*
X58274001Y-19244476D02*
X58202573Y-19149238D01*
X58131144Y-19244476D01*
X57821621Y-19530190D02*
X57869240Y-19506381D01*
X57893049Y-19482571D01*
X57916859Y-19434952D01*
X57916859Y-19292095D01*
X57893049Y-19244476D01*
X57869240Y-19220667D01*
X57821621Y-19196857D01*
X57750192Y-19196857D01*
X57702573Y-19220667D01*
X57678764Y-19244476D01*
X57654954Y-19292095D01*
X57654954Y-19434952D01*
X57678764Y-19482571D01*
X57702573Y-19506381D01*
X57750192Y-19530190D01*
X57821621Y-19530190D01*
X57512097Y-19196857D02*
X57321621Y-19196857D01*
X57440668Y-19030190D02*
X57440668Y-19458762D01*
X57416859Y-19506381D01*
X57369240Y-19530190D01*
X57321621Y-19530190D01*
X57154954Y-19530190D02*
X57154954Y-19030190D01*
X56940669Y-19530190D02*
X56940669Y-19268286D01*
X56964478Y-19220667D01*
X57012097Y-19196857D01*
X57083526Y-19196857D01*
X57131145Y-19220667D01*
X57154954Y-19244476D01*
X56512097Y-19506381D02*
X56559716Y-19530190D01*
X56654954Y-19530190D01*
X56702573Y-19506381D01*
X56726383Y-19458762D01*
X56726383Y-19268286D01*
X56702573Y-19220667D01*
X56654954Y-19196857D01*
X56559716Y-19196857D01*
X56512097Y-19220667D01*
X56488288Y-19268286D01*
X56488288Y-19315905D01*
X56726383Y-19363524D01*
X56274002Y-19530190D02*
X56274002Y-19196857D01*
X56274002Y-19292095D02*
X56250193Y-19244476D01*
X56226383Y-19220667D01*
X56178764Y-19196857D01*
X56131145Y-19196857D01*
X55893050Y-19030190D02*
X55893050Y-19149238D01*
X56012097Y-19101619D02*
X55893050Y-19149238D01*
X55774002Y-19101619D01*
X55964478Y-19244476D02*
X55893050Y-19149238D01*
X55821621Y-19244476D01*
X55012098Y-19506381D02*
X55059717Y-19530190D01*
X55154955Y-19530190D01*
X55202574Y-19506381D01*
X55226384Y-19458762D01*
X55226384Y-19268286D01*
X55202574Y-19220667D01*
X55154955Y-19196857D01*
X55059717Y-19196857D01*
X55012098Y-19220667D01*
X54988289Y-19268286D01*
X54988289Y-19315905D01*
X55226384Y-19363524D01*
X54774003Y-19196857D02*
X54774003Y-19530190D01*
X54774003Y-19244476D02*
X54750194Y-19220667D01*
X54702575Y-19196857D01*
X54631146Y-19196857D01*
X54583527Y-19220667D01*
X54559718Y-19268286D01*
X54559718Y-19530190D01*
X54107337Y-19530190D02*
X54107337Y-19030190D01*
X54107337Y-19506381D02*
X54154956Y-19530190D01*
X54250194Y-19530190D01*
X54297813Y-19506381D01*
X54321622Y-19482571D01*
X54345432Y-19434952D01*
X54345432Y-19292095D01*
X54321622Y-19244476D01*
X54297813Y-19220667D01*
X54250194Y-19196857D01*
X54154956Y-19196857D01*
X54107337Y-19220667D01*
X53416861Y-19530190D02*
X53464480Y-19506381D01*
X53488289Y-19482571D01*
X53512099Y-19434952D01*
X53512099Y-19292095D01*
X53488289Y-19244476D01*
X53464480Y-19220667D01*
X53416861Y-19196857D01*
X53345432Y-19196857D01*
X53297813Y-19220667D01*
X53274004Y-19244476D01*
X53250194Y-19292095D01*
X53250194Y-19434952D01*
X53274004Y-19482571D01*
X53297813Y-19506381D01*
X53345432Y-19530190D01*
X53416861Y-19530190D01*
X53107337Y-19196857D02*
X52916861Y-19196857D01*
X53035908Y-19530190D02*
X53035908Y-19101619D01*
X53012099Y-19054000D01*
X52964480Y-19030190D01*
X52916861Y-19030190D01*
X52440671Y-19196857D02*
X52250195Y-19196857D01*
X52369242Y-19030190D02*
X52369242Y-19458762D01*
X52345433Y-19506381D01*
X52297814Y-19530190D01*
X52250195Y-19530190D01*
X52083528Y-19530190D02*
X52083528Y-19030190D01*
X51869243Y-19530190D02*
X51869243Y-19268286D01*
X51893052Y-19220667D01*
X51940671Y-19196857D01*
X52012100Y-19196857D01*
X52059719Y-19220667D01*
X52083528Y-19244476D01*
X51440671Y-19506381D02*
X51488290Y-19530190D01*
X51583528Y-19530190D01*
X51631147Y-19506381D01*
X51654957Y-19458762D01*
X51654957Y-19268286D01*
X51631147Y-19220667D01*
X51583528Y-19196857D01*
X51488290Y-19196857D01*
X51440671Y-19220667D01*
X51416862Y-19268286D01*
X51416862Y-19315905D01*
X51654957Y-19363524D01*
X50821624Y-19030190D02*
X50821624Y-19434952D01*
X50797815Y-19482571D01*
X50774005Y-19506381D01*
X50726386Y-19530190D01*
X50631148Y-19530190D01*
X50583529Y-19506381D01*
X50559720Y-19482571D01*
X50535910Y-19434952D01*
X50535910Y-19030190D01*
X50297814Y-19196857D02*
X50297814Y-19530190D01*
X50297814Y-19244476D02*
X50274005Y-19220667D01*
X50226386Y-19196857D01*
X50154957Y-19196857D01*
X50107338Y-19220667D01*
X50083529Y-19268286D01*
X50083529Y-19530190D01*
X49845433Y-19530190D02*
X49845433Y-19196857D01*
X49845433Y-19030190D02*
X49869243Y-19054000D01*
X49845433Y-19077810D01*
X49821624Y-19054000D01*
X49845433Y-19030190D01*
X49845433Y-19077810D01*
X49654957Y-19196857D02*
X49535910Y-19530190D01*
X49416862Y-19196857D01*
X49035910Y-19506381D02*
X49083529Y-19530190D01*
X49178767Y-19530190D01*
X49226386Y-19506381D01*
X49250196Y-19458762D01*
X49250196Y-19268286D01*
X49226386Y-19220667D01*
X49178767Y-19196857D01*
X49083529Y-19196857D01*
X49035910Y-19220667D01*
X49012101Y-19268286D01*
X49012101Y-19315905D01*
X49250196Y-19363524D01*
X48797815Y-19530190D02*
X48797815Y-19196857D01*
X48797815Y-19292095D02*
X48774006Y-19244476D01*
X48750196Y-19220667D01*
X48702577Y-19196857D01*
X48654958Y-19196857D01*
X48512101Y-19506381D02*
X48464482Y-19530190D01*
X48369244Y-19530190D01*
X48321625Y-19506381D01*
X48297815Y-19458762D01*
X48297815Y-19434952D01*
X48321625Y-19387333D01*
X48369244Y-19363524D01*
X48440672Y-19363524D01*
X48488291Y-19339714D01*
X48512101Y-19292095D01*
X48512101Y-19268286D01*
X48488291Y-19220667D01*
X48440672Y-19196857D01*
X48369244Y-19196857D01*
X48321625Y-19220667D01*
X47893053Y-19506381D02*
X47940672Y-19530190D01*
X48035910Y-19530190D01*
X48083529Y-19506381D01*
X48107339Y-19458762D01*
X48107339Y-19268286D01*
X48083529Y-19220667D01*
X48035910Y-19196857D01*
X47940672Y-19196857D01*
X47893053Y-19220667D01*
X47869244Y-19268286D01*
X47869244Y-19315905D01*
X48107339Y-19363524D01*
X47654958Y-19482571D02*
X47631149Y-19506381D01*
X47654958Y-19530190D01*
X47678768Y-19506381D01*
X47654958Y-19482571D01*
X47654958Y-19530190D01*
D12*
X105461981Y-68453000D02*
G75*
G03X105461981Y-68453000I-4369981J0D01*
G01*
D10*
X102679286Y-66956190D02*
X102679286Y-67432381D01*
X103012619Y-66432381D02*
X102679286Y-66956190D01*
X102345952Y-66432381D01*
X102012619Y-66765714D02*
X102012619Y-67432381D01*
X102012619Y-66860952D02*
X101965000Y-66813333D01*
X101869762Y-66765714D01*
X101726904Y-66765714D01*
X101631666Y-66813333D01*
X101584047Y-66908571D01*
X101584047Y-67432381D01*
X100679285Y-66765714D02*
X100679285Y-67575238D01*
X100726904Y-67670476D01*
X100774523Y-67718095D01*
X100869762Y-67765714D01*
X101012619Y-67765714D01*
X101107857Y-67718095D01*
X100679285Y-67384762D02*
X100774523Y-67432381D01*
X100965000Y-67432381D01*
X101060238Y-67384762D01*
X101107857Y-67337143D01*
X101155476Y-67241905D01*
X101155476Y-66956190D01*
X101107857Y-66860952D01*
X101060238Y-66813333D01*
X100965000Y-66765714D01*
X100774523Y-66765714D01*
X100679285Y-66813333D01*
X100298333Y-66765714D02*
X100060238Y-67432381D01*
X99822142Y-66765714D01*
X99060237Y-67384762D02*
X99155475Y-67432381D01*
X99345952Y-67432381D01*
X99441190Y-67384762D01*
X99488809Y-67289524D01*
X99488809Y-66908571D01*
X99441190Y-66813333D01*
X99345952Y-66765714D01*
X99155475Y-66765714D01*
X99060237Y-66813333D01*
X99012618Y-66908571D01*
X99012618Y-67003810D01*
X99488809Y-67099048D01*
X102203095Y-68365714D02*
X102012619Y-69032381D01*
X101822142Y-68556190D01*
X101631666Y-69032381D01*
X101441190Y-68365714D01*
X100631666Y-69032381D02*
X100631666Y-68508571D01*
X100679285Y-68413333D01*
X100774523Y-68365714D01*
X100965000Y-68365714D01*
X101060238Y-68413333D01*
X100631666Y-68984762D02*
X100726904Y-69032381D01*
X100965000Y-69032381D01*
X101060238Y-68984762D01*
X101107857Y-68889524D01*
X101107857Y-68794286D01*
X101060238Y-68699048D01*
X100965000Y-68651429D01*
X100726904Y-68651429D01*
X100631666Y-68603810D01*
X100203095Y-68984762D02*
X100107857Y-69032381D01*
X99917381Y-69032381D01*
X99822142Y-68984762D01*
X99774523Y-68889524D01*
X99774523Y-68841905D01*
X99822142Y-68746667D01*
X99917381Y-68699048D01*
X100060238Y-68699048D01*
X100155476Y-68651429D01*
X100203095Y-68556190D01*
X100203095Y-68508571D01*
X100155476Y-68413333D01*
X100060238Y-68365714D01*
X99917381Y-68365714D01*
X99822142Y-68413333D01*
X102345953Y-70632381D02*
X102345953Y-69632381D01*
X101917381Y-70632381D02*
X101917381Y-70108571D01*
X101965000Y-70013333D01*
X102060238Y-69965714D01*
X102203096Y-69965714D01*
X102298334Y-70013333D01*
X102345953Y-70060952D01*
X101060238Y-70584762D02*
X101155476Y-70632381D01*
X101345953Y-70632381D01*
X101441191Y-70584762D01*
X101488810Y-70489524D01*
X101488810Y-70108571D01*
X101441191Y-70013333D01*
X101345953Y-69965714D01*
X101155476Y-69965714D01*
X101060238Y-70013333D01*
X101012619Y-70108571D01*
X101012619Y-70203810D01*
X101488810Y-70299048D01*
X100584048Y-70632381D02*
X100584048Y-69965714D01*
X100584048Y-70156190D02*
X100536429Y-70060952D01*
X100488810Y-70013333D01*
X100393572Y-69965714D01*
X100298333Y-69965714D01*
X99584047Y-70584762D02*
X99679285Y-70632381D01*
X99869762Y-70632381D01*
X99965000Y-70584762D01*
X100012619Y-70489524D01*
X100012619Y-70108571D01*
X99965000Y-70013333D01*
X99869762Y-69965714D01*
X99679285Y-69965714D01*
X99584047Y-70013333D01*
X99536428Y-70108571D01*
X99536428Y-70203810D01*
X100012619Y-70299048D01*
X89139857Y-82476571D02*
X88568428Y-82476571D01*
X88854142Y-82762286D02*
X88854142Y-82190857D01*
X87854143Y-82012286D02*
X88211286Y-82012286D01*
X88247000Y-82369429D01*
X88211286Y-82333714D01*
X88139857Y-82298000D01*
X87961286Y-82298000D01*
X87889857Y-82333714D01*
X87854143Y-82369429D01*
X87818428Y-82440857D01*
X87818428Y-82619429D01*
X87854143Y-82690857D01*
X87889857Y-82726571D01*
X87961286Y-82762286D01*
X88139857Y-82762286D01*
X88211286Y-82726571D01*
X88247000Y-82690857D01*
X87604142Y-82012286D02*
X87354142Y-82762286D01*
X87104142Y-82012286D01*
X86139856Y-82012286D02*
X85996999Y-82012286D01*
X85925571Y-82048000D01*
X85854142Y-82119429D01*
X85818428Y-82262286D01*
X85818428Y-82512286D01*
X85854142Y-82655143D01*
X85925571Y-82726571D01*
X85996999Y-82762286D01*
X86139856Y-82762286D01*
X86211285Y-82726571D01*
X86282714Y-82655143D01*
X86318428Y-82512286D01*
X86318428Y-82262286D01*
X86282714Y-82119429D01*
X86211285Y-82048000D01*
X86139856Y-82012286D01*
X85497000Y-82762286D02*
X85497000Y-82012286D01*
X85068428Y-82762286D02*
X85389857Y-82333714D01*
X85068428Y-82012286D02*
X85497000Y-82440857D01*
X45936000Y-82476571D02*
X45364571Y-82476571D01*
X44614571Y-82762286D02*
X45043143Y-82762286D01*
X44828857Y-82762286D02*
X44828857Y-82012286D01*
X44900286Y-82119429D01*
X44971714Y-82190857D01*
X45043143Y-82226571D01*
X43936000Y-82012286D02*
X44293143Y-82012286D01*
X44328857Y-82369429D01*
X44293143Y-82333714D01*
X44221714Y-82298000D01*
X44043143Y-82298000D01*
X43971714Y-82333714D01*
X43936000Y-82369429D01*
X43900285Y-82440857D01*
X43900285Y-82619429D01*
X43936000Y-82690857D01*
X43971714Y-82726571D01*
X44043143Y-82762286D01*
X44221714Y-82762286D01*
X44293143Y-82726571D01*
X44328857Y-82690857D01*
X43685999Y-82012286D02*
X43435999Y-82762286D01*
X43185999Y-82012286D01*
X42221713Y-82012286D02*
X42078856Y-82012286D01*
X42007428Y-82048000D01*
X41935999Y-82119429D01*
X41900285Y-82262286D01*
X41900285Y-82512286D01*
X41935999Y-82655143D01*
X42007428Y-82726571D01*
X42078856Y-82762286D01*
X42221713Y-82762286D01*
X42293142Y-82726571D01*
X42364571Y-82655143D01*
X42400285Y-82512286D01*
X42400285Y-82262286D01*
X42364571Y-82119429D01*
X42293142Y-82048000D01*
X42221713Y-82012286D01*
X41578857Y-82762286D02*
X41578857Y-82012286D01*
X41150285Y-82762286D02*
X41471714Y-82333714D01*
X41150285Y-82012286D02*
X41578857Y-82440857D01*
X28283000Y-81968571D02*
X27711571Y-81968571D01*
X27997285Y-82254286D02*
X27997285Y-81682857D01*
X26961571Y-82254286D02*
X27390143Y-82254286D01*
X27175857Y-82254286D02*
X27175857Y-81504286D01*
X27247286Y-81611429D01*
X27318714Y-81682857D01*
X27390143Y-81718571D01*
X26283000Y-81504286D02*
X26640143Y-81504286D01*
X26675857Y-81861429D01*
X26640143Y-81825714D01*
X26568714Y-81790000D01*
X26390143Y-81790000D01*
X26318714Y-81825714D01*
X26283000Y-81861429D01*
X26247285Y-81932857D01*
X26247285Y-82111429D01*
X26283000Y-82182857D01*
X26318714Y-82218571D01*
X26390143Y-82254286D01*
X26568714Y-82254286D01*
X26640143Y-82218571D01*
X26675857Y-82182857D01*
X26032999Y-81504286D02*
X25782999Y-82254286D01*
X25532999Y-81504286D01*
X24568713Y-81504286D02*
X24425856Y-81504286D01*
X24354428Y-81540000D01*
X24282999Y-81611429D01*
X24247285Y-81754286D01*
X24247285Y-82004286D01*
X24282999Y-82147143D01*
X24354428Y-82218571D01*
X24425856Y-82254286D01*
X24568713Y-82254286D01*
X24640142Y-82218571D01*
X24711571Y-82147143D01*
X24747285Y-82004286D01*
X24747285Y-81754286D01*
X24711571Y-81611429D01*
X24640142Y-81540000D01*
X24568713Y-81504286D01*
X23925857Y-82254286D02*
X23925857Y-81504286D01*
X23497285Y-82254286D02*
X23818714Y-81825714D01*
X23497285Y-81504286D02*
X23925857Y-81932857D01*
D13*
X182459570Y-82535286D02*
X182459570Y-81785286D01*
X181530998Y-82535286D02*
X181530998Y-81785286D01*
X181209569Y-82535286D02*
X181209569Y-82142429D01*
X181245283Y-82071000D01*
X181316712Y-82035286D01*
X181423855Y-82035286D01*
X181495283Y-82071000D01*
X181530998Y-82106714D01*
X180530998Y-82535286D02*
X180530998Y-82142429D01*
X180566712Y-82071000D01*
X180638141Y-82035286D01*
X180780998Y-82035286D01*
X180852427Y-82071000D01*
X180530998Y-82499571D02*
X180602427Y-82535286D01*
X180780998Y-82535286D01*
X180852427Y-82499571D01*
X180888141Y-82428143D01*
X180888141Y-82356714D01*
X180852427Y-82285286D01*
X180780998Y-82249571D01*
X180602427Y-82249571D01*
X180530998Y-82213857D01*
X180245284Y-82035286D02*
X180066713Y-82535286D01*
X179888141Y-82035286D01*
X179316712Y-82499571D02*
X179388141Y-82535286D01*
X179530998Y-82535286D01*
X179602427Y-82499571D01*
X179638141Y-82428143D01*
X179638141Y-82142429D01*
X179602427Y-82071000D01*
X179530998Y-82035286D01*
X179388141Y-82035286D01*
X179316712Y-82071000D01*
X179280998Y-82142429D01*
X179280998Y-82213857D01*
X179638141Y-82285286D01*
X178066712Y-82535286D02*
X178066712Y-82142429D01*
X178102426Y-82071000D01*
X178173855Y-82035286D01*
X178316712Y-82035286D01*
X178388141Y-82071000D01*
X178066712Y-82499571D02*
X178138141Y-82535286D01*
X178316712Y-82535286D01*
X178388141Y-82499571D01*
X178423855Y-82428143D01*
X178423855Y-82356714D01*
X178388141Y-82285286D01*
X178316712Y-82249571D01*
X178138141Y-82249571D01*
X178066712Y-82213857D01*
X177138141Y-82535286D02*
X177138141Y-82035286D01*
X177138141Y-82106714D02*
X177102426Y-82071000D01*
X177030998Y-82035286D01*
X176923855Y-82035286D01*
X176852426Y-82071000D01*
X176816712Y-82142429D01*
X176816712Y-82535286D01*
X176816712Y-82142429D02*
X176780998Y-82071000D01*
X176709569Y-82035286D01*
X176602426Y-82035286D01*
X176530998Y-82071000D01*
X176495283Y-82142429D01*
X176495283Y-82535286D01*
X176138141Y-82535286D02*
X176138141Y-82035286D01*
X176138141Y-81785286D02*
X176173855Y-81821000D01*
X176138141Y-81856714D01*
X176102426Y-81821000D01*
X176138141Y-81785286D01*
X176138141Y-81856714D01*
X175673855Y-82535286D02*
X175745283Y-82499571D01*
X175780998Y-82428143D01*
X175780998Y-81785286D01*
X175280998Y-82535286D02*
X175352426Y-82499571D01*
X175388141Y-82428143D01*
X175388141Y-81785286D01*
X174995284Y-82535286D02*
X174995284Y-82035286D01*
X174995284Y-81785286D02*
X175030998Y-81821000D01*
X174995284Y-81856714D01*
X174959569Y-81821000D01*
X174995284Y-81785286D01*
X174995284Y-81856714D01*
X174530998Y-82535286D02*
X174602426Y-82499571D01*
X174638141Y-82463857D01*
X174673855Y-82392429D01*
X174673855Y-82178143D01*
X174638141Y-82106714D01*
X174602426Y-82071000D01*
X174530998Y-82035286D01*
X174423855Y-82035286D01*
X174352426Y-82071000D01*
X174316712Y-82106714D01*
X174280998Y-82178143D01*
X174280998Y-82392429D01*
X174316712Y-82463857D01*
X174352426Y-82499571D01*
X174423855Y-82535286D01*
X174530998Y-82535286D01*
X173959570Y-82035286D02*
X173959570Y-82535286D01*
X173959570Y-82106714D02*
X173923855Y-82071000D01*
X173852427Y-82035286D01*
X173745284Y-82035286D01*
X173673855Y-82071000D01*
X173638141Y-82142429D01*
X173638141Y-82535286D01*
X172709570Y-82535286D02*
X172709570Y-82035286D01*
X172709570Y-81785286D02*
X172745284Y-81821000D01*
X172709570Y-81856714D01*
X172673855Y-81821000D01*
X172709570Y-81785286D01*
X172709570Y-81856714D01*
X172030998Y-82535286D02*
X172030998Y-81785286D01*
X172030998Y-82499571D02*
X172102427Y-82535286D01*
X172245284Y-82535286D01*
X172316712Y-82499571D01*
X172352427Y-82463857D01*
X172388141Y-82392429D01*
X172388141Y-82178143D01*
X172352427Y-82106714D01*
X172316712Y-82071000D01*
X172245284Y-82035286D01*
X172102427Y-82035286D01*
X172030998Y-82071000D01*
X171388141Y-82499571D02*
X171459570Y-82535286D01*
X171602427Y-82535286D01*
X171673856Y-82499571D01*
X171709570Y-82428143D01*
X171709570Y-82142429D01*
X171673856Y-82071000D01*
X171602427Y-82035286D01*
X171459570Y-82035286D01*
X171388141Y-82071000D01*
X171352427Y-82142429D01*
X171352427Y-82213857D01*
X171709570Y-82285286D01*
X170709570Y-82535286D02*
X170709570Y-82142429D01*
X170745284Y-82071000D01*
X170816713Y-82035286D01*
X170959570Y-82035286D01*
X171030999Y-82071000D01*
X170709570Y-82499571D02*
X170780999Y-82535286D01*
X170959570Y-82535286D01*
X171030999Y-82499571D01*
X171066713Y-82428143D01*
X171066713Y-82356714D01*
X171030999Y-82285286D01*
X170959570Y-82249571D01*
X170780999Y-82249571D01*
X170709570Y-82213857D01*
X170388142Y-82499571D02*
X170316713Y-82535286D01*
X170173856Y-82535286D01*
X170102428Y-82499571D01*
X170066713Y-82428143D01*
X170066713Y-82392429D01*
X170102428Y-82321000D01*
X170173856Y-82285286D01*
X170280999Y-82285286D01*
X170352428Y-82249571D01*
X170388142Y-82178143D01*
X170388142Y-82142429D01*
X170352428Y-82071000D01*
X170280999Y-82035286D01*
X170173856Y-82035286D01*
X170102428Y-82071000D01*
X169745285Y-82463857D02*
X169709570Y-82499571D01*
X169745285Y-82535286D01*
X169780999Y-82499571D01*
X169745285Y-82463857D01*
X169745285Y-82535286D01*
X168923855Y-81785286D02*
X168495284Y-81785286D01*
X168709570Y-82535286D02*
X168709570Y-81785286D01*
X168245284Y-82535286D02*
X168245284Y-81785286D01*
X167923855Y-82535286D02*
X167923855Y-82142429D01*
X167959569Y-82071000D01*
X168030998Y-82035286D01*
X168138141Y-82035286D01*
X168209569Y-82071000D01*
X168245284Y-82106714D01*
X167280998Y-82499571D02*
X167352427Y-82535286D01*
X167495284Y-82535286D01*
X167566713Y-82499571D01*
X167602427Y-82428143D01*
X167602427Y-82142429D01*
X167566713Y-82071000D01*
X167495284Y-82035286D01*
X167352427Y-82035286D01*
X167280998Y-82071000D01*
X167245284Y-82142429D01*
X167245284Y-82213857D01*
X167602427Y-82285286D01*
X166995284Y-82035286D02*
X166816713Y-82535286D01*
X166638141Y-82035286D02*
X166816713Y-82535286D01*
X166888141Y-82713857D01*
X166923856Y-82749571D01*
X166995284Y-82785286D01*
X165459569Y-82535286D02*
X165459569Y-82142429D01*
X165495283Y-82071000D01*
X165566712Y-82035286D01*
X165709569Y-82035286D01*
X165780998Y-82071000D01*
X165459569Y-82499571D02*
X165530998Y-82535286D01*
X165709569Y-82535286D01*
X165780998Y-82499571D01*
X165816712Y-82428143D01*
X165816712Y-82356714D01*
X165780998Y-82285286D01*
X165709569Y-82249571D01*
X165530998Y-82249571D01*
X165459569Y-82213857D01*
X164995284Y-82535286D02*
X165066712Y-82499571D01*
X165102427Y-82428143D01*
X165102427Y-81785286D01*
X164602427Y-82535286D02*
X164673855Y-82499571D01*
X164709570Y-82428143D01*
X164709570Y-81785286D01*
X163745284Y-82035286D02*
X163745284Y-82785286D01*
X163745284Y-82071000D02*
X163673855Y-82035286D01*
X163530998Y-82035286D01*
X163459569Y-82071000D01*
X163423855Y-82106714D01*
X163388141Y-82178143D01*
X163388141Y-82392429D01*
X163423855Y-82463857D01*
X163459569Y-82499571D01*
X163530998Y-82535286D01*
X163673855Y-82535286D01*
X163745284Y-82499571D01*
X162959570Y-82535286D02*
X163030998Y-82499571D01*
X163066713Y-82463857D01*
X163102427Y-82392429D01*
X163102427Y-82178143D01*
X163066713Y-82106714D01*
X163030998Y-82071000D01*
X162959570Y-82035286D01*
X162852427Y-82035286D01*
X162780998Y-82071000D01*
X162745284Y-82106714D01*
X162709570Y-82178143D01*
X162709570Y-82392429D01*
X162745284Y-82463857D01*
X162780998Y-82499571D01*
X162852427Y-82535286D01*
X162959570Y-82535286D01*
X162388142Y-82535286D02*
X162388142Y-82035286D01*
X162388142Y-81785286D02*
X162423856Y-81821000D01*
X162388142Y-81856714D01*
X162352427Y-81821000D01*
X162388142Y-81785286D01*
X162388142Y-81856714D01*
X162030999Y-82035286D02*
X162030999Y-82535286D01*
X162030999Y-82106714D02*
X161995284Y-82071000D01*
X161923856Y-82035286D01*
X161816713Y-82035286D01*
X161745284Y-82071000D01*
X161709570Y-82142429D01*
X161709570Y-82535286D01*
X161459570Y-82035286D02*
X161173856Y-82035286D01*
X161352428Y-81785286D02*
X161352428Y-82428143D01*
X161316713Y-82499571D01*
X161245285Y-82535286D01*
X161173856Y-82535286D01*
X160459570Y-82035286D02*
X160173856Y-82035286D01*
X160352428Y-81785286D02*
X160352428Y-82428143D01*
X160316713Y-82499571D01*
X160245285Y-82535286D01*
X160173856Y-82535286D01*
X159816714Y-82535286D02*
X159888142Y-82499571D01*
X159923857Y-82463857D01*
X159959571Y-82392429D01*
X159959571Y-82178143D01*
X159923857Y-82106714D01*
X159888142Y-82071000D01*
X159816714Y-82035286D01*
X159709571Y-82035286D01*
X159638142Y-82071000D01*
X159602428Y-82106714D01*
X159566714Y-82178143D01*
X159566714Y-82392429D01*
X159602428Y-82463857D01*
X159638142Y-82499571D01*
X159709571Y-82535286D01*
X159816714Y-82535286D01*
X158352428Y-82499571D02*
X158423857Y-82535286D01*
X158566714Y-82535286D01*
X158638142Y-82499571D01*
X158673857Y-82463857D01*
X158709571Y-82392429D01*
X158709571Y-82178143D01*
X158673857Y-82106714D01*
X158638142Y-82071000D01*
X158566714Y-82035286D01*
X158423857Y-82035286D01*
X158352428Y-82071000D01*
X157745285Y-82499571D02*
X157816714Y-82535286D01*
X157959571Y-82535286D01*
X158031000Y-82499571D01*
X158066714Y-82428143D01*
X158066714Y-82142429D01*
X158031000Y-82071000D01*
X157959571Y-82035286D01*
X157816714Y-82035286D01*
X157745285Y-82071000D01*
X157709571Y-82142429D01*
X157709571Y-82213857D01*
X158066714Y-82285286D01*
X157388143Y-82535286D02*
X157388143Y-82035286D01*
X157388143Y-82178143D02*
X157352428Y-82106714D01*
X157316714Y-82071000D01*
X157245285Y-82035286D01*
X157173857Y-82035286D01*
X157030999Y-82035286D02*
X156745285Y-82035286D01*
X156923857Y-81785286D02*
X156923857Y-82428143D01*
X156888142Y-82499571D01*
X156816714Y-82535286D01*
X156745285Y-82535286D01*
X156173857Y-82535286D02*
X156173857Y-82142429D01*
X156209571Y-82071000D01*
X156281000Y-82035286D01*
X156423857Y-82035286D01*
X156495286Y-82071000D01*
X156173857Y-82499571D02*
X156245286Y-82535286D01*
X156423857Y-82535286D01*
X156495286Y-82499571D01*
X156531000Y-82428143D01*
X156531000Y-82356714D01*
X156495286Y-82285286D01*
X156423857Y-82249571D01*
X156245286Y-82249571D01*
X156173857Y-82213857D01*
X155816715Y-82535286D02*
X155816715Y-82035286D01*
X155816715Y-81785286D02*
X155852429Y-81821000D01*
X155816715Y-81856714D01*
X155781000Y-81821000D01*
X155816715Y-81785286D01*
X155816715Y-81856714D01*
X155459572Y-82035286D02*
X155459572Y-82535286D01*
X155459572Y-82106714D02*
X155423857Y-82071000D01*
X155352429Y-82035286D01*
X155245286Y-82035286D01*
X155173857Y-82071000D01*
X155138143Y-82142429D01*
X155138143Y-82535286D01*
X153888143Y-82535286D02*
X153888143Y-81785286D01*
X153888143Y-82499571D02*
X153959572Y-82535286D01*
X154102429Y-82535286D01*
X154173857Y-82499571D01*
X154209572Y-82463857D01*
X154245286Y-82392429D01*
X154245286Y-82178143D01*
X154209572Y-82106714D01*
X154173857Y-82071000D01*
X154102429Y-82035286D01*
X153959572Y-82035286D01*
X153888143Y-82071000D01*
X153245286Y-82499571D02*
X153316715Y-82535286D01*
X153459572Y-82535286D01*
X153531001Y-82499571D01*
X153566715Y-82428143D01*
X153566715Y-82142429D01*
X153531001Y-82071000D01*
X153459572Y-82035286D01*
X153316715Y-82035286D01*
X153245286Y-82071000D01*
X153209572Y-82142429D01*
X153209572Y-82213857D01*
X153566715Y-82285286D01*
X152566715Y-82535286D02*
X152566715Y-82142429D01*
X152602429Y-82071000D01*
X152673858Y-82035286D01*
X152816715Y-82035286D01*
X152888144Y-82071000D01*
X152566715Y-82499571D02*
X152638144Y-82535286D01*
X152816715Y-82535286D01*
X152888144Y-82499571D01*
X152923858Y-82428143D01*
X152923858Y-82356714D01*
X152888144Y-82285286D01*
X152816715Y-82249571D01*
X152638144Y-82249571D01*
X152566715Y-82213857D01*
X152316715Y-82035286D02*
X152031001Y-82035286D01*
X152209573Y-81785286D02*
X152209573Y-82428143D01*
X152173858Y-82499571D01*
X152102430Y-82535286D01*
X152031001Y-82535286D01*
X151781002Y-82535286D02*
X151781002Y-81785286D01*
X151459573Y-82535286D02*
X151459573Y-82142429D01*
X151495287Y-82071000D01*
X151566716Y-82035286D01*
X151673859Y-82035286D01*
X151745287Y-82071000D01*
X151781002Y-82106714D01*
X151102431Y-82463857D02*
X151066716Y-82499571D01*
X151102431Y-82535286D01*
X151138145Y-82499571D01*
X151102431Y-82463857D01*
X151102431Y-82535286D01*
D12*
X241495154Y-29845000D02*
G75*
G03X241495154Y-29845000I-4767154J0D01*
G01*
D14*
X234886714Y-28198190D02*
X234886714Y-28674381D01*
X234553381Y-27674381D02*
X234886714Y-28198190D01*
X235220048Y-27674381D01*
X235553381Y-28007714D02*
X235553381Y-28674381D01*
X235553381Y-28102952D02*
X235601000Y-28055333D01*
X235696238Y-28007714D01*
X235839096Y-28007714D01*
X235934334Y-28055333D01*
X235981953Y-28150571D01*
X235981953Y-28674381D01*
X236886715Y-28007714D02*
X236886715Y-28817238D01*
X236839096Y-28912476D01*
X236791477Y-28960095D01*
X236696238Y-29007714D01*
X236553381Y-29007714D01*
X236458143Y-28960095D01*
X236886715Y-28626762D02*
X236791477Y-28674381D01*
X236601000Y-28674381D01*
X236505762Y-28626762D01*
X236458143Y-28579143D01*
X236410524Y-28483905D01*
X236410524Y-28198190D01*
X236458143Y-28102952D01*
X236505762Y-28055333D01*
X236601000Y-28007714D01*
X236791477Y-28007714D01*
X236886715Y-28055333D01*
X237267667Y-28007714D02*
X237505762Y-28674381D01*
X237743858Y-28007714D01*
X238505763Y-28626762D02*
X238410525Y-28674381D01*
X238220048Y-28674381D01*
X238124810Y-28626762D01*
X238077191Y-28531524D01*
X238077191Y-28150571D01*
X238124810Y-28055333D01*
X238220048Y-28007714D01*
X238410525Y-28007714D01*
X238505763Y-28055333D01*
X238553382Y-28150571D01*
X238553382Y-28245810D01*
X238077191Y-28341048D01*
X235362905Y-29757714D02*
X235553381Y-30424381D01*
X235743858Y-29948190D01*
X235934334Y-30424381D01*
X236124810Y-29757714D01*
X236934334Y-30424381D02*
X236934334Y-29900571D01*
X236886715Y-29805333D01*
X236791477Y-29757714D01*
X236601000Y-29757714D01*
X236505762Y-29805333D01*
X236934334Y-30376762D02*
X236839096Y-30424381D01*
X236601000Y-30424381D01*
X236505762Y-30376762D01*
X236458143Y-30281524D01*
X236458143Y-30186286D01*
X236505762Y-30091048D01*
X236601000Y-30043429D01*
X236839096Y-30043429D01*
X236934334Y-29995810D01*
X237362905Y-30376762D02*
X237458143Y-30424381D01*
X237648619Y-30424381D01*
X237743858Y-30376762D01*
X237791477Y-30281524D01*
X237791477Y-30233905D01*
X237743858Y-30138667D01*
X237648619Y-30091048D01*
X237505762Y-30091048D01*
X237410524Y-30043429D01*
X237362905Y-29948190D01*
X237362905Y-29900571D01*
X237410524Y-29805333D01*
X237505762Y-29757714D01*
X237648619Y-29757714D01*
X237743858Y-29805333D01*
X235220047Y-32174381D02*
X235220047Y-31174381D01*
X235648619Y-32174381D02*
X235648619Y-31650571D01*
X235601000Y-31555333D01*
X235505762Y-31507714D01*
X235362904Y-31507714D01*
X235267666Y-31555333D01*
X235220047Y-31602952D01*
X236505762Y-32126762D02*
X236410524Y-32174381D01*
X236220047Y-32174381D01*
X236124809Y-32126762D01*
X236077190Y-32031524D01*
X236077190Y-31650571D01*
X236124809Y-31555333D01*
X236220047Y-31507714D01*
X236410524Y-31507714D01*
X236505762Y-31555333D01*
X236553381Y-31650571D01*
X236553381Y-31745810D01*
X236077190Y-31841048D01*
X236981952Y-32174381D02*
X236981952Y-31507714D01*
X236981952Y-31698190D02*
X237029571Y-31602952D01*
X237077190Y-31555333D01*
X237172428Y-31507714D01*
X237267667Y-31507714D01*
X237981953Y-32126762D02*
X237886715Y-32174381D01*
X237696238Y-32174381D01*
X237601000Y-32126762D01*
X237553381Y-32031524D01*
X237553381Y-31650571D01*
X237601000Y-31555333D01*
X237696238Y-31507714D01*
X237886715Y-31507714D01*
X237981953Y-31555333D01*
X238029572Y-31650571D01*
X238029572Y-31745810D01*
X237553381Y-31841048D01*
D12*
X103535714Y-119904762D02*
X103392857Y-119952381D01*
X103154761Y-119952381D01*
X103059523Y-119904762D01*
X103011904Y-119857143D01*
X102964285Y-119761905D01*
X102964285Y-119666667D01*
X103011904Y-119571429D01*
X103059523Y-119523810D01*
X103154761Y-119476190D01*
X103345238Y-119428571D01*
X103440476Y-119380952D01*
X103488095Y-119333333D01*
X103535714Y-119238095D01*
X103535714Y-119142857D01*
X103488095Y-119047619D01*
X103440476Y-119000000D01*
X103345238Y-118952381D01*
X103107142Y-118952381D01*
X102964285Y-119000000D01*
X102345238Y-118952381D02*
X102154761Y-118952381D01*
X102059523Y-119000000D01*
X101964285Y-119095238D01*
X101916666Y-119285714D01*
X101916666Y-119619048D01*
X101964285Y-119809524D01*
X102059523Y-119904762D01*
X102154761Y-119952381D01*
X102345238Y-119952381D01*
X102440476Y-119904762D01*
X102535714Y-119809524D01*
X102583333Y-119619048D01*
X102583333Y-119285714D01*
X102535714Y-119095238D01*
X102440476Y-119000000D01*
X102345238Y-118952381D01*
X101488095Y-118952381D02*
X101488095Y-119761905D01*
X101440476Y-119857143D01*
X101392857Y-119904762D01*
X101297619Y-119952381D01*
X101107142Y-119952381D01*
X101011904Y-119904762D01*
X100964285Y-119857143D01*
X100916666Y-119761905D01*
X100916666Y-118952381D01*
X99869047Y-119952381D02*
X100202381Y-119476190D01*
X100440476Y-119952381D02*
X100440476Y-118952381D01*
X100059523Y-118952381D01*
X99964285Y-119000000D01*
X99916666Y-119047619D01*
X99869047Y-119142857D01*
X99869047Y-119285714D01*
X99916666Y-119380952D01*
X99964285Y-119428571D01*
X100059523Y-119476190D01*
X100440476Y-119476190D01*
X98869047Y-119857143D02*
X98916666Y-119904762D01*
X99059523Y-119952381D01*
X99154761Y-119952381D01*
X99297619Y-119904762D01*
X99392857Y-119809524D01*
X99440476Y-119714286D01*
X99488095Y-119523810D01*
X99488095Y-119380952D01*
X99440476Y-119190476D01*
X99392857Y-119095238D01*
X99297619Y-119000000D01*
X99154761Y-118952381D01*
X99059523Y-118952381D01*
X98916666Y-119000000D01*
X98869047Y-119047619D01*
X98440476Y-119428571D02*
X98107142Y-119428571D01*
X97964285Y-119952381D02*
X98440476Y-119952381D01*
X98440476Y-118952381D01*
X97964285Y-118952381D01*
X101750000Y-113750000D02*
X101845238Y-113702381D01*
X101988095Y-113702381D01*
X102130953Y-113750000D01*
X102226191Y-113845238D01*
X102273810Y-113940476D01*
X102321429Y-114130952D01*
X102321429Y-114273810D01*
X102273810Y-114464286D01*
X102226191Y-114559524D01*
X102130953Y-114654762D01*
X101988095Y-114702381D01*
X101892857Y-114702381D01*
X101750000Y-114654762D01*
X101702381Y-114607143D01*
X101702381Y-114273810D01*
X101892857Y-114273810D01*
X101321429Y-114416667D02*
X100845238Y-114416667D01*
X101416667Y-114702381D02*
X101083334Y-113702381D01*
X100750000Y-114702381D01*
X100559524Y-113702381D02*
X99988095Y-113702381D01*
X100273810Y-114702381D02*
X100273810Y-113702381D01*
X99654762Y-114178571D02*
X99321428Y-114178571D01*
X99178571Y-114702381D02*
X99654762Y-114702381D01*
X99654762Y-113702381D01*
X99178571Y-113702381D01*
X102702381Y-109952381D02*
X102702381Y-108952381D01*
X102464286Y-108952381D01*
X102321428Y-109000000D01*
X102226190Y-109095238D01*
X102178571Y-109190476D01*
X102130952Y-109380952D01*
X102130952Y-109523810D01*
X102178571Y-109714286D01*
X102226190Y-109809524D01*
X102321428Y-109904762D01*
X102464286Y-109952381D01*
X102702381Y-109952381D01*
X101130952Y-109952381D02*
X101464286Y-109476190D01*
X101702381Y-109952381D02*
X101702381Y-108952381D01*
X101321428Y-108952381D01*
X101226190Y-109000000D01*
X101178571Y-109047619D01*
X101130952Y-109142857D01*
X101130952Y-109285714D01*
X101178571Y-109380952D01*
X101226190Y-109428571D01*
X101321428Y-109476190D01*
X101702381Y-109476190D01*
X100750000Y-109666667D02*
X100273809Y-109666667D01*
X100845238Y-109952381D02*
X100511905Y-108952381D01*
X100178571Y-109952381D01*
X99845238Y-109952381D02*
X99845238Y-108952381D01*
X99369048Y-109952381D02*
X99369048Y-108952381D01*
X98797619Y-109952381D01*
X98797619Y-108952381D01*
X57922000Y-136000000D02*
X57922000Y-88000000D01*
X52905500Y-136000000D02*
X52905500Y-88000000D01*
D15*
X94414288Y-91278571D02*
X94414288Y-89778571D01*
X93771431Y-91278571D02*
X93771431Y-90492857D01*
X93842860Y-90350000D01*
X93985717Y-90278571D01*
X94200002Y-90278571D01*
X94342860Y-90350000D01*
X94414288Y-90421429D01*
X93271431Y-90278571D02*
X92700002Y-90278571D01*
X93057145Y-89778571D02*
X93057145Y-91064286D01*
X92985717Y-91207143D01*
X92842859Y-91278571D01*
X92700002Y-91278571D01*
X92414288Y-90278571D02*
X91842859Y-90278571D01*
X92200002Y-89778571D02*
X92200002Y-91064286D01*
X92128574Y-91207143D01*
X91985716Y-91278571D01*
X91842859Y-91278571D01*
X91342859Y-90278571D02*
X91342859Y-91778571D01*
X91342859Y-90350000D02*
X91200002Y-90278571D01*
X90914288Y-90278571D01*
X90771431Y-90350000D01*
X90700002Y-90421429D01*
X90628573Y-90564286D01*
X90628573Y-90992857D01*
X90700002Y-91135714D01*
X90771431Y-91207143D01*
X90914288Y-91278571D01*
X91200002Y-91278571D01*
X91342859Y-91207143D01*
X90057145Y-91207143D02*
X89914288Y-91278571D01*
X89628573Y-91278571D01*
X89485716Y-91207143D01*
X89414288Y-91064286D01*
X89414288Y-90992857D01*
X89485716Y-90850000D01*
X89628573Y-90778571D01*
X89842859Y-90778571D01*
X89985716Y-90707143D01*
X90057145Y-90564286D01*
X90057145Y-90492857D01*
X89985716Y-90350000D01*
X89842859Y-90278571D01*
X89628573Y-90278571D01*
X89485716Y-90350000D01*
X88771430Y-91135714D02*
X88700002Y-91207143D01*
X88771430Y-91278571D01*
X88842859Y-91207143D01*
X88771430Y-91135714D01*
X88771430Y-91278571D01*
X88771430Y-90350000D02*
X88700002Y-90421429D01*
X88771430Y-90492857D01*
X88842859Y-90421429D01*
X88771430Y-90350000D01*
X88771430Y-90492857D01*
X86985716Y-89707143D02*
X88271430Y-91635714D01*
X85414287Y-89707143D02*
X86700001Y-91635714D01*
X85057143Y-90278571D02*
X84771429Y-91278571D01*
X84485715Y-90564286D01*
X84200000Y-91278571D01*
X83914286Y-90278571D01*
X83485714Y-90278571D02*
X83200000Y-91278571D01*
X82914286Y-90564286D01*
X82628571Y-91278571D01*
X82342857Y-90278571D01*
X81914285Y-90278571D02*
X81628571Y-91278571D01*
X81342857Y-90564286D01*
X81057142Y-91278571D01*
X80771428Y-90278571D01*
X80199999Y-91135714D02*
X80128571Y-91207143D01*
X80199999Y-91278571D01*
X80271428Y-91207143D01*
X80199999Y-91135714D01*
X80199999Y-91278571D01*
X79557142Y-91207143D02*
X79414285Y-91278571D01*
X79128570Y-91278571D01*
X78985713Y-91207143D01*
X78914285Y-91064286D01*
X78914285Y-90992857D01*
X78985713Y-90850000D01*
X79128570Y-90778571D01*
X79342856Y-90778571D01*
X79485713Y-90707143D01*
X79557142Y-90564286D01*
X79557142Y-90492857D01*
X79485713Y-90350000D01*
X79342856Y-90278571D01*
X79128570Y-90278571D01*
X78985713Y-90350000D01*
X78414284Y-90278571D02*
X78128570Y-91278571D01*
X77842856Y-90564286D01*
X77557141Y-91278571D01*
X77271427Y-90278571D01*
X76699998Y-91278571D02*
X76699998Y-90278571D01*
X76699998Y-89778571D02*
X76771427Y-89850000D01*
X76699998Y-89921429D01*
X76628570Y-89850000D01*
X76699998Y-89778571D01*
X76699998Y-89921429D01*
X76199998Y-90278571D02*
X75628569Y-90278571D01*
X75985712Y-89778571D02*
X75985712Y-91064286D01*
X75914284Y-91207143D01*
X75771426Y-91278571D01*
X75628569Y-91278571D01*
X74485712Y-91207143D02*
X74628569Y-91278571D01*
X74914283Y-91278571D01*
X75057141Y-91207143D01*
X75128569Y-91135714D01*
X75199998Y-90992857D01*
X75199998Y-90564286D01*
X75128569Y-90421429D01*
X75057141Y-90350000D01*
X74914283Y-90278571D01*
X74628569Y-90278571D01*
X74485712Y-90350000D01*
X73842855Y-91278571D02*
X73842855Y-89778571D01*
X73199998Y-91278571D02*
X73199998Y-90492857D01*
X73271427Y-90350000D01*
X73414284Y-90278571D01*
X73628569Y-90278571D01*
X73771427Y-90350000D01*
X73842855Y-90421429D01*
X71842855Y-91207143D02*
X71985712Y-91278571D01*
X72271426Y-91278571D01*
X72414284Y-91207143D01*
X72485712Y-91135714D01*
X72557141Y-90992857D01*
X72557141Y-90564286D01*
X72485712Y-90421429D01*
X72414284Y-90350000D01*
X72271426Y-90278571D01*
X71985712Y-90278571D01*
X71842855Y-90350000D01*
X71199998Y-91278571D02*
X71199998Y-90278571D01*
X71199998Y-90564286D02*
X71128570Y-90421429D01*
X71057141Y-90350000D01*
X70914284Y-90278571D01*
X70771427Y-90278571D01*
X69628570Y-91278571D02*
X69628570Y-90492857D01*
X69699999Y-90350000D01*
X69842856Y-90278571D01*
X70128570Y-90278571D01*
X70271427Y-90350000D01*
X69628570Y-91207143D02*
X69771427Y-91278571D01*
X70128570Y-91278571D01*
X70271427Y-91207143D01*
X70342856Y-91064286D01*
X70342856Y-90921429D01*
X70271427Y-90778571D01*
X70128570Y-90707143D01*
X69771427Y-90707143D01*
X69628570Y-90635714D01*
X69128570Y-90278571D02*
X68557141Y-90278571D01*
X68914284Y-91278571D02*
X68914284Y-89992857D01*
X68842856Y-89850000D01*
X68699998Y-89778571D01*
X68557141Y-89778571D01*
X68271427Y-90278571D02*
X67699998Y-90278571D01*
X68057141Y-89778571D02*
X68057141Y-91064286D01*
X67985713Y-91207143D01*
X67842855Y-91278571D01*
X67699998Y-91278571D01*
X67199998Y-91135714D02*
X67128570Y-91207143D01*
X67199998Y-91278571D01*
X67271427Y-91207143D01*
X67199998Y-91135714D01*
X67199998Y-91278571D01*
X66271426Y-91278571D02*
X66414284Y-91207143D01*
X66485712Y-91135714D01*
X66557141Y-90992857D01*
X66557141Y-90564286D01*
X66485712Y-90421429D01*
X66414284Y-90350000D01*
X66271426Y-90278571D01*
X66057141Y-90278571D01*
X65914284Y-90350000D01*
X65842855Y-90421429D01*
X65771426Y-90564286D01*
X65771426Y-90992857D01*
X65842855Y-91135714D01*
X65914284Y-91207143D01*
X66057141Y-91278571D01*
X66271426Y-91278571D01*
X65128569Y-91278571D02*
X65128569Y-90278571D01*
X65128569Y-90564286D02*
X65057141Y-90421429D01*
X64985712Y-90350000D01*
X64842855Y-90278571D01*
X64699998Y-90278571D01*
X63557141Y-90278571D02*
X63557141Y-91492857D01*
X63628570Y-91635714D01*
X63699998Y-91707143D01*
X63842855Y-91778571D01*
X64057141Y-91778571D01*
X64199998Y-91707143D01*
X63557141Y-91207143D02*
X63699998Y-91278571D01*
X63985712Y-91278571D01*
X64128570Y-91207143D01*
X64199998Y-91135714D01*
X64271427Y-90992857D01*
X64271427Y-90564286D01*
X64199998Y-90421429D01*
X64128570Y-90350000D01*
X63985712Y-90278571D01*
X63699998Y-90278571D01*
X63557141Y-90350000D01*
X61771427Y-89707143D02*
X63057141Y-91635714D01*
D10*
X47726190Y-91709529D02*
X47226190Y-91709529D01*
X47226190Y-91828576D01*
X47250000Y-91900005D01*
X47297619Y-91947624D01*
X47345238Y-91971433D01*
X47440476Y-91995243D01*
X47511905Y-91995243D01*
X47607143Y-91971433D01*
X47654762Y-91947624D01*
X47702381Y-91900005D01*
X47726190Y-91828576D01*
X47726190Y-91709529D01*
X47726190Y-92280957D02*
X47702381Y-92233338D01*
X47678571Y-92209529D01*
X47630952Y-92185719D01*
X47488095Y-92185719D01*
X47440476Y-92209529D01*
X47416667Y-92233338D01*
X47392857Y-92280957D01*
X47392857Y-92352386D01*
X47416667Y-92400005D01*
X47440476Y-92423814D01*
X47488095Y-92447624D01*
X47630952Y-92447624D01*
X47678571Y-92423814D01*
X47702381Y-92400005D01*
X47726190Y-92352386D01*
X47726190Y-92280957D01*
X47392857Y-92661910D02*
X47726190Y-92661910D01*
X47440476Y-92661910D02*
X47416667Y-92685719D01*
X47392857Y-92733338D01*
X47392857Y-92804767D01*
X47416667Y-92852386D01*
X47464286Y-92876195D01*
X47726190Y-92876195D01*
X47226190Y-93138100D02*
X47321429Y-93090481D01*
X47392857Y-93280957D02*
X47392857Y-93471433D01*
X47226190Y-93352386D02*
X47654762Y-93352386D01*
X47702381Y-93376195D01*
X47726190Y-93423814D01*
X47726190Y-93471433D01*
X47726190Y-94019052D02*
X47226190Y-94019052D01*
X47416667Y-94019052D02*
X47392857Y-94066671D01*
X47392857Y-94161909D01*
X47416667Y-94209528D01*
X47440476Y-94233337D01*
X47488095Y-94257147D01*
X47630952Y-94257147D01*
X47678571Y-94233337D01*
X47702381Y-94209528D01*
X47726190Y-94161909D01*
X47726190Y-94066671D01*
X47702381Y-94019052D01*
X47726190Y-94542861D02*
X47702381Y-94495242D01*
X47654762Y-94471433D01*
X47226190Y-94471433D01*
X47726190Y-94947623D02*
X47464286Y-94947623D01*
X47416667Y-94923814D01*
X47392857Y-94876195D01*
X47392857Y-94780957D01*
X47416667Y-94733338D01*
X47702381Y-94947623D02*
X47726190Y-94900004D01*
X47726190Y-94780957D01*
X47702381Y-94733338D01*
X47654762Y-94709528D01*
X47607143Y-94709528D01*
X47559524Y-94733338D01*
X47535714Y-94780957D01*
X47535714Y-94900004D01*
X47511905Y-94947623D01*
X47726190Y-95185719D02*
X47392857Y-95185719D01*
X47440476Y-95185719D02*
X47416667Y-95209528D01*
X47392857Y-95257147D01*
X47392857Y-95328576D01*
X47416667Y-95376195D01*
X47464286Y-95400004D01*
X47726190Y-95400004D01*
X47464286Y-95400004D02*
X47416667Y-95423814D01*
X47392857Y-95471433D01*
X47392857Y-95542861D01*
X47416667Y-95590481D01*
X47464286Y-95614290D01*
X47726190Y-95614290D01*
X47702381Y-96042862D02*
X47726190Y-95995243D01*
X47726190Y-95900005D01*
X47702381Y-95852386D01*
X47654762Y-95828576D01*
X47464286Y-95828576D01*
X47416667Y-95852386D01*
X47392857Y-95900005D01*
X47392857Y-95995243D01*
X47416667Y-96042862D01*
X47464286Y-96066671D01*
X47511905Y-96066671D01*
X47559524Y-95828576D01*
X47726190Y-96661909D02*
X47392857Y-96661909D01*
X47440476Y-96661909D02*
X47416667Y-96685718D01*
X47392857Y-96733337D01*
X47392857Y-96804766D01*
X47416667Y-96852385D01*
X47464286Y-96876194D01*
X47726190Y-96876194D01*
X47464286Y-96876194D02*
X47416667Y-96900004D01*
X47392857Y-96947623D01*
X47392857Y-97019051D01*
X47416667Y-97066671D01*
X47464286Y-97090480D01*
X47726190Y-97090480D01*
X47702381Y-97519052D02*
X47726190Y-97471433D01*
X47726190Y-97376195D01*
X47702381Y-97328576D01*
X47654762Y-97304766D01*
X47464286Y-97304766D01*
X47416667Y-97328576D01*
X47392857Y-97376195D01*
X47392857Y-97471433D01*
X47416667Y-97519052D01*
X47464286Y-97542861D01*
X47511905Y-97542861D01*
X47559524Y-97304766D01*
X47678571Y-97757147D02*
X47702381Y-97780956D01*
X47726190Y-97757147D01*
X47702381Y-97733337D01*
X47678571Y-97757147D01*
X47726190Y-97757147D01*
X47726190Y-98376194D02*
X47226190Y-98376194D01*
X47226190Y-98638098D02*
X47321429Y-98590479D01*
X47726190Y-98852384D02*
X47392857Y-98852384D01*
X47440476Y-98852384D02*
X47416667Y-98876193D01*
X47392857Y-98923812D01*
X47392857Y-98995241D01*
X47416667Y-99042860D01*
X47464286Y-99066669D01*
X47726190Y-99066669D01*
X47464286Y-99066669D02*
X47416667Y-99090479D01*
X47392857Y-99138098D01*
X47392857Y-99209526D01*
X47416667Y-99257146D01*
X47464286Y-99280955D01*
X47726190Y-99280955D01*
X47726190Y-100114288D02*
X47464286Y-100114288D01*
X47416667Y-100090479D01*
X47392857Y-100042860D01*
X47392857Y-99947622D01*
X47416667Y-99900003D01*
X47702381Y-100114288D02*
X47726190Y-100066669D01*
X47726190Y-99947622D01*
X47702381Y-99900003D01*
X47654762Y-99876193D01*
X47607143Y-99876193D01*
X47559524Y-99900003D01*
X47535714Y-99947622D01*
X47535714Y-100066669D01*
X47511905Y-100114288D01*
X47392857Y-100352384D02*
X47726190Y-100352384D01*
X47440476Y-100352384D02*
X47416667Y-100376193D01*
X47392857Y-100423812D01*
X47392857Y-100495241D01*
X47416667Y-100542860D01*
X47464286Y-100566669D01*
X47726190Y-100566669D01*
X47726190Y-101185717D02*
X47392857Y-101185717D01*
X47226190Y-101185717D02*
X47250000Y-101161907D01*
X47273810Y-101185717D01*
X47250000Y-101209526D01*
X47226190Y-101185717D01*
X47273810Y-101185717D01*
X47392857Y-101423812D02*
X47726190Y-101423812D01*
X47440476Y-101423812D02*
X47416667Y-101447621D01*
X47392857Y-101495240D01*
X47392857Y-101566669D01*
X47416667Y-101614288D01*
X47464286Y-101638097D01*
X47726190Y-101638097D01*
X47392857Y-101804764D02*
X47392857Y-101995240D01*
X47226190Y-101876193D02*
X47654762Y-101876193D01*
X47702381Y-101900002D01*
X47726190Y-101947621D01*
X47726190Y-101995240D01*
X47702381Y-102352383D02*
X47726190Y-102304764D01*
X47726190Y-102209526D01*
X47702381Y-102161907D01*
X47654762Y-102138097D01*
X47464286Y-102138097D01*
X47416667Y-102161907D01*
X47392857Y-102209526D01*
X47392857Y-102304764D01*
X47416667Y-102352383D01*
X47464286Y-102376192D01*
X47511905Y-102376192D01*
X47559524Y-102138097D01*
X47726190Y-102590478D02*
X47392857Y-102590478D01*
X47488095Y-102590478D02*
X47440476Y-102614287D01*
X47416667Y-102638097D01*
X47392857Y-102685716D01*
X47392857Y-102733335D01*
X47392857Y-102900002D02*
X47892857Y-102900002D01*
X47416667Y-102900002D02*
X47392857Y-102947621D01*
X47392857Y-103042859D01*
X47416667Y-103090478D01*
X47440476Y-103114287D01*
X47488095Y-103138097D01*
X47630952Y-103138097D01*
X47678571Y-103114287D01*
X47702381Y-103090478D01*
X47726190Y-103042859D01*
X47726190Y-102947621D01*
X47702381Y-102900002D01*
X47726190Y-103352383D02*
X47392857Y-103352383D01*
X47488095Y-103352383D02*
X47440476Y-103376192D01*
X47416667Y-103400002D01*
X47392857Y-103447621D01*
X47392857Y-103495240D01*
X47702381Y-103852383D02*
X47726190Y-103804764D01*
X47726190Y-103709526D01*
X47702381Y-103661907D01*
X47654762Y-103638097D01*
X47464286Y-103638097D01*
X47416667Y-103661907D01*
X47392857Y-103709526D01*
X47392857Y-103804764D01*
X47416667Y-103852383D01*
X47464286Y-103876192D01*
X47511905Y-103876192D01*
X47559524Y-103638097D01*
X47392857Y-104019049D02*
X47392857Y-104209525D01*
X47226190Y-104090478D02*
X47654762Y-104090478D01*
X47702381Y-104114287D01*
X47726190Y-104161906D01*
X47726190Y-104209525D01*
X47702381Y-104566668D02*
X47726190Y-104519049D01*
X47726190Y-104423811D01*
X47702381Y-104376192D01*
X47654762Y-104352382D01*
X47464286Y-104352382D01*
X47416667Y-104376192D01*
X47392857Y-104423811D01*
X47392857Y-104519049D01*
X47416667Y-104566668D01*
X47464286Y-104590477D01*
X47511905Y-104590477D01*
X47559524Y-104352382D01*
X47726190Y-104804763D02*
X47392857Y-104804763D01*
X47488095Y-104804763D02*
X47440476Y-104828572D01*
X47416667Y-104852382D01*
X47392857Y-104900001D01*
X47392857Y-104947620D01*
X47678571Y-105114287D02*
X47702381Y-105138096D01*
X47726190Y-105114287D01*
X47702381Y-105090477D01*
X47678571Y-105114287D01*
X47726190Y-105114287D01*
X47726190Y-105733334D02*
X47226190Y-105733334D01*
X47226190Y-105995238D02*
X47321429Y-105947619D01*
X47726190Y-106209524D02*
X47392857Y-106209524D01*
X47440476Y-106209524D02*
X47416667Y-106233333D01*
X47392857Y-106280952D01*
X47392857Y-106352381D01*
X47416667Y-106400000D01*
X47464286Y-106423809D01*
X47726190Y-106423809D01*
X47464286Y-106423809D02*
X47416667Y-106447619D01*
X47392857Y-106495238D01*
X47392857Y-106566666D01*
X47416667Y-106614286D01*
X47464286Y-106638095D01*
X47726190Y-106638095D01*
X47392857Y-107257143D02*
X47726190Y-107257143D01*
X47440476Y-107257143D02*
X47416667Y-107280952D01*
X47392857Y-107328571D01*
X47392857Y-107400000D01*
X47416667Y-107447619D01*
X47464286Y-107471428D01*
X47726190Y-107471428D01*
X47726190Y-107780952D02*
X47702381Y-107733333D01*
X47678571Y-107709524D01*
X47630952Y-107685714D01*
X47488095Y-107685714D01*
X47440476Y-107709524D01*
X47416667Y-107733333D01*
X47392857Y-107780952D01*
X47392857Y-107852381D01*
X47416667Y-107900000D01*
X47440476Y-107923809D01*
X47488095Y-107947619D01*
X47630952Y-107947619D01*
X47678571Y-107923809D01*
X47702381Y-107900000D01*
X47726190Y-107852381D01*
X47726190Y-107780952D01*
X47392857Y-108090476D02*
X47392857Y-108280952D01*
X47226190Y-108161905D02*
X47654762Y-108161905D01*
X47702381Y-108185714D01*
X47726190Y-108233333D01*
X47726190Y-108280952D01*
X47702381Y-108804761D02*
X47726190Y-108852380D01*
X47726190Y-108947618D01*
X47702381Y-108995237D01*
X47654762Y-109019047D01*
X47630952Y-109019047D01*
X47583333Y-108995237D01*
X47559524Y-108947618D01*
X47559524Y-108876190D01*
X47535714Y-108828571D01*
X47488095Y-108804761D01*
X47464286Y-108804761D01*
X47416667Y-108828571D01*
X47392857Y-108876190D01*
X47392857Y-108947618D01*
X47416667Y-108995237D01*
X47392857Y-109447618D02*
X47726190Y-109447618D01*
X47392857Y-109233333D02*
X47654762Y-109233333D01*
X47702381Y-109257142D01*
X47726190Y-109304761D01*
X47726190Y-109376190D01*
X47702381Y-109423809D01*
X47678571Y-109447618D01*
X47392857Y-109685714D02*
X47892857Y-109685714D01*
X47416667Y-109685714D02*
X47392857Y-109733333D01*
X47392857Y-109828571D01*
X47416667Y-109876190D01*
X47440476Y-109899999D01*
X47488095Y-109923809D01*
X47630952Y-109923809D01*
X47678571Y-109899999D01*
X47702381Y-109876190D01*
X47726190Y-109828571D01*
X47726190Y-109733333D01*
X47702381Y-109685714D01*
X47392857Y-110138095D02*
X47892857Y-110138095D01*
X47416667Y-110138095D02*
X47392857Y-110185714D01*
X47392857Y-110280952D01*
X47416667Y-110328571D01*
X47440476Y-110352380D01*
X47488095Y-110376190D01*
X47630952Y-110376190D01*
X47678571Y-110352380D01*
X47702381Y-110328571D01*
X47726190Y-110280952D01*
X47726190Y-110185714D01*
X47702381Y-110138095D01*
X47726190Y-110661904D02*
X47702381Y-110614285D01*
X47678571Y-110590476D01*
X47630952Y-110566666D01*
X47488095Y-110566666D01*
X47440476Y-110590476D01*
X47416667Y-110614285D01*
X47392857Y-110661904D01*
X47392857Y-110733333D01*
X47416667Y-110780952D01*
X47440476Y-110804761D01*
X47488095Y-110828571D01*
X47630952Y-110828571D01*
X47678571Y-110804761D01*
X47702381Y-110780952D01*
X47726190Y-110733333D01*
X47726190Y-110661904D01*
X47702381Y-111019047D02*
X47726190Y-111066666D01*
X47726190Y-111161904D01*
X47702381Y-111209523D01*
X47654762Y-111233333D01*
X47630952Y-111233333D01*
X47583333Y-111209523D01*
X47559524Y-111161904D01*
X47559524Y-111090476D01*
X47535714Y-111042857D01*
X47488095Y-111019047D01*
X47464286Y-111019047D01*
X47416667Y-111042857D01*
X47392857Y-111090476D01*
X47392857Y-111161904D01*
X47416667Y-111209523D01*
X47702381Y-111638095D02*
X47726190Y-111590476D01*
X47726190Y-111495238D01*
X47702381Y-111447619D01*
X47654762Y-111423809D01*
X47464286Y-111423809D01*
X47416667Y-111447619D01*
X47392857Y-111495238D01*
X47392857Y-111590476D01*
X47416667Y-111638095D01*
X47464286Y-111661904D01*
X47511905Y-111661904D01*
X47559524Y-111423809D01*
X47726190Y-112090475D02*
X47226190Y-112090475D01*
X47702381Y-112090475D02*
X47726190Y-112042856D01*
X47726190Y-111947618D01*
X47702381Y-111899999D01*
X47678571Y-111876190D01*
X47630952Y-111852380D01*
X47488095Y-111852380D01*
X47440476Y-111876190D01*
X47416667Y-111899999D01*
X47392857Y-111947618D01*
X47392857Y-112042856D01*
X47416667Y-112090475D01*
X47392857Y-112638094D02*
X47392857Y-112828570D01*
X47226190Y-112709523D02*
X47654762Y-112709523D01*
X47702381Y-112733332D01*
X47726190Y-112780951D01*
X47726190Y-112828570D01*
X47726190Y-113066665D02*
X47702381Y-113019046D01*
X47678571Y-112995237D01*
X47630952Y-112971427D01*
X47488095Y-112971427D01*
X47440476Y-112995237D01*
X47416667Y-113019046D01*
X47392857Y-113066665D01*
X47392857Y-113138094D01*
X47416667Y-113185713D01*
X47440476Y-113209522D01*
X47488095Y-113233332D01*
X47630952Y-113233332D01*
X47678571Y-113209522D01*
X47702381Y-113185713D01*
X47726190Y-113138094D01*
X47726190Y-113066665D01*
X47726190Y-113828570D02*
X47226190Y-113828570D01*
X47535714Y-113876189D02*
X47726190Y-114019046D01*
X47392857Y-114019046D02*
X47583333Y-113828570D01*
X47392857Y-114233332D02*
X47726190Y-114233332D01*
X47440476Y-114233332D02*
X47416667Y-114257141D01*
X47392857Y-114304760D01*
X47392857Y-114376189D01*
X47416667Y-114423808D01*
X47464286Y-114447617D01*
X47726190Y-114447617D01*
X47726190Y-114757141D02*
X47702381Y-114709522D01*
X47678571Y-114685713D01*
X47630952Y-114661903D01*
X47488095Y-114661903D01*
X47440476Y-114685713D01*
X47416667Y-114709522D01*
X47392857Y-114757141D01*
X47392857Y-114828570D01*
X47416667Y-114876189D01*
X47440476Y-114899998D01*
X47488095Y-114923808D01*
X47630952Y-114923808D01*
X47678571Y-114899998D01*
X47702381Y-114876189D01*
X47726190Y-114828570D01*
X47726190Y-114757141D01*
X47392857Y-115090475D02*
X47726190Y-115185713D01*
X47488095Y-115280951D01*
X47726190Y-115376189D01*
X47392857Y-115471427D01*
X47726190Y-116257141D02*
X47464286Y-116257141D01*
X47416667Y-116233332D01*
X47392857Y-116185713D01*
X47392857Y-116090475D01*
X47416667Y-116042856D01*
X47702381Y-116257141D02*
X47726190Y-116209522D01*
X47726190Y-116090475D01*
X47702381Y-116042856D01*
X47654762Y-116019046D01*
X47607143Y-116019046D01*
X47559524Y-116042856D01*
X47535714Y-116090475D01*
X47535714Y-116209522D01*
X47511905Y-116257141D01*
X47392857Y-116876189D02*
X47892857Y-116876189D01*
X47416667Y-116876189D02*
X47392857Y-116923808D01*
X47392857Y-117019046D01*
X47416667Y-117066665D01*
X47440476Y-117090474D01*
X47488095Y-117114284D01*
X47630952Y-117114284D01*
X47678571Y-117090474D01*
X47702381Y-117066665D01*
X47726190Y-117019046D01*
X47726190Y-116923808D01*
X47702381Y-116876189D01*
X47726190Y-117399998D02*
X47702381Y-117352379D01*
X47678571Y-117328570D01*
X47630952Y-117304760D01*
X47488095Y-117304760D01*
X47440476Y-117328570D01*
X47416667Y-117352379D01*
X47392857Y-117399998D01*
X47392857Y-117471427D01*
X47416667Y-117519046D01*
X47440476Y-117542855D01*
X47488095Y-117566665D01*
X47630952Y-117566665D01*
X47678571Y-117542855D01*
X47702381Y-117519046D01*
X47726190Y-117471427D01*
X47726190Y-117399998D01*
X47392857Y-117733332D02*
X47726190Y-117828570D01*
X47488095Y-117923808D01*
X47726190Y-118019046D01*
X47392857Y-118114284D01*
X47702381Y-118495237D02*
X47726190Y-118447618D01*
X47726190Y-118352380D01*
X47702381Y-118304761D01*
X47654762Y-118280951D01*
X47464286Y-118280951D01*
X47416667Y-118304761D01*
X47392857Y-118352380D01*
X47392857Y-118447618D01*
X47416667Y-118495237D01*
X47464286Y-118519046D01*
X47511905Y-118519046D01*
X47559524Y-118280951D01*
X47726190Y-118733332D02*
X47392857Y-118733332D01*
X47488095Y-118733332D02*
X47440476Y-118757141D01*
X47416667Y-118780951D01*
X47392857Y-118828570D01*
X47392857Y-118876189D01*
X47702381Y-119399998D02*
X47726190Y-119447617D01*
X47726190Y-119542855D01*
X47702381Y-119590474D01*
X47654762Y-119614284D01*
X47630952Y-119614284D01*
X47583333Y-119590474D01*
X47559524Y-119542855D01*
X47559524Y-119471427D01*
X47535714Y-119423808D01*
X47488095Y-119399998D01*
X47464286Y-119399998D01*
X47416667Y-119423808D01*
X47392857Y-119471427D01*
X47392857Y-119542855D01*
X47416667Y-119590474D01*
X47726190Y-119899998D02*
X47702381Y-119852379D01*
X47678571Y-119828570D01*
X47630952Y-119804760D01*
X47488095Y-119804760D01*
X47440476Y-119828570D01*
X47416667Y-119852379D01*
X47392857Y-119899998D01*
X47392857Y-119971427D01*
X47416667Y-120019046D01*
X47440476Y-120042855D01*
X47488095Y-120066665D01*
X47630952Y-120066665D01*
X47678571Y-120042855D01*
X47702381Y-120019046D01*
X47726190Y-119971427D01*
X47726190Y-119899998D01*
X47702381Y-120495236D02*
X47726190Y-120447617D01*
X47726190Y-120352379D01*
X47702381Y-120304760D01*
X47678571Y-120280951D01*
X47630952Y-120257141D01*
X47488095Y-120257141D01*
X47440476Y-120280951D01*
X47416667Y-120304760D01*
X47392857Y-120352379D01*
X47392857Y-120447617D01*
X47416667Y-120495236D01*
X47726190Y-120709522D02*
X47226190Y-120709522D01*
X47535714Y-120757141D02*
X47726190Y-120899998D01*
X47392857Y-120899998D02*
X47583333Y-120709522D01*
X47702381Y-121304760D02*
X47726190Y-121257141D01*
X47726190Y-121161903D01*
X47702381Y-121114284D01*
X47654762Y-121090474D01*
X47464286Y-121090474D01*
X47416667Y-121114284D01*
X47392857Y-121161903D01*
X47392857Y-121257141D01*
X47416667Y-121304760D01*
X47464286Y-121328569D01*
X47511905Y-121328569D01*
X47559524Y-121090474D01*
X47392857Y-121471426D02*
X47392857Y-121661902D01*
X47226190Y-121542855D02*
X47654762Y-121542855D01*
X47702381Y-121566664D01*
X47726190Y-121614283D01*
X47726190Y-121661902D01*
X47392857Y-122138092D02*
X47392857Y-122328568D01*
X47726190Y-122209521D02*
X47297619Y-122209521D01*
X47250000Y-122233330D01*
X47226190Y-122280949D01*
X47226190Y-122328568D01*
X47726190Y-122495235D02*
X47392857Y-122495235D01*
X47488095Y-122495235D02*
X47440476Y-122519044D01*
X47416667Y-122542854D01*
X47392857Y-122590473D01*
X47392857Y-122638092D01*
X47726190Y-122876187D02*
X47702381Y-122828568D01*
X47678571Y-122804759D01*
X47630952Y-122780949D01*
X47488095Y-122780949D01*
X47440476Y-122804759D01*
X47416667Y-122828568D01*
X47392857Y-122876187D01*
X47392857Y-122947616D01*
X47416667Y-122995235D01*
X47440476Y-123019044D01*
X47488095Y-123042854D01*
X47630952Y-123042854D01*
X47678571Y-123019044D01*
X47702381Y-122995235D01*
X47726190Y-122947616D01*
X47726190Y-122876187D01*
X47726190Y-123257140D02*
X47392857Y-123257140D01*
X47440476Y-123257140D02*
X47416667Y-123280949D01*
X47392857Y-123328568D01*
X47392857Y-123399997D01*
X47416667Y-123447616D01*
X47464286Y-123471425D01*
X47726190Y-123471425D01*
X47464286Y-123471425D02*
X47416667Y-123495235D01*
X47392857Y-123542854D01*
X47392857Y-123614282D01*
X47416667Y-123661902D01*
X47464286Y-123685711D01*
X47726190Y-123685711D01*
X47726190Y-124519044D02*
X47464286Y-124519044D01*
X47416667Y-124495235D01*
X47392857Y-124447616D01*
X47392857Y-124352378D01*
X47416667Y-124304759D01*
X47702381Y-124519044D02*
X47726190Y-124471425D01*
X47726190Y-124352378D01*
X47702381Y-124304759D01*
X47654762Y-124280949D01*
X47607143Y-124280949D01*
X47559524Y-124304759D01*
X47535714Y-124352378D01*
X47535714Y-124471425D01*
X47511905Y-124519044D01*
X47702381Y-125352377D02*
X47726190Y-125304758D01*
X47726190Y-125209520D01*
X47702381Y-125161901D01*
X47678571Y-125138092D01*
X47630952Y-125114282D01*
X47488095Y-125114282D01*
X47440476Y-125138092D01*
X47416667Y-125161901D01*
X47392857Y-125209520D01*
X47392857Y-125304758D01*
X47416667Y-125352377D01*
X47726190Y-125638091D02*
X47702381Y-125590472D01*
X47678571Y-125566663D01*
X47630952Y-125542853D01*
X47488095Y-125542853D01*
X47440476Y-125566663D01*
X47416667Y-125590472D01*
X47392857Y-125638091D01*
X47392857Y-125709520D01*
X47416667Y-125757139D01*
X47440476Y-125780948D01*
X47488095Y-125804758D01*
X47630952Y-125804758D01*
X47678571Y-125780948D01*
X47702381Y-125757139D01*
X47726190Y-125709520D01*
X47726190Y-125638091D01*
X47726190Y-126019044D02*
X47392857Y-126019044D01*
X47440476Y-126019044D02*
X47416667Y-126042853D01*
X47392857Y-126090472D01*
X47392857Y-126161901D01*
X47416667Y-126209520D01*
X47464286Y-126233329D01*
X47726190Y-126233329D01*
X47464286Y-126233329D02*
X47416667Y-126257139D01*
X47392857Y-126304758D01*
X47392857Y-126376186D01*
X47416667Y-126423806D01*
X47464286Y-126447615D01*
X47726190Y-126447615D01*
X47392857Y-126685711D02*
X47892857Y-126685711D01*
X47416667Y-126685711D02*
X47392857Y-126733330D01*
X47392857Y-126828568D01*
X47416667Y-126876187D01*
X47440476Y-126899996D01*
X47488095Y-126923806D01*
X47630952Y-126923806D01*
X47678571Y-126899996D01*
X47702381Y-126876187D01*
X47726190Y-126828568D01*
X47726190Y-126733330D01*
X47702381Y-126685711D01*
X47392857Y-127352377D02*
X47726190Y-127352377D01*
X47392857Y-127138092D02*
X47654762Y-127138092D01*
X47702381Y-127161901D01*
X47726190Y-127209520D01*
X47726190Y-127280949D01*
X47702381Y-127328568D01*
X47678571Y-127352377D01*
X47392857Y-127519044D02*
X47392857Y-127709520D01*
X47226190Y-127590473D02*
X47654762Y-127590473D01*
X47702381Y-127614282D01*
X47726190Y-127661901D01*
X47726190Y-127709520D01*
X47702381Y-128066663D02*
X47726190Y-128019044D01*
X47726190Y-127923806D01*
X47702381Y-127876187D01*
X47654762Y-127852377D01*
X47464286Y-127852377D01*
X47416667Y-127876187D01*
X47392857Y-127923806D01*
X47392857Y-128019044D01*
X47416667Y-128066663D01*
X47464286Y-128090472D01*
X47511905Y-128090472D01*
X47559524Y-127852377D01*
X47726190Y-128304758D02*
X47392857Y-128304758D01*
X47488095Y-128304758D02*
X47440476Y-128328567D01*
X47416667Y-128352377D01*
X47392857Y-128399996D01*
X47392857Y-128447615D01*
X47392857Y-128923805D02*
X47392857Y-129114281D01*
X47226190Y-128995234D02*
X47654762Y-128995234D01*
X47702381Y-129019043D01*
X47726190Y-129066662D01*
X47726190Y-129114281D01*
X47702381Y-129471424D02*
X47726190Y-129423805D01*
X47726190Y-129328567D01*
X47702381Y-129280948D01*
X47654762Y-129257138D01*
X47464286Y-129257138D01*
X47416667Y-129280948D01*
X47392857Y-129328567D01*
X47392857Y-129423805D01*
X47416667Y-129471424D01*
X47464286Y-129495233D01*
X47511905Y-129495233D01*
X47559524Y-129257138D01*
X47726190Y-129709519D02*
X47392857Y-129709519D01*
X47488095Y-129709519D02*
X47440476Y-129733328D01*
X47416667Y-129757138D01*
X47392857Y-129804757D01*
X47392857Y-129852376D01*
X47726190Y-130019043D02*
X47392857Y-130019043D01*
X47440476Y-130019043D02*
X47416667Y-130042852D01*
X47392857Y-130090471D01*
X47392857Y-130161900D01*
X47416667Y-130209519D01*
X47464286Y-130233328D01*
X47726190Y-130233328D01*
X47464286Y-130233328D02*
X47416667Y-130257138D01*
X47392857Y-130304757D01*
X47392857Y-130376185D01*
X47416667Y-130423805D01*
X47464286Y-130447614D01*
X47726190Y-130447614D01*
X47726190Y-130685710D02*
X47392857Y-130685710D01*
X47226190Y-130685710D02*
X47250000Y-130661900D01*
X47273810Y-130685710D01*
X47250000Y-130709519D01*
X47226190Y-130685710D01*
X47273810Y-130685710D01*
X47392857Y-130923805D02*
X47726190Y-130923805D01*
X47440476Y-130923805D02*
X47416667Y-130947614D01*
X47392857Y-130995233D01*
X47392857Y-131066662D01*
X47416667Y-131114281D01*
X47464286Y-131138090D01*
X47726190Y-131138090D01*
X47726190Y-131590471D02*
X47464286Y-131590471D01*
X47416667Y-131566662D01*
X47392857Y-131519043D01*
X47392857Y-131423805D01*
X47416667Y-131376186D01*
X47702381Y-131590471D02*
X47726190Y-131542852D01*
X47726190Y-131423805D01*
X47702381Y-131376186D01*
X47654762Y-131352376D01*
X47607143Y-131352376D01*
X47559524Y-131376186D01*
X47535714Y-131423805D01*
X47535714Y-131542852D01*
X47511905Y-131590471D01*
X47726190Y-131899995D02*
X47702381Y-131852376D01*
X47654762Y-131828567D01*
X47226190Y-131828567D01*
X47678571Y-132090472D02*
X47702381Y-132114281D01*
X47726190Y-132090472D01*
X47702381Y-132066662D01*
X47678571Y-132090472D01*
X47726190Y-132090472D01*
D15*
X54578571Y-99614285D02*
X54578571Y-100471428D01*
X56078571Y-100042857D02*
X54578571Y-100042857D01*
X56078571Y-100971428D02*
X54578571Y-100971428D01*
X56078571Y-101614285D02*
X55292857Y-101614285D01*
X55150000Y-101542856D01*
X55078571Y-101399999D01*
X55078571Y-101185714D01*
X55150000Y-101042856D01*
X55221429Y-100971428D01*
X56078571Y-102542857D02*
X56007143Y-102399999D01*
X55935714Y-102328571D01*
X55792857Y-102257142D01*
X55364286Y-102257142D01*
X55221429Y-102328571D01*
X55150000Y-102399999D01*
X55078571Y-102542857D01*
X55078571Y-102757142D01*
X55150000Y-102899999D01*
X55221429Y-102971428D01*
X55364286Y-103042857D01*
X55792857Y-103042857D01*
X55935714Y-102971428D01*
X56007143Y-102899999D01*
X56078571Y-102757142D01*
X56078571Y-102542857D01*
X55078571Y-104328571D02*
X56078571Y-104328571D01*
X55078571Y-103685714D02*
X55864286Y-103685714D01*
X56007143Y-103757142D01*
X56078571Y-103900000D01*
X56078571Y-104114285D01*
X56007143Y-104257142D01*
X55935714Y-104328571D01*
X56007143Y-106114285D02*
X56078571Y-106257142D01*
X56078571Y-106542857D01*
X56007143Y-106685714D01*
X55864286Y-106757142D01*
X55792857Y-106757142D01*
X55650000Y-106685714D01*
X55578571Y-106542857D01*
X55578571Y-106328571D01*
X55507143Y-106185714D01*
X55364286Y-106114285D01*
X55292857Y-106114285D01*
X55150000Y-106185714D01*
X55078571Y-106328571D01*
X55078571Y-106542857D01*
X55150000Y-106685714D01*
X56078571Y-107400000D02*
X54578571Y-107400000D01*
X56078571Y-108042857D02*
X55292857Y-108042857D01*
X55150000Y-107971428D01*
X55078571Y-107828571D01*
X55078571Y-107614286D01*
X55150000Y-107471428D01*
X55221429Y-107400000D01*
X56078571Y-109400000D02*
X55292857Y-109400000D01*
X55150000Y-109328571D01*
X55078571Y-109185714D01*
X55078571Y-108900000D01*
X55150000Y-108757143D01*
X56007143Y-109400000D02*
X56078571Y-109257143D01*
X56078571Y-108900000D01*
X56007143Y-108757143D01*
X55864286Y-108685714D01*
X55721429Y-108685714D01*
X55578571Y-108757143D01*
X55507143Y-108900000D01*
X55507143Y-109257143D01*
X55435714Y-109400000D01*
X56078571Y-110328572D02*
X56007143Y-110185714D01*
X55864286Y-110114286D01*
X54578571Y-110114286D01*
X56078571Y-111114286D02*
X56007143Y-110971428D01*
X55864286Y-110900000D01*
X54578571Y-110900000D01*
X55078571Y-112828571D02*
X56078571Y-112828571D01*
X55221429Y-112828571D02*
X55150000Y-112899999D01*
X55078571Y-113042857D01*
X55078571Y-113257142D01*
X55150000Y-113399999D01*
X55292857Y-113471428D01*
X56078571Y-113471428D01*
X56078571Y-114400000D02*
X56007143Y-114257142D01*
X55935714Y-114185714D01*
X55792857Y-114114285D01*
X55364286Y-114114285D01*
X55221429Y-114185714D01*
X55150000Y-114257142D01*
X55078571Y-114400000D01*
X55078571Y-114614285D01*
X55150000Y-114757142D01*
X55221429Y-114828571D01*
X55364286Y-114900000D01*
X55792857Y-114900000D01*
X55935714Y-114828571D01*
X56007143Y-114757142D01*
X56078571Y-114614285D01*
X56078571Y-114400000D01*
X55078571Y-115328571D02*
X55078571Y-115900000D01*
X54578571Y-115542857D02*
X55864286Y-115542857D01*
X56007143Y-115614285D01*
X56078571Y-115757143D01*
X56078571Y-115900000D01*
X55078571Y-117542857D02*
X56578571Y-117542857D01*
X55150000Y-117542857D02*
X55078571Y-117685714D01*
X55078571Y-117971428D01*
X55150000Y-118114285D01*
X55221429Y-118185714D01*
X55364286Y-118257143D01*
X55792857Y-118257143D01*
X55935714Y-118185714D01*
X56007143Y-118114285D01*
X56078571Y-117971428D01*
X56078571Y-117685714D01*
X56007143Y-117542857D01*
X56078571Y-119542857D02*
X55292857Y-119542857D01*
X55150000Y-119471428D01*
X55078571Y-119328571D01*
X55078571Y-119042857D01*
X55150000Y-118900000D01*
X56007143Y-119542857D02*
X56078571Y-119400000D01*
X56078571Y-119042857D01*
X56007143Y-118900000D01*
X55864286Y-118828571D01*
X55721429Y-118828571D01*
X55578571Y-118900000D01*
X55507143Y-119042857D01*
X55507143Y-119400000D01*
X55435714Y-119542857D01*
X56007143Y-120185714D02*
X56078571Y-120328571D01*
X56078571Y-120614286D01*
X56007143Y-120757143D01*
X55864286Y-120828571D01*
X55792857Y-120828571D01*
X55650000Y-120757143D01*
X55578571Y-120614286D01*
X55578571Y-120400000D01*
X55507143Y-120257143D01*
X55364286Y-120185714D01*
X55292857Y-120185714D01*
X55150000Y-120257143D01*
X55078571Y-120400000D01*
X55078571Y-120614286D01*
X55150000Y-120757143D01*
X56007143Y-121400000D02*
X56078571Y-121542857D01*
X56078571Y-121828572D01*
X56007143Y-121971429D01*
X55864286Y-122042857D01*
X55792857Y-122042857D01*
X55650000Y-121971429D01*
X55578571Y-121828572D01*
X55578571Y-121614286D01*
X55507143Y-121471429D01*
X55364286Y-121400000D01*
X55292857Y-121400000D01*
X55150000Y-121471429D01*
X55078571Y-121614286D01*
X55078571Y-121828572D01*
X55150000Y-121971429D01*
D10*
X244242722Y-89669457D02*
X244147484Y-90002790D01*
X244052246Y-89764695D01*
X243957008Y-90002790D01*
X243861770Y-89669457D01*
X243671293Y-90002790D02*
X243671293Y-89502790D01*
X243457008Y-90002790D02*
X243457008Y-89740886D01*
X243480817Y-89693267D01*
X243528436Y-89669457D01*
X243599865Y-89669457D01*
X243647484Y-89693267D01*
X243671293Y-89717076D01*
X243004627Y-90002790D02*
X243004627Y-89740886D01*
X243028436Y-89693267D01*
X243076055Y-89669457D01*
X243171293Y-89669457D01*
X243218912Y-89693267D01*
X243004627Y-89978981D02*
X243052246Y-90002790D01*
X243171293Y-90002790D01*
X243218912Y-89978981D01*
X243242722Y-89931362D01*
X243242722Y-89883743D01*
X243218912Y-89836124D01*
X243171293Y-89812314D01*
X243052246Y-89812314D01*
X243004627Y-89788505D01*
X242837960Y-89669457D02*
X242647484Y-89669457D01*
X242766531Y-89502790D02*
X242766531Y-89931362D01*
X242742722Y-89978981D01*
X242695103Y-90002790D01*
X242647484Y-90002790D01*
X242457008Y-89502790D02*
X242504627Y-89598029D01*
X242266532Y-89978981D02*
X242218913Y-90002790D01*
X242123675Y-90002790D01*
X242076056Y-89978981D01*
X242052246Y-89931362D01*
X242052246Y-89907552D01*
X242076056Y-89859933D01*
X242123675Y-89836124D01*
X242195103Y-89836124D01*
X242242722Y-89812314D01*
X242266532Y-89764695D01*
X242266532Y-89740886D01*
X242242722Y-89693267D01*
X242195103Y-89669457D01*
X242123675Y-89669457D01*
X242076056Y-89693267D01*
X241457008Y-90002790D02*
X241457008Y-89669457D01*
X241457008Y-89717076D02*
X241433199Y-89693267D01*
X241385580Y-89669457D01*
X241314151Y-89669457D01*
X241266532Y-89693267D01*
X241242723Y-89740886D01*
X241242723Y-90002790D01*
X241242723Y-89740886D02*
X241218913Y-89693267D01*
X241171294Y-89669457D01*
X241099866Y-89669457D01*
X241052246Y-89693267D01*
X241028437Y-89740886D01*
X241028437Y-90002790D01*
X240837960Y-89669457D02*
X240718913Y-90002790D01*
X240599865Y-89669457D02*
X240718913Y-90002790D01*
X240766532Y-90121838D01*
X240790341Y-90145648D01*
X240837960Y-90169457D01*
X240028437Y-89669457D02*
X240028437Y-90169457D01*
X240028437Y-89693267D02*
X239980818Y-89669457D01*
X239885580Y-89669457D01*
X239837961Y-89693267D01*
X239814152Y-89717076D01*
X239790342Y-89764695D01*
X239790342Y-89907552D01*
X239814152Y-89955171D01*
X239837961Y-89978981D01*
X239885580Y-90002790D01*
X239980818Y-90002790D01*
X240028437Y-89978981D01*
X239361771Y-89669457D02*
X239361771Y-90002790D01*
X239576056Y-89669457D02*
X239576056Y-89931362D01*
X239552247Y-89978981D01*
X239504628Y-90002790D01*
X239433199Y-90002790D01*
X239385580Y-89978981D01*
X239361771Y-89955171D01*
X239123675Y-90002790D02*
X239123675Y-89669457D01*
X239123675Y-89764695D02*
X239099866Y-89717076D01*
X239076056Y-89693267D01*
X239028437Y-89669457D01*
X238980818Y-89669457D01*
X238814151Y-89669457D02*
X238814151Y-90169457D01*
X238814151Y-89693267D02*
X238766532Y-89669457D01*
X238671294Y-89669457D01*
X238623675Y-89693267D01*
X238599866Y-89717076D01*
X238576056Y-89764695D01*
X238576056Y-89907552D01*
X238599866Y-89955171D01*
X238623675Y-89978981D01*
X238671294Y-90002790D01*
X238766532Y-90002790D01*
X238814151Y-89978981D01*
X238290342Y-90002790D02*
X238337961Y-89978981D01*
X238361770Y-89955171D01*
X238385580Y-89907552D01*
X238385580Y-89764695D01*
X238361770Y-89717076D01*
X238337961Y-89693267D01*
X238290342Y-89669457D01*
X238218913Y-89669457D01*
X238171294Y-89693267D01*
X238147485Y-89717076D01*
X238123675Y-89764695D01*
X238123675Y-89907552D01*
X238147485Y-89955171D01*
X238171294Y-89978981D01*
X238218913Y-90002790D01*
X238290342Y-90002790D01*
X237933199Y-89978981D02*
X237885580Y-90002790D01*
X237790342Y-90002790D01*
X237742723Y-89978981D01*
X237718913Y-89931362D01*
X237718913Y-89907552D01*
X237742723Y-89859933D01*
X237790342Y-89836124D01*
X237861770Y-89836124D01*
X237909389Y-89812314D01*
X237933199Y-89764695D01*
X237933199Y-89740886D01*
X237909389Y-89693267D01*
X237861770Y-89669457D01*
X237790342Y-89669457D01*
X237742723Y-89693267D01*
X237314151Y-89978981D02*
X237361770Y-90002790D01*
X237457008Y-90002790D01*
X237504627Y-89978981D01*
X237528437Y-89931362D01*
X237528437Y-89740886D01*
X237504627Y-89693267D01*
X237457008Y-89669457D01*
X237361770Y-89669457D01*
X237314151Y-89693267D01*
X237290342Y-89740886D01*
X237290342Y-89788505D01*
X237528437Y-89836124D01*
X237076056Y-89955171D02*
X237052247Y-89978981D01*
X237076056Y-90002790D01*
X237099866Y-89978981D01*
X237076056Y-89955171D01*
X237076056Y-90002790D01*
X236837961Y-89955171D02*
X236814152Y-89978981D01*
X236837961Y-90002790D01*
X236861771Y-89978981D01*
X236837961Y-89955171D01*
X236837961Y-90002790D01*
X236599866Y-89955171D02*
X236576057Y-89978981D01*
X236599866Y-90002790D01*
X236623676Y-89978981D01*
X236599866Y-89955171D01*
X236599866Y-90002790D01*
X236290343Y-89955171D02*
X236266533Y-89978981D01*
X236290343Y-90002790D01*
X236314152Y-89978981D01*
X236290343Y-89955171D01*
X236290343Y-90002790D01*
X236385581Y-89526600D02*
X236337962Y-89502790D01*
X236218914Y-89502790D01*
X236171295Y-89526600D01*
X236147486Y-89574219D01*
X236147486Y-89621838D01*
X236171295Y-89669457D01*
X236195105Y-89693267D01*
X236242724Y-89717076D01*
X236266533Y-89740886D01*
X236290343Y-89788505D01*
X236290343Y-89812314D01*
D12*
X192596156Y-123533200D02*
G75*
G03X192596156Y-123533200I-5041756J0D01*
G01*
D15*
X189973428Y-121252286D02*
X189973428Y-121966571D01*
X190473428Y-120466571D02*
X189973428Y-121252286D01*
X189473428Y-120466571D01*
X188973428Y-120966571D02*
X188973428Y-121966571D01*
X188973428Y-121109429D02*
X188902000Y-121038000D01*
X188759142Y-120966571D01*
X188544857Y-120966571D01*
X188402000Y-121038000D01*
X188330571Y-121180857D01*
X188330571Y-121966571D01*
X186973428Y-120966571D02*
X186973428Y-122180857D01*
X187044857Y-122323714D01*
X187116285Y-122395143D01*
X187259142Y-122466571D01*
X187473428Y-122466571D01*
X187616285Y-122395143D01*
X186973428Y-121895143D02*
X187116285Y-121966571D01*
X187401999Y-121966571D01*
X187544857Y-121895143D01*
X187616285Y-121823714D01*
X187687714Y-121680857D01*
X187687714Y-121252286D01*
X187616285Y-121109429D01*
X187544857Y-121038000D01*
X187401999Y-120966571D01*
X187116285Y-120966571D01*
X186973428Y-121038000D01*
X186401999Y-120966571D02*
X186044856Y-121966571D01*
X185687714Y-120966571D01*
X184544857Y-121895143D02*
X184687714Y-121966571D01*
X184973428Y-121966571D01*
X185116285Y-121895143D01*
X185187714Y-121752286D01*
X185187714Y-121180857D01*
X185116285Y-121038000D01*
X184973428Y-120966571D01*
X184687714Y-120966571D01*
X184544857Y-121038000D01*
X184473428Y-121180857D01*
X184473428Y-121323714D01*
X185187714Y-121466571D01*
X189259143Y-123516571D02*
X188973429Y-124516571D01*
X188687715Y-123802286D01*
X188402000Y-124516571D01*
X188116286Y-123516571D01*
X186902000Y-124516571D02*
X186902000Y-123730857D01*
X186973429Y-123588000D01*
X187116286Y-123516571D01*
X187402000Y-123516571D01*
X187544857Y-123588000D01*
X186902000Y-124445143D02*
X187044857Y-124516571D01*
X187402000Y-124516571D01*
X187544857Y-124445143D01*
X187616286Y-124302286D01*
X187616286Y-124159429D01*
X187544857Y-124016571D01*
X187402000Y-123945143D01*
X187044857Y-123945143D01*
X186902000Y-123873714D01*
X186259143Y-124445143D02*
X186116286Y-124516571D01*
X185830571Y-124516571D01*
X185687714Y-124445143D01*
X185616286Y-124302286D01*
X185616286Y-124230857D01*
X185687714Y-124088000D01*
X185830571Y-124016571D01*
X186044857Y-124016571D01*
X186187714Y-123945143D01*
X186259143Y-123802286D01*
X186259143Y-123730857D01*
X186187714Y-123588000D01*
X186044857Y-123516571D01*
X185830571Y-123516571D01*
X185687714Y-123588000D01*
X189473428Y-127066571D02*
X189473428Y-125566571D01*
X188830571Y-127066571D02*
X188830571Y-126280857D01*
X188902000Y-126138000D01*
X189044857Y-126066571D01*
X189259142Y-126066571D01*
X189402000Y-126138000D01*
X189473428Y-126209429D01*
X187544857Y-126995143D02*
X187687714Y-127066571D01*
X187973428Y-127066571D01*
X188116285Y-126995143D01*
X188187714Y-126852286D01*
X188187714Y-126280857D01*
X188116285Y-126138000D01*
X187973428Y-126066571D01*
X187687714Y-126066571D01*
X187544857Y-126138000D01*
X187473428Y-126280857D01*
X187473428Y-126423714D01*
X188187714Y-126566571D01*
X186830571Y-127066571D02*
X186830571Y-126066571D01*
X186830571Y-126352286D02*
X186759143Y-126209429D01*
X186687714Y-126138000D01*
X186544857Y-126066571D01*
X186402000Y-126066571D01*
X185330572Y-126995143D02*
X185473429Y-127066571D01*
X185759143Y-127066571D01*
X185902000Y-126995143D01*
X185973429Y-126852286D01*
X185973429Y-126280857D01*
X185902000Y-126138000D01*
X185759143Y-126066571D01*
X185473429Y-126066571D01*
X185330572Y-126138000D01*
X185259143Y-126280857D01*
X185259143Y-126423714D01*
X185973429Y-126566571D01*
X117737950Y-93750695D02*
X116677289Y-92690035D01*
X116424751Y-92942573D01*
X116323737Y-93144603D01*
X116323736Y-93346634D01*
X116374244Y-93498157D01*
X116525767Y-93750696D01*
X116677289Y-93902218D01*
X116929828Y-94053741D01*
X117081351Y-94104249D01*
X117283382Y-94104248D01*
X117485411Y-94003233D01*
X117737950Y-93750695D01*
X116222721Y-95265924D02*
X115667137Y-94710340D01*
X115616630Y-94558817D01*
X115667137Y-94407294D01*
X115869167Y-94205263D01*
X116020690Y-94154756D01*
X116172214Y-95215416D02*
X116323736Y-95164908D01*
X116576274Y-94912370D01*
X116626782Y-94760848D01*
X116576275Y-94609325D01*
X116475260Y-94508310D01*
X116323736Y-94457802D01*
X116172214Y-94508310D01*
X115919675Y-94760848D01*
X115768152Y-94811355D01*
X115010538Y-95063893D02*
X115717644Y-95771000D01*
X115111553Y-95164909D02*
X115010538Y-95164908D01*
X114859014Y-95215416D01*
X114707492Y-95366939D01*
X114656985Y-95518462D01*
X114707492Y-95669985D01*
X115263076Y-96225569D01*
X113596324Y-96478107D02*
X114454954Y-97336737D01*
X114606477Y-97387244D01*
X114707492Y-97387245D01*
X114859014Y-97336737D01*
X115010538Y-97185214D01*
X115061045Y-97033691D01*
X114252924Y-97134706D02*
X114404446Y-97084198D01*
X114606476Y-96882168D01*
X114656985Y-96730645D01*
X114656984Y-96629630D01*
X114606477Y-96478107D01*
X114303431Y-96175061D01*
X114151908Y-96124554D01*
X114050893Y-96124553D01*
X113899369Y-96175061D01*
X113697339Y-96377092D01*
X113646832Y-96528615D01*
X113343786Y-98043843D02*
X113495309Y-97993335D01*
X113697339Y-97791305D01*
X113747847Y-97639783D01*
X113697340Y-97488260D01*
X113293279Y-97084198D01*
X113141755Y-97033691D01*
X112990232Y-97084198D01*
X112788202Y-97286229D01*
X112737695Y-97437752D01*
X112788202Y-97589275D01*
X112889217Y-97690290D01*
X113495309Y-97286229D01*
X112889217Y-98599427D02*
X112182110Y-97892320D01*
X112384141Y-98094351D02*
X112232619Y-98043843D01*
X112131603Y-98043843D01*
X111980080Y-98094351D01*
X111879065Y-98195366D01*
X117032305Y-153995950D02*
X118092965Y-152935289D01*
X117840427Y-152682751D01*
X117638397Y-152581737D01*
X117436366Y-152581736D01*
X117284843Y-152632244D01*
X117032304Y-152783767D01*
X116880782Y-152935289D01*
X116729259Y-153187828D01*
X116678751Y-153339351D01*
X116678752Y-153541382D01*
X116779767Y-153743411D01*
X117032305Y-153995950D01*
X115517076Y-152480721D02*
X116072660Y-151925137D01*
X116224183Y-151874630D01*
X116375706Y-151925137D01*
X116577737Y-152127167D01*
X116628244Y-152278690D01*
X115567584Y-152430214D02*
X115618092Y-152581736D01*
X115870630Y-152834274D01*
X116022152Y-152884782D01*
X116173675Y-152834275D01*
X116274690Y-152733260D01*
X116325198Y-152581736D01*
X116274690Y-152430214D01*
X116022152Y-152177675D01*
X115971645Y-152026152D01*
X115719107Y-151268538D02*
X115012000Y-151975644D01*
X115618091Y-151369553D02*
X115618092Y-151268538D01*
X115567584Y-151117014D01*
X115416061Y-150965492D01*
X115264538Y-150914985D01*
X115113015Y-150965492D01*
X114557431Y-151521076D01*
X114304893Y-149854324D02*
X113446263Y-150712954D01*
X113395756Y-150864477D01*
X113395755Y-150965492D01*
X113446263Y-151117014D01*
X113597786Y-151268538D01*
X113749309Y-151319045D01*
X113648294Y-150510924D02*
X113698802Y-150662446D01*
X113900832Y-150864476D01*
X114052355Y-150914985D01*
X114153370Y-150914984D01*
X114304893Y-150864477D01*
X114607939Y-150561431D01*
X114658446Y-150409908D01*
X114658447Y-150308893D01*
X114607939Y-150157369D01*
X114405908Y-149955339D01*
X114254385Y-149904832D01*
X112739157Y-149601786D02*
X112789665Y-149753309D01*
X112991695Y-149955339D01*
X113143217Y-150005847D01*
X113294740Y-149955340D01*
X113698802Y-149551279D01*
X113749309Y-149399755D01*
X113698802Y-149248232D01*
X113496771Y-149046202D01*
X113345248Y-148995695D01*
X113193725Y-149046202D01*
X113092710Y-149147217D01*
X113496771Y-149753309D01*
X112183573Y-149147217D02*
X112890680Y-148440110D01*
X112688649Y-148642141D02*
X112739157Y-148490619D01*
X112739157Y-148389603D01*
X112688649Y-148238080D01*
X112587634Y-148137065D01*
X185200350Y-151053095D02*
X184139689Y-149992435D01*
X183887151Y-150244973D01*
X183786137Y-150447003D01*
X183786136Y-150649034D01*
X183836644Y-150800557D01*
X183988167Y-151053096D01*
X184139689Y-151204618D01*
X184392228Y-151356141D01*
X184543751Y-151406649D01*
X184745782Y-151406648D01*
X184947811Y-151305633D01*
X185200350Y-151053095D01*
X183685121Y-152568324D02*
X183129537Y-152012740D01*
X183079030Y-151861217D01*
X183129537Y-151709694D01*
X183331567Y-151507663D01*
X183483090Y-151457156D01*
X183634614Y-152517816D02*
X183786136Y-152467308D01*
X184038674Y-152214770D01*
X184089182Y-152063248D01*
X184038675Y-151911725D01*
X183937660Y-151810710D01*
X183786136Y-151760202D01*
X183634614Y-151810710D01*
X183382075Y-152063248D01*
X183230552Y-152113755D01*
X182472938Y-152366293D02*
X183180044Y-153073400D01*
X182573953Y-152467309D02*
X182472938Y-152467308D01*
X182321414Y-152517816D01*
X182169892Y-152669339D01*
X182119385Y-152820862D01*
X182169892Y-152972385D01*
X182725476Y-153527969D01*
X181058724Y-153780507D02*
X181917354Y-154639137D01*
X182068877Y-154689644D01*
X182169892Y-154689645D01*
X182321414Y-154639137D01*
X182472938Y-154487614D01*
X182523445Y-154336091D01*
X181715324Y-154437106D02*
X181866846Y-154386598D01*
X182068876Y-154184568D01*
X182119385Y-154033045D01*
X182119384Y-153932030D01*
X182068877Y-153780507D01*
X181765831Y-153477461D01*
X181614308Y-153426954D01*
X181513293Y-153426953D01*
X181361769Y-153477461D01*
X181159739Y-153679492D01*
X181109232Y-153831015D01*
X180806186Y-155346243D02*
X180957709Y-155295735D01*
X181159739Y-155093705D01*
X181210247Y-154942183D01*
X181159740Y-154790660D01*
X180755679Y-154386598D01*
X180604155Y-154336091D01*
X180452632Y-154386598D01*
X180250602Y-154588629D01*
X180200095Y-154740152D01*
X180250602Y-154891675D01*
X180351617Y-154992690D01*
X180957709Y-154588629D01*
X180351617Y-155901827D02*
X179644510Y-155194720D01*
X179846541Y-155396751D02*
X179695019Y-155346243D01*
X179594003Y-155346243D01*
X179442480Y-155396751D01*
X179341465Y-155497766D01*
X155407656Y-124262571D02*
X155407656Y-122762571D01*
X154836228Y-122762571D01*
X154693370Y-122834000D01*
X154621942Y-122905429D01*
X154550513Y-123048286D01*
X154550513Y-123262571D01*
X154621942Y-123405429D01*
X154693370Y-123476857D01*
X154836228Y-123548286D01*
X155407656Y-123548286D01*
X153907656Y-124262571D02*
X153907656Y-123262571D01*
X153907656Y-123548286D02*
X153836228Y-123405429D01*
X153764799Y-123334000D01*
X153621942Y-123262571D01*
X153479085Y-123262571D01*
X152979085Y-124262571D02*
X152979085Y-123262571D01*
X152979085Y-122762571D02*
X153050514Y-122834000D01*
X152979085Y-122905429D01*
X152907657Y-122834000D01*
X152979085Y-122762571D01*
X152979085Y-122905429D01*
X152264799Y-124262571D02*
X152264799Y-123262571D01*
X152264799Y-123405429D02*
X152193371Y-123334000D01*
X152050513Y-123262571D01*
X151836228Y-123262571D01*
X151693371Y-123334000D01*
X151621942Y-123476857D01*
X151621942Y-124262571D01*
X151621942Y-123476857D02*
X151550513Y-123334000D01*
X151407656Y-123262571D01*
X151193371Y-123262571D01*
X151050513Y-123334000D01*
X150979085Y-123476857D01*
X150979085Y-124262571D01*
X149621942Y-124262571D02*
X149621942Y-123476857D01*
X149693371Y-123334000D01*
X149836228Y-123262571D01*
X150121942Y-123262571D01*
X150264799Y-123334000D01*
X149621942Y-124191143D02*
X149764799Y-124262571D01*
X150121942Y-124262571D01*
X150264799Y-124191143D01*
X150336228Y-124048286D01*
X150336228Y-123905429D01*
X150264799Y-123762571D01*
X150121942Y-123691143D01*
X149764799Y-123691143D01*
X149621942Y-123619714D01*
X148907656Y-124262571D02*
X148907656Y-123262571D01*
X148907656Y-123548286D02*
X148836228Y-123405429D01*
X148764799Y-123334000D01*
X148621942Y-123262571D01*
X148479085Y-123262571D01*
X148121942Y-123262571D02*
X147764799Y-124262571D01*
X147407657Y-123262571D02*
X147764799Y-124262571D01*
X147907657Y-124619714D01*
X147979085Y-124691143D01*
X148121942Y-124762571D01*
X145907657Y-122762571D02*
X145407657Y-124262571D01*
X144907657Y-122762571D01*
X144193371Y-124262571D02*
X144336229Y-124191143D01*
X144407657Y-124119714D01*
X144479086Y-123976857D01*
X144479086Y-123548286D01*
X144407657Y-123405429D01*
X144336229Y-123334000D01*
X144193371Y-123262571D01*
X143979086Y-123262571D01*
X143836229Y-123334000D01*
X143764800Y-123405429D01*
X143693371Y-123548286D01*
X143693371Y-123976857D01*
X143764800Y-124119714D01*
X143836229Y-124191143D01*
X143979086Y-124262571D01*
X144193371Y-124262571D01*
X142836228Y-124262571D02*
X142979086Y-124191143D01*
X143050514Y-124048286D01*
X143050514Y-122762571D01*
X142479086Y-123262571D02*
X141907657Y-123262571D01*
X142264800Y-122762571D02*
X142264800Y-124048286D01*
X142193372Y-124191143D01*
X142050514Y-124262571D01*
X141907657Y-124262571D01*
X140764800Y-124262571D02*
X140764800Y-123476857D01*
X140836229Y-123334000D01*
X140979086Y-123262571D01*
X141264800Y-123262571D01*
X141407657Y-123334000D01*
X140764800Y-124191143D02*
X140907657Y-124262571D01*
X141264800Y-124262571D01*
X141407657Y-124191143D01*
X141479086Y-124048286D01*
X141479086Y-123905429D01*
X141407657Y-123762571D01*
X141264800Y-123691143D01*
X140907657Y-123691143D01*
X140764800Y-123619714D01*
X139407657Y-123262571D02*
X139407657Y-124476857D01*
X139479086Y-124619714D01*
X139550514Y-124691143D01*
X139693371Y-124762571D01*
X139907657Y-124762571D01*
X140050514Y-124691143D01*
X139407657Y-124191143D02*
X139550514Y-124262571D01*
X139836228Y-124262571D01*
X139979086Y-124191143D01*
X140050514Y-124119714D01*
X140121943Y-123976857D01*
X140121943Y-123548286D01*
X140050514Y-123405429D01*
X139979086Y-123334000D01*
X139836228Y-123262571D01*
X139550514Y-123262571D01*
X139407657Y-123334000D01*
X138121943Y-124191143D02*
X138264800Y-124262571D01*
X138550514Y-124262571D01*
X138693371Y-124191143D01*
X138764800Y-124048286D01*
X138764800Y-123476857D01*
X138693371Y-123334000D01*
X138550514Y-123262571D01*
X138264800Y-123262571D01*
X138121943Y-123334000D01*
X138050514Y-123476857D01*
X138050514Y-123619714D01*
X138764800Y-123762571D01*
X136336229Y-123834000D02*
X135621943Y-123834000D01*
X136479086Y-124262571D02*
X135979086Y-122762571D01*
X135479086Y-124262571D01*
X134979086Y-124262571D02*
X134979086Y-123262571D01*
X134979086Y-123548286D02*
X134907658Y-123405429D01*
X134836229Y-123334000D01*
X134693372Y-123262571D01*
X134550515Y-123262571D01*
X133479087Y-124191143D02*
X133621944Y-124262571D01*
X133907658Y-124262571D01*
X134050515Y-124191143D01*
X134121944Y-124048286D01*
X134121944Y-123476857D01*
X134050515Y-123334000D01*
X133907658Y-123262571D01*
X133621944Y-123262571D01*
X133479087Y-123334000D01*
X133407658Y-123476857D01*
X133407658Y-123619714D01*
X134121944Y-123762571D01*
X132121944Y-124262571D02*
X132121944Y-123476857D01*
X132193373Y-123334000D01*
X132336230Y-123262571D01*
X132621944Y-123262571D01*
X132764801Y-123334000D01*
X132121944Y-124191143D02*
X132264801Y-124262571D01*
X132621944Y-124262571D01*
X132764801Y-124191143D01*
X132836230Y-124048286D01*
X132836230Y-123905429D01*
X132764801Y-123762571D01*
X132621944Y-123691143D01*
X132264801Y-123691143D01*
X132121944Y-123619714D01*
X184520105Y-96566550D02*
X185580765Y-95505889D01*
X185328227Y-95253351D01*
X185126197Y-95152337D01*
X184924166Y-95152336D01*
X184772643Y-95202844D01*
X184520104Y-95354367D01*
X184368582Y-95505889D01*
X184217059Y-95758428D01*
X184166551Y-95909951D01*
X184166552Y-96111982D01*
X184267567Y-96314011D01*
X184520105Y-96566550D01*
X183004876Y-95051321D02*
X183560460Y-94495737D01*
X183711983Y-94445230D01*
X183863506Y-94495737D01*
X184065537Y-94697767D01*
X184116044Y-94849290D01*
X183055384Y-95000814D02*
X183105892Y-95152336D01*
X183358430Y-95404874D01*
X183509952Y-95455382D01*
X183661475Y-95404875D01*
X183762490Y-95303860D01*
X183812998Y-95152336D01*
X183762490Y-95000814D01*
X183509952Y-94748275D01*
X183459445Y-94596752D01*
X183206907Y-93839138D02*
X182499800Y-94546244D01*
X183105891Y-93940153D02*
X183105892Y-93839138D01*
X183055384Y-93687614D01*
X182903861Y-93536092D01*
X182752338Y-93485585D01*
X182600815Y-93536092D01*
X182045231Y-94091676D01*
X181792693Y-92424924D02*
X180934063Y-93283554D01*
X180883556Y-93435077D01*
X180883555Y-93536092D01*
X180934063Y-93687614D01*
X181085586Y-93839138D01*
X181237109Y-93889645D01*
X181136094Y-93081524D02*
X181186602Y-93233046D01*
X181388632Y-93435076D01*
X181540155Y-93485585D01*
X181641170Y-93485584D01*
X181792693Y-93435077D01*
X182095739Y-93132031D01*
X182146246Y-92980508D01*
X182146247Y-92879493D01*
X182095739Y-92727969D01*
X181893708Y-92525939D01*
X181742185Y-92475432D01*
X180226957Y-92172386D02*
X180277465Y-92323909D01*
X180479495Y-92525939D01*
X180631017Y-92576447D01*
X180782540Y-92525940D01*
X181186602Y-92121879D01*
X181237109Y-91970355D01*
X181186602Y-91818832D01*
X180984571Y-91616802D01*
X180833048Y-91566295D01*
X180681525Y-91616802D01*
X180580510Y-91717817D01*
X180984571Y-92323909D01*
X179671373Y-91717817D02*
X180378480Y-91010710D01*
X180176449Y-91212741D02*
X180226957Y-91061219D01*
X180226957Y-90960203D01*
X180176449Y-90808680D01*
X180075434Y-90707665D01*
D12*
X186000000Y-157000000D02*
X186000000Y-90000000D01*
X186000000Y-90000000D02*
X119000000Y-90000000D01*
X119000000Y-90000000D02*
X109000000Y-99000000D01*
X109000000Y-99000000D02*
X109000000Y-148000000D01*
X109000000Y-148000000D02*
X119000000Y-157000000D01*
X119000000Y-157000000D02*
X186000000Y-157000000D01*
X197242641Y14000000D02*
G75*
G03X197242641Y14000000I-4242641J0D01*
G01*
D14*
X194714286Y15773810D02*
X194714286Y15297619D01*
X195047619Y16297619D02*
X194714286Y15773810D01*
X194380952Y16297619D01*
X194047619Y15964286D02*
X194047619Y15297619D01*
X194047619Y15869048D02*
X194000000Y15916667D01*
X193904762Y15964286D01*
X193761904Y15964286D01*
X193666666Y15916667D01*
X193619047Y15821429D01*
X193619047Y15297619D01*
X192714285Y15964286D02*
X192714285Y15154762D01*
X192761904Y15059524D01*
X192809523Y15011905D01*
X192904762Y14964286D01*
X193047619Y14964286D01*
X193142857Y15011905D01*
X192714285Y15345238D02*
X192809523Y15297619D01*
X193000000Y15297619D01*
X193095238Y15345238D01*
X193142857Y15392857D01*
X193190476Y15488095D01*
X193190476Y15773810D01*
X193142857Y15869048D01*
X193095238Y15916667D01*
X193000000Y15964286D01*
X192809523Y15964286D01*
X192714285Y15916667D01*
X192333333Y15964286D02*
X192095238Y15297619D01*
X191857142Y15964286D01*
X191095237Y15345238D02*
X191190475Y15297619D01*
X191380952Y15297619D01*
X191476190Y15345238D01*
X191523809Y15440476D01*
X191523809Y15821429D01*
X191476190Y15916667D01*
X191380952Y15964286D01*
X191190475Y15964286D01*
X191095237Y15916667D01*
X191047618Y15821429D01*
X191047618Y15726190D01*
X191523809Y15630952D01*
X194238095Y14214286D02*
X194047619Y13547619D01*
X193857142Y14023810D01*
X193666666Y13547619D01*
X193476190Y14214286D01*
X192666666Y13547619D02*
X192666666Y14071429D01*
X192714285Y14166667D01*
X192809523Y14214286D01*
X193000000Y14214286D01*
X193095238Y14166667D01*
X192666666Y13595238D02*
X192761904Y13547619D01*
X193000000Y13547619D01*
X193095238Y13595238D01*
X193142857Y13690476D01*
X193142857Y13785714D01*
X193095238Y13880952D01*
X193000000Y13928571D01*
X192761904Y13928571D01*
X192666666Y13976190D01*
X192238095Y13595238D02*
X192142857Y13547619D01*
X191952381Y13547619D01*
X191857142Y13595238D01*
X191809523Y13690476D01*
X191809523Y13738095D01*
X191857142Y13833333D01*
X191952381Y13880952D01*
X192095238Y13880952D01*
X192190476Y13928571D01*
X192238095Y14023810D01*
X192238095Y14071429D01*
X192190476Y14166667D01*
X192095238Y14214286D01*
X191952381Y14214286D01*
X191857142Y14166667D01*
X194380953Y11797619D02*
X194380953Y12797619D01*
X193952381Y11797619D02*
X193952381Y12321429D01*
X194000000Y12416667D01*
X194095238Y12464286D01*
X194238096Y12464286D01*
X194333334Y12416667D01*
X194380953Y12369048D01*
X193095238Y11845238D02*
X193190476Y11797619D01*
X193380953Y11797619D01*
X193476191Y11845238D01*
X193523810Y11940476D01*
X193523810Y12321429D01*
X193476191Y12416667D01*
X193380953Y12464286D01*
X193190476Y12464286D01*
X193095238Y12416667D01*
X193047619Y12321429D01*
X193047619Y12226190D01*
X193523810Y12130952D01*
X192619048Y11797619D02*
X192619048Y12464286D01*
X192619048Y12273810D02*
X192571429Y12369048D01*
X192523810Y12416667D01*
X192428572Y12464286D01*
X192333333Y12464286D01*
X191619047Y11845238D02*
X191714285Y11797619D01*
X191904762Y11797619D01*
X192000000Y11845238D01*
X192047619Y11940476D01*
X192047619Y12321429D01*
X192000000Y12416667D01*
X191904762Y12464286D01*
X191714285Y12464286D01*
X191619047Y12416667D01*
X191571428Y12321429D01*
X191571428Y12226190D01*
X192047619Y12130952D01*
D15*
X78081043Y48548642D02*
X77272921Y47740520D01*
X74343479Y44811078D02*
X73535357Y44002956D01*
X74343479Y44002957D02*
X73535357Y44811079D01*
X85616782Y52276106D02*
X85111705Y51771030D01*
X86020842Y52074076D02*
X84606629Y52781183D01*
X85313736Y51366969D01*
X83798507Y51265954D02*
X84505614Y50558847D01*
X84253075Y51720523D02*
X84808660Y51164938D01*
X84859168Y51013416D01*
X84808659Y50861893D01*
X84657137Y50710370D01*
X84505614Y50659863D01*
X84404599Y50659863D01*
X84101552Y50154786D02*
X82838862Y50306309D01*
X83394446Y50861893D02*
X83545969Y49599202D01*
X82333785Y48387019D02*
X81273125Y49447679D01*
X81020587Y49195141D01*
X80919573Y48993111D01*
X80919572Y48791080D01*
X80970080Y48639557D01*
X81121603Y48387018D01*
X81273125Y48235496D01*
X81525664Y48083973D01*
X81677187Y48033465D01*
X81879218Y48033466D01*
X82081247Y48134481D01*
X82333785Y48387019D01*
X80566018Y46821282D02*
X80667034Y46821282D01*
X80869065Y46922298D01*
X80970080Y47023313D01*
X81071095Y47225343D01*
X81071096Y47427374D01*
X81020588Y47578896D01*
X80869065Y47831435D01*
X80717542Y47982958D01*
X80465003Y48134481D01*
X80313481Y48184989D01*
X80111450Y48184988D01*
X79909420Y48083974D01*
X79808404Y47982958D01*
X79707389Y47780927D01*
X79707389Y47679912D01*
X79808404Y46669759D02*
X79000282Y45861637D01*
X78394190Y44447424D02*
X78899267Y44952500D01*
X77838606Y46013160D01*
X78040637Y44093870D02*
X77333530Y44800977D01*
X76979977Y45154531D02*
X77080992Y45154531D01*
X77080992Y45053515D01*
X76979977Y45053515D01*
X76979977Y45154531D01*
X77080992Y45053515D01*
X76828454Y44295901D02*
X77535560Y43588794D01*
X76929469Y44194885D02*
X76828454Y44194886D01*
X76676930Y44144378D01*
X76525408Y43992855D01*
X76474901Y43841332D01*
X76525408Y43689809D01*
X77080992Y43134225D01*
X76575915Y42629149D02*
X75515255Y43689809D01*
X76070840Y42932194D02*
X76171855Y42225088D01*
X75464748Y42932195D02*
X76272870Y42932194D01*
X74909164Y41063412D02*
X74808148Y40861382D01*
X74555610Y40608844D01*
X74404088Y40558336D01*
X74303072Y40558336D01*
X74151549Y40608844D01*
X74050534Y40709859D01*
X74000026Y40861381D01*
X74000026Y40962397D01*
X74050534Y41113920D01*
X74202057Y41366458D01*
X74252565Y41517981D01*
X74252565Y41618996D01*
X74202057Y41770519D01*
X74101042Y41871534D01*
X73949519Y41922041D01*
X73848504Y41922042D01*
X73696980Y41871534D01*
X73444443Y41618997D01*
X73343428Y41416966D01*
X72737336Y40204783D02*
X73444443Y39497676D01*
X73191904Y40659352D02*
X73747489Y40103767D01*
X73797997Y39952245D01*
X73747488Y39800722D01*
X73595966Y39649199D01*
X73444443Y39598692D01*
X73343428Y39598692D01*
X72232259Y39699707D02*
X73292920Y38639047D01*
X72282767Y39649199D02*
X72131244Y39598692D01*
X71929214Y39396661D01*
X71878707Y39245138D01*
X71878707Y39144122D01*
X71929214Y38992599D01*
X72232259Y38689554D01*
X72383783Y38639047D01*
X72484798Y38639047D01*
X72636321Y38689554D01*
X72838351Y38891585D01*
X72888859Y39043107D01*
X71272614Y38740062D02*
X72333275Y37679401D01*
X71323122Y38689554D02*
X71171599Y38639047D01*
X70969569Y38437016D01*
X70919062Y38285493D01*
X70919062Y38184477D01*
X70969569Y38032954D01*
X71272614Y37729909D01*
X71424137Y37679401D01*
X71525153Y37679401D01*
X71676676Y37729909D01*
X71878706Y37931940D01*
X71929214Y38083462D01*
X70868553Y36921787D02*
X70919062Y37073310D01*
X70868554Y37224832D01*
X69959416Y38133970D01*
X69858401Y37325848D02*
X70312969Y36366203D01*
X69353325Y36820772D02*
X70312969Y36366203D01*
X70666523Y36214681D01*
X70767539Y36214680D01*
X70919061Y36265188D01*
D11*
X148261899Y-10226190D02*
X148261899Y-9726190D01*
X148095233Y-9892857D02*
X147904757Y-9892857D01*
X148023804Y-9726190D02*
X148023804Y-10154762D01*
X147999995Y-10202381D01*
X147952376Y-10226190D01*
X147904757Y-10226190D01*
X147142853Y-9892857D02*
X147142853Y-10297619D01*
X147166662Y-10345238D01*
X147190472Y-10369048D01*
X147238091Y-10392857D01*
X147309519Y-10392857D01*
X147357138Y-10369048D01*
X147142853Y-10202381D02*
X147190472Y-10226190D01*
X147285710Y-10226190D01*
X147333329Y-10202381D01*
X147357138Y-10178571D01*
X147380948Y-10130952D01*
X147380948Y-9988095D01*
X147357138Y-9940476D01*
X147333329Y-9916667D01*
X147285710Y-9892857D01*
X147190472Y-9892857D01*
X147142853Y-9916667D01*
X146904757Y-10226190D02*
X146904757Y-9892857D01*
X146904757Y-9726190D02*
X146928567Y-9750000D01*
X146904757Y-9773810D01*
X146880948Y-9750000D01*
X146904757Y-9726190D01*
X146904757Y-9773810D01*
X146714281Y-9892857D02*
X146595234Y-10226190D01*
X146476186Y-9892857D01*
X146095234Y-10202381D02*
X146142853Y-10226190D01*
X146238091Y-10226190D01*
X146285710Y-10202381D01*
X146309520Y-10154762D01*
X146309520Y-9964286D01*
X146285710Y-9916667D01*
X146238091Y-9892857D01*
X146142853Y-9892857D01*
X146095234Y-9916667D01*
X146071425Y-9964286D01*
X146071425Y-10011905D01*
X146309520Y-10059524D01*
X145880949Y-10202381D02*
X145833330Y-10226190D01*
X145738092Y-10226190D01*
X145690473Y-10202381D01*
X145666663Y-10154762D01*
X145666663Y-10130952D01*
X145690473Y-10083333D01*
X145738092Y-10059524D01*
X145809520Y-10059524D01*
X145857139Y-10035714D01*
X145880949Y-9988095D01*
X145880949Y-9964286D01*
X145857139Y-9916667D01*
X145809520Y-9892857D01*
X145738092Y-9892857D01*
X145690473Y-9916667D01*
X145071425Y-10226190D02*
X145071425Y-9892857D01*
X145071425Y-9940476D02*
X145047616Y-9916667D01*
X144999997Y-9892857D01*
X144928568Y-9892857D01*
X144880949Y-9916667D01*
X144857140Y-9964286D01*
X144857140Y-10226190D01*
X144857140Y-9964286D02*
X144833330Y-9916667D01*
X144785711Y-9892857D01*
X144714283Y-9892857D01*
X144666663Y-9916667D01*
X144642854Y-9964286D01*
X144642854Y-10226190D01*
X144214282Y-10202381D02*
X144261901Y-10226190D01*
X144357139Y-10226190D01*
X144404758Y-10202381D01*
X144428568Y-10154762D01*
X144428568Y-9964286D01*
X144404758Y-9916667D01*
X144357139Y-9892857D01*
X144261901Y-9892857D01*
X144214282Y-9916667D01*
X144190473Y-9964286D01*
X144190473Y-10011905D01*
X144428568Y-10059524D01*
X143380950Y-10226190D02*
X143380950Y-9964286D01*
X143404759Y-9916667D01*
X143452378Y-9892857D01*
X143547616Y-9892857D01*
X143595235Y-9916667D01*
X143380950Y-10202381D02*
X143428569Y-10226190D01*
X143547616Y-10226190D01*
X143595235Y-10202381D01*
X143619045Y-10154762D01*
X143619045Y-10107143D01*
X143595235Y-10059524D01*
X143547616Y-10035714D01*
X143428569Y-10035714D01*
X143380950Y-10011905D01*
X142761902Y-10226190D02*
X142761902Y-9726190D01*
X142547617Y-10226190D02*
X142547617Y-9964286D01*
X142571426Y-9916667D01*
X142619045Y-9892857D01*
X142690474Y-9892857D01*
X142738093Y-9916667D01*
X142761902Y-9940476D01*
X142119045Y-10202381D02*
X142166664Y-10226190D01*
X142261902Y-10226190D01*
X142309521Y-10202381D01*
X142333331Y-10154762D01*
X142333331Y-9964286D01*
X142309521Y-9916667D01*
X142261902Y-9892857D01*
X142166664Y-9892857D01*
X142119045Y-9916667D01*
X142095236Y-9964286D01*
X142095236Y-10011905D01*
X142333331Y-10059524D01*
X141666665Y-10226190D02*
X141666665Y-9964286D01*
X141690474Y-9916667D01*
X141738093Y-9892857D01*
X141833331Y-9892857D01*
X141880950Y-9916667D01*
X141666665Y-10202381D02*
X141714284Y-10226190D01*
X141833331Y-10226190D01*
X141880950Y-10202381D01*
X141904760Y-10154762D01*
X141904760Y-10107143D01*
X141880950Y-10059524D01*
X141833331Y-10035714D01*
X141714284Y-10035714D01*
X141666665Y-10011905D01*
X141214284Y-10226190D02*
X141214284Y-9726190D01*
X141214284Y-10202381D02*
X141261903Y-10226190D01*
X141357141Y-10226190D01*
X141404760Y-10202381D01*
X141428569Y-10178571D01*
X141452379Y-10130952D01*
X141452379Y-9988095D01*
X141428569Y-9940476D01*
X141404760Y-9916667D01*
X141357141Y-9892857D01*
X141261903Y-9892857D01*
X141214284Y-9916667D01*
X140761903Y-10226190D02*
X140761903Y-9964286D01*
X140785712Y-9916667D01*
X140833331Y-9892857D01*
X140928569Y-9892857D01*
X140976188Y-9916667D01*
X140761903Y-10202381D02*
X140809522Y-10226190D01*
X140928569Y-10226190D01*
X140976188Y-10202381D01*
X140999998Y-10154762D01*
X140999998Y-10107143D01*
X140976188Y-10059524D01*
X140928569Y-10035714D01*
X140809522Y-10035714D01*
X140761903Y-10011905D01*
X140309522Y-10202381D02*
X140357141Y-10226190D01*
X140452379Y-10226190D01*
X140499998Y-10202381D01*
X140523807Y-10178571D01*
X140547617Y-10130952D01*
X140547617Y-9988095D01*
X140523807Y-9940476D01*
X140499998Y-9916667D01*
X140452379Y-9892857D01*
X140357141Y-9892857D01*
X140309522Y-9916667D01*
X140095236Y-10226190D02*
X140095236Y-9726190D01*
X139880951Y-10226190D02*
X139880951Y-9964286D01*
X139904760Y-9916667D01*
X139952379Y-9892857D01*
X140023808Y-9892857D01*
X140071427Y-9916667D01*
X140095236Y-9940476D01*
X139452379Y-10202381D02*
X139499998Y-10226190D01*
X139595236Y-10226190D01*
X139642855Y-10202381D01*
X139666665Y-10154762D01*
X139666665Y-9964286D01*
X139642855Y-9916667D01*
X139595236Y-9892857D01*
X139499998Y-9892857D01*
X139452379Y-9916667D01*
X139428570Y-9964286D01*
X139428570Y-10011905D01*
X139666665Y-10059524D01*
X138833332Y-9892857D02*
X138833332Y-10321429D01*
X138857142Y-10369048D01*
X138904761Y-10392857D01*
X138928570Y-10392857D01*
X138833332Y-9726190D02*
X138857142Y-9750000D01*
X138833332Y-9773810D01*
X138809523Y-9750000D01*
X138833332Y-9726190D01*
X138833332Y-9773810D01*
X138380952Y-9892857D02*
X138380952Y-10226190D01*
X138595237Y-9892857D02*
X138595237Y-10154762D01*
X138571428Y-10202381D01*
X138523809Y-10226190D01*
X138452380Y-10226190D01*
X138404761Y-10202381D01*
X138380952Y-10178571D01*
X138166666Y-10202381D02*
X138119047Y-10226190D01*
X138023809Y-10226190D01*
X137976190Y-10202381D01*
X137952380Y-10154762D01*
X137952380Y-10130952D01*
X137976190Y-10083333D01*
X138023809Y-10059524D01*
X138095237Y-10059524D01*
X138142856Y-10035714D01*
X138166666Y-9988095D01*
X138166666Y-9964286D01*
X138142856Y-9916667D01*
X138095237Y-9892857D01*
X138023809Y-9892857D01*
X137976190Y-9916667D01*
X137809523Y-9892857D02*
X137619047Y-9892857D01*
X137738094Y-9726190D02*
X137738094Y-10154762D01*
X137714285Y-10202381D01*
X137666666Y-10226190D01*
X137619047Y-10226190D01*
X137142857Y-9892857D02*
X136952381Y-9892857D01*
X137071428Y-9726190D02*
X137071428Y-10154762D01*
X137047619Y-10202381D01*
X137000000Y-10226190D01*
X136952381Y-10226190D01*
X136785714Y-10226190D02*
X136785714Y-9892857D01*
X136785714Y-9988095D02*
X136761905Y-9940476D01*
X136738095Y-9916667D01*
X136690476Y-9892857D01*
X136642857Y-9892857D01*
X136523809Y-9892857D02*
X136404762Y-10226190D01*
X136285714Y-9892857D02*
X136404762Y-10226190D01*
X136452381Y-10345238D01*
X136476190Y-10369048D01*
X136523809Y-10392857D01*
X136095238Y-10226190D02*
X136095238Y-9892857D01*
X136095238Y-9726190D02*
X136119048Y-9750000D01*
X136095238Y-9773810D01*
X136071429Y-9750000D01*
X136095238Y-9726190D01*
X136095238Y-9773810D01*
X135857143Y-9892857D02*
X135857143Y-10226190D01*
X135857143Y-9940476D02*
X135833334Y-9916667D01*
X135785715Y-9892857D01*
X135714286Y-9892857D01*
X135666667Y-9916667D01*
X135642858Y-9964286D01*
X135642858Y-10226190D01*
X135190477Y-9892857D02*
X135190477Y-10297619D01*
X135214286Y-10345238D01*
X135238096Y-10369048D01*
X135285715Y-10392857D01*
X135357143Y-10392857D01*
X135404762Y-10369048D01*
X135190477Y-10202381D02*
X135238096Y-10226190D01*
X135333334Y-10226190D01*
X135380953Y-10202381D01*
X135404762Y-10178571D01*
X135428572Y-10130952D01*
X135428572Y-9988095D01*
X135404762Y-9940476D01*
X135380953Y-9916667D01*
X135333334Y-9892857D01*
X135238096Y-9892857D01*
X135190477Y-9916667D01*
X134642858Y-9892857D02*
X134452382Y-9892857D01*
X134571429Y-9726190D02*
X134571429Y-10154762D01*
X134547620Y-10202381D01*
X134500001Y-10226190D01*
X134452382Y-10226190D01*
X134214287Y-10226190D02*
X134261906Y-10202381D01*
X134285715Y-10178571D01*
X134309525Y-10130952D01*
X134309525Y-9988095D01*
X134285715Y-9940476D01*
X134261906Y-9916667D01*
X134214287Y-9892857D01*
X134142858Y-9892857D01*
X134095239Y-9916667D01*
X134071430Y-9940476D01*
X134047620Y-9988095D01*
X134047620Y-10130952D01*
X134071430Y-10178571D01*
X134095239Y-10202381D01*
X134142858Y-10226190D01*
X134214287Y-10226190D01*
X133523811Y-9892857D02*
X133333335Y-9892857D01*
X133452382Y-9726190D02*
X133452382Y-10154762D01*
X133428573Y-10202381D01*
X133380954Y-10226190D01*
X133333335Y-10226190D01*
X133166668Y-10226190D02*
X133166668Y-9726190D01*
X132952383Y-10226190D02*
X132952383Y-9964286D01*
X132976192Y-9916667D01*
X133023811Y-9892857D01*
X133095240Y-9892857D01*
X133142859Y-9916667D01*
X133166668Y-9940476D01*
X132714287Y-10226190D02*
X132714287Y-9892857D01*
X132714287Y-9726190D02*
X132738097Y-9750000D01*
X132714287Y-9773810D01*
X132690478Y-9750000D01*
X132714287Y-9726190D01*
X132714287Y-9773810D01*
X132476192Y-9892857D02*
X132476192Y-10226190D01*
X132476192Y-9940476D02*
X132452383Y-9916667D01*
X132404764Y-9892857D01*
X132333335Y-9892857D01*
X132285716Y-9916667D01*
X132261907Y-9964286D01*
X132261907Y-10226190D01*
X132023811Y-10226190D02*
X132023811Y-9726190D01*
X131976192Y-10035714D02*
X131833335Y-10226190D01*
X131833335Y-9892857D02*
X132023811Y-10083333D01*
X131023812Y-10226190D02*
X131023812Y-9726190D01*
X131023812Y-10202381D02*
X131071431Y-10226190D01*
X131166669Y-10226190D01*
X131214288Y-10202381D01*
X131238097Y-10178571D01*
X131261907Y-10130952D01*
X131261907Y-9988095D01*
X131238097Y-9940476D01*
X131214288Y-9916667D01*
X131166669Y-9892857D01*
X131071431Y-9892857D01*
X131023812Y-9916667D01*
X130714288Y-10226190D02*
X130761907Y-10202381D01*
X130785716Y-10178571D01*
X130809526Y-10130952D01*
X130809526Y-9988095D01*
X130785716Y-9940476D01*
X130761907Y-9916667D01*
X130714288Y-9892857D01*
X130642859Y-9892857D01*
X130595240Y-9916667D01*
X130571431Y-9940476D01*
X130547621Y-9988095D01*
X130547621Y-10130952D01*
X130571431Y-10178571D01*
X130595240Y-10202381D01*
X130642859Y-10226190D01*
X130714288Y-10226190D01*
X130380954Y-9892857D02*
X130285716Y-10226190D01*
X130190478Y-9988095D01*
X130095240Y-10226190D01*
X130000002Y-9892857D01*
X129809525Y-9892857D02*
X129809525Y-10226190D01*
X129809525Y-9940476D02*
X129785716Y-9916667D01*
X129738097Y-9892857D01*
X129666668Y-9892857D01*
X129619049Y-9916667D01*
X129595240Y-9964286D01*
X129595240Y-10226190D01*
X129047621Y-9892857D02*
X128857145Y-9892857D01*
X128976192Y-9726190D02*
X128976192Y-10154762D01*
X128952383Y-10202381D01*
X128904764Y-10226190D01*
X128857145Y-10226190D01*
X128619050Y-10226190D02*
X128666669Y-10202381D01*
X128690478Y-10178571D01*
X128714288Y-10130952D01*
X128714288Y-9988095D01*
X128690478Y-9940476D01*
X128666669Y-9916667D01*
X128619050Y-9892857D01*
X128547621Y-9892857D01*
X128500002Y-9916667D01*
X128476193Y-9940476D01*
X128452383Y-9988095D01*
X128452383Y-10130952D01*
X128476193Y-10178571D01*
X128500002Y-10202381D01*
X128547621Y-10226190D01*
X128619050Y-10226190D01*
X127904764Y-9892857D02*
X127785717Y-10226190D01*
X127666669Y-9892857D02*
X127785717Y-10226190D01*
X127833336Y-10345238D01*
X127857145Y-10369048D01*
X127904764Y-10392857D01*
X127404765Y-10226190D02*
X127452384Y-10202381D01*
X127476193Y-10178571D01*
X127500003Y-10130952D01*
X127500003Y-9988095D01*
X127476193Y-9940476D01*
X127452384Y-9916667D01*
X127404765Y-9892857D01*
X127333336Y-9892857D01*
X127285717Y-9916667D01*
X127261908Y-9940476D01*
X127238098Y-9988095D01*
X127238098Y-10130952D01*
X127261908Y-10178571D01*
X127285717Y-10202381D01*
X127333336Y-10226190D01*
X127404765Y-10226190D01*
X126809527Y-9892857D02*
X126809527Y-10226190D01*
X127023812Y-9892857D02*
X127023812Y-10154762D01*
X127000003Y-10202381D01*
X126952384Y-10226190D01*
X126880955Y-10226190D01*
X126833336Y-10202381D01*
X126809527Y-10178571D01*
X126571431Y-10226190D02*
X126571431Y-9892857D01*
X126571431Y-9988095D02*
X126547622Y-9940476D01*
X126523812Y-9916667D01*
X126476193Y-9892857D01*
X126428574Y-9892857D01*
X125809527Y-10226190D02*
X125857146Y-10202381D01*
X125880955Y-10154762D01*
X125880955Y-9726190D01*
X125428574Y-10202381D02*
X125476193Y-10226190D01*
X125571431Y-10226190D01*
X125619050Y-10202381D01*
X125642860Y-10154762D01*
X125642860Y-9964286D01*
X125619050Y-9916667D01*
X125571431Y-9892857D01*
X125476193Y-9892857D01*
X125428574Y-9916667D01*
X125404765Y-9964286D01*
X125404765Y-10011905D01*
X125642860Y-10059524D01*
X125238098Y-9892857D02*
X125119051Y-10226190D01*
X125000003Y-9892857D01*
X124619051Y-10202381D02*
X124666670Y-10226190D01*
X124761908Y-10226190D01*
X124809527Y-10202381D01*
X124833337Y-10154762D01*
X124833337Y-9964286D01*
X124809527Y-9916667D01*
X124761908Y-9892857D01*
X124666670Y-9892857D01*
X124619051Y-9916667D01*
X124595242Y-9964286D01*
X124595242Y-10011905D01*
X124833337Y-10059524D01*
X124309528Y-10226190D02*
X124357147Y-10202381D01*
X124380956Y-10154762D01*
X124380956Y-9726190D01*
X124119051Y-10178571D02*
X124095242Y-10202381D01*
X124119051Y-10226190D01*
X124142861Y-10202381D01*
X124119051Y-10178571D01*
X124119051Y-10226190D01*
D16*
X41507600Y-66386200D02*
X41507600Y-68386200D01*
X39467600Y-68386200D02*
X39467600Y-66386200D01*
X26940000Y-74164000D02*
X28940000Y-74164000D01*
X28940000Y-76204000D02*
X26940000Y-76204000D01*
X93976000Y-29956000D02*
X93976000Y-27956000D01*
X96016000Y-27956000D02*
X96016000Y-29956000D01*
X70100000Y-29702000D02*
X70100000Y-27702000D01*
X72140000Y-27702000D02*
X72140000Y-29702000D01*
X45716000Y-29702000D02*
X45716000Y-27702000D01*
X47756000Y-27702000D02*
X47756000Y-29702000D01*
X31296000Y-38084000D02*
X31296000Y-36084000D01*
X29156000Y-36084000D02*
X29156000Y-38084000D01*
X56442000Y-38846000D02*
X56442000Y-36846000D01*
X54302000Y-36846000D02*
X54302000Y-38846000D01*
X84636000Y-38973000D02*
X84636000Y-36973000D01*
X82496000Y-36973000D02*
X82496000Y-38973000D01*
X50346000Y-29702000D02*
X50346000Y-27702000D01*
X48206000Y-27702000D02*
X48206000Y-29702000D01*
X45666000Y-38624000D02*
X45666000Y-40624000D01*
X47806000Y-40624000D02*
X47806000Y-38624000D01*
X74730000Y-29702000D02*
X74730000Y-27702000D01*
X72590000Y-27702000D02*
X72590000Y-29702000D01*
X70050000Y-38624000D02*
X70050000Y-40624000D01*
X72190000Y-40624000D02*
X72190000Y-38624000D01*
X98606000Y-29956000D02*
X98606000Y-27956000D01*
X96466000Y-27956000D02*
X96466000Y-29956000D01*
X93926000Y-38878000D02*
X93926000Y-40878000D01*
X96066000Y-40878000D02*
X96066000Y-38878000D01*
X32204000Y-36084000D02*
X32204000Y-38084000D01*
X34344000Y-38084000D02*
X34344000Y-36084000D01*
X57350000Y-36846000D02*
X57350000Y-38846000D01*
X59490000Y-38846000D02*
X59490000Y-36846000D01*
X78940000Y-36973000D02*
X78940000Y-38973000D01*
X81080000Y-38973000D02*
X81080000Y-36973000D01*
X56588000Y-79518000D02*
X56588000Y-81518000D01*
X58728000Y-81518000D02*
X58728000Y-79518000D01*
X61668000Y-79518000D02*
X61668000Y-81518000D01*
X63808000Y-81518000D02*
X63808000Y-79518000D01*
X66748000Y-79518000D02*
X66748000Y-81518000D01*
X68888000Y-81518000D02*
X68888000Y-79518000D01*
X37430200Y-80343400D02*
X39430200Y-80343400D01*
X39430200Y-78203400D02*
X37430200Y-78203400D01*
X93526000Y-76692000D02*
X93526000Y-74692000D01*
X91386000Y-74692000D02*
X91386000Y-76692000D01*
X34977000Y-80838000D02*
X34977000Y-82738000D01*
X34977000Y-82738000D02*
X30277000Y-82738000D01*
X34977000Y-80838000D02*
X30277000Y-80838000D01*
X96191000Y-81346000D02*
X96191000Y-83246000D01*
X96191000Y-83246000D02*
X91491000Y-83246000D01*
X96191000Y-81346000D02*
X91491000Y-81346000D01*
X52630000Y-81346000D02*
X52630000Y-83246000D01*
X52630000Y-83246000D02*
X47930000Y-83246000D01*
X52630000Y-81346000D02*
X47930000Y-81346000D01*
X46466000Y-78178000D02*
X44466000Y-78178000D01*
X44466000Y-80318000D02*
X46466000Y-80318000D01*
X131801000Y-76196000D02*
X131801000Y-78196000D01*
X129761000Y-78196000D02*
X129761000Y-76196000D01*
X133761000Y-78196000D02*
X133761000Y-76196000D01*
X135801000Y-76196000D02*
X135801000Y-78196000D01*
X236781000Y-43176000D02*
X238781000Y-43176000D01*
X238781000Y-45216000D02*
X236781000Y-45216000D01*
X238781000Y-41216000D02*
X236781000Y-41216000D01*
X236781000Y-39176000D02*
X238781000Y-39176000D01*
X236781000Y-67176000D02*
X238781000Y-67176000D01*
X238781000Y-69216000D02*
X236781000Y-69216000D01*
X238781000Y-65216000D02*
X236781000Y-65216000D01*
X236781000Y-63176000D02*
X238781000Y-63176000D01*
X125711000Y-76196000D02*
X125711000Y-78196000D01*
X127851000Y-78196000D02*
X127851000Y-76196000D01*
X236781000Y-49266000D02*
X238781000Y-49266000D01*
X238781000Y-47126000D02*
X236781000Y-47126000D01*
X236781000Y-73266000D02*
X238781000Y-73266000D01*
X238781000Y-71126000D02*
X236781000Y-71126000D01*
X93670000Y-96790000D02*
X96330000Y-96790000D01*
X93670000Y-101930000D02*
X93670000Y-96790000D01*
X96330000Y-101930000D02*
X96330000Y-96790000D01*
X93670000Y-101930000D02*
X96330000Y-101930000D01*
X93670000Y-103200000D02*
X93670000Y-104530000D01*
X93670000Y-104530000D02*
X95000000Y-104530000D01*
X23670000Y-96810000D02*
X26330000Y-96810000D01*
X23670000Y-119730000D02*
X23670000Y-96810000D01*
X26330000Y-119730000D02*
X26330000Y-96810000D01*
X23670000Y-119730000D02*
X26330000Y-119730000D01*
X23670000Y-121000000D02*
X23670000Y-122330000D01*
X23670000Y-122330000D02*
X25000000Y-122330000D01*
X85200000Y-102270000D02*
X87200000Y-102270000D01*
X87200000Y-100130000D02*
X85200000Y-100130000D01*
X85200000Y-105270000D02*
X87200000Y-105270000D01*
X87200000Y-103130000D02*
X85200000Y-103130000D01*
X223581000Y-132224000D02*
X221581000Y-132224000D01*
X221581000Y-130184000D02*
X223581000Y-130184000D01*
X231074000Y-132224000D02*
X229074000Y-132224000D01*
X229074000Y-130184000D02*
X231074000Y-130184000D01*
X223847000Y-123402900D02*
X223847000Y-121402900D01*
X225887000Y-121402900D02*
X225887000Y-123402900D01*
X226464000Y-105185000D02*
X226464000Y-107185000D01*
X228604000Y-107185000D02*
X228604000Y-105185000D01*
X203731000Y-126775000D02*
X203731000Y-128775000D01*
X205871000Y-128775000D02*
X205871000Y-126775000D01*
X224216000Y-111592000D02*
X222216000Y-111592000D01*
X222216000Y-113732000D02*
X224216000Y-113732000D01*
X230782000Y-105185000D02*
X230782000Y-107185000D01*
X232922000Y-107185000D02*
X232922000Y-105185000D01*
X109492000Y-3366000D02*
X109492000Y13254000D01*
X100672000Y-3366000D02*
X100672000Y13254000D01*
X109492000Y-3366000D02*
X106378000Y-3366000D01*
X103786000Y-3366000D02*
X100672000Y-3366000D01*
X109492000Y13254000D02*
X106378000Y13254000D01*
X103786000Y13254000D02*
X100672000Y13254000D01*
X109492000Y15176000D02*
X109492000Y31796000D01*
X100672000Y15176000D02*
X100672000Y31796000D01*
X109492000Y15176000D02*
X106378000Y15176000D01*
X103786000Y15176000D02*
X100672000Y15176000D01*
X109492000Y31796000D02*
X106378000Y31796000D01*
X103786000Y31796000D02*
X100672000Y31796000D01*
X109492000Y34480000D02*
X109492000Y51100000D01*
X100672000Y34480000D02*
X100672000Y51100000D01*
X109492000Y34480000D02*
X106378000Y34480000D01*
X103786000Y34480000D02*
X100672000Y34480000D01*
X109492000Y51100000D02*
X106378000Y51100000D01*
X103786000Y51100000D02*
X100672000Y51100000D01*
X177067000Y34823000D02*
X181687000Y34823000D01*
X181687000Y34823000D02*
X181687000Y22803000D01*
X181687000Y22803000D02*
X177067000Y22803000D01*
X177067000Y22803000D02*
X177067000Y34823000D01*
X179377000Y35053000D02*
X179377000Y34823000D01*
X179377000Y22573000D02*
X179377000Y22803000D01*
X83897000Y23311000D02*
X79277000Y23311000D01*
X79277000Y23311000D02*
X79277000Y35331000D01*
X79277000Y35331000D02*
X83897000Y35331000D01*
X83897000Y35331000D02*
X83897000Y23311000D01*
X81587000Y23081000D02*
X81587000Y23311000D01*
X81587000Y35561000D02*
X81587000Y35331000D01*
X98646000Y59063000D02*
X98646000Y54443000D01*
X98646000Y54443000D02*
X86626000Y54443000D01*
X86626000Y54443000D02*
X86626000Y59063000D01*
X86626000Y59063000D02*
X98646000Y59063000D01*
X98876000Y56753000D02*
X98646000Y56753000D01*
X86396000Y56753000D02*
X86626000Y56753000D01*
D17*
X69909140Y44114776D02*
X61310721Y52713194D01*
X61310721Y52713194D02*
X69909140Y61311613D01*
X69909140Y61311613D02*
X78507558Y52713194D01*
X78507558Y52713194D02*
X69909140Y44114776D01*
X62371382Y51652534D02*
X63644174Y50379742D01*
X63644174Y50379742D02*
X72242592Y58978160D01*
X72242592Y58978160D02*
X70969800Y60250952D01*
X70969800Y60250952D02*
X62371382Y51652534D01*
X63135057Y54537530D02*
X64549270Y55951743D01*
X64549270Y55951743D02*
X65433154Y54714306D01*
X65433154Y54714306D02*
X64372494Y53653646D01*
X64372494Y53653646D02*
X63135057Y54537530D01*
X66670591Y58073063D02*
X68084804Y59487277D01*
X68084804Y59487277D02*
X68968688Y58249840D01*
X68968688Y58249840D02*
X67908028Y57189180D01*
X67908028Y57189180D02*
X66670591Y58073063D01*
X72737567Y46349233D02*
X73373963Y46137101D01*
X73373963Y46137101D02*
X72949699Y45712837D01*
X72949699Y45712837D02*
X72737567Y46349233D01*
X42594743Y-67219534D02*
X42642362Y-67171915D01*
X42689981Y-67029058D01*
X42689981Y-66933820D01*
X42642362Y-66790962D01*
X42547124Y-66695724D01*
X42451886Y-66648105D01*
X42261410Y-66600486D01*
X42118552Y-66600486D01*
X41928076Y-66648105D01*
X41832838Y-66695724D01*
X41737600Y-66790962D01*
X41689981Y-66933820D01*
X41689981Y-67029058D01*
X41737600Y-67171915D01*
X41785219Y-67219534D01*
X41689981Y-68124296D02*
X41689981Y-67648105D01*
X42166171Y-67600486D01*
X42118552Y-67648105D01*
X42070933Y-67743343D01*
X42070933Y-67981439D01*
X42118552Y-68076677D01*
X42166171Y-68124296D01*
X42261410Y-68171915D01*
X42499505Y-68171915D01*
X42594743Y-68124296D01*
X42642362Y-68076677D01*
X42689981Y-67981439D01*
X42689981Y-67743343D01*
X42642362Y-67648105D01*
X42594743Y-67600486D01*
X28106666Y-73791143D02*
X28154285Y-73838762D01*
X28297142Y-73886381D01*
X28392380Y-73886381D01*
X28535238Y-73838762D01*
X28630476Y-73743524D01*
X28678095Y-73648286D01*
X28725714Y-73457810D01*
X28725714Y-73314952D01*
X28678095Y-73124476D01*
X28630476Y-73029238D01*
X28535238Y-72934000D01*
X28392380Y-72886381D01*
X28297142Y-72886381D01*
X28154285Y-72934000D01*
X28106666Y-72981619D01*
X27249523Y-73219714D02*
X27249523Y-73886381D01*
X27487619Y-72838762D02*
X27725714Y-73553048D01*
X27106666Y-73553048D01*
X93603143Y-28789334D02*
X93650762Y-28741715D01*
X93698381Y-28598858D01*
X93698381Y-28503620D01*
X93650762Y-28360762D01*
X93555524Y-28265524D01*
X93460286Y-28217905D01*
X93269810Y-28170286D01*
X93126952Y-28170286D01*
X92936476Y-28217905D01*
X92841238Y-28265524D01*
X92746000Y-28360762D01*
X92698381Y-28503620D01*
X92698381Y-28598858D01*
X92746000Y-28741715D01*
X92793619Y-28789334D01*
X92698381Y-29122667D02*
X92698381Y-29741715D01*
X93079333Y-29408381D01*
X93079333Y-29551239D01*
X93126952Y-29646477D01*
X93174571Y-29694096D01*
X93269810Y-29741715D01*
X93507905Y-29741715D01*
X93603143Y-29694096D01*
X93650762Y-29646477D01*
X93698381Y-29551239D01*
X93698381Y-29265524D01*
X93650762Y-29170286D01*
X93603143Y-29122667D01*
X69727143Y-28535334D02*
X69774762Y-28487715D01*
X69822381Y-28344858D01*
X69822381Y-28249620D01*
X69774762Y-28106762D01*
X69679524Y-28011524D01*
X69584286Y-27963905D01*
X69393810Y-27916286D01*
X69250952Y-27916286D01*
X69060476Y-27963905D01*
X68965238Y-28011524D01*
X68870000Y-28106762D01*
X68822381Y-28249620D01*
X68822381Y-28344858D01*
X68870000Y-28487715D01*
X68917619Y-28535334D01*
X68917619Y-28916286D02*
X68870000Y-28963905D01*
X68822381Y-29059143D01*
X68822381Y-29297239D01*
X68870000Y-29392477D01*
X68917619Y-29440096D01*
X69012857Y-29487715D01*
X69108095Y-29487715D01*
X69250952Y-29440096D01*
X69822381Y-28868667D01*
X69822381Y-29487715D01*
X45343143Y-28535334D02*
X45390762Y-28487715D01*
X45438381Y-28344858D01*
X45438381Y-28249620D01*
X45390762Y-28106762D01*
X45295524Y-28011524D01*
X45200286Y-27963905D01*
X45009810Y-27916286D01*
X44866952Y-27916286D01*
X44676476Y-27963905D01*
X44581238Y-28011524D01*
X44486000Y-28106762D01*
X44438381Y-28249620D01*
X44438381Y-28344858D01*
X44486000Y-28487715D01*
X44533619Y-28535334D01*
X45438381Y-29487715D02*
X45438381Y-28916286D01*
X45438381Y-29202000D02*
X44438381Y-29202000D01*
X44581238Y-29106762D01*
X44676476Y-29011524D01*
X44724095Y-28916286D01*
X28828381Y-36917334D02*
X28352190Y-36584000D01*
X28828381Y-36345905D02*
X27828381Y-36345905D01*
X27828381Y-36726858D01*
X27876000Y-36822096D01*
X27923619Y-36869715D01*
X28018857Y-36917334D01*
X28161714Y-36917334D01*
X28256952Y-36869715D01*
X28304571Y-36822096D01*
X28352190Y-36726858D01*
X28352190Y-36345905D01*
X28828381Y-37869715D02*
X28828381Y-37298286D01*
X28828381Y-37584000D02*
X27828381Y-37584000D01*
X27971238Y-37488762D01*
X28066476Y-37393524D01*
X28114095Y-37298286D01*
X53792381Y-37679334D02*
X53316190Y-37346000D01*
X53792381Y-37107905D02*
X52792381Y-37107905D01*
X52792381Y-37488858D01*
X52840000Y-37584096D01*
X52887619Y-37631715D01*
X52982857Y-37679334D01*
X53125714Y-37679334D01*
X53220952Y-37631715D01*
X53268571Y-37584096D01*
X53316190Y-37488858D01*
X53316190Y-37107905D01*
X52887619Y-38060286D02*
X52840000Y-38107905D01*
X52792381Y-38203143D01*
X52792381Y-38441239D01*
X52840000Y-38536477D01*
X52887619Y-38584096D01*
X52982857Y-38631715D01*
X53078095Y-38631715D01*
X53220952Y-38584096D01*
X53792381Y-38012667D01*
X53792381Y-38631715D01*
X86177381Y-37806334D02*
X85701190Y-37473000D01*
X86177381Y-37234905D02*
X85177381Y-37234905D01*
X85177381Y-37615858D01*
X85225000Y-37711096D01*
X85272619Y-37758715D01*
X85367857Y-37806334D01*
X85510714Y-37806334D01*
X85605952Y-37758715D01*
X85653571Y-37711096D01*
X85701190Y-37615858D01*
X85701190Y-37234905D01*
X85177381Y-38139667D02*
X85177381Y-38758715D01*
X85558333Y-38425381D01*
X85558333Y-38568239D01*
X85605952Y-38663477D01*
X85653571Y-38711096D01*
X85748810Y-38758715D01*
X85986905Y-38758715D01*
X86082143Y-38711096D01*
X86129762Y-38663477D01*
X86177381Y-38568239D01*
X86177381Y-38282524D01*
X86129762Y-38187286D01*
X86082143Y-38139667D01*
X51760381Y-28535334D02*
X51284190Y-28202000D01*
X51760381Y-27963905D02*
X50760381Y-27963905D01*
X50760381Y-28344858D01*
X50808000Y-28440096D01*
X50855619Y-28487715D01*
X50950857Y-28535334D01*
X51093714Y-28535334D01*
X51188952Y-28487715D01*
X51236571Y-28440096D01*
X51284190Y-28344858D01*
X51284190Y-27963905D01*
X51093714Y-29392477D02*
X51760381Y-29392477D01*
X50712762Y-29154381D02*
X51427048Y-28916286D01*
X51427048Y-29535334D01*
X49038381Y-39457334D02*
X48562190Y-39124000D01*
X49038381Y-38885905D02*
X48038381Y-38885905D01*
X48038381Y-39266858D01*
X48086000Y-39362096D01*
X48133619Y-39409715D01*
X48228857Y-39457334D01*
X48371714Y-39457334D01*
X48466952Y-39409715D01*
X48514571Y-39362096D01*
X48562190Y-39266858D01*
X48562190Y-38885905D01*
X48038381Y-40362096D02*
X48038381Y-39885905D01*
X48514571Y-39838286D01*
X48466952Y-39885905D01*
X48419333Y-39981143D01*
X48419333Y-40219239D01*
X48466952Y-40314477D01*
X48514571Y-40362096D01*
X48609810Y-40409715D01*
X48847905Y-40409715D01*
X48943143Y-40362096D01*
X48990762Y-40314477D01*
X49038381Y-40219239D01*
X49038381Y-39981143D01*
X48990762Y-39885905D01*
X48943143Y-39838286D01*
X76144381Y-28535334D02*
X75668190Y-28202000D01*
X76144381Y-27963905D02*
X75144381Y-27963905D01*
X75144381Y-28344858D01*
X75192000Y-28440096D01*
X75239619Y-28487715D01*
X75334857Y-28535334D01*
X75477714Y-28535334D01*
X75572952Y-28487715D01*
X75620571Y-28440096D01*
X75668190Y-28344858D01*
X75668190Y-27963905D01*
X75144381Y-29392477D02*
X75144381Y-29202000D01*
X75192000Y-29106762D01*
X75239619Y-29059143D01*
X75382476Y-28963905D01*
X75572952Y-28916286D01*
X75953905Y-28916286D01*
X76049143Y-28963905D01*
X76096762Y-29011524D01*
X76144381Y-29106762D01*
X76144381Y-29297239D01*
X76096762Y-29392477D01*
X76049143Y-29440096D01*
X75953905Y-29487715D01*
X75715810Y-29487715D01*
X75620571Y-29440096D01*
X75572952Y-29392477D01*
X75525333Y-29297239D01*
X75525333Y-29106762D01*
X75572952Y-29011524D01*
X75620571Y-28963905D01*
X75715810Y-28916286D01*
X73604381Y-39457334D02*
X73128190Y-39124000D01*
X73604381Y-38885905D02*
X72604381Y-38885905D01*
X72604381Y-39266858D01*
X72652000Y-39362096D01*
X72699619Y-39409715D01*
X72794857Y-39457334D01*
X72937714Y-39457334D01*
X73032952Y-39409715D01*
X73080571Y-39362096D01*
X73128190Y-39266858D01*
X73128190Y-38885905D01*
X72604381Y-39790667D02*
X72604381Y-40457334D01*
X73604381Y-40028762D01*
X100020381Y-28789334D02*
X99544190Y-28456000D01*
X100020381Y-28217905D02*
X99020381Y-28217905D01*
X99020381Y-28598858D01*
X99068000Y-28694096D01*
X99115619Y-28741715D01*
X99210857Y-28789334D01*
X99353714Y-28789334D01*
X99448952Y-28741715D01*
X99496571Y-28694096D01*
X99544190Y-28598858D01*
X99544190Y-28217905D01*
X99448952Y-29360762D02*
X99401333Y-29265524D01*
X99353714Y-29217905D01*
X99258476Y-29170286D01*
X99210857Y-29170286D01*
X99115619Y-29217905D01*
X99068000Y-29265524D01*
X99020381Y-29360762D01*
X99020381Y-29551239D01*
X99068000Y-29646477D01*
X99115619Y-29694096D01*
X99210857Y-29741715D01*
X99258476Y-29741715D01*
X99353714Y-29694096D01*
X99401333Y-29646477D01*
X99448952Y-29551239D01*
X99448952Y-29360762D01*
X99496571Y-29265524D01*
X99544190Y-29217905D01*
X99639429Y-29170286D01*
X99829905Y-29170286D01*
X99925143Y-29217905D01*
X99972762Y-29265524D01*
X100020381Y-29360762D01*
X100020381Y-29551239D01*
X99972762Y-29646477D01*
X99925143Y-29694096D01*
X99829905Y-29741715D01*
X99639429Y-29741715D01*
X99544190Y-29694096D01*
X99496571Y-29646477D01*
X99448952Y-29551239D01*
X97298381Y-39711334D02*
X96822190Y-39378000D01*
X97298381Y-39139905D02*
X96298381Y-39139905D01*
X96298381Y-39520858D01*
X96346000Y-39616096D01*
X96393619Y-39663715D01*
X96488857Y-39711334D01*
X96631714Y-39711334D01*
X96726952Y-39663715D01*
X96774571Y-39616096D01*
X96822190Y-39520858D01*
X96822190Y-39139905D01*
X97298381Y-40187524D02*
X97298381Y-40378000D01*
X97250762Y-40473239D01*
X97203143Y-40520858D01*
X97060286Y-40616096D01*
X96869810Y-40663715D01*
X96488857Y-40663715D01*
X96393619Y-40616096D01*
X96346000Y-40568477D01*
X96298381Y-40473239D01*
X96298381Y-40282762D01*
X96346000Y-40187524D01*
X96393619Y-40139905D01*
X96488857Y-40092286D01*
X96726952Y-40092286D01*
X96822190Y-40139905D01*
X96869810Y-40187524D01*
X96917429Y-40282762D01*
X96917429Y-40473239D01*
X96869810Y-40568477D01*
X96822190Y-40616096D01*
X96726952Y-40663715D01*
X35576381Y-36441143D02*
X35100190Y-36107809D01*
X35576381Y-35869714D02*
X34576381Y-35869714D01*
X34576381Y-36250667D01*
X34624000Y-36345905D01*
X34671619Y-36393524D01*
X34766857Y-36441143D01*
X34909714Y-36441143D01*
X35004952Y-36393524D01*
X35052571Y-36345905D01*
X35100190Y-36250667D01*
X35100190Y-35869714D01*
X35576381Y-37393524D02*
X35576381Y-36822095D01*
X35576381Y-37107809D02*
X34576381Y-37107809D01*
X34719238Y-37012571D01*
X34814476Y-36917333D01*
X34862095Y-36822095D01*
X34576381Y-38012571D02*
X34576381Y-38107810D01*
X34624000Y-38203048D01*
X34671619Y-38250667D01*
X34766857Y-38298286D01*
X34957333Y-38345905D01*
X35195429Y-38345905D01*
X35385905Y-38298286D01*
X35481143Y-38250667D01*
X35528762Y-38203048D01*
X35576381Y-38107810D01*
X35576381Y-38012571D01*
X35528762Y-37917333D01*
X35481143Y-37869714D01*
X35385905Y-37822095D01*
X35195429Y-37774476D01*
X34957333Y-37774476D01*
X34766857Y-37822095D01*
X34671619Y-37869714D01*
X34624000Y-37917333D01*
X34576381Y-38012571D01*
X60904381Y-37203143D02*
X60428190Y-36869809D01*
X60904381Y-36631714D02*
X59904381Y-36631714D01*
X59904381Y-37012667D01*
X59952000Y-37107905D01*
X59999619Y-37155524D01*
X60094857Y-37203143D01*
X60237714Y-37203143D01*
X60332952Y-37155524D01*
X60380571Y-37107905D01*
X60428190Y-37012667D01*
X60428190Y-36631714D01*
X60904381Y-38155524D02*
X60904381Y-37584095D01*
X60904381Y-37869809D02*
X59904381Y-37869809D01*
X60047238Y-37774571D01*
X60142476Y-37679333D01*
X60190095Y-37584095D01*
X60904381Y-39107905D02*
X60904381Y-38536476D01*
X60904381Y-38822190D02*
X59904381Y-38822190D01*
X60047238Y-38726952D01*
X60142476Y-38631714D01*
X60190095Y-38536476D01*
X78049381Y-37330143D02*
X77573190Y-36996809D01*
X78049381Y-36758714D02*
X77049381Y-36758714D01*
X77049381Y-37139667D01*
X77097000Y-37234905D01*
X77144619Y-37282524D01*
X77239857Y-37330143D01*
X77382714Y-37330143D01*
X77477952Y-37282524D01*
X77525571Y-37234905D01*
X77573190Y-37139667D01*
X77573190Y-36758714D01*
X78049381Y-38282524D02*
X78049381Y-37711095D01*
X78049381Y-37996809D02*
X77049381Y-37996809D01*
X77192238Y-37901571D01*
X77287476Y-37806333D01*
X77335095Y-37711095D01*
X77144619Y-38663476D02*
X77097000Y-38711095D01*
X77049381Y-38806333D01*
X77049381Y-39044429D01*
X77097000Y-39139667D01*
X77144619Y-39187286D01*
X77239857Y-39234905D01*
X77335095Y-39234905D01*
X77477952Y-39187286D01*
X78049381Y-38615857D01*
X78049381Y-39234905D01*
X59960381Y-79875143D02*
X59484190Y-79541809D01*
X59960381Y-79303714D02*
X58960381Y-79303714D01*
X58960381Y-79684667D01*
X59008000Y-79779905D01*
X59055619Y-79827524D01*
X59150857Y-79875143D01*
X59293714Y-79875143D01*
X59388952Y-79827524D01*
X59436571Y-79779905D01*
X59484190Y-79684667D01*
X59484190Y-79303714D01*
X59960381Y-80827524D02*
X59960381Y-80256095D01*
X59960381Y-80541809D02*
X58960381Y-80541809D01*
X59103238Y-80446571D01*
X59198476Y-80351333D01*
X59246095Y-80256095D01*
X58960381Y-81160857D02*
X58960381Y-81779905D01*
X59341333Y-81446571D01*
X59341333Y-81589429D01*
X59388952Y-81684667D01*
X59436571Y-81732286D01*
X59531810Y-81779905D01*
X59769905Y-81779905D01*
X59865143Y-81732286D01*
X59912762Y-81684667D01*
X59960381Y-81589429D01*
X59960381Y-81303714D01*
X59912762Y-81208476D01*
X59865143Y-81160857D01*
X65040381Y-79875143D02*
X64564190Y-79541809D01*
X65040381Y-79303714D02*
X64040381Y-79303714D01*
X64040381Y-79684667D01*
X64088000Y-79779905D01*
X64135619Y-79827524D01*
X64230857Y-79875143D01*
X64373714Y-79875143D01*
X64468952Y-79827524D01*
X64516571Y-79779905D01*
X64564190Y-79684667D01*
X64564190Y-79303714D01*
X65040381Y-80827524D02*
X65040381Y-80256095D01*
X65040381Y-80541809D02*
X64040381Y-80541809D01*
X64183238Y-80446571D01*
X64278476Y-80351333D01*
X64326095Y-80256095D01*
X64373714Y-81684667D02*
X65040381Y-81684667D01*
X63992762Y-81446571D02*
X64707048Y-81208476D01*
X64707048Y-81827524D01*
X70120381Y-79875143D02*
X69644190Y-79541809D01*
X70120381Y-79303714D02*
X69120381Y-79303714D01*
X69120381Y-79684667D01*
X69168000Y-79779905D01*
X69215619Y-79827524D01*
X69310857Y-79875143D01*
X69453714Y-79875143D01*
X69548952Y-79827524D01*
X69596571Y-79779905D01*
X69644190Y-79684667D01*
X69644190Y-79303714D01*
X70120381Y-80827524D02*
X70120381Y-80256095D01*
X70120381Y-80541809D02*
X69120381Y-80541809D01*
X69263238Y-80446571D01*
X69358476Y-80351333D01*
X69406095Y-80256095D01*
X69120381Y-81732286D02*
X69120381Y-81256095D01*
X69596571Y-81208476D01*
X69548952Y-81256095D01*
X69501333Y-81351333D01*
X69501333Y-81589429D01*
X69548952Y-81684667D01*
X69596571Y-81732286D01*
X69691810Y-81779905D01*
X69929905Y-81779905D01*
X70025143Y-81732286D01*
X70072762Y-81684667D01*
X70120381Y-81589429D01*
X70120381Y-81351333D01*
X70072762Y-81256095D01*
X70025143Y-81208476D01*
X39073057Y-77875781D02*
X39406391Y-77399590D01*
X39644486Y-77875781D02*
X39644486Y-76875781D01*
X39263533Y-76875781D01*
X39168295Y-76923400D01*
X39120676Y-76971019D01*
X39073057Y-77066257D01*
X39073057Y-77209114D01*
X39120676Y-77304352D01*
X39168295Y-77351971D01*
X39263533Y-77399590D01*
X39644486Y-77399590D01*
X38120676Y-77875781D02*
X38692105Y-77875781D01*
X38406391Y-77875781D02*
X38406391Y-76875781D01*
X38501629Y-77018638D01*
X38596867Y-77113876D01*
X38692105Y-77161495D01*
X37263533Y-76875781D02*
X37454010Y-76875781D01*
X37549248Y-76923400D01*
X37596867Y-76971019D01*
X37692105Y-77113876D01*
X37739724Y-77304352D01*
X37739724Y-77685305D01*
X37692105Y-77780543D01*
X37644486Y-77828162D01*
X37549248Y-77875781D01*
X37358771Y-77875781D01*
X37263533Y-77828162D01*
X37215914Y-77780543D01*
X37168295Y-77685305D01*
X37168295Y-77447210D01*
X37215914Y-77351971D01*
X37263533Y-77304352D01*
X37358771Y-77256733D01*
X37549248Y-77256733D01*
X37644486Y-77304352D01*
X37692105Y-77351971D01*
X37739724Y-77447210D01*
X91058381Y-75049143D02*
X90582190Y-74715809D01*
X91058381Y-74477714D02*
X90058381Y-74477714D01*
X90058381Y-74858667D01*
X90106000Y-74953905D01*
X90153619Y-75001524D01*
X90248857Y-75049143D01*
X90391714Y-75049143D01*
X90486952Y-75001524D01*
X90534571Y-74953905D01*
X90582190Y-74858667D01*
X90582190Y-74477714D01*
X91058381Y-76001524D02*
X91058381Y-75430095D01*
X91058381Y-75715809D02*
X90058381Y-75715809D01*
X90201238Y-75620571D01*
X90296476Y-75525333D01*
X90344095Y-75430095D01*
X90058381Y-76334857D02*
X90058381Y-77001524D01*
X91058381Y-76572952D01*
X32615095Y-80390381D02*
X32615095Y-79390381D01*
X32377000Y-79390381D01*
X32234142Y-79438000D01*
X32138904Y-79533238D01*
X32091285Y-79628476D01*
X32043666Y-79818952D01*
X32043666Y-79961810D01*
X32091285Y-80152286D01*
X32138904Y-80247524D01*
X32234142Y-80342762D01*
X32377000Y-80390381D01*
X32615095Y-80390381D01*
X31091285Y-80390381D02*
X31662714Y-80390381D01*
X31377000Y-80390381D02*
X31377000Y-79390381D01*
X31472238Y-79533238D01*
X31567476Y-79628476D01*
X31662714Y-79676095D01*
X93829095Y-80898381D02*
X93829095Y-79898381D01*
X93591000Y-79898381D01*
X93448142Y-79946000D01*
X93352904Y-80041238D01*
X93305285Y-80136476D01*
X93257666Y-80326952D01*
X93257666Y-80469810D01*
X93305285Y-80660286D01*
X93352904Y-80755524D01*
X93448142Y-80850762D01*
X93591000Y-80898381D01*
X93829095Y-80898381D01*
X92876714Y-79993619D02*
X92829095Y-79946000D01*
X92733857Y-79898381D01*
X92495761Y-79898381D01*
X92400523Y-79946000D01*
X92352904Y-79993619D01*
X92305285Y-80088857D01*
X92305285Y-80184095D01*
X92352904Y-80326952D01*
X92924333Y-80898381D01*
X92305285Y-80898381D01*
X50268095Y-80970381D02*
X50268095Y-79970381D01*
X50030000Y-79970381D01*
X49887142Y-80018000D01*
X49791904Y-80113238D01*
X49744285Y-80208476D01*
X49696666Y-80398952D01*
X49696666Y-80541810D01*
X49744285Y-80732286D01*
X49791904Y-80827524D01*
X49887142Y-80922762D01*
X50030000Y-80970381D01*
X50268095Y-80970381D01*
X49363333Y-79970381D02*
X48744285Y-79970381D01*
X49077619Y-80351333D01*
X48934761Y-80351333D01*
X48839523Y-80398952D01*
X48791904Y-80446571D01*
X48744285Y-80541810D01*
X48744285Y-80779905D01*
X48791904Y-80875143D01*
X48839523Y-80922762D01*
X48934761Y-80970381D01*
X49220476Y-80970381D01*
X49315714Y-80922762D01*
X49363333Y-80875143D01*
X46108857Y-77668381D02*
X46442191Y-77192190D01*
X46680286Y-77668381D02*
X46680286Y-76668381D01*
X46299333Y-76668381D01*
X46204095Y-76716000D01*
X46156476Y-76763619D01*
X46108857Y-76858857D01*
X46108857Y-77001714D01*
X46156476Y-77096952D01*
X46204095Y-77144571D01*
X46299333Y-77192190D01*
X46680286Y-77192190D01*
X45156476Y-77668381D02*
X45727905Y-77668381D01*
X45442191Y-77668381D02*
X45442191Y-76668381D01*
X45537429Y-76811238D01*
X45632667Y-76906476D01*
X45727905Y-76954095D01*
X44585048Y-77096952D02*
X44680286Y-77049333D01*
X44727905Y-77001714D01*
X44775524Y-76906476D01*
X44775524Y-76858857D01*
X44727905Y-76763619D01*
X44680286Y-76716000D01*
X44585048Y-76668381D01*
X44394571Y-76668381D01*
X44299333Y-76716000D01*
X44251714Y-76763619D01*
X44204095Y-76858857D01*
X44204095Y-76906476D01*
X44251714Y-77001714D01*
X44299333Y-77049333D01*
X44394571Y-77096952D01*
X44585048Y-77096952D01*
X44680286Y-77144571D01*
X44727905Y-77192190D01*
X44775524Y-77287429D01*
X44775524Y-77477905D01*
X44727905Y-77573143D01*
X44680286Y-77620762D01*
X44585048Y-77668381D01*
X44394571Y-77668381D01*
X44299333Y-77620762D01*
X44251714Y-77573143D01*
X44204095Y-77477905D01*
X44204095Y-77287429D01*
X44251714Y-77192190D01*
X44299333Y-77144571D01*
X44394571Y-77096952D01*
X132888143Y-77029334D02*
X132935762Y-76981715D01*
X132983381Y-76838858D01*
X132983381Y-76743620D01*
X132935762Y-76600762D01*
X132840524Y-76505524D01*
X132745286Y-76457905D01*
X132554810Y-76410286D01*
X132411952Y-76410286D01*
X132221476Y-76457905D01*
X132126238Y-76505524D01*
X132031000Y-76600762D01*
X131983381Y-76743620D01*
X131983381Y-76838858D01*
X132031000Y-76981715D01*
X132078619Y-77029334D01*
X132983381Y-77981715D02*
X132983381Y-77410286D01*
X132983381Y-77696000D02*
X131983381Y-77696000D01*
X132126238Y-77600762D01*
X132221476Y-77505524D01*
X132269095Y-77410286D01*
X137390143Y-77049334D02*
X137437762Y-77001715D01*
X137485381Y-76858858D01*
X137485381Y-76763620D01*
X137437762Y-76620762D01*
X137342524Y-76525524D01*
X137247286Y-76477905D01*
X137056810Y-76430286D01*
X136913952Y-76430286D01*
X136723476Y-76477905D01*
X136628238Y-76525524D01*
X136533000Y-76620762D01*
X136485381Y-76763620D01*
X136485381Y-76858858D01*
X136533000Y-77001715D01*
X136580619Y-77049334D01*
X136580619Y-77430286D02*
X136533000Y-77477905D01*
X136485381Y-77573143D01*
X136485381Y-77811239D01*
X136533000Y-77906477D01*
X136580619Y-77954096D01*
X136675857Y-78001715D01*
X136771095Y-78001715D01*
X136913952Y-77954096D01*
X137485381Y-77382667D01*
X137485381Y-78001715D01*
X237947666Y-42803143D02*
X237995285Y-42850762D01*
X238138142Y-42898381D01*
X238233380Y-42898381D01*
X238376238Y-42850762D01*
X238471476Y-42755524D01*
X238519095Y-42660286D01*
X238566714Y-42469810D01*
X238566714Y-42326952D01*
X238519095Y-42136476D01*
X238471476Y-42041238D01*
X238376238Y-41946000D01*
X238233380Y-41898381D01*
X238138142Y-41898381D01*
X237995285Y-41946000D01*
X237947666Y-41993619D01*
X237614333Y-41898381D02*
X236995285Y-41898381D01*
X237328619Y-42279333D01*
X237185761Y-42279333D01*
X237090523Y-42326952D01*
X237042904Y-42374571D01*
X236995285Y-42469810D01*
X236995285Y-42707905D01*
X237042904Y-42803143D01*
X237090523Y-42850762D01*
X237185761Y-42898381D01*
X237471476Y-42898381D01*
X237566714Y-42850762D01*
X237614333Y-42803143D01*
X237910666Y-38457143D02*
X237958285Y-38504762D01*
X238101142Y-38552381D01*
X238196380Y-38552381D01*
X238339238Y-38504762D01*
X238434476Y-38409524D01*
X238482095Y-38314286D01*
X238529714Y-38123810D01*
X238529714Y-37980952D01*
X238482095Y-37790476D01*
X238434476Y-37695238D01*
X238339238Y-37600000D01*
X238196380Y-37552381D01*
X238101142Y-37552381D01*
X237958285Y-37600000D01*
X237910666Y-37647619D01*
X237053523Y-37885714D02*
X237053523Y-38552381D01*
X237291619Y-37504762D02*
X237529714Y-38219048D01*
X236910666Y-38219048D01*
X237910666Y-66778143D02*
X237958285Y-66825762D01*
X238101142Y-66873381D01*
X238196380Y-66873381D01*
X238339238Y-66825762D01*
X238434476Y-66730524D01*
X238482095Y-66635286D01*
X238529714Y-66444810D01*
X238529714Y-66301952D01*
X238482095Y-66111476D01*
X238434476Y-66016238D01*
X238339238Y-65921000D01*
X238196380Y-65873381D01*
X238101142Y-65873381D01*
X237958285Y-65921000D01*
X237910666Y-65968619D01*
X237005904Y-65873381D02*
X237482095Y-65873381D01*
X237529714Y-66349571D01*
X237482095Y-66301952D01*
X237386857Y-66254333D01*
X237148761Y-66254333D01*
X237053523Y-66301952D01*
X237005904Y-66349571D01*
X236958285Y-66444810D01*
X236958285Y-66682905D01*
X237005904Y-66778143D01*
X237053523Y-66825762D01*
X237148761Y-66873381D01*
X237386857Y-66873381D01*
X237482095Y-66825762D01*
X237529714Y-66778143D01*
X238037666Y-62333143D02*
X238085285Y-62380762D01*
X238228142Y-62428381D01*
X238323380Y-62428381D01*
X238466238Y-62380762D01*
X238561476Y-62285524D01*
X238609095Y-62190286D01*
X238656714Y-61999810D01*
X238656714Y-61856952D01*
X238609095Y-61666476D01*
X238561476Y-61571238D01*
X238466238Y-61476000D01*
X238323380Y-61428381D01*
X238228142Y-61428381D01*
X238085285Y-61476000D01*
X238037666Y-61523619D01*
X237180523Y-61428381D02*
X237371000Y-61428381D01*
X237466238Y-61476000D01*
X237513857Y-61523619D01*
X237609095Y-61666476D01*
X237656714Y-61856952D01*
X237656714Y-62237905D01*
X237609095Y-62333143D01*
X237561476Y-62380762D01*
X237466238Y-62428381D01*
X237275761Y-62428381D01*
X237180523Y-62380762D01*
X237132904Y-62333143D01*
X237085285Y-62237905D01*
X237085285Y-61999810D01*
X237132904Y-61904571D01*
X237180523Y-61856952D01*
X237275761Y-61809333D01*
X237466238Y-61809333D01*
X237561476Y-61856952D01*
X237609095Y-61904571D01*
X237656714Y-61999810D01*
X129230381Y-77049334D02*
X128754190Y-76716000D01*
X129230381Y-76477905D02*
X128230381Y-76477905D01*
X128230381Y-76858858D01*
X128278000Y-76954096D01*
X128325619Y-77001715D01*
X128420857Y-77049334D01*
X128563714Y-77049334D01*
X128658952Y-77001715D01*
X128706571Y-76954096D01*
X128754190Y-76858858D01*
X128754190Y-76477905D01*
X129230381Y-78001715D02*
X129230381Y-77430286D01*
X129230381Y-77716000D02*
X128230381Y-77716000D01*
X128373238Y-77620762D01*
X128468476Y-77525524D01*
X128516095Y-77430286D01*
X237910666Y-46680381D02*
X238244000Y-46204190D01*
X238482095Y-46680381D02*
X238482095Y-45680381D01*
X238101142Y-45680381D01*
X238005904Y-45728000D01*
X237958285Y-45775619D01*
X237910666Y-45870857D01*
X237910666Y-46013714D01*
X237958285Y-46108952D01*
X238005904Y-46156571D01*
X238101142Y-46204190D01*
X238482095Y-46204190D01*
X237529714Y-45775619D02*
X237482095Y-45728000D01*
X237386857Y-45680381D01*
X237148761Y-45680381D01*
X237053523Y-45728000D01*
X237005904Y-45775619D01*
X236958285Y-45870857D01*
X236958285Y-45966095D01*
X237005904Y-46108952D01*
X237577333Y-46680381D01*
X236958285Y-46680381D01*
X238037666Y-70810381D02*
X238371000Y-70334190D01*
X238609095Y-70810381D02*
X238609095Y-69810381D01*
X238228142Y-69810381D01*
X238132904Y-69858000D01*
X238085285Y-69905619D01*
X238037666Y-70000857D01*
X238037666Y-70143714D01*
X238085285Y-70238952D01*
X238132904Y-70286571D01*
X238228142Y-70334190D01*
X238609095Y-70334190D01*
X237704333Y-69810381D02*
X237085285Y-69810381D01*
X237418619Y-70191333D01*
X237275761Y-70191333D01*
X237180523Y-70238952D01*
X237132904Y-70286571D01*
X237085285Y-70381810D01*
X237085285Y-70619905D01*
X237132904Y-70715143D01*
X237180523Y-70762762D01*
X237275761Y-70810381D01*
X237561476Y-70810381D01*
X237656714Y-70762762D01*
X237704333Y-70715143D01*
X92333333Y-104202381D02*
X92333333Y-104916667D01*
X92380953Y-105059524D01*
X92476191Y-105154762D01*
X92619048Y-105202381D01*
X92714286Y-105202381D01*
X91428571Y-104535714D02*
X91428571Y-105202381D01*
X91666667Y-104154762D02*
X91904762Y-104869048D01*
X91285714Y-104869048D01*
X25333333Y-122782381D02*
X25333333Y-123496667D01*
X25380953Y-123639524D01*
X25476191Y-123734762D01*
X25619048Y-123782381D01*
X25714286Y-123782381D01*
X24333333Y-123782381D02*
X24904762Y-123782381D01*
X24619048Y-123782381D02*
X24619048Y-122782381D01*
X24714286Y-122925238D01*
X24809524Y-123020476D01*
X24904762Y-123068095D01*
X86366666Y-99802381D02*
X86700000Y-99326190D01*
X86938095Y-99802381D02*
X86938095Y-98802381D01*
X86557142Y-98802381D01*
X86461904Y-98850000D01*
X86414285Y-98897619D01*
X86366666Y-98992857D01*
X86366666Y-99135714D01*
X86414285Y-99230952D01*
X86461904Y-99278571D01*
X86557142Y-99326190D01*
X86938095Y-99326190D01*
X85509523Y-99135714D02*
X85509523Y-99802381D01*
X85747619Y-98754762D02*
X85985714Y-99469048D01*
X85366666Y-99469048D01*
X86434166Y-106728381D02*
X86767500Y-106252190D01*
X87005595Y-106728381D02*
X87005595Y-105728381D01*
X86624642Y-105728381D01*
X86529404Y-105776000D01*
X86481785Y-105823619D01*
X86434166Y-105918857D01*
X86434166Y-106061714D01*
X86481785Y-106156952D01*
X86529404Y-106204571D01*
X86624642Y-106252190D01*
X87005595Y-106252190D01*
X85529404Y-105728381D02*
X86005595Y-105728381D01*
X86053214Y-106204571D01*
X86005595Y-106156952D01*
X85910357Y-106109333D01*
X85672261Y-106109333D01*
X85577023Y-106156952D01*
X85529404Y-106204571D01*
X85481785Y-106299810D01*
X85481785Y-106537905D01*
X85529404Y-106633143D01*
X85577023Y-106680762D01*
X85672261Y-106728381D01*
X85910357Y-106728381D01*
X86005595Y-106680762D01*
X86053214Y-106633143D01*
X222747666Y-133311143D02*
X222795285Y-133358762D01*
X222938142Y-133406381D01*
X223033380Y-133406381D01*
X223176238Y-133358762D01*
X223271476Y-133263524D01*
X223319095Y-133168286D01*
X223366714Y-132977810D01*
X223366714Y-132834952D01*
X223319095Y-132644476D01*
X223271476Y-132549238D01*
X223176238Y-132454000D01*
X223033380Y-132406381D01*
X222938142Y-132406381D01*
X222795285Y-132454000D01*
X222747666Y-132501619D01*
X221795285Y-133406381D02*
X222366714Y-133406381D01*
X222081000Y-133406381D02*
X222081000Y-132406381D01*
X222176238Y-132549238D01*
X222271476Y-132644476D01*
X222366714Y-132692095D01*
X230240666Y-133311143D02*
X230288285Y-133358762D01*
X230431142Y-133406381D01*
X230526380Y-133406381D01*
X230669238Y-133358762D01*
X230764476Y-133263524D01*
X230812095Y-133168286D01*
X230859714Y-132977810D01*
X230859714Y-132834952D01*
X230812095Y-132644476D01*
X230764476Y-132549238D01*
X230669238Y-132454000D01*
X230526380Y-132406381D01*
X230431142Y-132406381D01*
X230288285Y-132454000D01*
X230240666Y-132501619D01*
X229859714Y-132501619D02*
X229812095Y-132454000D01*
X229716857Y-132406381D01*
X229478761Y-132406381D01*
X229383523Y-132454000D01*
X229335904Y-132501619D01*
X229288285Y-132596857D01*
X229288285Y-132692095D01*
X229335904Y-132834952D01*
X229907333Y-133406381D01*
X229288285Y-133406381D01*
X223474143Y-122236234D02*
X223521762Y-122188615D01*
X223569381Y-122045758D01*
X223569381Y-121950520D01*
X223521762Y-121807662D01*
X223426524Y-121712424D01*
X223331286Y-121664805D01*
X223140810Y-121617186D01*
X222997952Y-121617186D01*
X222807476Y-121664805D01*
X222712238Y-121712424D01*
X222617000Y-121807662D01*
X222569381Y-121950520D01*
X222569381Y-122045758D01*
X222617000Y-122188615D01*
X222664619Y-122236234D01*
X222569381Y-123140996D02*
X222569381Y-122664805D01*
X223045571Y-122617186D01*
X222997952Y-122664805D01*
X222950333Y-122760043D01*
X222950333Y-122998139D01*
X222997952Y-123093377D01*
X223045571Y-123140996D01*
X223140810Y-123188615D01*
X223378905Y-123188615D01*
X223474143Y-123140996D01*
X223521762Y-123093377D01*
X223569381Y-122998139D01*
X223569381Y-122760043D01*
X223521762Y-122664805D01*
X223474143Y-122617186D01*
X229836381Y-106018334D02*
X229360190Y-105685000D01*
X229836381Y-105446905D02*
X228836381Y-105446905D01*
X228836381Y-105827858D01*
X228884000Y-105923096D01*
X228931619Y-105970715D01*
X229026857Y-106018334D01*
X229169714Y-106018334D01*
X229264952Y-105970715D01*
X229312571Y-105923096D01*
X229360190Y-105827858D01*
X229360190Y-105446905D01*
X228836381Y-106351667D02*
X228836381Y-107018334D01*
X229836381Y-106589762D01*
X207103381Y-127608334D02*
X206627190Y-127275000D01*
X207103381Y-127036905D02*
X206103381Y-127036905D01*
X206103381Y-127417858D01*
X206151000Y-127513096D01*
X206198619Y-127560715D01*
X206293857Y-127608334D01*
X206436714Y-127608334D01*
X206531952Y-127560715D01*
X206579571Y-127513096D01*
X206627190Y-127417858D01*
X206627190Y-127036905D01*
X206531952Y-128179762D02*
X206484333Y-128084524D01*
X206436714Y-128036905D01*
X206341476Y-127989286D01*
X206293857Y-127989286D01*
X206198619Y-128036905D01*
X206151000Y-128084524D01*
X206103381Y-128179762D01*
X206103381Y-128370239D01*
X206151000Y-128465477D01*
X206198619Y-128513096D01*
X206293857Y-128560715D01*
X206341476Y-128560715D01*
X206436714Y-128513096D01*
X206484333Y-128465477D01*
X206531952Y-128370239D01*
X206531952Y-128179762D01*
X206579571Y-128084524D01*
X206627190Y-128036905D01*
X206722429Y-127989286D01*
X206912905Y-127989286D01*
X207008143Y-128036905D01*
X207055762Y-128084524D01*
X207103381Y-128179762D01*
X207103381Y-128370239D01*
X207055762Y-128465477D01*
X207008143Y-128513096D01*
X206912905Y-128560715D01*
X206722429Y-128560715D01*
X206627190Y-128513096D01*
X206579571Y-128465477D01*
X206531952Y-128370239D01*
X223382666Y-114964381D02*
X223716000Y-114488190D01*
X223954095Y-114964381D02*
X223954095Y-113964381D01*
X223573142Y-113964381D01*
X223477904Y-114012000D01*
X223430285Y-114059619D01*
X223382666Y-114154857D01*
X223382666Y-114297714D01*
X223430285Y-114392952D01*
X223477904Y-114440571D01*
X223573142Y-114488190D01*
X223954095Y-114488190D01*
X222906476Y-114964381D02*
X222716000Y-114964381D01*
X222620761Y-114916762D01*
X222573142Y-114869143D01*
X222477904Y-114726286D01*
X222430285Y-114535810D01*
X222430285Y-114154857D01*
X222477904Y-114059619D01*
X222525523Y-114012000D01*
X222620761Y-113964381D01*
X222811238Y-113964381D01*
X222906476Y-114012000D01*
X222954095Y-114059619D01*
X223001714Y-114154857D01*
X223001714Y-114392952D01*
X222954095Y-114488190D01*
X222906476Y-114535810D01*
X222811238Y-114583429D01*
X222620761Y-114583429D01*
X222525523Y-114535810D01*
X222477904Y-114488190D01*
X222430285Y-114392952D01*
X234154381Y-105542143D02*
X233678190Y-105208809D01*
X234154381Y-104970714D02*
X233154381Y-104970714D01*
X233154381Y-105351667D01*
X233202000Y-105446905D01*
X233249619Y-105494524D01*
X233344857Y-105542143D01*
X233487714Y-105542143D01*
X233582952Y-105494524D01*
X233630571Y-105446905D01*
X233678190Y-105351667D01*
X233678190Y-104970714D01*
X234154381Y-106494524D02*
X234154381Y-105923095D01*
X234154381Y-106208809D02*
X233154381Y-106208809D01*
X233297238Y-106113571D01*
X233392476Y-106018333D01*
X233440095Y-105923095D01*
X233154381Y-107113571D02*
X233154381Y-107208810D01*
X233202000Y-107304048D01*
X233249619Y-107351667D01*
X233344857Y-107399286D01*
X233535333Y-107446905D01*
X233773429Y-107446905D01*
X233963905Y-107399286D01*
X234059143Y-107351667D01*
X234106762Y-107304048D01*
X234154381Y-107208810D01*
X234154381Y-107113571D01*
X234106762Y-107018333D01*
X234059143Y-106970714D01*
X233963905Y-106923095D01*
X233773429Y-106875476D01*
X233535333Y-106875476D01*
X233344857Y-106923095D01*
X233249619Y-106970714D01*
X233202000Y-107018333D01*
X233154381Y-107113571D01*
X111099143Y5110666D02*
X111146762Y5158285D01*
X111194381Y5301142D01*
X111194381Y5396380D01*
X111146762Y5539238D01*
X111051524Y5634476D01*
X110956286Y5682095D01*
X110765810Y5729714D01*
X110622952Y5729714D01*
X110432476Y5682095D01*
X110337238Y5634476D01*
X110242000Y5539238D01*
X110194381Y5396380D01*
X110194381Y5301142D01*
X110242000Y5158285D01*
X110289619Y5110666D01*
X110194381Y4777333D02*
X110194381Y4158285D01*
X110575333Y4491619D01*
X110575333Y4348761D01*
X110622952Y4253523D01*
X110670571Y4205904D01*
X110765810Y4158285D01*
X111003905Y4158285D01*
X111099143Y4205904D01*
X111146762Y4253523D01*
X111194381Y4348761D01*
X111194381Y4634476D01*
X111146762Y4729714D01*
X111099143Y4777333D01*
X111099143Y23652666D02*
X111146762Y23700285D01*
X111194381Y23843142D01*
X111194381Y23938380D01*
X111146762Y24081238D01*
X111051524Y24176476D01*
X110956286Y24224095D01*
X110765810Y24271714D01*
X110622952Y24271714D01*
X110432476Y24224095D01*
X110337238Y24176476D01*
X110242000Y24081238D01*
X110194381Y23938380D01*
X110194381Y23843142D01*
X110242000Y23700285D01*
X110289619Y23652666D01*
X110527714Y22795523D02*
X111194381Y22795523D01*
X110146762Y23033619D02*
X110861048Y23271714D01*
X110861048Y22652666D01*
X111099143Y42956666D02*
X111146762Y43004285D01*
X111194381Y43147142D01*
X111194381Y43242380D01*
X111146762Y43385238D01*
X111051524Y43480476D01*
X110956286Y43528095D01*
X110765810Y43575714D01*
X110622952Y43575714D01*
X110432476Y43528095D01*
X110337238Y43480476D01*
X110242000Y43385238D01*
X110194381Y43242380D01*
X110194381Y43147142D01*
X110242000Y43004285D01*
X110289619Y42956666D01*
X110194381Y42051904D02*
X110194381Y42528095D01*
X110670571Y42575714D01*
X110622952Y42528095D01*
X110575333Y42432857D01*
X110575333Y42194761D01*
X110622952Y42099523D01*
X110670571Y42051904D01*
X110765810Y42004285D01*
X111003905Y42004285D01*
X111099143Y42051904D01*
X111146762Y42099523D01*
X111194381Y42194761D01*
X111194381Y42432857D01*
X111146762Y42528095D01*
X111099143Y42575714D01*
X176519381Y28979666D02*
X176043190Y29313000D01*
X176519381Y29551095D02*
X175519381Y29551095D01*
X175519381Y29170142D01*
X175567000Y29074904D01*
X175614619Y29027285D01*
X175709857Y28979666D01*
X175852714Y28979666D01*
X175947952Y29027285D01*
X175995571Y29074904D01*
X176043190Y29170142D01*
X176043190Y29551095D01*
X176519381Y28027285D02*
X176519381Y28598714D01*
X176519381Y28313000D02*
X175519381Y28313000D01*
X175662238Y28408238D01*
X175757476Y28503476D01*
X175805095Y28598714D01*
X85349381Y29487666D02*
X84873190Y29821000D01*
X85349381Y30059095D02*
X84349381Y30059095D01*
X84349381Y29678142D01*
X84397000Y29582904D01*
X84444619Y29535285D01*
X84539857Y29487666D01*
X84682714Y29487666D01*
X84777952Y29535285D01*
X84825571Y29582904D01*
X84873190Y29678142D01*
X84873190Y30059095D01*
X84444619Y29106714D02*
X84397000Y29059095D01*
X84349381Y28963857D01*
X84349381Y28725761D01*
X84397000Y28630523D01*
X84444619Y28582904D01*
X84539857Y28535285D01*
X84635095Y28535285D01*
X84777952Y28582904D01*
X85349381Y29154333D01*
X85349381Y28535285D01*
X92802666Y59610619D02*
X93136000Y60086810D01*
X93374095Y59610619D02*
X93374095Y60610619D01*
X92993142Y60610619D01*
X92897904Y60563000D01*
X92850285Y60515381D01*
X92802666Y60420143D01*
X92802666Y60277286D01*
X92850285Y60182048D01*
X92897904Y60134429D01*
X92993142Y60086810D01*
X93374095Y60086810D01*
X92469333Y60610619D02*
X91850285Y60610619D01*
X92183619Y60229667D01*
X92040761Y60229667D01*
X91945523Y60182048D01*
X91897904Y60134429D01*
X91850285Y60039190D01*
X91850285Y59801095D01*
X91897904Y59705857D01*
X91945523Y59658238D01*
X92040761Y59610619D01*
X92326476Y59610619D01*
X92421714Y59658238D01*
X92469333Y59705857D01*
X76885927Y48867880D02*
X76178820Y49574987D01*
X75909445Y49305613D01*
X75875774Y49204597D01*
X75875774Y49137254D01*
X75909445Y49036239D01*
X76010460Y48935224D01*
X76111476Y48901552D01*
X76178819Y48901552D01*
X76279834Y48935224D01*
X76549209Y49204598D01*
X75572728Y48834208D02*
X75505385Y48834208D01*
X75404370Y48800537D01*
X75236010Y48632177D01*
X75202339Y48531162D01*
X75202339Y48463819D01*
X75236010Y48362804D01*
X75303354Y48295460D01*
X75438041Y48228117D01*
X76246163Y48228117D01*
X75808430Y47790384D01*
X74663591Y48059758D02*
X74596247Y47992414D01*
X74562575Y47891399D01*
X74562575Y47824056D01*
X74596247Y47723040D01*
X74697262Y47554682D01*
X74865621Y47386322D01*
X75033980Y47285307D01*
X75134995Y47251636D01*
X75202339Y47251636D01*
X75303354Y47285307D01*
X75370698Y47352651D01*
X75404370Y47453667D01*
X75404370Y47521010D01*
X75370698Y47622025D01*
X75269683Y47790384D01*
X75101323Y47958743D01*
X74932965Y48059758D01*
X74831950Y48093430D01*
X74764606Y48093430D01*
X74663591Y48059758D01*
M02*
