G04 #@! TF.FileFunction,Profile,NP*
%FSLAX46Y46*%
G04 Gerber Fmt 4.6, Leading zero omitted, Abs format (unit mm)*
G04 Created by KiCad (PCBNEW 4.0.6) date 2017 August 14, Monday 14:56:33*
%MOMM*%
%LPD*%
G01*
G04 APERTURE LIST*
%ADD10C,0.100000*%
%ADD11C,0.150000*%
G04 APERTURE END LIST*
D10*
X104440000Y-14594000D02*
X19440000Y-14594000D01*
X109440000Y-20594000D02*
X104440000Y-14594000D01*
X109440000Y-78594000D02*
X109440000Y-20594000D01*
X104440000Y-84594000D02*
X109440000Y-78594000D01*
X19440000Y-84594000D02*
X104440000Y-84594000D01*
X19440000Y-84594000D02*
X14440000Y-78594000D01*
X14440000Y-20594000D02*
X14440000Y-78594000D01*
X14440000Y-20594000D02*
X19440000Y-14594000D01*
X250781000Y-80196000D02*
X245781000Y-85196000D01*
X245781000Y-15196000D02*
X250781000Y-20196000D01*
X117781000Y-85196000D02*
X112781000Y-80196000D01*
X112781000Y-20196000D02*
X112781000Y-80196000D01*
X117781000Y-15196000D02*
X112781000Y-20196000D01*
X245781000Y-85196000D02*
X117781000Y-85196000D01*
X250781000Y-20196000D02*
X250781000Y-80196000D01*
X117781000Y-15196000D02*
X245781000Y-15196000D01*
X16666666Y-137000000D02*
G75*
G03X16666666Y-137000000I-1666666J0D01*
G01*
X12500000Y-137000000D02*
X17500000Y-137000000D01*
X15000000Y-134500000D02*
X15000000Y-139500000D01*
X19000000Y-87000000D02*
X15000000Y-91000000D01*
X101000000Y-87000000D02*
X19000000Y-87000000D01*
X105000000Y-91000000D02*
X101000000Y-87000000D01*
X105000000Y-133000000D02*
X105000000Y-91000000D01*
X105000000Y-133000000D02*
X101000000Y-137000000D01*
X19000000Y-137000000D02*
X101000000Y-137000000D01*
X15000000Y-133000000D02*
X19000000Y-137000000D01*
X15000000Y-91000000D02*
X15000000Y-133000000D01*
D11*
X245000000Y-88000000D02*
X257000000Y-99000000D01*
X119000000Y-88000000D02*
X245000000Y-88000000D01*
X107000000Y-98996800D02*
X119000000Y-88000000D01*
X107000000Y-148000000D02*
X107000000Y-99000000D01*
X119000000Y-159000000D02*
X107000000Y-148000000D01*
X245000000Y-159000000D02*
X119000000Y-159000000D01*
X257000000Y-148000000D02*
X245000000Y-159000000D01*
X257000000Y-99000000D02*
X257000000Y-148000000D01*
D10*
X94000000Y-12000000D02*
X170000000Y-12000000D01*
X94000000Y68000000D02*
X170000000Y68000000D01*
X94000000Y-12000000D02*
G75*
G02X94000000Y68000000I0J40000000D01*
G01*
X170000000Y-12000000D02*
G75*
G03X170000000Y68000000I0J40000000D01*
G01*
X212326306Y42808400D02*
G75*
G03X212326306Y42808400I-1666666J0D01*
G01*
X208159640Y42808400D02*
X213159640Y42808400D01*
X210659640Y45308400D02*
X210659640Y40308400D01*
M02*
