G04 #@! TF.FileFunction,Soldermask,Bot*
%FSLAX46Y46*%
G04 Gerber Fmt 4.6, Leading zero omitted, Abs format (unit mm)*
G04 Created by KiCad (PCBNEW 4.0.6) date 2017 August 07, Monday 14:19:28*
%MOMM*%
%LPD*%
G01*
G04 APERTURE LIST*
%ADD10C,0.100000*%
%ADD11R,2.100000X3.600000*%
%ADD12O,2.100000X3.600000*%
%ADD13R,1.600000X2.000000*%
%ADD14R,2.000000X1.600000*%
%ADD15R,1.600000X2.400000*%
%ADD16O,1.600000X2.400000*%
%ADD17R,1.700000X2.000000*%
%ADD18R,2.000000X1.700000*%
%ADD19R,1.600000X1.600000*%
%ADD20C,1.600000*%
%ADD21C,1.620000*%
%ADD22R,1.100000X1.100000*%
%ADD23R,1.500000X1.500000*%
%ADD24C,7.500000*%
G04 APERTURE END LIST*
D10*
D11*
X73914000Y-147574000D03*
D12*
X78914000Y-147574000D03*
X83914000Y-147574000D03*
D11*
X93218000Y-147574000D03*
D12*
X98218000Y-147574000D03*
X103218000Y-147574000D03*
X108218000Y-147574000D03*
D11*
X117602000Y-147574000D03*
D12*
X122602000Y-147574000D03*
D13*
X76047600Y-142792200D03*
X76047600Y-138792200D03*
D14*
X65500000Y-148590000D03*
X61500000Y-148590000D03*
D13*
X130556000Y-100362000D03*
X130556000Y-104362000D03*
X106680000Y-100108000D03*
X106680000Y-104108000D03*
X82296000Y-100108000D03*
X82296000Y-104108000D03*
D15*
X95504000Y-105918000D03*
D16*
X103124000Y-98298000D03*
X98044000Y-105918000D03*
X100584000Y-98298000D03*
X100584000Y-105918000D03*
X98044000Y-98298000D03*
X103124000Y-105918000D03*
X95504000Y-98298000D03*
D15*
X119126000Y-106172000D03*
D16*
X126746000Y-98552000D03*
X121666000Y-106172000D03*
X124206000Y-98552000D03*
X124206000Y-106172000D03*
X121666000Y-98552000D03*
X126746000Y-106172000D03*
X119126000Y-98552000D03*
D15*
X71120000Y-105918000D03*
D16*
X78740000Y-98298000D03*
X73660000Y-105918000D03*
X76200000Y-98298000D03*
X76200000Y-105918000D03*
X73660000Y-98298000D03*
X78740000Y-105918000D03*
X71120000Y-98298000D03*
D17*
X65786000Y-108490000D03*
X65786000Y-112490000D03*
X90932000Y-109252000D03*
X90932000Y-113252000D03*
X119126000Y-109379000D03*
X119126000Y-113379000D03*
X84836000Y-100108000D03*
X84836000Y-104108000D03*
X82296000Y-115030000D03*
X82296000Y-111030000D03*
X109220000Y-100108000D03*
X109220000Y-104108000D03*
X106680000Y-115030000D03*
X106680000Y-111030000D03*
X133096000Y-100362000D03*
X133096000Y-104362000D03*
X130556000Y-115284000D03*
X130556000Y-111284000D03*
X68834000Y-112490000D03*
X68834000Y-108490000D03*
X93980000Y-113252000D03*
X93980000Y-109252000D03*
X115570000Y-113379000D03*
X115570000Y-109379000D03*
X93218000Y-155924000D03*
X93218000Y-151924000D03*
X98298000Y-155924000D03*
X98298000Y-151924000D03*
X103378000Y-155924000D03*
X103378000Y-151924000D03*
D18*
X75990200Y-152679400D03*
X71990200Y-152679400D03*
D17*
X128016000Y-147098000D03*
X128016000Y-151098000D03*
D19*
X67310000Y-138557000D03*
D20*
X64810000Y-138557000D03*
D19*
X84328000Y-139192000D03*
D20*
X86828000Y-139192000D03*
D18*
X69437000Y-155194000D03*
X65437000Y-155194000D03*
X130651000Y-155702000D03*
X126651000Y-155702000D03*
D21*
X78740000Y-118030000D03*
X73740000Y-115530000D03*
X78740000Y-113030000D03*
X103124000Y-118030000D03*
X98124000Y-115530000D03*
X103124000Y-113030000D03*
X126746000Y-118284000D03*
X121746000Y-115784000D03*
X126746000Y-113284000D03*
D18*
X87090000Y-155702000D03*
X83090000Y-155702000D03*
X79026000Y-152654000D03*
X83026000Y-152654000D03*
D22*
X90868000Y-131572000D03*
X90868000Y-126492000D03*
X90868000Y-129032000D03*
D23*
X103568000Y-135382000D03*
X101028000Y-135382000D03*
X98488000Y-135382000D03*
X103568000Y-122682000D03*
X101028000Y-122682000D03*
X98488000Y-122682000D03*
D22*
X114744000Y-131572000D03*
X114744000Y-126492000D03*
X114744000Y-129032000D03*
D23*
X127444000Y-135382000D03*
X124904000Y-135382000D03*
X122364000Y-135382000D03*
X127444000Y-122682000D03*
X124904000Y-122682000D03*
X122364000Y-122682000D03*
D22*
X66738000Y-131572000D03*
X66738000Y-126492000D03*
X66738000Y-129032000D03*
D23*
X79438000Y-135382000D03*
X76898000Y-135382000D03*
X74358000Y-135382000D03*
X79438000Y-122682000D03*
X76898000Y-122682000D03*
X74358000Y-122682000D03*
D24*
X56000000Y-94000000D03*
X139000000Y-94000000D03*
X56000000Y-152000000D03*
X139000000Y-152000000D03*
M02*
