G04 #@! TF.FileFunction,Drawing*
%FSLAX46Y46*%
G04 Gerber Fmt 4.6, Leading zero omitted, Abs format (unit mm)*
G04 Created by KiCad (PCBNEW 4.0.6) date 2017 August 07, Monday 14:19:28*
%MOMM*%
%LPD*%
G01*
G04 APERTURE LIST*
%ADD10C,0.100000*%
%ADD11C,0.300000*%
G04 APERTURE END LIST*
D10*
D11*
X150507429Y-116650287D02*
X150507429Y-117650287D01*
X149007429Y-117007430D01*
X150507429Y-118507429D02*
X150507429Y-118650286D01*
X150436000Y-118793143D01*
X150364571Y-118864572D01*
X150221714Y-118936001D01*
X149936000Y-119007429D01*
X149578857Y-119007429D01*
X149293143Y-118936001D01*
X149150286Y-118864572D01*
X149078857Y-118793143D01*
X149007429Y-118650286D01*
X149007429Y-118507429D01*
X149078857Y-118364572D01*
X149150286Y-118293143D01*
X149293143Y-118221715D01*
X149578857Y-118150286D01*
X149936000Y-118150286D01*
X150221714Y-118221715D01*
X150364571Y-118293143D01*
X150436000Y-118364572D01*
X150507429Y-118507429D01*
X149150286Y-119650286D02*
X149078857Y-119721714D01*
X149007429Y-119650286D01*
X149078857Y-119578857D01*
X149150286Y-119650286D01*
X149007429Y-119650286D01*
X149007429Y-121150286D02*
X149007429Y-120293143D01*
X149007429Y-120721715D02*
X150507429Y-120721715D01*
X150293143Y-120578858D01*
X150150286Y-120436000D01*
X150078857Y-120293143D01*
X150507429Y-122078857D02*
X150507429Y-122221714D01*
X150436000Y-122364571D01*
X150364571Y-122436000D01*
X150221714Y-122507429D01*
X149936000Y-122578857D01*
X149578857Y-122578857D01*
X149293143Y-122507429D01*
X149150286Y-122436000D01*
X149078857Y-122364571D01*
X149007429Y-122221714D01*
X149007429Y-122078857D01*
X149078857Y-121936000D01*
X149150286Y-121864571D01*
X149293143Y-121793143D01*
X149578857Y-121721714D01*
X149936000Y-121721714D01*
X150221714Y-121793143D01*
X150364571Y-121864571D01*
X150436000Y-121936000D01*
X150507429Y-122078857D01*
X150007429Y-123864571D02*
X149007429Y-123864571D01*
X150578857Y-123507428D02*
X149507429Y-123150285D01*
X149507429Y-124078857D01*
X149007429Y-125793142D02*
X150007429Y-125793142D01*
X149864571Y-125793142D02*
X149936000Y-125864570D01*
X150007429Y-126007428D01*
X150007429Y-126221713D01*
X149936000Y-126364570D01*
X149793143Y-126435999D01*
X149007429Y-126435999D01*
X149793143Y-126435999D02*
X149936000Y-126507428D01*
X150007429Y-126650285D01*
X150007429Y-126864570D01*
X149936000Y-127007428D01*
X149793143Y-127078856D01*
X149007429Y-127078856D01*
X149007429Y-127793142D02*
X150007429Y-127793142D01*
X149864571Y-127793142D02*
X149936000Y-127864570D01*
X150007429Y-128007428D01*
X150007429Y-128221713D01*
X149936000Y-128364570D01*
X149793143Y-128435999D01*
X149007429Y-128435999D01*
X149793143Y-128435999D02*
X149936000Y-128507428D01*
X150007429Y-128650285D01*
X150007429Y-128864570D01*
X149936000Y-129007428D01*
X149793143Y-129078856D01*
X149007429Y-129078856D01*
X148336000Y-87884000D02*
X148336000Y-157988000D01*
X139954000Y-87884000D02*
X151036000Y-87884000D01*
X139954000Y-157988000D02*
X151036000Y-157988000D01*
X148336000Y-157988000D02*
X147749579Y-156861496D01*
X148336000Y-157988000D02*
X148922421Y-156861496D01*
X148336000Y-87884000D02*
X147749579Y-89010504D01*
X148336000Y-87884000D02*
X148922421Y-89010504D01*
X91492878Y-83512053D02*
X91778592Y-83512817D01*
X91921640Y-83441771D01*
X91993259Y-83370533D01*
X92136689Y-83156631D01*
X92208881Y-82871108D01*
X92210409Y-82299682D01*
X92139363Y-82156635D01*
X92068125Y-82085015D01*
X91925459Y-82013204D01*
X91639747Y-82012440D01*
X91496698Y-82083487D01*
X91425079Y-82154725D01*
X91353269Y-82297390D01*
X91352314Y-82654532D01*
X91423360Y-82797579D01*
X91494597Y-82869198D01*
X91637264Y-82941009D01*
X91922977Y-82941773D01*
X92066024Y-82870726D01*
X92137644Y-82799489D01*
X92209454Y-82656824D01*
X93495545Y-82517404D02*
X93492871Y-83517400D01*
X93139931Y-81945023D02*
X92779925Y-83015492D01*
X93708493Y-83017975D01*
X94278964Y-83376645D02*
X94350201Y-83448265D01*
X94278582Y-83519501D01*
X94207345Y-83447883D01*
X94278964Y-83376645D01*
X94278582Y-83519501D01*
X95064294Y-83521602D02*
X95350008Y-83522366D01*
X95493055Y-83451320D01*
X95564674Y-83380083D01*
X95708104Y-83166180D01*
X95780296Y-82880657D01*
X95781824Y-82309231D01*
X95710778Y-82166184D01*
X95639540Y-82094564D01*
X95496875Y-82022753D01*
X95211162Y-82021989D01*
X95068113Y-82093036D01*
X94996495Y-82164274D01*
X94924684Y-82306939D01*
X94923729Y-82664081D01*
X94994776Y-82807129D01*
X95066012Y-82878747D01*
X95208679Y-82950558D01*
X95494392Y-82951322D01*
X95637439Y-82880275D01*
X95709059Y-82809039D01*
X95780869Y-82666373D01*
X96492859Y-83525422D02*
X96778573Y-83526186D01*
X96921621Y-83455140D01*
X96993240Y-83383902D01*
X97136670Y-83170000D01*
X97208862Y-82884477D01*
X97210390Y-82313051D01*
X97139344Y-82170004D01*
X97068106Y-82098384D01*
X96925441Y-82026573D01*
X96639728Y-82025809D01*
X96496679Y-82096856D01*
X96425060Y-82168094D01*
X96353250Y-82310759D01*
X96352295Y-82667901D01*
X96423342Y-82810948D01*
X96494578Y-82882567D01*
X96637245Y-82954378D01*
X96922958Y-82955142D01*
X97066005Y-82884095D01*
X97137625Y-82812858D01*
X97209435Y-82670193D01*
X98496863Y-82030775D02*
X98211150Y-82030011D01*
X98068103Y-82101058D01*
X97996483Y-82172295D01*
X97853053Y-82386198D01*
X97780861Y-82671721D01*
X97779333Y-83243147D01*
X97850380Y-83386194D01*
X97921616Y-83457814D01*
X98064283Y-83529623D01*
X98349996Y-83530387D01*
X98493043Y-83459342D01*
X98564663Y-83388104D01*
X98636473Y-83245438D01*
X98637428Y-82888297D01*
X98566382Y-82745249D01*
X98495144Y-82673630D01*
X98352479Y-82601820D01*
X98066766Y-82601056D01*
X97923717Y-82672103D01*
X97852098Y-82743339D01*
X97780288Y-82886005D01*
X100421416Y-83535926D02*
X100424090Y-82535930D01*
X100423708Y-82678787D02*
X100495327Y-82607549D01*
X100638375Y-82536502D01*
X100852660Y-82537075D01*
X100995325Y-82608886D01*
X101066372Y-82751934D01*
X101064271Y-83537645D01*
X101066372Y-82751934D02*
X101138183Y-82609268D01*
X101281230Y-82538221D01*
X101495514Y-82538794D01*
X101638181Y-82610605D01*
X101709227Y-82753652D01*
X101707126Y-83539364D01*
X102421409Y-83541274D02*
X102424083Y-82541277D01*
X102423701Y-82684135D02*
X102495320Y-82612897D01*
X102638368Y-82541850D01*
X102852653Y-82542423D01*
X102995318Y-82614234D01*
X103066365Y-82757281D01*
X103064264Y-83542992D01*
X103066365Y-82757281D02*
X103138176Y-82614616D01*
X103281223Y-82543569D01*
X103495507Y-82544142D01*
X103638174Y-82615953D01*
X103709220Y-82759000D01*
X103707119Y-83544711D01*
X145060490Y-84326713D02*
X50064490Y-84072713D01*
X145034000Y-94234000D02*
X145067709Y-81626723D01*
X50038000Y-93980000D02*
X50071709Y-81372723D01*
X50064490Y-84072713D02*
X51192558Y-83489306D01*
X50064490Y-84072713D02*
X51189422Y-84662144D01*
X145060490Y-84326713D02*
X143935558Y-83737282D01*
X145060490Y-84326713D02*
X143932422Y-84910120D01*
M02*
