G04 #@! TF.FileFunction,Paste,Top*
%FSLAX46Y46*%
G04 Gerber Fmt 4.6, Leading zero omitted, Abs format (unit mm)*
G04 Created by KiCad (PCBNEW 4.0.6) date 2017 August 05, Saturday 23:38:27*
%MOMM*%
%LPD*%
G01*
G04 APERTURE LIST*
%ADD10C,0.100000*%
%ADD11R,1.250000X1.500000*%
%ADD12R,1.500000X1.250000*%
%ADD13R,1.500000X1.300000*%
%ADD14R,3.500000X1.800000*%
%ADD15R,1.300000X1.500000*%
%ADD16R,1.143000X0.508000*%
%ADD17R,1.600000X3.500000*%
%ADD18R,0.750000X0.800000*%
G04 APERTURE END LIST*
D10*
D11*
X126300000Y-118350000D03*
X126300000Y-115850000D03*
D12*
X154650000Y-118300000D03*
X152150000Y-118300000D03*
D11*
X152400000Y-121432000D03*
X152400000Y-123932000D03*
X145224500Y-118828500D03*
X145224500Y-121328500D03*
X145224500Y-123654500D03*
X145224500Y-126154500D03*
D13*
X122444500Y-130429000D03*
X119744500Y-130429000D03*
D14*
X169632000Y-116332000D03*
X164632000Y-116332000D03*
D15*
X117284500Y-117458500D03*
X117284500Y-120158500D03*
D13*
X114728000Y-130429000D03*
X117428000Y-130429000D03*
D15*
X120904000Y-118792000D03*
X120904000Y-121492000D03*
D13*
X157350000Y-116400000D03*
X154650000Y-116400000D03*
X164893000Y-128016000D03*
X167593000Y-128016000D03*
D15*
X170650000Y-144900000D03*
X170650000Y-147600000D03*
X173400000Y-147600000D03*
X173400000Y-144900000D03*
D16*
X130302000Y-116332000D03*
X130302000Y-117602000D03*
X130302000Y-118872000D03*
X130302000Y-120142000D03*
X130302000Y-121412000D03*
X130302000Y-122682000D03*
X130302000Y-123952000D03*
X130302000Y-125222000D03*
X140462000Y-125222000D03*
X140462000Y-123952000D03*
X140462000Y-122682000D03*
X140462000Y-121412000D03*
X140462000Y-120142000D03*
X140462000Y-118872000D03*
X140462000Y-117602000D03*
X140462000Y-116332000D03*
D17*
X122491500Y-140050500D03*
X122491500Y-134650500D03*
D11*
X116459000Y-138600500D03*
X116459000Y-136100500D03*
D17*
X151320500Y-134206000D03*
X151320500Y-139606000D03*
X159004000Y-139606000D03*
X159004000Y-134206000D03*
D15*
X170650000Y-152600000D03*
X170650000Y-149900000D03*
X173400000Y-152600000D03*
X173400000Y-149900000D03*
D18*
X128700000Y-117750000D03*
X128700000Y-116250000D03*
X143500000Y-118850000D03*
X143500000Y-120350000D03*
X142400000Y-123950000D03*
X142400000Y-125450000D03*
M02*
