G04 #@! TF.FileFunction,Drawing*
%FSLAX46Y46*%
G04 Gerber Fmt 4.6, Leading zero omitted, Abs format (unit mm)*
G04 Created by KiCad (PCBNEW 4.0.6) date 2017 August 05, Saturday 23:38:27*
%MOMM*%
%LPD*%
G01*
G04 APERTURE LIST*
%ADD10C,0.100000*%
%ADD11C,0.300000*%
G04 APERTURE END LIST*
D10*
D11*
X133714287Y-95128571D02*
X134714287Y-95128571D01*
X134071430Y-96628571D01*
X135571429Y-95128571D02*
X135714286Y-95128571D01*
X135857143Y-95200000D01*
X135928572Y-95271429D01*
X136000001Y-95414286D01*
X136071429Y-95700000D01*
X136071429Y-96057143D01*
X136000001Y-96342857D01*
X135928572Y-96485714D01*
X135857143Y-96557143D01*
X135714286Y-96628571D01*
X135571429Y-96628571D01*
X135428572Y-96557143D01*
X135357143Y-96485714D01*
X135285715Y-96342857D01*
X135214286Y-96057143D01*
X135214286Y-95700000D01*
X135285715Y-95414286D01*
X135357143Y-95271429D01*
X135428572Y-95200000D01*
X135571429Y-95128571D01*
X136714286Y-96485714D02*
X136785714Y-96557143D01*
X136714286Y-96628571D01*
X136642857Y-96557143D01*
X136714286Y-96485714D01*
X136714286Y-96628571D01*
X137714286Y-95128571D02*
X137857143Y-95128571D01*
X138000000Y-95200000D01*
X138071429Y-95271429D01*
X138142858Y-95414286D01*
X138214286Y-95700000D01*
X138214286Y-96057143D01*
X138142858Y-96342857D01*
X138071429Y-96485714D01*
X138000000Y-96557143D01*
X137857143Y-96628571D01*
X137714286Y-96628571D01*
X137571429Y-96557143D01*
X137500000Y-96485714D01*
X137428572Y-96342857D01*
X137357143Y-96057143D01*
X137357143Y-95700000D01*
X137428572Y-95414286D01*
X137500000Y-95271429D01*
X137571429Y-95200000D01*
X137714286Y-95128571D01*
X139142857Y-95128571D02*
X139285714Y-95128571D01*
X139428571Y-95200000D01*
X139500000Y-95271429D01*
X139571429Y-95414286D01*
X139642857Y-95700000D01*
X139642857Y-96057143D01*
X139571429Y-96342857D01*
X139500000Y-96485714D01*
X139428571Y-96557143D01*
X139285714Y-96628571D01*
X139142857Y-96628571D01*
X139000000Y-96557143D01*
X138928571Y-96485714D01*
X138857143Y-96342857D01*
X138785714Y-96057143D01*
X138785714Y-95700000D01*
X138857143Y-95414286D01*
X138928571Y-95271429D01*
X139000000Y-95200000D01*
X139142857Y-95128571D01*
X140571428Y-95128571D02*
X140714285Y-95128571D01*
X140857142Y-95200000D01*
X140928571Y-95271429D01*
X141000000Y-95414286D01*
X141071428Y-95700000D01*
X141071428Y-96057143D01*
X141000000Y-96342857D01*
X140928571Y-96485714D01*
X140857142Y-96557143D01*
X140714285Y-96628571D01*
X140571428Y-96628571D01*
X140428571Y-96557143D01*
X140357142Y-96485714D01*
X140285714Y-96342857D01*
X140214285Y-96057143D01*
X140214285Y-95700000D01*
X140285714Y-95414286D01*
X140357142Y-95271429D01*
X140428571Y-95200000D01*
X140571428Y-95128571D01*
X142857142Y-96628571D02*
X142857142Y-95628571D01*
X142857142Y-95771429D02*
X142928570Y-95700000D01*
X143071428Y-95628571D01*
X143285713Y-95628571D01*
X143428570Y-95700000D01*
X143499999Y-95842857D01*
X143499999Y-96628571D01*
X143499999Y-95842857D02*
X143571428Y-95700000D01*
X143714285Y-95628571D01*
X143928570Y-95628571D01*
X144071428Y-95700000D01*
X144142856Y-95842857D01*
X144142856Y-96628571D01*
X144857142Y-96628571D02*
X144857142Y-95628571D01*
X144857142Y-95771429D02*
X144928570Y-95700000D01*
X145071428Y-95628571D01*
X145285713Y-95628571D01*
X145428570Y-95700000D01*
X145499999Y-95842857D01*
X145499999Y-96628571D01*
X145499999Y-95842857D02*
X145571428Y-95700000D01*
X145714285Y-95628571D01*
X145928570Y-95628571D01*
X146071428Y-95700000D01*
X146142856Y-95842857D01*
X146142856Y-96628571D01*
X175000000Y-97300000D02*
X105000000Y-97300000D01*
X175000000Y-117100000D02*
X175000000Y-94600000D01*
X105000000Y-117100000D02*
X105000000Y-94600000D01*
X105000000Y-97300000D02*
X106126504Y-96713579D01*
X105000000Y-97300000D02*
X106126504Y-97886421D01*
X175000000Y-97300000D02*
X173873496Y-96713579D01*
X175000000Y-97300000D02*
X173873496Y-97886421D01*
X134071430Y-161971429D02*
X133928572Y-161900000D01*
X133857144Y-161828571D01*
X133785715Y-161685714D01*
X133785715Y-161614286D01*
X133857144Y-161471429D01*
X133928572Y-161400000D01*
X134071430Y-161328571D01*
X134357144Y-161328571D01*
X134500001Y-161400000D01*
X134571430Y-161471429D01*
X134642858Y-161614286D01*
X134642858Y-161685714D01*
X134571430Y-161828571D01*
X134500001Y-161900000D01*
X134357144Y-161971429D01*
X134071430Y-161971429D01*
X133928572Y-162042857D01*
X133857144Y-162114286D01*
X133785715Y-162257143D01*
X133785715Y-162542857D01*
X133857144Y-162685714D01*
X133928572Y-162757143D01*
X134071430Y-162828571D01*
X134357144Y-162828571D01*
X134500001Y-162757143D01*
X134571430Y-162685714D01*
X134642858Y-162542857D01*
X134642858Y-162257143D01*
X134571430Y-162114286D01*
X134500001Y-162042857D01*
X134357144Y-161971429D01*
X135571429Y-161328571D02*
X135714286Y-161328571D01*
X135857143Y-161400000D01*
X135928572Y-161471429D01*
X136000001Y-161614286D01*
X136071429Y-161900000D01*
X136071429Y-162257143D01*
X136000001Y-162542857D01*
X135928572Y-162685714D01*
X135857143Y-162757143D01*
X135714286Y-162828571D01*
X135571429Y-162828571D01*
X135428572Y-162757143D01*
X135357143Y-162685714D01*
X135285715Y-162542857D01*
X135214286Y-162257143D01*
X135214286Y-161900000D01*
X135285715Y-161614286D01*
X135357143Y-161471429D01*
X135428572Y-161400000D01*
X135571429Y-161328571D01*
X136714286Y-162685714D02*
X136785714Y-162757143D01*
X136714286Y-162828571D01*
X136642857Y-162757143D01*
X136714286Y-162685714D01*
X136714286Y-162828571D01*
X137714286Y-161328571D02*
X137857143Y-161328571D01*
X138000000Y-161400000D01*
X138071429Y-161471429D01*
X138142858Y-161614286D01*
X138214286Y-161900000D01*
X138214286Y-162257143D01*
X138142858Y-162542857D01*
X138071429Y-162685714D01*
X138000000Y-162757143D01*
X137857143Y-162828571D01*
X137714286Y-162828571D01*
X137571429Y-162757143D01*
X137500000Y-162685714D01*
X137428572Y-162542857D01*
X137357143Y-162257143D01*
X137357143Y-161900000D01*
X137428572Y-161614286D01*
X137500000Y-161471429D01*
X137571429Y-161400000D01*
X137714286Y-161328571D01*
X139142857Y-161328571D02*
X139285714Y-161328571D01*
X139428571Y-161400000D01*
X139500000Y-161471429D01*
X139571429Y-161614286D01*
X139642857Y-161900000D01*
X139642857Y-162257143D01*
X139571429Y-162542857D01*
X139500000Y-162685714D01*
X139428571Y-162757143D01*
X139285714Y-162828571D01*
X139142857Y-162828571D01*
X139000000Y-162757143D01*
X138928571Y-162685714D01*
X138857143Y-162542857D01*
X138785714Y-162257143D01*
X138785714Y-161900000D01*
X138857143Y-161614286D01*
X138928571Y-161471429D01*
X139000000Y-161400000D01*
X139142857Y-161328571D01*
X140571428Y-161328571D02*
X140714285Y-161328571D01*
X140857142Y-161400000D01*
X140928571Y-161471429D01*
X141000000Y-161614286D01*
X141071428Y-161900000D01*
X141071428Y-162257143D01*
X141000000Y-162542857D01*
X140928571Y-162685714D01*
X140857142Y-162757143D01*
X140714285Y-162828571D01*
X140571428Y-162828571D01*
X140428571Y-162757143D01*
X140357142Y-162685714D01*
X140285714Y-162542857D01*
X140214285Y-162257143D01*
X140214285Y-161900000D01*
X140285714Y-161614286D01*
X140357142Y-161471429D01*
X140428571Y-161400000D01*
X140571428Y-161328571D01*
X142857142Y-162828571D02*
X142857142Y-161828571D01*
X142857142Y-161971429D02*
X142928570Y-161900000D01*
X143071428Y-161828571D01*
X143285713Y-161828571D01*
X143428570Y-161900000D01*
X143499999Y-162042857D01*
X143499999Y-162828571D01*
X143499999Y-162042857D02*
X143571428Y-161900000D01*
X143714285Y-161828571D01*
X143928570Y-161828571D01*
X144071428Y-161900000D01*
X144142856Y-162042857D01*
X144142856Y-162828571D01*
X144857142Y-162828571D02*
X144857142Y-161828571D01*
X144857142Y-161971429D02*
X144928570Y-161900000D01*
X145071428Y-161828571D01*
X145285713Y-161828571D01*
X145428570Y-161900000D01*
X145499999Y-162042857D01*
X145499999Y-162828571D01*
X145499999Y-162042857D02*
X145571428Y-161900000D01*
X145714285Y-161828571D01*
X145928570Y-161828571D01*
X146071428Y-161900000D01*
X146142856Y-162042857D01*
X146142856Y-162828571D01*
X100000000Y-160800000D02*
X180000000Y-160800000D01*
X100000000Y-152000000D02*
X100000000Y-163500000D01*
X180000000Y-152000000D02*
X180000000Y-163500000D01*
X180000000Y-160800000D02*
X178873496Y-161386421D01*
X180000000Y-160800000D02*
X178873496Y-160213579D01*
X100000000Y-160800000D02*
X101126504Y-161386421D01*
X100000000Y-160800000D02*
X101126504Y-160213579D01*
X134071430Y-101171429D02*
X133928572Y-101100000D01*
X133857144Y-101028571D01*
X133785715Y-100885714D01*
X133785715Y-100814286D01*
X133857144Y-100671429D01*
X133928572Y-100600000D01*
X134071430Y-100528571D01*
X134357144Y-100528571D01*
X134500001Y-100600000D01*
X134571430Y-100671429D01*
X134642858Y-100814286D01*
X134642858Y-100885714D01*
X134571430Y-101028571D01*
X134500001Y-101100000D01*
X134357144Y-101171429D01*
X134071430Y-101171429D01*
X133928572Y-101242857D01*
X133857144Y-101314286D01*
X133785715Y-101457143D01*
X133785715Y-101742857D01*
X133857144Y-101885714D01*
X133928572Y-101957143D01*
X134071430Y-102028571D01*
X134357144Y-102028571D01*
X134500001Y-101957143D01*
X134571430Y-101885714D01*
X134642858Y-101742857D01*
X134642858Y-101457143D01*
X134571430Y-101314286D01*
X134500001Y-101242857D01*
X134357144Y-101171429D01*
X135571429Y-100528571D02*
X135714286Y-100528571D01*
X135857143Y-100600000D01*
X135928572Y-100671429D01*
X136000001Y-100814286D01*
X136071429Y-101100000D01*
X136071429Y-101457143D01*
X136000001Y-101742857D01*
X135928572Y-101885714D01*
X135857143Y-101957143D01*
X135714286Y-102028571D01*
X135571429Y-102028571D01*
X135428572Y-101957143D01*
X135357143Y-101885714D01*
X135285715Y-101742857D01*
X135214286Y-101457143D01*
X135214286Y-101100000D01*
X135285715Y-100814286D01*
X135357143Y-100671429D01*
X135428572Y-100600000D01*
X135571429Y-100528571D01*
X136714286Y-101885714D02*
X136785714Y-101957143D01*
X136714286Y-102028571D01*
X136642857Y-101957143D01*
X136714286Y-101885714D01*
X136714286Y-102028571D01*
X137714286Y-100528571D02*
X137857143Y-100528571D01*
X138000000Y-100600000D01*
X138071429Y-100671429D01*
X138142858Y-100814286D01*
X138214286Y-101100000D01*
X138214286Y-101457143D01*
X138142858Y-101742857D01*
X138071429Y-101885714D01*
X138000000Y-101957143D01*
X137857143Y-102028571D01*
X137714286Y-102028571D01*
X137571429Y-101957143D01*
X137500000Y-101885714D01*
X137428572Y-101742857D01*
X137357143Y-101457143D01*
X137357143Y-101100000D01*
X137428572Y-100814286D01*
X137500000Y-100671429D01*
X137571429Y-100600000D01*
X137714286Y-100528571D01*
X139142857Y-100528571D02*
X139285714Y-100528571D01*
X139428571Y-100600000D01*
X139500000Y-100671429D01*
X139571429Y-100814286D01*
X139642857Y-101100000D01*
X139642857Y-101457143D01*
X139571429Y-101742857D01*
X139500000Y-101885714D01*
X139428571Y-101957143D01*
X139285714Y-102028571D01*
X139142857Y-102028571D01*
X139000000Y-101957143D01*
X138928571Y-101885714D01*
X138857143Y-101742857D01*
X138785714Y-101457143D01*
X138785714Y-101100000D01*
X138857143Y-100814286D01*
X138928571Y-100671429D01*
X139000000Y-100600000D01*
X139142857Y-100528571D01*
X140571428Y-100528571D02*
X140714285Y-100528571D01*
X140857142Y-100600000D01*
X140928571Y-100671429D01*
X141000000Y-100814286D01*
X141071428Y-101100000D01*
X141071428Y-101457143D01*
X141000000Y-101742857D01*
X140928571Y-101885714D01*
X140857142Y-101957143D01*
X140714285Y-102028571D01*
X140571428Y-102028571D01*
X140428571Y-101957143D01*
X140357142Y-101885714D01*
X140285714Y-101742857D01*
X140214285Y-101457143D01*
X140214285Y-101100000D01*
X140285714Y-100814286D01*
X140357142Y-100671429D01*
X140428571Y-100600000D01*
X140571428Y-100528571D01*
X142857142Y-102028571D02*
X142857142Y-101028571D01*
X142857142Y-101171429D02*
X142928570Y-101100000D01*
X143071428Y-101028571D01*
X143285713Y-101028571D01*
X143428570Y-101100000D01*
X143499999Y-101242857D01*
X143499999Y-102028571D01*
X143499999Y-101242857D02*
X143571428Y-101100000D01*
X143714285Y-101028571D01*
X143928570Y-101028571D01*
X144071428Y-101100000D01*
X144142856Y-101242857D01*
X144142856Y-102028571D01*
X144857142Y-102028571D02*
X144857142Y-101028571D01*
X144857142Y-101171429D02*
X144928570Y-101100000D01*
X145071428Y-101028571D01*
X145285713Y-101028571D01*
X145428570Y-101100000D01*
X145499999Y-101242857D01*
X145499999Y-102028571D01*
X145499999Y-101242857D02*
X145571428Y-101100000D01*
X145714285Y-101028571D01*
X145928570Y-101028571D01*
X146071428Y-101100000D01*
X146142856Y-101242857D01*
X146142856Y-102028571D01*
X100000000Y-102700000D02*
X180000000Y-102700000D01*
X100000000Y-110000000D02*
X100000000Y-100000000D01*
X180000000Y-110000000D02*
X180000000Y-100000000D01*
X180000000Y-102700000D02*
X178873496Y-103286421D01*
X180000000Y-102700000D02*
X178873496Y-102113579D01*
X100000000Y-102700000D02*
X101126504Y-103286421D01*
X100000000Y-102700000D02*
X101126504Y-102113579D01*
X91271429Y-125500001D02*
X90271429Y-125500001D01*
X91842857Y-125142858D02*
X90771429Y-124785715D01*
X90771429Y-125714287D01*
X91628571Y-126214286D02*
X91700000Y-126285715D01*
X91771429Y-126428572D01*
X91771429Y-126785715D01*
X91700000Y-126928572D01*
X91628571Y-127000001D01*
X91485714Y-127071429D01*
X91342857Y-127071429D01*
X91128571Y-127000001D01*
X90271429Y-126142858D01*
X90271429Y-127071429D01*
X90414286Y-127714286D02*
X90342857Y-127785714D01*
X90271429Y-127714286D01*
X90342857Y-127642857D01*
X90414286Y-127714286D01*
X90271429Y-127714286D01*
X91771429Y-128714286D02*
X91771429Y-128857143D01*
X91700000Y-129000000D01*
X91628571Y-129071429D01*
X91485714Y-129142858D01*
X91200000Y-129214286D01*
X90842857Y-129214286D01*
X90557143Y-129142858D01*
X90414286Y-129071429D01*
X90342857Y-129000000D01*
X90271429Y-128857143D01*
X90271429Y-128714286D01*
X90342857Y-128571429D01*
X90414286Y-128500000D01*
X90557143Y-128428572D01*
X90842857Y-128357143D01*
X91200000Y-128357143D01*
X91485714Y-128428572D01*
X91628571Y-128500000D01*
X91700000Y-128571429D01*
X91771429Y-128714286D01*
X91771429Y-130142857D02*
X91771429Y-130285714D01*
X91700000Y-130428571D01*
X91628571Y-130500000D01*
X91485714Y-130571429D01*
X91200000Y-130642857D01*
X90842857Y-130642857D01*
X90557143Y-130571429D01*
X90414286Y-130500000D01*
X90342857Y-130428571D01*
X90271429Y-130285714D01*
X90271429Y-130142857D01*
X90342857Y-130000000D01*
X90414286Y-129928571D01*
X90557143Y-129857143D01*
X90842857Y-129785714D01*
X91200000Y-129785714D01*
X91485714Y-129857143D01*
X91628571Y-129928571D01*
X91700000Y-130000000D01*
X91771429Y-130142857D01*
X91771429Y-131571428D02*
X91771429Y-131714285D01*
X91700000Y-131857142D01*
X91628571Y-131928571D01*
X91485714Y-132000000D01*
X91200000Y-132071428D01*
X90842857Y-132071428D01*
X90557143Y-132000000D01*
X90414286Y-131928571D01*
X90342857Y-131857142D01*
X90271429Y-131714285D01*
X90271429Y-131571428D01*
X90342857Y-131428571D01*
X90414286Y-131357142D01*
X90557143Y-131285714D01*
X90842857Y-131214285D01*
X91200000Y-131214285D01*
X91485714Y-131285714D01*
X91628571Y-131357142D01*
X91700000Y-131428571D01*
X91771429Y-131571428D01*
X90271429Y-133857142D02*
X91271429Y-133857142D01*
X91128571Y-133857142D02*
X91200000Y-133928570D01*
X91271429Y-134071428D01*
X91271429Y-134285713D01*
X91200000Y-134428570D01*
X91057143Y-134499999D01*
X90271429Y-134499999D01*
X91057143Y-134499999D02*
X91200000Y-134571428D01*
X91271429Y-134714285D01*
X91271429Y-134928570D01*
X91200000Y-135071428D01*
X91057143Y-135142856D01*
X90271429Y-135142856D01*
X90271429Y-135857142D02*
X91271429Y-135857142D01*
X91128571Y-135857142D02*
X91200000Y-135928570D01*
X91271429Y-136071428D01*
X91271429Y-136285713D01*
X91200000Y-136428570D01*
X91057143Y-136499999D01*
X90271429Y-136499999D01*
X91057143Y-136499999D02*
X91200000Y-136571428D01*
X91271429Y-136714285D01*
X91271429Y-136928570D01*
X91200000Y-137071428D01*
X91057143Y-137142856D01*
X90271429Y-137142856D01*
X92300000Y-110000000D02*
X92300000Y-152000000D01*
X100000000Y-110000000D02*
X89600000Y-110000000D01*
X100000000Y-152000000D02*
X89600000Y-152000000D01*
X92300000Y-152000000D02*
X91713579Y-150873496D01*
X92300000Y-152000000D02*
X92886421Y-150873496D01*
X92300000Y-110000000D02*
X91713579Y-111126504D01*
X92300000Y-110000000D02*
X92886421Y-111126504D01*
X197751429Y-125508430D02*
X197751429Y-124794144D01*
X197037143Y-124722715D01*
X197108571Y-124794144D01*
X197180000Y-124937001D01*
X197180000Y-125294144D01*
X197108571Y-125437001D01*
X197037143Y-125508430D01*
X196894286Y-125579858D01*
X196537143Y-125579858D01*
X196394286Y-125508430D01*
X196322857Y-125437001D01*
X196251429Y-125294144D01*
X196251429Y-124937001D01*
X196322857Y-124794144D01*
X196394286Y-124722715D01*
X197751429Y-126508429D02*
X197751429Y-126651286D01*
X197680000Y-126794143D01*
X197608571Y-126865572D01*
X197465714Y-126937001D01*
X197180000Y-127008429D01*
X196822857Y-127008429D01*
X196537143Y-126937001D01*
X196394286Y-126865572D01*
X196322857Y-126794143D01*
X196251429Y-126651286D01*
X196251429Y-126508429D01*
X196322857Y-126365572D01*
X196394286Y-126294143D01*
X196537143Y-126222715D01*
X196822857Y-126151286D01*
X197180000Y-126151286D01*
X197465714Y-126222715D01*
X197608571Y-126294143D01*
X197680000Y-126365572D01*
X197751429Y-126508429D01*
X196394286Y-127651286D02*
X196322857Y-127722714D01*
X196251429Y-127651286D01*
X196322857Y-127579857D01*
X196394286Y-127651286D01*
X196251429Y-127651286D01*
X197751429Y-128651286D02*
X197751429Y-128794143D01*
X197680000Y-128937000D01*
X197608571Y-129008429D01*
X197465714Y-129079858D01*
X197180000Y-129151286D01*
X196822857Y-129151286D01*
X196537143Y-129079858D01*
X196394286Y-129008429D01*
X196322857Y-128937000D01*
X196251429Y-128794143D01*
X196251429Y-128651286D01*
X196322857Y-128508429D01*
X196394286Y-128437000D01*
X196537143Y-128365572D01*
X196822857Y-128294143D01*
X197180000Y-128294143D01*
X197465714Y-128365572D01*
X197608571Y-128437000D01*
X197680000Y-128508429D01*
X197751429Y-128651286D01*
X197751429Y-129651286D02*
X197751429Y-130579857D01*
X197180000Y-130079857D01*
X197180000Y-130294143D01*
X197108571Y-130437000D01*
X197037143Y-130508429D01*
X196894286Y-130579857D01*
X196537143Y-130579857D01*
X196394286Y-130508429D01*
X196322857Y-130437000D01*
X196251429Y-130294143D01*
X196251429Y-129865571D01*
X196322857Y-129722714D01*
X196394286Y-129651286D01*
X197108571Y-131437000D02*
X197180000Y-131294142D01*
X197251429Y-131222714D01*
X197394286Y-131151285D01*
X197465714Y-131151285D01*
X197608571Y-131222714D01*
X197680000Y-131294142D01*
X197751429Y-131437000D01*
X197751429Y-131722714D01*
X197680000Y-131865571D01*
X197608571Y-131937000D01*
X197465714Y-132008428D01*
X197394286Y-132008428D01*
X197251429Y-131937000D01*
X197180000Y-131865571D01*
X197108571Y-131722714D01*
X197108571Y-131437000D01*
X197037143Y-131294142D01*
X196965714Y-131222714D01*
X196822857Y-131151285D01*
X196537143Y-131151285D01*
X196394286Y-131222714D01*
X196322857Y-131294142D01*
X196251429Y-131437000D01*
X196251429Y-131722714D01*
X196322857Y-131865571D01*
X196394286Y-131937000D01*
X196537143Y-132008428D01*
X196822857Y-132008428D01*
X196965714Y-131937000D01*
X197037143Y-131865571D01*
X197108571Y-131722714D01*
X196251429Y-133794142D02*
X197251429Y-133794142D01*
X197108571Y-133794142D02*
X197180000Y-133865570D01*
X197251429Y-134008428D01*
X197251429Y-134222713D01*
X197180000Y-134365570D01*
X197037143Y-134436999D01*
X196251429Y-134436999D01*
X197037143Y-134436999D02*
X197180000Y-134508428D01*
X197251429Y-134651285D01*
X197251429Y-134865570D01*
X197180000Y-135008428D01*
X197037143Y-135079856D01*
X196251429Y-135079856D01*
X196251429Y-135794142D02*
X197251429Y-135794142D01*
X197108571Y-135794142D02*
X197180000Y-135865570D01*
X197251429Y-136008428D01*
X197251429Y-136222713D01*
X197180000Y-136365570D01*
X197037143Y-136436999D01*
X196251429Y-136436999D01*
X197037143Y-136436999D02*
X197180000Y-136508428D01*
X197251429Y-136651285D01*
X197251429Y-136865570D01*
X197180000Y-137008428D01*
X197037143Y-137079856D01*
X196251429Y-137079856D01*
X195580000Y-105918000D02*
X195580000Y-155956000D01*
X187706000Y-105918000D02*
X198280000Y-105918000D01*
X187706000Y-155956000D02*
X198280000Y-155956000D01*
X195580000Y-155956000D02*
X194993579Y-154829496D01*
X195580000Y-155956000D02*
X196166421Y-154829496D01*
X195580000Y-105918000D02*
X194993579Y-107044504D01*
X195580000Y-105918000D02*
X196166421Y-107044504D01*
M02*
