G04 #@! TF.FileFunction,Copper,L1,Top,Signal*
%FSLAX46Y46*%
G04 Gerber Fmt 4.6, Leading zero omitted, Abs format (unit mm)*
G04 Created by KiCad (PCBNEW 4.0.6) date 2017 August 07, Monday 14:19:28*
%MOMM*%
%LPD*%
G01*
G04 APERTURE LIST*
%ADD10C,0.100000*%
%ADD11R,2.100000X3.600000*%
%ADD12O,2.100000X3.600000*%
%ADD13R,1.600000X2.400000*%
%ADD14O,1.600000X2.400000*%
%ADD15R,1.600000X1.600000*%
%ADD16C,1.600000*%
%ADD17C,1.620000*%
%ADD18R,1.100000X1.100000*%
%ADD19R,1.500000X1.500000*%
%ADD20C,7.500000*%
G04 APERTURE END LIST*
D10*
D11*
X73914000Y-147574000D03*
D12*
X78914000Y-147574000D03*
X83914000Y-147574000D03*
D11*
X93218000Y-147574000D03*
D12*
X98218000Y-147574000D03*
X103218000Y-147574000D03*
X108218000Y-147574000D03*
D11*
X117602000Y-147574000D03*
D12*
X122602000Y-147574000D03*
D13*
X95504000Y-105918000D03*
D14*
X103124000Y-98298000D03*
X98044000Y-105918000D03*
X100584000Y-98298000D03*
X100584000Y-105918000D03*
X98044000Y-98298000D03*
X103124000Y-105918000D03*
X95504000Y-98298000D03*
D13*
X119126000Y-106172000D03*
D14*
X126746000Y-98552000D03*
X121666000Y-106172000D03*
X124206000Y-98552000D03*
X124206000Y-106172000D03*
X121666000Y-98552000D03*
X126746000Y-106172000D03*
X119126000Y-98552000D03*
D13*
X71120000Y-105918000D03*
D14*
X78740000Y-98298000D03*
X73660000Y-105918000D03*
X76200000Y-98298000D03*
X76200000Y-105918000D03*
X73660000Y-98298000D03*
X78740000Y-105918000D03*
X71120000Y-98298000D03*
D15*
X67310000Y-138557000D03*
D16*
X64810000Y-138557000D03*
D15*
X84328000Y-139192000D03*
D16*
X86828000Y-139192000D03*
D17*
X78740000Y-118030000D03*
X73740000Y-115530000D03*
X78740000Y-113030000D03*
X103124000Y-118030000D03*
X98124000Y-115530000D03*
X103124000Y-113030000D03*
X126746000Y-118284000D03*
X121746000Y-115784000D03*
X126746000Y-113284000D03*
D18*
X90868000Y-131572000D03*
X90868000Y-126492000D03*
X90868000Y-129032000D03*
D19*
X103568000Y-135382000D03*
X101028000Y-135382000D03*
X98488000Y-135382000D03*
X103568000Y-122682000D03*
X101028000Y-122682000D03*
X98488000Y-122682000D03*
D18*
X114744000Y-131572000D03*
X114744000Y-126492000D03*
X114744000Y-129032000D03*
D19*
X127444000Y-135382000D03*
X124904000Y-135382000D03*
X122364000Y-135382000D03*
X127444000Y-122682000D03*
X124904000Y-122682000D03*
X122364000Y-122682000D03*
D18*
X66738000Y-131572000D03*
X66738000Y-126492000D03*
X66738000Y-129032000D03*
D19*
X79438000Y-135382000D03*
X76898000Y-135382000D03*
X74358000Y-135382000D03*
X79438000Y-122682000D03*
X76898000Y-122682000D03*
X74358000Y-122682000D03*
D20*
X56000000Y-94000000D03*
X139000000Y-94000000D03*
X56000000Y-152000000D03*
X139000000Y-152000000D03*
M02*
