G04 #@! TF.FileFunction,Copper,L2,Bot,Mixed*
%FSLAX46Y46*%
G04 Gerber Fmt 4.6, Leading zero omitted, Abs format (unit mm)*
G04 Created by KiCad (PCBNEW 4.0.6) date 2017 August 07, Monday 14:19:28*
%MOMM*%
%LPD*%
G01*
G04 APERTURE LIST*
%ADD10C,0.100000*%
%ADD11R,2.100000X3.600000*%
%ADD12O,2.100000X3.600000*%
%ADD13R,1.600000X2.000000*%
%ADD14R,2.000000X1.600000*%
%ADD15R,1.600000X2.400000*%
%ADD16O,1.600000X2.400000*%
%ADD17R,1.700000X2.000000*%
%ADD18R,2.000000X1.700000*%
%ADD19R,1.600000X1.600000*%
%ADD20C,1.600000*%
%ADD21C,1.620000*%
%ADD22R,1.100000X1.100000*%
%ADD23R,1.500000X1.500000*%
%ADD24C,7.500000*%
%ADD25C,0.500000*%
%ADD26C,0.254000*%
G04 APERTURE END LIST*
D10*
D11*
X73914000Y-147574000D03*
D12*
X78914000Y-147574000D03*
X83914000Y-147574000D03*
D11*
X93218000Y-147574000D03*
D12*
X98218000Y-147574000D03*
X103218000Y-147574000D03*
X108218000Y-147574000D03*
D11*
X117602000Y-147574000D03*
D12*
X122602000Y-147574000D03*
D13*
X76047600Y-142792200D03*
X76047600Y-138792200D03*
D14*
X65500000Y-148590000D03*
X61500000Y-148590000D03*
D13*
X130556000Y-100362000D03*
X130556000Y-104362000D03*
X106680000Y-100108000D03*
X106680000Y-104108000D03*
X82296000Y-100108000D03*
X82296000Y-104108000D03*
D15*
X95504000Y-105918000D03*
D16*
X103124000Y-98298000D03*
X98044000Y-105918000D03*
X100584000Y-98298000D03*
X100584000Y-105918000D03*
X98044000Y-98298000D03*
X103124000Y-105918000D03*
X95504000Y-98298000D03*
D15*
X119126000Y-106172000D03*
D16*
X126746000Y-98552000D03*
X121666000Y-106172000D03*
X124206000Y-98552000D03*
X124206000Y-106172000D03*
X121666000Y-98552000D03*
X126746000Y-106172000D03*
X119126000Y-98552000D03*
D15*
X71120000Y-105918000D03*
D16*
X78740000Y-98298000D03*
X73660000Y-105918000D03*
X76200000Y-98298000D03*
X76200000Y-105918000D03*
X73660000Y-98298000D03*
X78740000Y-105918000D03*
X71120000Y-98298000D03*
D17*
X65786000Y-108490000D03*
X65786000Y-112490000D03*
X90932000Y-109252000D03*
X90932000Y-113252000D03*
X119126000Y-109379000D03*
X119126000Y-113379000D03*
X84836000Y-100108000D03*
X84836000Y-104108000D03*
X82296000Y-115030000D03*
X82296000Y-111030000D03*
X109220000Y-100108000D03*
X109220000Y-104108000D03*
X106680000Y-115030000D03*
X106680000Y-111030000D03*
X133096000Y-100362000D03*
X133096000Y-104362000D03*
X130556000Y-115284000D03*
X130556000Y-111284000D03*
X68834000Y-112490000D03*
X68834000Y-108490000D03*
X93980000Y-113252000D03*
X93980000Y-109252000D03*
X115570000Y-113379000D03*
X115570000Y-109379000D03*
X93218000Y-155924000D03*
X93218000Y-151924000D03*
X98298000Y-155924000D03*
X98298000Y-151924000D03*
X103378000Y-155924000D03*
X103378000Y-151924000D03*
D18*
X75990200Y-152679400D03*
X71990200Y-152679400D03*
D17*
X128016000Y-147098000D03*
X128016000Y-151098000D03*
D19*
X67310000Y-138557000D03*
D20*
X64810000Y-138557000D03*
D19*
X84328000Y-139192000D03*
D20*
X86828000Y-139192000D03*
D18*
X69437000Y-155194000D03*
X65437000Y-155194000D03*
X130651000Y-155702000D03*
X126651000Y-155702000D03*
D21*
X78740000Y-118030000D03*
X73740000Y-115530000D03*
X78740000Y-113030000D03*
X103124000Y-118030000D03*
X98124000Y-115530000D03*
X103124000Y-113030000D03*
X126746000Y-118284000D03*
X121746000Y-115784000D03*
X126746000Y-113284000D03*
D18*
X87090000Y-155702000D03*
X83090000Y-155702000D03*
X79026000Y-152654000D03*
X83026000Y-152654000D03*
D22*
X90868000Y-131572000D03*
X90868000Y-126492000D03*
X90868000Y-129032000D03*
D23*
X103568000Y-135382000D03*
X101028000Y-135382000D03*
X98488000Y-135382000D03*
X103568000Y-122682000D03*
X101028000Y-122682000D03*
X98488000Y-122682000D03*
D22*
X114744000Y-131572000D03*
X114744000Y-126492000D03*
X114744000Y-129032000D03*
D23*
X127444000Y-135382000D03*
X124904000Y-135382000D03*
X122364000Y-135382000D03*
X127444000Y-122682000D03*
X124904000Y-122682000D03*
X122364000Y-122682000D03*
D22*
X66738000Y-131572000D03*
X66738000Y-126492000D03*
X66738000Y-129032000D03*
D23*
X79438000Y-135382000D03*
X76898000Y-135382000D03*
X74358000Y-135382000D03*
X79438000Y-122682000D03*
X76898000Y-122682000D03*
X74358000Y-122682000D03*
D24*
X56000000Y-94000000D03*
X139000000Y-94000000D03*
X56000000Y-152000000D03*
X139000000Y-152000000D03*
D25*
X65437000Y-155194000D02*
X65437000Y-148653000D01*
X65437000Y-148653000D02*
X65500000Y-148590000D01*
X73914000Y-147574000D02*
X73914000Y-144526000D01*
X73914000Y-144526000D02*
X67564000Y-138176000D01*
X65564000Y-148590000D02*
X65564000Y-140176000D01*
X65564000Y-140176000D02*
X67564000Y-138176000D01*
X64516000Y-98298000D02*
X71120000Y-98298000D01*
X59944000Y-102870000D02*
X64516000Y-98298000D01*
X59944000Y-131064000D02*
X59944000Y-102870000D01*
X67564000Y-138684000D02*
X59944000Y-131064000D01*
X130556000Y-100362000D02*
X133096000Y-100362000D01*
X106680000Y-100108000D02*
X109220000Y-100108000D01*
X109220000Y-100108000D02*
X117570000Y-100108000D01*
X117570000Y-100108000D02*
X119126000Y-98552000D01*
X85598000Y-100108000D02*
X93694000Y-100108000D01*
X93694000Y-100108000D02*
X95504000Y-98298000D01*
X82296000Y-100108000D02*
X72930000Y-100108000D01*
X72930000Y-100108000D02*
X71120000Y-98298000D01*
X85598000Y-100108000D02*
X82296000Y-100108000D01*
X106680000Y-100108000D02*
X97314000Y-100108000D01*
X97314000Y-100108000D02*
X95504000Y-98298000D01*
X130556000Y-100362000D02*
X120936000Y-100362000D01*
X120936000Y-100362000D02*
X119126000Y-98552000D01*
X87090000Y-155702000D02*
X87090000Y-150844000D01*
X86614000Y-150368000D02*
X86614000Y-150274000D01*
X87090000Y-150844000D02*
X86614000Y-150368000D01*
X76047600Y-138792200D02*
X79520800Y-138792200D01*
X86828000Y-136993000D02*
X86828000Y-139192000D01*
X85852000Y-136017000D02*
X86828000Y-136993000D01*
X82296000Y-136017000D02*
X85852000Y-136017000D01*
X79520800Y-138792200D02*
X82296000Y-136017000D01*
X83914000Y-147574000D02*
X83914000Y-142106000D01*
X83914000Y-142106000D02*
X86828000Y-139192000D01*
X76047600Y-138792200D02*
X74149200Y-138792200D01*
X78740000Y-102870000D02*
X78740000Y-105918000D01*
X78105000Y-102235000D02*
X78740000Y-102870000D01*
X64389000Y-102235000D02*
X78105000Y-102235000D01*
X62611000Y-104013000D02*
X64389000Y-102235000D01*
X62611000Y-130937000D02*
X62611000Y-104013000D01*
X66802000Y-135128000D02*
X62611000Y-130937000D01*
X70485000Y-135128000D02*
X66802000Y-135128000D01*
X74149200Y-138792200D02*
X70485000Y-135128000D01*
X86836000Y-150496000D02*
X86614000Y-150274000D01*
X86614000Y-150274000D02*
X83914000Y-147574000D01*
X103124000Y-105918000D02*
X103124000Y-102616000D01*
X83312000Y-102108000D02*
X82296000Y-103124000D01*
X85852000Y-102108000D02*
X83312000Y-102108000D01*
X86614000Y-101346000D02*
X85852000Y-102108000D01*
X101854000Y-101346000D02*
X86614000Y-101346000D01*
X103124000Y-102616000D02*
X101854000Y-101346000D01*
X82296000Y-103124000D02*
X82296000Y-104108000D01*
X82296000Y-104108000D02*
X82296000Y-103124000D01*
X106680000Y-104108000D02*
X106680000Y-103124000D01*
X106680000Y-103124000D02*
X107696000Y-102108000D01*
X126746000Y-104394000D02*
X126746000Y-106172000D01*
X126492000Y-104140000D02*
X126746000Y-104394000D01*
X112776000Y-104140000D02*
X126492000Y-104140000D01*
X110744000Y-102108000D02*
X112776000Y-104140000D01*
X107696000Y-102108000D02*
X110744000Y-102108000D01*
X82296000Y-104108000D02*
X82296000Y-103632000D01*
X82296000Y-104108000D02*
X82296000Y-110776000D01*
X126746000Y-106172000D02*
X128746000Y-106172000D01*
X128746000Y-106172000D02*
X130556000Y-104362000D01*
X130556000Y-111284000D02*
X130556000Y-104362000D01*
X106680000Y-110776000D02*
X106680000Y-104108000D01*
X78740000Y-105918000D02*
X80486000Y-105918000D01*
X80486000Y-105918000D02*
X82296000Y-104108000D01*
X103124000Y-105918000D02*
X104870000Y-105918000D01*
X104870000Y-105918000D02*
X106680000Y-104108000D01*
X130556000Y-104362000D02*
X131350000Y-104362000D01*
X66738000Y-131572000D02*
X84582000Y-131572000D01*
X91821000Y-153924000D02*
X96393000Y-153924000D01*
X90678000Y-152781000D02*
X91821000Y-153924000D01*
X90678000Y-137668000D02*
X90678000Y-152781000D01*
X84582000Y-131572000D02*
X90678000Y-137668000D01*
X117602000Y-147574000D02*
X116586000Y-147574000D01*
X116586000Y-147574000D02*
X110109000Y-154051000D01*
X95631000Y-136335000D02*
X90868000Y-131572000D01*
X95631000Y-153162000D02*
X95631000Y-136335000D01*
X96520000Y-154051000D02*
X96393000Y-153924000D01*
X96393000Y-153924000D02*
X95631000Y-153162000D01*
X110109000Y-154051000D02*
X96520000Y-154051000D01*
X117602000Y-147574000D02*
X117602000Y-134430000D01*
X117602000Y-134430000D02*
X114744000Y-131572000D01*
X126723140Y-155702000D02*
X118872000Y-155702000D01*
X118872000Y-155702000D02*
X117602000Y-154432000D01*
X117602000Y-154432000D02*
X117602000Y-147574000D01*
X71120000Y-105918000D02*
X71120000Y-107950000D01*
X70580000Y-108490000D02*
X68834000Y-108490000D01*
X71120000Y-107950000D02*
X70580000Y-108490000D01*
X65786000Y-108490000D02*
X68834000Y-108490000D01*
X73660000Y-105918000D02*
X71120000Y-105918000D01*
X66738000Y-126492000D02*
X66738000Y-113442000D01*
X66738000Y-113442000D02*
X65786000Y-112490000D01*
X90868000Y-126492000D02*
X90868000Y-113316000D01*
X90868000Y-113316000D02*
X90932000Y-113252000D01*
X119126000Y-109252000D02*
X116078000Y-109252000D01*
X119126000Y-106172000D02*
X119126000Y-109252000D01*
X121666000Y-106172000D02*
X119126000Y-106172000D01*
X109220000Y-104108000D02*
X109220000Y-111760000D01*
X107950000Y-113030000D02*
X103124000Y-113030000D01*
X109220000Y-111760000D02*
X107950000Y-113030000D01*
X133096000Y-104362000D02*
X133096000Y-112268000D01*
X132080000Y-113284000D02*
X126746000Y-113284000D01*
X133096000Y-112268000D02*
X132080000Y-113284000D01*
X133350000Y-104362000D02*
X133350000Y-103378000D01*
X126746000Y-118284000D02*
X129543800Y-118284000D01*
X130556000Y-117271800D02*
X130556000Y-115284000D01*
X129543800Y-118284000D02*
X130556000Y-117271800D01*
X73740000Y-115530000D02*
X73740000Y-111908600D01*
X76200000Y-109448600D02*
X76200000Y-105918000D01*
X73740000Y-111908600D02*
X76200000Y-109448600D01*
X121746000Y-115784000D02*
X121746000Y-114067600D01*
X124206000Y-111607600D02*
X124206000Y-106172000D01*
X121746000Y-114067600D02*
X124206000Y-111607600D01*
X98124000Y-115530000D02*
X98124000Y-112315000D01*
X100584000Y-109855000D02*
X100584000Y-105918000D01*
X98124000Y-112315000D02*
X100584000Y-109855000D01*
X68834000Y-112490000D02*
X68834000Y-117983000D01*
X93218000Y-137414000D02*
X93218000Y-147574000D01*
X88265000Y-132461000D02*
X93218000Y-137414000D01*
X88265000Y-122428000D02*
X88265000Y-132461000D01*
X86487000Y-120650000D02*
X88265000Y-122428000D01*
X71501000Y-120650000D02*
X86487000Y-120650000D01*
X68834000Y-117983000D02*
X71501000Y-120650000D01*
X93218000Y-147574000D02*
X93218000Y-151924000D01*
X93980000Y-113252000D02*
X93980000Y-118110000D01*
X98218000Y-145241000D02*
X98218000Y-147574000D01*
X109601000Y-133858000D02*
X98218000Y-145241000D01*
X109601000Y-123190000D02*
X109601000Y-133858000D01*
X106934000Y-120523000D02*
X109601000Y-123190000D01*
X96393000Y-120523000D02*
X106934000Y-120523000D01*
X93980000Y-118110000D02*
X96393000Y-120523000D01*
X98218000Y-147574000D02*
X98218000Y-147494000D01*
X98218000Y-147574000D02*
X98218000Y-151844000D01*
X98218000Y-151844000D02*
X98298000Y-151924000D01*
X98298000Y-147494000D02*
X98218000Y-147574000D01*
X98044000Y-147400000D02*
X98218000Y-147574000D01*
X103218000Y-147574000D02*
X103218000Y-145321000D01*
X111633000Y-117316000D02*
X115570000Y-113379000D01*
X111633000Y-136906000D02*
X111633000Y-117316000D01*
X103218000Y-145321000D02*
X111633000Y-136906000D01*
X115570000Y-113379000D02*
X115570000Y-113792000D01*
X103218000Y-147574000D02*
X103218000Y-151764000D01*
X103218000Y-151764000D02*
X103378000Y-151924000D01*
X103124000Y-147480000D02*
X103218000Y-147574000D01*
X90932000Y-109252000D02*
X93980000Y-109252000D01*
X93980000Y-109252000D02*
X93980000Y-107442000D01*
X93980000Y-107442000D02*
X95504000Y-105918000D01*
X98044000Y-105918000D02*
X95504000Y-105918000D01*
X114744000Y-126492000D02*
X114744000Y-121730000D01*
X119126000Y-117348000D02*
X119126000Y-113379000D01*
X114744000Y-121730000D02*
X119126000Y-117348000D01*
X84836000Y-104108000D02*
X84836000Y-111506000D01*
X83312000Y-113030000D02*
X78740000Y-113030000D01*
X84836000Y-111506000D02*
X83312000Y-113030000D01*
X78740000Y-118030000D02*
X81360000Y-118030000D01*
X82296000Y-117094000D02*
X82296000Y-115030000D01*
X81360000Y-118030000D02*
X82296000Y-117094000D01*
X103124000Y-118030000D02*
X105312200Y-118030000D01*
X106680000Y-116662200D02*
X106680000Y-115030000D01*
X105312200Y-118030000D02*
X106680000Y-116662200D01*
X69564000Y-155067000D02*
X69564000Y-153702000D01*
X69564000Y-153702000D02*
X70586600Y-152679400D01*
X70586600Y-152679400D02*
X71990200Y-152679400D01*
X69564000Y-155067000D02*
X69437000Y-155194000D01*
X130651000Y-155702000D02*
X130651000Y-153892000D01*
X130175000Y-153416000D02*
X130175000Y-153257000D01*
X130651000Y-153892000D02*
X130175000Y-153416000D01*
X130451860Y-153533860D02*
X130175000Y-153257000D01*
X130175000Y-153257000D02*
X128016000Y-151098000D01*
X83090000Y-155702000D02*
X83090000Y-152718000D01*
X83090000Y-152718000D02*
X83026000Y-152654000D01*
D26*
G36*
X140761025Y-89983234D02*
X139876057Y-89615763D01*
X138131596Y-89614241D01*
X136519342Y-90280410D01*
X135284746Y-91512854D01*
X134615763Y-93123943D01*
X134614241Y-94868404D01*
X135280410Y-96480658D01*
X136512854Y-97715254D01*
X138123943Y-98384237D01*
X139868404Y-98385759D01*
X141480658Y-97719590D01*
X142715254Y-96487146D01*
X143384237Y-94876057D01*
X143385758Y-93132914D01*
X144315000Y-94248004D01*
X144315000Y-151751996D01*
X143384243Y-152868904D01*
X143385759Y-151131596D01*
X142719590Y-149519342D01*
X141487146Y-148284746D01*
X139876057Y-147615763D01*
X138131596Y-147614241D01*
X136519342Y-148280410D01*
X135284746Y-149512854D01*
X134615763Y-151123943D01*
X134614241Y-152868404D01*
X135280410Y-154480658D01*
X136512854Y-155715254D01*
X138123943Y-156384237D01*
X139868404Y-156385759D01*
X140760809Y-156017025D01*
X139679163Y-157315000D01*
X104735025Y-157315000D01*
X104766327Y-157283698D01*
X104863000Y-157050309D01*
X104863000Y-156209750D01*
X104704250Y-156051000D01*
X103505000Y-156051000D01*
X103505000Y-156071000D01*
X103251000Y-156071000D01*
X103251000Y-156051000D01*
X102051750Y-156051000D01*
X101893000Y-156209750D01*
X101893000Y-157050309D01*
X101989673Y-157283698D01*
X102020975Y-157315000D01*
X99655025Y-157315000D01*
X99686327Y-157283698D01*
X99783000Y-157050309D01*
X99783000Y-156209750D01*
X99624250Y-156051000D01*
X98425000Y-156051000D01*
X98425000Y-156071000D01*
X98171000Y-156071000D01*
X98171000Y-156051000D01*
X96971750Y-156051000D01*
X96813000Y-156209750D01*
X96813000Y-157050309D01*
X96909673Y-157283698D01*
X96940975Y-157315000D01*
X94575025Y-157315000D01*
X94606327Y-157283698D01*
X94703000Y-157050309D01*
X94703000Y-156209750D01*
X94544250Y-156051000D01*
X93345000Y-156051000D01*
X93345000Y-156071000D01*
X93091000Y-156071000D01*
X93091000Y-156051000D01*
X91891750Y-156051000D01*
X91733000Y-156209750D01*
X91733000Y-157050309D01*
X91829673Y-157283698D01*
X91860975Y-157315000D01*
X55320837Y-157315000D01*
X54238975Y-156016766D01*
X55123943Y-156384237D01*
X56868404Y-156385759D01*
X58480658Y-155719590D01*
X59715254Y-154487146D01*
X60384237Y-152876057D01*
X60385759Y-151131596D01*
X59719590Y-149519342D01*
X59077120Y-148875750D01*
X59865000Y-148875750D01*
X59865000Y-149516310D01*
X59961673Y-149749699D01*
X60140302Y-149928327D01*
X60373691Y-150025000D01*
X61214250Y-150025000D01*
X61373000Y-149866250D01*
X61373000Y-148717000D01*
X61627000Y-148717000D01*
X61627000Y-149866250D01*
X61785750Y-150025000D01*
X62626309Y-150025000D01*
X62859698Y-149928327D01*
X63038327Y-149749699D01*
X63135000Y-149516310D01*
X63135000Y-148875750D01*
X62976250Y-148717000D01*
X61627000Y-148717000D01*
X61373000Y-148717000D01*
X60023750Y-148717000D01*
X59865000Y-148875750D01*
X59077120Y-148875750D01*
X58487146Y-148284746D01*
X56991478Y-147663690D01*
X59865000Y-147663690D01*
X59865000Y-148304250D01*
X60023750Y-148463000D01*
X61373000Y-148463000D01*
X61373000Y-147313750D01*
X61627000Y-147313750D01*
X61627000Y-148463000D01*
X62976250Y-148463000D01*
X63135000Y-148304250D01*
X63135000Y-147663690D01*
X63038327Y-147430301D01*
X62859698Y-147251673D01*
X62626309Y-147155000D01*
X61785750Y-147155000D01*
X61627000Y-147313750D01*
X61373000Y-147313750D01*
X61214250Y-147155000D01*
X60373691Y-147155000D01*
X60140302Y-147251673D01*
X59961673Y-147430301D01*
X59865000Y-147663690D01*
X56991478Y-147663690D01*
X56876057Y-147615763D01*
X55131596Y-147614241D01*
X53519342Y-148280410D01*
X52284746Y-149512854D01*
X51615763Y-151123943D01*
X51614242Y-152867086D01*
X50685000Y-151751996D01*
X50685000Y-138340223D01*
X63363035Y-138340223D01*
X63390222Y-138910454D01*
X63556136Y-139311005D01*
X63802255Y-139385139D01*
X64630395Y-138557000D01*
X63802255Y-137728861D01*
X63556136Y-137802995D01*
X63363035Y-138340223D01*
X50685000Y-138340223D01*
X50685000Y-102870000D01*
X59058999Y-102870000D01*
X59059000Y-102870005D01*
X59059000Y-131063995D01*
X59058999Y-131064000D01*
X59092681Y-131233325D01*
X59126367Y-131402675D01*
X59233352Y-131562790D01*
X59318210Y-131689790D01*
X64751576Y-137123156D01*
X64456546Y-137137222D01*
X64055995Y-137303136D01*
X63981861Y-137549255D01*
X64810000Y-138377395D01*
X64824143Y-138363253D01*
X65003748Y-138542858D01*
X64989605Y-138557000D01*
X65003748Y-138571142D01*
X64824142Y-138750748D01*
X64810000Y-138736605D01*
X63981861Y-139564745D01*
X64055995Y-139810864D01*
X64593223Y-140003965D01*
X64714369Y-139998189D01*
X64678999Y-140176000D01*
X64679000Y-140176005D01*
X64679000Y-147142560D01*
X64500000Y-147142560D01*
X64264683Y-147186838D01*
X64048559Y-147325910D01*
X63903569Y-147538110D01*
X63852560Y-147790000D01*
X63852560Y-149390000D01*
X63896838Y-149625317D01*
X64035910Y-149841441D01*
X64248110Y-149986431D01*
X64500000Y-150037440D01*
X64552000Y-150037440D01*
X64552000Y-153696560D01*
X64437000Y-153696560D01*
X64201683Y-153740838D01*
X63985559Y-153879910D01*
X63840569Y-154092110D01*
X63789560Y-154344000D01*
X63789560Y-156044000D01*
X63833838Y-156279317D01*
X63972910Y-156495441D01*
X64185110Y-156640431D01*
X64437000Y-156691440D01*
X66437000Y-156691440D01*
X66672317Y-156647162D01*
X66888441Y-156508090D01*
X67033431Y-156295890D01*
X67084440Y-156044000D01*
X67084440Y-154344000D01*
X67789560Y-154344000D01*
X67789560Y-156044000D01*
X67833838Y-156279317D01*
X67972910Y-156495441D01*
X68185110Y-156640431D01*
X68437000Y-156691440D01*
X70437000Y-156691440D01*
X70672317Y-156647162D01*
X70888441Y-156508090D01*
X71033431Y-156295890D01*
X71084440Y-156044000D01*
X71084440Y-154344000D01*
X71052987Y-154176840D01*
X72990200Y-154176840D01*
X73225517Y-154132562D01*
X73441641Y-153993490D01*
X73586631Y-153781290D01*
X73637640Y-153529400D01*
X73637640Y-152965150D01*
X74355200Y-152965150D01*
X74355200Y-153655710D01*
X74451873Y-153889099D01*
X74630502Y-154067727D01*
X74863891Y-154164400D01*
X75704450Y-154164400D01*
X75863200Y-154005650D01*
X75863200Y-152806400D01*
X76117200Y-152806400D01*
X76117200Y-154005650D01*
X76275950Y-154164400D01*
X77116509Y-154164400D01*
X77349898Y-154067727D01*
X77520800Y-153896826D01*
X77666302Y-154042327D01*
X77899691Y-154139000D01*
X78740250Y-154139000D01*
X78899000Y-153980250D01*
X78899000Y-152781000D01*
X79153000Y-152781000D01*
X79153000Y-153980250D01*
X79311750Y-154139000D01*
X80152309Y-154139000D01*
X80385698Y-154042327D01*
X80564327Y-153863699D01*
X80661000Y-153630310D01*
X80661000Y-152939750D01*
X80502250Y-152781000D01*
X79153000Y-152781000D01*
X78899000Y-152781000D01*
X77549750Y-152781000D01*
X77495400Y-152835350D01*
X77466450Y-152806400D01*
X76117200Y-152806400D01*
X75863200Y-152806400D01*
X74513950Y-152806400D01*
X74355200Y-152965150D01*
X73637640Y-152965150D01*
X73637640Y-151829400D01*
X73613874Y-151703090D01*
X74355200Y-151703090D01*
X74355200Y-152393650D01*
X74513950Y-152552400D01*
X75863200Y-152552400D01*
X75863200Y-151353150D01*
X76117200Y-151353150D01*
X76117200Y-152552400D01*
X77466450Y-152552400D01*
X77520800Y-152498050D01*
X77549750Y-152527000D01*
X78899000Y-152527000D01*
X78899000Y-151327750D01*
X79153000Y-151327750D01*
X79153000Y-152527000D01*
X80502250Y-152527000D01*
X80661000Y-152368250D01*
X80661000Y-151804000D01*
X81378560Y-151804000D01*
X81378560Y-153504000D01*
X81422838Y-153739317D01*
X81561910Y-153955441D01*
X81774110Y-154100431D01*
X82026000Y-154151440D01*
X82205000Y-154151440D01*
X82205000Y-154204560D01*
X82090000Y-154204560D01*
X81854683Y-154248838D01*
X81638559Y-154387910D01*
X81493569Y-154600110D01*
X81442560Y-154852000D01*
X81442560Y-156552000D01*
X81486838Y-156787317D01*
X81625910Y-157003441D01*
X81838110Y-157148431D01*
X82090000Y-157199440D01*
X84090000Y-157199440D01*
X84325317Y-157155162D01*
X84541441Y-157016090D01*
X84686431Y-156803890D01*
X84737440Y-156552000D01*
X84737440Y-154852000D01*
X84693162Y-154616683D01*
X84554090Y-154400559D01*
X84341890Y-154255569D01*
X84090000Y-154204560D01*
X83975000Y-154204560D01*
X83975000Y-154151440D01*
X84026000Y-154151440D01*
X84261317Y-154107162D01*
X84477441Y-153968090D01*
X84622431Y-153755890D01*
X84673440Y-153504000D01*
X84673440Y-151804000D01*
X84629162Y-151568683D01*
X84490090Y-151352559D01*
X84277890Y-151207569D01*
X84026000Y-151156560D01*
X82026000Y-151156560D01*
X81790683Y-151200838D01*
X81574559Y-151339910D01*
X81429569Y-151552110D01*
X81378560Y-151804000D01*
X80661000Y-151804000D01*
X80661000Y-151677690D01*
X80564327Y-151444301D01*
X80385698Y-151265673D01*
X80152309Y-151169000D01*
X79311750Y-151169000D01*
X79153000Y-151327750D01*
X78899000Y-151327750D01*
X78740250Y-151169000D01*
X77899691Y-151169000D01*
X77666302Y-151265673D01*
X77495400Y-151436574D01*
X77349898Y-151291073D01*
X77116509Y-151194400D01*
X76275950Y-151194400D01*
X76117200Y-151353150D01*
X75863200Y-151353150D01*
X75704450Y-151194400D01*
X74863891Y-151194400D01*
X74630502Y-151291073D01*
X74451873Y-151469701D01*
X74355200Y-151703090D01*
X73613874Y-151703090D01*
X73593362Y-151594083D01*
X73454290Y-151377959D01*
X73242090Y-151232969D01*
X72990200Y-151181960D01*
X70990200Y-151181960D01*
X70754883Y-151226238D01*
X70538759Y-151365310D01*
X70393769Y-151577510D01*
X70342760Y-151829400D01*
X70342760Y-151842903D01*
X70337245Y-151844000D01*
X70247925Y-151861767D01*
X69960810Y-152053610D01*
X69960808Y-152053613D01*
X68938210Y-153076210D01*
X68746367Y-153363325D01*
X68746367Y-153363326D01*
X68680081Y-153696560D01*
X68437000Y-153696560D01*
X68201683Y-153740838D01*
X67985559Y-153879910D01*
X67840569Y-154092110D01*
X67789560Y-154344000D01*
X67084440Y-154344000D01*
X67040162Y-154108683D01*
X66901090Y-153892559D01*
X66688890Y-153747569D01*
X66437000Y-153696560D01*
X66322000Y-153696560D01*
X66322000Y-150037440D01*
X66500000Y-150037440D01*
X66735317Y-149993162D01*
X66951441Y-149854090D01*
X67096431Y-149641890D01*
X67147440Y-149390000D01*
X67147440Y-147790000D01*
X67103162Y-147554683D01*
X66964090Y-147338559D01*
X66751890Y-147193569D01*
X66500000Y-147142560D01*
X66449000Y-147142560D01*
X66449000Y-140542580D01*
X66987140Y-140004440D01*
X68110000Y-140004440D01*
X68135973Y-139999553D01*
X73029000Y-144892579D01*
X73029000Y-145126560D01*
X72864000Y-145126560D01*
X72628683Y-145170838D01*
X72412559Y-145309910D01*
X72267569Y-145522110D01*
X72216560Y-145774000D01*
X72216560Y-149374000D01*
X72260838Y-149609317D01*
X72399910Y-149825441D01*
X72612110Y-149970431D01*
X72864000Y-150021440D01*
X74964000Y-150021440D01*
X75199317Y-149977162D01*
X75415441Y-149838090D01*
X75560431Y-149625890D01*
X75611440Y-149374000D01*
X75611440Y-147701000D01*
X77229000Y-147701000D01*
X77229000Y-148451000D01*
X77405864Y-149086154D01*
X77812328Y-149605277D01*
X78386511Y-149929337D01*
X78525721Y-149963654D01*
X78787000Y-149844957D01*
X78787000Y-147701000D01*
X79041000Y-147701000D01*
X79041000Y-149844957D01*
X79302279Y-149963654D01*
X79441489Y-149929337D01*
X80015672Y-149605277D01*
X80422136Y-149086154D01*
X80599000Y-148451000D01*
X80599000Y-147701000D01*
X79041000Y-147701000D01*
X78787000Y-147701000D01*
X77229000Y-147701000D01*
X75611440Y-147701000D01*
X75611440Y-146697000D01*
X77229000Y-146697000D01*
X77229000Y-147447000D01*
X78787000Y-147447000D01*
X78787000Y-145303043D01*
X79041000Y-145303043D01*
X79041000Y-147447000D01*
X80599000Y-147447000D01*
X80599000Y-146697000D01*
X80422136Y-146061846D01*
X80015672Y-145542723D01*
X79441489Y-145218663D01*
X79302279Y-145184346D01*
X79041000Y-145303043D01*
X78787000Y-145303043D01*
X78525721Y-145184346D01*
X78386511Y-145218663D01*
X77812328Y-145542723D01*
X77405864Y-146061846D01*
X77229000Y-146697000D01*
X75611440Y-146697000D01*
X75611440Y-145774000D01*
X75567162Y-145538683D01*
X75428090Y-145322559D01*
X75215890Y-145177569D01*
X74964000Y-145126560D01*
X74799000Y-145126560D01*
X74799000Y-144526005D01*
X74799001Y-144526000D01*
X74731633Y-144187325D01*
X74539790Y-143900210D01*
X74539787Y-143900208D01*
X73717530Y-143077950D01*
X74612600Y-143077950D01*
X74612600Y-143918509D01*
X74709273Y-144151898D01*
X74887901Y-144330527D01*
X75121290Y-144427200D01*
X75761850Y-144427200D01*
X75920600Y-144268450D01*
X75920600Y-142919200D01*
X76174600Y-142919200D01*
X76174600Y-144268450D01*
X76333350Y-144427200D01*
X76973910Y-144427200D01*
X77207299Y-144330527D01*
X77385927Y-144151898D01*
X77482600Y-143918509D01*
X77482600Y-143077950D01*
X77323850Y-142919200D01*
X76174600Y-142919200D01*
X75920600Y-142919200D01*
X74771350Y-142919200D01*
X74612600Y-143077950D01*
X73717530Y-143077950D01*
X72305471Y-141665891D01*
X74612600Y-141665891D01*
X74612600Y-142506450D01*
X74771350Y-142665200D01*
X75920600Y-142665200D01*
X75920600Y-141315950D01*
X76174600Y-141315950D01*
X76174600Y-142665200D01*
X77323850Y-142665200D01*
X77482600Y-142506450D01*
X77482600Y-141665891D01*
X77385927Y-141432502D01*
X77207299Y-141253873D01*
X76973910Y-141157200D01*
X76333350Y-141157200D01*
X76174600Y-141315950D01*
X75920600Y-141315950D01*
X75761850Y-141157200D01*
X75121290Y-141157200D01*
X74887901Y-141253873D01*
X74709273Y-141432502D01*
X74612600Y-141665891D01*
X72305471Y-141665891D01*
X68757440Y-138117860D01*
X68757440Y-137757000D01*
X68713162Y-137521683D01*
X68574090Y-137305559D01*
X68361890Y-137160569D01*
X68110000Y-137109560D01*
X67241139Y-137109560D01*
X60829000Y-130697420D01*
X60829000Y-103236580D01*
X64882579Y-99183000D01*
X69774322Y-99183000D01*
X69794233Y-99283101D01*
X70105302Y-99748648D01*
X70570849Y-100059717D01*
X71120000Y-100168950D01*
X71636610Y-100066190D01*
X72304208Y-100733787D01*
X72304210Y-100733790D01*
X72496054Y-100861975D01*
X72591326Y-100925634D01*
X72930000Y-100993001D01*
X72930005Y-100993000D01*
X80848560Y-100993000D01*
X80848560Y-101108000D01*
X80892838Y-101343317D01*
X81031910Y-101559441D01*
X81244110Y-101704431D01*
X81496000Y-101755440D01*
X82412981Y-101755440D01*
X81707860Y-102460560D01*
X81496000Y-102460560D01*
X81260683Y-102504838D01*
X81044559Y-102643910D01*
X80899569Y-102856110D01*
X80848560Y-103108000D01*
X80848560Y-104303861D01*
X80119420Y-105033000D01*
X80085678Y-105033000D01*
X80065767Y-104932899D01*
X79754698Y-104467352D01*
X79625000Y-104380690D01*
X79625000Y-102870005D01*
X79625001Y-102870000D01*
X79557634Y-102531326D01*
X79493975Y-102436054D01*
X79365790Y-102244210D01*
X79365787Y-102244208D01*
X78730790Y-101609210D01*
X78712991Y-101597317D01*
X78443675Y-101417367D01*
X78387484Y-101406190D01*
X78105000Y-101349999D01*
X78104995Y-101350000D01*
X64389005Y-101350000D01*
X64389000Y-101349999D01*
X64106516Y-101406190D01*
X64050325Y-101417367D01*
X63763210Y-101609210D01*
X63763208Y-101609213D01*
X61985210Y-103387210D01*
X61793367Y-103674325D01*
X61793367Y-103674326D01*
X61725999Y-104013000D01*
X61726000Y-104013005D01*
X61726000Y-130936995D01*
X61725999Y-130937000D01*
X61782190Y-131219484D01*
X61793367Y-131275675D01*
X61985210Y-131562790D01*
X66176208Y-135753787D01*
X66176210Y-135753790D01*
X66463325Y-135945633D01*
X66519516Y-135956810D01*
X66802000Y-136013001D01*
X66802005Y-136013000D01*
X70118420Y-136013000D01*
X73523408Y-139417987D01*
X73523410Y-139417990D01*
X73810525Y-139609833D01*
X74149200Y-139677200D01*
X74600160Y-139677200D01*
X74600160Y-139792200D01*
X74644438Y-140027517D01*
X74783510Y-140243641D01*
X74995710Y-140388631D01*
X75247600Y-140439640D01*
X76847600Y-140439640D01*
X77082917Y-140395362D01*
X77299041Y-140256290D01*
X77444031Y-140044090D01*
X77495040Y-139792200D01*
X77495040Y-139677200D01*
X79520795Y-139677200D01*
X79520800Y-139677201D01*
X79803284Y-139621010D01*
X79859475Y-139609833D01*
X80146590Y-139417990D01*
X80146591Y-139417989D01*
X81298889Y-138265690D01*
X82893000Y-138265690D01*
X82893000Y-138906250D01*
X83051750Y-139065000D01*
X84201000Y-139065000D01*
X84201000Y-137915750D01*
X84042250Y-137757000D01*
X83401691Y-137757000D01*
X83168302Y-137853673D01*
X82989673Y-138032301D01*
X82893000Y-138265690D01*
X81298889Y-138265690D01*
X82662579Y-136902000D01*
X85485420Y-136902000D01*
X85943000Y-137359579D01*
X85943000Y-138047829D01*
X85751813Y-138238683D01*
X85666327Y-138032301D01*
X85487698Y-137853673D01*
X85254309Y-137757000D01*
X84613750Y-137757000D01*
X84455000Y-137915750D01*
X84455000Y-139065000D01*
X84475000Y-139065000D01*
X84475000Y-139319000D01*
X84455000Y-139319000D01*
X84455000Y-139339000D01*
X84201000Y-139339000D01*
X84201000Y-139319000D01*
X83051750Y-139319000D01*
X82893000Y-139477750D01*
X82893000Y-140118310D01*
X82989673Y-140351699D01*
X83168302Y-140530327D01*
X83401691Y-140627000D01*
X84042250Y-140627000D01*
X84200998Y-140468252D01*
X84200998Y-140567422D01*
X83288210Y-141480210D01*
X83096367Y-141767325D01*
X83096367Y-141767326D01*
X83028999Y-142106000D01*
X83029000Y-142106005D01*
X83029000Y-145380041D01*
X82722525Y-145584821D01*
X82357263Y-146131474D01*
X82229000Y-146776296D01*
X82229000Y-148371704D01*
X82357263Y-149016526D01*
X82722525Y-149563179D01*
X83269178Y-149928441D01*
X83914000Y-150056704D01*
X84558822Y-149928441D01*
X84833397Y-149744976D01*
X85798926Y-150710506D01*
X85881893Y-150834674D01*
X85988210Y-150993790D01*
X86205000Y-151210580D01*
X86205000Y-154204560D01*
X86090000Y-154204560D01*
X85854683Y-154248838D01*
X85638559Y-154387910D01*
X85493569Y-154600110D01*
X85442560Y-154852000D01*
X85442560Y-156552000D01*
X85486838Y-156787317D01*
X85625910Y-157003441D01*
X85838110Y-157148431D01*
X86090000Y-157199440D01*
X88090000Y-157199440D01*
X88325317Y-157155162D01*
X88541441Y-157016090D01*
X88686431Y-156803890D01*
X88737440Y-156552000D01*
X88737440Y-154852000D01*
X88693162Y-154616683D01*
X88554090Y-154400559D01*
X88341890Y-154255569D01*
X88090000Y-154204560D01*
X87975000Y-154204560D01*
X87975000Y-150844005D01*
X87975001Y-150844000D01*
X87907633Y-150505326D01*
X87907633Y-150505325D01*
X87715790Y-150218210D01*
X87715787Y-150218208D01*
X87651073Y-150153494D01*
X87461789Y-149870210D01*
X87239790Y-149648210D01*
X87239787Y-149648208D01*
X85599000Y-148007420D01*
X85599000Y-146776296D01*
X85470737Y-146131474D01*
X85105475Y-145584821D01*
X84799000Y-145380041D01*
X84799000Y-142472580D01*
X86644739Y-140626840D01*
X87112187Y-140627248D01*
X87639800Y-140409243D01*
X88043824Y-140005923D01*
X88262750Y-139478691D01*
X88263248Y-138907813D01*
X88045243Y-138380200D01*
X87713000Y-138047377D01*
X87713000Y-136993000D01*
X87645633Y-136654325D01*
X87453790Y-136367210D01*
X87453787Y-136367208D01*
X86477790Y-135391210D01*
X86363733Y-135315000D01*
X86190675Y-135199367D01*
X86134484Y-135188190D01*
X85852000Y-135131999D01*
X85851995Y-135132000D01*
X82296000Y-135132000D01*
X81957325Y-135199367D01*
X81670210Y-135391210D01*
X81670208Y-135391213D01*
X80811576Y-136249845D01*
X80835440Y-136132000D01*
X80835440Y-134632000D01*
X80791162Y-134396683D01*
X80652090Y-134180559D01*
X80439890Y-134035569D01*
X80188000Y-133984560D01*
X78688000Y-133984560D01*
X78452683Y-134028838D01*
X78236559Y-134167910D01*
X78168266Y-134267860D01*
X78112090Y-134180559D01*
X77899890Y-134035569D01*
X77648000Y-133984560D01*
X76148000Y-133984560D01*
X75912683Y-134028838D01*
X75696559Y-134167910D01*
X75628266Y-134267860D01*
X75572090Y-134180559D01*
X75359890Y-134035569D01*
X75108000Y-133984560D01*
X73608000Y-133984560D01*
X73372683Y-134028838D01*
X73156559Y-134167910D01*
X73011569Y-134380110D01*
X72960560Y-134632000D01*
X72960560Y-136132000D01*
X73004838Y-136367317D01*
X73057075Y-136448495D01*
X71110790Y-134502210D01*
X71002719Y-134430000D01*
X70823675Y-134310367D01*
X70767484Y-134299190D01*
X70485000Y-134242999D01*
X70484995Y-134243000D01*
X67168579Y-134243000D01*
X63496000Y-130570420D01*
X63496000Y-129317750D01*
X65553000Y-129317750D01*
X65553000Y-129708310D01*
X65649673Y-129941699D01*
X65828302Y-130120327D01*
X66061691Y-130217000D01*
X66452250Y-130217000D01*
X66611000Y-130058250D01*
X66611000Y-129159000D01*
X66865000Y-129159000D01*
X66865000Y-130058250D01*
X67023750Y-130217000D01*
X67414309Y-130217000D01*
X67647698Y-130120327D01*
X67826327Y-129941699D01*
X67923000Y-129708310D01*
X67923000Y-129317750D01*
X67764250Y-129159000D01*
X66865000Y-129159000D01*
X66611000Y-129159000D01*
X65711750Y-129159000D01*
X65553000Y-129317750D01*
X63496000Y-129317750D01*
X63496000Y-128355690D01*
X65553000Y-128355690D01*
X65553000Y-128746250D01*
X65711750Y-128905000D01*
X66611000Y-128905000D01*
X66611000Y-128005750D01*
X66865000Y-128005750D01*
X66865000Y-128905000D01*
X67764250Y-128905000D01*
X67923000Y-128746250D01*
X67923000Y-128355690D01*
X67826327Y-128122301D01*
X67647698Y-127943673D01*
X67414309Y-127847000D01*
X67023750Y-127847000D01*
X66865000Y-128005750D01*
X66611000Y-128005750D01*
X66452250Y-127847000D01*
X66061691Y-127847000D01*
X65828302Y-127943673D01*
X65649673Y-128122301D01*
X65553000Y-128355690D01*
X63496000Y-128355690D01*
X63496000Y-111490000D01*
X64288560Y-111490000D01*
X64288560Y-113490000D01*
X64332838Y-113725317D01*
X64471910Y-113941441D01*
X64684110Y-114086431D01*
X64936000Y-114137440D01*
X65853000Y-114137440D01*
X65853000Y-125402982D01*
X65736559Y-125477910D01*
X65591569Y-125690110D01*
X65540560Y-125942000D01*
X65540560Y-127042000D01*
X65584838Y-127277317D01*
X65723910Y-127493441D01*
X65936110Y-127638431D01*
X66188000Y-127689440D01*
X67288000Y-127689440D01*
X67523317Y-127645162D01*
X67739441Y-127506090D01*
X67884431Y-127293890D01*
X67935440Y-127042000D01*
X67935440Y-125942000D01*
X67891162Y-125706683D01*
X67752090Y-125490559D01*
X67623000Y-125402356D01*
X67623000Y-114011879D01*
X67732110Y-114086431D01*
X67949000Y-114130352D01*
X67949000Y-117982995D01*
X67948999Y-117983000D01*
X67983571Y-118156800D01*
X68016367Y-118321675D01*
X68182403Y-118570167D01*
X68208210Y-118608790D01*
X70875208Y-121275787D01*
X70875210Y-121275790D01*
X70972255Y-121340633D01*
X71162326Y-121467634D01*
X71501000Y-121535001D01*
X71501005Y-121535000D01*
X73110718Y-121535000D01*
X73011569Y-121680110D01*
X72960560Y-121932000D01*
X72960560Y-123432000D01*
X73004838Y-123667317D01*
X73143910Y-123883441D01*
X73356110Y-124028431D01*
X73608000Y-124079440D01*
X75108000Y-124079440D01*
X75343317Y-124035162D01*
X75559441Y-123896090D01*
X75627734Y-123796140D01*
X75683910Y-123883441D01*
X75896110Y-124028431D01*
X76148000Y-124079440D01*
X77648000Y-124079440D01*
X77883317Y-124035162D01*
X78099441Y-123896090D01*
X78167734Y-123796140D01*
X78223910Y-123883441D01*
X78436110Y-124028431D01*
X78688000Y-124079440D01*
X80188000Y-124079440D01*
X80423317Y-124035162D01*
X80639441Y-123896090D01*
X80784431Y-123683890D01*
X80835440Y-123432000D01*
X80835440Y-121932000D01*
X80791162Y-121696683D01*
X80687122Y-121535000D01*
X86120420Y-121535000D01*
X87380000Y-122794579D01*
X87380000Y-132460995D01*
X87379999Y-132461000D01*
X87404882Y-132586090D01*
X87447367Y-132799675D01*
X87563178Y-132972999D01*
X87639210Y-133086790D01*
X92333000Y-137780579D01*
X92333000Y-145126560D01*
X92168000Y-145126560D01*
X91932683Y-145170838D01*
X91716559Y-145309910D01*
X91571569Y-145522110D01*
X91563000Y-145564425D01*
X91563000Y-137668005D01*
X91563001Y-137668000D01*
X91495633Y-137329326D01*
X91495633Y-137329325D01*
X91303790Y-137042210D01*
X91303787Y-137042208D01*
X85207790Y-130946210D01*
X85194006Y-130937000D01*
X84920675Y-130754367D01*
X84864484Y-130743190D01*
X84582000Y-130686999D01*
X84581995Y-130687000D01*
X67827018Y-130687000D01*
X67752090Y-130570559D01*
X67539890Y-130425569D01*
X67288000Y-130374560D01*
X66188000Y-130374560D01*
X65952683Y-130418838D01*
X65736559Y-130557910D01*
X65591569Y-130770110D01*
X65540560Y-131022000D01*
X65540560Y-132122000D01*
X65584838Y-132357317D01*
X65723910Y-132573441D01*
X65936110Y-132718431D01*
X66188000Y-132769440D01*
X67288000Y-132769440D01*
X67523317Y-132725162D01*
X67739441Y-132586090D01*
X67827644Y-132457000D01*
X84215420Y-132457000D01*
X89793000Y-138034579D01*
X89793000Y-152780995D01*
X89792999Y-152781000D01*
X89829630Y-152965150D01*
X89860367Y-153119675D01*
X90031263Y-153375441D01*
X90052210Y-153406790D01*
X91195208Y-154549787D01*
X91195210Y-154549790D01*
X91462410Y-154728326D01*
X91482325Y-154741633D01*
X91735371Y-154791968D01*
X91733000Y-154797691D01*
X91733000Y-155638250D01*
X91891750Y-155797000D01*
X93091000Y-155797000D01*
X93091000Y-155777000D01*
X93345000Y-155777000D01*
X93345000Y-155797000D01*
X94544250Y-155797000D01*
X94703000Y-155638250D01*
X94703000Y-154809000D01*
X96092077Y-154809000D01*
X96156432Y-154852000D01*
X96181325Y-154868633D01*
X96520000Y-154936001D01*
X96520005Y-154936000D01*
X96813000Y-154936000D01*
X96813000Y-155638250D01*
X96971750Y-155797000D01*
X98171000Y-155797000D01*
X98171000Y-155777000D01*
X98425000Y-155777000D01*
X98425000Y-155797000D01*
X99624250Y-155797000D01*
X99783000Y-155638250D01*
X99783000Y-154936000D01*
X101893000Y-154936000D01*
X101893000Y-155638250D01*
X102051750Y-155797000D01*
X103251000Y-155797000D01*
X103251000Y-155777000D01*
X103505000Y-155777000D01*
X103505000Y-155797000D01*
X104704250Y-155797000D01*
X104863000Y-155638250D01*
X104863000Y-154936000D01*
X110108995Y-154936000D01*
X110109000Y-154936001D01*
X110391484Y-154879810D01*
X110447675Y-154868633D01*
X110734790Y-154676790D01*
X115925626Y-149485954D01*
X115948838Y-149609317D01*
X116087910Y-149825441D01*
X116300110Y-149970431D01*
X116552000Y-150021440D01*
X116717000Y-150021440D01*
X116717000Y-154431995D01*
X116716999Y-154432000D01*
X116750439Y-154600110D01*
X116784367Y-154770675D01*
X116894833Y-154936000D01*
X116976210Y-155057790D01*
X118246208Y-156327787D01*
X118246210Y-156327790D01*
X118497119Y-156495441D01*
X118533325Y-156519633D01*
X118872000Y-156587001D01*
X118872005Y-156587000D01*
X125010146Y-156587000D01*
X125047838Y-156787317D01*
X125186910Y-157003441D01*
X125399110Y-157148431D01*
X125651000Y-157199440D01*
X127651000Y-157199440D01*
X127886317Y-157155162D01*
X128102441Y-157016090D01*
X128247431Y-156803890D01*
X128298440Y-156552000D01*
X128298440Y-154852000D01*
X128254162Y-154616683D01*
X128115090Y-154400559D01*
X127902890Y-154255569D01*
X127651000Y-154204560D01*
X125651000Y-154204560D01*
X125415683Y-154248838D01*
X125199559Y-154387910D01*
X125054569Y-154600110D01*
X125010648Y-154817000D01*
X119238579Y-154817000D01*
X118487000Y-154065420D01*
X118487000Y-150098000D01*
X126518560Y-150098000D01*
X126518560Y-152098000D01*
X126562838Y-152333317D01*
X126701910Y-152549441D01*
X126914110Y-152694431D01*
X127166000Y-152745440D01*
X128411860Y-152745440D01*
X129341543Y-153675122D01*
X129357367Y-153754675D01*
X129516937Y-153993490D01*
X129549210Y-154041790D01*
X129711980Y-154204560D01*
X129651000Y-154204560D01*
X129415683Y-154248838D01*
X129199559Y-154387910D01*
X129054569Y-154600110D01*
X129003560Y-154852000D01*
X129003560Y-156552000D01*
X129047838Y-156787317D01*
X129186910Y-157003441D01*
X129399110Y-157148431D01*
X129651000Y-157199440D01*
X131651000Y-157199440D01*
X131886317Y-157155162D01*
X132102441Y-157016090D01*
X132247431Y-156803890D01*
X132298440Y-156552000D01*
X132298440Y-154852000D01*
X132254162Y-154616683D01*
X132115090Y-154400559D01*
X131902890Y-154255569D01*
X131651000Y-154204560D01*
X131536000Y-154204560D01*
X131536000Y-153892005D01*
X131536001Y-153892000D01*
X131468633Y-153553326D01*
X131468633Y-153553325D01*
X131286517Y-153280767D01*
X131269493Y-153195185D01*
X131077649Y-152908070D01*
X130800790Y-152631210D01*
X130800787Y-152631208D01*
X129513440Y-151343860D01*
X129513440Y-150098000D01*
X129469162Y-149862683D01*
X129330090Y-149646559D01*
X129117890Y-149501569D01*
X128866000Y-149450560D01*
X127166000Y-149450560D01*
X126930683Y-149494838D01*
X126714559Y-149633910D01*
X126569569Y-149846110D01*
X126518560Y-150098000D01*
X118487000Y-150098000D01*
X118487000Y-150021440D01*
X118652000Y-150021440D01*
X118887317Y-149977162D01*
X119103441Y-149838090D01*
X119248431Y-149625890D01*
X119299440Y-149374000D01*
X119299440Y-147701000D01*
X120917000Y-147701000D01*
X120917000Y-148451000D01*
X121093864Y-149086154D01*
X121500328Y-149605277D01*
X122074511Y-149929337D01*
X122213721Y-149963654D01*
X122475000Y-149844957D01*
X122475000Y-147701000D01*
X122729000Y-147701000D01*
X122729000Y-149844957D01*
X122990279Y-149963654D01*
X123129489Y-149929337D01*
X123703672Y-149605277D01*
X124110136Y-149086154D01*
X124287000Y-148451000D01*
X124287000Y-147701000D01*
X122729000Y-147701000D01*
X122475000Y-147701000D01*
X120917000Y-147701000D01*
X119299440Y-147701000D01*
X119299440Y-146697000D01*
X120917000Y-146697000D01*
X120917000Y-147447000D01*
X122475000Y-147447000D01*
X122475000Y-145303043D01*
X122729000Y-145303043D01*
X122729000Y-147447000D01*
X124287000Y-147447000D01*
X124287000Y-147383750D01*
X126531000Y-147383750D01*
X126531000Y-148224309D01*
X126627673Y-148457698D01*
X126806301Y-148636327D01*
X127039690Y-148733000D01*
X127730250Y-148733000D01*
X127889000Y-148574250D01*
X127889000Y-147225000D01*
X128143000Y-147225000D01*
X128143000Y-148574250D01*
X128301750Y-148733000D01*
X128992310Y-148733000D01*
X129225699Y-148636327D01*
X129404327Y-148457698D01*
X129501000Y-148224309D01*
X129501000Y-147383750D01*
X129342250Y-147225000D01*
X128143000Y-147225000D01*
X127889000Y-147225000D01*
X126689750Y-147225000D01*
X126531000Y-147383750D01*
X124287000Y-147383750D01*
X124287000Y-146697000D01*
X124110136Y-146061846D01*
X124039547Y-145971691D01*
X126531000Y-145971691D01*
X126531000Y-146812250D01*
X126689750Y-146971000D01*
X127889000Y-146971000D01*
X127889000Y-145621750D01*
X128143000Y-145621750D01*
X128143000Y-146971000D01*
X129342250Y-146971000D01*
X129501000Y-146812250D01*
X129501000Y-145971691D01*
X129404327Y-145738302D01*
X129225699Y-145559673D01*
X128992310Y-145463000D01*
X128301750Y-145463000D01*
X128143000Y-145621750D01*
X127889000Y-145621750D01*
X127730250Y-145463000D01*
X127039690Y-145463000D01*
X126806301Y-145559673D01*
X126627673Y-145738302D01*
X126531000Y-145971691D01*
X124039547Y-145971691D01*
X123703672Y-145542723D01*
X123129489Y-145218663D01*
X122990279Y-145184346D01*
X122729000Y-145303043D01*
X122475000Y-145303043D01*
X122213721Y-145184346D01*
X122074511Y-145218663D01*
X121500328Y-145542723D01*
X121093864Y-146061846D01*
X120917000Y-146697000D01*
X119299440Y-146697000D01*
X119299440Y-145774000D01*
X119255162Y-145538683D01*
X119116090Y-145322559D01*
X118903890Y-145177569D01*
X118652000Y-145126560D01*
X118487000Y-145126560D01*
X118487000Y-134632000D01*
X120966560Y-134632000D01*
X120966560Y-136132000D01*
X121010838Y-136367317D01*
X121149910Y-136583441D01*
X121362110Y-136728431D01*
X121614000Y-136779440D01*
X123114000Y-136779440D01*
X123349317Y-136735162D01*
X123565441Y-136596090D01*
X123633734Y-136496140D01*
X123689910Y-136583441D01*
X123902110Y-136728431D01*
X124154000Y-136779440D01*
X125654000Y-136779440D01*
X125889317Y-136735162D01*
X126105441Y-136596090D01*
X126173734Y-136496140D01*
X126229910Y-136583441D01*
X126442110Y-136728431D01*
X126694000Y-136779440D01*
X128194000Y-136779440D01*
X128429317Y-136735162D01*
X128645441Y-136596090D01*
X128790431Y-136383890D01*
X128841440Y-136132000D01*
X128841440Y-134632000D01*
X128797162Y-134396683D01*
X128658090Y-134180559D01*
X128445890Y-134035569D01*
X128194000Y-133984560D01*
X126694000Y-133984560D01*
X126458683Y-134028838D01*
X126242559Y-134167910D01*
X126174266Y-134267860D01*
X126118090Y-134180559D01*
X125905890Y-134035569D01*
X125654000Y-133984560D01*
X124154000Y-133984560D01*
X123918683Y-134028838D01*
X123702559Y-134167910D01*
X123634266Y-134267860D01*
X123578090Y-134180559D01*
X123365890Y-134035569D01*
X123114000Y-133984560D01*
X121614000Y-133984560D01*
X121378683Y-134028838D01*
X121162559Y-134167910D01*
X121017569Y-134380110D01*
X120966560Y-134632000D01*
X118487000Y-134632000D01*
X118487000Y-134430000D01*
X118419633Y-134091325D01*
X118227790Y-133804210D01*
X118227787Y-133804208D01*
X115941440Y-131517860D01*
X115941440Y-131022000D01*
X115897162Y-130786683D01*
X115758090Y-130570559D01*
X115545890Y-130425569D01*
X115294000Y-130374560D01*
X114194000Y-130374560D01*
X113958683Y-130418838D01*
X113742559Y-130557910D01*
X113597569Y-130770110D01*
X113546560Y-131022000D01*
X113546560Y-132122000D01*
X113590838Y-132357317D01*
X113729910Y-132573441D01*
X113942110Y-132718431D01*
X114194000Y-132769440D01*
X114689860Y-132769440D01*
X116717000Y-134796579D01*
X116717000Y-145126560D01*
X116552000Y-145126560D01*
X116316683Y-145170838D01*
X116100559Y-145309910D01*
X115955569Y-145522110D01*
X115904560Y-145774000D01*
X115904560Y-147003861D01*
X109742420Y-153166000D01*
X104826434Y-153166000D01*
X104875440Y-152924000D01*
X104875440Y-150924000D01*
X104831162Y-150688683D01*
X104692090Y-150472559D01*
X104479890Y-150327569D01*
X104228000Y-150276560D01*
X104103000Y-150276560D01*
X104103000Y-149767959D01*
X104409475Y-149563179D01*
X104774737Y-149016526D01*
X104903000Y-148371704D01*
X104903000Y-147701000D01*
X106533000Y-147701000D01*
X106533000Y-148451000D01*
X106709864Y-149086154D01*
X107116328Y-149605277D01*
X107690511Y-149929337D01*
X107829721Y-149963654D01*
X108091000Y-149844957D01*
X108091000Y-147701000D01*
X108345000Y-147701000D01*
X108345000Y-149844957D01*
X108606279Y-149963654D01*
X108745489Y-149929337D01*
X109319672Y-149605277D01*
X109726136Y-149086154D01*
X109903000Y-148451000D01*
X109903000Y-147701000D01*
X108345000Y-147701000D01*
X108091000Y-147701000D01*
X106533000Y-147701000D01*
X104903000Y-147701000D01*
X104903000Y-146776296D01*
X104887228Y-146697000D01*
X106533000Y-146697000D01*
X106533000Y-147447000D01*
X108091000Y-147447000D01*
X108091000Y-145303043D01*
X108345000Y-145303043D01*
X108345000Y-147447000D01*
X109903000Y-147447000D01*
X109903000Y-146697000D01*
X109726136Y-146061846D01*
X109319672Y-145542723D01*
X108745489Y-145218663D01*
X108606279Y-145184346D01*
X108345000Y-145303043D01*
X108091000Y-145303043D01*
X107829721Y-145184346D01*
X107690511Y-145218663D01*
X107116328Y-145542723D01*
X106709864Y-146061846D01*
X106533000Y-146697000D01*
X104887228Y-146697000D01*
X104774737Y-146131474D01*
X104409475Y-145584821D01*
X104287356Y-145503224D01*
X112258787Y-137531792D01*
X112258790Y-137531790D01*
X112450633Y-137244675D01*
X112468702Y-137153838D01*
X112518001Y-136906000D01*
X112518000Y-136905995D01*
X112518000Y-129317750D01*
X113559000Y-129317750D01*
X113559000Y-129708310D01*
X113655673Y-129941699D01*
X113834302Y-130120327D01*
X114067691Y-130217000D01*
X114458250Y-130217000D01*
X114617000Y-130058250D01*
X114617000Y-129159000D01*
X114871000Y-129159000D01*
X114871000Y-130058250D01*
X115029750Y-130217000D01*
X115420309Y-130217000D01*
X115653698Y-130120327D01*
X115832327Y-129941699D01*
X115929000Y-129708310D01*
X115929000Y-129317750D01*
X115770250Y-129159000D01*
X114871000Y-129159000D01*
X114617000Y-129159000D01*
X113717750Y-129159000D01*
X113559000Y-129317750D01*
X112518000Y-129317750D01*
X112518000Y-128355690D01*
X113559000Y-128355690D01*
X113559000Y-128746250D01*
X113717750Y-128905000D01*
X114617000Y-128905000D01*
X114617000Y-128005750D01*
X114871000Y-128005750D01*
X114871000Y-128905000D01*
X115770250Y-128905000D01*
X115929000Y-128746250D01*
X115929000Y-128355690D01*
X115832327Y-128122301D01*
X115653698Y-127943673D01*
X115420309Y-127847000D01*
X115029750Y-127847000D01*
X114871000Y-128005750D01*
X114617000Y-128005750D01*
X114458250Y-127847000D01*
X114067691Y-127847000D01*
X113834302Y-127943673D01*
X113655673Y-128122301D01*
X113559000Y-128355690D01*
X112518000Y-128355690D01*
X112518000Y-125942000D01*
X113546560Y-125942000D01*
X113546560Y-127042000D01*
X113590838Y-127277317D01*
X113729910Y-127493441D01*
X113942110Y-127638431D01*
X114194000Y-127689440D01*
X115294000Y-127689440D01*
X115529317Y-127645162D01*
X115745441Y-127506090D01*
X115890431Y-127293890D01*
X115941440Y-127042000D01*
X115941440Y-125942000D01*
X115897162Y-125706683D01*
X115758090Y-125490559D01*
X115629000Y-125402356D01*
X115629000Y-122096580D01*
X115793579Y-121932000D01*
X120966560Y-121932000D01*
X120966560Y-123432000D01*
X121010838Y-123667317D01*
X121149910Y-123883441D01*
X121362110Y-124028431D01*
X121614000Y-124079440D01*
X123114000Y-124079440D01*
X123349317Y-124035162D01*
X123565441Y-123896090D01*
X123633734Y-123796140D01*
X123689910Y-123883441D01*
X123902110Y-124028431D01*
X124154000Y-124079440D01*
X125654000Y-124079440D01*
X125889317Y-124035162D01*
X126105441Y-123896090D01*
X126173734Y-123796140D01*
X126229910Y-123883441D01*
X126442110Y-124028431D01*
X126694000Y-124079440D01*
X128194000Y-124079440D01*
X128429317Y-124035162D01*
X128645441Y-123896090D01*
X128790431Y-123683890D01*
X128841440Y-123432000D01*
X128841440Y-121932000D01*
X128797162Y-121696683D01*
X128658090Y-121480559D01*
X128445890Y-121335569D01*
X128194000Y-121284560D01*
X126694000Y-121284560D01*
X126458683Y-121328838D01*
X126242559Y-121467910D01*
X126174266Y-121567860D01*
X126118090Y-121480559D01*
X125905890Y-121335569D01*
X125654000Y-121284560D01*
X124154000Y-121284560D01*
X123918683Y-121328838D01*
X123702559Y-121467910D01*
X123634266Y-121567860D01*
X123578090Y-121480559D01*
X123365890Y-121335569D01*
X123114000Y-121284560D01*
X121614000Y-121284560D01*
X121378683Y-121328838D01*
X121162559Y-121467910D01*
X121017569Y-121680110D01*
X120966560Y-121932000D01*
X115793579Y-121932000D01*
X119751787Y-117973792D01*
X119751790Y-117973790D01*
X119943633Y-117686675D01*
X119958790Y-117610474D01*
X120011001Y-117348000D01*
X120011000Y-117347995D01*
X120011000Y-115019854D01*
X120211317Y-114982162D01*
X120427441Y-114843090D01*
X120572431Y-114630890D01*
X120623440Y-114379000D01*
X120623440Y-112379000D01*
X120579162Y-112143683D01*
X120440090Y-111927559D01*
X120227890Y-111782569D01*
X119976000Y-111731560D01*
X118276000Y-111731560D01*
X118040683Y-111775838D01*
X117824559Y-111914910D01*
X117679569Y-112127110D01*
X117628560Y-112379000D01*
X117628560Y-114379000D01*
X117672838Y-114614317D01*
X117811910Y-114830441D01*
X118024110Y-114975431D01*
X118241000Y-115019352D01*
X118241000Y-116981421D01*
X114118210Y-121104210D01*
X113926367Y-121391325D01*
X113926367Y-121391326D01*
X113858999Y-121730000D01*
X113859000Y-121730005D01*
X113859000Y-125402982D01*
X113742559Y-125477910D01*
X113597569Y-125690110D01*
X113546560Y-125942000D01*
X112518000Y-125942000D01*
X112518000Y-117682580D01*
X115174139Y-115026440D01*
X116420000Y-115026440D01*
X116655317Y-114982162D01*
X116871441Y-114843090D01*
X117016431Y-114630890D01*
X117067440Y-114379000D01*
X117067440Y-112379000D01*
X117023162Y-112143683D01*
X116884090Y-111927559D01*
X116671890Y-111782569D01*
X116420000Y-111731560D01*
X114720000Y-111731560D01*
X114484683Y-111775838D01*
X114268559Y-111914910D01*
X114123569Y-112127110D01*
X114072560Y-112379000D01*
X114072560Y-113624861D01*
X111007210Y-116690210D01*
X110815367Y-116977325D01*
X110815367Y-116977326D01*
X110747999Y-117316000D01*
X110748000Y-117316005D01*
X110748000Y-136539421D01*
X102592210Y-144695210D01*
X102400367Y-144982325D01*
X102400367Y-144982326D01*
X102332999Y-145321000D01*
X102333000Y-145321005D01*
X102333000Y-145380041D01*
X102026525Y-145584821D01*
X101661263Y-146131474D01*
X101533000Y-146776296D01*
X101533000Y-148371704D01*
X101661263Y-149016526D01*
X102026525Y-149563179D01*
X102333000Y-149767959D01*
X102333000Y-150313252D01*
X102292683Y-150320838D01*
X102076559Y-150459910D01*
X101931569Y-150672110D01*
X101880560Y-150924000D01*
X101880560Y-152924000D01*
X101924838Y-153159317D01*
X101929138Y-153166000D01*
X99746434Y-153166000D01*
X99795440Y-152924000D01*
X99795440Y-150924000D01*
X99751162Y-150688683D01*
X99612090Y-150472559D01*
X99399890Y-150327569D01*
X99148000Y-150276560D01*
X99103000Y-150276560D01*
X99103000Y-149767959D01*
X99409475Y-149563179D01*
X99774737Y-149016526D01*
X99903000Y-148371704D01*
X99903000Y-146776296D01*
X99774737Y-146131474D01*
X99409475Y-145584821D01*
X99239400Y-145471180D01*
X110226787Y-134483792D01*
X110226790Y-134483790D01*
X110418633Y-134196675D01*
X110439589Y-134091325D01*
X110486001Y-133858000D01*
X110486000Y-133857995D01*
X110486000Y-123190005D01*
X110486001Y-123190000D01*
X110418634Y-122851326D01*
X110260727Y-122615001D01*
X110226790Y-122564210D01*
X110226787Y-122564208D01*
X107559790Y-119897210D01*
X107462745Y-119832367D01*
X107272675Y-119705367D01*
X107216484Y-119694190D01*
X106934000Y-119637999D01*
X106933995Y-119638000D01*
X96759579Y-119638000D01*
X94865000Y-117743420D01*
X94865000Y-114892854D01*
X95065317Y-114855162D01*
X95281441Y-114716090D01*
X95426431Y-114503890D01*
X95477440Y-114252000D01*
X95477440Y-112252000D01*
X95433162Y-112016683D01*
X95294090Y-111800559D01*
X95081890Y-111655569D01*
X94830000Y-111604560D01*
X93130000Y-111604560D01*
X92894683Y-111648838D01*
X92678559Y-111787910D01*
X92533569Y-112000110D01*
X92482560Y-112252000D01*
X92482560Y-114252000D01*
X92526838Y-114487317D01*
X92665910Y-114703441D01*
X92878110Y-114848431D01*
X93095000Y-114892352D01*
X93095000Y-118109995D01*
X93094999Y-118110000D01*
X93113101Y-118201001D01*
X93162367Y-118448675D01*
X93300756Y-118655790D01*
X93354210Y-118735790D01*
X95767208Y-121148787D01*
X95767210Y-121148790D01*
X96054325Y-121340633D01*
X96393000Y-121408000D01*
X97379662Y-121408000D01*
X97286559Y-121467910D01*
X97141569Y-121680110D01*
X97090560Y-121932000D01*
X97090560Y-123432000D01*
X97134838Y-123667317D01*
X97273910Y-123883441D01*
X97486110Y-124028431D01*
X97738000Y-124079440D01*
X99238000Y-124079440D01*
X99473317Y-124035162D01*
X99689441Y-123896090D01*
X99757734Y-123796140D01*
X99813910Y-123883441D01*
X100026110Y-124028431D01*
X100278000Y-124079440D01*
X101778000Y-124079440D01*
X102013317Y-124035162D01*
X102229441Y-123896090D01*
X102297734Y-123796140D01*
X102353910Y-123883441D01*
X102566110Y-124028431D01*
X102818000Y-124079440D01*
X104318000Y-124079440D01*
X104553317Y-124035162D01*
X104769441Y-123896090D01*
X104914431Y-123683890D01*
X104965440Y-123432000D01*
X104965440Y-121932000D01*
X104921162Y-121696683D01*
X104782090Y-121480559D01*
X104675896Y-121408000D01*
X106567420Y-121408000D01*
X108716000Y-123556579D01*
X108716000Y-133491421D01*
X97592210Y-144615210D01*
X97400367Y-144902325D01*
X97400367Y-144902326D01*
X97332999Y-145241000D01*
X97333000Y-145241005D01*
X97333000Y-145380041D01*
X97026525Y-145584821D01*
X96661263Y-146131474D01*
X96533000Y-146776296D01*
X96533000Y-148371704D01*
X96661263Y-149016526D01*
X97026525Y-149563179D01*
X97333000Y-149767959D01*
X97333000Y-150298199D01*
X97212683Y-150320838D01*
X96996559Y-150459910D01*
X96851569Y-150672110D01*
X96800560Y-150924000D01*
X96800560Y-152924000D01*
X96836712Y-153116133D01*
X96516000Y-152795420D01*
X96516000Y-136335005D01*
X96516001Y-136335000D01*
X96448633Y-135996325D01*
X96414762Y-135945633D01*
X96256790Y-135709210D01*
X96256787Y-135709208D01*
X95179580Y-134632000D01*
X97090560Y-134632000D01*
X97090560Y-136132000D01*
X97134838Y-136367317D01*
X97273910Y-136583441D01*
X97486110Y-136728431D01*
X97738000Y-136779440D01*
X99238000Y-136779440D01*
X99473317Y-136735162D01*
X99689441Y-136596090D01*
X99757734Y-136496140D01*
X99813910Y-136583441D01*
X100026110Y-136728431D01*
X100278000Y-136779440D01*
X101778000Y-136779440D01*
X102013317Y-136735162D01*
X102229441Y-136596090D01*
X102297734Y-136496140D01*
X102353910Y-136583441D01*
X102566110Y-136728431D01*
X102818000Y-136779440D01*
X104318000Y-136779440D01*
X104553317Y-136735162D01*
X104769441Y-136596090D01*
X104914431Y-136383890D01*
X104965440Y-136132000D01*
X104965440Y-134632000D01*
X104921162Y-134396683D01*
X104782090Y-134180559D01*
X104569890Y-134035569D01*
X104318000Y-133984560D01*
X102818000Y-133984560D01*
X102582683Y-134028838D01*
X102366559Y-134167910D01*
X102298266Y-134267860D01*
X102242090Y-134180559D01*
X102029890Y-134035569D01*
X101778000Y-133984560D01*
X100278000Y-133984560D01*
X100042683Y-134028838D01*
X99826559Y-134167910D01*
X99758266Y-134267860D01*
X99702090Y-134180559D01*
X99489890Y-134035569D01*
X99238000Y-133984560D01*
X97738000Y-133984560D01*
X97502683Y-134028838D01*
X97286559Y-134167910D01*
X97141569Y-134380110D01*
X97090560Y-134632000D01*
X95179580Y-134632000D01*
X92065440Y-131517860D01*
X92065440Y-131022000D01*
X92021162Y-130786683D01*
X91882090Y-130570559D01*
X91669890Y-130425569D01*
X91418000Y-130374560D01*
X90318000Y-130374560D01*
X90082683Y-130418838D01*
X89866559Y-130557910D01*
X89721569Y-130770110D01*
X89670560Y-131022000D01*
X89670560Y-132122000D01*
X89714838Y-132357317D01*
X89853910Y-132573441D01*
X90066110Y-132718431D01*
X90318000Y-132769440D01*
X90813860Y-132769440D01*
X94746000Y-136701579D01*
X94746000Y-145344176D01*
X94732090Y-145322559D01*
X94519890Y-145177569D01*
X94268000Y-145126560D01*
X94103000Y-145126560D01*
X94103000Y-137414005D01*
X94103001Y-137414000D01*
X94035633Y-137075326D01*
X94035633Y-137075325D01*
X93843790Y-136788210D01*
X93843787Y-136788208D01*
X89150000Y-132094420D01*
X89150000Y-129317750D01*
X89683000Y-129317750D01*
X89683000Y-129708310D01*
X89779673Y-129941699D01*
X89958302Y-130120327D01*
X90191691Y-130217000D01*
X90582250Y-130217000D01*
X90741000Y-130058250D01*
X90741000Y-129159000D01*
X90995000Y-129159000D01*
X90995000Y-130058250D01*
X91153750Y-130217000D01*
X91544309Y-130217000D01*
X91777698Y-130120327D01*
X91956327Y-129941699D01*
X92053000Y-129708310D01*
X92053000Y-129317750D01*
X91894250Y-129159000D01*
X90995000Y-129159000D01*
X90741000Y-129159000D01*
X89841750Y-129159000D01*
X89683000Y-129317750D01*
X89150000Y-129317750D01*
X89150000Y-128355690D01*
X89683000Y-128355690D01*
X89683000Y-128746250D01*
X89841750Y-128905000D01*
X90741000Y-128905000D01*
X90741000Y-128005750D01*
X90995000Y-128005750D01*
X90995000Y-128905000D01*
X91894250Y-128905000D01*
X92053000Y-128746250D01*
X92053000Y-128355690D01*
X91956327Y-128122301D01*
X91777698Y-127943673D01*
X91544309Y-127847000D01*
X91153750Y-127847000D01*
X90995000Y-128005750D01*
X90741000Y-128005750D01*
X90582250Y-127847000D01*
X90191691Y-127847000D01*
X89958302Y-127943673D01*
X89779673Y-128122301D01*
X89683000Y-128355690D01*
X89150000Y-128355690D01*
X89150000Y-122428005D01*
X89150001Y-122428000D01*
X89082633Y-122089326D01*
X89082633Y-122089325D01*
X88890790Y-121802210D01*
X88890787Y-121802208D01*
X87112790Y-120024210D01*
X86825675Y-119832367D01*
X86769484Y-119821190D01*
X86487000Y-119764999D01*
X86486995Y-119765000D01*
X71867579Y-119765000D01*
X69719000Y-117616420D01*
X69719000Y-114130854D01*
X69919317Y-114093162D01*
X70135441Y-113954090D01*
X70280431Y-113741890D01*
X70331440Y-113490000D01*
X70331440Y-111490000D01*
X70287162Y-111254683D01*
X70148090Y-111038559D01*
X69935890Y-110893569D01*
X69684000Y-110842560D01*
X67984000Y-110842560D01*
X67748683Y-110886838D01*
X67532559Y-111025910D01*
X67387569Y-111238110D01*
X67336560Y-111490000D01*
X67336560Y-112788981D01*
X67283440Y-112735861D01*
X67283440Y-111490000D01*
X67239162Y-111254683D01*
X67100090Y-111038559D01*
X66887890Y-110893569D01*
X66636000Y-110842560D01*
X64936000Y-110842560D01*
X64700683Y-110886838D01*
X64484559Y-111025910D01*
X64339569Y-111238110D01*
X64288560Y-111490000D01*
X63496000Y-111490000D01*
X63496000Y-104379580D01*
X64755579Y-103120000D01*
X77738420Y-103120000D01*
X77855000Y-103236579D01*
X77855000Y-104380690D01*
X77725302Y-104467352D01*
X77470000Y-104849438D01*
X77214698Y-104467352D01*
X76749151Y-104156283D01*
X76200000Y-104047050D01*
X75650849Y-104156283D01*
X75185302Y-104467352D01*
X74930000Y-104849438D01*
X74674698Y-104467352D01*
X74209151Y-104156283D01*
X73660000Y-104047050D01*
X73110849Y-104156283D01*
X72645302Y-104467352D01*
X72547749Y-104613350D01*
X72523162Y-104482683D01*
X72384090Y-104266559D01*
X72171890Y-104121569D01*
X71920000Y-104070560D01*
X70320000Y-104070560D01*
X70084683Y-104114838D01*
X69868559Y-104253910D01*
X69723569Y-104466110D01*
X69672560Y-104718000D01*
X69672560Y-106842560D01*
X67984000Y-106842560D01*
X67748683Y-106886838D01*
X67532559Y-107025910D01*
X67387569Y-107238110D01*
X67336560Y-107490000D01*
X67336560Y-107605000D01*
X67283440Y-107605000D01*
X67283440Y-107490000D01*
X67239162Y-107254683D01*
X67100090Y-107038559D01*
X66887890Y-106893569D01*
X66636000Y-106842560D01*
X64936000Y-106842560D01*
X64700683Y-106886838D01*
X64484559Y-107025910D01*
X64339569Y-107238110D01*
X64288560Y-107490000D01*
X64288560Y-109490000D01*
X64332838Y-109725317D01*
X64471910Y-109941441D01*
X64684110Y-110086431D01*
X64936000Y-110137440D01*
X66636000Y-110137440D01*
X66871317Y-110093162D01*
X67087441Y-109954090D01*
X67232431Y-109741890D01*
X67283440Y-109490000D01*
X67283440Y-109375000D01*
X67336560Y-109375000D01*
X67336560Y-109490000D01*
X67380838Y-109725317D01*
X67519910Y-109941441D01*
X67732110Y-110086431D01*
X67984000Y-110137440D01*
X69684000Y-110137440D01*
X69919317Y-110093162D01*
X70135441Y-109954090D01*
X70280431Y-109741890D01*
X70331440Y-109490000D01*
X70331440Y-109375000D01*
X70579995Y-109375000D01*
X70580000Y-109375001D01*
X70862484Y-109318810D01*
X70918675Y-109307633D01*
X71205790Y-109115790D01*
X71745787Y-108575792D01*
X71745790Y-108575790D01*
X71937633Y-108288675D01*
X72005000Y-107950000D01*
X72005000Y-107749446D01*
X72155317Y-107721162D01*
X72371441Y-107582090D01*
X72516431Y-107369890D01*
X72546597Y-107220926D01*
X72645302Y-107368648D01*
X73110849Y-107679717D01*
X73660000Y-107788950D01*
X74209151Y-107679717D01*
X74674698Y-107368648D01*
X74930000Y-106986562D01*
X75185302Y-107368648D01*
X75315000Y-107455310D01*
X75315000Y-109082021D01*
X73114210Y-111282810D01*
X72922367Y-111569925D01*
X72922367Y-111569926D01*
X72854999Y-111908600D01*
X72855000Y-111908605D01*
X72855000Y-114371700D01*
X72515703Y-114710405D01*
X72295252Y-115241311D01*
X72294750Y-115816167D01*
X72514275Y-116347457D01*
X72920405Y-116754297D01*
X73451311Y-116974748D01*
X74026167Y-116975250D01*
X74557457Y-116755725D01*
X74964297Y-116349595D01*
X75184748Y-115818689D01*
X75185250Y-115243833D01*
X74965725Y-114712543D01*
X74625000Y-114371222D01*
X74625000Y-112275180D01*
X76825787Y-110074392D01*
X76825790Y-110074390D01*
X77017633Y-109787275D01*
X77085000Y-109448600D01*
X77085000Y-107455310D01*
X77214698Y-107368648D01*
X77470000Y-106986562D01*
X77725302Y-107368648D01*
X78190849Y-107679717D01*
X78740000Y-107788950D01*
X79289151Y-107679717D01*
X79754698Y-107368648D01*
X80065767Y-106903101D01*
X80085678Y-106803000D01*
X80485995Y-106803000D01*
X80486000Y-106803001D01*
X80768484Y-106746810D01*
X80824675Y-106735633D01*
X81111790Y-106543790D01*
X81411000Y-106244580D01*
X81411000Y-109389146D01*
X81210683Y-109426838D01*
X80994559Y-109565910D01*
X80849569Y-109778110D01*
X80798560Y-110030000D01*
X80798560Y-112030000D01*
X80820199Y-112145000D01*
X79898300Y-112145000D01*
X79559595Y-111805703D01*
X79028689Y-111585252D01*
X78453833Y-111584750D01*
X77922543Y-111804275D01*
X77515703Y-112210405D01*
X77295252Y-112741311D01*
X77294750Y-113316167D01*
X77514275Y-113847457D01*
X77920405Y-114254297D01*
X78451311Y-114474748D01*
X79026167Y-114475250D01*
X79557457Y-114255725D01*
X79898778Y-113915000D01*
X80821848Y-113915000D01*
X80798560Y-114030000D01*
X80798560Y-116030000D01*
X80842838Y-116265317D01*
X80981910Y-116481441D01*
X81194110Y-116626431D01*
X81411000Y-116670352D01*
X81411000Y-116727421D01*
X80993420Y-117145000D01*
X79898300Y-117145000D01*
X79559595Y-116805703D01*
X79028689Y-116585252D01*
X78453833Y-116584750D01*
X77922543Y-116804275D01*
X77515703Y-117210405D01*
X77295252Y-117741311D01*
X77294750Y-118316167D01*
X77514275Y-118847457D01*
X77920405Y-119254297D01*
X78451311Y-119474748D01*
X79026167Y-119475250D01*
X79557457Y-119255725D01*
X79898778Y-118915000D01*
X81359995Y-118915000D01*
X81360000Y-118915001D01*
X81688811Y-118849595D01*
X81698675Y-118847633D01*
X81985790Y-118655790D01*
X82921787Y-117719792D01*
X82921790Y-117719790D01*
X83113633Y-117432675D01*
X83142413Y-117287990D01*
X83181001Y-117094000D01*
X83181000Y-117093995D01*
X83181000Y-116670854D01*
X83381317Y-116633162D01*
X83597441Y-116494090D01*
X83742431Y-116281890D01*
X83793440Y-116030000D01*
X83793440Y-114030000D01*
X83749162Y-113794683D01*
X83743377Y-113785692D01*
X83937790Y-113655790D01*
X85341579Y-112252000D01*
X89434560Y-112252000D01*
X89434560Y-114252000D01*
X89478838Y-114487317D01*
X89617910Y-114703441D01*
X89830110Y-114848431D01*
X89983000Y-114879392D01*
X89983000Y-125402982D01*
X89866559Y-125477910D01*
X89721569Y-125690110D01*
X89670560Y-125942000D01*
X89670560Y-127042000D01*
X89714838Y-127277317D01*
X89853910Y-127493441D01*
X90066110Y-127638431D01*
X90318000Y-127689440D01*
X91418000Y-127689440D01*
X91653317Y-127645162D01*
X91869441Y-127506090D01*
X92014431Y-127293890D01*
X92065440Y-127042000D01*
X92065440Y-125942000D01*
X92021162Y-125706683D01*
X91882090Y-125490559D01*
X91753000Y-125402356D01*
X91753000Y-114899440D01*
X91782000Y-114899440D01*
X92017317Y-114855162D01*
X92233441Y-114716090D01*
X92378431Y-114503890D01*
X92429440Y-114252000D01*
X92429440Y-112252000D01*
X92385162Y-112016683D01*
X92246090Y-111800559D01*
X92033890Y-111655569D01*
X91782000Y-111604560D01*
X90082000Y-111604560D01*
X89846683Y-111648838D01*
X89630559Y-111787910D01*
X89485569Y-112000110D01*
X89434560Y-112252000D01*
X85341579Y-112252000D01*
X85461787Y-112131792D01*
X85461790Y-112131790D01*
X85653633Y-111844675D01*
X85721000Y-111506000D01*
X85721000Y-105748854D01*
X85921317Y-105711162D01*
X86137441Y-105572090D01*
X86282431Y-105359890D01*
X86333440Y-105108000D01*
X86333440Y-103108000D01*
X86289162Y-102872683D01*
X86283377Y-102863692D01*
X86477790Y-102733790D01*
X86477791Y-102733789D01*
X86980579Y-102231000D01*
X101487420Y-102231000D01*
X102239000Y-102982579D01*
X102239000Y-104380690D01*
X102109302Y-104467352D01*
X101854000Y-104849438D01*
X101598698Y-104467352D01*
X101133151Y-104156283D01*
X100584000Y-104047050D01*
X100034849Y-104156283D01*
X99569302Y-104467352D01*
X99314000Y-104849438D01*
X99058698Y-104467352D01*
X98593151Y-104156283D01*
X98044000Y-104047050D01*
X97494849Y-104156283D01*
X97029302Y-104467352D01*
X96931749Y-104613350D01*
X96907162Y-104482683D01*
X96768090Y-104266559D01*
X96555890Y-104121569D01*
X96304000Y-104070560D01*
X94704000Y-104070560D01*
X94468683Y-104114838D01*
X94252559Y-104253910D01*
X94107569Y-104466110D01*
X94056560Y-104718000D01*
X94056560Y-106113860D01*
X93354210Y-106816210D01*
X93162367Y-107103325D01*
X93162367Y-107103326D01*
X93094999Y-107442000D01*
X93095000Y-107442005D01*
X93095000Y-107611146D01*
X92894683Y-107648838D01*
X92678559Y-107787910D01*
X92533569Y-108000110D01*
X92482560Y-108252000D01*
X92482560Y-108367000D01*
X92429440Y-108367000D01*
X92429440Y-108252000D01*
X92385162Y-108016683D01*
X92246090Y-107800559D01*
X92033890Y-107655569D01*
X91782000Y-107604560D01*
X90082000Y-107604560D01*
X89846683Y-107648838D01*
X89630559Y-107787910D01*
X89485569Y-108000110D01*
X89434560Y-108252000D01*
X89434560Y-110252000D01*
X89478838Y-110487317D01*
X89617910Y-110703441D01*
X89830110Y-110848431D01*
X90082000Y-110899440D01*
X91782000Y-110899440D01*
X92017317Y-110855162D01*
X92233441Y-110716090D01*
X92378431Y-110503890D01*
X92429440Y-110252000D01*
X92429440Y-110137000D01*
X92482560Y-110137000D01*
X92482560Y-110252000D01*
X92526838Y-110487317D01*
X92665910Y-110703441D01*
X92878110Y-110848431D01*
X93130000Y-110899440D01*
X94830000Y-110899440D01*
X95065317Y-110855162D01*
X95281441Y-110716090D01*
X95426431Y-110503890D01*
X95477440Y-110252000D01*
X95477440Y-108252000D01*
X95433162Y-108016683D01*
X95294090Y-107800559D01*
X95242692Y-107765440D01*
X96304000Y-107765440D01*
X96539317Y-107721162D01*
X96755441Y-107582090D01*
X96900431Y-107369890D01*
X96930597Y-107220926D01*
X97029302Y-107368648D01*
X97494849Y-107679717D01*
X98044000Y-107788950D01*
X98593151Y-107679717D01*
X99058698Y-107368648D01*
X99314000Y-106986562D01*
X99569302Y-107368648D01*
X99699000Y-107455310D01*
X99699000Y-109488421D01*
X97498210Y-111689210D01*
X97306367Y-111976325D01*
X97306367Y-111976326D01*
X97238999Y-112315000D01*
X97239000Y-112315005D01*
X97239000Y-114371700D01*
X96899703Y-114710405D01*
X96679252Y-115241311D01*
X96678750Y-115816167D01*
X96898275Y-116347457D01*
X97304405Y-116754297D01*
X97835311Y-116974748D01*
X98410167Y-116975250D01*
X98941457Y-116755725D01*
X99348297Y-116349595D01*
X99568748Y-115818689D01*
X99569250Y-115243833D01*
X99349725Y-114712543D01*
X99009000Y-114371222D01*
X99009000Y-112681580D01*
X101209787Y-110480792D01*
X101209790Y-110480790D01*
X101401633Y-110193675D01*
X101469000Y-109855000D01*
X101469000Y-107455310D01*
X101598698Y-107368648D01*
X101854000Y-106986562D01*
X102109302Y-107368648D01*
X102574849Y-107679717D01*
X103124000Y-107788950D01*
X103673151Y-107679717D01*
X104138698Y-107368648D01*
X104449767Y-106903101D01*
X104469678Y-106803000D01*
X104869995Y-106803000D01*
X104870000Y-106803001D01*
X105152484Y-106746810D01*
X105208675Y-106735633D01*
X105495790Y-106543790D01*
X105795000Y-106244580D01*
X105795000Y-109389146D01*
X105594683Y-109426838D01*
X105378559Y-109565910D01*
X105233569Y-109778110D01*
X105182560Y-110030000D01*
X105182560Y-112030000D01*
X105204199Y-112145000D01*
X104282300Y-112145000D01*
X103943595Y-111805703D01*
X103412689Y-111585252D01*
X102837833Y-111584750D01*
X102306543Y-111804275D01*
X101899703Y-112210405D01*
X101679252Y-112741311D01*
X101678750Y-113316167D01*
X101898275Y-113847457D01*
X102304405Y-114254297D01*
X102835311Y-114474748D01*
X103410167Y-114475250D01*
X103941457Y-114255725D01*
X104282778Y-113915000D01*
X105205848Y-113915000D01*
X105182560Y-114030000D01*
X105182560Y-116030000D01*
X105226838Y-116265317D01*
X105365910Y-116481441D01*
X105510432Y-116580189D01*
X104945620Y-117145000D01*
X104282300Y-117145000D01*
X103943595Y-116805703D01*
X103412689Y-116585252D01*
X102837833Y-116584750D01*
X102306543Y-116804275D01*
X101899703Y-117210405D01*
X101679252Y-117741311D01*
X101678750Y-118316167D01*
X101898275Y-118847457D01*
X102304405Y-119254297D01*
X102835311Y-119474748D01*
X103410167Y-119475250D01*
X103941457Y-119255725D01*
X104282778Y-118915000D01*
X105312195Y-118915000D01*
X105312200Y-118915001D01*
X105641011Y-118849595D01*
X105650875Y-118847633D01*
X105937990Y-118655790D01*
X107305787Y-117287992D01*
X107305790Y-117287990D01*
X107497633Y-117000875D01*
X107563212Y-116671191D01*
X107765317Y-116633162D01*
X107981441Y-116494090D01*
X108126431Y-116281890D01*
X108177440Y-116030000D01*
X108177440Y-114030000D01*
X108148376Y-113875541D01*
X108278811Y-113849595D01*
X108288675Y-113847633D01*
X108575790Y-113655790D01*
X109845787Y-112385792D01*
X109845790Y-112385790D01*
X110037633Y-112098675D01*
X110045669Y-112058275D01*
X110105001Y-111760000D01*
X110105000Y-111759995D01*
X110105000Y-105748854D01*
X110305317Y-105711162D01*
X110521441Y-105572090D01*
X110666431Y-105359890D01*
X110717440Y-105108000D01*
X110717440Y-103333020D01*
X112150208Y-104765787D01*
X112150210Y-104765790D01*
X112437325Y-104957633D01*
X112493516Y-104968810D01*
X112776000Y-105025001D01*
X112776005Y-105025000D01*
X117678560Y-105025000D01*
X117678560Y-107372000D01*
X117722838Y-107607317D01*
X117861910Y-107823441D01*
X117912737Y-107858169D01*
X117824559Y-107914910D01*
X117679569Y-108127110D01*
X117630990Y-108367000D01*
X117065182Y-108367000D01*
X117023162Y-108143683D01*
X116884090Y-107927559D01*
X116671890Y-107782569D01*
X116420000Y-107731560D01*
X114720000Y-107731560D01*
X114484683Y-107775838D01*
X114268559Y-107914910D01*
X114123569Y-108127110D01*
X114072560Y-108379000D01*
X114072560Y-110379000D01*
X114116838Y-110614317D01*
X114255910Y-110830441D01*
X114468110Y-110975431D01*
X114720000Y-111026440D01*
X116420000Y-111026440D01*
X116655317Y-110982162D01*
X116871441Y-110843090D01*
X117016431Y-110630890D01*
X117067440Y-110379000D01*
X117067440Y-110137000D01*
X117628560Y-110137000D01*
X117628560Y-110379000D01*
X117672838Y-110614317D01*
X117811910Y-110830441D01*
X118024110Y-110975431D01*
X118276000Y-111026440D01*
X119976000Y-111026440D01*
X120211317Y-110982162D01*
X120427441Y-110843090D01*
X120572431Y-110630890D01*
X120623440Y-110379000D01*
X120623440Y-108379000D01*
X120579162Y-108143683D01*
X120440090Y-107927559D01*
X120340763Y-107859692D01*
X120377441Y-107836090D01*
X120522431Y-107623890D01*
X120552597Y-107474926D01*
X120651302Y-107622648D01*
X121116849Y-107933717D01*
X121666000Y-108042950D01*
X122215151Y-107933717D01*
X122680698Y-107622648D01*
X122936000Y-107240562D01*
X123191302Y-107622648D01*
X123321000Y-107709310D01*
X123321000Y-111241021D01*
X121120210Y-113441810D01*
X120928367Y-113728925D01*
X120928367Y-113728926D01*
X120860999Y-114067600D01*
X120861000Y-114067605D01*
X120861000Y-114625700D01*
X120521703Y-114964405D01*
X120301252Y-115495311D01*
X120300750Y-116070167D01*
X120520275Y-116601457D01*
X120926405Y-117008297D01*
X121457311Y-117228748D01*
X122032167Y-117229250D01*
X122563457Y-117009725D01*
X122970297Y-116603595D01*
X123190748Y-116072689D01*
X123191250Y-115497833D01*
X122971725Y-114966543D01*
X122631000Y-114625222D01*
X122631000Y-114434180D01*
X124831787Y-112233392D01*
X124831790Y-112233390D01*
X125023633Y-111946275D01*
X125091000Y-111607600D01*
X125091000Y-107709310D01*
X125220698Y-107622648D01*
X125476000Y-107240562D01*
X125731302Y-107622648D01*
X126196849Y-107933717D01*
X126746000Y-108042950D01*
X127295151Y-107933717D01*
X127760698Y-107622648D01*
X128071767Y-107157101D01*
X128091678Y-107057000D01*
X128745995Y-107057000D01*
X128746000Y-107057001D01*
X129028484Y-107000810D01*
X129084675Y-106989633D01*
X129371790Y-106797790D01*
X129671000Y-106498580D01*
X129671000Y-109643146D01*
X129470683Y-109680838D01*
X129254559Y-109819910D01*
X129109569Y-110032110D01*
X129058560Y-110284000D01*
X129058560Y-112284000D01*
X129080199Y-112399000D01*
X127904300Y-112399000D01*
X127565595Y-112059703D01*
X127034689Y-111839252D01*
X126459833Y-111838750D01*
X125928543Y-112058275D01*
X125521703Y-112464405D01*
X125301252Y-112995311D01*
X125300750Y-113570167D01*
X125520275Y-114101457D01*
X125926405Y-114508297D01*
X126457311Y-114728748D01*
X127032167Y-114729250D01*
X127563457Y-114509725D01*
X127904778Y-114169000D01*
X129081848Y-114169000D01*
X129058560Y-114284000D01*
X129058560Y-116284000D01*
X129102838Y-116519317D01*
X129241910Y-116735441D01*
X129454110Y-116880431D01*
X129655090Y-116921131D01*
X129177220Y-117399000D01*
X127904300Y-117399000D01*
X127565595Y-117059703D01*
X127034689Y-116839252D01*
X126459833Y-116838750D01*
X125928543Y-117058275D01*
X125521703Y-117464405D01*
X125301252Y-117995311D01*
X125300750Y-118570167D01*
X125520275Y-119101457D01*
X125926405Y-119508297D01*
X126457311Y-119728748D01*
X127032167Y-119729250D01*
X127563457Y-119509725D01*
X127904778Y-119169000D01*
X129543795Y-119169000D01*
X129543800Y-119169001D01*
X129872611Y-119103595D01*
X129882475Y-119101633D01*
X130169590Y-118909790D01*
X131181787Y-117897592D01*
X131181790Y-117897590D01*
X131373633Y-117610475D01*
X131398749Y-117484210D01*
X131441001Y-117271800D01*
X131441000Y-117271795D01*
X131441000Y-116924854D01*
X131641317Y-116887162D01*
X131857441Y-116748090D01*
X132002431Y-116535890D01*
X132053440Y-116284000D01*
X132053440Y-114284000D01*
X132031801Y-114169000D01*
X132079995Y-114169000D01*
X132080000Y-114169001D01*
X132408811Y-114103595D01*
X132418675Y-114101633D01*
X132705790Y-113909790D01*
X133721787Y-112893792D01*
X133721790Y-112893790D01*
X133913633Y-112606675D01*
X133927713Y-112535890D01*
X133981001Y-112268000D01*
X133981000Y-112267995D01*
X133981000Y-106002854D01*
X134181317Y-105965162D01*
X134397441Y-105826090D01*
X134542431Y-105613890D01*
X134593440Y-105362000D01*
X134593440Y-103362000D01*
X134549162Y-103126683D01*
X134410090Y-102910559D01*
X134197890Y-102765569D01*
X133946000Y-102714560D01*
X133919442Y-102714560D01*
X133688675Y-102560367D01*
X133350000Y-102493000D01*
X133011325Y-102560367D01*
X132780558Y-102714560D01*
X132246000Y-102714560D01*
X132010683Y-102758838D01*
X131798174Y-102895584D01*
X131607890Y-102765569D01*
X131356000Y-102714560D01*
X129756000Y-102714560D01*
X129520683Y-102758838D01*
X129304559Y-102897910D01*
X129159569Y-103110110D01*
X129108560Y-103362000D01*
X129108560Y-104557861D01*
X128379420Y-105287000D01*
X128091678Y-105287000D01*
X128071767Y-105186899D01*
X127760698Y-104721352D01*
X127631000Y-104634690D01*
X127631000Y-104394005D01*
X127631001Y-104394000D01*
X127563633Y-104055325D01*
X127542251Y-104023325D01*
X127371790Y-103768210D01*
X127371787Y-103768208D01*
X127117790Y-103514210D01*
X126997197Y-103433633D01*
X126830675Y-103322367D01*
X126774484Y-103311190D01*
X126492000Y-103254999D01*
X126491995Y-103255000D01*
X113142579Y-103255000D01*
X111369790Y-101482210D01*
X111272745Y-101417367D01*
X111082675Y-101290367D01*
X111026484Y-101279190D01*
X110744000Y-101222999D01*
X110743995Y-101223000D01*
X110694152Y-101223000D01*
X110717440Y-101108000D01*
X110717440Y-100993000D01*
X117569995Y-100993000D01*
X117570000Y-100993001D01*
X117852484Y-100936810D01*
X117908675Y-100925633D01*
X118195790Y-100733790D01*
X118609390Y-100320190D01*
X119126000Y-100422950D01*
X119642610Y-100320190D01*
X120310208Y-100987787D01*
X120310210Y-100987790D01*
X120490118Y-101108000D01*
X120597326Y-101179634D01*
X120936000Y-101247001D01*
X120936005Y-101247000D01*
X129108560Y-101247000D01*
X129108560Y-101362000D01*
X129152838Y-101597317D01*
X129291910Y-101813441D01*
X129504110Y-101958431D01*
X129756000Y-102009440D01*
X131356000Y-102009440D01*
X131591317Y-101965162D01*
X131803826Y-101828416D01*
X131994110Y-101958431D01*
X132246000Y-102009440D01*
X133946000Y-102009440D01*
X134181317Y-101965162D01*
X134397441Y-101826090D01*
X134542431Y-101613890D01*
X134593440Y-101362000D01*
X134593440Y-99362000D01*
X134549162Y-99126683D01*
X134410090Y-98910559D01*
X134197890Y-98765569D01*
X133946000Y-98714560D01*
X132246000Y-98714560D01*
X132010683Y-98758838D01*
X131798174Y-98895584D01*
X131607890Y-98765569D01*
X131356000Y-98714560D01*
X129756000Y-98714560D01*
X129520683Y-98758838D01*
X129304559Y-98897910D01*
X129159569Y-99110110D01*
X129108560Y-99362000D01*
X129108560Y-99477000D01*
X128083722Y-99477000D01*
X128181000Y-98987950D01*
X128181000Y-98116050D01*
X128071767Y-97566899D01*
X127760698Y-97101352D01*
X127295151Y-96790283D01*
X126746000Y-96681050D01*
X126196849Y-96790283D01*
X125731302Y-97101352D01*
X125476000Y-97483438D01*
X125220698Y-97101352D01*
X124755151Y-96790283D01*
X124206000Y-96681050D01*
X123656849Y-96790283D01*
X123191302Y-97101352D01*
X122936000Y-97483438D01*
X122680698Y-97101352D01*
X122215151Y-96790283D01*
X121666000Y-96681050D01*
X121116849Y-96790283D01*
X120651302Y-97101352D01*
X120396000Y-97483438D01*
X120140698Y-97101352D01*
X119675151Y-96790283D01*
X119126000Y-96681050D01*
X118576849Y-96790283D01*
X118111302Y-97101352D01*
X117800233Y-97566899D01*
X117691000Y-98116050D01*
X117691000Y-98735420D01*
X117203420Y-99223000D01*
X110717440Y-99223000D01*
X110717440Y-99108000D01*
X110673162Y-98872683D01*
X110534090Y-98656559D01*
X110321890Y-98511569D01*
X110070000Y-98460560D01*
X108370000Y-98460560D01*
X108134683Y-98504838D01*
X107922174Y-98641584D01*
X107731890Y-98511569D01*
X107480000Y-98460560D01*
X105880000Y-98460560D01*
X105644683Y-98504838D01*
X105428559Y-98643910D01*
X105283569Y-98856110D01*
X105232560Y-99108000D01*
X105232560Y-99223000D01*
X104461722Y-99223000D01*
X104559000Y-98733950D01*
X104559000Y-97862050D01*
X104449767Y-97312899D01*
X104138698Y-96847352D01*
X103673151Y-96536283D01*
X103124000Y-96427050D01*
X102574849Y-96536283D01*
X102109302Y-96847352D01*
X101854000Y-97229438D01*
X101598698Y-96847352D01*
X101133151Y-96536283D01*
X100584000Y-96427050D01*
X100034849Y-96536283D01*
X99569302Y-96847352D01*
X99314000Y-97229438D01*
X99058698Y-96847352D01*
X98593151Y-96536283D01*
X98044000Y-96427050D01*
X97494849Y-96536283D01*
X97029302Y-96847352D01*
X96774000Y-97229438D01*
X96518698Y-96847352D01*
X96053151Y-96536283D01*
X95504000Y-96427050D01*
X94954849Y-96536283D01*
X94489302Y-96847352D01*
X94178233Y-97312899D01*
X94069000Y-97862050D01*
X94069000Y-98481421D01*
X93327420Y-99223000D01*
X86333440Y-99223000D01*
X86333440Y-99108000D01*
X86289162Y-98872683D01*
X86150090Y-98656559D01*
X85937890Y-98511569D01*
X85686000Y-98460560D01*
X83986000Y-98460560D01*
X83750683Y-98504838D01*
X83538174Y-98641584D01*
X83347890Y-98511569D01*
X83096000Y-98460560D01*
X81496000Y-98460560D01*
X81260683Y-98504838D01*
X81044559Y-98643910D01*
X80899569Y-98856110D01*
X80848560Y-99108000D01*
X80848560Y-99223000D01*
X80077722Y-99223000D01*
X80175000Y-98733950D01*
X80175000Y-97862050D01*
X80065767Y-97312899D01*
X79754698Y-96847352D01*
X79289151Y-96536283D01*
X78740000Y-96427050D01*
X78190849Y-96536283D01*
X77725302Y-96847352D01*
X77470000Y-97229438D01*
X77214698Y-96847352D01*
X76749151Y-96536283D01*
X76200000Y-96427050D01*
X75650849Y-96536283D01*
X75185302Y-96847352D01*
X74930000Y-97229438D01*
X74674698Y-96847352D01*
X74209151Y-96536283D01*
X73660000Y-96427050D01*
X73110849Y-96536283D01*
X72645302Y-96847352D01*
X72390000Y-97229438D01*
X72134698Y-96847352D01*
X71669151Y-96536283D01*
X71120000Y-96427050D01*
X70570849Y-96536283D01*
X70105302Y-96847352D01*
X69794233Y-97312899D01*
X69774322Y-97413000D01*
X64516000Y-97413000D01*
X64177325Y-97480367D01*
X63890210Y-97672210D01*
X63890208Y-97672213D01*
X59318210Y-102244210D01*
X59126367Y-102531325D01*
X59126367Y-102531326D01*
X59058999Y-102870000D01*
X50685000Y-102870000D01*
X50685000Y-94248004D01*
X51615757Y-93131096D01*
X51614241Y-94868404D01*
X52280410Y-96480658D01*
X53512854Y-97715254D01*
X55123943Y-98384237D01*
X56868404Y-98385759D01*
X58480658Y-97719590D01*
X59715254Y-96487146D01*
X60384237Y-94876057D01*
X60385759Y-93131596D01*
X59719590Y-91519342D01*
X58487146Y-90284746D01*
X56876057Y-89615763D01*
X55131596Y-89614241D01*
X54239192Y-89982975D01*
X55320837Y-88685000D01*
X139679163Y-88685000D01*
X140761025Y-89983234D01*
X140761025Y-89983234D01*
G37*
X140761025Y-89983234D02*
X139876057Y-89615763D01*
X138131596Y-89614241D01*
X136519342Y-90280410D01*
X135284746Y-91512854D01*
X134615763Y-93123943D01*
X134614241Y-94868404D01*
X135280410Y-96480658D01*
X136512854Y-97715254D01*
X138123943Y-98384237D01*
X139868404Y-98385759D01*
X141480658Y-97719590D01*
X142715254Y-96487146D01*
X143384237Y-94876057D01*
X143385758Y-93132914D01*
X144315000Y-94248004D01*
X144315000Y-151751996D01*
X143384243Y-152868904D01*
X143385759Y-151131596D01*
X142719590Y-149519342D01*
X141487146Y-148284746D01*
X139876057Y-147615763D01*
X138131596Y-147614241D01*
X136519342Y-148280410D01*
X135284746Y-149512854D01*
X134615763Y-151123943D01*
X134614241Y-152868404D01*
X135280410Y-154480658D01*
X136512854Y-155715254D01*
X138123943Y-156384237D01*
X139868404Y-156385759D01*
X140760809Y-156017025D01*
X139679163Y-157315000D01*
X104735025Y-157315000D01*
X104766327Y-157283698D01*
X104863000Y-157050309D01*
X104863000Y-156209750D01*
X104704250Y-156051000D01*
X103505000Y-156051000D01*
X103505000Y-156071000D01*
X103251000Y-156071000D01*
X103251000Y-156051000D01*
X102051750Y-156051000D01*
X101893000Y-156209750D01*
X101893000Y-157050309D01*
X101989673Y-157283698D01*
X102020975Y-157315000D01*
X99655025Y-157315000D01*
X99686327Y-157283698D01*
X99783000Y-157050309D01*
X99783000Y-156209750D01*
X99624250Y-156051000D01*
X98425000Y-156051000D01*
X98425000Y-156071000D01*
X98171000Y-156071000D01*
X98171000Y-156051000D01*
X96971750Y-156051000D01*
X96813000Y-156209750D01*
X96813000Y-157050309D01*
X96909673Y-157283698D01*
X96940975Y-157315000D01*
X94575025Y-157315000D01*
X94606327Y-157283698D01*
X94703000Y-157050309D01*
X94703000Y-156209750D01*
X94544250Y-156051000D01*
X93345000Y-156051000D01*
X93345000Y-156071000D01*
X93091000Y-156071000D01*
X93091000Y-156051000D01*
X91891750Y-156051000D01*
X91733000Y-156209750D01*
X91733000Y-157050309D01*
X91829673Y-157283698D01*
X91860975Y-157315000D01*
X55320837Y-157315000D01*
X54238975Y-156016766D01*
X55123943Y-156384237D01*
X56868404Y-156385759D01*
X58480658Y-155719590D01*
X59715254Y-154487146D01*
X60384237Y-152876057D01*
X60385759Y-151131596D01*
X59719590Y-149519342D01*
X59077120Y-148875750D01*
X59865000Y-148875750D01*
X59865000Y-149516310D01*
X59961673Y-149749699D01*
X60140302Y-149928327D01*
X60373691Y-150025000D01*
X61214250Y-150025000D01*
X61373000Y-149866250D01*
X61373000Y-148717000D01*
X61627000Y-148717000D01*
X61627000Y-149866250D01*
X61785750Y-150025000D01*
X62626309Y-150025000D01*
X62859698Y-149928327D01*
X63038327Y-149749699D01*
X63135000Y-149516310D01*
X63135000Y-148875750D01*
X62976250Y-148717000D01*
X61627000Y-148717000D01*
X61373000Y-148717000D01*
X60023750Y-148717000D01*
X59865000Y-148875750D01*
X59077120Y-148875750D01*
X58487146Y-148284746D01*
X56991478Y-147663690D01*
X59865000Y-147663690D01*
X59865000Y-148304250D01*
X60023750Y-148463000D01*
X61373000Y-148463000D01*
X61373000Y-147313750D01*
X61627000Y-147313750D01*
X61627000Y-148463000D01*
X62976250Y-148463000D01*
X63135000Y-148304250D01*
X63135000Y-147663690D01*
X63038327Y-147430301D01*
X62859698Y-147251673D01*
X62626309Y-147155000D01*
X61785750Y-147155000D01*
X61627000Y-147313750D01*
X61373000Y-147313750D01*
X61214250Y-147155000D01*
X60373691Y-147155000D01*
X60140302Y-147251673D01*
X59961673Y-147430301D01*
X59865000Y-147663690D01*
X56991478Y-147663690D01*
X56876057Y-147615763D01*
X55131596Y-147614241D01*
X53519342Y-148280410D01*
X52284746Y-149512854D01*
X51615763Y-151123943D01*
X51614242Y-152867086D01*
X50685000Y-151751996D01*
X50685000Y-138340223D01*
X63363035Y-138340223D01*
X63390222Y-138910454D01*
X63556136Y-139311005D01*
X63802255Y-139385139D01*
X64630395Y-138557000D01*
X63802255Y-137728861D01*
X63556136Y-137802995D01*
X63363035Y-138340223D01*
X50685000Y-138340223D01*
X50685000Y-102870000D01*
X59058999Y-102870000D01*
X59059000Y-102870005D01*
X59059000Y-131063995D01*
X59058999Y-131064000D01*
X59092681Y-131233325D01*
X59126367Y-131402675D01*
X59233352Y-131562790D01*
X59318210Y-131689790D01*
X64751576Y-137123156D01*
X64456546Y-137137222D01*
X64055995Y-137303136D01*
X63981861Y-137549255D01*
X64810000Y-138377395D01*
X64824143Y-138363253D01*
X65003748Y-138542858D01*
X64989605Y-138557000D01*
X65003748Y-138571142D01*
X64824142Y-138750748D01*
X64810000Y-138736605D01*
X63981861Y-139564745D01*
X64055995Y-139810864D01*
X64593223Y-140003965D01*
X64714369Y-139998189D01*
X64678999Y-140176000D01*
X64679000Y-140176005D01*
X64679000Y-147142560D01*
X64500000Y-147142560D01*
X64264683Y-147186838D01*
X64048559Y-147325910D01*
X63903569Y-147538110D01*
X63852560Y-147790000D01*
X63852560Y-149390000D01*
X63896838Y-149625317D01*
X64035910Y-149841441D01*
X64248110Y-149986431D01*
X64500000Y-150037440D01*
X64552000Y-150037440D01*
X64552000Y-153696560D01*
X64437000Y-153696560D01*
X64201683Y-153740838D01*
X63985559Y-153879910D01*
X63840569Y-154092110D01*
X63789560Y-154344000D01*
X63789560Y-156044000D01*
X63833838Y-156279317D01*
X63972910Y-156495441D01*
X64185110Y-156640431D01*
X64437000Y-156691440D01*
X66437000Y-156691440D01*
X66672317Y-156647162D01*
X66888441Y-156508090D01*
X67033431Y-156295890D01*
X67084440Y-156044000D01*
X67084440Y-154344000D01*
X67789560Y-154344000D01*
X67789560Y-156044000D01*
X67833838Y-156279317D01*
X67972910Y-156495441D01*
X68185110Y-156640431D01*
X68437000Y-156691440D01*
X70437000Y-156691440D01*
X70672317Y-156647162D01*
X70888441Y-156508090D01*
X71033431Y-156295890D01*
X71084440Y-156044000D01*
X71084440Y-154344000D01*
X71052987Y-154176840D01*
X72990200Y-154176840D01*
X73225517Y-154132562D01*
X73441641Y-153993490D01*
X73586631Y-153781290D01*
X73637640Y-153529400D01*
X73637640Y-152965150D01*
X74355200Y-152965150D01*
X74355200Y-153655710D01*
X74451873Y-153889099D01*
X74630502Y-154067727D01*
X74863891Y-154164400D01*
X75704450Y-154164400D01*
X75863200Y-154005650D01*
X75863200Y-152806400D01*
X76117200Y-152806400D01*
X76117200Y-154005650D01*
X76275950Y-154164400D01*
X77116509Y-154164400D01*
X77349898Y-154067727D01*
X77520800Y-153896826D01*
X77666302Y-154042327D01*
X77899691Y-154139000D01*
X78740250Y-154139000D01*
X78899000Y-153980250D01*
X78899000Y-152781000D01*
X79153000Y-152781000D01*
X79153000Y-153980250D01*
X79311750Y-154139000D01*
X80152309Y-154139000D01*
X80385698Y-154042327D01*
X80564327Y-153863699D01*
X80661000Y-153630310D01*
X80661000Y-152939750D01*
X80502250Y-152781000D01*
X79153000Y-152781000D01*
X78899000Y-152781000D01*
X77549750Y-152781000D01*
X77495400Y-152835350D01*
X77466450Y-152806400D01*
X76117200Y-152806400D01*
X75863200Y-152806400D01*
X74513950Y-152806400D01*
X74355200Y-152965150D01*
X73637640Y-152965150D01*
X73637640Y-151829400D01*
X73613874Y-151703090D01*
X74355200Y-151703090D01*
X74355200Y-152393650D01*
X74513950Y-152552400D01*
X75863200Y-152552400D01*
X75863200Y-151353150D01*
X76117200Y-151353150D01*
X76117200Y-152552400D01*
X77466450Y-152552400D01*
X77520800Y-152498050D01*
X77549750Y-152527000D01*
X78899000Y-152527000D01*
X78899000Y-151327750D01*
X79153000Y-151327750D01*
X79153000Y-152527000D01*
X80502250Y-152527000D01*
X80661000Y-152368250D01*
X80661000Y-151804000D01*
X81378560Y-151804000D01*
X81378560Y-153504000D01*
X81422838Y-153739317D01*
X81561910Y-153955441D01*
X81774110Y-154100431D01*
X82026000Y-154151440D01*
X82205000Y-154151440D01*
X82205000Y-154204560D01*
X82090000Y-154204560D01*
X81854683Y-154248838D01*
X81638559Y-154387910D01*
X81493569Y-154600110D01*
X81442560Y-154852000D01*
X81442560Y-156552000D01*
X81486838Y-156787317D01*
X81625910Y-157003441D01*
X81838110Y-157148431D01*
X82090000Y-157199440D01*
X84090000Y-157199440D01*
X84325317Y-157155162D01*
X84541441Y-157016090D01*
X84686431Y-156803890D01*
X84737440Y-156552000D01*
X84737440Y-154852000D01*
X84693162Y-154616683D01*
X84554090Y-154400559D01*
X84341890Y-154255569D01*
X84090000Y-154204560D01*
X83975000Y-154204560D01*
X83975000Y-154151440D01*
X84026000Y-154151440D01*
X84261317Y-154107162D01*
X84477441Y-153968090D01*
X84622431Y-153755890D01*
X84673440Y-153504000D01*
X84673440Y-151804000D01*
X84629162Y-151568683D01*
X84490090Y-151352559D01*
X84277890Y-151207569D01*
X84026000Y-151156560D01*
X82026000Y-151156560D01*
X81790683Y-151200838D01*
X81574559Y-151339910D01*
X81429569Y-151552110D01*
X81378560Y-151804000D01*
X80661000Y-151804000D01*
X80661000Y-151677690D01*
X80564327Y-151444301D01*
X80385698Y-151265673D01*
X80152309Y-151169000D01*
X79311750Y-151169000D01*
X79153000Y-151327750D01*
X78899000Y-151327750D01*
X78740250Y-151169000D01*
X77899691Y-151169000D01*
X77666302Y-151265673D01*
X77495400Y-151436574D01*
X77349898Y-151291073D01*
X77116509Y-151194400D01*
X76275950Y-151194400D01*
X76117200Y-151353150D01*
X75863200Y-151353150D01*
X75704450Y-151194400D01*
X74863891Y-151194400D01*
X74630502Y-151291073D01*
X74451873Y-151469701D01*
X74355200Y-151703090D01*
X73613874Y-151703090D01*
X73593362Y-151594083D01*
X73454290Y-151377959D01*
X73242090Y-151232969D01*
X72990200Y-151181960D01*
X70990200Y-151181960D01*
X70754883Y-151226238D01*
X70538759Y-151365310D01*
X70393769Y-151577510D01*
X70342760Y-151829400D01*
X70342760Y-151842903D01*
X70337245Y-151844000D01*
X70247925Y-151861767D01*
X69960810Y-152053610D01*
X69960808Y-152053613D01*
X68938210Y-153076210D01*
X68746367Y-153363325D01*
X68746367Y-153363326D01*
X68680081Y-153696560D01*
X68437000Y-153696560D01*
X68201683Y-153740838D01*
X67985559Y-153879910D01*
X67840569Y-154092110D01*
X67789560Y-154344000D01*
X67084440Y-154344000D01*
X67040162Y-154108683D01*
X66901090Y-153892559D01*
X66688890Y-153747569D01*
X66437000Y-153696560D01*
X66322000Y-153696560D01*
X66322000Y-150037440D01*
X66500000Y-150037440D01*
X66735317Y-149993162D01*
X66951441Y-149854090D01*
X67096431Y-149641890D01*
X67147440Y-149390000D01*
X67147440Y-147790000D01*
X67103162Y-147554683D01*
X66964090Y-147338559D01*
X66751890Y-147193569D01*
X66500000Y-147142560D01*
X66449000Y-147142560D01*
X66449000Y-140542580D01*
X66987140Y-140004440D01*
X68110000Y-140004440D01*
X68135973Y-139999553D01*
X73029000Y-144892579D01*
X73029000Y-145126560D01*
X72864000Y-145126560D01*
X72628683Y-145170838D01*
X72412559Y-145309910D01*
X72267569Y-145522110D01*
X72216560Y-145774000D01*
X72216560Y-149374000D01*
X72260838Y-149609317D01*
X72399910Y-149825441D01*
X72612110Y-149970431D01*
X72864000Y-150021440D01*
X74964000Y-150021440D01*
X75199317Y-149977162D01*
X75415441Y-149838090D01*
X75560431Y-149625890D01*
X75611440Y-149374000D01*
X75611440Y-147701000D01*
X77229000Y-147701000D01*
X77229000Y-148451000D01*
X77405864Y-149086154D01*
X77812328Y-149605277D01*
X78386511Y-149929337D01*
X78525721Y-149963654D01*
X78787000Y-149844957D01*
X78787000Y-147701000D01*
X79041000Y-147701000D01*
X79041000Y-149844957D01*
X79302279Y-149963654D01*
X79441489Y-149929337D01*
X80015672Y-149605277D01*
X80422136Y-149086154D01*
X80599000Y-148451000D01*
X80599000Y-147701000D01*
X79041000Y-147701000D01*
X78787000Y-147701000D01*
X77229000Y-147701000D01*
X75611440Y-147701000D01*
X75611440Y-146697000D01*
X77229000Y-146697000D01*
X77229000Y-147447000D01*
X78787000Y-147447000D01*
X78787000Y-145303043D01*
X79041000Y-145303043D01*
X79041000Y-147447000D01*
X80599000Y-147447000D01*
X80599000Y-146697000D01*
X80422136Y-146061846D01*
X80015672Y-145542723D01*
X79441489Y-145218663D01*
X79302279Y-145184346D01*
X79041000Y-145303043D01*
X78787000Y-145303043D01*
X78525721Y-145184346D01*
X78386511Y-145218663D01*
X77812328Y-145542723D01*
X77405864Y-146061846D01*
X77229000Y-146697000D01*
X75611440Y-146697000D01*
X75611440Y-145774000D01*
X75567162Y-145538683D01*
X75428090Y-145322559D01*
X75215890Y-145177569D01*
X74964000Y-145126560D01*
X74799000Y-145126560D01*
X74799000Y-144526005D01*
X74799001Y-144526000D01*
X74731633Y-144187325D01*
X74539790Y-143900210D01*
X74539787Y-143900208D01*
X73717530Y-143077950D01*
X74612600Y-143077950D01*
X74612600Y-143918509D01*
X74709273Y-144151898D01*
X74887901Y-144330527D01*
X75121290Y-144427200D01*
X75761850Y-144427200D01*
X75920600Y-144268450D01*
X75920600Y-142919200D01*
X76174600Y-142919200D01*
X76174600Y-144268450D01*
X76333350Y-144427200D01*
X76973910Y-144427200D01*
X77207299Y-144330527D01*
X77385927Y-144151898D01*
X77482600Y-143918509D01*
X77482600Y-143077950D01*
X77323850Y-142919200D01*
X76174600Y-142919200D01*
X75920600Y-142919200D01*
X74771350Y-142919200D01*
X74612600Y-143077950D01*
X73717530Y-143077950D01*
X72305471Y-141665891D01*
X74612600Y-141665891D01*
X74612600Y-142506450D01*
X74771350Y-142665200D01*
X75920600Y-142665200D01*
X75920600Y-141315950D01*
X76174600Y-141315950D01*
X76174600Y-142665200D01*
X77323850Y-142665200D01*
X77482600Y-142506450D01*
X77482600Y-141665891D01*
X77385927Y-141432502D01*
X77207299Y-141253873D01*
X76973910Y-141157200D01*
X76333350Y-141157200D01*
X76174600Y-141315950D01*
X75920600Y-141315950D01*
X75761850Y-141157200D01*
X75121290Y-141157200D01*
X74887901Y-141253873D01*
X74709273Y-141432502D01*
X74612600Y-141665891D01*
X72305471Y-141665891D01*
X68757440Y-138117860D01*
X68757440Y-137757000D01*
X68713162Y-137521683D01*
X68574090Y-137305559D01*
X68361890Y-137160569D01*
X68110000Y-137109560D01*
X67241139Y-137109560D01*
X60829000Y-130697420D01*
X60829000Y-103236580D01*
X64882579Y-99183000D01*
X69774322Y-99183000D01*
X69794233Y-99283101D01*
X70105302Y-99748648D01*
X70570849Y-100059717D01*
X71120000Y-100168950D01*
X71636610Y-100066190D01*
X72304208Y-100733787D01*
X72304210Y-100733790D01*
X72496054Y-100861975D01*
X72591326Y-100925634D01*
X72930000Y-100993001D01*
X72930005Y-100993000D01*
X80848560Y-100993000D01*
X80848560Y-101108000D01*
X80892838Y-101343317D01*
X81031910Y-101559441D01*
X81244110Y-101704431D01*
X81496000Y-101755440D01*
X82412981Y-101755440D01*
X81707860Y-102460560D01*
X81496000Y-102460560D01*
X81260683Y-102504838D01*
X81044559Y-102643910D01*
X80899569Y-102856110D01*
X80848560Y-103108000D01*
X80848560Y-104303861D01*
X80119420Y-105033000D01*
X80085678Y-105033000D01*
X80065767Y-104932899D01*
X79754698Y-104467352D01*
X79625000Y-104380690D01*
X79625000Y-102870005D01*
X79625001Y-102870000D01*
X79557634Y-102531326D01*
X79493975Y-102436054D01*
X79365790Y-102244210D01*
X79365787Y-102244208D01*
X78730790Y-101609210D01*
X78712991Y-101597317D01*
X78443675Y-101417367D01*
X78387484Y-101406190D01*
X78105000Y-101349999D01*
X78104995Y-101350000D01*
X64389005Y-101350000D01*
X64389000Y-101349999D01*
X64106516Y-101406190D01*
X64050325Y-101417367D01*
X63763210Y-101609210D01*
X63763208Y-101609213D01*
X61985210Y-103387210D01*
X61793367Y-103674325D01*
X61793367Y-103674326D01*
X61725999Y-104013000D01*
X61726000Y-104013005D01*
X61726000Y-130936995D01*
X61725999Y-130937000D01*
X61782190Y-131219484D01*
X61793367Y-131275675D01*
X61985210Y-131562790D01*
X66176208Y-135753787D01*
X66176210Y-135753790D01*
X66463325Y-135945633D01*
X66519516Y-135956810D01*
X66802000Y-136013001D01*
X66802005Y-136013000D01*
X70118420Y-136013000D01*
X73523408Y-139417987D01*
X73523410Y-139417990D01*
X73810525Y-139609833D01*
X74149200Y-139677200D01*
X74600160Y-139677200D01*
X74600160Y-139792200D01*
X74644438Y-140027517D01*
X74783510Y-140243641D01*
X74995710Y-140388631D01*
X75247600Y-140439640D01*
X76847600Y-140439640D01*
X77082917Y-140395362D01*
X77299041Y-140256290D01*
X77444031Y-140044090D01*
X77495040Y-139792200D01*
X77495040Y-139677200D01*
X79520795Y-139677200D01*
X79520800Y-139677201D01*
X79803284Y-139621010D01*
X79859475Y-139609833D01*
X80146590Y-139417990D01*
X80146591Y-139417989D01*
X81298889Y-138265690D01*
X82893000Y-138265690D01*
X82893000Y-138906250D01*
X83051750Y-139065000D01*
X84201000Y-139065000D01*
X84201000Y-137915750D01*
X84042250Y-137757000D01*
X83401691Y-137757000D01*
X83168302Y-137853673D01*
X82989673Y-138032301D01*
X82893000Y-138265690D01*
X81298889Y-138265690D01*
X82662579Y-136902000D01*
X85485420Y-136902000D01*
X85943000Y-137359579D01*
X85943000Y-138047829D01*
X85751813Y-138238683D01*
X85666327Y-138032301D01*
X85487698Y-137853673D01*
X85254309Y-137757000D01*
X84613750Y-137757000D01*
X84455000Y-137915750D01*
X84455000Y-139065000D01*
X84475000Y-139065000D01*
X84475000Y-139319000D01*
X84455000Y-139319000D01*
X84455000Y-139339000D01*
X84201000Y-139339000D01*
X84201000Y-139319000D01*
X83051750Y-139319000D01*
X82893000Y-139477750D01*
X82893000Y-140118310D01*
X82989673Y-140351699D01*
X83168302Y-140530327D01*
X83401691Y-140627000D01*
X84042250Y-140627000D01*
X84200998Y-140468252D01*
X84200998Y-140567422D01*
X83288210Y-141480210D01*
X83096367Y-141767325D01*
X83096367Y-141767326D01*
X83028999Y-142106000D01*
X83029000Y-142106005D01*
X83029000Y-145380041D01*
X82722525Y-145584821D01*
X82357263Y-146131474D01*
X82229000Y-146776296D01*
X82229000Y-148371704D01*
X82357263Y-149016526D01*
X82722525Y-149563179D01*
X83269178Y-149928441D01*
X83914000Y-150056704D01*
X84558822Y-149928441D01*
X84833397Y-149744976D01*
X85798926Y-150710506D01*
X85881893Y-150834674D01*
X85988210Y-150993790D01*
X86205000Y-151210580D01*
X86205000Y-154204560D01*
X86090000Y-154204560D01*
X85854683Y-154248838D01*
X85638559Y-154387910D01*
X85493569Y-154600110D01*
X85442560Y-154852000D01*
X85442560Y-156552000D01*
X85486838Y-156787317D01*
X85625910Y-157003441D01*
X85838110Y-157148431D01*
X86090000Y-157199440D01*
X88090000Y-157199440D01*
X88325317Y-157155162D01*
X88541441Y-157016090D01*
X88686431Y-156803890D01*
X88737440Y-156552000D01*
X88737440Y-154852000D01*
X88693162Y-154616683D01*
X88554090Y-154400559D01*
X88341890Y-154255569D01*
X88090000Y-154204560D01*
X87975000Y-154204560D01*
X87975000Y-150844005D01*
X87975001Y-150844000D01*
X87907633Y-150505326D01*
X87907633Y-150505325D01*
X87715790Y-150218210D01*
X87715787Y-150218208D01*
X87651073Y-150153494D01*
X87461789Y-149870210D01*
X87239790Y-149648210D01*
X87239787Y-149648208D01*
X85599000Y-148007420D01*
X85599000Y-146776296D01*
X85470737Y-146131474D01*
X85105475Y-145584821D01*
X84799000Y-145380041D01*
X84799000Y-142472580D01*
X86644739Y-140626840D01*
X87112187Y-140627248D01*
X87639800Y-140409243D01*
X88043824Y-140005923D01*
X88262750Y-139478691D01*
X88263248Y-138907813D01*
X88045243Y-138380200D01*
X87713000Y-138047377D01*
X87713000Y-136993000D01*
X87645633Y-136654325D01*
X87453790Y-136367210D01*
X87453787Y-136367208D01*
X86477790Y-135391210D01*
X86363733Y-135315000D01*
X86190675Y-135199367D01*
X86134484Y-135188190D01*
X85852000Y-135131999D01*
X85851995Y-135132000D01*
X82296000Y-135132000D01*
X81957325Y-135199367D01*
X81670210Y-135391210D01*
X81670208Y-135391213D01*
X80811576Y-136249845D01*
X80835440Y-136132000D01*
X80835440Y-134632000D01*
X80791162Y-134396683D01*
X80652090Y-134180559D01*
X80439890Y-134035569D01*
X80188000Y-133984560D01*
X78688000Y-133984560D01*
X78452683Y-134028838D01*
X78236559Y-134167910D01*
X78168266Y-134267860D01*
X78112090Y-134180559D01*
X77899890Y-134035569D01*
X77648000Y-133984560D01*
X76148000Y-133984560D01*
X75912683Y-134028838D01*
X75696559Y-134167910D01*
X75628266Y-134267860D01*
X75572090Y-134180559D01*
X75359890Y-134035569D01*
X75108000Y-133984560D01*
X73608000Y-133984560D01*
X73372683Y-134028838D01*
X73156559Y-134167910D01*
X73011569Y-134380110D01*
X72960560Y-134632000D01*
X72960560Y-136132000D01*
X73004838Y-136367317D01*
X73057075Y-136448495D01*
X71110790Y-134502210D01*
X71002719Y-134430000D01*
X70823675Y-134310367D01*
X70767484Y-134299190D01*
X70485000Y-134242999D01*
X70484995Y-134243000D01*
X67168579Y-134243000D01*
X63496000Y-130570420D01*
X63496000Y-129317750D01*
X65553000Y-129317750D01*
X65553000Y-129708310D01*
X65649673Y-129941699D01*
X65828302Y-130120327D01*
X66061691Y-130217000D01*
X66452250Y-130217000D01*
X66611000Y-130058250D01*
X66611000Y-129159000D01*
X66865000Y-129159000D01*
X66865000Y-130058250D01*
X67023750Y-130217000D01*
X67414309Y-130217000D01*
X67647698Y-130120327D01*
X67826327Y-129941699D01*
X67923000Y-129708310D01*
X67923000Y-129317750D01*
X67764250Y-129159000D01*
X66865000Y-129159000D01*
X66611000Y-129159000D01*
X65711750Y-129159000D01*
X65553000Y-129317750D01*
X63496000Y-129317750D01*
X63496000Y-128355690D01*
X65553000Y-128355690D01*
X65553000Y-128746250D01*
X65711750Y-128905000D01*
X66611000Y-128905000D01*
X66611000Y-128005750D01*
X66865000Y-128005750D01*
X66865000Y-128905000D01*
X67764250Y-128905000D01*
X67923000Y-128746250D01*
X67923000Y-128355690D01*
X67826327Y-128122301D01*
X67647698Y-127943673D01*
X67414309Y-127847000D01*
X67023750Y-127847000D01*
X66865000Y-128005750D01*
X66611000Y-128005750D01*
X66452250Y-127847000D01*
X66061691Y-127847000D01*
X65828302Y-127943673D01*
X65649673Y-128122301D01*
X65553000Y-128355690D01*
X63496000Y-128355690D01*
X63496000Y-111490000D01*
X64288560Y-111490000D01*
X64288560Y-113490000D01*
X64332838Y-113725317D01*
X64471910Y-113941441D01*
X64684110Y-114086431D01*
X64936000Y-114137440D01*
X65853000Y-114137440D01*
X65853000Y-125402982D01*
X65736559Y-125477910D01*
X65591569Y-125690110D01*
X65540560Y-125942000D01*
X65540560Y-127042000D01*
X65584838Y-127277317D01*
X65723910Y-127493441D01*
X65936110Y-127638431D01*
X66188000Y-127689440D01*
X67288000Y-127689440D01*
X67523317Y-127645162D01*
X67739441Y-127506090D01*
X67884431Y-127293890D01*
X67935440Y-127042000D01*
X67935440Y-125942000D01*
X67891162Y-125706683D01*
X67752090Y-125490559D01*
X67623000Y-125402356D01*
X67623000Y-114011879D01*
X67732110Y-114086431D01*
X67949000Y-114130352D01*
X67949000Y-117982995D01*
X67948999Y-117983000D01*
X67983571Y-118156800D01*
X68016367Y-118321675D01*
X68182403Y-118570167D01*
X68208210Y-118608790D01*
X70875208Y-121275787D01*
X70875210Y-121275790D01*
X70972255Y-121340633D01*
X71162326Y-121467634D01*
X71501000Y-121535001D01*
X71501005Y-121535000D01*
X73110718Y-121535000D01*
X73011569Y-121680110D01*
X72960560Y-121932000D01*
X72960560Y-123432000D01*
X73004838Y-123667317D01*
X73143910Y-123883441D01*
X73356110Y-124028431D01*
X73608000Y-124079440D01*
X75108000Y-124079440D01*
X75343317Y-124035162D01*
X75559441Y-123896090D01*
X75627734Y-123796140D01*
X75683910Y-123883441D01*
X75896110Y-124028431D01*
X76148000Y-124079440D01*
X77648000Y-124079440D01*
X77883317Y-124035162D01*
X78099441Y-123896090D01*
X78167734Y-123796140D01*
X78223910Y-123883441D01*
X78436110Y-124028431D01*
X78688000Y-124079440D01*
X80188000Y-124079440D01*
X80423317Y-124035162D01*
X80639441Y-123896090D01*
X80784431Y-123683890D01*
X80835440Y-123432000D01*
X80835440Y-121932000D01*
X80791162Y-121696683D01*
X80687122Y-121535000D01*
X86120420Y-121535000D01*
X87380000Y-122794579D01*
X87380000Y-132460995D01*
X87379999Y-132461000D01*
X87404882Y-132586090D01*
X87447367Y-132799675D01*
X87563178Y-132972999D01*
X87639210Y-133086790D01*
X92333000Y-137780579D01*
X92333000Y-145126560D01*
X92168000Y-145126560D01*
X91932683Y-145170838D01*
X91716559Y-145309910D01*
X91571569Y-145522110D01*
X91563000Y-145564425D01*
X91563000Y-137668005D01*
X91563001Y-137668000D01*
X91495633Y-137329326D01*
X91495633Y-137329325D01*
X91303790Y-137042210D01*
X91303787Y-137042208D01*
X85207790Y-130946210D01*
X85194006Y-130937000D01*
X84920675Y-130754367D01*
X84864484Y-130743190D01*
X84582000Y-130686999D01*
X84581995Y-130687000D01*
X67827018Y-130687000D01*
X67752090Y-130570559D01*
X67539890Y-130425569D01*
X67288000Y-130374560D01*
X66188000Y-130374560D01*
X65952683Y-130418838D01*
X65736559Y-130557910D01*
X65591569Y-130770110D01*
X65540560Y-131022000D01*
X65540560Y-132122000D01*
X65584838Y-132357317D01*
X65723910Y-132573441D01*
X65936110Y-132718431D01*
X66188000Y-132769440D01*
X67288000Y-132769440D01*
X67523317Y-132725162D01*
X67739441Y-132586090D01*
X67827644Y-132457000D01*
X84215420Y-132457000D01*
X89793000Y-138034579D01*
X89793000Y-152780995D01*
X89792999Y-152781000D01*
X89829630Y-152965150D01*
X89860367Y-153119675D01*
X90031263Y-153375441D01*
X90052210Y-153406790D01*
X91195208Y-154549787D01*
X91195210Y-154549790D01*
X91462410Y-154728326D01*
X91482325Y-154741633D01*
X91735371Y-154791968D01*
X91733000Y-154797691D01*
X91733000Y-155638250D01*
X91891750Y-155797000D01*
X93091000Y-155797000D01*
X93091000Y-155777000D01*
X93345000Y-155777000D01*
X93345000Y-155797000D01*
X94544250Y-155797000D01*
X94703000Y-155638250D01*
X94703000Y-154809000D01*
X96092077Y-154809000D01*
X96156432Y-154852000D01*
X96181325Y-154868633D01*
X96520000Y-154936001D01*
X96520005Y-154936000D01*
X96813000Y-154936000D01*
X96813000Y-155638250D01*
X96971750Y-155797000D01*
X98171000Y-155797000D01*
X98171000Y-155777000D01*
X98425000Y-155777000D01*
X98425000Y-155797000D01*
X99624250Y-155797000D01*
X99783000Y-155638250D01*
X99783000Y-154936000D01*
X101893000Y-154936000D01*
X101893000Y-155638250D01*
X102051750Y-155797000D01*
X103251000Y-155797000D01*
X103251000Y-155777000D01*
X103505000Y-155777000D01*
X103505000Y-155797000D01*
X104704250Y-155797000D01*
X104863000Y-155638250D01*
X104863000Y-154936000D01*
X110108995Y-154936000D01*
X110109000Y-154936001D01*
X110391484Y-154879810D01*
X110447675Y-154868633D01*
X110734790Y-154676790D01*
X115925626Y-149485954D01*
X115948838Y-149609317D01*
X116087910Y-149825441D01*
X116300110Y-149970431D01*
X116552000Y-150021440D01*
X116717000Y-150021440D01*
X116717000Y-154431995D01*
X116716999Y-154432000D01*
X116750439Y-154600110D01*
X116784367Y-154770675D01*
X116894833Y-154936000D01*
X116976210Y-155057790D01*
X118246208Y-156327787D01*
X118246210Y-156327790D01*
X118497119Y-156495441D01*
X118533325Y-156519633D01*
X118872000Y-156587001D01*
X118872005Y-156587000D01*
X125010146Y-156587000D01*
X125047838Y-156787317D01*
X125186910Y-157003441D01*
X125399110Y-157148431D01*
X125651000Y-157199440D01*
X127651000Y-157199440D01*
X127886317Y-157155162D01*
X128102441Y-157016090D01*
X128247431Y-156803890D01*
X128298440Y-156552000D01*
X128298440Y-154852000D01*
X128254162Y-154616683D01*
X128115090Y-154400559D01*
X127902890Y-154255569D01*
X127651000Y-154204560D01*
X125651000Y-154204560D01*
X125415683Y-154248838D01*
X125199559Y-154387910D01*
X125054569Y-154600110D01*
X125010648Y-154817000D01*
X119238579Y-154817000D01*
X118487000Y-154065420D01*
X118487000Y-150098000D01*
X126518560Y-150098000D01*
X126518560Y-152098000D01*
X126562838Y-152333317D01*
X126701910Y-152549441D01*
X126914110Y-152694431D01*
X127166000Y-152745440D01*
X128411860Y-152745440D01*
X129341543Y-153675122D01*
X129357367Y-153754675D01*
X129516937Y-153993490D01*
X129549210Y-154041790D01*
X129711980Y-154204560D01*
X129651000Y-154204560D01*
X129415683Y-154248838D01*
X129199559Y-154387910D01*
X129054569Y-154600110D01*
X129003560Y-154852000D01*
X129003560Y-156552000D01*
X129047838Y-156787317D01*
X129186910Y-157003441D01*
X129399110Y-157148431D01*
X129651000Y-157199440D01*
X131651000Y-157199440D01*
X131886317Y-157155162D01*
X132102441Y-157016090D01*
X132247431Y-156803890D01*
X132298440Y-156552000D01*
X132298440Y-154852000D01*
X132254162Y-154616683D01*
X132115090Y-154400559D01*
X131902890Y-154255569D01*
X131651000Y-154204560D01*
X131536000Y-154204560D01*
X131536000Y-153892005D01*
X131536001Y-153892000D01*
X131468633Y-153553326D01*
X131468633Y-153553325D01*
X131286517Y-153280767D01*
X131269493Y-153195185D01*
X131077649Y-152908070D01*
X130800790Y-152631210D01*
X130800787Y-152631208D01*
X129513440Y-151343860D01*
X129513440Y-150098000D01*
X129469162Y-149862683D01*
X129330090Y-149646559D01*
X129117890Y-149501569D01*
X128866000Y-149450560D01*
X127166000Y-149450560D01*
X126930683Y-149494838D01*
X126714559Y-149633910D01*
X126569569Y-149846110D01*
X126518560Y-150098000D01*
X118487000Y-150098000D01*
X118487000Y-150021440D01*
X118652000Y-150021440D01*
X118887317Y-149977162D01*
X119103441Y-149838090D01*
X119248431Y-149625890D01*
X119299440Y-149374000D01*
X119299440Y-147701000D01*
X120917000Y-147701000D01*
X120917000Y-148451000D01*
X121093864Y-149086154D01*
X121500328Y-149605277D01*
X122074511Y-149929337D01*
X122213721Y-149963654D01*
X122475000Y-149844957D01*
X122475000Y-147701000D01*
X122729000Y-147701000D01*
X122729000Y-149844957D01*
X122990279Y-149963654D01*
X123129489Y-149929337D01*
X123703672Y-149605277D01*
X124110136Y-149086154D01*
X124287000Y-148451000D01*
X124287000Y-147701000D01*
X122729000Y-147701000D01*
X122475000Y-147701000D01*
X120917000Y-147701000D01*
X119299440Y-147701000D01*
X119299440Y-146697000D01*
X120917000Y-146697000D01*
X120917000Y-147447000D01*
X122475000Y-147447000D01*
X122475000Y-145303043D01*
X122729000Y-145303043D01*
X122729000Y-147447000D01*
X124287000Y-147447000D01*
X124287000Y-147383750D01*
X126531000Y-147383750D01*
X126531000Y-148224309D01*
X126627673Y-148457698D01*
X126806301Y-148636327D01*
X127039690Y-148733000D01*
X127730250Y-148733000D01*
X127889000Y-148574250D01*
X127889000Y-147225000D01*
X128143000Y-147225000D01*
X128143000Y-148574250D01*
X128301750Y-148733000D01*
X128992310Y-148733000D01*
X129225699Y-148636327D01*
X129404327Y-148457698D01*
X129501000Y-148224309D01*
X129501000Y-147383750D01*
X129342250Y-147225000D01*
X128143000Y-147225000D01*
X127889000Y-147225000D01*
X126689750Y-147225000D01*
X126531000Y-147383750D01*
X124287000Y-147383750D01*
X124287000Y-146697000D01*
X124110136Y-146061846D01*
X124039547Y-145971691D01*
X126531000Y-145971691D01*
X126531000Y-146812250D01*
X126689750Y-146971000D01*
X127889000Y-146971000D01*
X127889000Y-145621750D01*
X128143000Y-145621750D01*
X128143000Y-146971000D01*
X129342250Y-146971000D01*
X129501000Y-146812250D01*
X129501000Y-145971691D01*
X129404327Y-145738302D01*
X129225699Y-145559673D01*
X128992310Y-145463000D01*
X128301750Y-145463000D01*
X128143000Y-145621750D01*
X127889000Y-145621750D01*
X127730250Y-145463000D01*
X127039690Y-145463000D01*
X126806301Y-145559673D01*
X126627673Y-145738302D01*
X126531000Y-145971691D01*
X124039547Y-145971691D01*
X123703672Y-145542723D01*
X123129489Y-145218663D01*
X122990279Y-145184346D01*
X122729000Y-145303043D01*
X122475000Y-145303043D01*
X122213721Y-145184346D01*
X122074511Y-145218663D01*
X121500328Y-145542723D01*
X121093864Y-146061846D01*
X120917000Y-146697000D01*
X119299440Y-146697000D01*
X119299440Y-145774000D01*
X119255162Y-145538683D01*
X119116090Y-145322559D01*
X118903890Y-145177569D01*
X118652000Y-145126560D01*
X118487000Y-145126560D01*
X118487000Y-134632000D01*
X120966560Y-134632000D01*
X120966560Y-136132000D01*
X121010838Y-136367317D01*
X121149910Y-136583441D01*
X121362110Y-136728431D01*
X121614000Y-136779440D01*
X123114000Y-136779440D01*
X123349317Y-136735162D01*
X123565441Y-136596090D01*
X123633734Y-136496140D01*
X123689910Y-136583441D01*
X123902110Y-136728431D01*
X124154000Y-136779440D01*
X125654000Y-136779440D01*
X125889317Y-136735162D01*
X126105441Y-136596090D01*
X126173734Y-136496140D01*
X126229910Y-136583441D01*
X126442110Y-136728431D01*
X126694000Y-136779440D01*
X128194000Y-136779440D01*
X128429317Y-136735162D01*
X128645441Y-136596090D01*
X128790431Y-136383890D01*
X128841440Y-136132000D01*
X128841440Y-134632000D01*
X128797162Y-134396683D01*
X128658090Y-134180559D01*
X128445890Y-134035569D01*
X128194000Y-133984560D01*
X126694000Y-133984560D01*
X126458683Y-134028838D01*
X126242559Y-134167910D01*
X126174266Y-134267860D01*
X126118090Y-134180559D01*
X125905890Y-134035569D01*
X125654000Y-133984560D01*
X124154000Y-133984560D01*
X123918683Y-134028838D01*
X123702559Y-134167910D01*
X123634266Y-134267860D01*
X123578090Y-134180559D01*
X123365890Y-134035569D01*
X123114000Y-133984560D01*
X121614000Y-133984560D01*
X121378683Y-134028838D01*
X121162559Y-134167910D01*
X121017569Y-134380110D01*
X120966560Y-134632000D01*
X118487000Y-134632000D01*
X118487000Y-134430000D01*
X118419633Y-134091325D01*
X118227790Y-133804210D01*
X118227787Y-133804208D01*
X115941440Y-131517860D01*
X115941440Y-131022000D01*
X115897162Y-130786683D01*
X115758090Y-130570559D01*
X115545890Y-130425569D01*
X115294000Y-130374560D01*
X114194000Y-130374560D01*
X113958683Y-130418838D01*
X113742559Y-130557910D01*
X113597569Y-130770110D01*
X113546560Y-131022000D01*
X113546560Y-132122000D01*
X113590838Y-132357317D01*
X113729910Y-132573441D01*
X113942110Y-132718431D01*
X114194000Y-132769440D01*
X114689860Y-132769440D01*
X116717000Y-134796579D01*
X116717000Y-145126560D01*
X116552000Y-145126560D01*
X116316683Y-145170838D01*
X116100559Y-145309910D01*
X115955569Y-145522110D01*
X115904560Y-145774000D01*
X115904560Y-147003861D01*
X109742420Y-153166000D01*
X104826434Y-153166000D01*
X104875440Y-152924000D01*
X104875440Y-150924000D01*
X104831162Y-150688683D01*
X104692090Y-150472559D01*
X104479890Y-150327569D01*
X104228000Y-150276560D01*
X104103000Y-150276560D01*
X104103000Y-149767959D01*
X104409475Y-149563179D01*
X104774737Y-149016526D01*
X104903000Y-148371704D01*
X104903000Y-147701000D01*
X106533000Y-147701000D01*
X106533000Y-148451000D01*
X106709864Y-149086154D01*
X107116328Y-149605277D01*
X107690511Y-149929337D01*
X107829721Y-149963654D01*
X108091000Y-149844957D01*
X108091000Y-147701000D01*
X108345000Y-147701000D01*
X108345000Y-149844957D01*
X108606279Y-149963654D01*
X108745489Y-149929337D01*
X109319672Y-149605277D01*
X109726136Y-149086154D01*
X109903000Y-148451000D01*
X109903000Y-147701000D01*
X108345000Y-147701000D01*
X108091000Y-147701000D01*
X106533000Y-147701000D01*
X104903000Y-147701000D01*
X104903000Y-146776296D01*
X104887228Y-146697000D01*
X106533000Y-146697000D01*
X106533000Y-147447000D01*
X108091000Y-147447000D01*
X108091000Y-145303043D01*
X108345000Y-145303043D01*
X108345000Y-147447000D01*
X109903000Y-147447000D01*
X109903000Y-146697000D01*
X109726136Y-146061846D01*
X109319672Y-145542723D01*
X108745489Y-145218663D01*
X108606279Y-145184346D01*
X108345000Y-145303043D01*
X108091000Y-145303043D01*
X107829721Y-145184346D01*
X107690511Y-145218663D01*
X107116328Y-145542723D01*
X106709864Y-146061846D01*
X106533000Y-146697000D01*
X104887228Y-146697000D01*
X104774737Y-146131474D01*
X104409475Y-145584821D01*
X104287356Y-145503224D01*
X112258787Y-137531792D01*
X112258790Y-137531790D01*
X112450633Y-137244675D01*
X112468702Y-137153838D01*
X112518001Y-136906000D01*
X112518000Y-136905995D01*
X112518000Y-129317750D01*
X113559000Y-129317750D01*
X113559000Y-129708310D01*
X113655673Y-129941699D01*
X113834302Y-130120327D01*
X114067691Y-130217000D01*
X114458250Y-130217000D01*
X114617000Y-130058250D01*
X114617000Y-129159000D01*
X114871000Y-129159000D01*
X114871000Y-130058250D01*
X115029750Y-130217000D01*
X115420309Y-130217000D01*
X115653698Y-130120327D01*
X115832327Y-129941699D01*
X115929000Y-129708310D01*
X115929000Y-129317750D01*
X115770250Y-129159000D01*
X114871000Y-129159000D01*
X114617000Y-129159000D01*
X113717750Y-129159000D01*
X113559000Y-129317750D01*
X112518000Y-129317750D01*
X112518000Y-128355690D01*
X113559000Y-128355690D01*
X113559000Y-128746250D01*
X113717750Y-128905000D01*
X114617000Y-128905000D01*
X114617000Y-128005750D01*
X114871000Y-128005750D01*
X114871000Y-128905000D01*
X115770250Y-128905000D01*
X115929000Y-128746250D01*
X115929000Y-128355690D01*
X115832327Y-128122301D01*
X115653698Y-127943673D01*
X115420309Y-127847000D01*
X115029750Y-127847000D01*
X114871000Y-128005750D01*
X114617000Y-128005750D01*
X114458250Y-127847000D01*
X114067691Y-127847000D01*
X113834302Y-127943673D01*
X113655673Y-128122301D01*
X113559000Y-128355690D01*
X112518000Y-128355690D01*
X112518000Y-125942000D01*
X113546560Y-125942000D01*
X113546560Y-127042000D01*
X113590838Y-127277317D01*
X113729910Y-127493441D01*
X113942110Y-127638431D01*
X114194000Y-127689440D01*
X115294000Y-127689440D01*
X115529317Y-127645162D01*
X115745441Y-127506090D01*
X115890431Y-127293890D01*
X115941440Y-127042000D01*
X115941440Y-125942000D01*
X115897162Y-125706683D01*
X115758090Y-125490559D01*
X115629000Y-125402356D01*
X115629000Y-122096580D01*
X115793579Y-121932000D01*
X120966560Y-121932000D01*
X120966560Y-123432000D01*
X121010838Y-123667317D01*
X121149910Y-123883441D01*
X121362110Y-124028431D01*
X121614000Y-124079440D01*
X123114000Y-124079440D01*
X123349317Y-124035162D01*
X123565441Y-123896090D01*
X123633734Y-123796140D01*
X123689910Y-123883441D01*
X123902110Y-124028431D01*
X124154000Y-124079440D01*
X125654000Y-124079440D01*
X125889317Y-124035162D01*
X126105441Y-123896090D01*
X126173734Y-123796140D01*
X126229910Y-123883441D01*
X126442110Y-124028431D01*
X126694000Y-124079440D01*
X128194000Y-124079440D01*
X128429317Y-124035162D01*
X128645441Y-123896090D01*
X128790431Y-123683890D01*
X128841440Y-123432000D01*
X128841440Y-121932000D01*
X128797162Y-121696683D01*
X128658090Y-121480559D01*
X128445890Y-121335569D01*
X128194000Y-121284560D01*
X126694000Y-121284560D01*
X126458683Y-121328838D01*
X126242559Y-121467910D01*
X126174266Y-121567860D01*
X126118090Y-121480559D01*
X125905890Y-121335569D01*
X125654000Y-121284560D01*
X124154000Y-121284560D01*
X123918683Y-121328838D01*
X123702559Y-121467910D01*
X123634266Y-121567860D01*
X123578090Y-121480559D01*
X123365890Y-121335569D01*
X123114000Y-121284560D01*
X121614000Y-121284560D01*
X121378683Y-121328838D01*
X121162559Y-121467910D01*
X121017569Y-121680110D01*
X120966560Y-121932000D01*
X115793579Y-121932000D01*
X119751787Y-117973792D01*
X119751790Y-117973790D01*
X119943633Y-117686675D01*
X119958790Y-117610474D01*
X120011001Y-117348000D01*
X120011000Y-117347995D01*
X120011000Y-115019854D01*
X120211317Y-114982162D01*
X120427441Y-114843090D01*
X120572431Y-114630890D01*
X120623440Y-114379000D01*
X120623440Y-112379000D01*
X120579162Y-112143683D01*
X120440090Y-111927559D01*
X120227890Y-111782569D01*
X119976000Y-111731560D01*
X118276000Y-111731560D01*
X118040683Y-111775838D01*
X117824559Y-111914910D01*
X117679569Y-112127110D01*
X117628560Y-112379000D01*
X117628560Y-114379000D01*
X117672838Y-114614317D01*
X117811910Y-114830441D01*
X118024110Y-114975431D01*
X118241000Y-115019352D01*
X118241000Y-116981421D01*
X114118210Y-121104210D01*
X113926367Y-121391325D01*
X113926367Y-121391326D01*
X113858999Y-121730000D01*
X113859000Y-121730005D01*
X113859000Y-125402982D01*
X113742559Y-125477910D01*
X113597569Y-125690110D01*
X113546560Y-125942000D01*
X112518000Y-125942000D01*
X112518000Y-117682580D01*
X115174139Y-115026440D01*
X116420000Y-115026440D01*
X116655317Y-114982162D01*
X116871441Y-114843090D01*
X117016431Y-114630890D01*
X117067440Y-114379000D01*
X117067440Y-112379000D01*
X117023162Y-112143683D01*
X116884090Y-111927559D01*
X116671890Y-111782569D01*
X116420000Y-111731560D01*
X114720000Y-111731560D01*
X114484683Y-111775838D01*
X114268559Y-111914910D01*
X114123569Y-112127110D01*
X114072560Y-112379000D01*
X114072560Y-113624861D01*
X111007210Y-116690210D01*
X110815367Y-116977325D01*
X110815367Y-116977326D01*
X110747999Y-117316000D01*
X110748000Y-117316005D01*
X110748000Y-136539421D01*
X102592210Y-144695210D01*
X102400367Y-144982325D01*
X102400367Y-144982326D01*
X102332999Y-145321000D01*
X102333000Y-145321005D01*
X102333000Y-145380041D01*
X102026525Y-145584821D01*
X101661263Y-146131474D01*
X101533000Y-146776296D01*
X101533000Y-148371704D01*
X101661263Y-149016526D01*
X102026525Y-149563179D01*
X102333000Y-149767959D01*
X102333000Y-150313252D01*
X102292683Y-150320838D01*
X102076559Y-150459910D01*
X101931569Y-150672110D01*
X101880560Y-150924000D01*
X101880560Y-152924000D01*
X101924838Y-153159317D01*
X101929138Y-153166000D01*
X99746434Y-153166000D01*
X99795440Y-152924000D01*
X99795440Y-150924000D01*
X99751162Y-150688683D01*
X99612090Y-150472559D01*
X99399890Y-150327569D01*
X99148000Y-150276560D01*
X99103000Y-150276560D01*
X99103000Y-149767959D01*
X99409475Y-149563179D01*
X99774737Y-149016526D01*
X99903000Y-148371704D01*
X99903000Y-146776296D01*
X99774737Y-146131474D01*
X99409475Y-145584821D01*
X99239400Y-145471180D01*
X110226787Y-134483792D01*
X110226790Y-134483790D01*
X110418633Y-134196675D01*
X110439589Y-134091325D01*
X110486001Y-133858000D01*
X110486000Y-133857995D01*
X110486000Y-123190005D01*
X110486001Y-123190000D01*
X110418634Y-122851326D01*
X110260727Y-122615001D01*
X110226790Y-122564210D01*
X110226787Y-122564208D01*
X107559790Y-119897210D01*
X107462745Y-119832367D01*
X107272675Y-119705367D01*
X107216484Y-119694190D01*
X106934000Y-119637999D01*
X106933995Y-119638000D01*
X96759579Y-119638000D01*
X94865000Y-117743420D01*
X94865000Y-114892854D01*
X95065317Y-114855162D01*
X95281441Y-114716090D01*
X95426431Y-114503890D01*
X95477440Y-114252000D01*
X95477440Y-112252000D01*
X95433162Y-112016683D01*
X95294090Y-111800559D01*
X95081890Y-111655569D01*
X94830000Y-111604560D01*
X93130000Y-111604560D01*
X92894683Y-111648838D01*
X92678559Y-111787910D01*
X92533569Y-112000110D01*
X92482560Y-112252000D01*
X92482560Y-114252000D01*
X92526838Y-114487317D01*
X92665910Y-114703441D01*
X92878110Y-114848431D01*
X93095000Y-114892352D01*
X93095000Y-118109995D01*
X93094999Y-118110000D01*
X93113101Y-118201001D01*
X93162367Y-118448675D01*
X93300756Y-118655790D01*
X93354210Y-118735790D01*
X95767208Y-121148787D01*
X95767210Y-121148790D01*
X96054325Y-121340633D01*
X96393000Y-121408000D01*
X97379662Y-121408000D01*
X97286559Y-121467910D01*
X97141569Y-121680110D01*
X97090560Y-121932000D01*
X97090560Y-123432000D01*
X97134838Y-123667317D01*
X97273910Y-123883441D01*
X97486110Y-124028431D01*
X97738000Y-124079440D01*
X99238000Y-124079440D01*
X99473317Y-124035162D01*
X99689441Y-123896090D01*
X99757734Y-123796140D01*
X99813910Y-123883441D01*
X100026110Y-124028431D01*
X100278000Y-124079440D01*
X101778000Y-124079440D01*
X102013317Y-124035162D01*
X102229441Y-123896090D01*
X102297734Y-123796140D01*
X102353910Y-123883441D01*
X102566110Y-124028431D01*
X102818000Y-124079440D01*
X104318000Y-124079440D01*
X104553317Y-124035162D01*
X104769441Y-123896090D01*
X104914431Y-123683890D01*
X104965440Y-123432000D01*
X104965440Y-121932000D01*
X104921162Y-121696683D01*
X104782090Y-121480559D01*
X104675896Y-121408000D01*
X106567420Y-121408000D01*
X108716000Y-123556579D01*
X108716000Y-133491421D01*
X97592210Y-144615210D01*
X97400367Y-144902325D01*
X97400367Y-144902326D01*
X97332999Y-145241000D01*
X97333000Y-145241005D01*
X97333000Y-145380041D01*
X97026525Y-145584821D01*
X96661263Y-146131474D01*
X96533000Y-146776296D01*
X96533000Y-148371704D01*
X96661263Y-149016526D01*
X97026525Y-149563179D01*
X97333000Y-149767959D01*
X97333000Y-150298199D01*
X97212683Y-150320838D01*
X96996559Y-150459910D01*
X96851569Y-150672110D01*
X96800560Y-150924000D01*
X96800560Y-152924000D01*
X96836712Y-153116133D01*
X96516000Y-152795420D01*
X96516000Y-136335005D01*
X96516001Y-136335000D01*
X96448633Y-135996325D01*
X96414762Y-135945633D01*
X96256790Y-135709210D01*
X96256787Y-135709208D01*
X95179580Y-134632000D01*
X97090560Y-134632000D01*
X97090560Y-136132000D01*
X97134838Y-136367317D01*
X97273910Y-136583441D01*
X97486110Y-136728431D01*
X97738000Y-136779440D01*
X99238000Y-136779440D01*
X99473317Y-136735162D01*
X99689441Y-136596090D01*
X99757734Y-136496140D01*
X99813910Y-136583441D01*
X100026110Y-136728431D01*
X100278000Y-136779440D01*
X101778000Y-136779440D01*
X102013317Y-136735162D01*
X102229441Y-136596090D01*
X102297734Y-136496140D01*
X102353910Y-136583441D01*
X102566110Y-136728431D01*
X102818000Y-136779440D01*
X104318000Y-136779440D01*
X104553317Y-136735162D01*
X104769441Y-136596090D01*
X104914431Y-136383890D01*
X104965440Y-136132000D01*
X104965440Y-134632000D01*
X104921162Y-134396683D01*
X104782090Y-134180559D01*
X104569890Y-134035569D01*
X104318000Y-133984560D01*
X102818000Y-133984560D01*
X102582683Y-134028838D01*
X102366559Y-134167910D01*
X102298266Y-134267860D01*
X102242090Y-134180559D01*
X102029890Y-134035569D01*
X101778000Y-133984560D01*
X100278000Y-133984560D01*
X100042683Y-134028838D01*
X99826559Y-134167910D01*
X99758266Y-134267860D01*
X99702090Y-134180559D01*
X99489890Y-134035569D01*
X99238000Y-133984560D01*
X97738000Y-133984560D01*
X97502683Y-134028838D01*
X97286559Y-134167910D01*
X97141569Y-134380110D01*
X97090560Y-134632000D01*
X95179580Y-134632000D01*
X92065440Y-131517860D01*
X92065440Y-131022000D01*
X92021162Y-130786683D01*
X91882090Y-130570559D01*
X91669890Y-130425569D01*
X91418000Y-130374560D01*
X90318000Y-130374560D01*
X90082683Y-130418838D01*
X89866559Y-130557910D01*
X89721569Y-130770110D01*
X89670560Y-131022000D01*
X89670560Y-132122000D01*
X89714838Y-132357317D01*
X89853910Y-132573441D01*
X90066110Y-132718431D01*
X90318000Y-132769440D01*
X90813860Y-132769440D01*
X94746000Y-136701579D01*
X94746000Y-145344176D01*
X94732090Y-145322559D01*
X94519890Y-145177569D01*
X94268000Y-145126560D01*
X94103000Y-145126560D01*
X94103000Y-137414005D01*
X94103001Y-137414000D01*
X94035633Y-137075326D01*
X94035633Y-137075325D01*
X93843790Y-136788210D01*
X93843787Y-136788208D01*
X89150000Y-132094420D01*
X89150000Y-129317750D01*
X89683000Y-129317750D01*
X89683000Y-129708310D01*
X89779673Y-129941699D01*
X89958302Y-130120327D01*
X90191691Y-130217000D01*
X90582250Y-130217000D01*
X90741000Y-130058250D01*
X90741000Y-129159000D01*
X90995000Y-129159000D01*
X90995000Y-130058250D01*
X91153750Y-130217000D01*
X91544309Y-130217000D01*
X91777698Y-130120327D01*
X91956327Y-129941699D01*
X92053000Y-129708310D01*
X92053000Y-129317750D01*
X91894250Y-129159000D01*
X90995000Y-129159000D01*
X90741000Y-129159000D01*
X89841750Y-129159000D01*
X89683000Y-129317750D01*
X89150000Y-129317750D01*
X89150000Y-128355690D01*
X89683000Y-128355690D01*
X89683000Y-128746250D01*
X89841750Y-128905000D01*
X90741000Y-128905000D01*
X90741000Y-128005750D01*
X90995000Y-128005750D01*
X90995000Y-128905000D01*
X91894250Y-128905000D01*
X92053000Y-128746250D01*
X92053000Y-128355690D01*
X91956327Y-128122301D01*
X91777698Y-127943673D01*
X91544309Y-127847000D01*
X91153750Y-127847000D01*
X90995000Y-128005750D01*
X90741000Y-128005750D01*
X90582250Y-127847000D01*
X90191691Y-127847000D01*
X89958302Y-127943673D01*
X89779673Y-128122301D01*
X89683000Y-128355690D01*
X89150000Y-128355690D01*
X89150000Y-122428005D01*
X89150001Y-122428000D01*
X89082633Y-122089326D01*
X89082633Y-122089325D01*
X88890790Y-121802210D01*
X88890787Y-121802208D01*
X87112790Y-120024210D01*
X86825675Y-119832367D01*
X86769484Y-119821190D01*
X86487000Y-119764999D01*
X86486995Y-119765000D01*
X71867579Y-119765000D01*
X69719000Y-117616420D01*
X69719000Y-114130854D01*
X69919317Y-114093162D01*
X70135441Y-113954090D01*
X70280431Y-113741890D01*
X70331440Y-113490000D01*
X70331440Y-111490000D01*
X70287162Y-111254683D01*
X70148090Y-111038559D01*
X69935890Y-110893569D01*
X69684000Y-110842560D01*
X67984000Y-110842560D01*
X67748683Y-110886838D01*
X67532559Y-111025910D01*
X67387569Y-111238110D01*
X67336560Y-111490000D01*
X67336560Y-112788981D01*
X67283440Y-112735861D01*
X67283440Y-111490000D01*
X67239162Y-111254683D01*
X67100090Y-111038559D01*
X66887890Y-110893569D01*
X66636000Y-110842560D01*
X64936000Y-110842560D01*
X64700683Y-110886838D01*
X64484559Y-111025910D01*
X64339569Y-111238110D01*
X64288560Y-111490000D01*
X63496000Y-111490000D01*
X63496000Y-104379580D01*
X64755579Y-103120000D01*
X77738420Y-103120000D01*
X77855000Y-103236579D01*
X77855000Y-104380690D01*
X77725302Y-104467352D01*
X77470000Y-104849438D01*
X77214698Y-104467352D01*
X76749151Y-104156283D01*
X76200000Y-104047050D01*
X75650849Y-104156283D01*
X75185302Y-104467352D01*
X74930000Y-104849438D01*
X74674698Y-104467352D01*
X74209151Y-104156283D01*
X73660000Y-104047050D01*
X73110849Y-104156283D01*
X72645302Y-104467352D01*
X72547749Y-104613350D01*
X72523162Y-104482683D01*
X72384090Y-104266559D01*
X72171890Y-104121569D01*
X71920000Y-104070560D01*
X70320000Y-104070560D01*
X70084683Y-104114838D01*
X69868559Y-104253910D01*
X69723569Y-104466110D01*
X69672560Y-104718000D01*
X69672560Y-106842560D01*
X67984000Y-106842560D01*
X67748683Y-106886838D01*
X67532559Y-107025910D01*
X67387569Y-107238110D01*
X67336560Y-107490000D01*
X67336560Y-107605000D01*
X67283440Y-107605000D01*
X67283440Y-107490000D01*
X67239162Y-107254683D01*
X67100090Y-107038559D01*
X66887890Y-106893569D01*
X66636000Y-106842560D01*
X64936000Y-106842560D01*
X64700683Y-106886838D01*
X64484559Y-107025910D01*
X64339569Y-107238110D01*
X64288560Y-107490000D01*
X64288560Y-109490000D01*
X64332838Y-109725317D01*
X64471910Y-109941441D01*
X64684110Y-110086431D01*
X64936000Y-110137440D01*
X66636000Y-110137440D01*
X66871317Y-110093162D01*
X67087441Y-109954090D01*
X67232431Y-109741890D01*
X67283440Y-109490000D01*
X67283440Y-109375000D01*
X67336560Y-109375000D01*
X67336560Y-109490000D01*
X67380838Y-109725317D01*
X67519910Y-109941441D01*
X67732110Y-110086431D01*
X67984000Y-110137440D01*
X69684000Y-110137440D01*
X69919317Y-110093162D01*
X70135441Y-109954090D01*
X70280431Y-109741890D01*
X70331440Y-109490000D01*
X70331440Y-109375000D01*
X70579995Y-109375000D01*
X70580000Y-109375001D01*
X70862484Y-109318810D01*
X70918675Y-109307633D01*
X71205790Y-109115790D01*
X71745787Y-108575792D01*
X71745790Y-108575790D01*
X71937633Y-108288675D01*
X72005000Y-107950000D01*
X72005000Y-107749446D01*
X72155317Y-107721162D01*
X72371441Y-107582090D01*
X72516431Y-107369890D01*
X72546597Y-107220926D01*
X72645302Y-107368648D01*
X73110849Y-107679717D01*
X73660000Y-107788950D01*
X74209151Y-107679717D01*
X74674698Y-107368648D01*
X74930000Y-106986562D01*
X75185302Y-107368648D01*
X75315000Y-107455310D01*
X75315000Y-109082021D01*
X73114210Y-111282810D01*
X72922367Y-111569925D01*
X72922367Y-111569926D01*
X72854999Y-111908600D01*
X72855000Y-111908605D01*
X72855000Y-114371700D01*
X72515703Y-114710405D01*
X72295252Y-115241311D01*
X72294750Y-115816167D01*
X72514275Y-116347457D01*
X72920405Y-116754297D01*
X73451311Y-116974748D01*
X74026167Y-116975250D01*
X74557457Y-116755725D01*
X74964297Y-116349595D01*
X75184748Y-115818689D01*
X75185250Y-115243833D01*
X74965725Y-114712543D01*
X74625000Y-114371222D01*
X74625000Y-112275180D01*
X76825787Y-110074392D01*
X76825790Y-110074390D01*
X77017633Y-109787275D01*
X77085000Y-109448600D01*
X77085000Y-107455310D01*
X77214698Y-107368648D01*
X77470000Y-106986562D01*
X77725302Y-107368648D01*
X78190849Y-107679717D01*
X78740000Y-107788950D01*
X79289151Y-107679717D01*
X79754698Y-107368648D01*
X80065767Y-106903101D01*
X80085678Y-106803000D01*
X80485995Y-106803000D01*
X80486000Y-106803001D01*
X80768484Y-106746810D01*
X80824675Y-106735633D01*
X81111790Y-106543790D01*
X81411000Y-106244580D01*
X81411000Y-109389146D01*
X81210683Y-109426838D01*
X80994559Y-109565910D01*
X80849569Y-109778110D01*
X80798560Y-110030000D01*
X80798560Y-112030000D01*
X80820199Y-112145000D01*
X79898300Y-112145000D01*
X79559595Y-111805703D01*
X79028689Y-111585252D01*
X78453833Y-111584750D01*
X77922543Y-111804275D01*
X77515703Y-112210405D01*
X77295252Y-112741311D01*
X77294750Y-113316167D01*
X77514275Y-113847457D01*
X77920405Y-114254297D01*
X78451311Y-114474748D01*
X79026167Y-114475250D01*
X79557457Y-114255725D01*
X79898778Y-113915000D01*
X80821848Y-113915000D01*
X80798560Y-114030000D01*
X80798560Y-116030000D01*
X80842838Y-116265317D01*
X80981910Y-116481441D01*
X81194110Y-116626431D01*
X81411000Y-116670352D01*
X81411000Y-116727421D01*
X80993420Y-117145000D01*
X79898300Y-117145000D01*
X79559595Y-116805703D01*
X79028689Y-116585252D01*
X78453833Y-116584750D01*
X77922543Y-116804275D01*
X77515703Y-117210405D01*
X77295252Y-117741311D01*
X77294750Y-118316167D01*
X77514275Y-118847457D01*
X77920405Y-119254297D01*
X78451311Y-119474748D01*
X79026167Y-119475250D01*
X79557457Y-119255725D01*
X79898778Y-118915000D01*
X81359995Y-118915000D01*
X81360000Y-118915001D01*
X81688811Y-118849595D01*
X81698675Y-118847633D01*
X81985790Y-118655790D01*
X82921787Y-117719792D01*
X82921790Y-117719790D01*
X83113633Y-117432675D01*
X83142413Y-117287990D01*
X83181001Y-117094000D01*
X83181000Y-117093995D01*
X83181000Y-116670854D01*
X83381317Y-116633162D01*
X83597441Y-116494090D01*
X83742431Y-116281890D01*
X83793440Y-116030000D01*
X83793440Y-114030000D01*
X83749162Y-113794683D01*
X83743377Y-113785692D01*
X83937790Y-113655790D01*
X85341579Y-112252000D01*
X89434560Y-112252000D01*
X89434560Y-114252000D01*
X89478838Y-114487317D01*
X89617910Y-114703441D01*
X89830110Y-114848431D01*
X89983000Y-114879392D01*
X89983000Y-125402982D01*
X89866559Y-125477910D01*
X89721569Y-125690110D01*
X89670560Y-125942000D01*
X89670560Y-127042000D01*
X89714838Y-127277317D01*
X89853910Y-127493441D01*
X90066110Y-127638431D01*
X90318000Y-127689440D01*
X91418000Y-127689440D01*
X91653317Y-127645162D01*
X91869441Y-127506090D01*
X92014431Y-127293890D01*
X92065440Y-127042000D01*
X92065440Y-125942000D01*
X92021162Y-125706683D01*
X91882090Y-125490559D01*
X91753000Y-125402356D01*
X91753000Y-114899440D01*
X91782000Y-114899440D01*
X92017317Y-114855162D01*
X92233441Y-114716090D01*
X92378431Y-114503890D01*
X92429440Y-114252000D01*
X92429440Y-112252000D01*
X92385162Y-112016683D01*
X92246090Y-111800559D01*
X92033890Y-111655569D01*
X91782000Y-111604560D01*
X90082000Y-111604560D01*
X89846683Y-111648838D01*
X89630559Y-111787910D01*
X89485569Y-112000110D01*
X89434560Y-112252000D01*
X85341579Y-112252000D01*
X85461787Y-112131792D01*
X85461790Y-112131790D01*
X85653633Y-111844675D01*
X85721000Y-111506000D01*
X85721000Y-105748854D01*
X85921317Y-105711162D01*
X86137441Y-105572090D01*
X86282431Y-105359890D01*
X86333440Y-105108000D01*
X86333440Y-103108000D01*
X86289162Y-102872683D01*
X86283377Y-102863692D01*
X86477790Y-102733790D01*
X86477791Y-102733789D01*
X86980579Y-102231000D01*
X101487420Y-102231000D01*
X102239000Y-102982579D01*
X102239000Y-104380690D01*
X102109302Y-104467352D01*
X101854000Y-104849438D01*
X101598698Y-104467352D01*
X101133151Y-104156283D01*
X100584000Y-104047050D01*
X100034849Y-104156283D01*
X99569302Y-104467352D01*
X99314000Y-104849438D01*
X99058698Y-104467352D01*
X98593151Y-104156283D01*
X98044000Y-104047050D01*
X97494849Y-104156283D01*
X97029302Y-104467352D01*
X96931749Y-104613350D01*
X96907162Y-104482683D01*
X96768090Y-104266559D01*
X96555890Y-104121569D01*
X96304000Y-104070560D01*
X94704000Y-104070560D01*
X94468683Y-104114838D01*
X94252559Y-104253910D01*
X94107569Y-104466110D01*
X94056560Y-104718000D01*
X94056560Y-106113860D01*
X93354210Y-106816210D01*
X93162367Y-107103325D01*
X93162367Y-107103326D01*
X93094999Y-107442000D01*
X93095000Y-107442005D01*
X93095000Y-107611146D01*
X92894683Y-107648838D01*
X92678559Y-107787910D01*
X92533569Y-108000110D01*
X92482560Y-108252000D01*
X92482560Y-108367000D01*
X92429440Y-108367000D01*
X92429440Y-108252000D01*
X92385162Y-108016683D01*
X92246090Y-107800559D01*
X92033890Y-107655569D01*
X91782000Y-107604560D01*
X90082000Y-107604560D01*
X89846683Y-107648838D01*
X89630559Y-107787910D01*
X89485569Y-108000110D01*
X89434560Y-108252000D01*
X89434560Y-110252000D01*
X89478838Y-110487317D01*
X89617910Y-110703441D01*
X89830110Y-110848431D01*
X90082000Y-110899440D01*
X91782000Y-110899440D01*
X92017317Y-110855162D01*
X92233441Y-110716090D01*
X92378431Y-110503890D01*
X92429440Y-110252000D01*
X92429440Y-110137000D01*
X92482560Y-110137000D01*
X92482560Y-110252000D01*
X92526838Y-110487317D01*
X92665910Y-110703441D01*
X92878110Y-110848431D01*
X93130000Y-110899440D01*
X94830000Y-110899440D01*
X95065317Y-110855162D01*
X95281441Y-110716090D01*
X95426431Y-110503890D01*
X95477440Y-110252000D01*
X95477440Y-108252000D01*
X95433162Y-108016683D01*
X95294090Y-107800559D01*
X95242692Y-107765440D01*
X96304000Y-107765440D01*
X96539317Y-107721162D01*
X96755441Y-107582090D01*
X96900431Y-107369890D01*
X96930597Y-107220926D01*
X97029302Y-107368648D01*
X97494849Y-107679717D01*
X98044000Y-107788950D01*
X98593151Y-107679717D01*
X99058698Y-107368648D01*
X99314000Y-106986562D01*
X99569302Y-107368648D01*
X99699000Y-107455310D01*
X99699000Y-109488421D01*
X97498210Y-111689210D01*
X97306367Y-111976325D01*
X97306367Y-111976326D01*
X97238999Y-112315000D01*
X97239000Y-112315005D01*
X97239000Y-114371700D01*
X96899703Y-114710405D01*
X96679252Y-115241311D01*
X96678750Y-115816167D01*
X96898275Y-116347457D01*
X97304405Y-116754297D01*
X97835311Y-116974748D01*
X98410167Y-116975250D01*
X98941457Y-116755725D01*
X99348297Y-116349595D01*
X99568748Y-115818689D01*
X99569250Y-115243833D01*
X99349725Y-114712543D01*
X99009000Y-114371222D01*
X99009000Y-112681580D01*
X101209787Y-110480792D01*
X101209790Y-110480790D01*
X101401633Y-110193675D01*
X101469000Y-109855000D01*
X101469000Y-107455310D01*
X101598698Y-107368648D01*
X101854000Y-106986562D01*
X102109302Y-107368648D01*
X102574849Y-107679717D01*
X103124000Y-107788950D01*
X103673151Y-107679717D01*
X104138698Y-107368648D01*
X104449767Y-106903101D01*
X104469678Y-106803000D01*
X104869995Y-106803000D01*
X104870000Y-106803001D01*
X105152484Y-106746810D01*
X105208675Y-106735633D01*
X105495790Y-106543790D01*
X105795000Y-106244580D01*
X105795000Y-109389146D01*
X105594683Y-109426838D01*
X105378559Y-109565910D01*
X105233569Y-109778110D01*
X105182560Y-110030000D01*
X105182560Y-112030000D01*
X105204199Y-112145000D01*
X104282300Y-112145000D01*
X103943595Y-111805703D01*
X103412689Y-111585252D01*
X102837833Y-111584750D01*
X102306543Y-111804275D01*
X101899703Y-112210405D01*
X101679252Y-112741311D01*
X101678750Y-113316167D01*
X101898275Y-113847457D01*
X102304405Y-114254297D01*
X102835311Y-114474748D01*
X103410167Y-114475250D01*
X103941457Y-114255725D01*
X104282778Y-113915000D01*
X105205848Y-113915000D01*
X105182560Y-114030000D01*
X105182560Y-116030000D01*
X105226838Y-116265317D01*
X105365910Y-116481441D01*
X105510432Y-116580189D01*
X104945620Y-117145000D01*
X104282300Y-117145000D01*
X103943595Y-116805703D01*
X103412689Y-116585252D01*
X102837833Y-116584750D01*
X102306543Y-116804275D01*
X101899703Y-117210405D01*
X101679252Y-117741311D01*
X101678750Y-118316167D01*
X101898275Y-118847457D01*
X102304405Y-119254297D01*
X102835311Y-119474748D01*
X103410167Y-119475250D01*
X103941457Y-119255725D01*
X104282778Y-118915000D01*
X105312195Y-118915000D01*
X105312200Y-118915001D01*
X105641011Y-118849595D01*
X105650875Y-118847633D01*
X105937990Y-118655790D01*
X107305787Y-117287992D01*
X107305790Y-117287990D01*
X107497633Y-117000875D01*
X107563212Y-116671191D01*
X107765317Y-116633162D01*
X107981441Y-116494090D01*
X108126431Y-116281890D01*
X108177440Y-116030000D01*
X108177440Y-114030000D01*
X108148376Y-113875541D01*
X108278811Y-113849595D01*
X108288675Y-113847633D01*
X108575790Y-113655790D01*
X109845787Y-112385792D01*
X109845790Y-112385790D01*
X110037633Y-112098675D01*
X110045669Y-112058275D01*
X110105001Y-111760000D01*
X110105000Y-111759995D01*
X110105000Y-105748854D01*
X110305317Y-105711162D01*
X110521441Y-105572090D01*
X110666431Y-105359890D01*
X110717440Y-105108000D01*
X110717440Y-103333020D01*
X112150208Y-104765787D01*
X112150210Y-104765790D01*
X112437325Y-104957633D01*
X112493516Y-104968810D01*
X112776000Y-105025001D01*
X112776005Y-105025000D01*
X117678560Y-105025000D01*
X117678560Y-107372000D01*
X117722838Y-107607317D01*
X117861910Y-107823441D01*
X117912737Y-107858169D01*
X117824559Y-107914910D01*
X117679569Y-108127110D01*
X117630990Y-108367000D01*
X117065182Y-108367000D01*
X117023162Y-108143683D01*
X116884090Y-107927559D01*
X116671890Y-107782569D01*
X116420000Y-107731560D01*
X114720000Y-107731560D01*
X114484683Y-107775838D01*
X114268559Y-107914910D01*
X114123569Y-108127110D01*
X114072560Y-108379000D01*
X114072560Y-110379000D01*
X114116838Y-110614317D01*
X114255910Y-110830441D01*
X114468110Y-110975431D01*
X114720000Y-111026440D01*
X116420000Y-111026440D01*
X116655317Y-110982162D01*
X116871441Y-110843090D01*
X117016431Y-110630890D01*
X117067440Y-110379000D01*
X117067440Y-110137000D01*
X117628560Y-110137000D01*
X117628560Y-110379000D01*
X117672838Y-110614317D01*
X117811910Y-110830441D01*
X118024110Y-110975431D01*
X118276000Y-111026440D01*
X119976000Y-111026440D01*
X120211317Y-110982162D01*
X120427441Y-110843090D01*
X120572431Y-110630890D01*
X120623440Y-110379000D01*
X120623440Y-108379000D01*
X120579162Y-108143683D01*
X120440090Y-107927559D01*
X120340763Y-107859692D01*
X120377441Y-107836090D01*
X120522431Y-107623890D01*
X120552597Y-107474926D01*
X120651302Y-107622648D01*
X121116849Y-107933717D01*
X121666000Y-108042950D01*
X122215151Y-107933717D01*
X122680698Y-107622648D01*
X122936000Y-107240562D01*
X123191302Y-107622648D01*
X123321000Y-107709310D01*
X123321000Y-111241021D01*
X121120210Y-113441810D01*
X120928367Y-113728925D01*
X120928367Y-113728926D01*
X120860999Y-114067600D01*
X120861000Y-114067605D01*
X120861000Y-114625700D01*
X120521703Y-114964405D01*
X120301252Y-115495311D01*
X120300750Y-116070167D01*
X120520275Y-116601457D01*
X120926405Y-117008297D01*
X121457311Y-117228748D01*
X122032167Y-117229250D01*
X122563457Y-117009725D01*
X122970297Y-116603595D01*
X123190748Y-116072689D01*
X123191250Y-115497833D01*
X122971725Y-114966543D01*
X122631000Y-114625222D01*
X122631000Y-114434180D01*
X124831787Y-112233392D01*
X124831790Y-112233390D01*
X125023633Y-111946275D01*
X125091000Y-111607600D01*
X125091000Y-107709310D01*
X125220698Y-107622648D01*
X125476000Y-107240562D01*
X125731302Y-107622648D01*
X126196849Y-107933717D01*
X126746000Y-108042950D01*
X127295151Y-107933717D01*
X127760698Y-107622648D01*
X128071767Y-107157101D01*
X128091678Y-107057000D01*
X128745995Y-107057000D01*
X128746000Y-107057001D01*
X129028484Y-107000810D01*
X129084675Y-106989633D01*
X129371790Y-106797790D01*
X129671000Y-106498580D01*
X129671000Y-109643146D01*
X129470683Y-109680838D01*
X129254559Y-109819910D01*
X129109569Y-110032110D01*
X129058560Y-110284000D01*
X129058560Y-112284000D01*
X129080199Y-112399000D01*
X127904300Y-112399000D01*
X127565595Y-112059703D01*
X127034689Y-111839252D01*
X126459833Y-111838750D01*
X125928543Y-112058275D01*
X125521703Y-112464405D01*
X125301252Y-112995311D01*
X125300750Y-113570167D01*
X125520275Y-114101457D01*
X125926405Y-114508297D01*
X126457311Y-114728748D01*
X127032167Y-114729250D01*
X127563457Y-114509725D01*
X127904778Y-114169000D01*
X129081848Y-114169000D01*
X129058560Y-114284000D01*
X129058560Y-116284000D01*
X129102838Y-116519317D01*
X129241910Y-116735441D01*
X129454110Y-116880431D01*
X129655090Y-116921131D01*
X129177220Y-117399000D01*
X127904300Y-117399000D01*
X127565595Y-117059703D01*
X127034689Y-116839252D01*
X126459833Y-116838750D01*
X125928543Y-117058275D01*
X125521703Y-117464405D01*
X125301252Y-117995311D01*
X125300750Y-118570167D01*
X125520275Y-119101457D01*
X125926405Y-119508297D01*
X126457311Y-119728748D01*
X127032167Y-119729250D01*
X127563457Y-119509725D01*
X127904778Y-119169000D01*
X129543795Y-119169000D01*
X129543800Y-119169001D01*
X129872611Y-119103595D01*
X129882475Y-119101633D01*
X130169590Y-118909790D01*
X131181787Y-117897592D01*
X131181790Y-117897590D01*
X131373633Y-117610475D01*
X131398749Y-117484210D01*
X131441001Y-117271800D01*
X131441000Y-117271795D01*
X131441000Y-116924854D01*
X131641317Y-116887162D01*
X131857441Y-116748090D01*
X132002431Y-116535890D01*
X132053440Y-116284000D01*
X132053440Y-114284000D01*
X132031801Y-114169000D01*
X132079995Y-114169000D01*
X132080000Y-114169001D01*
X132408811Y-114103595D01*
X132418675Y-114101633D01*
X132705790Y-113909790D01*
X133721787Y-112893792D01*
X133721790Y-112893790D01*
X133913633Y-112606675D01*
X133927713Y-112535890D01*
X133981001Y-112268000D01*
X133981000Y-112267995D01*
X133981000Y-106002854D01*
X134181317Y-105965162D01*
X134397441Y-105826090D01*
X134542431Y-105613890D01*
X134593440Y-105362000D01*
X134593440Y-103362000D01*
X134549162Y-103126683D01*
X134410090Y-102910559D01*
X134197890Y-102765569D01*
X133946000Y-102714560D01*
X133919442Y-102714560D01*
X133688675Y-102560367D01*
X133350000Y-102493000D01*
X133011325Y-102560367D01*
X132780558Y-102714560D01*
X132246000Y-102714560D01*
X132010683Y-102758838D01*
X131798174Y-102895584D01*
X131607890Y-102765569D01*
X131356000Y-102714560D01*
X129756000Y-102714560D01*
X129520683Y-102758838D01*
X129304559Y-102897910D01*
X129159569Y-103110110D01*
X129108560Y-103362000D01*
X129108560Y-104557861D01*
X128379420Y-105287000D01*
X128091678Y-105287000D01*
X128071767Y-105186899D01*
X127760698Y-104721352D01*
X127631000Y-104634690D01*
X127631000Y-104394005D01*
X127631001Y-104394000D01*
X127563633Y-104055325D01*
X127542251Y-104023325D01*
X127371790Y-103768210D01*
X127371787Y-103768208D01*
X127117790Y-103514210D01*
X126997197Y-103433633D01*
X126830675Y-103322367D01*
X126774484Y-103311190D01*
X126492000Y-103254999D01*
X126491995Y-103255000D01*
X113142579Y-103255000D01*
X111369790Y-101482210D01*
X111272745Y-101417367D01*
X111082675Y-101290367D01*
X111026484Y-101279190D01*
X110744000Y-101222999D01*
X110743995Y-101223000D01*
X110694152Y-101223000D01*
X110717440Y-101108000D01*
X110717440Y-100993000D01*
X117569995Y-100993000D01*
X117570000Y-100993001D01*
X117852484Y-100936810D01*
X117908675Y-100925633D01*
X118195790Y-100733790D01*
X118609390Y-100320190D01*
X119126000Y-100422950D01*
X119642610Y-100320190D01*
X120310208Y-100987787D01*
X120310210Y-100987790D01*
X120490118Y-101108000D01*
X120597326Y-101179634D01*
X120936000Y-101247001D01*
X120936005Y-101247000D01*
X129108560Y-101247000D01*
X129108560Y-101362000D01*
X129152838Y-101597317D01*
X129291910Y-101813441D01*
X129504110Y-101958431D01*
X129756000Y-102009440D01*
X131356000Y-102009440D01*
X131591317Y-101965162D01*
X131803826Y-101828416D01*
X131994110Y-101958431D01*
X132246000Y-102009440D01*
X133946000Y-102009440D01*
X134181317Y-101965162D01*
X134397441Y-101826090D01*
X134542431Y-101613890D01*
X134593440Y-101362000D01*
X134593440Y-99362000D01*
X134549162Y-99126683D01*
X134410090Y-98910559D01*
X134197890Y-98765569D01*
X133946000Y-98714560D01*
X132246000Y-98714560D01*
X132010683Y-98758838D01*
X131798174Y-98895584D01*
X131607890Y-98765569D01*
X131356000Y-98714560D01*
X129756000Y-98714560D01*
X129520683Y-98758838D01*
X129304559Y-98897910D01*
X129159569Y-99110110D01*
X129108560Y-99362000D01*
X129108560Y-99477000D01*
X128083722Y-99477000D01*
X128181000Y-98987950D01*
X128181000Y-98116050D01*
X128071767Y-97566899D01*
X127760698Y-97101352D01*
X127295151Y-96790283D01*
X126746000Y-96681050D01*
X126196849Y-96790283D01*
X125731302Y-97101352D01*
X125476000Y-97483438D01*
X125220698Y-97101352D01*
X124755151Y-96790283D01*
X124206000Y-96681050D01*
X123656849Y-96790283D01*
X123191302Y-97101352D01*
X122936000Y-97483438D01*
X122680698Y-97101352D01*
X122215151Y-96790283D01*
X121666000Y-96681050D01*
X121116849Y-96790283D01*
X120651302Y-97101352D01*
X120396000Y-97483438D01*
X120140698Y-97101352D01*
X119675151Y-96790283D01*
X119126000Y-96681050D01*
X118576849Y-96790283D01*
X118111302Y-97101352D01*
X117800233Y-97566899D01*
X117691000Y-98116050D01*
X117691000Y-98735420D01*
X117203420Y-99223000D01*
X110717440Y-99223000D01*
X110717440Y-99108000D01*
X110673162Y-98872683D01*
X110534090Y-98656559D01*
X110321890Y-98511569D01*
X110070000Y-98460560D01*
X108370000Y-98460560D01*
X108134683Y-98504838D01*
X107922174Y-98641584D01*
X107731890Y-98511569D01*
X107480000Y-98460560D01*
X105880000Y-98460560D01*
X105644683Y-98504838D01*
X105428559Y-98643910D01*
X105283569Y-98856110D01*
X105232560Y-99108000D01*
X105232560Y-99223000D01*
X104461722Y-99223000D01*
X104559000Y-98733950D01*
X104559000Y-97862050D01*
X104449767Y-97312899D01*
X104138698Y-96847352D01*
X103673151Y-96536283D01*
X103124000Y-96427050D01*
X102574849Y-96536283D01*
X102109302Y-96847352D01*
X101854000Y-97229438D01*
X101598698Y-96847352D01*
X101133151Y-96536283D01*
X100584000Y-96427050D01*
X100034849Y-96536283D01*
X99569302Y-96847352D01*
X99314000Y-97229438D01*
X99058698Y-96847352D01*
X98593151Y-96536283D01*
X98044000Y-96427050D01*
X97494849Y-96536283D01*
X97029302Y-96847352D01*
X96774000Y-97229438D01*
X96518698Y-96847352D01*
X96053151Y-96536283D01*
X95504000Y-96427050D01*
X94954849Y-96536283D01*
X94489302Y-96847352D01*
X94178233Y-97312899D01*
X94069000Y-97862050D01*
X94069000Y-98481421D01*
X93327420Y-99223000D01*
X86333440Y-99223000D01*
X86333440Y-99108000D01*
X86289162Y-98872683D01*
X86150090Y-98656559D01*
X85937890Y-98511569D01*
X85686000Y-98460560D01*
X83986000Y-98460560D01*
X83750683Y-98504838D01*
X83538174Y-98641584D01*
X83347890Y-98511569D01*
X83096000Y-98460560D01*
X81496000Y-98460560D01*
X81260683Y-98504838D01*
X81044559Y-98643910D01*
X80899569Y-98856110D01*
X80848560Y-99108000D01*
X80848560Y-99223000D01*
X80077722Y-99223000D01*
X80175000Y-98733950D01*
X80175000Y-97862050D01*
X80065767Y-97312899D01*
X79754698Y-96847352D01*
X79289151Y-96536283D01*
X78740000Y-96427050D01*
X78190849Y-96536283D01*
X77725302Y-96847352D01*
X77470000Y-97229438D01*
X77214698Y-96847352D01*
X76749151Y-96536283D01*
X76200000Y-96427050D01*
X75650849Y-96536283D01*
X75185302Y-96847352D01*
X74930000Y-97229438D01*
X74674698Y-96847352D01*
X74209151Y-96536283D01*
X73660000Y-96427050D01*
X73110849Y-96536283D01*
X72645302Y-96847352D01*
X72390000Y-97229438D01*
X72134698Y-96847352D01*
X71669151Y-96536283D01*
X71120000Y-96427050D01*
X70570849Y-96536283D01*
X70105302Y-96847352D01*
X69794233Y-97312899D01*
X69774322Y-97413000D01*
X64516000Y-97413000D01*
X64177325Y-97480367D01*
X63890210Y-97672210D01*
X63890208Y-97672213D01*
X59318210Y-102244210D01*
X59126367Y-102531325D01*
X59126367Y-102531326D01*
X59058999Y-102870000D01*
X50685000Y-102870000D01*
X50685000Y-94248004D01*
X51615757Y-93131096D01*
X51614241Y-94868404D01*
X52280410Y-96480658D01*
X53512854Y-97715254D01*
X55123943Y-98384237D01*
X56868404Y-98385759D01*
X58480658Y-97719590D01*
X59715254Y-96487146D01*
X60384237Y-94876057D01*
X60385759Y-93131596D01*
X59719590Y-91519342D01*
X58487146Y-90284746D01*
X56876057Y-89615763D01*
X55131596Y-89614241D01*
X54239192Y-89982975D01*
X55320837Y-88685000D01*
X139679163Y-88685000D01*
X140761025Y-89983234D01*
M02*
