M48
;DRILL file {KiCad 4.0.6} date 2017 August 07, Monday 14:19:42
;FORMAT={3:3/ absolute / metric / suppress leading zeros}
FMAT,2
METRIC,TZ
T1C0.700
T2C0.800
T3C0.900
T4C1.000
T5C1.400
T6C4.300
%
G90
G05
M71
T1
X66738Y-126492
X66738Y-129032
X66738Y-131572
X90868Y-126492
X90868Y-129032
X90868Y-131572
X114744Y-126492
X114744Y-129032
X114744Y-131572
T2
X64810Y-138557
X67310Y-138557
X71120Y-98298
X71120Y-105918
X73660Y-98298
X73660Y-105918
X76200Y-98298
X76200Y-105918
X78740Y-98298
X78740Y-105918
X84328Y-139192
X86828Y-139192
X95504Y-98298
X95504Y-105918
X98044Y-98298
X98044Y-105918
X100584Y-98298
X100584Y-105918
X103124Y-98298
X103124Y-105918
X119126Y-98552
X119126Y-106172
X121666Y-98552
X121666Y-106172
X124206Y-98552
X124206Y-106172
X126746Y-98552
X126746Y-106172
T3
X73740Y-115530
X78740Y-113030
X78740Y-118030
X98124Y-115530
X103124Y-113030
X103124Y-118030
X121746Y-115784
X126746Y-113284
X126746Y-118284
T4
X74358Y-122682
X74358Y-135382
X76898Y-122682
X76898Y-135382
X79438Y-122682
X79438Y-135382
X98488Y-122682
X98488Y-135382
X101028Y-122682
X101028Y-135382
X103568Y-122682
X103568Y-135382
X122364Y-122682
X122364Y-135382
X124904Y-122682
X124904Y-135382
X127444Y-122682
X127444Y-135382
T5
X73914Y-147574
X78914Y-147574
X83914Y-147574
X93218Y-147574
X98218Y-147574
X103218Y-147574
X108218Y-147574
X117602Y-147574
X122602Y-147574
T6
X56000Y-94000
X56000Y-152000
X139000Y-94000
X139000Y-152000
T0
M30
