G04 #@! TF.FileFunction,Soldermask,Bot*
%FSLAX46Y46*%
G04 Gerber Fmt 4.6, Leading zero omitted, Abs format (unit mm)*
G04 Created by KiCad (PCBNEW 4.0.6) date 2017 August 08, Tuesday 08:31:32*
%MOMM*%
%LPD*%
G01*
G04 APERTURE LIST*
%ADD10C,0.100000*%
%ADD11R,2.500000X4.000000*%
%ADD12O,2.500000X4.000000*%
%ADD13R,2.800000X2.000000*%
%ADD14O,2.800000X2.000000*%
%ADD15R,1.750000X1.750000*%
%ADD16O,1.750000X1.750000*%
%ADD17R,2.400000X2.000000*%
%ADD18R,2.000000X2.400000*%
%ADD19R,2.100000X2.400000*%
%ADD20R,2.400000X2.100000*%
%ADD21R,4.000000X2.500000*%
%ADD22O,4.000000X2.500000*%
%ADD23C,2.800000*%
%ADD24O,2.800000X2.800000*%
%ADD25C,2.900000*%
%ADD26R,1.700000X1.700000*%
%ADD27C,1.700000*%
%ADD28C,5.400000*%
%ADD29C,2.400000*%
%ADD30C,2.020000*%
G04 APERTURE END LIST*
D10*
D11*
X201676000Y-125831600D03*
D12*
X206676000Y-125831600D03*
X211676000Y-125831600D03*
D13*
X210058000Y-102108000D03*
D14*
X202438000Y-94488000D03*
X210058000Y-99568000D03*
X202438000Y-97028000D03*
X210058000Y-97028000D03*
X202438000Y-99568000D03*
X210058000Y-94488000D03*
X202438000Y-102108000D03*
D15*
X216154000Y-83312000D03*
D16*
X216154000Y-85312000D03*
D17*
X201581000Y-108204000D03*
X205581000Y-108204000D03*
X209074000Y-108204000D03*
X213074000Y-108204000D03*
D18*
X205867000Y-97402900D03*
X205867000Y-101402900D03*
D19*
X208534000Y-85185000D03*
X208534000Y-81185000D03*
X185801000Y-106775000D03*
X185801000Y-102775000D03*
D20*
X202216000Y-89662000D03*
X206216000Y-89662000D03*
D19*
X212852000Y-85185000D03*
X212852000Y-81185000D03*
D21*
X227685600Y-99923600D03*
D22*
X227685600Y-94923600D03*
D23*
X109982000Y-107950000D03*
D24*
X109982000Y-130350000D03*
D23*
X110000000Y-92786200D03*
D24*
X110000000Y-70386200D03*
D23*
X125000000Y-130302000D03*
D24*
X125000000Y-107902000D03*
D23*
X125000000Y-70358000D03*
D24*
X125000000Y-92758000D03*
D23*
X140000000Y-107950000D03*
D24*
X140000000Y-130350000D03*
D23*
X140000000Y-92710000D03*
D24*
X140000000Y-70310000D03*
D25*
X93472000Y-104020000D03*
X93472000Y-96520000D03*
D26*
X201549000Y-113157000D03*
D27*
X204049000Y-113157000D03*
D26*
X209042000Y-113157000D03*
D27*
X211542000Y-113157000D03*
D28*
X230000000Y-75000000D03*
X230000000Y-126000000D03*
X100000000Y-126000000D03*
X100000000Y-76000000D03*
D29*
X157480000Y-108204000D03*
X157480000Y-92964000D03*
D25*
X177800000Y-108204000D03*
X177800000Y-100584000D03*
X177800000Y-92964000D03*
D30*
X189966600Y-91951800D03*
X194966600Y-94451800D03*
X189966600Y-96951800D03*
X189966600Y-102518200D03*
X194966600Y-105018200D03*
X189966600Y-107518200D03*
M02*
