G04 #@! TF.FileFunction,Legend,Bot*
%FSLAX46Y46*%
G04 Gerber Fmt 4.6, Leading zero omitted, Abs format (unit mm)*
G04 Created by KiCad (PCBNEW 4.0.6) date 2017 August 07, Monday 18:16:46*
%MOMM*%
%LPD*%
G01*
G04 APERTURE LIST*
%ADD10C,0.100000*%
%ADD11C,0.200000*%
%ADD12C,0.250000*%
%ADD13C,0.300000*%
%ADD14C,0.125000*%
%ADD15C,0.120000*%
%ADD16C,0.150000*%
G04 APERTURE END LIST*
D10*
D11*
X240242641Y-114000000D02*
G75*
G03X240242641Y-114000000I-4242641J0D01*
G01*
D12*
X237714286Y-112226190D02*
X237714286Y-112702381D01*
X238047619Y-111702381D02*
X237714286Y-112226190D01*
X237380952Y-111702381D01*
X237047619Y-112035714D02*
X237047619Y-112702381D01*
X237047619Y-112130952D02*
X237000000Y-112083333D01*
X236904762Y-112035714D01*
X236761904Y-112035714D01*
X236666666Y-112083333D01*
X236619047Y-112178571D01*
X236619047Y-112702381D01*
X235714285Y-112035714D02*
X235714285Y-112845238D01*
X235761904Y-112940476D01*
X235809523Y-112988095D01*
X235904762Y-113035714D01*
X236047619Y-113035714D01*
X236142857Y-112988095D01*
X235714285Y-112654762D02*
X235809523Y-112702381D01*
X236000000Y-112702381D01*
X236095238Y-112654762D01*
X236142857Y-112607143D01*
X236190476Y-112511905D01*
X236190476Y-112226190D01*
X236142857Y-112130952D01*
X236095238Y-112083333D01*
X236000000Y-112035714D01*
X235809523Y-112035714D01*
X235714285Y-112083333D01*
X235333333Y-112035714D02*
X235095238Y-112702381D01*
X234857142Y-112035714D01*
X234095237Y-112654762D02*
X234190475Y-112702381D01*
X234380952Y-112702381D01*
X234476190Y-112654762D01*
X234523809Y-112559524D01*
X234523809Y-112178571D01*
X234476190Y-112083333D01*
X234380952Y-112035714D01*
X234190475Y-112035714D01*
X234095237Y-112083333D01*
X234047618Y-112178571D01*
X234047618Y-112273810D01*
X234523809Y-112369048D01*
X237238095Y-113785714D02*
X237047619Y-114452381D01*
X236857142Y-113976190D01*
X236666666Y-114452381D01*
X236476190Y-113785714D01*
X235666666Y-114452381D02*
X235666666Y-113928571D01*
X235714285Y-113833333D01*
X235809523Y-113785714D01*
X236000000Y-113785714D01*
X236095238Y-113833333D01*
X235666666Y-114404762D02*
X235761904Y-114452381D01*
X236000000Y-114452381D01*
X236095238Y-114404762D01*
X236142857Y-114309524D01*
X236142857Y-114214286D01*
X236095238Y-114119048D01*
X236000000Y-114071429D01*
X235761904Y-114071429D01*
X235666666Y-114023810D01*
X235238095Y-114404762D02*
X235142857Y-114452381D01*
X234952381Y-114452381D01*
X234857142Y-114404762D01*
X234809523Y-114309524D01*
X234809523Y-114261905D01*
X234857142Y-114166667D01*
X234952381Y-114119048D01*
X235095238Y-114119048D01*
X235190476Y-114071429D01*
X235238095Y-113976190D01*
X235238095Y-113928571D01*
X235190476Y-113833333D01*
X235095238Y-113785714D01*
X234952381Y-113785714D01*
X234857142Y-113833333D01*
X237380953Y-116202381D02*
X237380953Y-115202381D01*
X236952381Y-116202381D02*
X236952381Y-115678571D01*
X237000000Y-115583333D01*
X237095238Y-115535714D01*
X237238096Y-115535714D01*
X237333334Y-115583333D01*
X237380953Y-115630952D01*
X236095238Y-116154762D02*
X236190476Y-116202381D01*
X236380953Y-116202381D01*
X236476191Y-116154762D01*
X236523810Y-116059524D01*
X236523810Y-115678571D01*
X236476191Y-115583333D01*
X236380953Y-115535714D01*
X236190476Y-115535714D01*
X236095238Y-115583333D01*
X236047619Y-115678571D01*
X236047619Y-115773810D01*
X236523810Y-115869048D01*
X235619048Y-116202381D02*
X235619048Y-115535714D01*
X235619048Y-115726190D02*
X235571429Y-115630952D01*
X235523810Y-115583333D01*
X235428572Y-115535714D01*
X235333333Y-115535714D01*
X234619047Y-116154762D02*
X234714285Y-116202381D01*
X234904762Y-116202381D01*
X235000000Y-116154762D01*
X235047619Y-116059524D01*
X235047619Y-115678571D01*
X235000000Y-115583333D01*
X234904762Y-115535714D01*
X234714285Y-115535714D01*
X234619047Y-115583333D01*
X234571428Y-115678571D01*
X234571428Y-115773810D01*
X235047619Y-115869048D01*
D13*
X121081043Y-79451358D02*
X120272921Y-80259480D01*
X117343479Y-83188922D02*
X116535357Y-83997044D01*
X117343479Y-83997043D02*
X116535357Y-83188921D01*
X128616782Y-75723894D02*
X128111705Y-76228970D01*
X129020842Y-75925924D02*
X127606629Y-75218817D01*
X128313736Y-76633031D01*
X126798507Y-76734046D02*
X127505614Y-77441153D01*
X127253075Y-76279477D02*
X127808660Y-76835062D01*
X127859168Y-76986584D01*
X127808659Y-77138107D01*
X127657137Y-77289630D01*
X127505614Y-77340137D01*
X127404599Y-77340137D01*
X127101552Y-77845214D02*
X125838862Y-77693691D01*
X126394446Y-77138107D02*
X126545969Y-78400798D01*
X125333785Y-79612981D02*
X124273125Y-78552321D01*
X124020587Y-78804859D01*
X123919573Y-79006889D01*
X123919572Y-79208920D01*
X123970080Y-79360443D01*
X124121603Y-79612982D01*
X124273125Y-79764504D01*
X124525664Y-79916027D01*
X124677187Y-79966535D01*
X124879218Y-79966534D01*
X125081247Y-79865519D01*
X125333785Y-79612981D01*
X123566018Y-81178718D02*
X123667034Y-81178718D01*
X123869065Y-81077702D01*
X123970080Y-80976687D01*
X124071095Y-80774657D01*
X124071096Y-80572626D01*
X124020588Y-80421104D01*
X123869065Y-80168565D01*
X123717542Y-80017042D01*
X123465003Y-79865519D01*
X123313481Y-79815011D01*
X123111450Y-79815012D01*
X122909420Y-79916026D01*
X122808404Y-80017042D01*
X122707389Y-80219073D01*
X122707389Y-80320088D01*
X122808404Y-81330241D02*
X122000282Y-82138363D01*
X121394190Y-83552576D02*
X121899267Y-83047500D01*
X120838606Y-81986840D01*
X121040637Y-83906130D02*
X120333530Y-83199023D01*
X119979977Y-82845469D02*
X120080992Y-82845469D01*
X120080992Y-82946485D01*
X119979977Y-82946485D01*
X119979977Y-82845469D01*
X120080992Y-82946485D01*
X119828454Y-83704099D02*
X120535560Y-84411206D01*
X119929469Y-83805115D02*
X119828454Y-83805114D01*
X119676930Y-83855622D01*
X119525408Y-84007145D01*
X119474901Y-84158668D01*
X119525408Y-84310191D01*
X120080992Y-84865775D01*
X119575915Y-85370851D02*
X118515255Y-84310191D01*
X119070840Y-85067806D02*
X119171855Y-85774912D01*
X118464748Y-85067805D02*
X119272870Y-85067806D01*
X117909164Y-86936588D02*
X117808148Y-87138618D01*
X117555610Y-87391156D01*
X117404088Y-87441664D01*
X117303072Y-87441664D01*
X117151549Y-87391156D01*
X117050534Y-87290141D01*
X117000026Y-87138619D01*
X117000026Y-87037603D01*
X117050534Y-86886080D01*
X117202057Y-86633542D01*
X117252565Y-86482019D01*
X117252565Y-86381004D01*
X117202057Y-86229481D01*
X117101042Y-86128466D01*
X116949519Y-86077959D01*
X116848504Y-86077958D01*
X116696980Y-86128466D01*
X116444443Y-86381003D01*
X116343428Y-86583034D01*
X115737336Y-87795217D02*
X116444443Y-88502324D01*
X116191904Y-87340648D02*
X116747489Y-87896233D01*
X116797997Y-88047755D01*
X116747488Y-88199278D01*
X116595966Y-88350801D01*
X116444443Y-88401308D01*
X116343428Y-88401308D01*
X115232259Y-88300293D02*
X116292920Y-89360953D01*
X115282767Y-88350801D02*
X115131244Y-88401308D01*
X114929214Y-88603339D01*
X114878707Y-88754862D01*
X114878707Y-88855878D01*
X114929214Y-89007401D01*
X115232259Y-89310446D01*
X115383783Y-89360953D01*
X115484798Y-89360953D01*
X115636321Y-89310446D01*
X115838351Y-89108415D01*
X115888859Y-88956893D01*
X114272614Y-89259938D02*
X115333275Y-90320599D01*
X114323122Y-89310446D02*
X114171599Y-89360953D01*
X113969569Y-89562984D01*
X113919062Y-89714507D01*
X113919062Y-89815523D01*
X113969569Y-89967046D01*
X114272614Y-90270091D01*
X114424137Y-90320599D01*
X114525153Y-90320599D01*
X114676676Y-90270091D01*
X114878706Y-90068060D01*
X114929214Y-89916538D01*
X113868553Y-91078213D02*
X113919062Y-90926690D01*
X113868554Y-90775168D01*
X112959416Y-89866030D01*
X112858401Y-90674152D02*
X113312969Y-91633797D01*
X112353325Y-91179228D02*
X113312969Y-91633797D01*
X113666523Y-91785319D01*
X113767539Y-91785320D01*
X113919061Y-91734812D01*
D14*
X191261899Y-138226190D02*
X191261899Y-137726190D01*
X191095233Y-137892857D02*
X190904757Y-137892857D01*
X191023804Y-137726190D02*
X191023804Y-138154762D01*
X190999995Y-138202381D01*
X190952376Y-138226190D01*
X190904757Y-138226190D01*
X190142853Y-137892857D02*
X190142853Y-138297619D01*
X190166662Y-138345238D01*
X190190472Y-138369048D01*
X190238091Y-138392857D01*
X190309519Y-138392857D01*
X190357138Y-138369048D01*
X190142853Y-138202381D02*
X190190472Y-138226190D01*
X190285710Y-138226190D01*
X190333329Y-138202381D01*
X190357138Y-138178571D01*
X190380948Y-138130952D01*
X190380948Y-137988095D01*
X190357138Y-137940476D01*
X190333329Y-137916667D01*
X190285710Y-137892857D01*
X190190472Y-137892857D01*
X190142853Y-137916667D01*
X189904757Y-138226190D02*
X189904757Y-137892857D01*
X189904757Y-137726190D02*
X189928567Y-137750000D01*
X189904757Y-137773810D01*
X189880948Y-137750000D01*
X189904757Y-137726190D01*
X189904757Y-137773810D01*
X189714281Y-137892857D02*
X189595234Y-138226190D01*
X189476186Y-137892857D01*
X189095234Y-138202381D02*
X189142853Y-138226190D01*
X189238091Y-138226190D01*
X189285710Y-138202381D01*
X189309520Y-138154762D01*
X189309520Y-137964286D01*
X189285710Y-137916667D01*
X189238091Y-137892857D01*
X189142853Y-137892857D01*
X189095234Y-137916667D01*
X189071425Y-137964286D01*
X189071425Y-138011905D01*
X189309520Y-138059524D01*
X188880949Y-138202381D02*
X188833330Y-138226190D01*
X188738092Y-138226190D01*
X188690473Y-138202381D01*
X188666663Y-138154762D01*
X188666663Y-138130952D01*
X188690473Y-138083333D01*
X188738092Y-138059524D01*
X188809520Y-138059524D01*
X188857139Y-138035714D01*
X188880949Y-137988095D01*
X188880949Y-137964286D01*
X188857139Y-137916667D01*
X188809520Y-137892857D01*
X188738092Y-137892857D01*
X188690473Y-137916667D01*
X188071425Y-138226190D02*
X188071425Y-137892857D01*
X188071425Y-137940476D02*
X188047616Y-137916667D01*
X187999997Y-137892857D01*
X187928568Y-137892857D01*
X187880949Y-137916667D01*
X187857140Y-137964286D01*
X187857140Y-138226190D01*
X187857140Y-137964286D02*
X187833330Y-137916667D01*
X187785711Y-137892857D01*
X187714283Y-137892857D01*
X187666663Y-137916667D01*
X187642854Y-137964286D01*
X187642854Y-138226190D01*
X187214282Y-138202381D02*
X187261901Y-138226190D01*
X187357139Y-138226190D01*
X187404758Y-138202381D01*
X187428568Y-138154762D01*
X187428568Y-137964286D01*
X187404758Y-137916667D01*
X187357139Y-137892857D01*
X187261901Y-137892857D01*
X187214282Y-137916667D01*
X187190473Y-137964286D01*
X187190473Y-138011905D01*
X187428568Y-138059524D01*
X186380950Y-138226190D02*
X186380950Y-137964286D01*
X186404759Y-137916667D01*
X186452378Y-137892857D01*
X186547616Y-137892857D01*
X186595235Y-137916667D01*
X186380950Y-138202381D02*
X186428569Y-138226190D01*
X186547616Y-138226190D01*
X186595235Y-138202381D01*
X186619045Y-138154762D01*
X186619045Y-138107143D01*
X186595235Y-138059524D01*
X186547616Y-138035714D01*
X186428569Y-138035714D01*
X186380950Y-138011905D01*
X185761902Y-138226190D02*
X185761902Y-137726190D01*
X185547617Y-138226190D02*
X185547617Y-137964286D01*
X185571426Y-137916667D01*
X185619045Y-137892857D01*
X185690474Y-137892857D01*
X185738093Y-137916667D01*
X185761902Y-137940476D01*
X185119045Y-138202381D02*
X185166664Y-138226190D01*
X185261902Y-138226190D01*
X185309521Y-138202381D01*
X185333331Y-138154762D01*
X185333331Y-137964286D01*
X185309521Y-137916667D01*
X185261902Y-137892857D01*
X185166664Y-137892857D01*
X185119045Y-137916667D01*
X185095236Y-137964286D01*
X185095236Y-138011905D01*
X185333331Y-138059524D01*
X184666665Y-138226190D02*
X184666665Y-137964286D01*
X184690474Y-137916667D01*
X184738093Y-137892857D01*
X184833331Y-137892857D01*
X184880950Y-137916667D01*
X184666665Y-138202381D02*
X184714284Y-138226190D01*
X184833331Y-138226190D01*
X184880950Y-138202381D01*
X184904760Y-138154762D01*
X184904760Y-138107143D01*
X184880950Y-138059524D01*
X184833331Y-138035714D01*
X184714284Y-138035714D01*
X184666665Y-138011905D01*
X184214284Y-138226190D02*
X184214284Y-137726190D01*
X184214284Y-138202381D02*
X184261903Y-138226190D01*
X184357141Y-138226190D01*
X184404760Y-138202381D01*
X184428569Y-138178571D01*
X184452379Y-138130952D01*
X184452379Y-137988095D01*
X184428569Y-137940476D01*
X184404760Y-137916667D01*
X184357141Y-137892857D01*
X184261903Y-137892857D01*
X184214284Y-137916667D01*
X183761903Y-138226190D02*
X183761903Y-137964286D01*
X183785712Y-137916667D01*
X183833331Y-137892857D01*
X183928569Y-137892857D01*
X183976188Y-137916667D01*
X183761903Y-138202381D02*
X183809522Y-138226190D01*
X183928569Y-138226190D01*
X183976188Y-138202381D01*
X183999998Y-138154762D01*
X183999998Y-138107143D01*
X183976188Y-138059524D01*
X183928569Y-138035714D01*
X183809522Y-138035714D01*
X183761903Y-138011905D01*
X183309522Y-138202381D02*
X183357141Y-138226190D01*
X183452379Y-138226190D01*
X183499998Y-138202381D01*
X183523807Y-138178571D01*
X183547617Y-138130952D01*
X183547617Y-137988095D01*
X183523807Y-137940476D01*
X183499998Y-137916667D01*
X183452379Y-137892857D01*
X183357141Y-137892857D01*
X183309522Y-137916667D01*
X183095236Y-138226190D02*
X183095236Y-137726190D01*
X182880951Y-138226190D02*
X182880951Y-137964286D01*
X182904760Y-137916667D01*
X182952379Y-137892857D01*
X183023808Y-137892857D01*
X183071427Y-137916667D01*
X183095236Y-137940476D01*
X182452379Y-138202381D02*
X182499998Y-138226190D01*
X182595236Y-138226190D01*
X182642855Y-138202381D01*
X182666665Y-138154762D01*
X182666665Y-137964286D01*
X182642855Y-137916667D01*
X182595236Y-137892857D01*
X182499998Y-137892857D01*
X182452379Y-137916667D01*
X182428570Y-137964286D01*
X182428570Y-138011905D01*
X182666665Y-138059524D01*
X181833332Y-137892857D02*
X181833332Y-138321429D01*
X181857142Y-138369048D01*
X181904761Y-138392857D01*
X181928570Y-138392857D01*
X181833332Y-137726190D02*
X181857142Y-137750000D01*
X181833332Y-137773810D01*
X181809523Y-137750000D01*
X181833332Y-137726190D01*
X181833332Y-137773810D01*
X181380952Y-137892857D02*
X181380952Y-138226190D01*
X181595237Y-137892857D02*
X181595237Y-138154762D01*
X181571428Y-138202381D01*
X181523809Y-138226190D01*
X181452380Y-138226190D01*
X181404761Y-138202381D01*
X181380952Y-138178571D01*
X181166666Y-138202381D02*
X181119047Y-138226190D01*
X181023809Y-138226190D01*
X180976190Y-138202381D01*
X180952380Y-138154762D01*
X180952380Y-138130952D01*
X180976190Y-138083333D01*
X181023809Y-138059524D01*
X181095237Y-138059524D01*
X181142856Y-138035714D01*
X181166666Y-137988095D01*
X181166666Y-137964286D01*
X181142856Y-137916667D01*
X181095237Y-137892857D01*
X181023809Y-137892857D01*
X180976190Y-137916667D01*
X180809523Y-137892857D02*
X180619047Y-137892857D01*
X180738094Y-137726190D02*
X180738094Y-138154762D01*
X180714285Y-138202381D01*
X180666666Y-138226190D01*
X180619047Y-138226190D01*
X180142857Y-137892857D02*
X179952381Y-137892857D01*
X180071428Y-137726190D02*
X180071428Y-138154762D01*
X180047619Y-138202381D01*
X180000000Y-138226190D01*
X179952381Y-138226190D01*
X179785714Y-138226190D02*
X179785714Y-137892857D01*
X179785714Y-137988095D02*
X179761905Y-137940476D01*
X179738095Y-137916667D01*
X179690476Y-137892857D01*
X179642857Y-137892857D01*
X179523809Y-137892857D02*
X179404762Y-138226190D01*
X179285714Y-137892857D02*
X179404762Y-138226190D01*
X179452381Y-138345238D01*
X179476190Y-138369048D01*
X179523809Y-138392857D01*
X179095238Y-138226190D02*
X179095238Y-137892857D01*
X179095238Y-137726190D02*
X179119048Y-137750000D01*
X179095238Y-137773810D01*
X179071429Y-137750000D01*
X179095238Y-137726190D01*
X179095238Y-137773810D01*
X178857143Y-137892857D02*
X178857143Y-138226190D01*
X178857143Y-137940476D02*
X178833334Y-137916667D01*
X178785715Y-137892857D01*
X178714286Y-137892857D01*
X178666667Y-137916667D01*
X178642858Y-137964286D01*
X178642858Y-138226190D01*
X178190477Y-137892857D02*
X178190477Y-138297619D01*
X178214286Y-138345238D01*
X178238096Y-138369048D01*
X178285715Y-138392857D01*
X178357143Y-138392857D01*
X178404762Y-138369048D01*
X178190477Y-138202381D02*
X178238096Y-138226190D01*
X178333334Y-138226190D01*
X178380953Y-138202381D01*
X178404762Y-138178571D01*
X178428572Y-138130952D01*
X178428572Y-137988095D01*
X178404762Y-137940476D01*
X178380953Y-137916667D01*
X178333334Y-137892857D01*
X178238096Y-137892857D01*
X178190477Y-137916667D01*
X177642858Y-137892857D02*
X177452382Y-137892857D01*
X177571429Y-137726190D02*
X177571429Y-138154762D01*
X177547620Y-138202381D01*
X177500001Y-138226190D01*
X177452382Y-138226190D01*
X177214287Y-138226190D02*
X177261906Y-138202381D01*
X177285715Y-138178571D01*
X177309525Y-138130952D01*
X177309525Y-137988095D01*
X177285715Y-137940476D01*
X177261906Y-137916667D01*
X177214287Y-137892857D01*
X177142858Y-137892857D01*
X177095239Y-137916667D01*
X177071430Y-137940476D01*
X177047620Y-137988095D01*
X177047620Y-138130952D01*
X177071430Y-138178571D01*
X177095239Y-138202381D01*
X177142858Y-138226190D01*
X177214287Y-138226190D01*
X176523811Y-137892857D02*
X176333335Y-137892857D01*
X176452382Y-137726190D02*
X176452382Y-138154762D01*
X176428573Y-138202381D01*
X176380954Y-138226190D01*
X176333335Y-138226190D01*
X176166668Y-138226190D02*
X176166668Y-137726190D01*
X175952383Y-138226190D02*
X175952383Y-137964286D01*
X175976192Y-137916667D01*
X176023811Y-137892857D01*
X176095240Y-137892857D01*
X176142859Y-137916667D01*
X176166668Y-137940476D01*
X175714287Y-138226190D02*
X175714287Y-137892857D01*
X175714287Y-137726190D02*
X175738097Y-137750000D01*
X175714287Y-137773810D01*
X175690478Y-137750000D01*
X175714287Y-137726190D01*
X175714287Y-137773810D01*
X175476192Y-137892857D02*
X175476192Y-138226190D01*
X175476192Y-137940476D02*
X175452383Y-137916667D01*
X175404764Y-137892857D01*
X175333335Y-137892857D01*
X175285716Y-137916667D01*
X175261907Y-137964286D01*
X175261907Y-138226190D01*
X175023811Y-138226190D02*
X175023811Y-137726190D01*
X174976192Y-138035714D02*
X174833335Y-138226190D01*
X174833335Y-137892857D02*
X175023811Y-138083333D01*
X174023812Y-138226190D02*
X174023812Y-137726190D01*
X174023812Y-138202381D02*
X174071431Y-138226190D01*
X174166669Y-138226190D01*
X174214288Y-138202381D01*
X174238097Y-138178571D01*
X174261907Y-138130952D01*
X174261907Y-137988095D01*
X174238097Y-137940476D01*
X174214288Y-137916667D01*
X174166669Y-137892857D01*
X174071431Y-137892857D01*
X174023812Y-137916667D01*
X173714288Y-138226190D02*
X173761907Y-138202381D01*
X173785716Y-138178571D01*
X173809526Y-138130952D01*
X173809526Y-137988095D01*
X173785716Y-137940476D01*
X173761907Y-137916667D01*
X173714288Y-137892857D01*
X173642859Y-137892857D01*
X173595240Y-137916667D01*
X173571431Y-137940476D01*
X173547621Y-137988095D01*
X173547621Y-138130952D01*
X173571431Y-138178571D01*
X173595240Y-138202381D01*
X173642859Y-138226190D01*
X173714288Y-138226190D01*
X173380954Y-137892857D02*
X173285716Y-138226190D01*
X173190478Y-137988095D01*
X173095240Y-138226190D01*
X173000002Y-137892857D01*
X172809525Y-137892857D02*
X172809525Y-138226190D01*
X172809525Y-137940476D02*
X172785716Y-137916667D01*
X172738097Y-137892857D01*
X172666668Y-137892857D01*
X172619049Y-137916667D01*
X172595240Y-137964286D01*
X172595240Y-138226190D01*
X172047621Y-137892857D02*
X171857145Y-137892857D01*
X171976192Y-137726190D02*
X171976192Y-138154762D01*
X171952383Y-138202381D01*
X171904764Y-138226190D01*
X171857145Y-138226190D01*
X171619050Y-138226190D02*
X171666669Y-138202381D01*
X171690478Y-138178571D01*
X171714288Y-138130952D01*
X171714288Y-137988095D01*
X171690478Y-137940476D01*
X171666669Y-137916667D01*
X171619050Y-137892857D01*
X171547621Y-137892857D01*
X171500002Y-137916667D01*
X171476193Y-137940476D01*
X171452383Y-137988095D01*
X171452383Y-138130952D01*
X171476193Y-138178571D01*
X171500002Y-138202381D01*
X171547621Y-138226190D01*
X171619050Y-138226190D01*
X170904764Y-137892857D02*
X170785717Y-138226190D01*
X170666669Y-137892857D02*
X170785717Y-138226190D01*
X170833336Y-138345238D01*
X170857145Y-138369048D01*
X170904764Y-138392857D01*
X170404765Y-138226190D02*
X170452384Y-138202381D01*
X170476193Y-138178571D01*
X170500003Y-138130952D01*
X170500003Y-137988095D01*
X170476193Y-137940476D01*
X170452384Y-137916667D01*
X170404765Y-137892857D01*
X170333336Y-137892857D01*
X170285717Y-137916667D01*
X170261908Y-137940476D01*
X170238098Y-137988095D01*
X170238098Y-138130952D01*
X170261908Y-138178571D01*
X170285717Y-138202381D01*
X170333336Y-138226190D01*
X170404765Y-138226190D01*
X169809527Y-137892857D02*
X169809527Y-138226190D01*
X170023812Y-137892857D02*
X170023812Y-138154762D01*
X170000003Y-138202381D01*
X169952384Y-138226190D01*
X169880955Y-138226190D01*
X169833336Y-138202381D01*
X169809527Y-138178571D01*
X169571431Y-138226190D02*
X169571431Y-137892857D01*
X169571431Y-137988095D02*
X169547622Y-137940476D01*
X169523812Y-137916667D01*
X169476193Y-137892857D01*
X169428574Y-137892857D01*
X168809527Y-138226190D02*
X168857146Y-138202381D01*
X168880955Y-138154762D01*
X168880955Y-137726190D01*
X168428574Y-138202381D02*
X168476193Y-138226190D01*
X168571431Y-138226190D01*
X168619050Y-138202381D01*
X168642860Y-138154762D01*
X168642860Y-137964286D01*
X168619050Y-137916667D01*
X168571431Y-137892857D01*
X168476193Y-137892857D01*
X168428574Y-137916667D01*
X168404765Y-137964286D01*
X168404765Y-138011905D01*
X168642860Y-138059524D01*
X168238098Y-137892857D02*
X168119051Y-138226190D01*
X168000003Y-137892857D01*
X167619051Y-138202381D02*
X167666670Y-138226190D01*
X167761908Y-138226190D01*
X167809527Y-138202381D01*
X167833337Y-138154762D01*
X167833337Y-137964286D01*
X167809527Y-137916667D01*
X167761908Y-137892857D01*
X167666670Y-137892857D01*
X167619051Y-137916667D01*
X167595242Y-137964286D01*
X167595242Y-138011905D01*
X167833337Y-138059524D01*
X167309528Y-138226190D02*
X167357147Y-138202381D01*
X167380956Y-138154762D01*
X167380956Y-137726190D01*
X167119051Y-138178571D02*
X167095242Y-138202381D01*
X167119051Y-138226190D01*
X167142861Y-138202381D01*
X167119051Y-138178571D01*
X167119051Y-138226190D01*
D15*
X152492000Y-131366000D02*
X152492000Y-114746000D01*
X143672000Y-131366000D02*
X143672000Y-114746000D01*
X152492000Y-131366000D02*
X149378000Y-131366000D01*
X146786000Y-131366000D02*
X143672000Y-131366000D01*
X152492000Y-114746000D02*
X149378000Y-114746000D01*
X146786000Y-114746000D02*
X143672000Y-114746000D01*
X152492000Y-112824000D02*
X152492000Y-96204000D01*
X143672000Y-112824000D02*
X143672000Y-96204000D01*
X152492000Y-112824000D02*
X149378000Y-112824000D01*
X146786000Y-112824000D02*
X143672000Y-112824000D01*
X152492000Y-96204000D02*
X149378000Y-96204000D01*
X146786000Y-96204000D02*
X143672000Y-96204000D01*
X152492000Y-93520000D02*
X152492000Y-76900000D01*
X143672000Y-93520000D02*
X143672000Y-76900000D01*
X152492000Y-93520000D02*
X149378000Y-93520000D01*
X146786000Y-93520000D02*
X143672000Y-93520000D01*
X152492000Y-76900000D02*
X149378000Y-76900000D01*
X146786000Y-76900000D02*
X143672000Y-76900000D01*
X220067000Y-93177000D02*
X224687000Y-93177000D01*
X224687000Y-93177000D02*
X224687000Y-105197000D01*
X224687000Y-105197000D02*
X220067000Y-105197000D01*
X220067000Y-105197000D02*
X220067000Y-93177000D01*
X222377000Y-92947000D02*
X222377000Y-93177000D01*
X222377000Y-105427000D02*
X222377000Y-105197000D01*
X126897000Y-104689000D02*
X122277000Y-104689000D01*
X122277000Y-104689000D02*
X122277000Y-92669000D01*
X122277000Y-92669000D02*
X126897000Y-92669000D01*
X126897000Y-92669000D02*
X126897000Y-104689000D01*
X124587000Y-104919000D02*
X124587000Y-104689000D01*
X124587000Y-92439000D02*
X124587000Y-92669000D01*
X141646000Y-68937000D02*
X141646000Y-73557000D01*
X141646000Y-73557000D02*
X129626000Y-73557000D01*
X129626000Y-73557000D02*
X129626000Y-68937000D01*
X129626000Y-68937000D02*
X141646000Y-68937000D01*
X141876000Y-71247000D02*
X141646000Y-71247000D01*
X129396000Y-71247000D02*
X129626000Y-71247000D01*
D16*
X112909140Y-83885224D02*
X104310721Y-75286806D01*
X104310721Y-75286806D02*
X112909140Y-66688387D01*
X112909140Y-66688387D02*
X121507558Y-75286806D01*
X121507558Y-75286806D02*
X112909140Y-83885224D01*
X105371382Y-76347466D02*
X106644174Y-77620258D01*
X106644174Y-77620258D02*
X115242592Y-69021840D01*
X115242592Y-69021840D02*
X113969800Y-67749048D01*
X113969800Y-67749048D02*
X105371382Y-76347466D01*
X106135057Y-73462470D02*
X107549270Y-72048257D01*
X107549270Y-72048257D02*
X108433154Y-73285694D01*
X108433154Y-73285694D02*
X107372494Y-74346354D01*
X107372494Y-74346354D02*
X106135057Y-73462470D01*
X109670591Y-69926937D02*
X111084804Y-68512723D01*
X111084804Y-68512723D02*
X111968688Y-69750160D01*
X111968688Y-69750160D02*
X110908028Y-70810820D01*
X110908028Y-70810820D02*
X109670591Y-69926937D01*
X115737567Y-81650767D02*
X116373963Y-81862899D01*
X116373963Y-81862899D02*
X115949699Y-82287163D01*
X115949699Y-82287163D02*
X115737567Y-81650767D01*
X154099143Y-122889334D02*
X154146762Y-122841715D01*
X154194381Y-122698858D01*
X154194381Y-122603620D01*
X154146762Y-122460762D01*
X154051524Y-122365524D01*
X153956286Y-122317905D01*
X153765810Y-122270286D01*
X153622952Y-122270286D01*
X153432476Y-122317905D01*
X153337238Y-122365524D01*
X153242000Y-122460762D01*
X153194381Y-122603620D01*
X153194381Y-122698858D01*
X153242000Y-122841715D01*
X153289619Y-122889334D01*
X153194381Y-123222667D02*
X153194381Y-123841715D01*
X153575333Y-123508381D01*
X153575333Y-123651239D01*
X153622952Y-123746477D01*
X153670571Y-123794096D01*
X153765810Y-123841715D01*
X154003905Y-123841715D01*
X154099143Y-123794096D01*
X154146762Y-123746477D01*
X154194381Y-123651239D01*
X154194381Y-123365524D01*
X154146762Y-123270286D01*
X154099143Y-123222667D01*
X154099143Y-104347334D02*
X154146762Y-104299715D01*
X154194381Y-104156858D01*
X154194381Y-104061620D01*
X154146762Y-103918762D01*
X154051524Y-103823524D01*
X153956286Y-103775905D01*
X153765810Y-103728286D01*
X153622952Y-103728286D01*
X153432476Y-103775905D01*
X153337238Y-103823524D01*
X153242000Y-103918762D01*
X153194381Y-104061620D01*
X153194381Y-104156858D01*
X153242000Y-104299715D01*
X153289619Y-104347334D01*
X153527714Y-105204477D02*
X154194381Y-105204477D01*
X153146762Y-104966381D02*
X153861048Y-104728286D01*
X153861048Y-105347334D01*
X154099143Y-85043334D02*
X154146762Y-84995715D01*
X154194381Y-84852858D01*
X154194381Y-84757620D01*
X154146762Y-84614762D01*
X154051524Y-84519524D01*
X153956286Y-84471905D01*
X153765810Y-84424286D01*
X153622952Y-84424286D01*
X153432476Y-84471905D01*
X153337238Y-84519524D01*
X153242000Y-84614762D01*
X153194381Y-84757620D01*
X153194381Y-84852858D01*
X153242000Y-84995715D01*
X153289619Y-85043334D01*
X153194381Y-85948096D02*
X153194381Y-85471905D01*
X153670571Y-85424286D01*
X153622952Y-85471905D01*
X153575333Y-85567143D01*
X153575333Y-85805239D01*
X153622952Y-85900477D01*
X153670571Y-85948096D01*
X153765810Y-85995715D01*
X154003905Y-85995715D01*
X154099143Y-85948096D01*
X154146762Y-85900477D01*
X154194381Y-85805239D01*
X154194381Y-85567143D01*
X154146762Y-85471905D01*
X154099143Y-85424286D01*
X219519381Y-99020334D02*
X219043190Y-98687000D01*
X219519381Y-98448905D02*
X218519381Y-98448905D01*
X218519381Y-98829858D01*
X218567000Y-98925096D01*
X218614619Y-98972715D01*
X218709857Y-99020334D01*
X218852714Y-99020334D01*
X218947952Y-98972715D01*
X218995571Y-98925096D01*
X219043190Y-98829858D01*
X219043190Y-98448905D01*
X219519381Y-99972715D02*
X219519381Y-99401286D01*
X219519381Y-99687000D02*
X218519381Y-99687000D01*
X218662238Y-99591762D01*
X218757476Y-99496524D01*
X218805095Y-99401286D01*
X128349381Y-98512334D02*
X127873190Y-98179000D01*
X128349381Y-97940905D02*
X127349381Y-97940905D01*
X127349381Y-98321858D01*
X127397000Y-98417096D01*
X127444619Y-98464715D01*
X127539857Y-98512334D01*
X127682714Y-98512334D01*
X127777952Y-98464715D01*
X127825571Y-98417096D01*
X127873190Y-98321858D01*
X127873190Y-97940905D01*
X127444619Y-98893286D02*
X127397000Y-98940905D01*
X127349381Y-99036143D01*
X127349381Y-99274239D01*
X127397000Y-99369477D01*
X127444619Y-99417096D01*
X127539857Y-99464715D01*
X127635095Y-99464715D01*
X127777952Y-99417096D01*
X128349381Y-98845667D01*
X128349381Y-99464715D01*
X135802666Y-68389381D02*
X136136000Y-67913190D01*
X136374095Y-68389381D02*
X136374095Y-67389381D01*
X135993142Y-67389381D01*
X135897904Y-67437000D01*
X135850285Y-67484619D01*
X135802666Y-67579857D01*
X135802666Y-67722714D01*
X135850285Y-67817952D01*
X135897904Y-67865571D01*
X135993142Y-67913190D01*
X136374095Y-67913190D01*
X135469333Y-67389381D02*
X134850285Y-67389381D01*
X135183619Y-67770333D01*
X135040761Y-67770333D01*
X134945523Y-67817952D01*
X134897904Y-67865571D01*
X134850285Y-67960810D01*
X134850285Y-68198905D01*
X134897904Y-68294143D01*
X134945523Y-68341762D01*
X135040761Y-68389381D01*
X135326476Y-68389381D01*
X135421714Y-68341762D01*
X135469333Y-68294143D01*
X119885927Y-79132120D02*
X119178820Y-78425013D01*
X118909445Y-78694387D01*
X118875774Y-78795403D01*
X118875774Y-78862746D01*
X118909445Y-78963761D01*
X119010460Y-79064776D01*
X119111476Y-79098448D01*
X119178819Y-79098448D01*
X119279834Y-79064776D01*
X119549209Y-78795402D01*
X118572728Y-79165792D02*
X118505385Y-79165792D01*
X118404370Y-79199463D01*
X118236010Y-79367823D01*
X118202339Y-79468838D01*
X118202339Y-79536181D01*
X118236010Y-79637196D01*
X118303354Y-79704540D01*
X118438041Y-79771883D01*
X119246163Y-79771883D01*
X118808430Y-80209616D01*
X117663591Y-79940242D02*
X117596247Y-80007586D01*
X117562575Y-80108601D01*
X117562575Y-80175944D01*
X117596247Y-80276960D01*
X117697262Y-80445318D01*
X117865621Y-80613678D01*
X118033980Y-80714693D01*
X118134995Y-80748364D01*
X118202339Y-80748364D01*
X118303354Y-80714693D01*
X118370698Y-80647349D01*
X118404370Y-80546333D01*
X118404370Y-80478990D01*
X118370698Y-80377975D01*
X118269683Y-80209616D01*
X118101323Y-80041257D01*
X117932965Y-79940242D01*
X117831950Y-79906570D01*
X117764606Y-79906570D01*
X117663591Y-79940242D01*
M02*
