G04 #@! TF.FileFunction,Drawing*
%FSLAX46Y46*%
G04 Gerber Fmt 4.6, Leading zero omitted, Abs format (unit mm)*
G04 Created by KiCad (PCBNEW 4.0.6) date 2017 August 07, Monday 18:16:46*
%MOMM*%
%LPD*%
G01*
G04 APERTURE LIST*
%ADD10C,0.100000*%
%ADD11C,0.300000*%
G04 APERTURE END LIST*
D10*
D11*
X168928573Y-53328571D02*
X168071430Y-53328571D01*
X168500002Y-53328571D02*
X168500002Y-51828571D01*
X168357145Y-52042857D01*
X168214287Y-52185714D01*
X168071430Y-52257143D01*
X170285716Y-51828571D02*
X169571430Y-51828571D01*
X169500001Y-52542857D01*
X169571430Y-52471429D01*
X169714287Y-52400000D01*
X170071430Y-52400000D01*
X170214287Y-52471429D01*
X170285716Y-52542857D01*
X170357144Y-52685714D01*
X170357144Y-53042857D01*
X170285716Y-53185714D01*
X170214287Y-53257143D01*
X170071430Y-53328571D01*
X169714287Y-53328571D01*
X169571430Y-53257143D01*
X169500001Y-53185714D01*
X171642858Y-51828571D02*
X171357144Y-51828571D01*
X171214287Y-51900000D01*
X171142858Y-51971429D01*
X171000001Y-52185714D01*
X170928572Y-52471429D01*
X170928572Y-53042857D01*
X171000001Y-53185714D01*
X171071429Y-53257143D01*
X171214287Y-53328571D01*
X171500001Y-53328571D01*
X171642858Y-53257143D01*
X171714287Y-53185714D01*
X171785715Y-53042857D01*
X171785715Y-52685714D01*
X171714287Y-52542857D01*
X171642858Y-52471429D01*
X171500001Y-52400000D01*
X171214287Y-52400000D01*
X171071429Y-52471429D01*
X171000001Y-52542857D01*
X170928572Y-52685714D01*
X172428572Y-53185714D02*
X172500000Y-53257143D01*
X172428572Y-53328571D01*
X172357143Y-53257143D01*
X172428572Y-53185714D01*
X172428572Y-53328571D01*
X173428572Y-51828571D02*
X173571429Y-51828571D01*
X173714286Y-51900000D01*
X173785715Y-51971429D01*
X173857144Y-52114286D01*
X173928572Y-52400000D01*
X173928572Y-52757143D01*
X173857144Y-53042857D01*
X173785715Y-53185714D01*
X173714286Y-53257143D01*
X173571429Y-53328571D01*
X173428572Y-53328571D01*
X173285715Y-53257143D01*
X173214286Y-53185714D01*
X173142858Y-53042857D01*
X173071429Y-52757143D01*
X173071429Y-52400000D01*
X173142858Y-52114286D01*
X173214286Y-51971429D01*
X173285715Y-51900000D01*
X173428572Y-51828571D01*
X174857143Y-51828571D02*
X175000000Y-51828571D01*
X175142857Y-51900000D01*
X175214286Y-51971429D01*
X175285715Y-52114286D01*
X175357143Y-52400000D01*
X175357143Y-52757143D01*
X175285715Y-53042857D01*
X175214286Y-53185714D01*
X175142857Y-53257143D01*
X175000000Y-53328571D01*
X174857143Y-53328571D01*
X174714286Y-53257143D01*
X174642857Y-53185714D01*
X174571429Y-53042857D01*
X174500000Y-52757143D01*
X174500000Y-52400000D01*
X174571429Y-52114286D01*
X174642857Y-51971429D01*
X174714286Y-51900000D01*
X174857143Y-51828571D01*
X176285714Y-51828571D02*
X176428571Y-51828571D01*
X176571428Y-51900000D01*
X176642857Y-51971429D01*
X176714286Y-52114286D01*
X176785714Y-52400000D01*
X176785714Y-52757143D01*
X176714286Y-53042857D01*
X176642857Y-53185714D01*
X176571428Y-53257143D01*
X176428571Y-53328571D01*
X176285714Y-53328571D01*
X176142857Y-53257143D01*
X176071428Y-53185714D01*
X176000000Y-53042857D01*
X175928571Y-52757143D01*
X175928571Y-52400000D01*
X176000000Y-52114286D01*
X176071428Y-51971429D01*
X176142857Y-51900000D01*
X176285714Y-51828571D01*
X178571428Y-53328571D02*
X178571428Y-52328571D01*
X178571428Y-52471429D02*
X178642856Y-52400000D01*
X178785714Y-52328571D01*
X178999999Y-52328571D01*
X179142856Y-52400000D01*
X179214285Y-52542857D01*
X179214285Y-53328571D01*
X179214285Y-52542857D02*
X179285714Y-52400000D01*
X179428571Y-52328571D01*
X179642856Y-52328571D01*
X179785714Y-52400000D01*
X179857142Y-52542857D01*
X179857142Y-53328571D01*
X180571428Y-53328571D02*
X180571428Y-52328571D01*
X180571428Y-52471429D02*
X180642856Y-52400000D01*
X180785714Y-52328571D01*
X180999999Y-52328571D01*
X181142856Y-52400000D01*
X181214285Y-52542857D01*
X181214285Y-53328571D01*
X181214285Y-52542857D02*
X181285714Y-52400000D01*
X181428571Y-52328571D01*
X181642856Y-52328571D01*
X181785714Y-52400000D01*
X181857142Y-52542857D01*
X181857142Y-53328571D01*
X253000000Y-54000000D02*
X97000000Y-54000000D01*
X253000000Y-100000000D02*
X253000000Y-51300000D01*
X97000000Y-100000000D02*
X97000000Y-51300000D01*
X97000000Y-54000000D02*
X98126504Y-53413579D01*
X97000000Y-54000000D02*
X98126504Y-54586421D01*
X253000000Y-54000000D02*
X251873496Y-53413579D01*
X253000000Y-54000000D02*
X251873496Y-54586421D01*
X262528571Y-94071430D02*
X262600000Y-93928572D01*
X262671429Y-93857144D01*
X262814286Y-93785715D01*
X262885714Y-93785715D01*
X263028571Y-93857144D01*
X263100000Y-93928572D01*
X263171429Y-94071430D01*
X263171429Y-94357144D01*
X263100000Y-94500001D01*
X263028571Y-94571430D01*
X262885714Y-94642858D01*
X262814286Y-94642858D01*
X262671429Y-94571430D01*
X262600000Y-94500001D01*
X262528571Y-94357144D01*
X262528571Y-94071430D01*
X262457143Y-93928572D01*
X262385714Y-93857144D01*
X262242857Y-93785715D01*
X261957143Y-93785715D01*
X261814286Y-93857144D01*
X261742857Y-93928572D01*
X261671429Y-94071430D01*
X261671429Y-94357144D01*
X261742857Y-94500001D01*
X261814286Y-94571430D01*
X261957143Y-94642858D01*
X262242857Y-94642858D01*
X262385714Y-94571430D01*
X262457143Y-94500001D01*
X262528571Y-94357144D01*
X263171429Y-95571429D02*
X263171429Y-95714286D01*
X263100000Y-95857143D01*
X263028571Y-95928572D01*
X262885714Y-96000001D01*
X262600000Y-96071429D01*
X262242857Y-96071429D01*
X261957143Y-96000001D01*
X261814286Y-95928572D01*
X261742857Y-95857143D01*
X261671429Y-95714286D01*
X261671429Y-95571429D01*
X261742857Y-95428572D01*
X261814286Y-95357143D01*
X261957143Y-95285715D01*
X262242857Y-95214286D01*
X262600000Y-95214286D01*
X262885714Y-95285715D01*
X263028571Y-95357143D01*
X263100000Y-95428572D01*
X263171429Y-95571429D01*
X261814286Y-96714286D02*
X261742857Y-96785714D01*
X261671429Y-96714286D01*
X261742857Y-96642857D01*
X261814286Y-96714286D01*
X261671429Y-96714286D01*
X263171429Y-97714286D02*
X263171429Y-97857143D01*
X263100000Y-98000000D01*
X263028571Y-98071429D01*
X262885714Y-98142858D01*
X262600000Y-98214286D01*
X262242857Y-98214286D01*
X261957143Y-98142858D01*
X261814286Y-98071429D01*
X261742857Y-98000000D01*
X261671429Y-97857143D01*
X261671429Y-97714286D01*
X261742857Y-97571429D01*
X261814286Y-97500000D01*
X261957143Y-97428572D01*
X262242857Y-97357143D01*
X262600000Y-97357143D01*
X262885714Y-97428572D01*
X263028571Y-97500000D01*
X263100000Y-97571429D01*
X263171429Y-97714286D01*
X263171429Y-99142857D02*
X263171429Y-99285714D01*
X263100000Y-99428571D01*
X263028571Y-99500000D01*
X262885714Y-99571429D01*
X262600000Y-99642857D01*
X262242857Y-99642857D01*
X261957143Y-99571429D01*
X261814286Y-99500000D01*
X261742857Y-99428571D01*
X261671429Y-99285714D01*
X261671429Y-99142857D01*
X261742857Y-99000000D01*
X261814286Y-98928571D01*
X261957143Y-98857143D01*
X262242857Y-98785714D01*
X262600000Y-98785714D01*
X262885714Y-98857143D01*
X263028571Y-98928571D01*
X263100000Y-99000000D01*
X263171429Y-99142857D01*
X263171429Y-100571428D02*
X263171429Y-100714285D01*
X263100000Y-100857142D01*
X263028571Y-100928571D01*
X262885714Y-101000000D01*
X262600000Y-101071428D01*
X262242857Y-101071428D01*
X261957143Y-101000000D01*
X261814286Y-100928571D01*
X261742857Y-100857142D01*
X261671429Y-100714285D01*
X261671429Y-100571428D01*
X261742857Y-100428571D01*
X261814286Y-100357142D01*
X261957143Y-100285714D01*
X262242857Y-100214285D01*
X262600000Y-100214285D01*
X262885714Y-100285714D01*
X263028571Y-100357142D01*
X263100000Y-100428571D01*
X263171429Y-100571428D01*
X261671429Y-102857142D02*
X262671429Y-102857142D01*
X262528571Y-102857142D02*
X262600000Y-102928570D01*
X262671429Y-103071428D01*
X262671429Y-103285713D01*
X262600000Y-103428570D01*
X262457143Y-103499999D01*
X261671429Y-103499999D01*
X262457143Y-103499999D02*
X262600000Y-103571428D01*
X262671429Y-103714285D01*
X262671429Y-103928570D01*
X262600000Y-104071428D01*
X262457143Y-104142856D01*
X261671429Y-104142856D01*
X261671429Y-104857142D02*
X262671429Y-104857142D01*
X262528571Y-104857142D02*
X262600000Y-104928570D01*
X262671429Y-105071428D01*
X262671429Y-105285713D01*
X262600000Y-105428570D01*
X262457143Y-105499999D01*
X261671429Y-105499999D01*
X262457143Y-105499999D02*
X262600000Y-105571428D01*
X262671429Y-105714285D01*
X262671429Y-105928570D01*
X262600000Y-106071428D01*
X262457143Y-106142856D01*
X261671429Y-106142856D01*
X261000000Y-60000000D02*
X261000000Y-140000000D01*
X213000000Y-60000000D02*
X263700000Y-60000000D01*
X213000000Y-140000000D02*
X263700000Y-140000000D01*
X261000000Y-140000000D02*
X260413579Y-138873496D01*
X261000000Y-140000000D02*
X261586421Y-138873496D01*
X261000000Y-60000000D02*
X260413579Y-61126504D01*
X261000000Y-60000000D02*
X261586421Y-61126504D01*
M02*
